<svg width="620" height="440" viewBox="0 0 620 440" fill="none" xmlns="http://www.w3.org/2000/svg">
<g clip-path="url(#clip0_1407_9010)">
<path d="M236.778 244.356L239.45 245.68L241.714 246.776L243.254 247.487L244.174 247.86L245.722 248.434L248.774 249.251L249.276 249.382L249.978 249.543L254.254 250.529L254.57 250.602L258.859 251.53L260.072 251.793L261.696 252.144L262.476 252.313L266.77 253.213L271.065 254.114L271.882 254.285L276.181 255.164L280.48 256.044L281.306 256.213L285.611 257.065L289.264 257.787L293.58 258.582L294.645 258.778L297.824 259.253L299.547 259.357L299.811 259.344L300.82 259.222L301.74 258.995L302.687 258.689L302.888 258.624L303.847 258.245L304.815 257.795L305.782 257.277L305.941 257.186L306.891 256.611L307.823 255.98L308.728 255.298L309.591 254.54L309.723 254.423L309.822 254.324L310.869 253.211L311.519 252.521L314.397 249.208L314.673 248.891L315.311 248.135L318.141 244.782L320.031 242.543L322.843 239.174L325.655 235.805L327.968 233.033L330.771 229.657L333.574 226.281L336.377 222.904L337.372 221.706L340.168 218.324L342.964 214.942L345.76 211.56L346.759 210.351L349.546 206.962L352.333 203.572L354.646 200.76L357.414 197.355L359.919 194.275L362.639 190.831L362.948 190.441L364.471 188.357L365.23 187.12L365.837 185.979L366.414 184.794L366.954 183.577L367.452 182.338L367.903 181.089L368.303 179.842L368.649 178.61L368.936 177.403L369.164 176.055L369.18 175.948L369.355 173.573L369.48 169.187L369.481 169.127L369.531 164.74L369.567 161.558L369.587 157.17L369.607 152.781L369.618 150.334L369.623 145.946L369.629 141.558L369.635 137.17V137.03L369.63 132.642L369.624 128.254L369.618 123.743L369.598 119.355L369.578 114.967L369.567 112.57L369.517 108.183L369.481 105.086L369.355 100.768L369.18 98.5678L369.155 98.3703L368.923 97.2329L368.63 96.2956L368.561 96.0933L368.206 95.1819L367.794 94.3117L367.331 93.492L366.819 92.7307L366.666 92.5047L366.108 91.8039L365.512 91.175L364.884 90.6248L364.483 90.3053L363.701 89.809L362.857 89.2991L361.369 88.4956L359.136 87.3437L356.474 86.001L353.802 84.6766L351.539 83.5804L349.998 82.87L349.078 82.497L347.53 81.9226L344.478 81.1064L343.976 80.9752L339.7 79.9896L338.682 79.7548L334.393 78.8267L330.776 78.0443L326.482 77.1434L322.187 76.243L321.37 76.0718L317.071 75.1925L312.772 74.3131L311.946 74.1446L307.642 73.2924L303.988 72.5696L299.673 71.7754L298.608 71.5792L295.428 71.104L293.705 71L293.441 71.0127L292.432 71.1347L291.512 71.362L290.565 71.6683L290.364 71.7337L289.406 72.112L288.438 72.5622L287.47 73.08L287.311 73.1713L286.361 73.7461L285.429 74.3771L284.524 75.0586L283.529 75.9341L283.43 76.0328L281.733 77.8363L278.855 81.149L278.579 81.4662L275.748 84.8197L273.221 87.8141L270.409 91.1829L267.597 94.5517L265.284 97.3238L262.481 100.7L259.678 104.076L256.875 107.453L255.88 108.651L253.084 112.033L250.288 115.415L247.492 118.797L246.493 120.006L243.706 123.395L240.919 126.785L238.606 129.597L235.838 133.002L233.333 136.083L230.613 139.526L230.304 139.916L228.781 142L228.022 143.237L227.415 144.378L226.838 145.563L226.298 146.781L225.8 148.019L225.349 149.268L224.949 150.515L224.603 151.747L224.316 152.954L224.088 154.301L224.072 154.409L223.898 156.784L223.773 161.17L223.771 161.23L223.721 165.617L223.685 168.8L223.665 173.187L223.645 177.575L223.634 180.023L223.629 184.411L223.623 188.799L223.617 193.187V193.327L223.623 197.715L223.628 202.103L223.634 206.614L223.654 211.002L223.674 215.39L223.685 217.786L223.735 222.174L223.771 225.27L223.898 229.589L224.072 231.79L224.097 231.987L224.329 233.124L224.623 234.061L224.691 234.264L225.046 235.175L225.458 236.045L225.921 236.865L226.433 237.627L226.586 237.852L227.144 238.553L227.74 239.182L228.368 239.733L228.769 240.052L229.551 240.548L230.395 241.058L231.883 241.862L234.116 243.013L236.778 244.356Z" fill="#0C0B0F"/>
<mask id="mask0_1407_9010" style="mask-type:alpha" maskUnits="userSpaceOnUse" x="223" y="71" width="147" height="189">
<path d="M236.778 244.356L239.45 245.68L241.714 246.776L243.254 247.487L244.174 247.86L245.722 248.434L248.774 249.251L249.276 249.382L249.978 249.543L254.254 250.529L254.57 250.602L258.859 251.53L260.072 251.793L261.696 252.144L262.476 252.313L266.77 253.213L271.065 254.114L271.882 254.285L276.181 255.164L280.48 256.044L281.306 256.213L285.611 257.065L289.264 257.787L293.58 258.582L294.645 258.778L297.824 259.253L299.547 259.357L299.811 259.344L300.82 259.222L301.74 258.995L302.687 258.689L302.888 258.624L303.847 258.245L304.815 257.795L305.782 257.277L305.941 257.186L306.891 256.611L307.823 255.98L308.728 255.298L309.591 254.54L309.723 254.423L309.822 254.324L310.869 253.211L311.519 252.521L314.397 249.208L314.673 248.891L315.311 248.135L318.141 244.782L320.031 242.543L322.843 239.174L325.655 235.805L327.968 233.033L330.771 229.657L333.574 226.281L336.377 222.904L337.372 221.706L340.168 218.324L342.964 214.942L345.76 211.56L346.759 210.351L349.546 206.962L352.333 203.572L354.646 200.76L357.414 197.355L359.919 194.275L362.639 190.831L362.948 190.441L364.471 188.357L365.23 187.12L365.837 185.979L366.414 184.794L366.954 183.577L367.452 182.338L367.903 181.089L368.303 179.842L368.649 178.61L368.936 177.403L369.164 176.055L369.18 175.948L369.355 173.573L369.48 169.187L369.481 169.127L369.531 164.74L369.567 161.558L369.587 157.17L369.607 152.781L369.618 150.334L369.623 145.946L369.629 141.558L369.635 137.17V137.03L369.63 132.642L369.624 128.254L369.618 123.743L369.598 119.355L369.578 114.967L369.567 112.57L369.517 108.183L369.481 105.086L369.355 100.768L369.18 98.5678L369.155 98.3703L368.923 97.2329L368.63 96.2956L368.561 96.0933L368.206 95.1819L367.794 94.3117L367.331 93.492L366.819 92.7307L366.666 92.5047L366.108 91.8039L365.512 91.175L364.884 90.6248L364.483 90.3053L363.701 89.809L362.857 89.2991L361.369 88.4956L359.136 87.3437L356.474 86.001L353.802 84.6766L351.539 83.5804L349.998 82.87L349.078 82.497L347.53 81.9226L344.478 81.1064L343.976 80.9752L339.7 79.9896L338.682 79.7548L334.393 78.8267L330.776 78.0443L326.482 77.1434L322.187 76.243L321.37 76.0718L317.071 75.1925L312.772 74.3131L311.946 74.1446L307.642 73.2924L303.988 72.5696L299.673 71.7754L298.608 71.5792L295.428 71.104L293.705 71L293.441 71.0127L292.432 71.1347L291.512 71.362L290.565 71.6683L290.364 71.7337L289.406 72.112L288.438 72.5622L287.47 73.08L287.311 73.1713L286.361 73.7461L285.429 74.3771L284.524 75.0586L283.529 75.9341L283.43 76.0328L281.733 77.8363L278.855 81.149L278.579 81.4662L275.748 84.8197L273.221 87.8141L270.409 91.1829L267.597 94.5517L265.284 97.3238L262.481 100.7L259.678 104.076L256.875 107.453L255.88 108.651L253.084 112.033L250.288 115.415L247.492 118.797L246.493 120.006L243.706 123.395L240.919 126.785L238.606 129.597L235.838 133.002L233.333 136.083L230.613 139.526L230.304 139.916L228.781 142L228.022 143.237L227.415 144.378L226.838 145.563L226.298 146.781L225.8 148.019L225.349 149.268L224.949 150.515L224.603 151.747L224.316 152.954L224.088 154.301L224.072 154.409L223.898 156.784L223.773 161.17L223.771 161.23L223.721 165.617L223.685 168.8L223.665 173.187L223.645 177.575L223.634 180.023L223.629 184.411L223.623 188.799L223.617 193.187V193.327L223.623 197.715L223.628 202.103L223.634 206.614L223.654 211.002L223.674 215.39L223.685 217.786L223.735 222.174L223.771 225.27L223.898 229.589L224.072 231.79L224.097 231.987L224.329 233.124L224.623 234.061L224.691 234.264L225.046 235.175L225.458 236.045L225.921 236.865L226.433 237.627L226.586 237.852L227.144 238.553L227.74 239.182L228.368 239.733L228.769 240.052L229.551 240.548L230.395 241.058L231.883 241.862L234.116 243.013L236.778 244.356Z" fill="#0C0B0F"/>
</mask>
<g mask="url(#mask0_1407_9010)">
<g opacity="0.8">
<g opacity="0.8" filter="url(#filter0_f_1407_9010)">
<path opacity="0.8" d="M348.614 230.229C382.643 230.229 410.229 202.643 410.229 168.614C410.229 134.586 382.643 107 348.614 107C314.586 107 287 134.586 287 168.614C287 202.643 314.586 230.229 348.614 230.229Z" fill="#F55725"/>
</g>
<g opacity="0.8" filter="url(#filter1_f_1407_9010)">
<path opacity="0.8" d="M234.614 341.229C268.643 341.229 296.229 313.643 296.229 279.614C296.229 245.586 268.643 218 234.614 218C200.586 218 173 245.586 173 279.614C173 313.643 200.586 341.229 234.614 341.229Z" fill="#1F00CC"/>
</g>
</g>
</g>
<path d="M236.778 244.356L239.45 245.68L241.714 246.776L243.254 247.487L244.174 247.86L245.722 248.434L248.774 249.251L249.276 249.382L249.978 249.543L254.254 250.529L254.57 250.602L258.859 251.53L260.072 251.793L261.696 252.144L262.476 252.313L266.77 253.213L271.065 254.114L271.882 254.285L276.181 255.164L280.48 256.044L281.306 256.213L285.611 257.065L289.264 257.787L293.58 258.582L294.645 258.778L297.824 259.253L299.547 259.357L299.811 259.344L300.82 259.222L301.74 258.995L302.687 258.689L302.888 258.624L303.847 258.245L304.815 257.795L305.782 257.277L305.941 257.186L306.891 256.611L307.823 255.98L308.728 255.298L309.591 254.54L309.723 254.423L309.822 254.324L310.869 253.211L311.519 252.521L314.397 249.208L314.673 248.891L315.311 248.135L318.141 244.782L320.031 242.543L322.843 239.174L325.655 235.805L327.968 233.033L330.771 229.657L333.574 226.281L336.377 222.904L337.372 221.706L340.168 218.324L342.964 214.942L345.76 211.56L346.759 210.351L349.546 206.962L352.333 203.572L354.646 200.76L357.414 197.355L359.919 194.275L362.639 190.831L362.948 190.441L364.471 188.357L365.23 187.12L365.837 185.979L366.414 184.794L366.954 183.577L367.452 182.338L367.903 181.089L368.303 179.842L368.649 178.61L368.936 177.403L369.164 176.055L369.18 175.948L369.355 173.573L369.48 169.187L369.481 169.127L369.531 164.74L369.567 161.558L369.587 157.17L369.607 152.781L369.618 150.334L369.623 145.946L369.629 141.558L369.635 137.17V137.03L369.63 132.642L369.624 128.254L369.618 123.743L369.598 119.355L369.578 114.967L369.567 112.57L369.517 108.183L369.481 105.086L369.355 100.768L369.18 98.5678L369.155 98.3703L368.923 97.2329L368.63 96.2956L368.561 96.0933L368.206 95.1819L367.794 94.3117L367.331 93.492L366.819 92.7307L366.666 92.5047L366.108 91.8039L365.512 91.175L364.884 90.6248L364.483 90.3053L363.701 89.809L362.857 89.2991L361.369 88.4956L359.136 87.3437L356.474 86.001L353.802 84.6766L351.539 83.5804L349.998 82.87L349.078 82.497L347.53 81.9226L344.478 81.1064L343.976 80.9752L339.7 79.9896L338.682 79.7548L334.393 78.8267L330.776 78.0443L326.482 77.1434L322.187 76.243L321.37 76.0718L317.071 75.1925L312.772 74.3131L311.946 74.1446L307.642 73.2924L303.988 72.5696L299.673 71.7754L298.608 71.5792L295.428 71.104L293.705 71L293.441 71.0127L292.432 71.1347L291.512 71.362L290.565 71.6683L290.364 71.7337L289.406 72.112L288.438 72.5622L287.47 73.08L287.311 73.1713L286.361 73.7461L285.429 74.3771L284.524 75.0586L283.529 75.9341L283.43 76.0328L281.733 77.8363L278.855 81.149L278.579 81.4662L275.748 84.8197L273.221 87.8141L270.409 91.1829L267.597 94.5517L265.284 97.3238L262.481 100.7L259.678 104.076L256.875 107.453L255.88 108.651L253.084 112.033L250.288 115.415L247.492 118.797L246.493 120.006L243.706 123.395L240.919 126.785L238.606 129.597L235.838 133.002L233.333 136.083L230.613 139.526L230.304 139.916L228.781 142L228.022 143.237L227.415 144.378L226.838 145.563L226.298 146.781L225.8 148.019L225.349 149.268L224.949 150.515L224.603 151.747L224.316 152.954L224.088 154.301L224.072 154.409L223.898 156.784L223.773 161.17L223.771 161.23L223.721 165.617L223.685 168.8L223.665 173.187L223.645 177.575L223.634 180.023L223.629 184.411L223.623 188.799L223.617 193.187V193.327L223.623 197.715L223.628 202.103L223.634 206.614L223.654 211.002L223.674 215.39L223.685 217.786L223.735 222.174L223.771 225.27L223.898 229.589L224.072 231.79L224.097 231.987L224.329 233.124L224.623 234.061L224.691 234.264L225.046 235.175L225.458 236.045L225.921 236.865L226.433 237.627L226.586 237.852L227.144 238.553L227.74 239.182L228.368 239.733L228.769 240.052L229.551 240.548L230.395 241.058L231.883 241.862L234.116 243.013L236.778 244.356Z" stroke="#A7A9B2" stroke-width="1.2" stroke-linejoin="round"/>
</g>
<defs>
<filter id="filter0_f_1407_9010" x="87" y="-93" width="523.227" height="523.229" filterUnits="userSpaceOnUse" color-interpolation-filters="sRGB">
<feFlood flood-opacity="0" result="BackgroundImageFix"/>
<feBlend mode="normal" in="SourceGraphic" in2="BackgroundImageFix" result="shape"/>
<feGaussianBlur stdDeviation="100" result="effect1_foregroundBlur_1407_9010"/>
</filter>
<filter id="filter1_f_1407_9010" x="-27" y="18" width="523.227" height="523.229" filterUnits="userSpaceOnUse" color-interpolation-filters="sRGB">
<feFlood flood-opacity="0" result="BackgroundImageFix"/>
<feBlend mode="normal" in="SourceGraphic" in2="BackgroundImageFix" result="shape"/>
<feGaussianBlur stdDeviation="100" result="effect1_foregroundBlur_1407_9010"/>
</filter>
<clipPath id="clip0_1407_9010">
<rect width="620" height="440" fill="white"/>
</clipPath>
</defs>
</svg>
