<svg width="348" height="300" viewBox="0 0 348 300" fill="none" xmlns="http://www.w3.org/2000/svg">
<path d="M267.641 197.97L271.566 199.933L275.491 201.895L279.415 203.857L283.34 205.82L287.265 207.782L290.743 209.521L292.61 210.237L294.784 210.687L297.117 210.841L299.45 210.687L301.624 210.237L303.492 209.521L307.416 207.559L311.341 205.596L315.266 203.633L319.191 201.671L321.572 200.481L324.488 198.571L326.863 196.059L328.538 193.115L329.398 189.94L329.383 186.75L328.496 183.762L326.647 179.783L324.797 175.803L322.948 171.824L321.099 167.844L319.25 163.865L318.046 161.273L317.519 159.713L317.19 157.755L317.08 155.533L317.199 153.197L317.536 150.907L318.071 148.82L319.41 144.642L320.751 140.463L322.091 136.284L323.431 132.106L324.771 127.927L326.111 123.749L327.451 119.57L328.791 115.392L330.131 111.213L331.471 107.035L332.811 102.856L334.151 98.6777L335.491 94.4989L336.831 90.3204L337.38 88.6113L337.914 86.0692L337.931 83.4595L337.427 80.9596L336.927 79.8389" stroke="#A7A9B2" stroke-width="1.2" stroke-linejoin="round"/>
<path d="M12.7788 191.506L15.9357 192.511L19.6595 191.556L23.5847 189.593L27.5095 187.631L31.4343 185.669L35.359 183.706L39.2842 181.744L43.209 179.781L47.1338 177.819L51.0586 175.856L54.8969 173.937L58.4184 171.319L58.6207 171.168L61.2729 167.672L61.778 167.006L63.5065 162.973L63.8874 162.085L64.539 157.745L64.6281 157.154V152.766V148.377V143.989V139.601V135.213V130.825V126.437V122.048V117.66V113.997L63.8874 109.807L61.778 106.995L57.8528 105.032L53.928 103.07L52.8415 102.527L49.6846 101.521L45.9608 102.476L42.0356 104.439L38.1108 106.401L34.1861 108.364L30.2609 110.326L26.3361 112.289L22.4113 114.251L18.4865 116.214L14.5613 118.176L10.7234 120.095L7.20189 122.714L6.99916 122.864L4.34741 126.36L3.84233 127.026L2.11382 131.06L1.73293 131.947L1.08127 136.287L0.992188 136.878V141.266V145.655V150.043V154.431V158.819V163.207V167.595V171.984V176.372V180.035L1.73293 184.226L3.84233 187.037L7.76752 189L11.6923 190.962L12.7788 191.506Z" stroke="#A7A9B2" stroke-width="1.2" stroke-linejoin="round"/>
<path d="M336.929 79.8392L338.266 75.6594L338.662 74.4193L339.639 71.3669L340.615 68.3145L341.552 65.3837L342.49 62.4528L343.112 60.5071L343.734 58.5618L344.133 57.3169L344.531 56.072L344.759 55.3571L344.988 54.6423L345.297 53.6734L345.563 52.83L345.828 51.9866L345.973 51.4986L346.118 51.0111L346.24 50.5613L346.362 50.1115L346.467 49.6736L346.572 49.2356L346.657 48.803L346.743 48.3699L346.808 47.9398L346.872 47.5102L346.913 47.0806L346.954 46.6514L346.97 46.2214L346.985 45.7914L346.974 45.3626L346.963 44.9335L346.927 44.5087L346.891 44.0835L346.829 43.6644L346.767 43.2458L346.679 42.8359L346.592 42.4261L346.479 42.0276L346.368 41.6292L346.232 41.2443L346.095 40.8599L345.936 40.4918L345.777 40.1232L345.595 39.7734L345.414 39.4237L345.211 39.0946L345.008 38.7655L345.004 38.7589L344.999 38.7527L344.776 38.4456L344.554 38.1388L344.312 37.8562L344.071 37.5741L343.813 37.3174L343.555 37.0611L343.285 36.8294L343.015 36.5981L342.738 36.3897L342.461 36.1817L342.182 35.9952L341.903 35.8092L341.609 35.6332L341.315 35.4577L340.915 35.2431L340.516 35.0289L339.899 34.7147L339.281 34.401L338.545 34.032L337.984 33.7515L337.424 33.4707L335.451 32.4842L333.478 31.4973L332.475 30.9958L331.472 30.4942L329.607 29.5622L327.744 28.6306L325.772 27.6445L323.801 26.6589L321.83 25.6734L319.858 24.6878L317.995 23.7557L316.13 22.8237L314.481 21.9992L312.832 21.1746L311.505 20.5111L310.178 19.8476L309.244 19.3812L308.31 18.9151L307.695 18.6128L307.079 18.3105L306.672 18.1213L306.265 17.9326L305.954 17.8058L305.644 17.6794L305.34 17.5741L305.035 17.4688L305.008 17.46L304.981 17.4517L304.666 17.3639L304.35 17.2757L304.027 17.2103L303.703 17.1454L303.64 17.1357L303.577 17.1265L303.248 17.0897L302.919 17.0528L302.753 17.0379L302.588 17.0234L301.668 16.9536L300.748 16.8843L299.828 16.8229L298.908 16.7614L298.742 16.7527L298.576 16.7443L298.244 16.7408L297.913 16.7373H297.85L297.786 16.7377L297.455 16.768L297.124 16.7983L297.096 16.8031L297.069 16.8075L296.74 16.8711L296.411 16.9352L296.086 17.0317L295.761 17.1287L295.442 17.2586L295.123 17.3881L294.812 17.5495L294.501 17.711L294.199 17.9032L293.898 18.0954L293.608 18.3175L293.319 18.5391L293.042 18.7892L292.766 19.0393L292.76 19.0455L292.754 19.0512L292.494 19.3281L292.232 19.6045L291.988 19.906L291.744 20.2075L291.518 20.5317L291.292 20.8565L291.085 21.2027L290.878 21.5489L290.687 21.9162L290.497 22.2831L290.321 22.6705L290.144 23.058L289.978 23.4652L289.812 23.8725L289.653 24.3038L289.493 24.7352L289.329 25.2135L289.165 25.6918L288.892 26.5313L288.62 27.3711L288.309 28.3396L288.08 29.054L287.852 29.7688L287.454 31.0138L287.055 32.2587L286.827 32.974L286.598 33.6888L285.26 37.8729L283.922 42.057L283.55 43.2181L283.179 44.3797L281.842 48.559L281.154 50.7101L279.817 54.8894L279.129 57.0404L278.902 57.7504L278.675 58.46L277.338 62.6397L276.705 64.6192L275.368 68.7985L274.735 70.778L273.398 74.9578L272.666 77.2449L271.33 81.4246L270.598 83.7117L269.261 87.8915L268.677 89.7183L267.34 93.898L266.756 95.7248L265.419 99.9045L264.936 101.414L263.6 105.593L263.117 107.102L262.254 109.8L261.391 112.497L260.054 116.677L258.717 120.856L258.627 121.141L257.289 125.321L255.953 129.501L255.862 129.785L255.624 130.53L255.385 131.274L254.763 133.219L254.141 135.165L253.743 136.41L253.345 137.655L253.056 138.558L252.767 139.46L252.457 140.433L252.252 141.087L252.047 141.74L251.903 142.228L251.757 142.715L251.635 143.165L251.513 143.615L251.408 144.053L251.304 144.491L251.218 144.924L251.132 145.356L251.068 145.786L251.003 146.216L250.962 146.646L250.921 147.075L250.906 147.505L250.891 147.935L250.901 148.364L250.912 148.793L250.948 149.218L250.985 149.643L251.046 150.062L251.109 150.481L251.196 150.891L251.283 151.3L251.396 151.699L251.508 152.097L251.644 152.482L251.78 152.867L251.939 153.235L252.099 153.603L252.28 153.953L252.462 154.303L252.664 154.632L252.867 154.961L252.872 154.967L252.932 155.05" stroke="#A7A9B2" stroke-width="1.2" stroke-linejoin="round"/>
<path d="M116.971 179.543L113.046 181.506L109.121 183.468L105.196 185.431L101.271 187.393L97.3465 189.355L93.4213 191.318L89.4965 193.28L85.5717 195.243L81.6465 197.205L77.7217 199.168L73.797 201.13L69.8722 203.093L65.947 205.055L62.0222 207.017L58.0974 208.98L54.1726 210.943L50.2474 212.905L47.4557 214.301L44.8952 215.815L43.1285 217.591L42.4922 219.548V223.936V226.844L43.1285 228.801L44.8952 230.577L47.4557 232.091L51.3804 234.054L55.3056 236.016L59.2304 237.978L63.1552 239.941L67.08 241.903L71.0052 243.866L74.93 245.828L78.8548 247.791L82.7795 249.753L86.7048 251.716L90.6295 253.678L94.5543 255.64L98.4795 257.603L102.404 259.566L106.329 261.528L110.254 263.49L114.179 265.453L118.104 267.415L122.029 269.378L125.953 271.34L129.879 273.303L133.803 275.265L137.728 277.228L141.653 279.19L145.578 281.152L149.503 283.115L153.428 285.077L157.353 287.04L161.278 289.002L165.203 290.965L169.127 292.927L173.053 294.89L175.562 296.144L178.59 297.425L182.141 298.307L186.056 298.626L189.97 298.307L193.521 297.425L196.549 296.144L200.474 294.182L204.399 292.219L208.324 290.257L212.249 288.295L216.174 286.332L220.099 284.369L224.024 282.407L227.949 280.445L231.873 278.482L235.798 276.52L239.723 274.557L242.27 273.284" stroke="#A7A9B2" stroke-width="1.2" stroke-linejoin="round"/>
<path d="M253.343 267.748L257.268 265.786L261.193 263.824L265.118 261.861L269.043 259.898L272.968 257.936L276.893 255.974L280.817 254.011L284.743 252.049L288.667 250.086L289.646 249.597L292.206 248.082L293.973 246.307L294.61 244.35V239.962V237.054L293.973 235.096L292.206 233.321L289.646 231.807L285.721 229.844L281.796 227.881L277.872 225.919L273.946 223.957L270.022 221.994L266.097 220.032L262.172 218.069L258.247 216.107L254.322 214.144L250.397 212.182L246.472 210.219L242.547 208.257L238.622 206.295L234.698 204.332L230.773 202.37L226.848 200.407L222.923 198.445L218.998 196.482L215.073 194.52L211.148 192.557L207.223 190.595L203.299 188.633L199.373 186.67L195.449 184.707L191.524 182.745L187.599 180.783L183.674 178.82L182.305 178.136" stroke="#A7A9B2" stroke-width="1.2" stroke-linejoin="round"/>
<path d="M316.832 255.789L315.119 256.943L313.161 258.166L311.113 259.363L308.996 260.534L306.83 261.677L304.636 262.79L302.433 263.869L300.241 264.915L298.08 265.925L295.971 266.898L293.932 267.831L291.985 268.723L290.149 269.573L288.444 270.378L286.893 271.136L285.443 271.846L284.02 272.512L282.617 273.133L281.23 273.706L279.858 274.229L278.496 274.699L277.144 275.113L275.799 275.47L274.456 275.767L273.114 276.002L271.769 276.173L270.417 276.277L269.053 276.314L267.672 276.28L266.269 276.173L264.84 275.99L263.38 275.727L261.885 275.381L260.352 274.95L258.779 274.431L257.161 273.82L256.711 273.629" stroke="#A7A9B2" stroke-width="1.2" stroke-linejoin="round"/>
<path d="M254.43 274.767L254.838 274.959L256.542 275.681L258.206 276.31L259.835 276.848L261.433 277.297L263.003 277.659L264.547 277.937L266.068 278.132L267.569 278.247L269.051 278.283L270.515 278.244L271.962 278.132L273.394 277.95L274.814 277.702L276.225 277.39L277.629 277.018L279.03 276.589L280.432 276.105L281.839 275.569L283.253 274.985L284.68 274.354L286.121 273.679L287.578 272.965L289.122 272.211L290.818 271.409L292.648 270.562L294.594 269.671L296.633 268.737L298.746 267.763L300.913 266.75L303.114 265.7L305.328 264.615L307.535 263.496L309.715 262.346L311.849 261.165L313.916 259.957L315.895 258.721L317.768 257.46L318.062 257.252L319.816 255.96L321.423 254.645L322.863 253.308L324.115 251.95L325.156 250.573L325.966 249.178L326.523 247.767L326.654 247.35L326.937 245.918L326.92 244.471L326.544 242.992L326.414 242.578L325.658 241.064L324.557 239.517L323.141 237.942L321.442 236.343L319.487 234.726L317.306 233.097L317.01 232.888L314.64 231.257L312.099 229.625L309.418 227.996L306.624 226.378L303.746 224.777L300.812 223.199L297.852 221.652L294.893 220.14L291.964 218.67L289.094 217.25L286.313 215.885L283.647 214.582L281.127 213.347L278.781 212.187L276.639 211.109L274.728 210.12L273.089 209.232L271.873 208.461" stroke="#A7A9B2" stroke-width="1.2" stroke-linejoin="round"/>
<path d="M324.747 247.033L324.316 248.124L323.545 249.45L322.548 250.768L321.344 252.074L319.952 253.368L318.39 254.645L316.836 255.789" stroke="#A7A9B2" stroke-width="1.2" stroke-linejoin="round"/>
<path d="M324.688 243.489L324.954 244.536L324.969 245.872L324.739 247.033" stroke="#A7A9B2" stroke-width="1.2" stroke-linejoin="round"/>
<path d="M316.008 234.51L318.052 236.037L319.963 237.617L321.614 239.17L322.979 240.688L324.03 242.163L324.692 243.489" stroke="#A7A9B2" stroke-width="1.2" stroke-linejoin="round"/>
<path d="M265.776 197.041L265.692 197.782L265.625 199.312L265.68 200.802L265.871 202.246L265.913 202.544L266.256 203.951L266.76 205.296L267.436 206.572L268.296 207.77L269.348 208.885L270.602 209.91L270.876 210.105L272.327 211.027L274.005 211.936L275.928 212.932L278.079 214.014L280.429 215.176L282.951 216.412L285.616 217.715L288.396 219.079L291.262 220.497L294.185 221.964L297.136 223.472L300.088 225.016L303.011 226.588L305.878 228.182L308.658 229.792L311.323 231.41L313.845 233.031L315.996 234.511" stroke="#A7A9B2" stroke-width="1.2" stroke-linejoin="round"/>
<path d="M271.871 208.461L270.843 207.621L269.889 206.61L269.115 205.532L268.509 204.389L268.058 203.186L267.758 201.949" stroke="#A7A9B2" stroke-width="1.2" stroke-linejoin="round"/>
<path d="M267.762 201.95L267.622 200.89L267.57 199.504L267.633 198.069L267.644 197.971" stroke="#A7A9B2" stroke-width="1.2" stroke-linejoin="round"/>
<path d="M316.832 255.789L315.119 256.943L313.161 258.166L311.113 259.363L308.996 260.534L306.83 261.677L304.636 262.79L302.433 263.869L300.241 264.915L298.08 265.925L295.971 266.898L293.932 267.831L291.985 268.723L290.149 269.573L288.444 270.378L286.893 271.136L285.443 271.846L284.02 272.512L282.617 273.133L281.23 273.706L279.858 274.229L278.496 274.699L277.144 275.113L275.799 275.47L274.456 275.767L273.114 276.002L271.769 276.173L270.417 276.277L269.053 276.314L267.672 276.28L266.269 276.173L264.84 275.99L263.38 275.727L261.885 275.381L260.352 274.95L258.779 274.431L257.161 273.82L256.711 273.629" stroke="#A7A9B2" stroke-width="1.2" stroke-linejoin="round"/>
<path d="M254.43 274.767L254.838 274.959L256.542 275.681L258.206 276.31L259.835 276.848L261.433 277.297L263.003 277.659L264.547 277.937L266.068 278.132L267.569 278.247L269.051 278.283L270.515 278.244L271.962 278.132L273.394 277.95L274.814 277.702L276.225 277.39L277.629 277.018L279.03 276.589L280.432 276.105L281.839 275.569L283.253 274.985L284.68 274.354L286.121 273.679L287.578 272.965L289.122 272.211L290.818 271.409L292.648 270.562L294.594 269.671L296.633 268.737L298.746 267.763L300.913 266.75L303.114 265.7L305.328 264.615L307.535 263.496L309.715 262.346L311.849 261.165L313.916 259.957L315.895 258.721L317.768 257.46L318.062 257.252L319.816 255.96L321.423 254.645L322.863 253.308L324.115 251.95L325.156 250.573L325.966 249.178L326.523 247.767L326.654 247.35L326.937 245.918L326.92 244.471L326.544 242.992L326.414 242.578L325.658 241.064L324.557 239.517L323.141 237.942L321.442 236.343L319.487 234.726L317.306 233.097L317.01 232.888L314.64 231.257L312.099 229.625L309.418 227.996L306.624 226.378L303.746 224.777L300.812 223.199L297.852 221.652L294.893 220.14L291.964 218.67L289.094 217.25L286.313 215.885L283.647 214.582L281.127 213.347L278.781 212.187L276.639 211.109L274.728 210.12L273.089 209.232L271.873 208.461" stroke="#A7A9B2" stroke-width="1.2" stroke-linejoin="round"/>
<path d="M324.747 247.033L324.316 248.124L323.545 249.45L322.548 250.768L321.344 252.074L319.952 253.368L318.39 254.645L316.836 255.789" stroke="#A7A9B2" stroke-width="1.2" stroke-linejoin="round"/>
<path d="M324.688 243.489L324.954 244.536L324.969 245.872L324.739 247.033" stroke="#A7A9B2" stroke-width="1.2" stroke-linejoin="round"/>
<path d="M316.008 234.51L318.052 236.037L319.963 237.617L321.614 239.17L322.979 240.688L324.03 242.163L324.692 243.489" stroke="#A7A9B2" stroke-width="1.2" stroke-linejoin="round"/>
<path d="M265.776 197.041L265.692 197.782L265.625 199.312L265.68 200.802L265.871 202.246L265.913 202.544L266.256 203.951L266.76 205.296L267.436 206.572L268.296 207.77L269.348 208.885L270.602 209.91L270.876 210.105L272.327 211.027L274.005 211.936L275.928 212.932L278.079 214.014L280.429 215.176L282.951 216.412L285.616 217.715L288.396 219.079L291.262 220.497L294.185 221.964L297.136 223.472L300.088 225.016L303.011 226.588L305.878 228.182L308.658 229.792L311.323 231.41L313.845 233.031L315.996 234.511" stroke="#A7A9B2" stroke-width="1.2" stroke-linejoin="round"/>
<path d="M271.871 208.461L270.843 207.621L269.889 206.61L269.115 205.532L268.509 204.389L268.058 203.186L267.758 201.949" stroke="#A7A9B2" stroke-width="1.2" stroke-linejoin="round"/>
<path d="M267.762 201.95L267.622 200.89L267.57 199.504L267.633 198.069L267.644 197.971" stroke="#A7A9B2" stroke-width="1.2" stroke-linejoin="round"/>
<path d="M256.713 273.629L257.454 273.259V269.799L253.528 267.836L253.352 267.748" stroke="#A7A9B2" stroke-width="1.2" stroke-linejoin="round"/>
<path d="M242.273 273.284L246.198 275.247L249.835 277.065L253.76 275.102L254.43 274.768" stroke="#A7A9B2" stroke-width="1.2" stroke-linejoin="round"/>
<path d="M182.311 178.135L185.141 174.782L187.031 172.543L189.843 169.174L192.655 165.805L194.968 163.033L197.771 159.657L200.574 156.281L203.377 152.904L204.372 151.706L207.168 148.324L209.964 144.942L212.76 141.56L213.759 140.351L216.546 136.962L219.333 133.572L221.646 130.76L224.414 127.355L226.919 124.275L229.639 120.831L229.948 120.441L231.471 118.357L232.23 117.12L232.837 115.979L233.414 114.794L233.954 113.577L234.452 112.338L234.903 111.089L235.303 109.842L235.649 108.61L235.936 107.403L236.164 106.055L236.18 105.948L236.355 103.573L236.48 99.1866L236.481 99.1274L236.531 94.7396L236.567 91.5578L236.587 87.1696L236.607 82.7814L236.618 80.3341L236.623 75.946L236.629 71.5578L236.635 67.1696V67.0301L236.63 62.6419L236.624 58.2538L236.618 53.7432L236.598 49.355L236.578 44.9668L236.567 42.5704L236.517 38.1827L236.481 35.0864L236.355 30.768L236.18 28.5678L236.155 28.3703L235.923 27.2329L235.63 26.2956L235.561 26.0933L235.206 25.1819L234.794 24.3117L234.331 23.492L233.819 22.7307L233.666 22.5047L233.108 21.8039L232.512 21.175L231.884 20.6248L231.483 20.3053L230.701 19.809L229.857 19.2991L228.369 18.4956L226.136 17.3437L223.474 16.001L220.802 14.6766L218.539 13.5804L216.998 12.87L216.078 12.497L214.53 11.9226L211.478 11.1064L210.976 10.9752L206.7 9.9896L205.682 9.75483L201.393 8.82674L197.776 8.04432L193.482 7.14344L189.187 6.24298L188.37 6.07184L184.071 5.19245L179.772 4.31306L178.946 4.14456L174.642 3.29238L170.988 2.56965L166.673 1.77539L165.608 1.57924L162.428 1.104L160.705 1L160.441 1.01272L159.432 1.13472L158.512 1.36202L157.565 1.66831L157.364 1.7337L156.406 2.11196L155.438 2.56219L154.47 3.07999L154.311 3.17127L153.361 3.74611L152.429 4.37713L151.524 5.05861L150.529 5.93405L150.43 6.03279L148.733 7.83632L145.855 11.149L145.579 11.4662L142.748 14.8197L140.221 17.8141L137.409 21.1829L134.597 24.5517L132.284 27.3238L129.481 30.7L126.678 34.0763L123.875 37.4525L122.88 38.6514L120.084 42.0333L117.288 45.4153L114.492 48.7973L113.493 50.0058L110.706 53.3952L107.919 56.7846L105.606 59.597L102.838 63.0018L100.333 66.0827L97.6128 69.5257L97.3043 69.9158L95.7808 72.0001L95.0225 73.2372L94.4147 74.3781L93.8381 75.5629L93.2979 76.7806L92.8003 78.0194L92.3492 79.2678L91.949 80.5145L91.6032 81.7471L91.3158 82.9543L91.0881 84.3015L91.0723 84.409L90.8976 86.7839L90.7725 91.1703L90.7708 91.2295L90.7208 95.6173L90.6848 98.7996L90.665 103.187L90.6453 107.575L90.6339 110.023L90.6286 114.411L90.6229 118.799L90.6172 123.187V123.327L90.6229 127.715L90.6282 132.103L90.6339 136.614L90.6541 141.002L90.6738 145.39L90.6848 147.786L90.7352 152.174L90.7708 155.27L90.8976 159.589L91.0723 161.79L91.0968 161.987L91.329 163.124L91.6225 164.061L91.6914 164.264L92.0464 165.175L92.4576 166.045L92.9214 166.865L93.4331 167.627L93.5858 167.852L94.144 168.553L94.7403 169.182L95.3683 169.733L95.7689 170.052L96.5509 170.548L97.3952 171.058L98.8832 171.862L101.116 173.013L103.778 174.356L106.45 175.68L108.714 176.776L110.254 177.487L111.174 177.86L112.722 178.434L115.774 179.251L116.276 179.382L116.978 179.543" stroke="#A7A9B2" stroke-width="1.2" stroke-linejoin="round"/>
<path d="M259.376 159.409L259.375 159.414" stroke="#A7A9B2" stroke-width="1.2" stroke-linejoin="round"/>
<path d="M259.375 159.414L259.376 159.409" stroke="#A7A9B2" stroke-width="1.2" stroke-linejoin="round"/>
<path d="M265.782 197.04L251.741 190.02L250.309 189.087L249.409 188L249.102 186.833V184.645L249.409 183.478L250.309 182.391L251.741 181.458L269.241 172.711L271.464 165.76L258.596 159.325L257.362 158.697L256.563 158.269L256.268 158.093L255.974 157.917L255.416 157.545L255.139 157.336L254.862 157.128L254.322 156.665L254.064 156.409L253.807 156.152L253.324 155.588L252.933 155.05L252.878 154.974" stroke="#A7A9B2" stroke-width="1.2" stroke-linejoin="round"/>
</svg>
