<svg width="620" height="440" viewBox="0 0 620 440" fill="none" xmlns="http://www.w3.org/2000/svg">
<path d="M419.279 286.141C414.518 283.749 409.384 281.533 404.843 278.725C402.737 277.211 401.158 274.798 400.719 272.231C399.644 264.42 404.383 255.337 406.884 248.009L408.332 248.733L410.526 248.887H410.636C411.754 245.399 412.171 243.972 413.29 240.484L404.427 236.03C403.308 239.519 402.562 241.778 401.443 245.289C402.343 245.75 404.186 246.671 405.085 247.11C402.233 255.666 395.344 268.216 400.39 276.838C402.255 279.91 405.787 281.621 408.881 283.201C411.755 284.649 414.98 286.228 417.876 287.654C428.451 292.876 439.245 298.054 448.943 304.789C452.19 307.225 455.919 309.967 457.652 313.763L457.915 314.816L457.937 316.154L457.696 317.295C456.358 321.025 452.892 323.767 449.776 326.049C441.527 331.687 432.137 335.615 423.12 339.827C411.36 345.729 402.65 349.327 389.684 343.886L387.704 343.016C386.984 342.922 386.097 343.886 386.204 344.531L387.423 345.005C395.321 348.735 403.68 349.678 412.017 346.826C415.44 345.707 418.884 344.04 422.109 342.438C425.927 340.617 430.074 338.774 433.891 336.975C439.617 334.254 445.519 331.314 450.741 327.694C454.69 324.864 459.232 321.288 459.912 316.154L459.89 314.706C459.363 311.437 456.796 308.717 454.405 306.588C450.763 303.473 446.506 300.709 442.382 298.251C434.922 293.863 427.046 289.936 419.279 286.141Z" fill="white"/>
<path d="M442.382 298.251C434.922 293.863 427.046 289.936 419.279 286.141C414.518 283.749 409.384 281.533 404.843 278.725C402.737 277.211 401.158 274.798 400.719 272.231C399.644 264.42 404.383 255.337 406.884 248.009L408.332 248.733L410.526 248.887H410.636C411.754 245.399 412.171 243.972 413.29 240.484L404.427 236.03C403.308 239.519 402.562 241.778 401.443 245.289C402.343 245.75 404.186 246.671 405.085 247.11C402.233 255.666 395.344 268.216 400.39 276.838C402.255 279.91 405.787 281.621 408.881 283.201C411.755 284.649 414.98 286.228 417.876 287.654C428.451 292.876 439.245 298.054 448.943 304.789C452.19 307.225 455.919 309.967 457.652 313.763L457.915 314.816L457.937 316.154L457.696 317.295C456.358 321.025 452.892 323.767 449.776 326.049C441.527 331.687 432.137 335.615 423.12 339.827C411.36 345.729 402.65 349.327 389.684 343.886L387.704 343.016C386.984 342.922 386.097 343.886 386.204 344.531L387.423 345.005M442.382 298.251C446.506 300.709 450.763 303.473 454.405 306.588M442.382 298.251C446.506 300.709 450.763 303.451 454.405 306.588M454.405 306.588C456.796 308.717 459.363 311.437 459.89 314.706M454.405 306.588C456.796 308.717 459.363 311.415 459.89 314.706M459.89 314.706L459.912 316.154C459.232 321.288 454.69 324.864 450.741 327.694C445.519 331.314 439.617 334.254 433.891 336.975C430.074 338.774 425.927 340.617 422.109 342.438C418.884 344.04 415.44 345.707 412.017 346.826M412.017 346.826C403.68 349.678 395.299 348.735 387.423 345.005M412.017 346.826C403.68 349.678 395.321 348.735 387.423 345.005" stroke="#787796" stroke-width="1.2" stroke-linejoin="round"/>
<path d="M386.301 338.006C394.726 333.793 403.282 329.515 411.685 325.28C414.603 323.811 417.894 322.165 420.79 320.651C422.216 319.839 424.301 318.984 425.551 317.887C427.482 316.175 427.416 315.035 427.372 312.424C427.35 310.778 427.416 308.453 427.328 306.829C426.868 304.372 424.235 303.056 422.216 302.024C420.132 300.905 417.499 299.611 415.393 298.536C406.42 293.994 397.293 289.431 388.276 284.911C362.584 272.055 336.827 259.176 311.092 246.363C306.002 243.84 300.692 241.185 295.58 238.684C294.066 238.048 292.158 236.929 290.556 236.534C286.914 235.503 282.943 235.349 279.235 236.095C277.195 236.425 275.023 237.412 273.158 238.311C270.92 239.43 268.199 240.725 265.962 241.844C258.721 245.42 251.35 249.106 244.131 252.704C224.166 262.686 204.113 272.669 184.192 282.761C182.722 283.529 180.55 284.604 179.102 285.416C177.742 286.162 176.338 287.303 175.811 288.817C175.679 289.036 175.701 289.541 175.658 289.782V291.976C175.745 293.402 175.592 295.662 175.658 297.088C175.723 298.997 177.325 300.445 178.883 301.344C188.119 306.193 197.597 310.844 206.9 315.539C222.016 323.108 237.199 330.722 252.337 338.269C265.501 344.851 278.752 351.477 291.938 358.037C296.677 360.384 301.658 362.863 306.397 365.189C307.998 365.935 309.995 366.988 311.64 367.602C313.351 368.151 315.282 368.546 317.059 368.677C320.175 368.919 323.422 368.568 326.384 367.602C329.258 366.483 332.307 364.838 335.072 363.521C348.433 356.896 361.86 350.182 375.2 343.512" stroke="#787796" stroke-width="0.6" stroke-linejoin="round"/>
<path d="M175.68 289.804C175.789 292.546 178.685 293.994 180.836 295.091C182.174 295.815 184.346 296.868 185.706 297.592C197.29 303.472 209.028 309.33 220.656 315.144C239.042 324.337 257.493 333.574 275.9 342.766C284.72 347.154 293.65 351.63 302.469 355.974C305.717 357.466 309.095 359.484 312.496 360.581C316.73 361.788 321.338 361.788 325.572 360.581C327.634 360.011 329.916 358.738 331.847 357.839C335.928 355.864 340.25 353.692 344.309 351.696C356.178 345.772 368.135 339.804 379.983 333.881C392.269 327.738 404.643 321.551 416.885 315.364C418.311 314.618 420.549 313.499 421.997 312.753C424.169 311.59 427.263 310.164 427.372 307.334" stroke="#787796" stroke-width="0.6" stroke-linejoin="round"/>
<path d="M288.229 322.23L288.163 322.625C288.01 322.713 287.812 322.845 287.659 322.933L285.772 323.591L285.289 323.92C285.289 324.732 285.289 326.618 285.289 327.408" stroke="#787796" stroke-width="0.6" stroke-linejoin="round"/>
<path d="M317.914 322.824V321.09L317.782 320.673L317.08 320.454C316.51 320.388 314.645 320.235 314.14 320.015L313.767 319.664L313.285 318.545L312.846 318.194C311.815 318.019 309.994 318.436 308.984 318.304L308.37 318.063L307.054 317.119L306.374 316.878L305.562 316.966C305.035 317.141 303.39 317.712 302.863 317.712C302.337 317.712 300.691 317.141 300.165 316.966L299.353 316.878L298.673 317.119L297.356 318.063L296.742 318.304C295.711 318.436 293.89 318.019 292.881 318.194L292.442 318.545L291.959 319.664L291.586 320.015C291.082 320.235 289.195 320.388 288.646 320.454L287.944 320.673L287.812 321.09V322.824" stroke="#787796" stroke-width="0.6" stroke-linejoin="round"/>
<path d="M285.266 323.92L285.463 324.315L286.714 325.28L286.933 325.653L286.714 326.026L285.463 326.991L285.266 327.386C285.266 328.264 285.266 330.173 285.266 331.028C285.353 331.094 285.661 331.314 285.748 331.358L287.635 332.016L287.811 332.125" stroke="#787796" stroke-width="0.6" stroke-linejoin="round"/>
<path d="M285.266 327.431L285.748 327.76C286.187 327.913 287.218 328.264 287.635 328.418L288.14 328.725L288.206 329.12L287.789 330.261C287.789 331.292 287.789 332.872 287.789 333.903L287.92 334.32L288.622 334.539C289.193 334.605 291.058 334.759 291.562 334.978L291.935 335.329L292.418 336.448L292.857 336.799C293.888 336.974 295.709 336.558 296.718 336.689L297.332 336.931L298.649 337.874L299.329 338.115C299.395 338.115 300.053 338.028 300.141 338.028C300.667 337.852 302.313 337.282 302.839 337.282C303.366 337.282 305.011 337.852 305.538 338.028L306.35 338.115L307.03 337.874L308.346 336.931L308.961 336.689C309.992 336.558 311.813 336.974 312.822 336.799L313.261 336.448L313.743 335.329L314.116 334.978C314.621 334.759 316.508 334.605 317.056 334.539L317.758 334.32L317.89 333.903C317.89 333.003 317.89 331.16 317.89 330.261L317.473 329.12" stroke="#787796" stroke-width="0.6" stroke-linejoin="round"/>
<path d="M287.945 330.656C288.099 330.7 288.472 330.832 288.647 330.876C289.218 330.941 291.083 331.095 291.587 331.314L291.96 331.665L292.443 332.784L292.882 333.135" stroke="#787796" stroke-width="0.6" stroke-linejoin="round"/>
<path d="M292.906 336.777C292.906 335.833 292.906 334.034 292.906 333.135C293.937 333.31 295.758 332.894 296.768 333.025L297.382 333.267L298.698 334.21L299.378 334.451" stroke="#787796" stroke-width="0.6" stroke-linejoin="round"/>
<path d="M299.352 338.115C299.352 337.216 299.352 335.373 299.352 334.473L300.163 334.386C300.69 334.21 302.335 333.64 302.862 333.64C303.388 333.64 305.034 334.21 305.561 334.386L306.372 334.473" stroke="#787796" stroke-width="0.6" stroke-linejoin="round"/>
<path d="M306.352 338.115C306.352 337.237 306.352 335.328 306.352 334.473L307.032 334.231L308.348 333.288L308.962 333.047C309.994 332.915 311.815 333.332 312.824 333.156" stroke="#787796" stroke-width="0.6" stroke-linejoin="round"/>
<path d="M312.82 336.777C312.82 335.9 312.82 333.991 312.82 333.135L313.259 332.784L313.742 331.665L314.115 331.314C314.619 331.095 316.506 330.941 317.055 330.876C317.23 330.832 317.603 330.7 317.757 330.656" stroke="#787796" stroke-width="0.6" stroke-linejoin="round"/>
<path d="M317.5 329.12L317.566 328.725L318.07 328.418C318.509 328.264 319.518 327.913 319.957 327.76L320.44 327.431" stroke="#787796" stroke-width="0.6" stroke-linejoin="round"/>
<path d="M317.914 332.169L318.09 332.06L319.976 331.402L320.459 331.073C320.459 330.261 320.459 328.374 320.459 327.584V327.431L320.262 327.036L319.011 326.07L318.792 325.697" stroke="#787796" stroke-width="0.6" stroke-linejoin="round"/>
<path d="M318.789 325.676L319.008 325.303L320.259 324.337L320.456 323.942" stroke="#787796" stroke-width="0.6" stroke-linejoin="round"/>
<path d="M320.463 327.562C320.463 326.684 320.463 324.775 320.463 323.92L319.981 323.591L318.094 322.933C317.94 322.845 317.743 322.713 317.589 322.625L317.523 322.23" stroke="#787796" stroke-width="0.6" stroke-linejoin="round"/>
<path d="M317.5 322.231L317.917 321.09" stroke="#787796" stroke-width="0.6" stroke-linejoin="round"/>
<path d="M287.812 330.239L287.944 330.656C287.944 331.621 287.944 333.333 287.944 334.298" stroke="#787796" stroke-width="0.6" stroke-linejoin="round"/>
<path d="M317.781 334.298C317.781 333.399 317.781 331.534 317.781 330.656L317.913 330.239" stroke="#787796" stroke-width="0.6" stroke-linejoin="round"/>
<path d="M287.812 321.09L288.229 322.231" stroke="#787796" stroke-width="0.6" stroke-linejoin="round"/>
<path d="M293.67 341.011C296.127 342.24 299.067 343.71 301.524 344.938C303.06 345.662 305.188 346.913 306.812 347.374L308.391 347.462C309.115 347.352 310.519 346.957 311.221 346.716C312.275 346.54 314.381 346.189 315.434 345.992C316.531 345.926 318.747 345.816 319.844 345.75C320.941 345.816 323.157 345.926 324.254 345.992C325.307 346.167 327.413 346.518 328.466 346.716C329.146 346.979 330.572 347.374 331.296 347.462L332.876 347.374C334.456 346.935 336.54 345.684 338.054 344.982C340.511 343.754 343.451 342.284 345.908 341.055C353.039 337.479 360.344 333.837 367.497 330.261C374.627 326.685 381.933 323.043 389.086 319.466C391.543 318.238 394.483 316.768 396.94 315.539C397.905 315.013 399.748 314.245 400.582 313.521L400.736 312.731L400.165 312.029L399.222 311.305C399.09 311.107 397.883 309.33 397.796 309.199C397.774 309.111 397.335 307.07 397.313 306.983C397.335 306.895 397.774 304.855 397.796 304.767C397.927 304.569 399.134 302.792 399.222 302.661L400.165 301.937L400.736 301.234L400.582 300.445C400.121 299.984 398.388 299.128 397.774 298.843C396.764 298.338 394.834 297.373 393.846 296.89C390.029 294.982 385.904 292.919 382.065 291.011C370.985 285.46 359.796 279.865 348.694 274.336C337.615 268.786 326.426 263.191 315.324 257.662C311.507 255.753 307.36 253.691 303.542 251.782C301.283 250.729 298.606 249.106 296.237 248.338L294.657 248.25C293.933 248.36 292.529 248.755 291.827 248.996C290.774 249.171 288.667 249.523 287.614 249.72C286.517 249.786 284.301 249.895 283.204 249.961C282.107 249.895 279.891 249.786 278.794 249.72C277.741 249.544 275.635 249.193 274.582 248.996C273.902 248.733 272.476 248.338 271.752 248.25L270.172 248.338C268.592 248.777 266.508 250.027 264.994 250.729C262.537 251.958 259.597 253.428 257.14 254.656C250.01 258.233 242.704 261.875 235.551 265.451C228.421 269.027 221.115 272.669 213.963 276.245C211.505 277.474 208.565 278.944 206.108 280.172C205.143 280.699 203.3 281.467 202.466 282.191L202.312 282.981L202.883 283.683L203.826 284.407C203.958 284.604 205.165 286.381 205.252 286.513C205.274 286.601 205.713 288.641 205.735 288.729C205.713 288.817 205.274 290.857 205.252 290.945C205.121 291.142 203.914 292.919 203.826 293.051L202.883 293.775L202.312 294.477L202.466 295.267C202.905 295.728 204.682 296.583 205.274 296.868C207.03 297.746 209.399 298.931 211.154 299.808C216.968 302.726 223.002 305.732 228.816 308.628C245.731 317.097 262.735 325.588 279.65 334.034" stroke="#787796" stroke-width="0.6" stroke-linejoin="round"/>
<path d="M293.296 322.407C298.343 318.984 307.382 318.984 312.45 322.407L313.503 323.394L314.161 324.469L314.38 325.588L314.161 326.707L313.503 327.782L312.45 328.769C307.36 332.192 298.386 332.192 293.296 328.769L292.221 327.782L291.563 326.707L291.344 325.588L291.563 324.469L292.221 323.394L293.296 322.407Z" stroke="#787796" stroke-width="0.6" stroke-linejoin="round"/>
<path d="M293.736 321.024C293.341 321.265 292.529 321.77 292.134 322.011L290.95 323.13C290.796 323.394 290.379 324.074 290.226 324.337L289.984 325.588L290.226 326.838L290.95 328.045L292.134 329.164C297.751 332.981 307.975 332.981 313.613 329.164L314.798 328.045L315.522 326.838L315.764 325.588L315.522 324.337C315.369 324.074 314.952 323.394 314.798 323.13L313.613 322.011C308.216 318.391 299.528 318.369 293.736 321.024Z" stroke="#787796" stroke-width="0.6" stroke-linejoin="round"/>
<path d="M298.936 322.121C298.892 322.56 298.717 324.491 298.695 324.886C297.664 325.258 295.601 326.026 294.57 326.421C295.931 326.685 298.125 327.101 299.485 327.365C299.88 327.869 301.021 329.339 301.394 329.822C302.14 329.317 303.719 328.242 304.465 327.76C306.067 327.716 308.392 327.672 309.994 327.628C309.204 327.101 307.537 326.026 306.747 325.522C307.12 324.973 308.129 323.416 308.48 322.867C306.966 323.108 304.706 323.481 303.193 323.745C302.074 323.328 300.033 322.538 298.936 322.121Z" stroke="#787796" stroke-width="0.6" stroke-linejoin="round"/>
<path d="M285.4 331.16C281.538 333.113 277.348 335.131 273.508 337.15L273.289 337.369V337.588L273.508 337.786C274.978 338.247 277.282 338.378 278.796 338.664C279.937 338.883 281.824 338.971 282.899 339.388L283.25 339.607C284.083 340.726 285.027 342.766 285.839 343.885L286.124 344.083L286.519 344.192H286.958C287.594 344.127 289.217 343.183 289.81 342.92C292.903 341.362 296.37 339.629 299.463 338.093" stroke="#787796" stroke-width="0.6" stroke-linejoin="round"/>
<path d="M449.796 326.049C441.547 331.687 432.134 335.615 423.117 339.827" stroke="#787796" stroke-width="0.6" stroke-linejoin="round"/>
<path d="M386.062 344.412C393.807 348.296 402.166 349.831 410.591 347.286C414.54 346.167 418.424 344.303 422.088 342.482C425.905 340.661 430.052 338.818 433.869 337.019C439.595 334.298 445.497 331.358 450.719 327.738C454.668 324.908 459.21 321.332 459.89 316.198L459.868 314.75C459.341 311.459 456.774 308.76 454.383 306.632C450.741 303.495 446.485 300.752 442.36 298.295C434.9 293.907 427.024 289.98 419.257 286.184C414.496 283.771 409.363 281.555 404.821 278.769" stroke="#787796" stroke-width="0.6" stroke-linejoin="round"/>
<path d="M449.929 325.961L449.797 326.049" stroke="#787796" stroke-width="0.6" stroke-linejoin="round"/>
<path d="M457.694 317.294C456.355 321.024 452.889 323.766 449.773 326.048" stroke="#787796" stroke-width="0.6" stroke-linejoin="round"/>
<path d="M457.783 317.053L457.695 317.294" stroke="#787796" stroke-width="0.6" stroke-linejoin="round"/>
<path d="M457.648 313.762L457.912 314.815L457.934 316.153L457.714 317.316" stroke="#787796" stroke-width="0.6" stroke-linejoin="round"/>
<path d="M457.562 313.433L457.65 313.74" stroke="#787796" stroke-width="0.6" stroke-linejoin="round"/>
<path d="M448.961 304.767C452.208 307.202 455.916 309.944 457.649 313.74" stroke="#787796" stroke-width="0.6" stroke-linejoin="round"/>
<path d="M448.875 304.701L448.963 304.767" stroke="#787796" stroke-width="0.6" stroke-linejoin="round"/>
<path d="M405.101 247.109C402.249 255.666 395.36 268.215 400.406 276.838C402.271 279.909 405.803 281.621 408.897 283.2C411.771 284.648 414.996 286.228 417.892 287.654C428.467 292.876 439.262 298.053 448.959 304.789" stroke="#787796" stroke-width="0.6" stroke-linejoin="round"/>
<path d="M404.837 278.724C402.731 277.21 401.173 274.775 400.734 272.208" stroke="#787796" stroke-width="0.6" stroke-linejoin="round"/>
<path d="M400.719 272.209C399.644 264.398 404.383 255.315 406.884 247.987" stroke="#787796" stroke-width="0.6" stroke-linejoin="round"/>
<path d="M449.795 326.049C441.546 331.687 432.134 335.615 423.117 339.827C409.909 346.519 401.243 349.459 387.289 342.811" stroke="#787796" stroke-width="0.6" stroke-linejoin="round"/>
<path d="M386.062 344.412C393.807 348.296 402.166 349.831 410.591 347.286C414.54 346.167 418.424 344.303 422.088 342.482C425.905 340.661 430.052 338.818 433.869 337.019C439.595 334.298 445.497 331.358 450.719 327.738C454.668 324.908 459.21 321.332 459.89 316.198L459.868 314.75C459.341 311.459 456.774 308.76 454.383 306.632C450.741 303.495 446.485 300.752 442.36 298.295C434.9 293.907 427.024 289.98 419.257 286.184C414.496 283.771 409.363 281.555 404.821 278.769" stroke="#787796" stroke-width="0.6" stroke-linejoin="round"/>
<path d="M449.929 325.961L449.797 326.049" stroke="#787796" stroke-width="0.6" stroke-linejoin="round"/>
<path d="M457.694 317.294C456.355 321.024 452.889 323.766 449.773 326.048" stroke="#787796" stroke-width="0.6" stroke-linejoin="round"/>
<path d="M457.783 317.053L457.695 317.294" stroke="#787796" stroke-width="0.6" stroke-linejoin="round"/>
<path d="M457.648 313.762L457.912 314.815L457.934 316.153L457.714 317.316" stroke="#787796" stroke-width="0.6" stroke-linejoin="round"/>
<path d="M457.562 313.433L457.65 313.74" stroke="#787796" stroke-width="0.6" stroke-linejoin="round"/>
<path d="M448.961 304.767C452.208 307.202 455.916 309.944 457.649 313.74" stroke="#787796" stroke-width="0.6" stroke-linejoin="round"/>
<path d="M448.875 304.701L448.963 304.767" stroke="#787796" stroke-width="0.6" stroke-linejoin="round"/>
<path d="M405.101 247.109C402.249 255.666 395.36 268.215 400.406 276.838C402.271 279.909 405.803 281.621 408.897 283.2C411.771 284.648 414.996 286.228 417.892 287.654C428.467 292.876 439.262 298.053 448.959 304.789" stroke="#787796" stroke-width="0.6" stroke-linejoin="round"/>
<path d="M404.837 278.724C402.731 277.21 401.173 274.775 400.734 272.208" stroke="#787796" stroke-width="0.6" stroke-linejoin="round"/>
<path d="M400.719 272.209C399.644 264.398 404.383 255.315 406.884 247.987" stroke="#787796" stroke-width="0.6" stroke-linejoin="round"/>
<path d="M408.305 248.711C409.424 245.222 410.17 242.941 411.288 239.452" stroke="#787796" stroke-width="0.6" stroke-linejoin="round"/>
<path d="M405.103 247.109C404.203 246.648 402.36 245.749 401.461 245.288C402.58 241.799 403.326 239.54 404.445 236.029C406.573 237.082 409.184 238.399 411.312 239.452L413.308 240.461C412.189 243.95 411.773 245.376 410.654 248.864H410.544L408.35 248.71L406.902 247.986" stroke="#787796" stroke-width="0.6" stroke-linejoin="round"/>
<path d="M389.658 343.885L390.404 343.512C390.404 342.701 390.404 340.836 390.404 340.046C387.486 338.576 384.195 336.952 381.277 335.482C378.886 336.667 376.055 338.093 373.664 339.278C373.664 340.09 373.664 341.955 373.664 342.744C376.582 344.192 379.873 345.838 382.791 347.308C384.085 346.672 386.104 345.662 387.376 345.004" stroke="#787796" stroke-width="0.6" stroke-linejoin="round"/>
<path d="M373.688 339.3C376.605 340.77 379.875 342.393 382.814 343.863" stroke="#787796" stroke-width="0.6" stroke-linejoin="round"/>
<path d="M382.789 347.33C382.789 346.519 382.789 344.654 382.789 343.864L383.974 343.271" stroke="#787796" stroke-width="0.6" stroke-linejoin="round"/>
<path d="M310.194 272.867C324.345 279.931 338.562 287.04 352.691 294.126L353.832 294.368L354.973 294.126C356.816 293.205 359.273 291.976 361.116 291.055L361.598 290.484L361.116 289.914C346.965 282.849 332.748 275.741 318.618 268.654L317.478 268.413L316.337 268.654C314.494 269.576 312.037 270.805 310.194 271.726L309.711 272.296L310.194 272.867Z" stroke="#787796" stroke-width="0.6" stroke-linejoin="round"/>
<path d="M222.126 295.772C233.447 301.432 244.877 307.137 256.198 312.797L256.966 312.951L257.734 312.797C262.89 310.23 268.265 307.532 273.421 304.965L273.75 304.57L273.421 304.175C262.1 298.514 250.67 292.81 239.349 287.15L238.581 286.996L237.813 287.15C232.657 289.717 227.282 292.415 222.126 294.982L221.797 295.377L222.126 295.772Z" stroke="#787796" stroke-width="0.6" stroke-linejoin="round"/>
<path d="M268.53 265.78C299.333 281.181 330.18 296.605 361.006 312.007L362.146 312.248L363.287 312.007L364.516 311.392L364.999 310.822L364.516 310.252C333.713 294.85 302.865 279.426 272.04 264.025L270.899 263.783L269.758 264.025L268.53 264.639L268.047 265.209L268.53 265.78Z" stroke="#787796" stroke-width="0.6" stroke-linejoin="round"/>
<path d="M314.006 297.175C325.327 302.836 336.758 308.54 348.079 314.2L349.219 314.442L350.36 314.2L351.589 313.586L352.072 313.016L351.589 312.445C340.268 306.785 328.837 301.08 317.516 295.42L316.376 295.179L315.235 295.42L314.006 296.034L313.523 296.605L314.006 297.175Z" stroke="#787796" stroke-width="0.6" stroke-linejoin="round"/>
<path d="M263.264 271.791C277.218 278.768 291.259 285.789 305.213 292.766L306.354 293.007L307.494 292.766L308.723 292.152L309.206 291.581L308.723 291.011C294.769 284.034 280.728 277.013 266.774 270.036L265.633 269.795L264.493 270.036L263.264 270.651L262.781 271.221L263.264 271.791Z" stroke="#787796" stroke-width="0.6" stroke-linejoin="round"/>
<path d="M262.037 279.843C286.61 292.129 311.226 304.438 335.821 316.724L336.962 316.965L338.102 316.724L339.331 316.11L339.814 315.539L339.331 314.969C314.759 302.682 290.142 290.374 265.548 278.088L264.407 277.847L263.266 278.088L262.037 278.702L261.555 279.273L262.037 279.843Z" stroke="#787796" stroke-width="0.6" stroke-linejoin="round"/>
<path d="M386.062 342.239C387.247 341.647 389.222 340.66 390.407 340.067" stroke="#787796" stroke-width="0.6" stroke-linejoin="round"/>
<path d="M385.25 342.635L386.062 342.218" stroke="#787796" stroke-width="0.6" stroke-linejoin="round"/>
<path d="M384 343.271L385.273 342.635" stroke="#787796" stroke-width="0.6" stroke-linejoin="round"/>
<path d="M400.719 272.208V272.187" stroke="#787796" stroke-width="0.6" stroke-linejoin="round"/>
<path d="M400.719 272.208V272.187" stroke="#787796" stroke-width="0.6" stroke-linejoin="round"/>
<path d="M404.841 278.724L404.688 278.637" stroke="#787796" stroke-width="0.6" stroke-linejoin="round"/>
<path d="M404.841 278.724L404.688 278.637" stroke="#787796" stroke-width="0.6" stroke-linejoin="round"/>
<path d="M405.102 247.109L406.879 247.987" stroke="#787796" stroke-width="0.6" stroke-linejoin="round"/>
<path d="M229.758 296.759C229.758 296.759 234.036 298.075 237.744 297.856C241.452 297.637 251.895 296.452 247.77 295.465C243.646 294.477 234.848 298.273 238.205 299.041C241.561 299.809 246.981 299.94 246.915 300.752C246.849 301.564 243.821 302.156 245.423 302.792C247.024 303.451 250.798 303.078 252.092 303.385C253.387 303.692 249.986 304.35 251.676 305.272C253.365 306.193 259.574 307.356 259.574 307.356" stroke="#787796" stroke-width="0.6" stroke-linejoin="round"/>
<path d="M423.116 339.827C411.356 345.728 402.646 349.326 389.68 343.885L390.426 343.512C390.426 342.701 390.426 340.836 390.426 340.046C389.351 339.519 387.376 338.532 386.301 337.984C394.726 333.771 403.282 329.493 411.685 325.259C414.603 323.789 417.894 322.143 420.79 320.629C422.216 319.817 424.301 318.962 425.551 317.865C427.482 316.154 427.416 315.013 427.372 312.402C427.35 310.756 427.416 308.431 427.328 306.807C426.868 304.35 424.235 303.034 422.216 302.002C420.132 300.883 417.499 299.589 415.393 298.514C406.42 293.972 397.293 289.409 388.276 284.889C362.584 272.055 336.827 259.176 311.092 246.363C306.002 243.84 300.692 241.185 295.58 238.684C294.066 238.048 292.158 236.929 290.556 236.534C286.914 235.503 282.943 235.349 279.235 236.095C277.195 236.425 275.023 237.412 273.158 238.311C270.92 239.43 268.199 240.725 265.962 241.844C258.721 245.42 251.35 249.106 244.131 252.704C224.166 262.686 204.113 272.669 184.192 282.761C182.722 283.529 180.55 284.604 179.102 285.416C177.742 286.162 176.338 287.303 175.811 288.817C175.679 289.036 175.701 289.541 175.658 289.782V291.976C175.745 293.402 175.592 295.662 175.658 297.088C175.723 298.997 177.325 300.445 178.883 301.344C188.119 306.193 197.597 310.844 206.9 315.539C222.016 323.108 237.199 330.722 252.337 338.269C265.501 344.851 278.752 351.477 291.938 358.037C296.677 360.384 301.658 362.863 306.396 365.189C307.998 365.935 309.995 366.988 311.64 367.602C313.351 368.151 315.282 368.546 317.059 368.677C320.175 368.919 323.422 368.568 326.384 367.602C329.258 366.483 332.307 364.838 335.072 363.521C348.433 356.896 361.86 350.182 375.2 343.512C377.569 344.697 380.399 346.123 382.769 347.308C384.063 346.672 386.082 345.663 387.354 345.004" stroke="#787796" stroke-width="1.2" stroke-linejoin="round"/>
<path d="M442.381 298.251C434.921 293.863 427.045 289.936 419.278 286.141C414.517 283.749 409.384 281.533 404.842 278.725C402.736 277.211 401.179 274.776 400.74 272.209M442.381 298.251C446.506 300.709 450.762 303.473 454.404 306.588M442.381 298.251C446.506 300.709 450.762 303.451 454.404 306.588M454.404 306.588C456.795 308.717 459.362 311.437 459.889 314.706M454.404 306.588C456.795 308.717 459.362 311.415 459.889 314.706M459.889 314.706L459.911 316.154C459.231 321.288 454.689 324.864 450.74 327.694C445.518 331.314 439.617 334.254 433.89 336.975C430.073 338.774 425.926 340.617 422.109 342.438C418.883 344.04 415.439 345.707 412.016 346.826M412.016 346.826C403.679 349.678 395.298 348.735 387.422 345.005C395.32 348.735 403.679 349.678 412.016 346.826ZM449.798 326.049C441.548 331.688 432.136 335.615 423.119 339.827C411.359 345.729 402.649 349.327 389.683 343.886M449.775 326.049C452.891 323.767 456.357 321.025 457.696 317.295L457.937 316.154L457.915 314.816L457.651 313.763C455.918 309.967 452.21 307.203 448.963 304.767M404.426 236.03C403.307 239.519 402.561 241.778 401.442 245.289C402.342 245.75 404.185 246.671 405.084 247.11C402.232 255.666 395.343 268.216 400.389 276.838C402.254 279.91 405.786 281.621 408.88 283.201C411.754 284.649 414.979 286.228 417.875 287.654C428.45 292.876 439.244 298.054 448.942 304.789M413.289 240.484C412.17 243.972 411.754 245.399 410.635 248.887H410.525L408.331 248.733L406.883 248.009C404.382 255.337 399.643 264.42 400.718 272.231" stroke="#787796" stroke-width="1.2" stroke-linejoin="round"/>
</svg>
