<svg width="348" height="299" viewBox="0 0 348 299" fill="none" xmlns="http://www.w3.org/2000/svg">
<path d="M286.675 109.258L288.937 110.629L291.331 111.586L293.757 112.1L296.913 112.325L299.342 112.412L301.743 112.089L304.089 111.374L306.349 110.281L308.496 108.83L310.499 107.035L312.331 104.915L313.961 102.485L315.361 99.7637L316.501 96.7662L317.329 93.612L317.816 90.4341L317.975 87.2689L317.818 84.1541L317.356 81.1276L316.602 78.2253L315.567 75.4853L314.263 72.9446L312.702 70.6408L310.895 68.6104L308.855 66.8911L306.593 65.5198L304.198 64.5627L301.773 64.0489L298.617 63.8246L296.188 63.7373L293.787 64.0598L291.441 64.776L289.18 65.8678L287.034 67.3198L285.03 69.1141L283.199 71.2341L282.636 72.0726L281.569 73.6638L280.169 76.3858L279.028 79.3829L278.201 82.5371L277.714 85.7154L277.612 87.7388L277.555 88.8802L277.712 91.9949L278.173 95.0219L278.927 97.9238L279.963 100.664L281.266 103.205L282.828 105.509L284.635 107.539L286.675 109.258Z" stroke="#A7A9B2" stroke-width="0.6" stroke-linejoin="round"/>
<path d="M293.758 112.099L296.186 112.186L298.587 111.863L300.933 111.147L303.194 110.055L305.34 108.604L307.344 106.809L309.176 104.689L310.806 102.26L312.206 99.5377L313.346 96.5401L314.173 93.3863L314.66 90.208L314.82 87.0432L314.663 83.9285L314.201 80.9016L313.447 77.9997L312.412 75.2597L311.108 72.7189L309.546 70.4147L307.74 68.3843L305.7 66.665L303.438 65.2942L301.043 64.3367L298.617 63.8232" stroke="#A7A9B2" stroke-width="0.6" stroke-linejoin="round"/>
<path d="M336.118 82.3721L336.314 83.3414L336.298 85.9515L335.763 88.4931L334.422 92.6715L333.082 96.85L331.742 101.029L330.402 105.207L329.062 109.386L327.722 113.565L326.382 117.743L325.042 121.921L323.702 126.1L322.362 130.279L321.022 134.457L319.682 138.636L318.342 142.814L317.002 146.993L316.419 148.811L315.81 151.188L315.424 153.804L315.292 156.422L315.414 158.913L315.79 161.15L316.39 162.927L318.239 166.906L320.088 170.886L321.938 174.865L323.787 178.845L325.636 182.824L326.828 185.389L327.6 187.987L327.611 190.435L327.003 192.679L325.819 194.761L323.996 196.689L321.461 198.349L317.536 200.311L313.611 202.274L309.686 204.236L305.761 206.198L303.493 207.333L301.626 208.049L299.452 208.499L297.119 208.653L294.785 208.499L292.612 208.049L290.744 207.333L286.82 205.37L282.894 203.408L278.97 201.445L275.045 199.483L271.12 197.521L267.914 195.918" stroke="#A7A9B2" stroke-width="0.6" stroke-linejoin="round"/>
<path d="M267.641 197.97L271.566 199.933L275.491 201.895L279.415 203.857L283.34 205.82L287.265 207.782L290.743 209.521L292.61 210.237L294.784 210.687L297.117 210.841L299.45 210.687L301.624 210.237L303.492 209.521L307.416 207.559L311.341 205.596L315.266 203.633L319.191 201.671L321.572 200.481L324.488 198.571L326.863 196.059L328.538 193.115L329.398 189.94L329.383 186.75L328.496 183.762L326.647 179.783L324.797 175.803L322.948 171.824L321.099 167.844L319.25 163.865L318.046 161.273L317.519 159.713L317.19 157.755L317.08 155.533L317.199 153.197L317.536 150.907L318.071 148.82L319.41 144.642L320.751 140.463L322.091 136.284L323.431 132.106L324.771 127.927L326.111 123.749L327.451 119.57L328.791 115.392L330.131 111.213L331.471 107.035L332.811 102.856L334.151 98.6777L335.491 94.4989L336.831 90.3204L337.38 88.6113L337.914 86.0692L337.931 83.4595L337.427 80.9596L336.927 79.8389" stroke="#A7A9B2" stroke-width="0.6" stroke-linejoin="round"/>
<path d="M269.237 172.711L265.311 174.673L261.387 176.636L257.462 178.598L253.537 180.56L251.741 181.458L250.309 182.392L249.409 183.479L249.102 184.645V186.833L249.409 188L250.309 189.087L251.741 190.021L255.667 191.983L259.591 193.945L263.516 195.908L265.782 197.041" stroke="#A7A9B2" stroke-width="0.6" stroke-linejoin="round"/>
<path d="M266.084 195.003L262.159 193.041L258.234 191.079L254.309 189.116L251.741 187.832L250.309 186.899L249.409 185.812L249.102 184.646" stroke="#A7A9B2" stroke-width="0.6" stroke-linejoin="round"/>
<path d="M301.886 80.4541L302.272 79.2465L302.312 79.1197L302.483 78.5848L302.578 78.1293V77.6777L302.491 77.2512L302.322 76.8712L302.08 76.5592L301.771 76.3372L301.527 76.2152L300.917 75.9102L299.332 75.1177L298.722 74.8127L298.479 74.6912L298.132 74.585L297.784 74.6021L297.453 74.732L297.154 74.9659L296.905 75.2932L296.722 75.7044L295.385 79.8841L294.417 82.9106L294.215 82.8093L293.05 82.2265L292.972 82.1883L292.885 82.1445L292.39 81.897L292.01 81.707L291.884 81.6438L291.68 81.542L291.455 81.459L291.224 81.4292L290.993 81.452L290.767 81.5257L290.551 81.6499L290.35 81.8228L290.175 82.0378L290.032 82.2844L289.924 82.5556L289.853 82.8453L289.82 83.1467L289.829 83.4539L289.941 84.6141L290.361 88.9821L290.582 91.2841L291.003 95.6521L291.224 97.9542L291.336 99.1144L291.386 99.4128L291.474 99.6888L291.597 99.9372L291.752 100.153L291.935 100.33L292.144 100.464L292.369 100.548L292.6 100.577L292.831 100.555L293.057 100.48L293.273 100.357L293.474 100.183L293.671 99.9806L294.88 98.7313L297.934 95.5797L299.123 94.3519L301.372 92.0301L302.222 91.1525L302.256 91.117L303.202 90.1406L303.378 89.9256L303.519 89.6816L303.52 89.6789L303.615 89.442L303.629 89.4078L303.7 89.1181L303.732 88.8167L303.724 88.5099L303.674 88.2115L303.586 87.9355L303.463 87.6867L303.4 87.5981L303.308 87.4713L303.124 87.2935L302.916 87.1597L302.765 87.0842L301.645 86.5243L300.179 85.791L300.349 85.2574L301.33 82.1888L301.573 81.4323L301.592 81.3721" stroke="#A7A9B2" stroke-width="0.6" stroke-linejoin="round"/>
<path d="M300.352 85.2581L301.333 82.1895" stroke="#A7A9B2" stroke-width="0.6" stroke-linejoin="round"/>
<path d="M301.888 80.4536L300.551 84.6329L300.352 85.2569L301.575 81.4317L302.314 79.1191" stroke="#A7A9B2" stroke-width="0.6" stroke-linejoin="round"/>
<path d="M302.486 78.584L302.274 79.2457L301.594 81.3714L300.352 85.2566" stroke="#A7A9B2" stroke-width="0.6" stroke-linejoin="round"/>
<path d="M300.913 75.9097L299.328 75.1172" stroke="#A7A9B2" stroke-width="0.6" stroke-linejoin="round"/>
<path d="M289.938 84.6143L290.358 88.9822L290.579 91.2843L290.999 95.6523L291.221 97.9543" stroke="#A7A9B2" stroke-width="0.6" stroke-linejoin="round"/>
<path d="M293.047 82.2266L294.212 82.8093" stroke="#A7A9B2" stroke-width="0.6" stroke-linejoin="round"/>
<path d="M294.215 82.8088L292.391 81.8965" stroke="#A7A9B2" stroke-width="0.6" stroke-linejoin="round"/>
<path d="M291.883 81.6438L292.972 82.1884L294.214 82.8093L292.884 82.1445L292.01 81.707L291.68 81.542" stroke="#A7A9B2" stroke-width="0.6" stroke-linejoin="round"/>
<path d="M25.6989 141.185L25.5036 141.222L25.3044 141.292L25.1039 141.394L24.9042 141.526L24.7085 141.689L24.5193 141.879L24.339 142.098L24.1705 142.342L24.0441 142.545L23.9168 142.752L23.7896 142.963L23.6615 143.177L23.5329 143.396L23.4043 143.619L23.2748 143.846L23.1445 144.077L23.0142 144.311L22.8834 144.55L22.7518 144.793L22.6197 145.04L22.4784 145.309L22.338 145.586L22.1984 145.87L22.0593 146.16L21.9211 146.458L21.7833 146.763L21.646 147.075L21.5095 147.395L21.3735 147.721L21.2379 148.055L21.1027 148.396L20.9684 148.744L20.8741 149.026L20.8083 149.301L20.7697 149.567L20.7578 149.82L20.7718 150.059L20.8113 150.281L20.8754 150.481L20.9636 150.659L21.0751 150.811L21.2089 150.934L21.3651 151.025L21.542 151.082L21.7337 151.101L21.9312 151.083L22.1326 151.03L22.3349 150.943L22.5359 150.826L22.7325 150.679L22.9229 150.505L23.1037 150.306L23.2731 150.086L23.4285 149.844L23.5667 149.584L23.6851 149.307L23.7944 149.025L23.9032 148.749L24.0121 148.481L24.12 148.221L24.2275 147.969L24.3346 147.724L24.4412 147.487L24.5474 147.257L24.6532 147.035L24.7585 146.821L24.8629 146.615L24.9669 146.416L25.0793 146.206L25.1907 146L25.3013 145.798L25.411 145.601L25.5198 145.407L25.6282 145.218L25.7353 145.032L25.8415 144.851L25.9468 144.674L26.0513 144.501L26.1548 144.332L26.2575 144.168L26.4067 143.907L26.5313 143.64L26.6314 143.371L26.706 143.103L26.756 142.839L26.7801 142.583L26.7788 142.338L26.752 142.107L26.6994 141.893L26.6208 141.701L26.5164 141.533L26.3856 141.392L26.2334 141.285L26.0662 141.216L25.8871 141.183L25.6989 141.185Z" stroke="#A7A9B2" stroke-width="0.6" stroke-linejoin="round"/>
<path d="M39.3427 134.637L38.6011 134.89L37.8586 135.209L37.6453 135.328L37.4404 135.477L37.2456 135.651L37.0626 135.85L36.8932 136.068L36.7401 136.303L36.6045 136.552L36.4882 136.812L36.3938 137.079L36.3223 137.35L36.2767 137.622L36.2578 137.891L36.2679 138.147L36.3052 138.379L36.3688 138.586L36.4557 138.767L36.565 138.919L36.6944 139.042L36.8423 139.135L37.0069 139.194L37.1863 139.221L37.3786 139.211L37.5817 139.166L37.7941 139.083L38.3347 138.852L38.8797 138.67L39.4291 138.537L39.9834 138.454L40.5424 138.421L41.1059 138.438L41.6741 138.505L42.2476 138.624L42.8256 138.793L43.4088 139.014L43.9964 139.287L44.5896 139.612L45.1575 139.988L45.6867 140.422L46.1777 140.915L46.6301 141.467L47.0439 142.079L47.4191 142.751L47.7557 143.483L48.0541 144.275L48.3139 145.129L48.535 146.043L48.718 147.019L48.8619 148.056L48.9049 148.291L48.9734 148.497L49.0664 148.675L49.1805 148.822L49.3148 148.94L49.4662 149.025L49.6334 149.077L49.8137 149.096L50.0055 149.081L50.2065 149.03L50.4145 148.944L50.6273 148.819L50.8362 148.663L51.0332 148.48L51.2158 148.275L51.3834 148.051L51.5335 147.812L51.6651 147.561L51.7761 147.301L51.8656 147.035L51.931 146.767L51.9718 146.501L51.9859 146.24L51.9714 145.986L51.7976 144.745L51.5756 143.573L51.3044 142.47L50.9845 141.436L50.6163 140.472L50.199 139.578L49.7334 138.754L49.2191 138.001L48.6561 137.318L48.0444 136.707L47.384 136.167L46.6753 135.699L45.9491 135.303L45.2215 134.971L44.4922 134.703L43.7611 134.499L43.0288 134.359L42.2942 134.284L41.5587 134.273L40.8215 134.329L40.083 134.45L39.3427 134.637Z" stroke="#A7A9B2" stroke-width="0.6" stroke-linejoin="round"/>
<path d="M32.9315 138.577L32.7332 138.634L32.5309 138.725L32.3268 138.85L32.1232 139.007L31.9231 139.198L31.0911 140.101L30.2942 141.022L29.5316 141.961L28.8045 142.919L28.112 143.895L27.4555 144.889L26.8342 145.902L26.2483 146.932L25.699 147.98L25.1851 149.045L24.7072 150.128L24.2662 151.228L23.7765 152.591L23.3491 153.943L22.9822 155.283L22.6737 156.606L22.4219 157.907L22.2248 159.184L22.0809 160.433L21.9883 161.649L21.9453 162.829L21.9497 163.969L22.0002 165.065L22.095 166.113L22.1366 166.348L22.2047 166.556L22.2964 166.734L22.41 166.882L22.5434 167L22.6948 167.086L22.8611 167.14L23.0415 167.161L23.2328 167.146L23.4338 167.097L23.6413 167.011L23.8542 166.888L24.0635 166.732L24.2605 166.55L24.4439 166.346L24.6116 166.123L24.7625 165.884L24.8946 165.633L25.0065 165.373L25.0964 165.108L25.1632 164.84L25.2044 164.573L25.2193 164.311L25.2057 164.057L25.1285 163.195L25.0872 162.291L25.0842 161.348L25.1201 160.372L25.1965 159.365L25.315 158.333L25.4765 157.277L25.6832 156.202L25.9355 155.112L26.2352 154.011L26.584 152.903L26.9829 151.791L27.3362 150.912L27.7188 150.045L28.1313 149.191L28.5736 148.35L29.0463 147.521L29.5491 146.705L30.0827 145.9L30.6466 145.108L31.2412 144.328L31.8665 143.56L32.5234 142.803L33.211 142.058L33.3993 141.841L33.5687 141.607L33.7174 141.36L33.8451 141.104L33.9513 140.841L34.0343 140.576L34.0931 140.312L34.1273 140.051L34.1361 139.799L34.1181 139.558L34.072 139.332L33.9979 139.125L33.8974 138.944L33.7754 138.798L33.6349 138.686L33.4774 138.608L33.3063 138.564L33.1237 138.554L32.9315 138.577Z" stroke="#A7A9B2" stroke-width="0.6" stroke-linejoin="round"/>
<path d="M38.593 140.861L37.6465 141.191L36.682 141.64L35.7096 142.21L34.7371 142.898L33.7735 143.704L32.8283 144.627L31.909 145.667L31.0252 146.824L30.2077 148.053L29.4748 149.318L28.8249 150.613L28.258 151.932L27.7731 153.267L27.3685 154.614L27.0442 155.966L26.7994 157.317L26.6326 158.661L26.5435 159.99L26.5312 161.301L26.5949 162.586L26.6576 163.25L26.7401 163.905L26.8415 164.55L26.9626 165.186L27.1026 165.811L27.2619 166.427L27.4405 167.033L27.6379 167.63L27.8547 168.216L28.0904 168.793L28.3453 169.36L28.6191 169.917L28.7271 170.088L28.8557 170.225L29.0027 170.326L29.165 170.394L29.3401 170.427L29.5262 170.426L29.7206 170.392L29.9202 170.325L30.1225 170.224L30.3261 170.089L30.5271 169.923L30.7241 169.723L30.908 169.499L31.0721 169.26L31.2152 169.009L31.3363 168.749L31.4355 168.485L31.5105 168.219L31.5618 167.956L31.5882 167.698V167.45L31.5618 167.215L31.5079 166.995L31.4254 166.795L31.1928 166.322L30.9765 165.842L30.7764 165.355L30.5934 164.861L30.4266 164.361L30.2761 163.853L30.1423 163.339L30.0251 162.818L29.9238 162.29L29.839 161.755L29.771 161.213L29.7188 160.665L29.6692 159.682L29.6762 158.684L29.7394 157.677L29.8597 156.666L30.037 155.656L30.2717 154.65L30.5635 153.653L30.9133 152.671L31.3205 151.708L31.7861 150.768L32.31 149.856L32.8923 148.978L33.4909 148.195L34.1153 147.491L34.7582 146.864L35.4138 146.316L36.0755 145.848L36.7373 145.459L37.3915 145.151L38.0331 144.924L38.6545 144.778L39.2499 144.714L39.8129 144.734L40.3364 144.836L40.6085 144.921L40.867 145.016L41.1127 145.122L41.3457 145.238L41.5656 145.364L41.7727 145.499L41.9671 145.646L42.1487 145.801L42.3181 145.967L42.4748 146.142L42.6187 146.327L42.7508 146.523L42.8706 146.678L43.0101 146.799L43.1659 146.883L43.3362 146.934L43.5174 146.949L43.7083 146.931L43.9053 146.879L44.1063 146.795L44.3086 146.677L44.5096 146.528L44.7066 146.347L44.8975 146.135L45.0739 145.9L45.2292 145.652L45.3622 145.394L45.4723 145.131L45.5592 144.865L45.6224 144.6L45.6606 144.34L45.6733 144.087L45.6601 143.846L45.6202 143.62L45.5531 143.412L45.4574 143.226L45.2578 142.929L45.0423 142.65L44.8106 142.386L44.5636 142.14L44.3011 141.909L44.0229 141.696L43.7294 141.499L43.4204 141.317L43.0966 141.153L42.757 141.004L42.4024 140.872L42.0329 140.756L41.2426 140.599L40.4001 140.564L39.5141 140.652L38.593 140.861Z" stroke="#A7A9B2" stroke-width="0.6" stroke-linejoin="round"/>
<path d="M40.9684 161.163L40.9627 161.156L40.6371 160.724L40.3365 160.262L40.0609 159.771L39.8108 159.253L39.5866 158.709L39.3882 158.14L39.2166 157.545L39.0718 156.928L38.9542 156.289L38.8643 155.628L38.8024 154.946L38.7686 154.246L38.7471 153.997L38.6988 153.773L38.6251 153.575L38.5281 153.406L38.4101 153.265L38.2723 153.155L38.1174 153.076L37.9471 153.03L37.7628 153.019L37.5671 153.042L37.3618 153.102L37.1485 153.2L36.9361 153.332L36.7334 153.493L36.5425 153.679L36.3643 153.887L36.2011 154.113L36.0549 154.354L35.9277 154.608L35.8206 154.87L35.7355 155.138L35.6749 155.408L35.6398 155.677L35.6328 155.942L35.6798 156.887L35.7675 157.804L35.8957 158.692L36.0637 159.548L36.2708 160.372L36.5166 161.161L36.8009 161.915L37.1226 162.631L37.4811 163.308L37.8765 163.945L38.3078 164.539L38.7747 165.09L39.2456 165.603L39.2482 165.606L39.2658 165.622L39.2943 165.648L39.311 165.662H39.3105L39.3197 165.67L39.3412 165.69L39.3417 165.69L39.3658 165.712L39.3755 165.721L39.5194 165.806L39.6752 165.86L39.8411 165.884L40.0153 165.879L40.1948 165.844L40.3786 165.782L40.5642 165.692L40.7494 165.575L40.932 165.432L41.1106 165.264L41.2826 165.071L41.4458 164.854L41.606 164.601L41.742 164.34L41.8543 164.074L41.9425 163.806L42.0062 163.541L42.0448 163.28L42.058 163.028L42.0452 162.789L42.0071 162.564L41.9421 162.358L41.8508 162.175L41.7324 162.017L41.2611 161.503L41.2396 161.478L41.2146 161.449L41.1492 161.373V161.373L41.1119 161.33L41.0399 161.246" stroke="#A7A9B2" stroke-width="0.6" stroke-linejoin="round"/>
<path d="M39.2422 165.606L39.2597 165.622L39.2883 165.648L39.3352 165.69" stroke="#A7A9B2" stroke-width="0.6" stroke-linejoin="round"/>
<path d="M39.3692 165.72L39.3595 165.712L39.335 165.69L39.3174 165.674L39.3047 165.662" stroke="#A7A9B2" stroke-width="0.6" stroke-linejoin="round"/>
<path d="M41.2359 161.478L41.2574 161.503L41.2109 161.449" stroke="#A7A9B2" stroke-width="0.6" stroke-linejoin="round"/>
<path d="M39.3605 165.711L39.3185 165.674L39.3145 165.67L39.2891 165.647" stroke="#A7A9B2" stroke-width="0.6" stroke-linejoin="round"/>
<path d="M41.2068 161.451L41.1406 161.374" stroke="#A7A9B2" stroke-width="0.6" stroke-linejoin="round"/>
<path d="M41.0403 161.246L41.1122 161.33L41.2149 161.449L41.1495 161.373L41.1122 161.33L41.0403 161.246ZM41.0403 161.246L40.9688 161.163" stroke="#A7A9B2" stroke-width="0.6" stroke-linejoin="round"/>
<path d="M46.3819 147.278L46.1761 147.342L45.9624 147.445L45.7509 147.582L45.549 147.747L45.359 147.936L45.1826 148.146L45.022 148.375L44.8785 148.619L44.7534 148.874L44.6494 149.137L44.5683 149.405L44.5108 149.674L44.4796 149.942L44.4766 150.205L44.5011 150.622L44.538 151.023L44.588 151.409L44.6508 151.78L44.7267 152.136L44.8149 152.475L44.9163 152.8L45.0308 153.108L45.1581 153.4L45.2985 153.676L45.4516 153.936L45.6184 154.179L45.7987 154.411L45.983 154.623L46.1717 154.814L46.3648 154.983L46.5627 155.13L46.765 155.254L46.9725 155.356L47.1858 155.435L47.4043 155.49L47.6286 155.52L47.859 155.526L48.0959 155.508L48.3039 155.463L48.5111 155.382L48.716 155.27L48.9156 155.128L49.1078 154.959L49.2908 154.765L49.4611 154.55L49.6173 154.317L49.7569 154.067L49.8771 153.804L49.9763 153.529L50.0517 153.247L50.0996 152.969L50.1184 152.705L50.1101 152.459L50.0759 152.231L50.0162 152.026L49.9328 151.843L49.8271 151.688L49.6998 151.56L49.5528 151.463L49.3869 151.398L49.2035 151.369L49.0038 151.377L48.9661 151.377L48.9227 151.369L48.8739 151.353L48.8204 151.328L48.762 151.294L48.6989 151.25L48.6317 151.195L48.5602 151.13L48.4852 151.054L48.4062 150.966L48.3237 150.867L48.2381 150.755L48.149 150.624L48.0665 150.483L47.9906 150.33L47.9213 150.166L47.8585 149.991L47.8024 149.805L47.7532 149.607L47.7106 149.398L47.6751 149.177L47.6466 148.944L47.6246 148.698L47.6102 148.441L47.5847 148.194L47.5325 147.973L47.4557 147.779L47.3552 147.614L47.2341 147.477L47.0941 147.371L46.937 147.297L46.7645 147.256L46.5789 147.249L46.3819 147.278Z" stroke="#A7A9B2" stroke-width="0.6" stroke-linejoin="round"/>
<path d="M43.0162 151.278L43.0166 151.278L42.9718 151.049L42.9508 150.94L42.9174 150.769L42.9074 150.718L42.9038 150.7L42.8073 150.283L42.7033 149.889L42.591 149.519L42.4703 149.172L42.3395 148.847L42.1978 148.544L42.0446 148.262L41.8783 148.001L41.6988 147.76L41.5053 147.539L41.296 147.336L41.0704 147.153L40.4333 146.809L39.7189 146.65L38.9457 146.664L38.1317 146.837L37.2962 147.155L36.4576 147.606L35.634 148.175L34.8445 148.85L34.1077 149.618L33.4421 150.465L32.8659 151.377L32.3981 152.342L32.087 153.163L31.8193 154.012L31.596 154.883L31.4174 155.773L31.284 156.674L31.1966 157.583L31.1562 158.494L31.1628 159.401L31.2173 160.3L31.3208 161.186L31.4731 162.053L31.6754 162.896L31.8263 163.428L31.9847 163.954L32.1515 164.475L32.3261 164.989L32.5083 165.498L32.6987 166.001L32.8971 166.499L33.1033 166.99L33.3174 167.476L33.5395 167.956L33.7694 168.43L34.0072 168.898L34.1156 169.068L34.2442 169.203L34.3912 169.303L34.5536 169.369L34.7291 169.401L34.9152 169.399L35.1096 169.364L35.3092 169.296L35.5115 169.194L35.7151 169.06L35.9161 168.894L36.1127 168.694L36.2966 168.471L36.4607 168.232L36.6037 167.982L36.7248 167.724L36.8236 167.461L36.8986 167.198L36.9495 166.936L36.9759 166.68V166.434L36.9491 166.2L36.8951 165.982L36.8122 165.785L36.595 165.357L36.3852 164.924L36.1825 164.486L35.9867 164.042L35.7989 163.594L35.6182 163.141L35.4444 162.683L35.2781 162.22L35.1192 161.751L34.9678 161.277L34.8234 160.799L34.6866 160.316L34.5373 159.698L34.4241 159.068L34.3456 158.43L34.3013 157.789L34.2899 157.149L34.3105 156.513L34.3618 155.887L34.443 155.275L34.5536 154.682L34.6923 154.111L34.8577 153.567L35.0494 153.054L35.2224 152.717L35.4571 152.382L35.7419 152.058L36.0666 151.753L36.4207 151.474L36.7933 151.23L37.1742 151.029L37.552 150.879L37.9167 150.787L38.2576 150.761L38.5639 150.81L38.8246 150.942L38.9496 151.046L39.0672 151.168L39.1774 151.308L39.2814 151.466L39.3792 151.645L39.4714 151.844L39.5587 152.065L39.6408 152.307L39.7193 152.572L39.7939 152.861L39.865 153.174L39.9335 153.513L39.9883 153.808L40.0103 153.938L40.0348 154.082L40.0651 154.263V154.263L40.1362 154.683L40.1731 154.901L40.238 155.285V155.286L40.2784 155.525L40.2845 155.56L40.3271 155.789L40.3692 156.003L40.4109 156.204L40.453 156.392L40.496 156.569L40.5399 156.736L40.5856 156.895L40.6329 157.047L40.683 157.193L40.7356 157.336L40.7918 157.475L40.8515 157.613L41.0196 157.962L41.2052 158.3L41.4079 158.626L41.6278 158.942L41.8652 159.246L42.1197 159.54L42.3917 159.822L42.6805 160.094L42.9863 160.356L43.3089 160.606L43.649 160.846L44.0053 161.076L44.172 161.154L44.3506 161.195L44.5389 161.2L44.7337 161.17L44.9329 161.106L45.1335 161.011L45.3331 160.885L45.5288 160.73L45.7184 160.547L45.8987 160.339L46.0677 160.106L46.2222 159.85L46.3556 159.58L46.4626 159.309L46.5438 159.04L46.5996 158.775L46.6289 158.518L46.6333 158.272L46.6118 158.04L46.5649 157.826L46.4929 157.631L46.3959 157.461L46.2735 157.317L46.1265 157.203L45.843 157.021L45.5749 156.833L45.3222 156.638L45.0843 156.438L44.8614 156.232L44.6534 156.019L44.4603 155.801L44.2822 155.577L44.1189 155.347L43.9702 155.112L43.8363 154.871L43.7174 154.625L43.6753 154.526L43.6353 154.419L43.5967 154.303L43.559 154.175L43.5217 154.035L43.4844 153.879L43.4466 153.707L43.4076 153.516L43.3676 153.304L43.3255 153.071L43.2816 152.814L43.2343 152.531L43.0842 151.627L43.0807 151.609L43.0561 151.482L43.0372 151.386" stroke="#A7A9B2" stroke-width="0.6" stroke-linejoin="round"/>
<path d="M42.9552 150.94L42.9219 150.769" stroke="#A7A9B2" stroke-width="0.6" stroke-linejoin="round"/>
<path d="M43.0854 151.608L43.0608 151.481L43.0209 151.277L42.9766 151.048L43.0419 151.385" stroke="#A7A9B2" stroke-width="0.6" stroke-linejoin="round"/>
<path d="M40.1783 154.901L40.2836 155.525L40.2432 155.285L40.1783 154.901ZM40.1783 154.901L40.0703 154.263" stroke="#A7A9B2" stroke-width="0.6" stroke-linejoin="round"/>
<path d="M39.9922 153.809L40.0141 153.938" stroke="#A7A9B2" stroke-width="0.6" stroke-linejoin="round"/>
<path d="M38.0587 129.599L37.185 129.97L36.3197 130.373L35.4754 130.807L34.6535 131.272L33.8531 131.769L33.0751 132.296L32.319 132.855L31.5853 133.445L30.874 134.066L30.1855 134.718L29.5193 135.402L28.876 136.117L28.2555 136.863L28.0818 137.102L27.9295 137.352L27.8001 137.611L27.693 137.876L27.61 138.142L27.5508 138.406L27.5166 138.665L27.5078 138.916L27.5254 139.155L27.5693 139.378L27.6408 139.582L27.7399 139.764L27.8637 139.915L28.0059 140.03L28.1647 140.109L28.3367 140.154L28.5202 140.164L28.7119 140.141L28.9098 140.083L29.1108 139.994L29.3131 139.872L29.5132 139.717L29.7089 139.532L29.8981 139.316L30.3737 138.745L30.8705 138.194L31.3891 137.665L31.9289 137.158L32.4906 136.672L33.0742 136.208L33.6793 135.766L34.3064 135.345L34.9559 134.946L35.6277 134.569L36.3219 134.214L37.0385 133.881L37.7577 133.574L38.4646 133.297L39.1571 133.052L39.8342 132.843L40.4928 132.674L41.1326 132.545L41.7514 132.46L42.3473 132.423L42.9186 132.435L43.4632 132.501L43.9801 132.622L44.4676 132.802L44.6449 132.858L44.8319 132.877L45.0263 132.86L45.225 132.808L45.426 132.723L45.6266 132.607L45.8236 132.462L46.0145 132.289L46.1975 132.09L46.369 131.867L46.5266 131.621L46.6683 131.355L46.7868 131.079L46.8785 130.804L46.9439 130.533L46.9825 130.27L46.9952 130.018L46.9825 129.779L46.9443 129.557L46.8811 129.354L46.7934 129.174L46.681 129.02L46.545 128.895L46.3853 128.802L45.763 128.568L45.1074 128.406L44.4211 128.31L43.7059 128.279L42.9634 128.309L42.1963 128.397L41.4065 128.54L40.5955 128.735L39.7662 128.978L38.9197 129.268L38.0587 129.599Z" stroke="#A7A9B2" stroke-width="0.6" stroke-linejoin="round"/>
<path d="M61.778 106.995L58.6207 105.99L54.8969 106.945L50.9721 108.907L47.0473 110.87L43.1221 112.832L39.1974 114.794L35.2726 116.757L31.3478 118.719L27.4226 120.682L23.4978 122.644L19.6595 124.563L16.1384 127.182L15.9357 127.332L13.2839 130.829L12.7788 131.494L11.0499 135.528L10.6694 136.415L10.0178 140.755L9.92872 141.347V145.735V150.123V154.511V158.899V163.288V167.676V172.064V176.452V180.84V184.504L10.6694 188.694L12.7788 191.506L15.9357 192.511L19.6595 191.556L23.5847 189.593L27.5095 187.631L31.4343 185.669L35.359 183.706L39.2842 181.744L43.209 179.781L47.1338 177.819L51.0586 175.856L54.8969 173.937L58.4184 171.319L58.6207 171.168L61.2729 167.672L61.778 167.006L63.5065 162.973L63.8874 162.085L64.539 157.745L64.6281 157.154V152.766V148.377V143.989V139.601V135.213V130.825V126.437V122.048V117.66V113.997L63.8874 109.807L61.778 106.995ZM61.778 106.995L57.8528 105.032L53.928 103.07L52.8415 102.527L49.6846 101.521L45.9608 102.476L42.0356 104.439L38.1108 106.401L34.1861 108.364L30.2609 110.326L26.3361 112.289L22.4113 114.251L18.4865 116.214L14.5613 118.176L10.7234 120.095L7.20189 122.714L6.99916 122.864L4.34741 126.36L3.84233 127.026L2.11382 131.06L1.73293 131.947L1.08127 136.287L0.992188 136.878V141.266V145.655V150.043V154.431V158.819V163.207V167.595V171.984V176.372V180.035L1.73293 184.226L3.84233 187.037L7.76752 189L11.6923 190.962L12.7788 191.506" stroke="#A7A9B2" stroke-width="0.6" stroke-linejoin="round"/>
<path d="M288.68 27.4131L288.763 27.4561L288.845 27.4987" stroke="#A7A9B2" stroke-width="0.6" stroke-linejoin="round"/>
<path d="M340.023 53.0859L340.138 53.1434L340.188 53.1684L340.252 53.2005" stroke="#A7A9B2" stroke-width="0.6" stroke-linejoin="round"/>
<path d="M340.127 54.2586L340.033 54.2134L339.94 54.1682L339.877 54.1371L339.711 54.0537" stroke="#A7A9B2" stroke-width="0.6" stroke-linejoin="round"/>
<path d="M339.852 53L339.855 53.0018L339.934 53.0426L340.017 53.0856" stroke="#A7A9B2" stroke-width="0.6" stroke-linejoin="round"/>
<path d="M340.773 53.3652L340.943 53.378L341.113 53.3911L341.433 53.4144L342.034 53.4578L342.955 53.5245" stroke="#A7A9B2" stroke-width="0.6" stroke-linejoin="round"/>
<path d="M252.828 139.502L252.911 139.545L252.994 139.588" stroke="#A7A9B2" stroke-width="0.6" stroke-linejoin="round"/>
<path d="M258.594 159.191L258.627 159.077L258.66 158.963" stroke="#A7A9B2" stroke-width="0.6" stroke-linejoin="round"/>
<path d="M304.275 166.352L304.186 166.309L304.096 166.265L304.024 166.229L303.978 166.207L303.859 166.147" stroke="#A7A9B2" stroke-width="0.6" stroke-linejoin="round"/>
<path d="M304.008 165.09L304.012 165.092L304.09 165.133L304.173 165.176" stroke="#A7A9B2" stroke-width="0.6" stroke-linejoin="round"/>
<path d="M304.93 165.454L305.092 165.467L305.254 165.479H305.254L306.183 165.546L307.112 165.614" stroke="#A7A9B2" stroke-width="0.6" stroke-linejoin="round"/>
<path d="M300.748 16.8843L299.828 16.8229L298.908 16.7614L298.742 16.7527L298.576 16.7443L298.244 16.7408L297.913 16.7373H297.85L297.786 16.7377L297.455 16.768L297.124 16.7983L297.096 16.8031L297.069 16.8075L296.74 16.8711L296.411 16.9352L296.086 17.0317L295.761 17.1287L295.442 17.2586L295.123 17.3881L294.812 17.5495L294.501 17.711L294.199 17.9032L293.898 18.0954L293.608 18.3175L293.319 18.5391L293.042 18.7892L292.766 19.0393L292.76 19.0455L292.754 19.0512L292.494 19.3281L292.232 19.6045L291.988 19.906L291.744 20.2075L291.518 20.5317L291.292 20.8565L291.085 21.2027L290.878 21.5489L290.687 21.9162L290.497 22.2831L290.321 22.6705L290.144 23.058L289.978 23.4652L289.812 23.8725L289.653 24.3038L289.493 24.7352L289.329 25.2135L289.165 25.6918L288.892 26.5313L288.62 27.3711L288.309 28.3396L288.08 29.054L287.852 29.7688L287.454 31.0138L287.055 32.2587L286.827 32.974L286.598 33.6888L285.26 37.8729L283.922 42.057L283.55 43.2181L283.179 44.3797L281.842 48.559L281.154 50.7101L279.817 54.8894L279.129 57.0404L278.902 57.7504L278.675 58.46L277.338 62.6397L276.705 64.6193L275.368 68.7985L274.735 70.7781L273.398 74.9578L272.666 77.2449L271.33 81.4246L270.598 83.7117L269.261 87.8915L268.677 89.7183L267.34 93.898L266.756 95.7248L265.419 99.9045L264.936 101.414L263.6 105.593L263.117 107.102L262.254 109.8L261.391 112.497L260.054 116.677L258.717 120.856L258.627 121.141L257.289 125.321L255.953 129.501L255.862 129.785L255.624 130.53L255.385 131.274L254.763 133.219L254.141 135.165L253.743 136.41L253.345 137.655L253.056 138.558L252.767 139.46L252.457 140.433L252.252 141.087L252.047 141.74L251.903 142.228L251.757 142.716L251.635 143.165L251.513 143.615L251.408 144.053L251.304 144.491L251.218 144.924L251.132 145.356L251.068 145.786L251.003 146.216L250.962 146.646L250.921 147.075L250.906 147.505L250.891 147.935L250.901 148.364L250.912 148.793L250.948 149.218L250.985 149.643L251.046 150.062L251.109 150.481L251.196 150.891L251.283 151.301L251.396 151.699L251.508 152.097L251.644 152.482L251.78 152.867L251.939 153.235L252.099 153.603L252.28 153.953L252.462 154.303L252.664 154.632L252.867 154.961L252.872 154.967L252.932 155.05L253.094 155.274L252.876 154.974L252.932 155.05L253.099 155.281L253.322 155.588L253.563 155.87L253.805 156.153L254.062 156.409L254.32 156.665L254.591 156.897L254.861 157.128L255.138 157.336L255.414 157.545L255.694 157.731L255.972 157.917L256.267 158.093L256.561 158.269L256.96 158.483L257.36 158.698L257.977 159.012L258.594 159.326L259.33 159.695L260.103 160.081L260.876 160.468L261.709 160.885L262.543 161.302L263.479 161.77L264.416 162.238L265.284 162.672L266.152 163.106L267.137 163.599L268.123 164.092L269.163 164.612L270.203 165.131L271.461 165.76L272.138 166.099L273.494 166.777L274.074 167.067L274.876 167.468L276.01 168.035L276.265 168.163L277.947 169.003L278.318 169.189L278.986 169.523L280.026 170.043L280.352 170.206L281.011 170.536L281.997 171.028L282.865 171.463L283.733 171.897L284.669 172.365L285.606 172.833L286.44 173.25L287.273 173.667L288.191 174.125L289.109 174.583L290.014 175.028L290.918 175.473L291.265 175.633L291.611 175.794L291.921 175.92L292.231 176.047L292.536 176.152L292.841 176.258L292.867 176.266L292.894 176.275L293.21 176.363L293.525 176.451L293.849 176.516L294.172 176.581L294.236 176.591L294.298 176.6L294.628 176.637L294.956 176.673L295.116 176.688L295.276 176.702L296.202 176.772L297.127 176.842L298.053 176.904L298.979 176.966L299.139 176.974L299.3 176.982L299.631 176.986L299.962 176.989L300.026 176.989L300.089 176.988L300.42 176.958L300.752 176.928L300.779 176.923L300.807 176.919L301.136 176.855L301.464 176.791L301.789 176.694L302.114 176.597L302.433 176.468L302.752 176.338L303.063 176.177L303.374 176.015L303.676 175.823L303.977 175.631L304.267 175.409L304.557 175.188L304.834 174.937L305.11 174.687L305.115 174.681L305.121 174.675L305.382 174.399L305.643 174.122L305.887 173.821L306.131 173.519L306.358 173.194L306.584 172.87L306.791 172.524L306.998 172.178L307.188 171.81L307.378 171.443L307.555 171.056L307.732 170.668L307.897 170.261L308.063 169.854L308.223 169.423L308.382 168.991L308.546 168.513L308.71 168.035L308.922 167.385L309.134 166.735L309.446 165.763L309.735 164.86L310.023 163.958L310.422 162.713L310.82 161.468L311.442 159.522L312.064 157.577L313.002 154.646L313.939 151.715L315.251 147.614L316.563 143.513L317.9 139.334L318.179 138.459L319.516 134.28L319.795 133.406L321.133 129.226L321.615 127.717L322.952 123.537L323.435 122.028L324.772 117.848L325.356 116.021L326.693 111.842L327.277 110.015L328.614 105.835L329.198 104.008L330.535 99.8286L331.12 98.0018L331.828 95.7871L332.536 93.5724L333.873 89.3927L335.21 85.2129L335.599 83.9956L336.119 82.3725L336.929 79.8392L338.266 75.6594L338.662 74.4193L339.639 71.3669L340.615 68.3145L341.552 65.3837L342.49 62.4528L343.112 60.5071L343.734 58.5618L344.133 57.3169L344.531 56.072L344.759 55.3571L344.988 54.6423L345.297 53.6734L345.563 52.83L345.828 51.9866L345.973 51.4986L346.118 51.0111L346.24 50.5613L346.362 50.1115L346.467 49.6736L346.572 49.2356L346.657 48.803L346.743 48.3699L346.808 47.9398L346.872 47.5102L346.913 47.0806L346.954 46.6514L346.97 46.2214L346.985 45.7914L346.974 45.3626L346.963 44.9335L346.927 44.5087L346.891 44.0835L346.829 43.6644L346.767 43.2458L346.679 42.8359L346.592 42.4261L346.479 42.0276L346.368 41.6292L346.232 41.2444L346.095 40.8599L345.936 40.4918L345.777 40.1232L345.595 39.7734L345.414 39.4237L345.211 39.0946L345.008 38.7655L345.004 38.7589L344.999 38.7527L344.776 38.4456L344.554 38.1388L344.312 37.8562L344.071 37.5741L343.813 37.3174L343.555 37.0611L343.285 36.8294L343.015 36.5982L342.738 36.3897L342.461 36.1817L342.182 35.9952L341.903 35.8092L341.609 35.6332L341.315 35.4577L340.915 35.2431L340.516 35.0289L339.899 34.7148L339.281 34.401L338.545 34.032L337.984 33.7515L337.424 33.4707L335.451 32.4842L333.478 31.4973L332.475 30.9958L331.472 30.4942L329.607 29.5622L327.744 28.6306L325.772 27.6445L323.801 26.6589L321.83 25.6734L319.858 24.6878L317.995 23.7557L316.13 22.8237L314.481 21.9992L312.832 21.1746L311.505 20.5111L310.178 19.8476L309.244 19.3812L308.31 18.9151L307.695 18.6128L307.079 18.3105L306.672 18.1213L306.265 17.9326L305.954 17.8058L305.644 17.6794L305.34 17.5741L305.035 17.4688L305.008 17.46L304.981 17.4517L304.666 17.3639L304.35 17.2757L304.027 17.2103L303.703 17.1454L303.64 17.1357L303.577 17.1265L303.248 17.0897L302.919 17.0528L302.753 17.0379L302.588 17.0234L301.668 16.9536L300.748 16.8843Z" stroke="#A7A9B2" stroke-width="0.6" stroke-linejoin="round"/>
<path d="M329.781 91.3849L329.782 91.3809L329.828 91.1795L329.876 90.9741L331.212 86.7944L332.187 83.7473L333.523 79.568L334.114 77.7228L334.485 76.5612L334.498 76.5208L334.582 76.3181L334.665 76.1154L334.779 75.9289L334.893 75.7424L335.03 75.5848L335.161 75.4348L335.167 75.4277" stroke="#A7A9B2" stroke-width="0.6" stroke-linejoin="round"/>
<path d="M288.375 28.3816L288.355 28.3705L288.336 28.3594" stroke="#A7A9B2" stroke-width="0.6" stroke-linejoin="round"/>
<path d="M288.339 28.3586L288.329 28.3519L288.32 28.3457" stroke="#A7A9B2" stroke-width="0.6" stroke-linejoin="round"/>
<path d="M340.473 54.3332L340.405 54.3271L340.338 54.3205L340.306 54.3165L340.273 54.3121L340.242 54.3047" stroke="#A7A9B2" stroke-width="0.6" stroke-linejoin="round"/>
<path d="M340.219 54.2969L340.246 54.3059L340.232 54.3014L340.219 54.2969Z" stroke="#A7A9B2" stroke-width="0.6" stroke-linejoin="round"/>
<path d="M340.18 54.2822L340.215 54.296L340.197 54.2889L340.18 54.2822Z" stroke="#A7A9B2" stroke-width="0.6" stroke-linejoin="round"/>
<path d="M340.15 54.2706L340.125 54.2588L340.176 54.282L340.15 54.2706Z" stroke="#A7A9B2" stroke-width="0.6" stroke-linejoin="round"/>
<path d="M252.773 139.46L252.779 139.467L252.788 139.474L252.797 139.48L252.816 139.491L252.835 139.502L253.001 139.588" stroke="#A7A9B2" stroke-width="0.6" stroke-linejoin="round"/>
<path d="M258.578 159.287L258.579 159.269L258.581 159.251L258.593 159.191L258.659 158.963L258.759 158.65" stroke="#A7A9B2" stroke-width="0.6" stroke-linejoin="round"/>
<path d="M258.596 159.326L258.582 159.309L258.58 159.298L258.578 159.287L258.582 159.309" stroke="#A7A9B2" stroke-width="0.6" stroke-linejoin="round"/>
<path d="M304.586 165.38L304.611 165.391L304.637 165.403" stroke="#A7A9B2" stroke-width="0.6" stroke-linejoin="round"/>
<path d="M304.641 165.403L304.658 165.41L304.676 165.417" stroke="#A7A9B2" stroke-width="0.6" stroke-linejoin="round"/>
<path d="M303.953 165.055L303.962 165.061L303.971 165.067L304.01 165.089L304.014 165.092L304.175 165.175L304.293 165.234L304.34 165.258L304.412 165.293L304.501 165.337L304.591 165.38L304.642 165.403L304.677 165.417L304.691 165.422L304.704 165.426" stroke="#A7A9B2" stroke-width="0.6" stroke-linejoin="round"/>
<path d="M304.734 165.433L304.703 165.426L304.718 165.43L304.734 165.433Z" stroke="#A7A9B2" stroke-width="0.6" stroke-linejoin="round"/>
<path d="M304.792 165.442L304.727 165.434L304.759 165.438L304.792 165.442Z" stroke="#A7A9B2" stroke-width="0.6" stroke-linejoin="round"/>
<path d="M304.864 165.449L304.931 165.455L304.797 165.442L304.864 165.449Z" stroke="#A7A9B2" stroke-width="0.6" stroke-linejoin="round"/>
<path d="M339.51 53.9475L339.502 53.9408L339.492 53.9346" stroke="#A7A9B2" stroke-width="0.6" stroke-linejoin="round"/>
<path d="M339.546 53.9684L339.508 53.9465L339.49 53.9338L339.487 53.9303L339.484 53.9268L339.49 53.9338" stroke="#A7A9B2" stroke-width="0.6" stroke-linejoin="round"/>
<path d="M303.956 165.052L303.959 165.056L303.953 165.048L303.956 165.052Z" stroke="#A7A9B2" stroke-width="0.6" stroke-linejoin="round"/>
<path d="M335.469 75.1928L335.622 75.1225L335.775 75.0528L335.922 75.0357L336.05 75.0207L336.067 75.0186L336.08 75.0142L336.093 75.0098L336.102 75.0159L336.112 75.0216L336.181 75.0418L336.241 75.0585L336.28 75.0699L336.369 75.0953L336.471 75.1831L336.481 75.191" stroke="#A7A9B2" stroke-width="0.6" stroke-linejoin="round"/>
<path d="M335.156 75.4354L335.308 75.3169L335.459 75.198L335.615 75.1273L335.77 75.0567L335.918 75.0396L336.02 75.0277L336.048 75.0247L336.066 75.0225L336.196 75.0593L336.228 75.0685L336.326 75.0966" stroke="#A7A9B2" stroke-width="0.6" stroke-linejoin="round"/>
<path d="M330.18 92.5557L330.309 92.5925L330.39 92.6162" stroke="#A7A9B2" stroke-width="0.6" stroke-linejoin="round"/>
<path d="M344.906 53.6592L344.96 53.6627L345.126 53.6737" stroke="#A7A9B2" stroke-width="0.6" stroke-linejoin="round"/>
<path d="M307.109 165.614L308.033 165.678L308.187 165.689L308.647 165.721L308.955 165.743L309.079 165.751L309.113 165.753L309.271 165.763" stroke="#A7A9B2" stroke-width="0.6" stroke-linejoin="round"/>
<path d="M344.941 54.6473L344.88 54.6442L344.82 54.6416" stroke="#A7A9B2" stroke-width="0.6" stroke-linejoin="round"/>
<path d="M344.984 54.6465L344.961 54.6469L344.938 54.6474" stroke="#A7A9B2" stroke-width="0.6" stroke-linejoin="round"/>
<path d="M344.492 54.6221L344.65 54.6322L344.808 54.6427L344.928 54.6484L344.975 54.6475L344.982 54.6427L344.978 54.6453L344.975 54.6475" stroke="#A7A9B2" stroke-width="0.6" stroke-linejoin="round"/>
<path d="M309.391 165.769L309.438 165.768L309.441 165.766L309.445 165.764" stroke="#A7A9B2" stroke-width="0.6" stroke-linejoin="round"/>
<path d="M309.273 165.764L309.334 165.767L309.394 165.769L309.273 165.764Z" stroke="#A7A9B2" stroke-width="0.6" stroke-linejoin="round"/>
<path d="M345.242 53.6792L345.266 53.6787H345.289" stroke="#A7A9B2" stroke-width="0.6" stroke-linejoin="round"/>
<path d="M342.969 53.5244L343.541 53.5652L344.053 53.6012L344.512 53.6332L344.543 53.6354L344.799 53.6521L344.911 53.6596L345.131 53.6741L345.19 53.6767L345.251 53.6793L345.298 53.6789L345.305 53.6741" stroke="#A7A9B2" stroke-width="0.6" stroke-linejoin="round"/>
<path d="M308.965 166.735L308.807 166.725L308.649 166.715H308.648" stroke="#A7A9B2" stroke-width="0.6" stroke-linejoin="round"/>
<path d="M340.773 53.3652L341.376 53.4113L341.432 53.4153L342.383 53.4837L342.955 53.5245L343.871 53.5886L344.04 53.6004L344.499 53.6325L344.786 53.6522" stroke="#A7A9B2" stroke-width="0.6" stroke-linejoin="round"/>
<path d="M330.181 92.5389L330.108 92.4766L330.076 92.4498L329.997 92.3822L329.972 92.3607L329.965 92.3471L329.901 92.226L329.831 92.0909L329.798 91.9193L329.766 91.7477L329.773 91.5516L329.78 91.3809" stroke="#A7A9B2" stroke-width="0.6" stroke-linejoin="round"/>
<path d="M259.317 159.677L259.324 159.685L259.33 159.694L259.317 159.677ZM259.317 159.677L259.315 159.666L259.312 159.655L259.316 159.619L259.322 159.589L259.328 159.56" stroke="#A7A9B2" stroke-width="0.6" stroke-linejoin="round"/>
<path d="M259.394 159.332L259.372 159.41L259.371 159.414L259.361 159.447L259.328 159.561L259.371 159.414L259.372 159.41L259.394 159.332Z" stroke="#A7A9B2" stroke-width="0.6" stroke-linejoin="round"/>
<path d="M303.657 166.041L303.647 166.034L303.638 166.028L303.636 166.024L303.633 166.021" stroke="#A7A9B2" stroke-width="0.6" stroke-linejoin="round"/>
<path d="M303.695 166.062L303.676 166.051L303.656 166.04L303.695 166.062Z" stroke="#A7A9B2" stroke-width="0.6" stroke-linejoin="round"/>
<path d="M259.616 158.699L259.606 158.717L259.596 158.734L259.583 158.763L259.57 158.793" stroke="#A7A9B2" stroke-width="0.6" stroke-linejoin="round"/>
<path d="M339.795 52.9656L339.789 52.957L339.792 52.9616" stroke="#A7A9B2" stroke-width="0.6" stroke-linejoin="round"/>
<path d="M339.815 52.9777L339.797 52.9648L339.806 52.9711L339.815 52.9777Z" stroke="#A7A9B2" stroke-width="0.6" stroke-linejoin="round"/>
<path d="M340.246 53.1996L340.182 53.1676L340.017 53.0851L339.855 53.0012L339.851 52.9995L339.812 52.9775L339.832 52.9885L339.851 52.9995" stroke="#A7A9B2" stroke-width="0.6" stroke-linejoin="round"/>
<path d="M289.312 27.7266L289.331 27.7333L289.339 27.7369" stroke="#A7A9B2" stroke-width="0.6" stroke-linejoin="round"/>
<path d="M304.413 166.404L304.398 166.401L304.383 166.397" stroke="#A7A9B2" stroke-width="0.6" stroke-linejoin="round"/>
<path d="M304.479 166.414L304.447 166.41L304.414 166.405" stroke="#A7A9B2" stroke-width="0.6" stroke-linejoin="round"/>
<path d="M304.387 166.398L304.373 166.393L304.359 166.389" stroke="#A7A9B2" stroke-width="0.6" stroke-linejoin="round"/>
<path d="M304.937 166.452L304.911 166.45L304.775 166.44L304.613 166.427L304.478 166.415L304.413 166.406L304.382 166.399L304.355 166.39L304.338 166.383L304.32 166.376" stroke="#A7A9B2" stroke-width="0.6" stroke-linejoin="round"/>
<path d="M304.325 166.375L304.299 166.364L304.273 166.353L304.325 166.375Z" stroke="#A7A9B2" stroke-width="0.6" stroke-linejoin="round"/>
<path d="M259.628 158.687L259.626 158.688L259.617 158.699L259.628 158.687Z" stroke="#A7A9B2" stroke-width="0.6" stroke-linejoin="round"/>
<path d="M340.523 53.3271L340.537 53.3316L340.55 53.3361" stroke="#A7A9B2" stroke-width="0.6" stroke-linejoin="round"/>
<path d="M340.438 53.29L340.463 53.3014L340.489 53.3128" stroke="#A7A9B2" stroke-width="0.6" stroke-linejoin="round"/>
<path d="M340.484 53.3125L340.502 53.3196L340.52 53.3267L340.484 53.3125Z" stroke="#A7A9B2" stroke-width="0.6" stroke-linejoin="round"/>
<path d="M340.577 53.3429L340.547 53.3359L340.562 53.3394L340.577 53.3429Z" stroke="#A7A9B2" stroke-width="0.6" stroke-linejoin="round"/>
<path d="M340.643 53.3516L340.578 53.3428L340.611 53.3472L340.643 53.3516Z" stroke="#A7A9B2" stroke-width="0.6" stroke-linejoin="round"/>
<path d="M340.648 53.3516L340.716 53.3577L340.783 53.3643L340.648 53.3516Z" stroke="#A7A9B2" stroke-width="0.6" stroke-linejoin="round"/>
<path d="M288.64 27.3911L288.631 27.3845L288.622 27.3782L288.617 27.3711L288.619 27.3747L288.622 27.3782" stroke="#A7A9B2" stroke-width="0.6" stroke-linejoin="round"/>
<path d="M259.5 159.019L259.58 158.792L259.54 158.906L259.5 159.019Z" stroke="#A7A9B2" stroke-width="0.6" stroke-linejoin="round"/>
<path d="M340.793 54.358L340.631 54.3453L340.469 54.333L340.793 54.358ZM340.793 54.358L341.072 54.3791L341.131 54.3835L342.078 54.4519L342.651 54.4923L343.223 54.5331L343.734 54.5691L344.193 54.6011L344.225 54.6033" stroke="#A7A9B2" stroke-width="0.6" stroke-linejoin="round"/>
<path d="M339.712 54.0543L339.629 54.0118L339.552 53.9714L339.547 53.9688L339.552 53.9714L339.712 54.0543Z" stroke="#A7A9B2" stroke-width="0.6" stroke-linejoin="round"/>
<path d="M259.498 159.02L259.448 159.176L259.398 159.332L259.498 159.02Z" stroke="#A7A9B2" stroke-width="0.6" stroke-linejoin="round"/>
<path d="M303.86 166.148L303.778 166.105L303.698 166.063L303.695 166.062L303.698 166.063L303.86 166.148Z" stroke="#A7A9B2" stroke-width="0.6" stroke-linejoin="round"/>
<path d="M258.893 158.318L258.883 158.33L258.863 158.365L258.838 158.424L258.758 158.651L258.798 158.537L258.838 158.424" stroke="#A7A9B2" stroke-width="0.6" stroke-linejoin="round"/>
<path d="M340.25 53.2002L340.343 53.2454L340.437 53.2906L340.25 53.2002Z" stroke="#A7A9B2" stroke-width="0.6" stroke-linejoin="round"/>
<path d="M330.117 92.4761L330.394 92.6148L330.465 92.6503L330.716 92.7241L331 92.6885L331.309 92.5477L331.33 92.5319L331.627 92.2989L331.705 92.2085L331.897 91.9869L332.123 91.6169L332.289 91.2128L333.626 87.033L334.963 82.8538L335.695 80.564L336.327 78.5871L336.884 76.8464L336.979 76.4369L336.994 76.0525V76.0266L336.952 75.8042L336.93 75.6848L336.789 75.4154L336.581 75.2381L336.486 75.1903L336.24 75.0674" stroke="#A7A9B2" stroke-width="0.6" stroke-linejoin="round"/>
<path d="M309.085 165.75L308.689 165.724L308.652 165.722L308.192 165.689L307.687 165.654L307.115 165.613L306.543 165.572L305.536 165.5L305.258 165.479" stroke="#A7A9B2" stroke-width="0.6" stroke-linejoin="round"/>
<path d="M304.914 166.449L304.94 166.451L305.219 166.472L306.225 166.545L306.797 166.586L307.37 166.626L307.873 166.662L308.332 166.694L308.372 166.697L308.643 166.714L308.959 166.735L309.079 166.741L309.126 166.74L309.133 166.735" stroke="#A7A9B2" stroke-width="0.6" stroke-linejoin="round"/>
<path d="M251.769 146.321L251.693 147.108L251.664 147.891L251.682 148.67L251.748 149.437L251.86 150.193L252.017 150.932L252.22 151.651L252.465 152.345L252.752 153.009L253.08 153.64L253.447 154.234L253.851 154.789L254.291 155.302L254.764 155.77L255.264 156.197L255.781 156.583L256.306 156.933L256.834 157.25L257.366 157.543L257.905 157.822L258.456 158.099L258.894 158.318L259.049 158.396L259.829 158.786L261.371 159.557L261.373 159.558L262.109 159.926L262.111 159.926L264.752 161.247L264.782 161.262L264.945 161.343L265.946 161.844L266.039 161.891L266.536 162.139L266.566 162.154L267.73 162.736L267.781 162.762L268.306 163.024L268.319 163.031L268.35 163.046L270.782 164.262L270.968 164.355L271.424 164.583L271.473 164.607L271.536 164.639L271.549 164.646L271.714 164.728L271.738 164.74L271.781 164.761L271.918 164.83L272 164.871L272.018 164.88L272.905 165.324L272.909 165.326L273.815 165.779L273.834 165.788L279.969 168.856L279.985 168.864L280.672 169.207L280.673 169.208L281.299 169.521L281.375 169.559L281.565 169.654L281.637 169.69L282.155 169.949L282.163 169.953L285.905 171.824L285.936 171.839L286.025 171.883L287.676 172.709L287.689 172.716L287.692 172.717L287.719 172.731L288.83 173.286L288.884 173.313L289.473 173.607L289.503 173.623L289.61 173.676L290.203 173.973L290.77 174.254L291.209 174.466L291.247 174.484L291.29 174.505L291.299 174.509L291.737 174.707L291.846 174.755L292.403 174.981L292.976 175.181L293.564 175.347L294.161 175.469L294.25 175.479L294.763 175.538M294.763 175.538L294.791 175.54L294.824 175.542M294.763 175.538L294.987 175.541L295.352 175.546H295.365L295.49 175.534L295.964 175.492L296.557 175.378L297.009 175.243L297.142 175.203L297.717 174.97L298.277 174.679L298.819 174.333L299.342 173.934L299.839 173.483L300.31 172.983L300.752 172.435L301.164 171.843L301.542 171.207L301.892 170.531L302.218 169.817L302.523 169.068L302.856 168.151L303.444 166.377L304.556 162.925L335.761 65.3667L335.774 65.3229L335.957 64.7537L335.966 64.7256L336.083 64.3597L336.086 64.3504L336.301 63.6755L336.334 63.5746L336.639 62.6215L336.67 62.5219L336.864 61.919L336.961 61.6135L337.011 61.4591L338.865 55.6562L339.964 52.1965L340.013 52.0372L340.085 51.8047L340.434 50.6752L340.442 50.6488L340.517 50.4057L340.573 50.2025L340.577 50.1872L340.626 50.0125L340.637 49.9739L340.764 49.5154L340.781 49.4535L340.87 49.0818L340.915 48.8909L340.973 48.6482L341.074 48.1401L341.131 47.8509L341.235 47.1668L341.241 47.1247L341.251 47.0597L341.265 46.9145L341.276 46.7951L341.322 46.319L341.327 46.2725L341.336 46.0175L341.338 45.9868L341.356 45.4888L341.338 44.7112L341.272 43.9428L341.16 43.1872L341.003 42.4482L340.801 41.7294L340.555 41.0361L340.268 40.3717L339.94 39.7407L339.574 39.1461L339.17 38.5914L338.729 38.0785L338.256 37.6098L337.757 37.1837L337.24 36.7971L336.714 36.4474L336.186 36.131L335.654 35.8379L335.115 35.5583L334.565 35.2814L302.817 19.4077L302.266 19.1334L301.721 18.871L301.174 18.6248L300.812 18.4778L300.617 18.3993L300.615 18.3984L300.044 18.1992L299.467 18.0368L299.456 18.0337L299.046 17.9499L299.002 17.9407L298.859 17.9117L298.555 17.8766L298.258 17.8429L297.773 17.8363L297.657 17.835L297.058 17.8885L296.464 18.0026L295.879 18.1772L295.305 18.4107L294.745 18.7016L294.202 19.0479L293.68 19.4472L293.182 19.8978L292.711 20.3977L292.269 20.9453" stroke="#A7A9B2" stroke-width="0.6" stroke-linejoin="round"/>
<path d="M298.32 17.8472L298.286 17.845L298.258 17.8428" stroke="#A7A9B2" stroke-width="0.6" stroke-linejoin="round"/>
<path d="M320.594 32.8515L320.449 32.9652L320.43 32.9797L320.249 33.0503L320.062 33.0578L319.881 33.0021L317.294 31.7084L314.706 30.4144L314.544 30.299L314.413 30.1322L314.32 29.9246L314.273 29.6916L314.275 29.4481L314.327 29.2037L314.424 28.9816L314.557 28.8039L314.72 28.6758L314.901 28.6056L315.088 28.5977L315.269 28.6534L315.438 28.7381L315.442 28.7403L317.857 29.9475L320.445 31.2415L320.606 31.3569L320.738 31.5237L320.83 31.7308L320.832 31.7396L320.877 31.9643L320.876 32.2078L320.824 32.4522L320.727 32.6738L320.71 32.6966L320.594 32.8515Z" stroke="#A7A9B2" stroke-width="0.6" stroke-linejoin="round"/>
<path d="M155.274 251.972L155.198 252.364L154.998 252.485L154.865 252.566L154.698 252.668L152.804 253.325L152.32 253.661V257.16" stroke="#A7A9B2" stroke-width="0.6" stroke-linejoin="round"/>
<path d="M184.948 252.565V250.837L184.816 250.428L184.111 250.21L181.858 249.965L181.164 249.78L180.793 249.432L180.303 248.306L179.868 247.954L179.05 247.888L176.781 248.092L175.998 248.054L175.389 247.804L174.074 246.857L173.402 246.615L172.597 246.71L170.657 247.333L169.904 247.448L169.151 247.333L167.211 246.71L166.405 246.615L165.733 246.857L164.418 247.804L163.81 248.054L163.026 248.092L160.757 247.888L159.94 247.954L159.505 248.306L159.015 249.432L158.644 249.78L157.949 249.965L155.696 250.21L154.992 250.428L154.859 250.837V252.565" stroke="#A7A9B2" stroke-width="0.6" stroke-linejoin="round"/>
<path d="M152.32 253.661L152.51 254.064L153.757 255.034L153.986 255.411L153.757 255.787L152.51 256.757L152.32 257.16V260.808L152.444 260.895L152.804 261.144L154.698 261.802L154.865 261.903" stroke="#A7A9B2" stroke-width="0.6" stroke-linejoin="round"/>
<path d="M152.32 257.159L152.804 257.495L153.986 257.905L154.698 258.152L155.198 258.457L155.274 258.848L154.865 259.983V261.232V261.902V263.631L154.998 264.04L155.702 264.257L157.955 264.502L158.65 264.688L159.021 265.035L159.511 266.162L159.946 266.514L160.763 266.58L163.032 266.376L163.816 266.414L164.424 266.664L165.739 267.61L166.411 267.853L166.534 267.838L167.217 267.757L169.157 267.134L169.91 267.02L170.663 267.134L172.603 267.757L173.409 267.853L174.08 267.61L175.395 266.664L176.004 266.414L176.787 266.376L179.057 266.58L179.874 266.514L180.309 266.162L180.8 265.035L181.17 264.688L181.865 264.502L184.117 264.257L184.822 264.04L184.954 263.631V261.902V259.983L184.545 258.848" stroke="#A7A9B2" stroke-width="0.6" stroke-linejoin="round"/>
<path d="M154.992 260.393L155.269 260.478L155.696 260.61L157.949 260.856L158.644 261.041L159.015 261.388L159.505 262.514L159.94 262.867" stroke="#A7A9B2" stroke-width="0.6" stroke-linejoin="round"/>
<path d="M159.938 266.514V263.772V262.866L160.755 262.932L163.024 262.728L163.807 262.766L164.416 263.016L165.731 263.963L166.403 264.205" stroke="#A7A9B2" stroke-width="0.6" stroke-linejoin="round"/>
<path d="M166.406 267.854V267.006V264.205L167.212 264.11L169.152 263.487L169.905 263.373L170.658 263.487L172.598 264.11L173.404 264.205" stroke="#A7A9B2" stroke-width="0.6" stroke-linejoin="round"/>
<path d="M173.398 267.853V264.205L174.07 263.963L175.385 263.016L175.994 262.766L176.777 262.728L179.046 262.932L179.864 262.866" stroke="#A7A9B2" stroke-width="0.6" stroke-linejoin="round"/>
<path d="M179.867 266.515V262.867L180.302 262.514L180.793 261.388L181.163 261.041L181.858 260.856L184.111 260.61L184.539 260.478L184.815 260.393" stroke="#A7A9B2" stroke-width="0.6" stroke-linejoin="round"/>
<path d="M184.539 258.849L184.616 258.457L185.116 258.153L185.828 257.906L187.01 257.495L187.494 257.159" stroke="#A7A9B2" stroke-width="0.6" stroke-linejoin="round"/>
<path d="M184.945 261.903L185.113 261.801L187.007 261.144L187.491 260.808V257.309V257.159L187.3 256.756L186.054 255.787L185.825 255.41" stroke="#A7A9B2" stroke-width="0.6" stroke-linejoin="round"/>
<path d="M185.828 255.411L186.057 255.034L187.303 254.064L187.494 253.661" stroke="#A7A9B2" stroke-width="0.6" stroke-linejoin="round"/>
<path d="M187.494 257.309V253.661L187.01 253.325L185.116 252.668L184.948 252.566L184.816 252.485L184.616 252.364L184.539 251.972" stroke="#A7A9B2" stroke-width="0.6" stroke-linejoin="round"/>
<path d="M184.539 251.971L184.948 250.837" stroke="#A7A9B2" stroke-width="0.6" stroke-linejoin="round"/>
<path d="M154.859 259.983L154.992 260.392V261.299V261.984V264.04" stroke="#A7A9B2" stroke-width="0.6" stroke-linejoin="round"/>
<path d="M184.812 264.04V261.984V260.392L184.945 259.983" stroke="#A7A9B2" stroke-width="0.6" stroke-linejoin="round"/>
<path d="M154.859 250.837L155.268 251.971" stroke="#A7A9B2" stroke-width="0.6" stroke-linejoin="round"/>
<path d="M116.971 179.543L113.046 181.506L109.121 183.468L105.196 185.431L101.271 187.393L97.3465 189.355L93.4213 191.318L89.4965 193.28L85.5717 195.243L81.6465 197.205L77.7217 199.168L73.797 201.13L69.8722 203.093L65.947 205.055L62.0222 207.017L58.0974 208.98L54.1726 210.943L50.2474 212.905L47.4557 214.301L44.8952 215.815L43.1285 217.591L42.4922 219.548V223.936V226.844L43.1285 228.801L44.8952 230.577L47.4557 232.091L51.3804 234.054L55.3056 236.016L59.2304 237.978L63.1552 239.941L67.08 241.903L71.0052 243.866L74.93 245.828L78.8548 247.791L82.7795 249.753L86.7048 251.716L90.6295 253.678L94.5543 255.64L98.4795 257.603L102.404 259.566L106.329 261.528L110.254 263.49L114.179 265.453L118.104 267.415L122.029 269.378L125.953 271.34L129.879 273.303L133.803 275.265L137.728 277.228L141.653 279.19L145.578 281.152L149.503 283.115L153.428 285.077L157.353 287.04L161.278 289.002L165.203 290.965L169.127 292.927L173.053 294.89L175.562 296.144L178.59 297.425L182.141 298.307L186.056 298.626L189.97 298.307L193.521 297.425L196.549 296.144L200.474 294.182L204.399 292.219L208.324 290.257L212.249 288.295L216.174 286.332L220.099 284.369L224.024 282.407L227.949 280.445L231.873 278.482L235.798 276.52L239.723 274.557L242.27 273.284" stroke="#A7A9B2" stroke-width="0.6" stroke-linejoin="round"/>
<path d="M42.4922 219.548L43.1285 221.505L44.8952 223.281L47.4557 224.795L51.3804 226.758L55.3056 228.72L59.2304 230.682L63.1552 232.645L67.08 234.608L71.0052 236.57L74.93 238.532L78.8548 240.495L82.7795 242.457L86.7048 244.419L90.6295 246.382L94.5543 248.345L98.4795 250.307L102.404 252.269L106.329 254.232L110.254 256.194L114.179 258.157L118.104 260.119L122.029 262.082L125.953 264.044L129.879 266.007L133.803 267.969L137.728 269.931L141.653 271.894L145.578 273.856L149.503 275.819L153.428 277.781L157.353 279.744L161.278 281.706L165.203 283.669L169.127 285.631L173.053 287.593L175.562 288.848L178.59 290.128L182.141 291.012L186.056 291.33L189.97 291.012L193.521 290.128L196.549 288.848L200.474 286.886L204.399 284.923L208.324 282.961L212.249 280.998L216.174 279.036L220.099 277.074L224.024 275.111L227.949 273.148L231.873 271.186L235.798 269.224L239.723 267.261L243.648 265.299L247.573 263.336L251.498 261.374L255.423 259.411L259.348 257.449L263.273 255.486L267.198 253.524L271.122 251.562L275.047 249.599L278.972 247.637L282.897 245.674L286.822 243.712L289.645 242.3L292.205 240.786L293.972 239.011L294.609 237.054L293.972 235.096L292.205 233.321L289.645 231.807L285.72 229.844L281.795 227.881L277.871 225.919L273.945 223.957L270.021 221.994L266.096 220.032L262.171 218.069L258.246 216.107L254.321 214.144L250.396 212.182L246.471 210.219L242.546 208.257L238.621 206.295L234.697 204.332L230.772 202.37L226.847 200.407L222.922 198.445L218.997 196.482L215.072 194.52L211.147 192.557L207.222 190.595L203.298 188.633L199.372 186.67L195.448 184.707L191.523 182.745L187.598 180.783L183.673 178.82L182.304 178.136" stroke="#A7A9B2" stroke-width="0.6" stroke-linejoin="round"/>
<path d="M253.352 267.749L257.277 265.786L261.202 263.824L265.126 261.861L269.052 259.899L272.976 257.936L276.901 255.974L280.826 254.011L284.751 252.049L288.676 250.087L289.655 249.597L292.215 248.082L293.982 246.307L294.618 244.35V239.962V237.054" stroke="#A7A9B2" stroke-width="0.6" stroke-linejoin="round"/>
<path d="M128.694 182.144L124.769 184.106L120.844 186.068L116.92 188.031L112.994 189.994L109.07 191.956L105.145 193.918L101.22 195.881L97.2949 197.843L93.3701 199.806L89.4453 201.768L85.5206 203.731L81.5953 205.693L77.6706 207.655L73.7458 209.618L70.3616 211.31L69.5213 211.932L69.3594 212.72L69.9298 213.415L70.8715 214.132L72.2995 216.237L72.776 218.447L72.2995 220.656L70.8715 222.761L69.9298 223.479L69.3594 224.173L69.5213 224.962L70.3621 225.584L74.2869 227.546L78.2116 229.509L82.1364 231.471L86.0616 233.433L89.9864 235.396L93.9112 237.359L97.836 239.321L101.761 241.283L105.686 243.246L109.611 245.208L113.536 247.171L117.461 249.133L121.386 251.096L125.31 253.058L129.235 255.021L133.16 256.983L137.085 258.945L141.01 260.908L144.935 262.87L146.709 263.757" stroke="#A7A9B2" stroke-width="0.6" stroke-linejoin="round"/>
<path d="M160.695 270.753L164.621 272.715L168.545 274.678L172.588 276.699L173.833 277.119L175.409 277.201L176.798 276.915L178.234 276.444L182.443 275.73L186.862 275.492L191.282 275.73L195.491 276.444L196.926 276.915L198.316 277.201L199.892 277.119L201.136 276.699L205.061 274.737L208.986 272.774L212.911 270.812L216.836 268.85L220.761 266.887L224.685 264.924L228.611 262.962L232.535 261L236.46 259.037L240.385 257.075L244.31 255.112L248.235 253.15L252.16 251.187L256.084 249.225L260.01 247.262L263.934 245.3L266.746 243.894L267.587 243.272L267.749 242.484L267.179 241.789L266.236 241.072L264.809 238.967L264.332 236.757L264.809 234.547L266.236 232.443L267.179 231.725L267.749 231.031L267.587 230.242L266.746 229.62L262.822 227.658L258.896 225.695L254.972 223.733L251.047 221.77L247.122 219.808L243.197 217.845L239.272 215.883L235.347 213.921L231.423 211.958L227.497 209.995L223.573 208.033L219.648 206.071L215.723 204.108L211.798 202.146L207.873 200.183L203.948 198.221L200.023 196.258L196.098 194.296L192.173 192.333L188.249 190.371L184.323 188.409L180.399 186.446L176.586 184.54" stroke="#A7A9B2" stroke-width="0.6" stroke-linejoin="round"/>
<path d="M160.331 252.137L161.245 251.58L161.763 251.264L163.508 250.548L165.499 250.016L166.407 249.879L167.659 249.689L169.906 249.578L172.152 249.689L173.404 249.879L174.312 250.016L176.303 250.548L178.048 251.264L178.567 251.58L179.48 252.137L180.544 253.132L181.199 254.212L181.421 255.335L181.199 256.459L180.544 257.539L179.48 258.534L178.048 259.407L176.303 260.122L174.312 260.655L172.152 260.983L169.906 261.093L167.659 260.983L165.499 260.655L163.508 260.122L161.763 259.407L160.331 258.534L159.267 257.539L158.612 256.459L158.391 255.335L158.612 254.212L159.267 253.132L160.331 252.137Z" stroke="#A7A9B2" stroke-width="0.6" stroke-linejoin="round"/>
<path d="M160.774 250.77L159.942 251.277L159.168 251.748L157.975 252.865L157.49 253.664L157.24 254.076L156.992 255.336L157.24 256.596L157.975 257.807L159.168 258.923L160.774 259.902L162.731 260.704L164.964 261.301L167.386 261.668L169.906 261.792L172.425 261.668L174.848 261.301L177.08 260.704L179.037 259.902L180.643 258.923L181.836 257.807L182.571 256.596L182.819 255.336L182.571 254.076L182.322 253.664L181.836 252.865L180.643 251.748L179.869 251.277L179.037 250.77L177.08 249.967L174.848 249.37L173.404 249.151L172.425 249.003L169.906 248.879L167.386 249.003L166.407 249.151L164.964 249.37L162.731 249.967L160.774 250.77Z" stroke="#A7A9B2" stroke-width="0.6" stroke-linejoin="round"/>
<path d="M165.978 251.867L165.733 254.63L161.602 256.162L165.91 256.994L166.519 257.111L168.418 259.57L171.482 257.505L175.87 257.407L177.008 257.382L173.764 255.266L175.5 252.621L171.169 253.332L170.21 253.489L166.113 251.919L165.978 251.867Z" stroke="#A7A9B2" stroke-width="0.6" stroke-linejoin="round"/>
<path d="M97.0081 226.469L96.9133 226.437L96.7957 226.495L96.7005 226.623L96.6641 226.769" stroke="#A7A9B2" stroke-width="0.6" stroke-linejoin="round"/>
<path d="M104.785 227.678L104.466 227.666L103.138 227.581L101.836 227.465L100.594 227.318L99.4474 227.141L98.4294 226.934L97.625 226.713" stroke="#A7A9B2" stroke-width="0.6" stroke-linejoin="round"/>
<path d="M114.686 226.251L114.149 226.505L113.454 226.782L112.692 227.041L111.892 227.269L111.085 227.452L110.302 227.578L109.356 227.665L108.265 227.717L107.063 227.733L105.784 227.716L105.422 227.702" stroke="#A7A9B2" stroke-width="0.6" stroke-linejoin="round"/>
<path d="M114.746 226.223L114.688 226.25" stroke="#A7A9B2" stroke-width="0.6" stroke-linejoin="round"/>
<path d="M115.441 225.714L115.408 225.766L115.118 226L114.688 226.25" stroke="#A7A9B2" stroke-width="0.6" stroke-linejoin="round"/>
<path d="M115.516 225.586L115.438 225.715" stroke="#A7A9B2" stroke-width="0.6" stroke-linejoin="round"/>
<path d="M115.962 225.681L115.915 225.555L115.799 225.329L115.693 225.291L115.477 225.216" stroke="#A7A9B2" stroke-width="0.6" stroke-linejoin="round"/>
<path d="M115.475 225.215L115.39 225.186L115.328 225.165" stroke="#A7A9B2" stroke-width="0.6" stroke-linejoin="round"/>
<path d="M115.477 225.215L115.331 225.164L114.698 225.12L113.804 225.138L112.86 225.193L111.881 225.285L110.888 225.414L109.9 225.579L108.935 225.78L108.015 226.017L107.158 226.291L106.385 226.6L106.311 226.637L105.626 226.99L105.065 227.382L104.781 227.676" stroke="#A7A9B2" stroke-width="0.6" stroke-linejoin="round"/>
<path d="M104.653 227.812L104.492 228.158" stroke="#A7A9B2" stroke-width="0.6" stroke-linejoin="round"/>
<path d="M104.496 228.158L104.477 228.198L104.43 228.329" stroke="#A7A9B2" stroke-width="0.6" stroke-linejoin="round"/>
<path d="M105.523 228.87L105.141 228.677L104.945 228.479" stroke="#A7A9B2" stroke-width="0.6" stroke-linejoin="round"/>
<path d="M114.263 230.991L114.216 230.868L114.132 230.678L113.945 230.505L113.672 230.348L113.328 230.205L113.244 230.177L112.849 230.051L112.403 229.938L111.918 229.838L111.405 229.753L110.655 229.654L109.851 229.563L109.021 229.474L108.192 229.382L107.392 229.278L106.649 229.158L105.992 229.015L105.531 228.87" stroke="#A7A9B2" stroke-width="0.6" stroke-linejoin="round"/>
<path d="M113.794 231.056L113.781 231.071" stroke="#A7A9B2" stroke-width="0.6" stroke-linejoin="round"/>
<path d="M113.754 231.088L113.655 231.205L113.43 231.352" stroke="#A7A9B2" stroke-width="0.6" stroke-linejoin="round"/>
<path d="M113.49 231.325L113.43 231.352" stroke="#A7A9B2" stroke-width="0.6" stroke-linejoin="round"/>
<path d="M113.427 231.352L113.071 231.511L112.438 231.811L112.346 231.859L112.014 232.168L111.969 232.294" stroke="#A7A9B2" stroke-width="0.6" stroke-linejoin="round"/>
<path d="M113.042 232.698L112.64 232.548L112.453 232.402" stroke="#A7A9B2" stroke-width="0.6" stroke-linejoin="round"/>
<path d="M119.523 233.406L119.481 233.291L119.369 233.249L118.361 233.23L117.364 233.203L116.357 233.152L115.381 233.075L114.473 232.973L113.672 232.845L113.047 232.698" stroke="#A7A9B2" stroke-width="0.6" stroke-linejoin="round"/>
<path d="M119.232 233.293L119.031 233.486" stroke="#A7A9B2" stroke-width="0.6" stroke-linejoin="round"/>
<path d="M118.762 233.715L118.603 233.852L118.399 234.358L118.352 234.489" stroke="#A7A9B2" stroke-width="0.6" stroke-linejoin="round"/>
<path d="M121.24 236.053L120.439 235.783L119.728 235.464L119.198 235.117L118.906 234.773" stroke="#A7A9B2" stroke-width="0.6" stroke-linejoin="round"/>
<path d="M126.572 237.113L125.482 236.947L124.368 236.76L123.265 236.549L122.205 236.312L121.242 236.054" stroke="#A7A9B2" stroke-width="0.6" stroke-linejoin="round"/>
<path d="M126.43 237.476L126.45 237.325L126.504 237.186L126.571 237.112L126.625 237.132L126.645 237.238" stroke="#A7A9B2" stroke-width="0.6" stroke-linejoin="round"/>
<path d="M97.0081 226.469L96.9133 226.437L96.7957 226.495L96.7005 226.623L96.6641 226.769" stroke="#A7A9B2" stroke-width="0.6" stroke-linejoin="round"/>
<path d="M104.785 227.678L104.466 227.666L103.138 227.581L101.836 227.465L100.594 227.318L99.4474 227.141L98.4294 226.934L97.625 226.713" stroke="#A7A9B2" stroke-width="0.6" stroke-linejoin="round"/>
<path d="M114.686 226.251L114.149 226.505L113.454 226.782L112.692 227.041L111.892 227.269L111.085 227.452L110.302 227.578L109.356 227.665L108.265 227.717L107.063 227.733L105.784 227.716L105.422 227.702" stroke="#A7A9B2" stroke-width="0.6" stroke-linejoin="round"/>
<path d="M114.746 226.223L114.688 226.25" stroke="#A7A9B2" stroke-width="0.6" stroke-linejoin="round"/>
<path d="M115.441 225.714L115.408 225.766L115.118 226L114.688 226.25" stroke="#A7A9B2" stroke-width="0.6" stroke-linejoin="round"/>
<path d="M115.516 225.586L115.438 225.715" stroke="#A7A9B2" stroke-width="0.6" stroke-linejoin="round"/>
<path d="M115.962 225.681L115.915 225.555L115.799 225.329L115.693 225.291L115.477 225.216" stroke="#A7A9B2" stroke-width="0.6" stroke-linejoin="round"/>
<path d="M115.475 225.215L115.39 225.186L115.328 225.165" stroke="#A7A9B2" stroke-width="0.6" stroke-linejoin="round"/>
<path d="M115.477 225.215L115.331 225.164L114.698 225.12L113.804 225.138L112.86 225.193L111.881 225.285L110.888 225.414L109.9 225.579L108.935 225.78L108.015 226.017L107.158 226.291L106.385 226.6L106.311 226.637L105.626 226.99L105.065 227.382L104.781 227.676" stroke="#A7A9B2" stroke-width="0.6" stroke-linejoin="round"/>
<path d="M104.653 227.812L104.492 228.158" stroke="#A7A9B2" stroke-width="0.6" stroke-linejoin="round"/>
<path d="M104.496 228.158L104.477 228.198L104.43 228.329" stroke="#A7A9B2" stroke-width="0.6" stroke-linejoin="round"/>
<path d="M105.523 228.87L105.141 228.677L104.945 228.479" stroke="#A7A9B2" stroke-width="0.6" stroke-linejoin="round"/>
<path d="M114.263 230.991L114.216 230.868L114.132 230.678L113.945 230.505L113.672 230.348L113.328 230.205L113.244 230.177L112.849 230.051L112.403 229.938L111.918 229.838L111.405 229.753L110.655 229.654L109.851 229.563L109.021 229.474L108.192 229.382L107.392 229.278L106.649 229.158L105.992 229.015L105.531 228.87" stroke="#A7A9B2" stroke-width="0.6" stroke-linejoin="round"/>
<path d="M113.794 231.056L113.781 231.071" stroke="#A7A9B2" stroke-width="0.6" stroke-linejoin="round"/>
<path d="M113.754 231.088L113.655 231.205L113.43 231.352" stroke="#A7A9B2" stroke-width="0.6" stroke-linejoin="round"/>
<path d="M113.49 231.325L113.43 231.352" stroke="#A7A9B2" stroke-width="0.6" stroke-linejoin="round"/>
<path d="M113.427 231.352L113.071 231.511L112.438 231.811L112.346 231.859L112.014 232.168L111.969 232.294" stroke="#A7A9B2" stroke-width="0.6" stroke-linejoin="round"/>
<path d="M113.042 232.698L112.64 232.548L112.453 232.402" stroke="#A7A9B2" stroke-width="0.6" stroke-linejoin="round"/>
<path d="M119.523 233.406L119.481 233.291L119.369 233.249L118.361 233.23L117.364 233.203L116.357 233.152L115.381 233.075L114.473 232.973L113.672 232.845L113.047 232.698" stroke="#A7A9B2" stroke-width="0.6" stroke-linejoin="round"/>
<path d="M119.232 233.293L119.031 233.486" stroke="#A7A9B2" stroke-width="0.6" stroke-linejoin="round"/>
<path d="M118.762 233.715L118.603 233.852L118.399 234.358L118.352 234.489" stroke="#A7A9B2" stroke-width="0.6" stroke-linejoin="round"/>
<path d="M121.24 236.053L120.439 235.783L119.728 235.464L119.198 235.117L118.906 234.773" stroke="#A7A9B2" stroke-width="0.6" stroke-linejoin="round"/>
<path d="M126.572 237.113L125.482 236.947L124.368 236.76L123.265 236.549L122.205 236.312L121.242 236.054" stroke="#A7A9B2" stroke-width="0.6" stroke-linejoin="round"/>
<path d="M126.43 237.476L126.45 237.325L126.504 237.186L126.571 237.112L126.625 237.132L126.645 237.238" stroke="#A7A9B2" stroke-width="0.6" stroke-linejoin="round"/>
<path d="M152.437 260.895L148.512 262.857L146.71 263.758L142.785 265.721L140.918 266.654L140.541 266.874L140.32 267.103L140.312 267.326L140.533 267.52L140.947 267.668L141.489 267.77L145.831 268.404L149.031 268.872L149.49 268.967L149.938 269.139L150.281 269.363L150.472 269.592L152.676 273.363L152.88 273.634L153.176 273.841L153.563 273.952L154.009 273.948L154.467 273.837L154.907 273.649L158.832 271.686L160.699 270.753L164.624 268.79L166.526 267.839" stroke="#A7A9B2" stroke-width="0.6" stroke-linejoin="round"/>
<path d="M316.829 255.789L315.116 256.943L313.157 258.166L311.109 259.363L308.992 260.534L306.827 261.677L304.632 262.79L302.429 263.869L300.237 264.915L298.076 265.925L295.967 266.898L293.929 267.831L291.982 268.723L290.146 269.573L288.44 270.378L286.889 271.136L285.44 271.846L284.017 272.512L282.613 273.133L281.226 273.706L279.854 274.229L278.493 274.699L277.141 275.113L275.795 275.47L274.453 275.767L273.111 276.002L271.765 276.173L270.413 276.277L269.049 276.314L267.668 276.28L266.266 276.173L264.836 275.99L263.376 275.727L261.881 275.381L260.349 274.95L258.775 274.431L257.157 273.82L256.707 273.629L255.494 273.114L253.781 272.311" stroke="#A7A9B2" stroke-width="0.6" stroke-linejoin="round"/>
<path d="M253.086 274.14L254.424 274.767L254.832 274.959L256.536 275.681L258.2 276.31L259.83 276.848L261.427 277.297L262.997 277.659L264.541 277.937L266.063 278.132L267.563 278.247L269.045 278.283L270.509 278.244L271.956 278.132L273.389 277.95L274.809 277.702L276.219 277.39L277.623 277.018L279.024 276.589L280.426 276.105L281.833 275.569L283.247 274.985L284.674 274.354L286.115 273.679L287.572 272.965L289.116 272.211L290.812 271.409L292.643 270.562L294.588 269.671L296.627 268.737L298.74 267.763L300.907 266.75L303.108 265.7L305.322 264.615L307.529 263.496L309.71 262.346L311.843 261.165L313.91 259.957L315.889 258.721L317.762 257.46L318.056 257.252L319.81 255.96L321.418 254.645L322.857 253.308L324.109 251.95L325.15 250.573L325.961 249.178L326.518 247.767L326.648 247.35L326.931 245.918L326.914 244.471L326.538 242.992L326.408 242.578L325.653 241.064L324.552 239.517L323.136 237.942L321.436 236.343L319.481 234.726L317.3 233.097L317.004 232.888L314.634 231.257L312.094 229.625L309.412 227.996L306.618 226.378L303.74 224.777L300.806 223.199L297.846 221.652L294.887 220.14L291.958 218.67L289.089 217.25L286.307 215.885L283.642 214.582L281.122 213.347L278.776 212.187L276.633 211.109L274.722 210.12L273.084 209.232L271.867 208.461" stroke="#A7A9B2" stroke-width="0.6" stroke-linejoin="round"/>
<path d="M316.972 255.697L316.836 255.789" stroke="#A7A9B2" stroke-width="0.6" stroke-linejoin="round"/>
<path d="M324.747 247.033L324.316 248.124L323.545 249.45L322.548 250.768L321.344 252.074L319.952 253.368L318.39 254.645L316.836 255.789" stroke="#A7A9B2" stroke-width="0.6" stroke-linejoin="round"/>
<path d="M324.838 246.789L324.742 247.033" stroke="#A7A9B2" stroke-width="0.6" stroke-linejoin="round"/>
<path d="M324.688 243.489L324.954 244.536L324.969 245.872L324.739 247.033" stroke="#A7A9B2" stroke-width="0.6" stroke-linejoin="round"/>
<path d="M324.609 243.174L324.69 243.489" stroke="#A7A9B2" stroke-width="0.6" stroke-linejoin="round"/>
<path d="M316.008 234.51L318.052 236.037L319.963 237.617L321.614 239.17L322.979 240.688L324.03 242.163L324.692 243.489" stroke="#A7A9B2" stroke-width="0.6" stroke-linejoin="round"/>
<path d="M315.906 234.438L316.002 234.51" stroke="#A7A9B2" stroke-width="0.6" stroke-linejoin="round"/>
<path d="M272.139 176.846L271.616 178.289L271.02 179.877L270.404 181.49L269.78 183.121L269.158 184.766L268.552 186.419L267.971 188.075L267.429 189.728L266.935 191.374L266.502 193.008L266.143 194.623L266.077 195.003L265.869 196.216L265.776 197.04L265.692 197.781L265.625 199.311L265.68 200.801L265.871 202.245L265.913 202.543L266.256 203.95L266.76 205.296L267.436 206.571L268.296 207.769L269.348 208.884L270.602 209.909L270.876 210.104L272.327 211.026L274.005 211.935L275.928 212.931L278.079 214.013L280.429 215.175L282.951 216.411L285.616 217.714L288.396 219.078L291.262 220.496L294.185 221.963L297.136 223.471L300.088 225.015L303.011 226.587L305.878 228.181L308.658 229.791L311.323 231.41L313.845 233.03L315.996 234.51" stroke="#A7A9B2" stroke-width="0.6" stroke-linejoin="round"/>
<path d="M271.871 208.461L270.843 207.621L269.889 206.61L269.115 205.532L268.509 204.389L268.058 203.186L267.758 201.949" stroke="#A7A9B2" stroke-width="0.6" stroke-linejoin="round"/>
<path d="M267.762 201.95L267.622 200.891L267.57 199.504L267.633 198.07L267.644 197.971L267.8 196.592L267.916 195.919L268.061 195.076L268.406 193.526L268.824 191.948L269.304 190.348L269.835 188.73L270.407 187.1L271.007 185.464L271.625 183.828L272.25 182.196L272.869 180.572L273.473 178.964L273.92 177.732" stroke="#A7A9B2" stroke-width="0.6" stroke-linejoin="round"/>
<path d="M316.829 255.789L315.116 256.943L313.157 258.166L311.109 259.363L308.992 260.534L306.827 261.677L304.632 262.79L302.429 263.869L300.237 264.915L298.076 265.925L295.967 266.898L293.929 267.831L291.982 268.723L290.146 269.573L288.44 270.378L286.889 271.136L285.44 271.846L284.017 272.512L282.613 273.133L281.226 273.706L279.854 274.229L278.493 274.699L277.141 275.113L275.795 275.47L274.453 275.767L273.111 276.002L271.765 276.173L270.413 276.277L269.049 276.314L267.668 276.28L266.266 276.173L264.836 275.99L263.376 275.727L261.881 275.381L260.349 274.95L258.775 274.431L257.157 273.82L256.707 273.629L255.494 273.114L253.781 272.311" stroke="#A7A9B2" stroke-width="0.6" stroke-linejoin="round"/>
<path d="M253.086 274.14L254.424 274.767L254.832 274.959L256.536 275.681L258.2 276.31L259.83 276.848L261.427 277.297L262.997 277.659L264.541 277.937L266.063 278.132L267.563 278.247L269.045 278.283L270.509 278.244L271.956 278.132L273.389 277.95L274.809 277.702L276.219 277.39L277.623 277.018L279.024 276.589L280.426 276.105L281.833 275.569L283.247 274.985L284.674 274.354L286.115 273.679L287.572 272.965L289.116 272.211L290.812 271.409L292.643 270.562L294.588 269.671L296.627 268.737L298.74 267.763L300.907 266.75L303.108 265.7L305.322 264.615L307.529 263.496L309.71 262.346L311.843 261.165L313.91 259.957L315.889 258.721L317.762 257.46L318.056 257.252L319.81 255.96L321.418 254.645L322.857 253.308L324.109 251.95L325.15 250.573L325.961 249.178L326.518 247.767L326.648 247.35L326.931 245.918L326.914 244.471L326.538 242.992L326.408 242.578L325.653 241.064L324.552 239.517L323.136 237.942L321.436 236.343L319.481 234.726L317.3 233.097L317.004 232.888L314.634 231.257L312.094 229.625L309.412 227.996L306.618 226.378L303.74 224.777L300.806 223.199L297.846 221.652L294.887 220.14L291.958 218.67L289.089 217.25L286.307 215.885L283.642 214.582L281.122 213.347L278.776 212.187L276.633 211.109L274.722 210.12L273.084 209.232L271.867 208.461" stroke="#A7A9B2" stroke-width="0.6" stroke-linejoin="round"/>
<path d="M316.972 255.697L316.836 255.789" stroke="#A7A9B2" stroke-width="0.6" stroke-linejoin="round"/>
<path d="M324.747 247.033L324.316 248.124L323.545 249.45L322.548 250.768L321.344 252.074L319.952 253.368L318.39 254.645L316.836 255.789" stroke="#A7A9B2" stroke-width="0.6" stroke-linejoin="round"/>
<path d="M324.838 246.789L324.742 247.033" stroke="#A7A9B2" stroke-width="0.6" stroke-linejoin="round"/>
<path d="M324.688 243.489L324.954 244.536L324.969 245.872L324.739 247.033" stroke="#A7A9B2" stroke-width="0.6" stroke-linejoin="round"/>
<path d="M324.609 243.174L324.69 243.489" stroke="#A7A9B2" stroke-width="0.6" stroke-linejoin="round"/>
<path d="M316.008 234.51L318.052 236.037L319.963 237.617L321.614 239.17L322.979 240.688L324.03 242.163L324.692 243.489" stroke="#A7A9B2" stroke-width="0.6" stroke-linejoin="round"/>
<path d="M315.906 234.438L316.002 234.51" stroke="#A7A9B2" stroke-width="0.6" stroke-linejoin="round"/>
<path d="M272.139 176.846L271.616 178.289L271.02 179.877L270.404 181.49L269.78 183.121L269.158 184.766L268.552 186.419L267.971 188.075L267.429 189.728L266.935 191.374L266.502 193.008L266.143 194.623L266.077 195.003L265.869 196.216L265.776 197.04L265.692 197.781L265.625 199.311L265.68 200.801L265.871 202.245L265.913 202.543L266.256 203.95L266.76 205.296L267.436 206.571L268.296 207.769L269.348 208.884L270.602 209.909L270.876 210.104L272.327 211.026L274.005 211.935L275.928 212.931L278.079 214.013L280.429 215.175L282.951 216.411L285.616 217.714L288.396 219.078L291.262 220.496L294.185 221.963L297.136 223.471L300.088 225.015L303.011 226.587L305.878 228.181L308.658 229.791L311.323 231.41L313.845 233.03L315.996 234.51" stroke="#A7A9B2" stroke-width="0.6" stroke-linejoin="round"/>
<path d="M271.871 208.461L270.843 207.621L269.889 206.61L269.115 205.532L268.509 204.389L268.058 203.186L267.758 201.949" stroke="#A7A9B2" stroke-width="0.6" stroke-linejoin="round"/>
<path d="M267.762 201.95L267.622 200.891L267.57 199.504L267.633 198.07L267.644 197.971L267.8 196.592L267.916 195.919L268.061 195.076L268.406 193.526L268.824 191.948L269.304 190.348L269.835 188.73L270.407 187.1L271.007 185.464L271.625 183.828L272.25 182.196L272.869 180.572L273.473 178.964L273.92 177.732" stroke="#A7A9B2" stroke-width="0.6" stroke-linejoin="round"/>
<path d="M275.359 178.451L276.696 174.271L278.033 170.092L278.322 169.189" stroke="#A7A9B2" stroke-width="0.6" stroke-linejoin="round"/>
<path d="M271.462 165.761L270.125 169.94L269.239 172.711L268.5 175.022L268.747 175.146L272.148 176.847" stroke="#A7A9B2" stroke-width="0.6" stroke-linejoin="round"/>
<path d="M273.922 177.732L275.359 178.451L277.666 178.615L279.002 174.435L280.355 170.206" stroke="#A7A9B2" stroke-width="0.6" stroke-linejoin="round"/>
<path d="M256.708 273.629L257.448 273.259V269.799L253.523 267.836L253.346 267.748L249.421 265.786L248.331 265.24L244.406 267.203L240.719 269.047V272.506L242.274 273.284L246.199 275.247L249.836 277.065L253.761 275.102L254.43 274.768" stroke="#A7A9B2" stroke-width="0.6" stroke-linejoin="round"/>
<path d="M240.719 269.046L244.644 271.008L245.734 271.553L249.659 273.516L249.836 273.604" stroke="#A7A9B2" stroke-width="0.6" stroke-linejoin="round"/>
<path d="M249.836 277.065V273.605L251.03 273.008" stroke="#A7A9B2" stroke-width="0.6" stroke-linejoin="round"/>
<path d="M177.227 202.607L181.151 204.57L185.077 206.532L189.001 208.495L192.926 210.457L196.851 212.42L200.776 214.382L204.701 216.345L208.626 218.307L212.551 220.269L216.476 222.232L219.735 223.862L220.885 224.1L222.036 223.862L225.961 221.899L228.182 220.788L228.659 220.213L228.182 219.638L224.257 217.675L220.332 215.713L216.408 213.75L212.483 211.788L208.558 209.826L204.633 207.863L200.708 205.901L196.783 203.938L192.858 201.976L188.933 200.013L185.674 198.384L184.524 198.146L183.373 198.384L179.448 200.346L177.227 201.457L176.75 202.032L177.227 202.607Z" stroke="#A7A9B2" stroke-width="0.6" stroke-linejoin="round"/>
<path d="M89.1567 225.508L93.0815 227.47L97.0063 229.433L100.931 231.395L104.856 233.358L108.781 235.32L112.706 237.282L116.631 239.245L120.556 241.207L123.227 242.543L124.001 242.703L124.775 242.543L128.7 240.58L132.625 238.618L136.55 236.655L140.462 234.699L140.783 234.312L140.462 233.925L136.538 231.963L132.613 230L128.688 228.037L124.763 226.075L120.838 224.113L116.913 222.15L112.988 220.188L109.063 218.225L106.392 216.89L105.618 216.729L104.844 216.89L100.919 218.852L96.994 220.815L93.0688 222.777L89.1567 224.734L88.8359 225.121L89.1567 225.508Z" stroke="#A7A9B2" stroke-width="0.6" stroke-linejoin="round"/>
<path d="M135.57 195.512L139.495 197.474L143.42 199.436L147.345 201.399L151.27 203.362L155.195 205.324L159.12 207.286L163.045 209.249L166.969 211.211L170.895 213.174L174.819 215.136L178.744 217.099L182.669 219.061L186.594 221.024L190.519 222.986L194.444 224.948L198.369 226.911L202.294 228.873L206.219 230.836L210.143 232.798L214.069 234.761L217.993 236.723L221.918 238.686L225.843 240.648L228.047 241.75L229.197 241.988L230.348 241.75L231.574 241.137L232.05 240.561L231.574 239.986L227.649 238.024L223.724 236.061L219.799 234.099L215.874 232.136L211.949 230.174L208.024 228.211L204.099 226.249L200.175 224.287L196.249 222.324L192.325 220.361L188.4 218.399L184.475 216.437L180.55 214.474L176.625 212.512L172.7 210.549L168.775 208.587L164.85 206.624L160.926 204.662L157.001 202.699L153.076 200.737L149.151 198.775L145.226 196.812L141.301 194.85L139.098 193.748L137.947 193.51L136.796 193.748L135.57 194.361L135.094 194.936L135.57 195.512Z" stroke="#A7A9B2" stroke-width="0.6" stroke-linejoin="round"/>
<path d="M181.047 226.91L184.972 228.872L188.897 230.835L192.822 232.798L196.746 234.76L200.671 236.722L204.596 238.685L208.521 240.647L212.446 242.61L215.12 243.947L216.271 244.185L217.421 243.947L218.647 243.334L219.124 242.758L218.647 242.183L214.723 240.221L210.798 238.258L206.873 236.296L202.948 234.333L199.023 232.371L195.098 230.408L191.173 228.446L187.248 226.484L184.574 225.146L183.424 224.908L182.273 225.146L181.047 225.76L180.57 226.335L181.047 226.91Z" stroke="#A7A9B2" stroke-width="0.6" stroke-linejoin="round"/>
<path d="M130.297 201.535L134.222 203.497L138.147 205.46L142.072 207.423L145.996 209.385L149.922 211.347L153.846 213.31L157.771 215.272L161.696 217.235L165.621 219.197L169.546 221.16L172.25 222.511L173.4 222.75L174.551 222.511L175.777 221.898L176.254 221.323L175.777 220.748L171.852 218.785L167.927 216.823L164.002 214.861L160.077 212.898L156.152 210.935L152.228 208.973L148.303 207.011L144.378 205.048L140.453 203.086L136.528 201.123L133.825 199.771L132.674 199.533L131.523 199.771L130.297 200.385L129.82 200.96L130.297 201.535Z" stroke="#A7A9B2" stroke-width="0.6" stroke-linejoin="round"/>
<path d="M129.07 209.583L132.995 211.545L136.92 213.508L140.845 215.47L144.77 217.433L148.695 219.395L152.619 221.358L156.544 223.32L160.469 225.282L164.394 227.245L168.319 229.207L172.244 231.17L176.169 233.132L180.094 235.095L184.019 237.057L187.944 239.02L191.869 240.982L195.793 242.944L199.718 244.907L202.849 246.473L204 246.711L205.15 246.473L206.377 245.86L206.853 245.284L206.377 244.709L202.451 242.747L198.527 240.784L194.602 238.821L190.677 236.859L186.752 234.897L182.827 232.934L178.902 230.972L174.977 229.009L171.052 227.047L167.128 225.084L163.203 223.122L159.278 221.159L155.353 219.197L151.428 217.235L147.503 215.272L143.578 213.31L139.653 211.347L135.728 209.385L132.598 207.819L131.447 207.581L130.296 207.819L129.07 208.432L128.594 209.008L129.07 209.583Z" stroke="#A7A9B2" stroke-width="0.6" stroke-linejoin="round"/>
<path d="M270.058 114.427L269.122 117.355L269.117 118.152L269.547 118.697L273.472 120.659L277.397 122.622L281.322 124.584L285.246 126.547L289.171 128.509L293.096 130.472L297.021 132.434L300.946 134.397L303.606 135.727L304.218 135.702L304.654 135.121L305.591 132.193L305.595 131.397L305.166 130.851L301.241 128.889L297.316 126.926L293.391 124.964L289.466 123.001L285.541 121.039L281.616 119.077L277.691 117.114L273.766 115.151L271.106 113.821L270.494 113.846L270.058 114.427Z" stroke="#A7A9B2" stroke-width="0.6" stroke-linejoin="round"/>
<path d="M270.509 114.846L269.666 117.483L269.664 117.799L269.835 118.016L273.76 119.978L277.685 121.94L281.61 123.903L285.534 125.865L289.459 127.827L293.384 129.79L295.295 130.746L295.538 130.736L295.711 130.505L296.554 127.868L296.556 127.552L296.385 127.336L292.461 125.373L288.536 123.41L284.611 121.448L280.686 119.486L276.761 117.523L272.836 115.561L270.925 114.605L270.683 114.615L270.509 114.846Z" stroke="#A7A9B2" stroke-width="0.6" stroke-linejoin="round"/>
<path d="M103.778 174.356L106.45 175.68L108.714 176.776L110.254 177.487L111.174 177.86L112.722 178.434L115.774 179.251L116.276 179.382L116.978 179.543L121.254 180.529L121.57 180.602L125.859 181.53L127.072 181.793L128.696 182.144L129.476 182.313L133.77 183.213L138.065 184.114L138.882 184.285L143.181 185.164L147.48 186.044L148.306 186.213L152.611 187.065L156.264 187.787L160.58 188.582L161.645 188.778L164.824 189.253L166.547 189.357L166.811 189.344L167.82 189.222L168.74 188.995L169.687 188.689L169.888 188.624L170.847 188.245L171.815 187.795L172.782 187.277L172.941 187.186L173.891 186.611L174.823 185.98L175.728 185.298L176.591 184.54L176.723 184.423L176.822 184.324L177.869 183.211L178.519 182.521L181.397 179.208L181.673 178.891L182.311 178.135L185.141 174.782L187.031 172.543L189.843 169.174L192.655 165.805L194.968 163.033L197.771 159.657L200.574 156.281L203.377 152.904L204.372 151.706L207.168 148.324L209.964 144.942L212.76 141.56L213.759 140.351L216.546 136.962L219.333 133.572L221.646 130.76L224.414 127.355L226.919 124.275L229.639 120.831L229.948 120.441L231.471 118.357L232.23 117.12L232.837 115.979L233.414 114.794L233.954 113.577L234.452 112.338L234.903 111.089L235.303 109.842L235.649 108.61L235.936 107.403L236.164 106.055L236.18 105.948L236.355 103.573L236.48 99.1866L236.481 99.1274L236.531 94.7396L236.567 91.5578L236.587 87.1696L236.607 82.7814L236.618 80.3341L236.623 75.946L236.629 71.5578L236.635 67.1696V67.0301L236.63 62.6419L236.624 58.2538L236.618 53.7432L236.598 49.355L236.578 44.9668L236.567 42.5704L236.517 38.1827L236.481 35.0864L236.355 30.768L236.18 28.5678L236.155 28.3703L235.923 27.2329L235.63 26.2956L235.561 26.0933L235.206 25.1819L234.794 24.3117L234.331 23.492L233.819 22.7307L233.666 22.5047L233.108 21.8039L232.512 21.175L231.884 20.6248L231.483 20.3053L230.701 19.809L229.857 19.2991L228.369 18.4956L226.136 17.3437L223.474 16.001L220.802 14.6766L218.539 13.5804L216.998 12.87L216.078 12.497L214.53 11.9226L211.478 11.1064L210.976 10.9752L206.7 9.9896L205.682 9.75483L201.393 8.82674L197.776 8.04432L193.482 7.14344L189.187 6.24298L188.37 6.07184L184.071 5.19245L179.772 4.31306L178.946 4.14456L174.642 3.29238L170.988 2.56965L166.673 1.77539L165.608 1.57924L162.428 1.104L160.705 1L160.441 1.01272L159.432 1.13472L158.512 1.36202L157.565 1.66831L157.364 1.7337L156.406 2.11196L155.438 2.56219L154.47 3.07999L154.311 3.17127L153.361 3.74611L152.429 4.37713L151.524 5.05861L150.529 5.93405L150.43 6.03279L148.733 7.83632L145.855 11.149L145.579 11.4662L142.748 14.8197L140.221 17.8141L137.409 21.1829L134.597 24.5517L132.284 27.3238L129.481 30.7L126.678 34.0763L123.875 37.4525L122.88 38.6514L120.084 42.0333L117.288 45.4153L114.492 48.7973L113.493 50.0058L110.706 53.3952L107.919 56.7846L105.606 59.597L102.838 63.0018L100.333 66.0827L97.6128 69.5257L97.3043 69.9158L95.7808 72.0001L95.0225 73.2372L94.4147 74.3781L93.8381 75.5629L93.2979 76.7806L92.8003 78.0194L92.3492 79.2678L91.949 80.5145L91.6032 81.7471L91.3158 82.9543L91.0881 84.3015L91.0723 84.409L90.8976 86.7839L90.7725 91.1703L90.7708 91.2295L90.7208 95.6173L90.6848 98.7996L90.665 103.187L90.6453 107.575L90.6339 110.023L90.6286 114.411L90.6229 118.799L90.6172 123.187V123.327L90.6229 127.715L90.6282 132.103L90.6339 136.614L90.6541 141.002L90.6738 145.39L90.6848 147.786L90.7352 152.174L90.7708 155.27L90.8976 159.589L91.0723 161.79L91.0968 161.987L91.329 163.124L91.6225 164.061L91.6914 164.264L92.0464 165.175L92.4576 166.045L92.9214 166.865L93.4331 167.627L93.5858 167.852L94.144 168.553L94.7403 169.182L95.3683 169.733L95.7689 170.052L96.5509 170.548L97.3952 171.058L98.8832 171.862L101.116 173.013L103.778 174.356Z" stroke="#A7A9B2" stroke-width="0.6" stroke-linejoin="round"/>
<path d="M97.6217 226.711L97.0078 226.468" stroke="#A7A9B2" stroke-width="0.6" stroke-linejoin="round"/>
<path d="M97.6217 226.711L97.0078 226.468" stroke="#A7A9B2" stroke-width="0.6" stroke-linejoin="round"/>
<path d="M97.629 226.712L97.5781 226.698" stroke="#A7A9B2" stroke-width="0.6" stroke-linejoin="round"/>
<path d="M97.629 226.712L97.5781 226.698" stroke="#A7A9B2" stroke-width="0.6" stroke-linejoin="round"/>
<path d="M104.952 228.477L104.922 228.447" stroke="#A7A9B2" stroke-width="0.6" stroke-linejoin="round"/>
<path d="M104.952 228.477L104.922 228.447" stroke="#A7A9B2" stroke-width="0.6" stroke-linejoin="round"/>
<path d="M105.421 227.701L104.781 227.677" stroke="#A7A9B2" stroke-width="0.6" stroke-linejoin="round"/>
<path d="M105.421 227.701L104.781 227.677" stroke="#A7A9B2" stroke-width="0.6" stroke-linejoin="round"/>
<path d="M105.522 228.869L105.438 228.843" stroke="#A7A9B2" stroke-width="0.6" stroke-linejoin="round"/>
<path d="M105.522 228.869L105.438 228.843" stroke="#A7A9B2" stroke-width="0.6" stroke-linejoin="round"/>
<path d="M112.43 232.381L112.414 232.369" stroke="#A7A9B2" stroke-width="0.6" stroke-linejoin="round"/>
<path d="M112.454 232.399L112.43 232.38" stroke="#A7A9B2" stroke-width="0.6" stroke-linejoin="round"/>
<path d="M112.458 232.403L112.453 232.399" stroke="#A7A9B2" stroke-width="0.6" stroke-linejoin="round"/>
<path d="M112.43 232.381L112.414 232.369" stroke="#A7A9B2" stroke-width="0.6" stroke-linejoin="round"/>
<path d="M112.454 232.399L112.43 232.38" stroke="#A7A9B2" stroke-width="0.6" stroke-linejoin="round"/>
<path d="M112.458 232.403L112.453 232.399" stroke="#A7A9B2" stroke-width="0.6" stroke-linejoin="round"/>
<path d="M113.045 232.698L113.016 232.691" stroke="#A7A9B2" stroke-width="0.6" stroke-linejoin="round"/>
<path d="M113.045 232.698L113.016 232.691" stroke="#A7A9B2" stroke-width="0.6" stroke-linejoin="round"/>
<path d="M113.769 231.075L113.758 231.089" stroke="#A7A9B2" stroke-width="0.6" stroke-linejoin="round"/>
<path d="M113.779 231.07L113.773 231.076" stroke="#A7A9B2" stroke-width="0.6" stroke-linejoin="round"/>
<path d="M113.769 231.075L113.758 231.089" stroke="#A7A9B2" stroke-width="0.6" stroke-linejoin="round"/>
<path d="M113.779 231.07L113.773 231.076" stroke="#A7A9B2" stroke-width="0.6" stroke-linejoin="round"/>
<path d="M119.024 233.486L118.758 233.715" stroke="#A7A9B2" stroke-width="0.6" stroke-linejoin="round"/>
<path d="M119.024 233.486L118.758 233.715" stroke="#A7A9B2" stroke-width="0.6" stroke-linejoin="round"/>
<path d="M118.903 234.773L118.875 234.739" stroke="#A7A9B2" stroke-width="0.6" stroke-linejoin="round"/>
<path d="M118.903 234.773L118.875 234.739" stroke="#A7A9B2" stroke-width="0.6" stroke-linejoin="round"/>
<path d="M118.782 233.714L118.711 233.782" stroke="#A7A9B2" stroke-width="0.6" stroke-linejoin="round"/>
<path d="M119.027 233.486L118.789 233.715" stroke="#A7A9B2" stroke-width="0.6" stroke-linejoin="round"/>
<path d="M118.782 233.714L118.711 233.782" stroke="#A7A9B2" stroke-width="0.6" stroke-linejoin="round"/>
<path d="M119.027 233.486L118.789 233.715" stroke="#A7A9B2" stroke-width="0.6" stroke-linejoin="round"/>
<path d="M121.245 236.053L121.227 236.048" stroke="#A7A9B2" stroke-width="0.6" stroke-linejoin="round"/>
<path d="M121.245 236.053L121.227 236.048" stroke="#A7A9B2" stroke-width="0.6" stroke-linejoin="round"/>
<path d="M253.109 271.967L257.034 270.005L257.448 269.799" stroke="#A7A9B2" stroke-width="0.6" stroke-linejoin="round"/>
<path d="M252.297 272.375L253.111 271.968" stroke="#A7A9B2" stroke-width="0.6" stroke-linejoin="round"/>
<path d="M251.031 273.008L252.297 272.375" stroke="#A7A9B2" stroke-width="0.6" stroke-linejoin="round"/>
<path d="M267.756 201.951L267.75 201.927" stroke="#A7A9B2" stroke-width="0.6" stroke-linejoin="round"/>
<path d="M267.756 201.951L267.75 201.927" stroke="#A7A9B2" stroke-width="0.6" stroke-linejoin="round"/>
<path d="M271.872 208.461L271.719 208.363" stroke="#A7A9B2" stroke-width="0.6" stroke-linejoin="round"/>
<path d="M271.872 208.461L271.719 208.363" stroke="#A7A9B2" stroke-width="0.6" stroke-linejoin="round"/>
<path d="M272.148 176.846L273.92 177.731" stroke="#A7A9B2" stroke-width="0.6" stroke-linejoin="round"/>
<path d="M308.188 165.689L308.188 165.69" stroke="#A7A9B2" stroke-width="0.6" stroke-linejoin="round"/>
<path d="M344.047 53.5996V53.6016" stroke="#A7A9B2" stroke-width="0.6" stroke-linejoin="round"/>
</svg>
