<svg width="620" height="440" viewBox="0 0 620 440" fill="none" xmlns="http://www.w3.org/2000/svg">
<path d="M433.72 87.1686C432.074 87.0809 430.319 86.8176 428.74 87.41C424.374 88.9896 422.86 93.597 421.609 97.6558C419.13 105.379 416.629 113.255 414.15 121C408.752 137.871 403.333 154.831 397.936 171.702C394.36 182.914 390.718 194.235 387.142 205.446C386.067 209.088 384.553 212.73 384.004 216.503C383.631 219.619 384.224 222.976 386.089 225.565L385.869 225.257C387.361 227.583 389.928 228.812 392.32 229.974C395.918 231.773 399.582 233.616 403.18 235.415C409.762 238.706 416.409 242.041 422.991 245.31C425.778 246.758 427.006 246.956 430.1 247.131C433.127 247.395 435.014 247.504 437.537 245.486C439.709 243.665 440.828 240.966 441.684 238.333C442.584 235.569 443.527 232.585 444.426 229.821C449.275 214.66 454.146 199.412 459.016 184.23C464.194 168.082 469.372 151.847 474.55 135.677C475.778 131.838 477.073 127.801 478.301 123.962C479.113 121.417 479.969 118.784 479.991 116.085C480.013 111.829 478.192 107.814 474.33 105.752C467.266 102.11 459.982 98.5554 452.873 94.9792C448.88 93.0046 444.712 90.8764 440.719 88.9019C437.976 87.4977 436.726 87.3222 433.72 87.1686Z" stroke="#787796" stroke-width="0.6" stroke-linejoin="round"/>
<path d="M463.444 162.905L463.729 162.861C463.664 162.883 463.51 162.905 463.444 162.905ZM463.444 162.905H463.422C463.422 162.905 463.4 162.905 463.4 162.883C463.335 162.861 463.203 162.817 463.137 162.817C463.093 162.773 462.984 162.685 462.94 162.641C462.896 162.576 462.83 162.444 462.808 162.378C462.786 162.29 462.764 162.115 462.742 162.049C462.742 161.961 462.764 161.764 462.764 161.654C464.124 157.091 465.748 152.308 467.174 147.744C467.393 147.064 467.613 146.187 468.139 145.704C468.205 145.638 468.359 145.528 468.447 145.463C468.512 145.419 468.666 145.353 468.754 145.331C468.82 145.331 468.973 145.309 469.039 145.287H469.061H469.039" stroke="#787796" stroke-width="0.6" stroke-linejoin="round"/>
<path d="M469.328 145.374L469.064 145.309C469.13 145.309 469.262 145.352 469.328 145.374ZM469.328 145.374C469.371 145.418 469.481 145.506 469.525 145.55C469.569 145.616 469.635 145.747 469.657 145.813C469.679 145.901 469.7 146.076 469.722 146.142C469.722 146.23 469.7 146.428 469.7 146.537C468.56 150.399 467.155 154.501 465.949 158.363C465.751 158.999 465.181 160.798 464.983 161.412C464.852 161.807 464.61 162.202 464.325 162.509C464.259 162.575 464.106 162.685 464.018 162.751C463.952 162.795 463.799 162.86 463.711 162.882" stroke="#787796" stroke-width="0.6" stroke-linejoin="round"/>
<path d="M469.039 145.287C469.061 145.287 469.061 145.287 469.039 145.287" stroke="#787796" stroke-width="0.6" stroke-linejoin="round"/>
<path d="M448.223 98.9281L448.048 98.8623H447.85L447.675 98.9281L447.521 99.0598L447.389 99.2353L447.302 99.4547L447.258 99.696V99.9374L447.302 100.179L447.389 100.376L447.521 100.552C449.167 101.429 451.361 102.526 453.028 103.316H453.225L453.401 103.25C453.401 103.25 453.555 103.141 453.555 103.119L453.686 102.943L453.774 102.724L453.818 102.482V102.241L453.774 102L453.686 101.802L453.555 101.627C451.997 100.749 449.825 99.7618 448.223 98.9281Z" stroke="#787796" stroke-width="0.6" stroke-linejoin="round"/>
<path d="M386.459 210.097C386.394 210.316 386.218 210.865 386.152 211.062C384.792 215.055 383.805 219.267 385.735 223.261C386.92 225.915 389.333 227.385 391.878 228.57C391.988 228.614 392.493 228.877 392.624 228.943C396.837 231.049 401.115 233.199 405.328 235.305C409.825 237.543 414.411 239.847 418.886 242.085C420.29 242.787 421.76 243.533 423.186 244.235C424.634 244.959 426.17 245.705 427.816 245.815" stroke="#787796" stroke-width="0.6" stroke-linejoin="round"/>
<path d="M427.726 245.815C430.096 245.968 432.334 244.586 433.716 242.721C435.427 240.417 436.173 237.258 437.073 234.581C438.718 229.447 440.451 224.05 442.097 218.894C447.626 201.628 453.154 184.295 458.683 167.051C462.391 155.467 466.121 143.795 469.829 132.211C470.882 128.941 472.023 125.365 473.054 122.096C473.624 120.297 474.173 118.41 474.304 116.524C474.502 113.43 473.558 110.073 471.233 107.901C469.785 106.585 467.898 105.773 466.165 104.896C460.724 102.175 455.129 99.3886 449.71 96.6681C445.124 94.3864 440.385 91.995 435.8 89.7132C432.904 88.1774 430.118 87.2998 427.178 89.3622C424.348 91.3368 423.338 94.9129 422.307 98.0503C422.241 98.2697 422.066 98.8182 422 99.0157" stroke="#787796" stroke-width="0.6" stroke-linejoin="round"/>
<path d="M421.98 98.9727C410.132 136.007 398.263 173.063 386.438 210.097" stroke="#787796" stroke-width="0.6" stroke-linejoin="round"/>
<path d="M431.285 88.1123C431.263 88.1123 431.241 88.1123 431.219 88.1123" stroke="#787796" stroke-width="0.6" stroke-linejoin="round"/>
<path d="M469.085 152.637L469.282 153.602C469.282 153.909 469.26 155.972 469.26 156.213C468.778 159.087 467.571 162.246 466.715 165.033C465.399 169.113 463.995 173.501 462.7 177.56C458.269 191.36 453.815 205.27 449.383 219.07C448.242 222.954 447.913 227.429 448.747 231.4C449.251 233.199 450.436 235.459 451.204 237.149C452.696 240.33 454.341 243.906 455.833 247.087C456.996 249.567 458.378 252.55 459.541 255.051C459.914 255.754 460.331 257.487 460.572 258.233C460.572 258.386 460.572 260.602 460.594 260.69L460.024 262.818L459.98 262.95C459.914 263.059 458.817 264.99 458.795 265.034C458.554 265.275 457.172 266.745 456.974 266.965C455.745 267.798 453.859 269.005 452.476 269.597C450.019 270.826 447.079 272.296 444.622 273.525C442.867 274.402 440.475 275.587 438.742 276.465C437.645 277.035 435.78 277.935 434.618 278.308C434.596 278.308 432.467 278.746 432.445 278.768L430.251 278.922H430.098L427.904 278.768H427.75C427.728 278.768 425.6 278.33 425.578 278.308C421.651 276.794 417.702 274.49 413.906 272.691C407.434 269.444 400.764 266.109 394.292 262.884C392.559 262.006 390.146 260.822 388.412 259.944C386.899 259.176 384.683 258.189 383.3 257.18L382.401 256.083L382.094 254.92L382.401 253.757L383.3 252.66C384.77 251.607 387.052 250.598 388.654 249.764C391.111 248.535 394.051 247.065 396.508 245.837C399.338 244.389 402.651 242.941 405.24 241.076C405.482 240.834 406.864 239.365 407.061 239.145L407.873 237.719" stroke="#787796" stroke-width="0.6" stroke-linejoin="round"/>
<path d="M382.07 254.92V257.114L382.377 258.277L383.277 259.374C384.023 259.944 385.8 260.888 386.678 261.283C389.135 262.511 392.075 263.981 394.532 265.21C401.004 268.457 407.674 271.792 414.146 275.017C417.218 276.553 420.64 278.264 423.712 279.8C426.235 280.984 429.526 281.292 432.268 280.984C434.243 280.787 436.678 279.8 438.412 278.834C440.167 277.957 442.558 276.772 444.291 275.894C447.429 274.315 450.961 272.56 454.098 270.98C455.02 270.519 456.578 269.4 457.433 268.852C457.982 268.259 459.276 266.899 459.803 266.329C460.176 265.649 461.097 264.047 461.47 263.389C461.668 262.687 462.15 260.888 462.326 260.207C462.326 259.527 462.304 257.662 462.304 257.026C461.602 253.999 459.934 250.883 458.64 248.075C456.117 242.634 453.484 236.995 450.961 231.554C449.228 226.947 450.062 221.55 451.663 217.008C455.898 203.8 460.154 190.505 464.388 177.319C465.683 173.26 467.109 168.85 468.403 164.791C469.215 162.159 470.356 159.087 470.817 156.367C470.817 156.059 470.839 153.997 470.839 153.756C470.795 153.514 470.378 151.43 470.334 151.255L469.829 150.136" stroke="#787796" stroke-width="0.6" stroke-linejoin="round"/>
<path d="M434.839 150.728C435.037 150.07 435.409 149.061 435.541 148.402V147.942L435.453 147.525L435.278 147.152L435.037 146.845C434.378 146.362 433.018 145.792 432.294 145.397C431.965 145.243 431.46 144.936 431.087 144.87L430.736 144.892L430.407 145.024L430.1 145.265L429.859 145.594C428.981 147.942 428.169 150.838 427.38 153.207C426.458 152.768 425.361 152.154 424.418 151.759L424.176 151.737L423.935 151.759L423.716 151.825L423.496 151.957L423.299 152.132C422.904 152.549 422.728 153.185 422.772 153.756C422.926 155.357 423.145 157.683 423.299 159.285C423.562 162.115 423.891 165.428 424.154 168.258C424.242 168.894 424.198 169.947 424.681 170.452L424.856 170.627L425.076 170.759L425.295 170.847L425.537 170.869L425.778 170.847L425.997 170.781L426.217 170.649C428.893 167.995 431.68 165.011 434.313 162.334C434.905 161.654 435.98 160.776 436.463 159.987C436.792 159.285 436.748 158.385 436.243 157.771L436.068 157.595C435.3 157.134 433.918 156.52 433.128 156.103C433.545 154.809 434.137 152.966 434.532 151.693" stroke="#787796" stroke-width="0.6" stroke-linejoin="round"/>
<path d="M433.305 155.533C433.524 154.874 434.073 153.097 434.292 152.461" stroke="#787796" stroke-width="0.6" stroke-linejoin="round"/>
<path d="M434.84 150.728C434.424 152.066 433.722 154.194 433.305 155.533C433.897 153.69 434.687 151.233 435.257 149.39" stroke="#787796" stroke-width="0.6" stroke-linejoin="round"/>
<path d="M435.448 148.863C434.79 150.904 433.979 153.493 433.32 155.533" stroke="#787796" stroke-width="0.6" stroke-linejoin="round"/>
<path d="M433.877 146.186L432.297 145.396" stroke="#787796" stroke-width="0.6" stroke-linejoin="round"/>
<path d="M422.898 154.875C423.315 159.219 423.776 163.87 424.171 168.214" stroke="#787796" stroke-width="0.6" stroke-linejoin="round"/>
<path d="M426.016 152.505L427.178 153.097" stroke="#787796" stroke-width="0.6" stroke-linejoin="round"/>
<path d="M427.18 153.076L425.359 152.154" stroke="#787796" stroke-width="0.6" stroke-linejoin="round"/>
<path d="M424.852 151.912C425.423 152.198 426.607 152.79 427.178 153.075C426.476 152.724 425.335 152.154 424.633 151.803" stroke="#787796" stroke-width="0.6" stroke-linejoin="round"/>
<path d="M423.689 181.575C425.444 182.255 427.638 182.387 429.503 182.497C431.412 182.694 433.408 182.65 435.273 182.124C442.645 180.149 447.603 173.26 449.622 166.217C452.913 155.291 449.731 140.109 438.323 135.304C436.392 134.449 434.001 134.251 431.916 134.141C429.81 133.922 427.594 134.032 425.554 134.668C415.527 137.915 410.547 149.192 410.547 159.109C410.525 168.126 414.716 178.328 423.689 181.575Z" stroke="#787796" stroke-width="0.6" stroke-linejoin="round"/>
<path d="M427.336 182.366C433.172 182.87 438.701 179.491 442.101 174.906C445.239 170.759 447.016 165.626 447.564 160.47C448.091 155.182 447.301 149.697 445.019 144.892C442.452 139.342 437.275 134.559 430.956 134.076" stroke="#787796" stroke-width="0.6" stroke-linejoin="round"/>
<path d="M158.664 211.457C157.72 211.589 157.194 212.488 156.755 213.234C156.294 214.002 155.856 214.792 155.439 215.582C154.978 216.459 154.561 217.403 154.188 218.324C153.837 219.158 153.398 220.277 154.035 221.089L154.166 221.22L154.32 221.308L154.495 221.374H154.715C155.899 221.286 156.536 220.035 156.887 219.026C157.172 218.302 157.501 217.578 157.852 216.898C158.181 216.24 158.554 215.582 158.927 214.967C159.519 214.09 160.134 212.839 159.498 211.83L159.366 211.698L159.212 211.589L159.037 211.523L158.861 211.501L158.664 211.457Z" stroke="#787796" stroke-width="0.6" stroke-linejoin="round"/>
<path d="M172.329 204.897C171.561 205.16 170.574 205.445 170.047 206.104C169.389 206.915 168.884 208.232 169.542 209.175L169.674 209.307L169.828 209.395L170.003 209.46L170.179 209.482C170.53 209.504 171.012 209.241 171.319 209.109C171.802 208.934 172.46 208.758 172.965 208.714C175.247 208.495 177.616 209.526 179.152 211.172C180.403 212.576 181.127 214.485 181.5 216.306C181.609 216.81 181.763 217.819 181.829 218.324C181.851 218.522 181.938 218.785 182.026 218.938L182.136 219.092L182.267 219.202L182.421 219.289L182.597 219.333L182.772 219.355C184.001 219.246 184.79 217.885 184.922 216.766C184.834 214.441 184.176 211.94 183.145 209.833C181.302 205.95 176.519 203.603 172.329 204.897Z" stroke="#787796" stroke-width="0.6" stroke-linejoin="round"/>
<path d="M165.9 208.846C165.176 208.956 164.54 209.877 164.057 210.36C163.048 211.501 161.929 212.905 161.073 214.156C157.738 219.026 155.632 224.818 155.04 230.698C154.908 232.146 154.864 233.879 154.952 235.327C155.018 235.7 154.996 236.666 155.237 236.995L155.347 237.148L155.478 237.258L155.632 237.346L155.808 237.39L155.983 237.412C157.036 237.346 157.738 236.293 158.045 235.349C158.309 234.494 158.023 233.419 158.045 232.541C157.958 227.714 159.23 222.822 161.534 218.609C162.433 216.942 163.618 215.275 164.825 213.826C165.351 213.146 166.229 212.378 166.668 211.633C167.041 210.908 167.304 209.965 166.843 209.219L166.712 209.066L166.58 208.956L166.426 208.868L166.251 208.824H166.075L165.9 208.846Z" stroke="#787796" stroke-width="0.6" stroke-linejoin="round"/>
<path d="M171.56 211.128C167.48 212.4 164.452 215.955 162.433 219.575C159.099 225.849 158.265 233.945 161.688 240.352L161.819 240.483L161.973 240.593L162.126 240.659L162.302 240.703C163.596 240.703 164.474 239.123 164.54 237.982C164.584 237.521 164.364 237.017 164.145 236.6C163.794 235.832 163.465 234.954 163.223 234.121C162.302 230.808 162.455 227.188 163.509 223.919C164.671 220.452 166.887 216.942 170.332 215.406C172.328 214.529 174.61 215.033 175.817 216.942L175.948 217.052L176.102 217.139L176.277 217.183L176.453 217.205C177.506 217.117 178.208 216.042 178.493 215.121C178.888 213.783 178.186 213.015 177.243 212.159C175.729 210.865 173.491 210.536 171.56 211.128Z" stroke="#787796" stroke-width="0.6" stroke-linejoin="round"/>
<path d="M173.931 231.423C172.812 230.041 172.198 228.285 171.913 226.552C171.825 225.96 171.737 225.126 171.737 224.512C171.737 224.227 171.65 223.898 171.496 223.678L171.386 223.546L171.255 223.437L171.101 223.349L170.926 223.305L170.75 223.283C169.785 223.371 169.127 224.292 168.797 225.126C168.403 226.311 168.732 227.737 168.863 228.944C169.28 231.511 170.377 234.078 172.286 235.92L172.308 235.942C172.308 235.942 172.33 235.964 172.352 235.964L172.505 236.052L172.659 236.096L172.834 236.118C174.326 236.096 175.533 233.683 174.853 232.41C174.721 232.213 174.304 231.796 174.151 231.598L174.107 231.554L174.041 231.467" stroke="#787796" stroke-width="0.6" stroke-linejoin="round"/>
<path d="M172.219 235.876C172.241 235.898 172.285 235.942 172.307 235.964" stroke="#787796" stroke-width="0.6" stroke-linejoin="round"/>
<path d="M172.347 235.986C172.325 235.964 172.303 235.942 172.281 235.92" stroke="#787796" stroke-width="0.6" stroke-linejoin="round"/>
<path d="M174.217 231.751L174.239 231.773L174.195 231.729" stroke="#787796" stroke-width="0.6" stroke-linejoin="round"/>
<path d="M172.331 235.986C172.31 235.964 172.288 235.942 172.266 235.92" stroke="#787796" stroke-width="0.6" stroke-linejoin="round"/>
<path d="M174.191 231.707L174.125 231.642" stroke="#787796" stroke-width="0.6" stroke-linejoin="round"/>
<path d="M174.019 231.511C174.063 231.554 174.151 231.664 174.194 231.708C174.129 231.62 174.019 231.511 173.953 231.423" stroke="#787796" stroke-width="0.6" stroke-linejoin="round"/>
<path d="M179.37 217.535C178.185 217.908 177.461 219.268 177.461 220.453C177.527 222.317 178.053 224.468 179.743 225.499C180.489 225.938 181.498 225.85 182.09 225.214C182.88 224.424 183.494 222.976 182.814 221.945L182.683 221.813L182.529 221.725L182.354 221.659L182.178 221.637C182.156 221.637 181.959 221.637 181.937 221.637C181.695 221.593 181.52 221.396 181.366 221.221C181.037 220.848 180.818 220.343 180.708 219.86C180.511 219.224 180.686 218.456 180.313 217.864L180.181 217.732L180.05 217.622L179.896 217.557L179.721 217.513H179.545L179.37 217.535Z" stroke="#787796" stroke-width="0.6" stroke-linejoin="round"/>
<path d="M175.991 221.549C175.706 220.057 175.311 218.39 174.039 217.425L173.403 217.074L172.679 216.92L171.911 216.942C169.651 217.293 167.72 218.96 166.404 220.737C164.649 223.304 164.056 226.595 164.122 229.667C164.166 231.554 164.649 233.484 165.285 235.262C165.789 236.644 166.338 238.07 167.084 239.342L167.216 239.474L167.369 239.584L167.523 239.649L167.698 239.671C168.993 239.65 169.87 238.114 169.936 236.951C170.002 236.315 169.585 235.744 169.344 235.196C168.795 234.033 168.313 232.782 167.918 231.554C167.04 228.921 166.974 225.937 168.005 223.326C168.598 222.142 169.87 221.132 171.209 221.023L171.516 221.067L171.779 221.198C172.679 221.966 172.788 223.414 173.03 224.511C173.205 225.542 173.337 226.595 173.71 227.583C174.346 229.206 175.618 230.566 177.154 231.4L177.33 231.444H177.527C178.953 231.269 180.138 228.965 179.392 227.714L179.26 227.561C178.163 226.837 177.088 225.937 176.628 224.665C176.321 223.699 176.233 222.624 176.035 221.637" stroke="#787796" stroke-width="0.6" stroke-linejoin="round"/>
<path d="M175.927 221.199L175.883 221.023" stroke="#787796" stroke-width="0.6" stroke-linejoin="round"/>
<path d="M176.063 221.879C176.041 221.725 175.975 221.484 175.953 221.309L176.019 221.638" stroke="#787796" stroke-width="0.6" stroke-linejoin="round"/>
<path d="M173.141 225.17L173.251 225.784C173.185 225.433 173.097 224.885 173.031 224.512" stroke="#787796" stroke-width="0.6" stroke-linejoin="round"/>
<path d="M172.969 224.072L172.991 224.204" stroke="#787796" stroke-width="0.6" stroke-linejoin="round"/>
<path d="M171.032 199.873C168.136 201.035 165.372 202.791 163.156 204.985C162.344 205.84 161.313 206.806 160.764 207.881C160.479 208.539 160.304 209.395 160.699 210.031L160.83 210.184L160.962 210.294L161.115 210.382L161.291 210.426H161.467C162.3 210.382 162.827 209.592 163.309 209C164.099 208.1 165.065 207.179 166.008 206.455C168.685 204.436 174.301 201.606 177.57 203.098L177.768 203.12C179.238 203.01 180.401 200.684 179.72 199.412L179.611 199.258L179.479 199.127C176.824 197.876 173.643 198.863 171.032 199.873Z" stroke="#787796" stroke-width="0.6" stroke-linejoin="round"/>
<path d="M193.896 177.144C193.237 176.815 192.25 176.595 191.504 176.573L190.539 176.661C187.226 177.626 183.825 179.426 180.732 180.896C175.313 183.506 169.74 186.293 164.387 189.013C160.986 190.746 157.278 192.655 153.921 194.476C150.762 196.209 148.612 197.701 146.615 200.773C143.346 205.731 143.171 209.549 143.083 215.253C142.929 221.155 142.951 227.276 142.929 233.156C142.951 238.882 142.929 244.828 143.083 250.554C143.215 253.143 143.061 256.237 143.873 258.716C144.729 260.866 146.637 262.424 149.007 262.446L149.972 262.358C152.561 261.656 155.369 260.186 157.805 259.089C161.885 257.114 166.208 254.986 170.244 252.968C174.325 250.927 178.647 248.733 182.684 246.627C185.207 245.245 188.213 243.775 190.517 242.064C193.764 239.255 196.024 235.196 196.923 231.006C197.516 226.377 197.406 221.418 197.494 216.745C197.559 210.47 197.538 203.954 197.516 197.679C197.494 193.884 197.45 189.737 197.318 185.942C197.165 182.936 197.23 179.535 194.532 177.539C192.579 176.398 189.968 175.235 187.95 174.182C186.304 173.48 184.396 172.054 182.509 172.098L181.543 172.185C178.231 173.151 174.83 174.95 171.736 176.42C166.317 179.031 160.745 181.817 155.391 184.538C151.991 186.271 148.283 188.18 144.926 190.001C142.403 191.405 140.077 192.853 138.366 195.244C134.548 200.554 134.241 204.481 134.154 210.799C134 216.701 134.022 222.822 134 228.702C134 233.683 134.022 238.926 134.088 243.906C134.285 247.241 133.956 251.037 134.921 254.262C135.909 256.632 137.423 257.356 139.639 258.409C141.811 259.484 144.443 260.822 146.615 261.897" stroke="#787796" stroke-width="0.6" stroke-linejoin="round"/>
<path d="M403.022 184.691C402.824 185.283 402.254 187.06 402.078 187.609V188.399L402.517 188.947C413.838 194.608 425.246 200.312 436.567 205.973L437.182 205.951L437.621 205.38C437.818 204.788 438.388 203.011 438.564 202.462V201.672L438.125 201.124C426.804 195.463 415.396 189.759 404.075 184.099L403.46 184.121L403.022 184.691Z" stroke="#787796" stroke-width="0.6" stroke-linejoin="round"/>
<path d="M403.482 185.108C403.351 185.524 402.758 187.367 402.648 187.74V188.047L402.824 188.267C411.271 192.479 419.849 196.779 428.274 200.992H428.515L428.691 200.751C428.823 200.334 429.415 198.491 429.525 198.118V197.811L429.349 197.591C420.902 193.379 412.324 189.079 403.899 184.866H403.658L403.482 185.108Z" stroke="#787796" stroke-width="0.6" stroke-linejoin="round"/>
<path d="M469.9 150.114C472.488 141.996 475.143 133.747 477.732 125.629C478.566 122.931 479.619 120.188 479.882 117.358C480.167 114.374 479.531 111.171 477.754 108.714C476.416 106.805 474.309 105.664 472.269 104.677C469.132 103.097 465.731 101.408 462.594 99.8283C455.332 96.2082 447.938 92.5004 440.676 88.8803C438.548 87.7834 437.056 87.3226 434.642 87.2129C433.15 87.1471 431.527 86.8838 430.035 87.0594C425.976 87.6956 423.672 91.3595 422.466 94.9796C421.632 97.4369 420.82 100.026 420.03 102.505C412.22 126.924 404.387 151.409 396.577 175.828C392.628 188.333 388.481 200.861 384.62 213.388C383.457 217.294 383.545 221.813 385.914 225.28" stroke="#787796" stroke-width="1.2" stroke-linejoin="round"/>
<path d="M385.844 225.235C387.511 227.802 390.451 229.009 393.062 230.347C397.954 232.783 402.935 235.284 407.827 237.741" stroke="#787796" stroke-width="1.2" stroke-linejoin="round"/>
<path d="M407.834 237.742L407.022 239.168C406.781 239.409 405.399 240.879 405.201 241.098C402.086 243.314 398.202 244.916 394.824 246.693C392.366 247.922 389.426 249.392 386.969 250.62C385.96 251.103 384.161 252.024 383.261 252.683L382.362 253.78L382.055 254.942V257.136L382.362 258.299L383.261 259.396C384.007 259.967 385.784 260.91 386.662 261.305C389.119 262.534 392.059 264.004 394.516 265.232C400.989 268.479 407.658 271.814 414.131 275.039C417.202 276.575 420.625 278.286 423.696 279.822C426.219 281.007 429.51 281.314 432.253 281.007C434.227 280.809 436.663 279.822 438.396 278.857C440.151 277.979 442.543 276.794 444.276 275.917C447.413 274.337 450.945 272.582 454.083 271.002C455.004 270.542 456.562 269.423 457.418 268.874C457.966 268.282 459.261 266.922 459.787 266.351C460.16 265.671 461.082 264.069 461.455 263.411C461.652 262.709 462.135 260.91 462.31 260.23C462.31 259.55 462.288 257.685 462.288 257.049C461.586 254.021 459.919 250.906 458.624 248.097C456.101 242.656 453.469 237.018 450.945 231.577C449.212 226.969 450.046 221.572 451.648 217.031C455.882 203.823 460.138 190.527 464.373 177.342C465.667 173.283 467.093 168.873 468.388 164.814C469.199 162.181 470.34 159.11 470.801 156.389C470.801 156.082 470.823 154.02 470.823 153.778C470.779 153.537 470.362 151.453 470.318 151.277L469.814 150.158" stroke="#787796" stroke-width="1.2" stroke-linejoin="round"/>
<path d="M146.615 261.898C147.274 262.227 148.261 262.446 149.007 262.468L149.972 262.38C152.561 261.678 155.369 260.208 157.805 259.111C161.885 257.137 166.208 255.008 170.244 252.99C174.325 250.95 178.647 248.756 182.684 246.649C185.207 245.267 188.213 243.797 190.517 242.086C193.764 239.278 196.024 235.219 196.923 231.028C197.516 226.399 197.406 221.441 197.494 216.768C197.559 210.493 197.538 203.977 197.516 197.702C197.494 193.906 197.45 189.76 197.318 185.964C197.165 182.958 197.23 179.558 194.532 177.561C192.579 176.42 189.968 175.258 187.95 174.204C186.304 173.502 184.396 172.076 182.509 172.12L181.543 172.208C178.231 173.173 174.83 174.972 171.736 176.442C166.317 179.053 160.745 181.839 155.391 184.56C151.991 186.293 148.283 188.202 144.926 190.023C142.403 191.427 140.077 192.875 138.366 195.267C134.548 200.554 134.241 204.481 134.154 210.8C134 216.702 134.022 222.823 134 228.703C134 233.683 134.022 238.927 134.088 243.907C134.285 247.242 133.956 251.037 134.921 254.263C135.909 256.632 137.423 257.356 139.639 258.409C141.811 259.484 144.465 260.823 146.615 261.898Z" stroke="#787796" stroke-width="1.2" stroke-linejoin="round"/>
</svg>
