<svg width="620" height="440" viewBox="0 0 620 440" fill="none" xmlns="http://www.w3.org/2000/svg">
<path d="M237.774 292.7L240.206 293.894L241.467 294.5L243.095 295.277L244.033 295.691L245.318 296.246L246.626 296.749L247.104 296.913L248.434 297.366L249.786 297.767L251.16 298.117L252.554 298.415L253.223 298.532L253.967 298.661L255.399 298.855L255.641 298.879L257.089 299.02L258.554 299.11L260.035 299.147L261.532 299.131L263.043 299.064L264.567 298.944L264.76 298.923L266.294 298.751L267.84 298.527L269.397 298.251L270.963 297.924L272.537 297.545L272.716 297.5L274.296 297.071L275.883 296.59L277.476 296.059L279.073 295.477L280.674 294.845L280.832 294.78L282.434 294.1L284.037 293.37L285.641 292.593L287.246 291.766L288.85 290.892L290.451 289.971L292.05 289.002L292.176 288.926L293.767 287.914L295.354 286.856L296.936 285.754L298.51 284.607L300.077 283.418L301.635 282.186L303.183 280.911L304.722 279.596L306.248 278.24L307.763 276.845L307.842 276.772L309.34 275.341L310.823 273.872L312.292 272.366L313.745 270.825L315.182 269.248L316.6 267.637L318 265.994L319.381 264.317L320.742 262.61L320.764 262.582L322.081 260.873L323.399 259.107L324.694 257.313L325.966 255.491L326.623 254.519L327.214 253.645L327.774 252.788L328.437 251.773L329.634 249.878L329.694 249.779L330.805 247.96L331.949 246.021L333.065 244.062L334.153 242.084L335.211 240.089L336.24 238.076L337.239 236.049L338.206 234.007L339.143 231.953L340.047 229.887L340.242 229.422L340.919 227.811L341.351 226.736L341.757 225.725L342.561 223.631L343.332 221.531L344.068 219.426L344.769 217.317L345.435 215.204L346.065 213.09L346.658 210.976L347.215 208.863L347.735 206.752L348.217 204.645L348.662 202.543L349.069 200.446L349.439 198.357L349.77 196.277L350.062 194.206L350.316 192.147L350.328 192.041L350.543 189.99L350.72 187.952L350.857 185.929L350.956 183.922L351.014 181.932L351.034 179.961L351.014 178.009L350.956 176.079L350.857 174.17L350.72 172.285L350.706 172.139L350.529 170.274L350.314 168.434L350.059 166.622L349.765 164.836L349.432 163.08L349.062 161.353L348.653 159.657L348.61 159.493L348.162 157.826L347.677 156.192L347.154 154.592L346.594 153.027L345.997 151.498L345.926 151.329L345.292 149.834L344.621 148.377L343.915 146.958L343.174 145.579L342.398 144.24L342.299 144.073L341.488 142.774L340.642 141.516L339.763 140.301L338.851 139.129L337.908 138.001L336.932 136.919L336.767 136.74L335.76 135.701L334.721 134.709L333.652 133.763L332.554 132.864L331.428 132.014L330.273 131.211L329.855 130.927L328.673 130.173L327.464 129.468L326.57 128.966L325.333 128.31L323.736 127.474L321.321 126.245L318.438 124.796L315.549 123.359L313.117 122.165L311.856 121.559L310.228 120.782L309.29 120.368L308.005 119.813L306.697 119.309L306.219 119.145L304.889 118.693L303.537 118.291L302.163 117.942L300.769 117.644L299.356 117.398L297.924 117.204L297.682 117.18L296.234 117.039L294.769 116.949L293.288 116.912L292.801 116.917L291.791 116.927L290.28 116.995L289.56 117.052L288.757 117.115L288.563 117.136L287.029 117.307L285.483 117.531L283.927 117.807L282.36 118.135L280.786 118.514L280.607 118.558L279.027 118.988L277.44 119.469L275.848 120L274.25 120.582L272.649 121.214L272.491 121.279L270.889 121.959L269.286 122.688L267.682 123.466L266.077 124.292L264.473 125.167L262.872 126.088L261.273 127.056L261.147 127.133L259.556 128.145L257.969 129.203L256.387 130.305L254.813 131.451L253.246 132.641L251.688 133.873L250.14 135.147L248.601 136.463L247.075 137.818L245.56 139.214L245.481 139.287L243.983 140.718L242.5 142.187L241.031 143.693L239.578 145.234L238.141 146.811L236.723 148.421L235.323 150.065L233.942 151.741L232.581 153.448L231.242 155.185L229.924 156.952L228.629 158.746L227.357 160.567L226.109 162.414L224.886 164.286L223.689 166.181L222.518 168.098L221.374 170.038L220.258 171.996L219.17 173.974L218.112 175.97L217.083 177.982L216.084 180.01L215.117 182.051L214.18 184.105L213.276 186.172L212.404 188.248L211.566 190.334L210.762 192.427L209.991 194.527L209.255 196.633L208.554 198.742L207.888 200.855L207.258 202.969L206.665 205.082L206.108 207.196L205.588 209.307L205.106 211.414L204.661 213.516L204.254 215.613L203.884 217.701L203.553 219.782L203.261 221.853L203.007 223.912L202.995 224.018L202.78 226.069L202.603 228.107L202.466 230.13L202.368 232.137L202.309 234.126L202.289 236.098L202.309 238.049L202.368 239.98L202.466 241.889L202.603 243.774L202.617 243.92L202.794 245.785L203.009 247.624L203.264 249.437L203.558 251.222L203.891 252.979L204.261 254.705L204.67 256.401L204.713 256.566L205.161 258.232L205.646 259.866L206.169 261.466L206.729 263.032L207.326 264.561L207.397 264.73L207.713 265.474L208.031 266.225L208.702 267.682L209.198 268.679L209.408 269.101L210.149 270.48L210.925 271.819L211.024 271.986L211.09 272.091L211.835 273.285L212.681 274.543L213.56 275.758L214.472 276.93L215.416 278.057L216.391 279.14L216.556 279.319L217.563 280.357L218.602 281.35L219.671 282.296L220.769 283.194L221.895 284.046L223.05 284.848L223.468 285.132L224.65 285.886L225.859 286.591L226.754 287.093L227.99 287.749L229.587 288.585L232.002 289.814L234.885 291.263L237.774 292.7Z" fill="white" stroke="#787796" stroke-width="1.2" stroke-linejoin="round"/>
</svg>
