<svg width="414" height="331" viewBox="0 0 414 331" fill="none" xmlns="http://www.w3.org/2000/svg">
<path d="M1.47656 139.536L1.48044 139.525" stroke="#A7A9B2" stroke-width="0.6" stroke-linejoin="round"/>
<path d="M315.385 313.215L311.943 314.936L308.612 318.356L305.281 321.775L303.595 323.505L302.298 325.035L302.273 325.095L302.298 325.18L302.357 325.24L302.416 325.239L304.511 325.084L309.237 324.41L313.963 323.736L316.81 323.33L320.251 321.609L324.521 319.474L328.792 317.339L333.062 315.204L337.332 313.069L341.602 310.934L345.872 308.799L350.142 306.664L354.412 304.528L358.682 302.393L362.953 300.258L367.223 298.124L371.492 295.989L375.763 293.854L380.033 291.719L384.303 289.584L388.573 287.448L392.843 285.313L397.113 283.178L398.315 282.578L399.007 280.878L399.323 280.101L399.109 279.363L398.315 276.617L396.956 275.248L395.984 274.269L395.882 274.166L393.448 274.184L389.178 276.319L384.908 278.454L380.638 280.589L376.368 282.724L372.098 284.859L367.828 286.994L363.558 289.129L359.287 291.264L355.017 293.399L350.747 295.534L346.477 297.669L342.207 299.804L337.937 301.939L333.667 304.074L329.397 306.209L325.127 308.344L320.857 310.479L316.587 312.614L315.385 313.215Z" stroke="#A7A9B2" stroke-width="0.6" stroke-linejoin="round"/>
<path d="M400.093 280.34L400.195 280.444L402.628 280.426L406.899 278.291L411.232 276.124L411.923 274.425L412.094 274.005L412.24 273.649L411.232 270.164L409.027 267.943L408.901 267.816L408.798 267.713L406.365 267.731L402.095 269.866L397.762 272.033L397.07 273.732" stroke="#A7A9B2" stroke-width="0.6" stroke-linejoin="round"/>
<path d="M315.391 313.215L317.824 313.198L320.257 315.649L321.265 319.133L320.257 321.609" stroke="#A7A9B2" stroke-width="0.6" stroke-linejoin="round"/>
<path d="M397.758 272.033L400.191 272.015L402.624 274.466L403.632 277.95L402.624 280.426" stroke="#A7A9B2" stroke-width="0.6" stroke-linejoin="round"/>
<path d="M302.415 325.238L302.439 325.178L302.415 325.094L302.356 325.035L302.297 325.035" stroke="#A7A9B2" stroke-width="0.6" stroke-linejoin="round"/>
<path d="M411.92 274.425L412.771 274L413.527 272.143L412.771 269.53L410.946 267.691L409.121 267.705L408.898 267.816" stroke="#A7A9B2" stroke-width="0.6" stroke-linejoin="round"/>
<path d="M263.523 307.811L267.793 305.675L272.062 303.539L276.332 301.403L280.602 299.266L284.871 297.131L289.141 294.995L293.41 292.858L297.68 290.722L301.949 288.586L306.219 286.45L310.489 284.314L314.758 282.178L319.028 280.042L323.297 277.906L327.567 275.769L331.836 273.633L336.106 271.497L340.376 269.361L344.645 267.225L348.915 265.089L353.184 262.953L357.454 260.816L361.723 258.68L365.993 256.544L370.263 254.408L371.49 253.794L372.725 252.832L373.151 251.62L372.725 250.276L371.49 248.932L369.565 247.72L365.295 245.585L361.025 243.45L356.755 241.315L352.485 239.18L348.215 237.045L343.945 234.91L339.675 232.775L335.405 230.64L331.135 228.504L326.865 226.369L322.594 224.234L318.324 222.099L314.054 219.965L309.784 217.83L305.514 215.695L301.244 213.56L296.974 211.424L292.703 209.289L288.433 207.154L284.163 205.019L279.893 202.884L275.623 200.749L271.353 198.614L267.083 196.479L265.684 195.779" stroke="#A7A9B2" stroke-width="0.6" stroke-linejoin="round"/>
<path d="M69.9098 236.104L65.2044 236.911L60.499 237.718L55.7936 238.525L51.0882 239.332L46.3829 240.139L41.677 240.946L36.9717 241.753L32.2663 242.56L27.5609 243.367L22.8555 244.174L18.1502 244.981L13.4448 245.788L8.73939 246.595L4.03402 247.402L3.0114 247.578L1.83028 248.012L1.45312 248.748L1.91718 249.713L3.17707 250.814L5.1101 251.944L9.38009 254.079L13.6505 256.214L17.9205 258.349L22.1905 260.484L26.4605 262.619L30.7309 264.754L35.0009 266.889L39.2709 269.024L43.5413 271.159L47.8113 273.294L52.0813 275.429L56.3512 277.565L60.6217 279.7L64.8917 281.835L69.1616 283.97L73.4316 286.105L77.7021 288.24L81.972 290.375L86.242 292.51L87.6862 293.232L82.9808 294.04L80.7308 294.427L76.0254 295.235L74.0179 295.58L73.3753 295.816L73.1705 296.217L72.3317 300.471L72.5842 300.996L73.2693 301.594L74.3206 302.209L78.5905 304.344L82.861 306.479L87.131 308.614L91.4009 310.749L95.6709 312.884L99.9414 315.019L104.211 317.154L108.481 319.289L112.751 321.424L113.265 321.681L114.579 322.25L116.027 322.718L117.468 323.039L118.76 323.182L119.777 323.133L124.483 322.325L129.188 321.516L133.446 320.785L137.716 322.92L141.986 325.054L146.256 327.19L146.434 327.278L148.849 328.324L151.512 329.184L154.161 329.775L156.537 330.038L158.407 329.948L163.112 329.139L167.817 328.331L172.522 327.522L177.228 326.714L181.933 325.906L186.638 325.097L191.343 324.289L196.048 323.48L200.753 322.672L205.459 321.863L210.163 321.055L214.869 320.246L219.574 319.438L224.279 318.629L228.984 317.821L233.689 317.012L238.395 316.204L243.1 315.395L247.805 314.587L252.51 313.778L257.215 312.97L261.921 312.161L263.103 311.958L267.373 309.823L271.644 307.688L275.914 305.553L280.184 303.418L284.454 301.283L288.724 299.148L292.994 297.013L297.264 294.878L301.534 292.742L305.804 290.607L310.074 288.472L314.344 286.337L318.614 284.202L322.885 282.067L327.155 279.932L331.425 277.797L335.695 275.662L339.965 273.527L344.235 271.392L348.505 269.257L352.776 267.122L357.046 264.987L361.315 262.852L365.585 260.717L369.856 258.582L371.492 257.763L372.728 256.801L373.153 255.589V251.62" stroke="#A7A9B2" stroke-width="0.6" stroke-linejoin="round"/>
<path d="M143.715 211.474L139.445 213.611L135.176 215.746L130.906 217.882L126.637 220.018L122.367 222.155L118.098 224.291L113.828 226.427L109.558 228.563L107.3 229.692L102.595 230.499L97.8896 231.306L93.1842 232.114L88.4789 232.92L83.7735 233.728L79.0681 234.535L74.3623 235.341L70.7578 235.96" stroke="#A7A9B2" stroke-width="0.6" stroke-linejoin="round"/>
<path d="M134.281 316.531L138.551 318.666L142.822 320.801L147.092 322.936L147.269 323.025L149.685 324.071L152.347 324.931L154.997 325.522L157.372 325.785L159.242 325.695L163.948 324.888L168.653 324.081L173.359 323.274L178.064 322.467L182.77 321.66L187.475 320.853L192.18 320.046L196.886 319.239L201.591 318.433L206.296 317.625L211.002 316.818L215.708 316.012L220.413 315.205L225.118 314.397L229.824 313.591L234.529 312.784L239.235 311.977L243.94 311.17L248.645 310.363L253.351 309.556L257.033 308.924L261.738 308.118L263.523 307.812L263.1 311.958" stroke="#A7A9B2" stroke-width="0.6" stroke-linejoin="round"/>
<path d="M73.1719 296.217L73.4244 296.743L74.1095 297.341L75.1608 297.956L79.4307 300.091L83.7012 302.225L87.9712 304.361L92.2411 306.496L96.5111 308.631L100.782 310.766L105.052 312.901L109.322 315.036L113.592 317.171L114.105 317.428L115.419 317.996L116.868 318.464L118.308 318.786L119.601 318.929L120.618 318.88L125.323 318.071L130.028 317.263L134.286 316.531L133.447 320.784" stroke="#A7A9B2" stroke-width="0.6" stroke-linejoin="round"/>
<path d="M1.456 248.748L0.617188 253.001L1.08124 253.966L2.34112 255.067L4.27417 256.197L8.54414 258.332L12.8146 260.467L17.0846 262.602L21.3545 264.738L25.625 266.873L29.895 269.007L34.1649 271.142L38.4349 273.277L42.7054 275.412L46.9754 277.547L51.2453 279.682L55.5153 281.818L59.7857 283.953L64.0557 286.088L68.3257 288.223L72.5961 290.358L76.8661 292.493L80.7336 294.427" stroke="#A7A9B2" stroke-width="0.6" stroke-linejoin="round"/>
<path d="M383.162 102.438V97.6636V92.8894V88.1153V83.5809L382.84 80.9284L381.905 78.2128L380.448 75.7012L378.613 73.6383L376.579 72.2266L372.309 70.0911L368.038 67.9561L363.768 65.8211L359.498 63.6861L355.228 61.5511L350.958 59.4162L346.688 57.2812L342.418 55.1457L338.148 53.0107L333.877 50.8757L329.607 48.7407L325.337 46.6058L321.068 44.4708L316.797 42.3358L312.527 40.2003L308.257 38.0653L303.987 35.9304L299.717 33.7954L295.447 31.6604L291.177 29.5254L286.906 27.3904L282.636 25.2554L278.366 23.1199L274.096 20.985L269.826 18.85L265.556 16.715L261.286 14.58L257.015 12.445L252.746 10.31L248.476 8.17455L244.206 6.03956L239.935 3.90458L235.371 1.62255L233.337 1L231.502 1.22773L228.26 2.84806L226.804 3.90362L225.869 5.68389L225.547 8.01414V12.7883V17.5624V22.3365V27.1106V31.8848V36.6589V41.433V46.2071V50.9812V55.7554V60.5295V63.0517" stroke="#A7A9B2" stroke-width="0.6" stroke-linejoin="round"/>
<path d="M276.234 175.422L280.504 177.557L284.775 179.692L289.045 181.827L293.315 183.962L297.585 186.098L301.855 188.233L306.125 190.368L310.395 192.502L314.666 194.637L318.936 196.772L323.206 198.907L327.476 201.042L331.746 203.178L336.016 205.313L340.286 207.448L344.556 209.583L348.826 211.718L353.096 213.853L357.366 215.988L361.637 218.123L365.907 220.258L370.177 222.393L373.343 223.976L375.378 224.599L377.213 224.371L380.453 222.751L381.91 221.695L382.845 219.915L383.168 217.585V212.811V208.037V203.262V198.488V193.714V188.94V184.166V179.392V174.618V169.844V165.069V160.291" stroke="#A7A9B2" stroke-width="0.6" stroke-linejoin="round"/>
<path d="M377.219 224.371L378.675 223.315L379.611 221.536L379.932 219.205V214.431V209.657V204.882V200.108V195.334V190.56V185.786V181.012V176.238V171.464V166.69V161.915V158.67" stroke="#A7A9B2" stroke-width="0.6" stroke-linejoin="round"/>
<path d="M379.934 100.817V96.043V91.2689V86.4948V85.201L379.612 82.5485L378.677 79.8329L377.22 77.3213L375.385 75.2584L373.351 73.8467L369.08 71.7112L364.81 69.5762L360.541 67.4412L356.27 65.3062L352.001 63.1713L347.73 61.0363L343.46 58.9013L339.19 56.7663L334.92 54.6308L330.65 52.4959L326.38 50.3609L322.11 48.2259L317.839 46.0909L313.569 43.9559L309.299 41.8209L305.029 39.6854L300.759 37.5505L296.489 35.4155L292.219 33.2805L287.949 31.1455L283.679 29.0105L279.409 26.8755L275.139 24.7405L270.868 22.6051L266.598 20.4701L262.328 18.3351L258.058 16.2001L253.788 14.0651L249.518 11.9301L245.248 9.79514L240.977 7.65968L236.707 5.52469L232.143 3.24266L230.109 2.62012L228.273 2.84784" stroke="#A7A9B2" stroke-width="0.6" stroke-linejoin="round"/>
<path d="M105.929 119.081L102.806 118.693L99.3443 119.752L95.0743 121.887L90.8044 124.023L86.5339 126.158L82.2639 128.293L77.9939 130.428L73.724 132.563L69.4535 134.698L65.1835 136.833L62.299 138.275L58.8373 140.677L55.7146 144.187L53.3203 148.317L53.2368 148.462L51.6818 152.976L51.6456 153.082L51.097 157.595V162.37V167.144V171.918V176.692V181.466V186.24V191.014V193.222L51.6456 197.187L53.2368 200.216L55.7146 202.012L58.8373 202.4L62.299 201.34L66.569 199.205L70.839 197.07L75.1094 194.935L79.3794 192.8L83.6494 190.665L87.9198 188.53L92.1898 186.395L96.4598 184.26L99.3443 182.818L102.806 180.416L105.929 176.906L108.323 172.775L108.407 172.632L109.961 168.118L109.998 168.011L110.546 163.498V158.724V153.949V149.175V144.401V139.627V134.853V130.079V127.871L109.998 123.905L108.407 120.877L105.929 119.081ZM105.929 119.081L101.658 116.946L97.3883 114.811L96.2063 114.219L93.0835 113.832L89.6218 114.891L85.3518 117.026L81.0819 119.161L76.8119 121.296L72.5414 123.431L68.2715 125.567L64.0015 127.702L59.7315 129.837L55.461 131.972L52.5765 133.414L49.1153 135.816L45.9925 139.326L43.5978 143.456L43.5143 143.601L41.9598 148.115L41.9231 148.221L41.375 152.734V157.509V162.283V167.057V171.831V176.605V181.379V186.153V188.361L41.9231 192.326L43.5143 195.355L45.9925 197.151L50.2625 199.286L54.5325 201.421L55.7146 202.012" stroke="#A7A9B2" stroke-width="0.6" stroke-linejoin="round"/>
<path d="M313.891 73.7227V78.4968V83.271V88.0451V92.8192V97.5933V102.367V107.142V111.916V116.69V119.723L314.127 121.673L314.815 123.668L315.885 125.515L317.234 127.031L318.73 128.068L323 130.203L327.27 132.339L331.54 134.474L335.81 136.609L340.08 138.744L344.35 140.879L348.62 143.014L352.89 145.149L357.16 147.284L361.431 149.419L365.701 151.554L369.971 153.689L374.241 155.824L378.511 157.959L379.932 158.67L383.173 160.29L387.443 162.425L391.713 164.56L395.983 166.695L396.802 167.105L398.297 167.562L399.646 167.395L400.717 166.619L401.404 165.31L401.641 163.597V158.823V154.049V149.275V144.501V139.727V134.953V130.179V125.404V120.63V117.597L401.404 115.648L400.717 113.652L399.646 111.805L398.297 110.289L396.802 109.252L392.531 107.117L388.261 104.981L383.991 102.846L383.173 102.437L379.932 100.817L375.662 98.6818L371.392 96.5468L367.122 94.4119L362.852 92.2764L358.582 90.1414L354.312 88.0064L350.042 85.8714L345.771 83.7364L341.501 81.6014L337.231 79.4665L332.961 77.3315L328.691 75.196L324.421 73.061L320.151 70.926L318.73 70.2156L317.234 69.7578L315.885 69.9254L314.815 70.7012L314.127 72.0098L313.891 73.7227Z" stroke="#A7A9B2" stroke-width="0.6" stroke-linejoin="round"/>
<path d="M357.75 106.034V106.688L357.94 107.344L358.398 107.806L362.668 109.941L366.939 112.076L371.209 114.211L375.479 116.346L379.932 118.573L383.173 120.193L387.443 122.328L391.664 124.439L392.123 124.436L392.312 123.969V123.315L392.123 122.658L391.664 122.197L387.394 120.062L383.173 117.951L379.932 116.331L375.662 114.196L371.392 112.061L367.122 109.926L362.852 107.791L358.398 105.564L357.94 105.567L357.75 106.034Z" stroke="#A7A9B2" stroke-width="0.6" stroke-linejoin="round"/>
<path d="M334.831 95.9487L335.781 96.0709L336.769 96.4457L337.758 97.0592L338.708 97.8875L339.584 98.8987L340.352 100.054L340.982 101.31L341.45 102.617L341.738 103.925L341.836 105.184L341.738 106.346L341.45 107.366L340.982 108.204L340.352 108.83L339.584 109.217L338.708 109.353L337.758 109.231L336.769 108.856L335.781 108.243L334.831 107.414L333.955 106.403L333.187 105.247L332.557 103.992L332.089 102.685L331.801 101.377L331.703 100.117L331.801 98.9559L332.089 97.9357L332.557 97.0974L333.187 96.472L333.955 96.0843L334.831 95.9487Z" stroke="#A7A9B2" stroke-width="0.6" stroke-linejoin="round"/>
<path d="M332.405 109.625L334.54 109.9L336.76 110.742L338.98 112.12L341.115 113.981L343.082 116.252L344.807 118.848L346.222 121.668L347.274 124.604L347.921 127.542L348.05 129.113L348.065 129.291L343.794 127.156L339.524 125.021L335.254 122.886L330.984 120.751L326.714 118.616L325.445 117.981L325.461 117.819L325.598 116.38L326.245 114.089L327.297 112.205L328.712 110.801L330.437 109.93L332.405 109.625Z" stroke="#A7A9B2" stroke-width="0.6" stroke-linejoin="round"/>
<path d="M357.75 112.102V112.757L357.94 113.413L358.398 113.875L362.668 116.01L366.939 118.145L371.209 120.28L375.479 122.415L379.932 124.641L383.173 126.262L387.443 128.397L391.664 130.507L392.123 130.504L392.312 130.038V129.383L392.123 128.727L391.664 128.265L387.394 126.13L383.173 124.02L379.932 122.399L375.662 120.264L371.392 118.129L367.122 115.994L362.852 113.859L358.398 111.632L357.94 111.636L357.75 112.102Z" stroke="#A7A9B2" stroke-width="0.6" stroke-linejoin="round"/>
<path d="M357.75 118.171V118.826L357.94 119.482L358.398 119.944L362.668 122.079L366.939 124.214L371.209 126.349L375.479 128.484L379.932 130.711L383.173 132.331L387.443 134.466L391.664 136.577L392.123 136.573L392.312 136.107V135.452L392.123 134.796L391.664 134.334L387.394 132.199L383.173 130.089L379.932 128.468L375.662 126.333L371.392 124.198L367.122 122.063L362.852 119.928L358.398 117.702L357.94 117.705L357.75 118.171Z" stroke="#A7A9B2" stroke-width="0.6" stroke-linejoin="round"/>
<path d="M348.054 129.113L348.37 129.271L348.804 129.404L349.196 129.355L349.507 129.13L349.706 128.75L349.775 128.253V123.479V118.705V113.931V109.157V104.383V100.021L349.706 99.455L349.507 98.8754L349.196 98.3398L348.804 97.8996L348.37 97.5984L344.1 95.4634L339.83 93.3284L335.56 91.1934L331.29 89.0584L327.02 86.9234L325.319 86.0727L324.885 85.9399L324.493 85.9882L324.182 86.2135L323.983 86.5935L323.914 87.0905V91.8646V96.6387V101.413V106.187V110.961V115.323L323.983 115.889L324.182 116.468L324.493 117.004L324.885 117.444L325.319 117.746L325.465 117.819" stroke="#A7A9B2" stroke-width="0.6" stroke-linejoin="round"/>
<path d="M372.422 133.003V137.777V139.964L372.612 140.62L373.07 141.082L377.34 143.217L379.933 144.513L383.174 146.134L387.444 148.269L391.471 150.282L391.929 150.279L392.119 149.813V145.039V142.852L391.929 142.195L391.471 141.733L387.201 139.598L383.174 137.585L379.933 135.965L375.663 133.829L373.07 132.533L372.612 132.537L372.422 133.003Z" stroke="#A7A9B2" stroke-width="0.6" stroke-linejoin="round"/>
<path d="M24.2275 253.291L28.4975 255.426L32.7674 257.561L37.0374 259.697L41.3079 261.832L45.5779 263.967L49.8478 266.102L54.1178 268.237L58.3883 270.372L62.6582 272.507L66.9282 274.642L71.1982 276.777L75.4687 278.913L79.7386 281.048L84.0086 283.183L88.2786 285.318L92.549 287.453L96.819 289.588L101.089 291.723L105.359 293.858L109.629 295.993L113.899 298.128L118.169 300.264L122.439 302.399L126.709 304.534L130.98 306.669L135.25 308.804L139.52 310.939L143.79 313.074L148.06 315.209L152.33 317.344L154.822 318.59L156.092 319.087L157.577 319.439L159.053 319.591L160.293 319.52L164.998 318.711L169.703 317.903L174.408 317.094L179.114 316.286L183.819 315.477L188.524 314.669L193.229 313.86L197.934 313.052L202.639 312.243L207.345 311.435L212.05 310.626L216.755 309.818L221.46 309.009L226.165 308.201L230.871 307.392L235.575 306.584L240.281 305.775L245.08 304.951L245.897 304.668L246.165 304.217L245.846 303.665L244.985 303.098L240.715 300.962L236.445 298.827L232.175 296.692L227.905 294.557L223.634 292.422L219.364 290.287L215.095 288.152L210.825 286.017L206.554 283.882L202.284 281.747L198.014 279.611L193.744 277.476L189.474 275.341L185.204 273.206L180.934 271.071L176.664 268.936L172.394 266.801L168.123 264.666L163.853 262.531L159.583 260.395L155.313 258.26L151.043 256.125L146.773 253.99L142.503 251.855L138.233 249.72L133.963 247.585L129.693 245.45L125.423 243.315L121.153 241.18L116.883 239.045L114.391 237.799L113.121 237.302L111.635 236.95L110.16 236.798L108.919 236.869L104.215 237.678L99.5092 238.486L94.8038 239.295L90.0989 240.103L85.3936 240.912L80.6887 241.72L75.9833 242.529L71.2784 243.337L66.573 244.146L61.8676 244.954L57.1627 245.763L52.4574 246.571L47.7525 247.38L43.0471 248.188L38.3422 248.997L33.6368 249.805L28.9319 250.614L24.1325 251.438L23.3157 251.721L23.0469 252.172L23.3672 252.724L24.2275 253.291Z" stroke="#A7A9B2" stroke-width="0.6" stroke-linejoin="round"/>
<path d="M313.828 142.4V147.174V151.948V156.722V161.497V166.271V171.045V175.932L313.968 177.178L314.376 178.443L315.01 179.603L315.809 180.543L316.695 181.173L320.965 183.308L325.235 185.443L329.506 187.578L333.776 189.713L338.046 191.848L342.316 193.983L346.586 196.118L350.856 198.253L355.126 200.388L359.396 202.523L361.17 203.41L362.056 203.666L362.855 203.526L363.49 203L363.897 202.142L364.037 201.036V196.262V191.488V186.714V181.94V177.166V172.392V167.505L363.897 166.258L363.49 164.993L362.855 163.833L362.056 162.893L361.17 162.264L356.9 160.129L352.63 157.994L348.36 155.859L344.09 153.724L339.819 151.588L335.549 149.453L331.279 147.318L327.009 145.183L322.739 143.048L318.469 140.913L316.695 140.026L315.809 139.77L315.01 139.911L314.376 140.436L313.968 141.294L313.828 142.4Z" stroke="#A7A9B2" stroke-width="0.6" stroke-linejoin="round"/>
<path d="M320.894 169.841L320.838 169.8L320.781 169.698" stroke="#A7A9B2" stroke-width="0.6" stroke-linejoin="round"/>
<path d="M320.787 169.599L320.737 169.696L320.695 169.772L320.662 169.831L320.635 169.879L320.614 169.928L320.602 170.028V170.086L320.641 170.194L320.706 170.253L320.768 170.299L320.817 170.32L320.852 170.332L320.887 170.345L320.939 170.369L322.309 170.877L323.758 171.1L325.25 171.063L325.352 171.05L326.864 170.784L327.544 170.573" stroke="#A7A9B2" stroke-width="0.6" stroke-linejoin="round"/>
<path d="M320.781 169.599L320.85 169.529L320.963 169.508L321.088 169.541L321.194 169.619L321.251 169.721L321.243 169.82" stroke="#A7A9B2" stroke-width="0.6" stroke-linejoin="round"/>
<path d="M321.177 169.89L321.133 169.898" stroke="#A7A9B2" stroke-width="0.6" stroke-linejoin="round"/>
<path d="M321.142 169.898L321.073 169.911L321.062 169.908" stroke="#A7A9B2" stroke-width="0.6" stroke-linejoin="round"/>
<path d="M321.043 169.86L320.994 169.841L320.962 169.831L320.891 169.842" stroke="#A7A9B2" stroke-width="0.6" stroke-linejoin="round"/>
<path d="M325.262 170.559L323.833 170.595L322.429 170.379L321.195 169.92" stroke="#A7A9B2" stroke-width="0.6" stroke-linejoin="round"/>
<path d="M327.591 170.025L326.671 170.31L325.258 170.559" stroke="#A7A9B2" stroke-width="0.6" stroke-linejoin="round"/>
<path d="M334.558 165.573L333.537 166.564L332.328 167.547L331.01 168.441L329.609 169.217L328.154 169.85L328.109 169.864" stroke="#A7A9B2" stroke-width="0.6" stroke-linejoin="round"/>
<path d="M328.059 170.412L328.367 170.317L329.84 169.676L331.256 168.891L332.588 167.988L333.812 166.994L334.9 165.937L334.971 165.864L335.897 164.771L336.636 163.669L337.065 162.81L337.348 161.98L337.493 161.191L337.504 160.453L337.504 160.396L337.388 159.745L337.146 159.179L336.787 158.731L336.743 158.698L336.264 158.378L335.711 158.226L335.092 158.245L334.991 158.258L334.306 158.455L333.562 158.844L332.181 159.971L332.109 160.045L330.851 161.547L329.745 163.338L328.822 165.33L328.108 167.438L327.636 169.576L327.594 170.025" stroke="#A7A9B2" stroke-width="0.6" stroke-linejoin="round"/>
<path d="M337.012 160.483L337.002 161.083L336.866 161.816L336.597 162.607L336.182 163.437L335.458 164.518L334.562 165.573" stroke="#A7A9B2" stroke-width="0.6" stroke-linejoin="round"/>
<path d="M336.414 159.073L336.702 159.434L336.904 159.907L337.006 160.484" stroke="#A7A9B2" stroke-width="0.6" stroke-linejoin="round"/>
<path d="M335.125 158.746L335.624 158.73L336.093 158.857L336.42 159.073" stroke="#A7A9B2" stroke-width="0.6" stroke-linejoin="round"/>
<path d="M332.484 160.366L333.803 159.291L334.512 158.92L335.114 158.746" stroke="#A7A9B2" stroke-width="0.6" stroke-linejoin="round"/>
<path d="M328.109 169.864L328.124 169.707L328.588 167.607L329.291 165.529L330.203 163.563L331.293 161.798L332.491 160.367" stroke="#A7A9B2" stroke-width="0.6" stroke-linejoin="round"/>
<path d="M327.542 170.573L327.438 171.663V171.731L327.543 173.668L327.99 175.387L328.819 176.792L330.048 177.769L330.112 177.816L331.777 178.279L332.52 178.185L332.623 178.172L333.433 177.811L334.295 177.252L335.2 176.559L336.133 175.793L337.077 175.016L338.018 174.289L338.937 173.677L339.815 173.24L340.56 173.055" stroke="#A7A9B2" stroke-width="0.6" stroke-linejoin="round"/>
<path d="M330.313 177.347L329.223 176.484L328.459 175.185L328.037 173.553L327.938 171.713" stroke="#A7A9B2" stroke-width="0.6" stroke-linejoin="round"/>
<path d="M332.424 177.7L331.851 177.774L330.305 177.348" stroke="#A7A9B2" stroke-width="0.6" stroke-linejoin="round"/>
<path d="M345.441 182.299L344.702 181.753L344.028 180.954L343.494 179.913L343.117 178.592L343.067 178.253L343.033 177.841L343.008 177.377L342.988 176.875L342.967 176.35L342.938 175.817L342.895 175.289L342.833 174.78L342.742 174.302L342.616 173.865L342.444 173.483L342.212 173.172L342.169 173.141L341.406 172.644L340.579 172.545L340.478 172.559L339.606 172.773L338.698 173.224L337.763 173.847L336.814 174.579L335.867 175.358L334.937 176.122L334.041 176.809L333.198 177.355L332.43 177.7" stroke="#A7A9B2" stroke-width="0.6" stroke-linejoin="round"/>
<path d="M340.523 173.051L340.556 173.055" stroke="#A7A9B2" stroke-width="0.6" stroke-linejoin="round"/>
<path d="M340.555 173.054L341.248 173.132L341.833 173.51" stroke="#A7A9B2" stroke-width="0.6" stroke-linejoin="round"/>
<path d="M341.828 173.504L341.833 173.511" stroke="#A7A9B2" stroke-width="0.6" stroke-linejoin="round"/>
<path d="M341.836 173.51L342.001 173.734L342.142 174.05L342.254 174.442L342.339 174.892L342.399 175.385L342.441 175.902L342.47 176.429L342.491 176.951L342.511 177.456L342.536 177.927L342.572 178.353L342.627 178.725L343.023 180.108L343.597 181.224L344.324 182.086L345.173 182.715L345.234 182.761L346.191 183.191L347.219 183.445L348.298 183.554L349.408 183.546L350.529 183.449L350.631 183.436L351.742 183.277L352.821 183.083L353.846 182.88" stroke="#A7A9B2" stroke-width="0.6" stroke-linejoin="round"/>
<path d="M350.547 182.947L349.46 183.041L348.369 183.048L347.318 182.943L346.333 182.7L345.438 182.299" stroke="#A7A9B2" stroke-width="0.6" stroke-linejoin="round"/>
<path d="M353.673 182.406L352.65 182.608L351.576 182.801L350.555 182.947" stroke="#A7A9B2" stroke-width="0.6" stroke-linejoin="round"/>
<path d="M353.645 182.84L353.575 182.733L353.555 182.603L353.588 182.482L353.667 182.405L353.769 182.392L353.869 182.446L353.938 182.552L353.959 182.683L353.925 182.804L353.846 182.88" stroke="#A7A9B2" stroke-width="0.6" stroke-linejoin="round"/>
<path d="M320.787 169.599L320.737 169.696L320.695 169.772L320.662 169.831L320.635 169.879L320.614 169.928L320.602 170.028V170.086L320.641 170.194L320.706 170.253L320.768 170.299L320.817 170.32L320.852 170.332L320.887 170.345L320.939 170.369L322.309 170.877L323.758 171.1L325.25 171.063L325.352 171.05L326.864 170.784L327.544 170.573" stroke="#A7A9B2" stroke-width="0.6" stroke-linejoin="round"/>
<path d="M320.781 169.698L320.788 169.599L320.857 169.529L320.969 169.508L321.095 169.541L321.2 169.619L321.257 169.721L321.25 169.82L321.181 169.89" stroke="#A7A9B2" stroke-width="0.6" stroke-linejoin="round"/>
<path d="M320.94 169.878L320.891 169.841" stroke="#A7A9B2" stroke-width="0.6" stroke-linejoin="round"/>
<path d="M320.962 169.831L320.891 169.842" stroke="#A7A9B2" stroke-width="0.6" stroke-linejoin="round"/>
<path d="M321.138 169.898L321.099 169.884L321.047 169.86" stroke="#A7A9B2" stroke-width="0.6" stroke-linejoin="round"/>
<path d="M325.262 170.559L323.833 170.595L322.429 170.379L321.195 169.92" stroke="#A7A9B2" stroke-width="0.6" stroke-linejoin="round"/>
<path d="M327.591 170.025L326.671 170.31L325.258 170.559" stroke="#A7A9B2" stroke-width="0.6" stroke-linejoin="round"/>
<path d="M334.558 165.573L333.537 166.564L332.328 167.547L331.01 168.441L329.609 169.217L328.154 169.85L328.109 169.864" stroke="#A7A9B2" stroke-width="0.6" stroke-linejoin="round"/>
<path d="M328.059 170.412L328.367 170.317L329.84 169.676L331.256 168.891L332.588 167.988L333.812 166.994L334.9 165.937L334.971 165.864L335.897 164.771L336.636 163.669L337.065 162.81L337.348 161.98L337.493 161.191L337.504 160.453L337.504 160.396L337.388 159.745L337.146 159.179L336.787 158.731L336.743 158.698L336.264 158.378L335.711 158.226L335.092 158.245L334.991 158.258L334.306 158.455L333.562 158.844L332.181 159.971L332.109 160.045L330.851 161.547L329.745 163.338L328.822 165.33L328.108 167.438L327.636 169.576L327.594 170.025" stroke="#A7A9B2" stroke-width="0.6" stroke-linejoin="round"/>
<path d="M337.012 160.483L337.002 161.083L336.866 161.816L336.597 162.607L336.182 163.437L335.458 164.518L334.562 165.573" stroke="#A7A9B2" stroke-width="0.6" stroke-linejoin="round"/>
<path d="M336.414 159.073L336.702 159.434L336.904 159.907L337.006 160.484" stroke="#A7A9B2" stroke-width="0.6" stroke-linejoin="round"/>
<path d="M336.414 159.066L336.419 159.073" stroke="#A7A9B2" stroke-width="0.6" stroke-linejoin="round"/>
<path d="M335.125 158.746L335.624 158.73L336.093 158.857L336.42 159.073" stroke="#A7A9B2" stroke-width="0.6" stroke-linejoin="round"/>
<path d="M335.055 158.748L335.118 158.746" stroke="#A7A9B2" stroke-width="0.6" stroke-linejoin="round"/>
<path d="M332.484 160.366L333.803 159.291L334.512 158.92L335.114 158.746" stroke="#A7A9B2" stroke-width="0.6" stroke-linejoin="round"/>
<path d="M332.453 160.393L332.485 160.367" stroke="#A7A9B2" stroke-width="0.6" stroke-linejoin="round"/>
<path d="M328.109 169.864L328.124 169.707L328.588 167.607L329.291 165.529L330.203 163.563L331.293 161.798L332.491 160.367" stroke="#A7A9B2" stroke-width="0.6" stroke-linejoin="round"/>
<path d="M327.542 170.573L327.438 171.663V171.731L327.543 173.668L327.99 175.387L328.819 176.792L330.048 177.769L330.112 177.816L331.777 178.279L332.52 178.185L332.623 178.172L333.433 177.811L334.295 177.252L335.2 176.559L336.133 175.793L337.077 175.016L338.018 174.289L338.937 173.677L339.815 173.24L340.56 173.055" stroke="#A7A9B2" stroke-width="0.6" stroke-linejoin="round"/>
<path d="M327.938 171.736L327.94 171.713" stroke="#A7A9B2" stroke-width="0.6" stroke-linejoin="round"/>
<path d="M330.313 177.347L329.223 176.484L328.459 175.185L328.037 173.553L327.938 171.713" stroke="#A7A9B2" stroke-width="0.6" stroke-linejoin="round"/>
<path d="M332.424 177.7L331.851 177.774L330.305 177.348" stroke="#A7A9B2" stroke-width="0.6" stroke-linejoin="round"/>
<path d="M345.441 182.299L344.702 181.753L344.028 180.954L343.494 179.913L343.117 178.592L343.067 178.253L343.033 177.841L343.008 177.377L342.988 176.875L342.967 176.35L342.938 175.817L342.895 175.289L342.833 174.78L342.742 174.302L342.616 173.865L342.444 173.483L342.212 173.172L342.169 173.141L341.406 172.644L340.579 172.545L340.478 172.559L339.606 172.773L338.698 173.224L337.763 173.847L336.814 174.579L335.867 175.358L334.937 176.122L334.041 176.809L333.198 177.355L332.43 177.7" stroke="#A7A9B2" stroke-width="0.6" stroke-linejoin="round"/>
<path d="M340.555 173.054L341.248 173.132L341.833 173.51" stroke="#A7A9B2" stroke-width="0.6" stroke-linejoin="round"/>
<path d="M341.836 173.51L342.001 173.734L342.142 174.05L342.254 174.442L342.339 174.892L342.399 175.385L342.441 175.902L342.47 176.429L342.491 176.951L342.511 177.456L342.536 177.927L342.572 178.353L342.627 178.725L343.023 180.108L343.597 181.224L344.324 182.086L345.173 182.715L345.234 182.761L346.191 183.191L347.219 183.445L348.298 183.554L349.408 183.546L350.529 183.449L350.631 183.436L351.742 183.277L352.821 183.083L353.846 182.88" stroke="#A7A9B2" stroke-width="0.6" stroke-linejoin="round"/>
<path d="M345.439 182.299L344.656 181.721" stroke="#A7A9B2" stroke-width="0.6" stroke-linejoin="round"/>
<path d="M350.547 182.947L349.46 183.041L348.369 183.048L347.318 182.943L346.333 182.7L345.438 182.299" stroke="#A7A9B2" stroke-width="0.6" stroke-linejoin="round"/>
<path d="M353.673 182.406L352.65 182.608L351.576 182.801L350.555 182.947" stroke="#A7A9B2" stroke-width="0.6" stroke-linejoin="round"/>
<path d="M353.67 182.405L353.773 182.392L353.872 182.446L353.942 182.552L353.962 182.683L353.929 182.804L353.85 182.88L353.747 182.894L353.648 182.84" stroke="#A7A9B2" stroke-width="0.6" stroke-linejoin="round"/>
<path d="M24.2275 253.291L28.4975 255.426L32.7674 257.561L37.0374 259.697L41.3079 261.832L45.5779 263.967L49.8478 266.102L54.1178 268.237L58.3883 270.372L62.6582 272.507L66.9282 274.642L71.1982 276.777L75.4687 278.913L79.7386 281.048L84.0086 283.183L88.2786 285.318L92.549 287.453L96.819 289.588L101.089 291.723L105.359 293.858L109.629 295.993L113.899 298.128L118.169 300.264L122.439 302.399L126.709 304.534L130.98 306.669L135.25 308.804L139.52 310.939L143.79 313.074L148.06 315.209L152.33 317.344L154.822 318.59L156.092 319.087L157.577 319.439L159.053 319.591L160.293 319.52L164.998 318.711L169.703 317.903L174.408 317.094L179.114 316.286L183.819 315.477L188.524 314.669L193.229 313.86L197.934 313.052L202.639 312.243L207.345 311.435L212.05 310.626L216.755 309.818L221.46 309.009L226.165 308.201L230.871 307.392L235.575 306.584L240.281 305.775L245.08 304.951L245.897 304.668L246.165 304.217L245.846 303.665L244.985 303.098L240.715 300.962L236.445 298.827L232.175 296.692L227.905 294.557L223.634 292.422L219.364 290.287L215.095 288.152L210.825 286.017L206.554 283.882L202.284 281.747L198.014 279.611L193.744 277.476L189.474 275.341L185.204 273.206L180.934 271.071L176.664 268.936L172.394 266.801L168.123 264.666L163.853 262.531L159.583 260.395L155.313 258.26L151.043 256.125L146.773 253.99L142.503 251.855L138.233 249.72L133.963 247.585L129.693 245.45L125.423 243.315L121.153 241.18L116.883 239.045L114.391 237.799L113.121 237.302L111.635 236.95L110.16 236.798L108.919 236.869L104.215 237.678L99.5092 238.486L94.8038 239.295L90.0989 240.103L85.3936 240.912L80.6887 241.72L75.9833 242.529L71.2784 243.337L66.573 244.146L61.8676 244.954L57.1627 245.763L52.4574 246.571L47.7525 247.38L43.0471 248.188L38.3422 248.997L33.6368 249.805L28.9319 250.614L24.1325 251.438L23.3157 251.721L23.0469 252.172L23.3672 252.724L24.2275 253.291Z" stroke="#A7A9B2" stroke-width="0.6" stroke-linejoin="round"/>
<path d="M80.5585 251.99L81.1529 252.288L82.1101 252.583L83.0535 252.611L87.7589 251.802L92.4642 250.994L97.1692 250.185L101.875 249.377L106.579 248.568L111.285 247.76L115.99 246.951L117.571 246.68L117.948 246.425L117.538 246.036L116.944 245.739L115.986 245.444L115.043 245.416L110.338 246.224L105.632 247.033L100.927 247.841L96.222 248.65L91.5171 249.458L86.8117 250.267L82.1068 251.075L80.5256 251.347L80.1484 251.602L80.5585 251.99Z" stroke="#A7A9B2" stroke-width="0.6" stroke-linejoin="round"/>
<path d="M86.8789 255.151L87.4732 255.449L88.4304 255.743L89.3743 255.771L94.0792 254.963L98.7846 254.154L103.489 253.346L108.195 252.537L112.9 251.729L117.605 250.92L122.31 250.112L123.891 249.84L124.268 249.585L123.858 249.196L123.264 248.899L122.307 248.604L121.363 248.576L116.658 249.384L111.953 250.193L107.248 251.001L102.542 251.81L97.8374 252.618L93.132 253.427L88.4271 254.235L86.8459 254.507L86.4688 254.762L86.8789 255.151Z" stroke="#A7A9B2" stroke-width="0.6" stroke-linejoin="round"/>
<path d="M93.1914 258.311L93.7862 258.608L94.7434 258.903L95.6868 258.931L100.392 258.123L105.097 257.314L109.802 256.506L114.507 255.697L119.213 254.889L123.918 254.08L128.623 253.272L130.204 253L130.581 252.745L130.171 252.356L129.576 252.059L128.619 251.764L127.676 251.736L122.97 252.545L118.266 253.353L113.56 254.162L108.855 254.97L104.15 255.779L99.445 256.587L94.7396 257.396L93.1584 257.667L92.7812 257.922L93.1914 258.311Z" stroke="#A7A9B2" stroke-width="0.6" stroke-linejoin="round"/>
<path d="M99.5273 261.471L100.122 261.769L101.079 262.064L102.022 262.092L106.728 261.283L111.433 260.475L116.138 259.666L120.843 258.858L125.548 258.049L130.254 257.241L134.958 256.432L136.54 256.161L136.917 255.906L136.507 255.517L135.912 255.22L134.955 254.925L134.011 254.896L129.306 255.705L124.601 256.513L119.896 257.322L115.191 258.13L110.485 258.939L105.78 259.747L101.075 260.556L99.4944 260.828L99.1172 261.083L99.5273 261.471Z" stroke="#A7A9B2" stroke-width="0.6" stroke-linejoin="round"/>
<path d="M48.0741 256.482L52.3441 258.617L56.6146 260.751L60.8845 262.886L65.1545 265.022L69.425 267.157L71.0529 267.971L72.0102 268.265L72.9535 268.294L77.6584 267.485L82.3638 266.677L87.0692 265.868L91.7741 265.06L95.5265 264.415L95.9037 264.16L95.4936 263.771L91.2236 261.636L86.9537 259.501L82.6832 257.366L78.4132 255.231L74.1432 253.096L72.5153 252.282L71.558 251.987L70.6147 251.959L65.9093 252.767L61.2039 253.576L56.499 254.384L51.7937 255.193L48.0412 255.837L47.6641 256.093L48.0741 256.482Z" stroke="#A7A9B2" stroke-width="0.6" stroke-linejoin="round"/>
<path d="M196.9 290.533L194.896 290.753L193.264 291.158L192.065 291.732L191.345 292.455L191.133 293.298L191.435 294.228L192.242 295.21L193.522 296.206L195.225 297.178L197.287 298.088L199.627 298.902L202.156 299.588L204.777 300.12L207.389 300.477L209.892 300.646L212.189 300.62L214.192 300.4L215.825 299.995L217.024 299.421L217.744 298.698L217.956 297.855L217.653 296.925L216.846 295.943L215.567 294.947L213.864 293.975L211.802 293.065L209.462 292.251L206.933 291.565L204.312 291.033L201.7 290.676L199.197 290.507L196.9 290.533Z" stroke="#A7A9B2" stroke-width="0.6" stroke-linejoin="round"/>
<path d="M243.572 271.459L244.167 271.756L245.134 271.956L246.1 271.756L250.371 269.621L254.641 267.486L258.911 265.351L263.181 263.216L267.451 261.081L271.721 258.946L275.991 256.811L280.261 254.676L284.532 252.541L288.801 250.406L293.071 248.271L297.341 246.136L301.612 244.001L305.882 241.866L306.954 241.329L307.354 240.846L306.954 240.363L306.359 240.065L305.392 239.865L304.425 240.065L300.155 242.201L295.885 244.336L291.615 246.471L287.345 248.606L283.075 250.741L278.804 252.876L274.535 255.011L270.265 257.146L265.995 259.281L261.724 261.416L257.454 263.551L253.184 265.686L248.914 267.821L244.644 269.956L243.572 270.492L243.172 270.975L243.572 271.459Z" stroke="#A7A9B2" stroke-width="0.6" stroke-linejoin="round"/>
<path d="M249.893 274.62L250.487 274.917L251.454 275.117L252.421 274.917L256.691 272.782L260.961 270.647L265.231 268.512L269.502 266.377L273.771 264.242L278.041 262.107L282.311 259.972L286.582 257.837L290.852 255.702L295.122 253.567L299.392 251.432L301.787 250.234L302.188 249.751L301.787 249.267L301.193 248.97L300.225 248.77L299.259 248.97L294.989 251.105L290.719 253.24L286.448 255.375L282.178 257.51L277.908 259.645L273.638 261.78L269.368 263.915L265.098 266.05L260.828 268.185L256.558 270.32L252.287 272.455L249.893 273.653L249.492 274.136L249.893 274.62Z" stroke="#A7A9B2" stroke-width="0.6" stroke-linejoin="round"/>
<path d="M256.213 277.78L256.808 278.077L257.775 278.277L258.741 278.077L263.011 275.942L267.281 273.807L271.552 271.672L275.822 269.537L280.092 267.402L284.362 265.267L288.632 263.132L292.902 260.997L297.172 258.862L301.442 256.726L305.713 254.591L309.983 252.456L313.468 250.714L313.868 250.23L313.468 249.747L312.873 249.45L311.907 249.25L310.94 249.45L306.67 251.585L302.399 253.72L298.129 255.854L293.859 257.99L289.589 260.125L285.319 262.26L281.049 264.395L276.779 266.53L272.509 268.665L268.239 270.8L263.969 272.935L259.699 275.07L256.213 276.813L255.812 277.297L256.213 277.78Z" stroke="#A7A9B2" stroke-width="0.6" stroke-linejoin="round"/>
<path d="M189.219 244.532L193.489 246.667L197.759 248.802L202.029 250.937L206.3 253.072L210.57 255.207L214.84 257.342L219.11 259.478L223.38 261.613L227.65 263.748L231.92 265.883L233.543 266.694L234.509 266.894L235.477 266.694L239.747 264.559L244.017 262.424L248.287 260.289L252.557 258.154L256.827 256.019L261.097 253.884L265.367 251.749L269.637 249.613L273.907 247.478L278.177 245.343L282.447 243.208L286.718 241.073L290.988 238.938L295.258 236.803L299.528 234.668L303.263 232.801L303.663 232.318L303.263 231.834L298.992 229.699L294.722 227.564L290.452 225.429L286.182 223.294L281.912 221.159L277.642 219.024L273.372 216.889L269.101 214.754L264.831 212.619L260.561 210.484L256.76 208.583" stroke="#A7A9B2" stroke-width="0.6" stroke-linejoin="round"/>
<path d="M147.087 218.091L142.816 220.226L138.546 222.361L134.276 224.496L131.864 225.703L131.011 226.341L130.711 227.094L131.011 227.847L131.864 228.485L136.134 230.62L140.404 232.755L144.674 234.89L148.944 237.026L153.214 239.161L157.484 241.296L161.755 243.431L166.025 245.566L170.295 247.701L174.565 249.836L178.835 251.971L183.105 254.106L187.375 256.241L191.645 258.377L195.915 260.512L200.185 262.647L204.455 264.782L208.725 266.917L212.995 269.052L217.266 271.187L221.536 273.322L225.806 275.457L230.076 277.592L234.346 279.727L238.616 281.862L242.886 283.997L247.156 286.132L251.427 288.267L255.696 290.403L259.966 292.538L262.459 293.784L263.736 294.21L265.241 294.36L266.748 294.21L268.025 293.784L272.295 291.649L276.565 289.514L280.835 287.379L285.105 285.243L289.375 283.109L293.645 280.974L297.915 278.839L302.185 276.704L306.455 274.569L310.725 272.434L314.995 270.298L319.266 268.163L323.536 266.028L327.806 263.893L332.076 261.758L336.346 259.623L340.616 257.488L344.886 255.353L349.157 253.218L353.427 251.083L355.802 249.895L356.655 249.257L356.955 248.503L356.655 247.75L355.802 247.112L351.532 244.977L347.262 242.842L342.992 240.707L338.722 238.572L334.452 236.437L330.182 234.302L325.912 232.166L321.641 230.031L317.371 227.896L313.101 225.761L308.831 223.626L304.561 221.491L300.291 219.356L296.021 217.221L291.751 215.086L287.481 212.951L283.211 210.815L278.941 208.68L274.671 206.545L270.4 204.41L266.13 202.275L262.619 200.52" stroke="#A7A9B2" stroke-width="0.6" stroke-linejoin="round"/>
<path d="M76.8934 167.577L73.0273 164.776L70.7758 163.145L68.3811 167.275L65.9864 171.405L65.5625 172.136L69.4281 174.938L71.6786 176.568L75.5442 179.369L76.8915 180.346L79.2867 176.216L81.6823 172.086L82.1067 171.354L84.5014 167.224L86.8966 163.094L89.2913 158.964L91.686 154.834L94.0807 150.704L96.4754 146.574L98.9794 142.255L95.1134 139.454L93.7661 138.478L91.3709 142.608L88.9762 146.738L86.5815 150.868L84.1868 154.998L81.7921 159.128L79.3974 163.258L76.8934 167.577Z" stroke="#A7A9B2" stroke-width="0.6" stroke-linejoin="round"/>
<path d="M240.058 17.2704L239.282 16.9758L238.535 16.8799L237.847 16.9863L237.244 17.2909L236.749 17.7822L236.381 18.441L236.154 19.2421L236.078 20.1549L236.154 21.1441L236.381 22.172L236.749 23.1984L237.244 24.1848L237.847 25.0923L238.535 25.8867L239.282 26.5375L240.058 27.0196L240.835 27.3142L241.581 27.4102L242.27 27.3037L242.873 26.9991L243.368 26.5079L243.735 25.849L243.962 25.0479L244.038 24.1351L243.962 23.1459L243.735 22.118L243.368 21.0916L242.873 20.1053L242.27 19.1972L241.581 18.4028L240.835 17.7521L240.058 17.2704Z" stroke="#A7A9B2" stroke-width="0.6" stroke-linejoin="round"/>
<path d="M251.043 22.767L250.266 22.4724L249.519 22.3765L248.831 22.4829L248.228 22.7875L247.733 23.2788L247.365 23.9376L247.139 24.7387L247.062 25.6515L247.139 26.6407L247.365 27.6686L247.733 28.695L248.228 29.6813L248.831 30.5894L249.519 31.3838L250.266 32.0345L251.043 32.5162L251.819 32.8108L252.566 32.9067L253.254 32.8003L253.857 32.4957L254.352 32.0044L254.72 31.3456L254.946 30.5445L255.022 29.6317L254.946 28.6425L254.72 27.6146L254.352 26.5882L253.857 25.6019L253.254 24.6943L252.566 23.8994L251.819 23.2487L251.043 22.767Z" stroke="#A7A9B2" stroke-width="0.6" stroke-linejoin="round"/>
<path d="M262.043 28.2641L261.266 27.9695L260.52 27.8735L259.831 27.98L259.228 28.2846L258.733 28.7758L258.366 29.4347L258.139 30.2358L258.062 31.1486L258.139 32.1378L258.366 33.1656L258.733 34.1926L259.228 35.1784L259.831 36.0865L260.52 36.8809L261.266 37.5316L262.043 38.0133L262.819 38.3083L263.566 38.4038L264.254 38.2978L264.857 37.9928L265.352 37.502L265.72 36.8427L265.946 36.0416L266.023 35.1288L265.946 34.1396L265.72 33.1122L265.352 32.0853L264.857 31.0989L264.254 30.1914L263.566 29.397L262.819 28.7462L262.043 28.2641Z" stroke="#A7A9B2" stroke-width="0.6" stroke-linejoin="round"/>
<path d="M173.774 238.7L176.206 239.894L177.467 240.5L179.095 241.277L180.033 241.691L181.318 242.246L182.626 242.749L183.104 242.913L184.434 243.366L185.786 243.767L187.16 244.117L188.554 244.415L189.223 244.532L189.967 244.661L191.399 244.855L191.641 244.879L193.089 245.02L194.554 245.11L196.035 245.147L197.532 245.131L199.043 245.064L200.567 244.944L200.76 244.923L202.294 244.751L203.84 244.527L205.397 244.251L206.963 243.924L208.537 243.545L208.716 243.5L210.296 243.071L211.883 242.59L213.476 242.059L215.073 241.477L216.674 240.845L216.832 240.78L218.434 240.1L220.037 239.37L221.641 238.593L223.246 237.766L224.85 236.892L226.451 235.971L228.05 235.002L228.176 234.926L229.767 233.914L231.354 232.856L232.936 231.754L234.51 230.607L236.077 229.418L237.635 228.186L239.183 226.911L240.722 225.596L242.248 224.24L243.763 222.845L243.842 222.772L245.34 221.341L246.823 219.872L248.292 218.366L249.745 216.825L251.182 215.248L252.6 213.637L254 211.994L255.381 210.317L256.742 208.61L256.764 208.582L258.081 206.873L259.399 205.107L260.694 203.313L261.966 201.491L262.623 200.519L263.214 199.645L263.774 198.788L264.437 197.773L265.634 195.878L265.694 195.779L266.805 193.96L267.949 192.021L269.065 190.062L270.153 188.084L271.211 186.089L272.24 184.076L273.239 182.049L274.206 180.007L275.143 177.953L276.047 175.887L276.242 175.422L276.919 173.811L277.351 172.736L277.757 171.725L278.561 169.631L279.332 167.531L280.068 165.426L280.769 163.317L281.435 161.204L282.065 159.09L282.658 156.976L283.215 154.863L283.735 152.752L284.217 150.645L284.662 148.543L285.069 146.446L285.439 144.357L285.77 142.277L286.062 140.206L286.316 138.147L286.328 138.041L286.543 135.99L286.72 133.952L286.857 131.929L286.956 129.922L287.014 127.932L287.034 125.961L287.014 124.009L286.956 122.079L286.857 120.17L286.72 118.285L286.706 118.139L286.529 116.274L286.314 114.434L286.059 112.622L285.765 110.836L285.432 109.08L285.062 107.353L284.653 105.657L284.61 105.493L284.162 103.826L283.677 102.192L283.154 100.592L282.594 99.0269L281.997 97.4978L281.926 97.3288L281.292 95.834L280.621 94.3769L279.915 92.958L279.174 91.5788L278.398 90.2401L278.299 90.073L277.488 88.7735L276.642 87.516L275.763 86.301L274.851 85.129L273.908 84.0013L272.932 82.9185L272.767 82.7395L271.76 81.7011L270.721 80.7086L269.652 79.7628L268.554 78.8644L267.428 78.0136L266.273 77.2111L265.856 76.927L264.673 76.1727L263.464 75.4676L262.57 74.9658L261.333 74.3098L259.736 73.4739L257.321 72.2446L254.438 70.7956L251.549 69.3586L249.117 68.1646L247.856 67.5588L246.228 66.782L245.29 66.3681L244.005 65.8129L242.697 65.3092L242.219 65.1454L240.889 64.6928L239.537 64.2913L238.163 63.9419L236.769 63.644L235.356 63.3976L233.924 63.2038L233.682 63.1799L232.234 63.0386L230.769 62.9489L229.288 62.9121L228.801 62.9169L227.791 62.9274L226.28 62.9947L225.56 63.0515L224.757 63.1145L224.563 63.1355L223.029 63.3074L221.483 63.5313L219.927 63.8073L218.36 64.1348L216.786 64.5138L216.607 64.5582L215.027 64.9879L213.44 65.4686L211.848 66.0005L210.25 66.582L208.649 67.2141L208.491 67.2785L206.889 67.9588L205.286 68.6883L203.682 69.466L202.077 70.2924L200.473 71.1666L198.872 72.088L197.273 73.0562L197.147 73.133L195.556 74.1451L193.969 75.2026L192.387 76.3049L190.813 77.4512L189.246 78.6409L187.688 79.8731L186.14 81.1473L184.601 82.4626L183.075 83.8185L181.56 85.2139L181.481 85.287L179.983 86.7178L178.5 88.1868L177.031 89.6925L175.578 91.2341L174.141 92.8105L172.723 94.4213L171.323 96.065L169.942 97.7412L168.581 99.4485L167.242 101.185L165.924 102.952L164.629 104.746L163.357 106.567L162.109 108.414L160.886 110.286L159.689 112.181L158.518 114.098L157.374 116.038L156.258 117.996L155.17 119.974L154.112 121.97L153.083 123.982L152.084 126.01L151.117 128.051L150.18 130.105L149.276 132.172L148.404 134.248L147.566 136.334L146.762 138.427L145.991 140.527L145.255 142.633L144.554 144.742L143.888 146.855L143.258 148.969L142.665 151.082L142.108 153.196L141.588 155.307L141.106 157.414L140.661 159.516L140.254 161.613L139.884 163.701L139.553 165.782L139.261 167.853L139.007 169.912L138.995 170.018L138.78 172.069L138.603 174.107L138.466 176.13L138.368 178.137L138.309 180.126L138.289 182.098L138.309 184.049L138.368 185.98L138.466 187.889L138.603 189.774L138.617 189.92L138.794 191.785L139.009 193.624L139.264 195.437L139.558 197.222L139.891 198.979L140.261 200.705L140.67 202.401L140.713 202.566L141.161 204.232L141.646 205.866L142.169 207.466L142.729 209.032L143.326 210.561L143.397 210.73L143.713 211.474L144.031 212.225L144.702 213.682L145.198 214.679L145.408 215.101L146.149 216.48L146.925 217.819L147.024 217.986L147.09 218.091L147.835 219.285L148.681 220.543L149.56 221.758L150.472 222.93L151.416 224.057L152.391 225.14L152.556 225.319L153.563 226.358L154.602 227.35L155.671 228.296L156.769 229.194L157.895 230.046L159.05 230.848L159.468 231.132L160.65 231.886L161.859 232.591L162.754 233.093L163.99 233.749L165.587 234.585L168.002 235.814L170.885 237.263L173.774 238.7Z" stroke="#A7A9B2" stroke-width="0.6" stroke-linejoin="round"/>
<path d="M70.7529 235.96L69.9141 236.104" stroke="#A7A9B2" stroke-width="0.6" stroke-linejoin="round"/>
<path d="M320.69 170.147L320.688 170.157" stroke="#A7A9B2" stroke-width="0.6" stroke-linejoin="round"/>
<path d="M320.689 170.141L320.688 170.147" stroke="#A7A9B2" stroke-width="0.6" stroke-linejoin="round"/>
<path d="M320.689 170.136L320.688 170.141" stroke="#A7A9B2" stroke-width="0.6" stroke-linejoin="round"/>
<path d="M320.69 170.147L320.688 170.157" stroke="#A7A9B2" stroke-width="0.6" stroke-linejoin="round"/>
<path d="M320.689 170.141L320.688 170.147" stroke="#A7A9B2" stroke-width="0.6" stroke-linejoin="round"/>
<path d="M320.689 170.136L320.688 170.141" stroke="#A7A9B2" stroke-width="0.6" stroke-linejoin="round"/>
<path d="M321.034 169.901L320.945 169.878" stroke="#A7A9B2" stroke-width="0.6" stroke-linejoin="round"/>
<path d="M321.058 169.908L321.031 169.901" stroke="#A7A9B2" stroke-width="0.6" stroke-linejoin="round"/>
<path d="M321.195 169.921L321.248 169.82" stroke="#A7A9B2" stroke-width="0.6" stroke-linejoin="round"/>
<path d="M321.195 169.921L321.248 169.82" stroke="#A7A9B2" stroke-width="0.6" stroke-linejoin="round"/>
<path d="M325.251 170.559L325.18 170.572" stroke="#A7A9B2" stroke-width="0.6" stroke-linejoin="round"/>
<path d="M327.938 171.713L328.063 170.412" stroke="#A7A9B2" stroke-width="0.6" stroke-linejoin="round"/>
<path d="M327.938 171.713L328.063 170.412" stroke="#A7A9B2" stroke-width="0.6" stroke-linejoin="round"/>
<path d="M330.305 177.348L330.297 177.345" stroke="#A7A9B2" stroke-width="0.6" stroke-linejoin="round"/>
<path d="M334.564 165.573L334.547 165.593" stroke="#A7A9B2" stroke-width="0.6" stroke-linejoin="round"/>
<path d="M337.008 160.483L337.008 160.487" stroke="#A7A9B2" stroke-width="0.6" stroke-linejoin="round"/>
<path d="M350.549 182.947L350.469 182.958" stroke="#A7A9B2" stroke-width="0.6" stroke-linejoin="round"/>
<path d="M397.074 273.732L396 274.269" stroke="#A7A9B2" stroke-width="0.6" stroke-linejoin="round"/>
<path d="M399.016 280.878L400.09 280.341" stroke="#A7A9B2" stroke-width="0.6" stroke-linejoin="round"/>
</svg>
