<svg width="620" height="440" viewBox="0 0 620 440" fill="none" xmlns="http://www.w3.org/2000/svg">
<path d="M458.258 328.551L457.733 328.647C439.097 337.786 420.531 347.235 401.966 356.493C393.958 360.573 385.665 364.51 377.729 368.71C375.059 370.428 372.509 372.981 370.221 375.152C369.006 376.393 367.338 377.825 366.289 379.185C366.289 379.209 366.289 379.233 366.313 379.233C366.313 379.257 366.337 379.257 366.361 379.28" stroke="#A7A9B2" stroke-width="0.6" stroke-linejoin="round"/>
<path d="M366.305 379.257C368.044 379.233 370.166 378.755 371.905 378.517C375.027 377.968 378.578 377.467 381.557 376.369C389.493 372.623 397.43 368.423 405.318 364.558C424.05 355.133 442.925 345.851 461.586 336.282C461.729 336.139 462.063 335.805 462.182 335.638L462.444 335.161C462.444 335.137 462.587 334.612 462.587 334.612C462.825 332.631 461.824 330.556 460.347 329.291L459.655 328.861L459.608 328.838L458.941 328.575L458.392 328.527L458.226 328.575" stroke="#A7A9B2" stroke-width="0.6" stroke-linejoin="round"/>
<path d="M462.326 327.477C461.516 327.883 460.443 328.432 459.633 328.837" stroke="#A7A9B2" stroke-width="0.6" stroke-linejoin="round"/>
<path d="M463.947 333.992L463.995 334.039L464.615 334.278L465.187 334.35C465.306 334.326 465.759 334.254 465.878 334.23C468.571 332.942 471.455 331.51 474.1 330.126C474.291 329.959 474.648 329.625 474.815 329.434L475.077 328.933C475.077 328.909 475.244 328.36 475.268 328.337C475.291 328.17 475.315 327.835 475.339 327.668C475.244 325.616 474.148 323.54 472.336 322.514L471.764 322.3L471.216 322.252C470.954 322.276 470.454 322.347 470.215 322.419C467.498 323.731 464.615 325.139 461.969 326.547C461.85 326.619 461.54 326.976 461.421 327.072L461.159 327.573L460.992 328.17V328.193" stroke="#A7A9B2" stroke-width="0.6" stroke-linejoin="round"/>
<path d="M462.625 334.66C463.554 334.206 464.698 333.61 465.628 333.156" stroke="#A7A9B2" stroke-width="0.6" stroke-linejoin="round"/>
<path d="M383.925 375.272L384.306 374.89L384.592 374.365L384.759 373.744C385.045 371.406 383.758 368.853 381.708 367.684L381.112 367.445L380.54 367.374L379.992 367.445L379.516 367.684" stroke="#A7A9B2" stroke-width="0.6" stroke-linejoin="round"/>
<path d="M366.305 379.232C366.305 379.256 366.305 379.256 366.305 379.232" stroke="#A7A9B2" stroke-width="0.6" stroke-linejoin="round"/>
<path d="M475.275 328.313C475.537 328.193 475.894 328.002 476.133 327.859L476.419 327.573C476.585 327.31 476.752 326.905 476.824 326.595L476.871 326.093C476.8 324.566 475.966 322.991 474.631 322.228C474.369 322.109 473.916 322.013 473.63 321.989L473.225 322.037C472.963 322.132 472.606 322.323 472.367 322.443" stroke="#A7A9B2" stroke-width="0.6" stroke-linejoin="round"/>
<path d="M462.781 326.261L463.329 326.308L463.925 326.523C465.951 327.645 467.262 330.174 466.976 332.489L466.809 333.085L466.547 333.586L466.189 333.968L465.736 334.207" stroke="#A7A9B2" stroke-width="0.6" stroke-linejoin="round"/>
<path d="M461.805 326.618L462.258 326.38" stroke="#A7A9B2" stroke-width="0.6" stroke-linejoin="round"/>
<path d="M88.6135 307.386C128.389 327.31 168.213 347.234 207.989 367.135C210.658 368.471 213.852 370.07 216.521 371.406C217.927 372.122 220.167 373.291 221.764 373.506C223.242 373.816 225.363 373.482 226.817 373.172C227.984 372.957 230.344 372.575 231.511 372.36C248.695 369.402 265.997 366.419 283.18 363.46C288.542 362.53 294.238 361.551 299.624 360.621C301.697 360.263 304.605 359.762 306.678 359.404L309.109 358.974L309.919 358.688L310.182 358.235L309.872 357.686C308.561 356.755 306.178 355.753 304.748 354.989C302.055 353.653 298.909 352.054 296.216 350.718C287.041 346.113 277.698 341.436 268.499 336.855C242.927 324.065 217.331 311.228 191.759 298.438C188.351 296.72 184.514 294.811 181.106 293.093C179.7 292.377 177.46 291.208 175.863 290.993C174.386 290.683 172.265 291.017 170.811 291.327C169.643 291.542 167.284 291.924 166.116 292.139C148.933 295.097 131.631 298.08 114.448 301.039C109.085 301.97 103.389 302.948 98.0034 303.878C95.93 304.236 93.0224 304.737 90.949 305.095L88.4943 305.525L87.684 305.811L87.4219 306.265L87.7317 306.813L88.6135 307.386Z" stroke="#A7A9B2" stroke-width="0.6" stroke-linejoin="round"/>
<path d="M327.536 361.886C363.451 343.894 399.414 325.879 435.329 307.888L436.568 306.933L436.997 305.716L436.568 304.38L435.329 303.044C432.159 300.968 428.227 299.321 424.89 297.556C419.29 294.74 413.451 291.829 407.826 289.013C390.81 280.495 373.699 271.929 356.659 263.41C343.908 257.015 331.039 250.597 318.289 244.202C311.973 241.028 305.419 237.759 299.104 234.609C296.053 233.154 292.431 231.078 289.237 229.909L289.023 229.837L286.711 229.312L286.354 229.241L283.97 229.05L283.661 229.026C283.637 229.05 281.254 229.217 281.23 229.241C279.275 229.718 276.845 231.102 275.057 231.985C272.388 233.321 269.194 234.92 266.525 236.256C258.78 240.145 250.844 244.106 243.074 247.996C219.242 259.926 195.338 271.905 171.506 283.835C136.83 289.801 102.083 295.766 67.3832 301.707L66.2154 302.137L65.8341 302.877C65.6196 303.927 65.1907 306.074 65 307.124L65.4528 308.078L66.7159 309.176C69.9571 311.109 73.8179 312.827 77.1783 314.569C82.7788 317.384 88.6416 320.295 94.2421 323.111C111.139 331.558 128.108 340.076 145.005 348.523" stroke="#A7A9B2" stroke-width="0.6" stroke-linejoin="round"/>
<path d="M65.8828 302.853L66.3356 303.807L67.5987 304.905C70.8399 306.837 74.7007 308.555 78.0611 310.297C84.3766 313.471 90.9305 316.74 97.246 319.89C115.454 329.005 133.757 338.167 151.989 347.282C147.556 348.046 142.766 348.857 138.333 349.621L137.689 349.859L137.475 350.265C137.26 351.315 136.831 353.462 136.641 354.512L136.903 355.037L137.594 355.634C149.891 362.029 162.522 368.113 174.891 374.389C177.346 375.677 180.206 377.085 183.018 377.204C184.663 377.181 187.093 376.584 188.738 376.345C191.526 375.868 194.887 375.295 197.675 374.794C201.107 376.512 204.92 378.421 208.328 380.139C211.355 381.762 214.953 383.194 218.361 383.79C219.458 383.957 221.531 384.1 222.603 383.957C224.701 383.599 227.561 383.098 229.658 382.74C241.359 380.736 253.204 378.684 264.882 376.679C285.616 373.124 306.398 369.545 327.132 365.966C363.19 347.903 399.296 329.84 435.354 311.801L436.593 310.846L437.022 309.629C437.022 308.675 437.022 306.599 437.022 305.668" stroke="#A7A9B2" stroke-width="0.6" stroke-linejoin="round"/>
<path d="M198.484 370.595C201.916 372.313 205.729 374.222 209.137 375.94C212.164 377.563 215.763 378.994 219.171 379.591C220.267 379.758 222.34 379.901 223.413 379.758C225.51 379.4 228.37 378.899 230.467 378.541C242.169 376.537 254.013 374.508 265.691 372.48C286.282 368.949 306.945 365.393 327.512 361.862C327.417 362.888 327.202 365.011 327.083 366.014" stroke="#A7A9B2" stroke-width="0.6" stroke-linejoin="round"/>
<path d="M137.469 350.289L137.731 350.814L138.422 351.411C150.719 357.805 163.351 363.89 175.719 370.166C178.174 371.454 181.034 372.862 183.846 372.981C185.491 372.957 187.922 372.361 189.566 372.122C192.354 371.645 195.715 371.072 198.503 370.571C198.289 371.621 197.86 373.769 197.669 374.818" stroke="#A7A9B2" stroke-width="0.6" stroke-linejoin="round"/>
<path d="M88.6135 307.386C128.389 327.31 168.213 347.234 207.989 367.135C210.658 368.471 213.852 370.07 216.521 371.406C217.927 372.122 220.167 373.291 221.764 373.506C223.242 373.816 225.363 373.482 226.817 373.172C227.984 372.957 230.344 372.575 231.511 372.36C248.695 369.402 265.997 366.419 283.18 363.46C288.542 362.53 294.238 361.551 299.624 360.621C301.697 360.263 304.605 359.762 306.678 359.404L309.109 358.974L309.919 358.688L310.182 358.235L309.872 357.686C308.561 356.755 306.178 355.753 304.748 354.989C302.055 353.653 298.909 352.054 296.216 350.718C287.041 346.113 277.698 341.436 268.499 336.855C242.927 324.065 217.331 311.228 191.759 298.438C188.351 296.72 184.514 294.811 181.106 293.093C179.7 292.377 177.46 291.208 175.863 290.993C174.386 290.683 172.265 291.017 170.811 291.327C169.643 291.542 167.284 291.924 166.116 292.139C148.933 295.097 131.631 298.08 114.448 301.039C109.085 301.97 103.389 302.948 98.0034 303.878C95.93 304.236 93.0224 304.737 90.949 305.095L88.4943 305.525L87.684 305.811L87.4219 306.265L87.7317 306.813L88.6135 307.386Z" stroke="#A7A9B2" stroke-width="0.6" stroke-linejoin="round"/>
<path d="M144.866 306.074C145.2 306.289 146.034 306.551 146.415 306.671L147.368 306.694C158.808 304.738 170.39 302.733 181.83 300.777L182.211 300.514L181.806 300.133C181.472 299.918 180.638 299.655 180.257 299.536L179.304 299.512C167.864 301.469 156.282 303.473 144.842 305.43L144.461 305.692L144.866 306.074Z" stroke="#A7A9B2" stroke-width="0.6" stroke-linejoin="round"/>
<path d="M151.155 309.247C151.489 309.462 152.323 309.725 152.704 309.844L153.658 309.868C165.097 307.911 176.679 305.907 188.119 303.95L188.5 303.688L188.095 303.306C187.761 303.091 186.927 302.829 186.546 302.709L185.593 302.686C174.153 304.642 162.571 306.647 151.131 308.603L150.75 308.866L151.155 309.247Z" stroke="#A7A9B2" stroke-width="0.6" stroke-linejoin="round"/>
<path d="M157.468 312.397C157.801 312.612 158.635 312.875 159.017 312.994L159.97 313.018C171.409 311.061 182.992 309.057 194.431 307.1L194.813 306.838L194.408 306.456C194.074 306.241 193.24 305.979 192.858 305.859L191.905 305.835C180.466 307.792 168.883 309.796 157.444 311.753L157.062 312.016L157.468 312.397Z" stroke="#A7A9B2" stroke-width="0.6" stroke-linejoin="round"/>
<path d="M163.78 315.571C164.114 315.785 164.948 316.048 165.329 316.167L166.283 316.191C177.722 314.234 189.304 312.23 200.744 310.273L201.125 310.011L200.72 309.629C200.386 309.414 199.552 309.152 199.171 309.033L198.218 309.009C186.778 310.965 175.196 312.97 163.756 314.926L163.375 315.189L163.78 315.571Z" stroke="#A7A9B2" stroke-width="0.6" stroke-linejoin="round"/>
<path d="M112.429 310.584C117.314 313.017 122.462 315.618 127.348 318.052C129.254 319.007 131.852 320.295 133.735 321.25C134.283 321.536 135.713 322.252 136.308 322.347L137.262 322.371C144.697 321.083 152.371 319.77 159.807 318.505L160.188 318.243L159.783 317.861C154.898 315.427 149.75 312.826 144.864 310.393C142.958 309.438 140.36 308.15 138.477 307.195C137.929 306.909 136.499 306.193 135.903 306.098L134.95 306.074C127.514 307.362 119.84 308.675 112.405 309.939L112.023 310.202L112.429 310.584Z" stroke="#A7A9B2" stroke-width="0.6" stroke-linejoin="round"/>
<path d="M260.994 344.61C260.064 344.658 258.229 344.944 257.371 345.23L256.179 345.803L255.464 346.519L255.25 347.354L255.56 348.285L256.37 349.263C261.47 353.558 273.529 355.896 279.916 354.035L281.108 353.462L281.823 352.747L282.037 351.911L281.728 350.981L280.917 350.003C275.984 346.018 267.238 344.419 260.994 344.61Z" stroke="#A7A9B2" stroke-width="0.6" stroke-linejoin="round"/>
<path d="M307.616 325.545L308.212 325.831L309.166 326.022L310.143 325.831C330.376 315.714 350.657 305.549 370.891 295.408L371.296 294.931L370.891 294.453L370.295 294.167L369.318 293.976L368.341 294.167C348.107 304.284 327.826 314.449 307.593 324.59L307.188 325.067L307.616 325.545Z" stroke="#A7A9B2" stroke-width="0.6" stroke-linejoin="round"/>
<path d="M313.898 328.694L314.494 328.981L315.471 329.172L316.424 328.981C332.82 320.772 349.312 312.516 365.709 304.308L366.114 303.831L365.709 303.354L365.113 303.067L364.136 302.876L363.159 303.067C346.762 311.276 330.27 319.532 313.874 327.74L313.469 328.217L313.898 328.694Z" stroke="#A7A9B2" stroke-width="0.6" stroke-linejoin="round"/>
<path d="M320.218 331.868L320.814 332.155L321.767 332.346L322.744 332.155C340.928 323.04 359.184 313.901 377.392 304.81L377.797 304.332L377.392 303.855L376.796 303.569L375.819 303.378L374.841 303.569C356.658 312.684 338.402 321.823 320.194 330.914L319.789 331.391L320.218 331.868Z" stroke="#A7A9B2" stroke-width="0.6" stroke-linejoin="round"/>
<path d="M218.983 281.425C245.175 294.525 271.414 307.672 297.582 320.772L298.559 320.963L299.536 320.772C322.081 309.486 344.674 298.176 367.219 286.889L367.624 286.412L367.219 285.935C341.028 272.835 314.788 259.687 288.621 246.587L287.644 246.396L286.69 246.587C264.145 257.874 241.552 269.184 219.007 280.47L218.602 280.948L218.983 281.425Z" stroke="#A7A9B2" stroke-width="0.6" stroke-linejoin="round"/>
<path d="M196.082 282.594C224.49 296.816 252.946 311.061 281.354 325.282C291.244 330.246 301.301 335.256 311.191 340.22C314.599 341.938 318.436 343.846 321.844 345.564C323.513 346.352 325.967 347.784 327.731 348.309L329.232 348.452L330.734 348.309C331.52 348.118 333.403 347.211 334.142 346.805C336.811 345.469 340.005 343.87 342.674 342.534C348.989 339.361 355.543 336.092 361.859 332.942C381.091 323.302 400.419 313.638 419.652 303.998L420.51 303.354L420.82 302.59L420.51 301.827L419.652 301.182C391.244 286.961 362.788 272.716 334.38 258.495C324.49 253.531 314.433 248.521 304.542 243.557C301.134 241.839 297.297 239.93 293.889 238.212C292.221 237.425 289.766 235.993 288.003 235.468L286.501 235.325L285 235.468C284.213 235.659 282.331 236.566 281.592 236.972C278.923 238.308 275.729 239.907 273.06 241.243C266.744 244.416 260.19 247.685 253.875 250.835C234.642 260.475 215.314 270.139 196.082 279.779L195.224 280.423L194.914 281.187L195.224 281.95L196.082 282.594Z" stroke="#A7A9B2" stroke-width="0.6" stroke-linejoin="round"/>
<path d="M458.25 328.551L457.726 328.647C439.089 337.786 420.523 347.235 401.958 356.493C393.951 360.573 385.657 364.51 377.721 368.71C375.052 370.428 372.501 372.981 370.214 375.152C368.998 376.393 367.33 377.825 366.281 379.185C366.281 379.209 366.281 379.233 366.305 379.233" stroke="#A7A9B2" stroke-width="1.2" stroke-linejoin="round"/>
<path d="M459.64 328.814L458.973 328.551L458.425 328.503L458.258 328.551" stroke="#A7A9B2" stroke-width="1.2" stroke-linejoin="round"/>
<path d="M461.023 328.122C460.689 328.289 459.974 328.647 459.641 328.814" stroke="#A7A9B2" stroke-width="1.2" stroke-linejoin="round"/>
<path d="M463.953 333.992L464.001 334.039L464.62 334.278L465.192 334.35C465.312 334.326 465.764 334.254 465.884 334.23C468.577 332.942 471.46 331.51 474.106 330.126C474.296 329.959 474.654 329.625 474.821 329.434L475.083 328.933L475.25 328.36" stroke="#A7A9B2" stroke-width="1.2" stroke-linejoin="round"/>
<path d="M462.617 334.659C462.927 334.516 463.666 334.134 463.952 333.991" stroke="#A7A9B2" stroke-width="1.2" stroke-linejoin="round"/>
<path d="M366.281 379.208C366.281 379.232 366.305 379.232 366.329 379.256C368.069 379.232 370.19 378.755 371.93 378.516C375.052 377.967 378.603 377.466 381.582 376.369C389.518 372.623 397.454 368.423 405.342 364.557C424.074 355.132 442.95 345.85 461.61 336.282C461.753 336.139 462.087 335.805 462.206 335.637L462.468 335.16L462.611 334.659" stroke="#A7A9B2" stroke-width="1.2" stroke-linejoin="round"/>
<path d="M472.36 322.442L471.764 322.227L471.216 322.18C470.954 322.204 470.454 322.275 470.215 322.347C467.498 323.659 464.615 325.067 461.969 326.475C461.85 326.546 461.54 326.904 461.421 327L461.159 327.501L460.992 328.097V328.121" stroke="#A7A9B2" stroke-width="1.2" stroke-linejoin="round"/>
<path d="M475.275 328.312C475.537 328.193 475.894 328.002 476.133 327.859L476.419 327.572C476.585 327.31 476.752 326.904 476.824 326.594L476.871 326.093C476.8 324.566 475.966 322.991 474.631 322.227C474.369 322.108 473.916 322.013 473.63 321.989L473.225 322.037C472.963 322.132 472.606 322.323 472.367 322.442" stroke="#A7A9B2" stroke-width="1.2" stroke-linejoin="round"/>
<path d="M145.028 348.499C143.05 348.833 140.309 349.31 138.331 349.644L137.688 349.883L137.473 350.289C137.259 351.338 136.83 353.486 136.639 354.536L136.901 355.061L137.593 355.657C149.89 362.052 162.521 368.137 174.89 374.412C177.345 375.701 180.205 377.109 183.017 377.228C184.661 377.204 187.092 376.608 188.736 376.369C191.525 375.892 194.885 375.319 197.674 374.818C201.105 376.536 204.919 378.445 208.327 380.163C211.353 381.785 214.952 383.217 218.36 383.814C219.456 383.981 221.53 384.124 222.602 383.981C224.699 383.623 227.559 383.122 229.656 382.764C241.358 380.759 253.203 378.707 264.88 376.703C285.614 373.148 306.396 369.568 327.13 365.989C363.188 347.926 399.294 329.863 435.352 311.824L436.592 310.87L437.021 309.653C437.021 308.698 437.021 306.622 437.021 305.692L436.592 304.356L435.352 303.019C432.183 300.943 428.25 299.297 424.914 297.531C419.313 294.716 413.474 291.804 407.85 288.989C390.834 280.47 373.722 271.904 356.682 263.386C343.932 256.991 331.063 250.572 318.312 244.177C311.997 241.004 305.443 237.735 299.127 234.585C296.077 233.129 292.454 231.054 289.261 229.884L289.046 229.813L286.735 229.288L286.377 229.216L283.994 229.025L283.684 229.001C283.66 229.025 281.277 229.192 281.253 229.216C279.299 229.693 276.868 231.077 275.081 231.96C272.411 233.297 269.218 234.895 266.549 236.231C258.803 240.121 250.867 244.082 243.098 247.971C219.266 259.902 195.362 271.88 171.53 283.811C136.854 289.776 102.106 295.742 67.4067 301.683L66.2389 302.113L65.8576 302.852C65.6431 303.902 65.2141 306.05 65.0234 307.1L65.4763 308.054L66.7394 309.152C69.9805 311.084 73.8414 312.802 77.2017 314.544C82.8023 317.36 88.665 320.271 94.2656 323.087C111.163 331.557 128.131 340.052 145.028 348.499Z" stroke="#A7A9B2" stroke-width="1.2" stroke-linejoin="round"/>
</svg>
