<svg width="620" height="440" viewBox="0 0 620 440" fill="none" xmlns="http://www.w3.org/2000/svg">
<path d="M114.717 253.173C116.147 253.841 117.911 254.82 119.341 255.464C120.508 256.108 121.962 256.395 123.297 256.251C125.608 255.87 128.206 254.39 130.351 253.436C133.568 251.909 137.167 250.143 140.361 248.544C145.651 245.919 151.18 243.152 156.424 240.455C159.927 238.546 163.978 236.828 167.076 234.323C170.58 231.125 173.011 226.735 174.131 222.154C174.989 217.501 174.655 212.394 174.798 207.67C174.822 199.605 174.87 191.325 174.679 183.26C174.607 179.967 174.345 176.316 171.438 174.168C169.841 173.119 167.72 172.26 166.028 171.353C159.76 168.394 159.355 166.771 152.563 170.04C144.555 173.811 136.5 177.891 128.587 181.876C123.988 184.286 118.959 186.6 114.598 189.416C111.19 192.088 108.735 195.978 107.281 200.058C105.899 203.804 106.114 208.123 105.995 212.036C105.947 217.739 105.923 223.728 105.947 229.407C105.947 233.225 105.995 237.401 106.09 241.219C106.209 243.342 106.209 245.991 107.281 247.876C107.877 248.998 108.831 250.095 109.951 250.692C111.381 251.527 113.263 252.41 114.717 253.173Z" stroke="#787796" stroke-width="1.2" stroke-linejoin="round"/>
<path d="M446.228 214.041C449.636 215.759 453.473 217.668 456.881 219.386C458.144 220.006 460.003 221.056 461.385 221.343L462.743 221.175L463.816 220.412L464.507 219.1C464.96 216.355 464.674 212.991 464.745 210.223C464.745 204.759 464.745 198.984 464.745 193.52C464.745 188.056 464.745 182.282 464.745 176.817C464.722 174.574 464.888 171.663 464.507 169.444L463.816 167.44L462.743 165.602L461.385 164.075C459.86 162.858 457.357 161.809 455.618 160.902C452.615 159.399 449.159 157.681 446.156 156.177" stroke="#787796" stroke-width="1.2" stroke-linejoin="round"/>
<path d="M446.182 156.177C446.158 150.474 446.134 144.485 446.063 138.806C446.015 137.112 446.063 134.988 445.443 133.39C444.68 131.218 443.393 129.142 441.701 127.591C441.225 127.186 439.342 126.16 438.746 125.85C420.753 116.52 402.497 107.524 384.385 98.409C365.772 89.0793 347.063 79.7256 328.427 70.4436C321.682 67.0791 314.723 63.6192 307.979 60.2786C304.332 58.6084 300.495 56.3893 296.73 55.0292C295.348 54.8383 294.108 55.6257 292.917 56.1984C291.153 57.0335 290.009 57.63 289.39 59.6105C288.937 63.8817 289.175 68.6062 289.056 72.9013C289.032 79.6302 289.008 86.5977 289.008 93.3266C288.984 112.296 288.984 131.338 288.984 150.307C288.984 162.095 289.008 174.049 289.056 185.837C289.056 188.486 289.127 191.731 289.127 194.379C289.175 197.29 289.175 199.08 290.605 201.752C291.511 203.447 292.726 205.141 294.37 206.191C297.326 207.837 300.757 209.555 303.76 211.106C312.936 215.759 322.254 220.46 331.453 225.065C354.38 236.59 377.402 248.115 400.376 259.568C408.193 263.458 416.201 267.466 424.018 271.332C427.068 272.859 430.595 274.553 433.67 276.057C435.052 276.677 437.03 277.751 438.508 278.156C439.89 278.347 441.129 277.56 442.321 276.987C444.084 276.152 445.228 275.555 445.848 273.575C446.229 270.926 446.063 267.657 446.134 264.985C446.182 260.356 446.182 255.369 446.206 250.74C446.229 238.547 446.253 226.234 446.253 214.041" stroke="#787796" stroke-width="1.2" stroke-linejoin="round"/>
<path d="M114.709 253.173C116.139 253.841 117.903 254.82 119.333 255.464C120.501 256.108 121.954 256.395 123.289 256.251C125.601 255.87 128.198 254.39 130.343 253.436C133.561 251.909 137.159 250.143 140.353 248.544C145.644 245.919 151.173 243.152 156.416 240.455C159.919 238.546 163.97 236.828 167.069 234.323C170.572 231.125 173.003 226.735 174.123 222.154C174.981 217.501 174.647 212.394 174.79 207.67C174.814 199.605 174.862 191.325 174.671 183.26C174.6 179.967 174.338 176.316 171.43 174.168C169.833 173.119 167.712 172.26 166.02 171.353C159.752 168.394 159.347 166.771 152.555 170.04C144.547 173.811 136.492 177.891 128.58 181.876C123.98 184.286 118.951 186.6 114.59 189.416C111.182 192.088 108.727 195.978 107.274 200.058C105.891 203.804 106.106 208.123 105.987 212.036C105.939 217.739 105.915 223.728 105.939 229.407C105.939 233.225 105.987 237.401 106.082 241.219C106.201 243.342 106.201 245.991 107.274 247.876C107.869 248.998 108.823 250.095 109.943 250.692C111.373 251.527 113.256 252.41 114.709 253.173Z" stroke="#787796" stroke-width="0.6" stroke-linejoin="round"/>
<path d="M120.948 256.109C117.659 255.297 115.967 251.814 115.824 248.64C115.657 245.824 115.61 242.484 115.586 239.668C115.514 231.341 115.49 222.846 115.657 214.518C115.729 211.798 115.729 208.672 116.539 206.048C118.064 201.013 121.091 196.073 125.667 193.329C134.985 188.152 144.756 183.451 154.289 178.702C156.744 177.486 159.699 176.078 162.178 174.909C165.586 173.358 168.732 171.854 172.02 174.694" stroke="#787796" stroke-width="0.6" stroke-linejoin="round"/>
<path d="M377.127 127.544C377.127 137.828 377.127 148.279 377.127 158.564C377.127 162.382 377.127 166.677 377.127 170.494C377.103 171.854 377.103 174.121 377.365 175.481L378.056 177.486L379.129 179.323L380.487 180.85C382.013 182.067 384.515 183.117 386.255 184.024C388.924 185.36 392.117 186.959 394.787 188.295C403.962 192.9 413.304 197.577 422.504 202.158C431.083 206.453 439.83 210.82 448.409 215.139C451.078 216.475 454.272 218.074 456.941 219.41C458.157 220.007 460.111 221.104 461.445 221.367L462.804 221.2L463.876 220.436L464.567 219.124C465.02 216.38 464.734 213.015 464.806 210.247C464.806 204.783 464.806 199.009 464.806 193.544C464.806 188.08 464.806 182.306 464.806 176.841C464.782 174.599 464.949 171.687 464.567 169.468L463.876 167.464L462.804 165.627L461.445 164.1C459.92 162.883 457.418 161.833 455.678 160.926C453.009 159.59 449.815 157.991 447.146 156.655C438.709 152.431 430.13 148.136 421.693 143.913C412.518 139.308 403.176 134.631 393.976 130.049C391.307 128.713 388.114 127.114 385.444 125.778C384.038 125.11 382.013 123.917 380.487 123.583L379.129 123.75L378.056 124.514L377.365 125.826L377.127 127.544Z" stroke="#787796" stroke-width="0.6" stroke-linejoin="round"/>
<path d="M446.174 156.177C446.15 150.474 446.126 144.485 446.055 138.806C446.007 137.112 446.055 134.988 445.435 133.39C444.672 131.218 443.386 129.142 441.693 127.591C441.217 127.186 439.334 126.16 438.738 125.85C420.745 116.52 402.489 107.524 384.377 98.409C365.764 89.0793 347.056 79.7256 328.419 70.4436C321.674 67.0791 314.715 63.6192 307.971 60.2786C304.325 58.6084 300.488 56.3893 296.722 55.0292C295.34 54.8383 294.1 55.6257 292.909 56.1984C291.145 57.0335 290.001 57.63 289.382 59.6105C288.929 63.8817 289.167 68.6062 289.048 72.9013C289.024 79.6302 289 86.5977 289 93.3266C288.977 112.296 288.977 131.338 288.977 150.307C288.977 162.095 289 174.049 289.048 185.837C289.048 188.486 289.12 191.731 289.12 194.379C289.167 197.29 289.167 199.08 290.597 201.752C291.503 203.447 292.718 205.141 294.363 206.191C297.318 207.837 300.75 209.555 303.753 211.106C312.928 215.759 322.246 220.46 331.446 225.065C354.372 236.59 377.394 248.115 400.368 259.568C408.185 263.458 416.193 267.466 424.01 271.332C427.06 272.859 430.588 274.553 433.662 276.057C435.044 276.677 437.022 277.751 438.5 278.156C439.882 278.347 441.121 277.56 442.313 276.987C444.077 276.152 445.221 275.555 445.84 273.575C446.222 270.926 446.055 267.657 446.126 264.985C446.174 260.356 446.174 255.369 446.198 250.74C446.222 238.547 446.245 226.234 446.245 214.041" stroke="#787796" stroke-width="0.6" stroke-linejoin="round"/>
<path d="M443.052 212.442C443.052 225.256 443.028 238.189 443.004 251.002C442.98 256.109 442.98 261.549 442.933 266.655C442.861 269.304 443.004 272.549 442.647 275.174C442.123 277.059 440.526 278.419 438.5 278.18" stroke="#787796" stroke-width="0.6" stroke-linejoin="round"/>
<path d="M290.023 58.25C290.762 57.0808 292.168 56.4604 293.527 56.6275C297.316 57.9875 301.129 60.1828 304.776 61.8769C311.472 65.1937 318.384 68.6297 325.081 71.9703C342.979 80.8944 360.924 89.8663 378.798 98.8381C397.054 108.001 415.429 117.14 433.589 126.446C435.066 127.233 437.14 128.211 438.474 129.214C440.524 131.099 441.954 133.652 442.621 136.348C443.122 142.313 442.859 148.613 442.955 154.602" stroke="#787796" stroke-width="0.6" stroke-linejoin="round"/>
<path d="M420.906 159.828V160.473L421.097 161.117L421.55 161.57C432.584 167.082 443.737 172.666 454.772 178.202H455.225L455.415 177.724V177.104L455.225 176.46L454.772 176.006C443.737 170.494 432.584 164.911 421.55 159.375H421.097L420.906 159.828Z" stroke="#787796" stroke-width="0.6" stroke-linejoin="round"/>
<path d="M398.024 149.759L398.977 149.878L399.954 150.26C403.291 152.145 405.388 156.345 404.911 160.162L404.625 161.188L404.149 162.023L403.529 162.644L402.766 163.026L401.885 163.169L400.931 163.05L399.954 162.668C396.618 160.783 394.52 156.583 394.997 152.765L395.283 151.739L395.76 150.904L396.379 150.284L397.142 149.902L398.024 149.759Z" stroke="#787796" stroke-width="0.6" stroke-linejoin="round"/>
<path d="M395.616 163.431L397.737 163.693L399.953 164.528C400.048 164.6 402.146 165.888 402.17 165.912L403.957 167.487C405.196 168.632 406.698 170.613 407.579 172.045C409.581 175.266 411.035 179.275 411.226 183.092C403.766 179.346 396.116 175.528 388.633 171.782C388.633 171.734 388.776 170.279 388.776 170.183L389.419 167.893L390.468 166.008L391.874 164.6L393.59 163.717L395.616 163.431Z" stroke="#787796" stroke-width="0.6" stroke-linejoin="round"/>
<path d="M420.906 165.889V166.533L421.097 167.177L421.55 167.631C432.584 173.143 443.737 178.726 454.772 184.262H455.225L455.415 183.785V183.141L455.225 182.496L454.772 182.043C443.737 176.531 432.584 170.947 421.55 165.412H421.097L420.906 165.889Z" stroke="#787796" stroke-width="0.6" stroke-linejoin="round"/>
<path d="M420.906 171.973V172.618L421.097 173.262L421.55 173.715C432.584 179.227 443.737 184.811 454.772 190.347H455.225L455.415 189.869V189.225L455.225 188.581L454.772 188.127C443.737 182.615 432.584 177.032 421.55 171.496H421.097L420.906 171.973Z" stroke="#787796" stroke-width="0.6" stroke-linejoin="round"/>
<path d="M411.234 182.902C411.401 182.998 411.782 183.141 411.973 183.188L412.354 183.141L412.664 182.926L412.855 182.544C413.045 177.748 412.855 172.546 412.926 167.726C412.878 163.026 413.045 157.943 412.855 153.266L412.664 152.694L412.354 152.169L411.973 151.739C408.493 149.759 404.442 147.945 400.891 146.108C396.72 144.104 392.335 141.67 388.093 139.785L387.712 139.832L387.402 140.047L387.211 140.429C387.02 145.225 387.211 150.427 387.14 155.247C387.187 159.947 387.02 165.03 387.211 169.707L387.402 170.279L387.712 170.804L388.093 171.234C388.188 171.305 388.57 171.568 388.665 171.616" stroke="#787796" stroke-width="0.6" stroke-linejoin="round"/>
<path d="M435.562 186.792C435.562 188.868 435.562 191.683 435.562 193.759L435.753 194.403L436.206 194.857C442.259 197.887 448.527 201.013 454.581 204.043H455.033L455.224 203.566C455.224 201.49 455.224 198.675 455.224 196.599L455.033 195.954L454.581 195.501C448.527 192.471 442.259 189.345 436.206 186.314H435.753L435.562 186.792Z" stroke="#787796" stroke-width="0.6" stroke-linejoin="round"/>
<path d="M377.055 196.193C377.055 203.279 377.055 210.581 377.055 217.668C377.151 221.963 376.865 226.687 377.198 230.959L377.603 232.223L378.247 233.392L379.033 234.323C380.344 235.349 382.727 236.303 384.181 237.091C387.589 238.809 391.426 240.718 394.834 242.436C404.605 247.327 414.543 252.291 424.315 257.206L425.196 257.468L425.983 257.325L426.626 256.8L427.031 255.941C427.294 254.295 427.127 251.742 427.174 250.071C427.174 246.254 427.174 241.959 427.174 238.141C427.174 234.323 427.174 230.028 427.174 226.21C427.127 224.444 427.294 221.82 427.031 220.078L426.626 218.813L425.983 217.644L425.196 216.713C423.886 215.687 421.502 214.733 420.049 213.945C416.641 212.227 412.804 210.319 409.396 208.601C399.624 203.709 389.686 198.746 379.915 193.83L379.033 193.568L378.247 193.711L377.603 194.236L377.198 195.095L377.055 196.193Z" stroke="#787796" stroke-width="0.6" stroke-linejoin="round"/>
<path d="M384.103 223.609L384.055 223.562L384.008 223.466V223.371L384.079 223.299L384.198 223.275L384.318 223.299L384.413 223.371L384.461 223.466V223.562L384.389 223.633H384.341" stroke="#787796" stroke-width="0.6" stroke-linejoin="round"/>
<path d="M384.011 223.371C383.963 223.466 383.892 223.585 383.844 223.705C383.844 223.752 383.82 223.824 383.82 223.872L383.868 223.991C383.892 224.015 383.963 224.063 383.987 224.086C384.035 224.11 385.441 224.635 385.536 224.659L386.99 224.874C388.11 224.898 389.707 224.731 390.779 224.349" stroke="#787796" stroke-width="0.6" stroke-linejoin="round"/>
<path d="M384.345 223.681L384.273 223.705" stroke="#787796" stroke-width="0.6" stroke-linejoin="round"/>
<path d="M384.252 223.681L384.157 223.657L384.109 223.609" stroke="#787796" stroke-width="0.6" stroke-linejoin="round"/>
<path d="M384.348 223.681C384.3 223.657 384.229 223.633 384.181 223.609H384.109" stroke="#787796" stroke-width="0.6" stroke-linejoin="round"/>
<path d="M388.466 224.325L387.036 224.349L385.63 224.134L384.391 223.681" stroke="#787796" stroke-width="0.6" stroke-linejoin="round"/>
<path d="M390.804 223.8C390.28 224.015 389.041 224.254 388.469 224.325" stroke="#787796" stroke-width="0.6" stroke-linejoin="round"/>
<path d="M397.763 219.338C396.023 221.151 393.664 222.726 391.328 223.633" stroke="#787796" stroke-width="0.6" stroke-linejoin="round"/>
<path d="M391.257 224.182C395.071 222.87 400.814 218.646 400.695 214.16L400.576 213.516L400.338 212.943L399.98 212.49C399.98 212.49 399.48 212.156 399.456 212.132L398.908 211.989C398.502 211.965 397.883 212.084 397.502 212.228L396.763 212.609C393.307 215.115 391.4 219.648 390.805 223.776" stroke="#787796" stroke-width="0.6" stroke-linejoin="round"/>
<path d="M400.197 214.256C400.268 216.189 398.981 217.978 397.742 219.338" stroke="#787796" stroke-width="0.6" stroke-linejoin="round"/>
<path d="M399.594 212.848L399.88 213.206L400.07 213.683L400.166 214.256" stroke="#787796" stroke-width="0.6" stroke-linejoin="round"/>
<path d="M398.312 212.514L398.813 212.49L399.29 212.61L399.623 212.824" stroke="#787796" stroke-width="0.6" stroke-linejoin="round"/>
<path d="M398.258 212.538H398.329" stroke="#787796" stroke-width="0.6" stroke-linejoin="round"/>
<path d="M395.688 214.136L396.998 213.062L397.713 212.681L398.309 212.514" stroke="#787796" stroke-width="0.6" stroke-linejoin="round"/>
<path d="M395.664 214.161L395.688 214.137" stroke="#787796" stroke-width="0.6" stroke-linejoin="round"/>
<path d="M391.305 223.634C391.853 220.269 393.354 216.642 395.69 214.137" stroke="#787796" stroke-width="0.6" stroke-linejoin="round"/>
<path d="M390.755 224.349C390.612 225.065 390.708 226.711 390.755 227.451L391.208 229.169L392.042 230.577L393.258 231.555L393.329 231.603L394.997 232.056C395.069 232.056 395.808 231.961 395.831 231.961C398.501 230.839 400.36 228.191 403.005 227.022L403.744 226.831" stroke="#787796" stroke-width="0.6" stroke-linejoin="round"/>
<path d="M391.141 225.518V225.495" stroke="#787796" stroke-width="0.6" stroke-linejoin="round"/>
<path d="M393.524 231.126L392.428 230.267L391.665 228.978L391.236 227.356L391.141 225.519" stroke="#787796" stroke-width="0.6" stroke-linejoin="round"/>
<path d="M395.621 231.459L395.049 231.531L393.5 231.102" stroke="#787796" stroke-width="0.6" stroke-linejoin="round"/>
<path d="M408.614 236.065L407.875 235.516L407.208 234.728L406.684 233.678C406.445 232.963 406.159 231.889 406.207 231.149C406.135 229.861 406.207 228.453 405.635 227.26L405.397 226.949L405.349 226.926L404.586 226.425L403.752 226.329C403.705 226.329 402.847 226.544 402.775 226.568C400.13 227.713 398.271 230.362 395.602 231.483" stroke="#787796" stroke-width="0.6" stroke-linejoin="round"/>
<path d="M403.719 226.831H403.743" stroke="#787796" stroke-width="0.6" stroke-linejoin="round"/>
<path d="M403.75 226.831L404.441 226.902L405.037 227.284" stroke="#787796" stroke-width="0.6" stroke-linejoin="round"/>
<path d="M405.008 227.284L405.175 227.498C405.699 228.644 405.604 230.004 405.675 231.221C405.651 231.984 405.961 233.13 406.176 233.869L406.748 234.991L407.463 235.85L408.321 236.47L408.392 236.518L409.345 236.948C411.8 237.687 414.541 237.115 416.995 236.637" stroke="#787796" stroke-width="0.6" stroke-linejoin="round"/>
<path d="M408.615 236.065L407.828 235.492" stroke="#787796" stroke-width="0.6" stroke-linejoin="round"/>
<path d="M413.71 236.709C412.375 236.876 410.779 236.876 409.492 236.471L408.586 236.065" stroke="#787796" stroke-width="0.6" stroke-linejoin="round"/>
<path d="M416.833 236.184C415.904 236.375 414.64 236.614 413.711 236.733" stroke="#787796" stroke-width="0.6" stroke-linejoin="round"/>
<path d="M416.806 236.614L416.735 236.518L416.711 236.399L416.735 236.28L416.806 236.208L416.902 236.184L416.997 236.232L417.068 236.327L417.092 236.447L417.068 236.566L416.997 236.637L416.902 236.661L416.806 236.614Z" stroke="#787796" stroke-width="0.6" stroke-linejoin="round"/>
<path d="M384.103 223.609L384.055 223.562L384.008 223.466V223.371L384.079 223.299L384.198 223.275L384.318 223.299L384.413 223.371L384.461 223.466V223.562L384.389 223.633H384.341" stroke="#787796" stroke-width="0.6" stroke-linejoin="round"/>
<path d="M384.011 223.371C383.963 223.466 383.892 223.585 383.844 223.705C383.844 223.752 383.82 223.824 383.82 223.872L383.868 223.991C383.892 224.015 383.963 224.063 383.987 224.086C384.035 224.11 385.441 224.635 385.536 224.659L386.99 224.874C388.11 224.898 389.707 224.731 390.779 224.349" stroke="#787796" stroke-width="0.6" stroke-linejoin="round"/>
<path d="M384.345 223.681L384.273 223.705" stroke="#787796" stroke-width="0.6" stroke-linejoin="round"/>
<path d="M384.252 223.681L384.157 223.657L384.109 223.609" stroke="#787796" stroke-width="0.6" stroke-linejoin="round"/>
<path d="M384.348 223.681C384.3 223.657 384.229 223.633 384.181 223.609H384.109" stroke="#787796" stroke-width="0.6" stroke-linejoin="round"/>
<path d="M388.466 224.325L387.036 224.349L385.63 224.134L384.391 223.681" stroke="#787796" stroke-width="0.6" stroke-linejoin="round"/>
<path d="M390.804 223.8C390.28 224.015 389.041 224.254 388.469 224.325" stroke="#787796" stroke-width="0.6" stroke-linejoin="round"/>
<path d="M397.763 219.338C396.023 221.151 393.664 222.726 391.328 223.633" stroke="#787796" stroke-width="0.6" stroke-linejoin="round"/>
<path d="M391.257 224.182C395.071 222.87 400.814 218.646 400.695 214.16L400.576 213.516L400.338 212.943L399.98 212.49C399.98 212.49 399.48 212.156 399.456 212.132L398.908 211.989C398.502 211.965 397.883 212.084 397.502 212.228L396.763 212.609C393.307 215.115 391.4 219.648 390.805 223.776" stroke="#787796" stroke-width="0.6" stroke-linejoin="round"/>
<path d="M400.197 214.256C400.268 216.189 398.981 217.978 397.742 219.338" stroke="#787796" stroke-width="0.6" stroke-linejoin="round"/>
<path d="M399.594 212.848L399.88 213.206L400.07 213.683L400.166 214.256" stroke="#787796" stroke-width="0.6" stroke-linejoin="round"/>
<path d="M398.312 212.514L398.813 212.49L399.29 212.61L399.623 212.824" stroke="#787796" stroke-width="0.6" stroke-linejoin="round"/>
<path d="M398.258 212.538H398.329" stroke="#787796" stroke-width="0.6" stroke-linejoin="round"/>
<path d="M395.688 214.136L396.998 213.062L397.713 212.681L398.309 212.514" stroke="#787796" stroke-width="0.6" stroke-linejoin="round"/>
<path d="M395.664 214.161L395.688 214.137" stroke="#787796" stroke-width="0.6" stroke-linejoin="round"/>
<path d="M391.305 223.634C391.853 220.269 393.354 216.642 395.69 214.137" stroke="#787796" stroke-width="0.6" stroke-linejoin="round"/>
<path d="M390.755 224.349C390.612 225.065 390.708 226.711 390.755 227.451L391.208 229.169L392.042 230.577L393.258 231.555L393.329 231.603L394.997 232.056C395.069 232.056 395.808 231.961 395.831 231.961C398.501 230.839 400.36 228.191 403.005 227.022L403.744 226.831" stroke="#787796" stroke-width="0.6" stroke-linejoin="round"/>
<path d="M391.141 225.518V225.495" stroke="#787796" stroke-width="0.6" stroke-linejoin="round"/>
<path d="M393.524 231.126L392.428 230.267L391.665 228.978L391.236 227.356L391.141 225.519" stroke="#787796" stroke-width="0.6" stroke-linejoin="round"/>
<path d="M395.621 231.459L395.049 231.531L393.5 231.102" stroke="#787796" stroke-width="0.6" stroke-linejoin="round"/>
<path d="M408.614 236.065L407.875 235.516L407.208 234.728L406.684 233.678C406.445 232.963 406.159 231.889 406.207 231.149C406.135 229.861 406.207 228.453 405.635 227.26L405.397 226.949L405.349 226.926L404.586 226.425L403.752 226.329C403.705 226.329 402.847 226.544 402.775 226.568C400.13 227.713 398.271 230.362 395.602 231.483" stroke="#787796" stroke-width="0.6" stroke-linejoin="round"/>
<path d="M403.719 226.831H403.743" stroke="#787796" stroke-width="0.6" stroke-linejoin="round"/>
<path d="M403.75 226.831L404.441 226.902L405.037 227.284" stroke="#787796" stroke-width="0.6" stroke-linejoin="round"/>
<path d="M405.008 227.284L405.175 227.498C405.699 228.644 405.604 230.004 405.675 231.221C405.651 231.984 405.961 233.13 406.176 233.869L406.748 234.991L407.463 235.85L408.321 236.47L408.392 236.518L409.345 236.948C411.8 237.687 414.541 237.115 416.995 236.637" stroke="#787796" stroke-width="0.6" stroke-linejoin="round"/>
<path d="M408.615 236.065L407.828 235.492" stroke="#787796" stroke-width="0.6" stroke-linejoin="round"/>
<path d="M413.71 236.709C412.375 236.876 410.779 236.876 409.492 236.471L408.586 236.065" stroke="#787796" stroke-width="0.6" stroke-linejoin="round"/>
<path d="M416.833 236.184C415.904 236.375 414.64 236.614 413.711 236.733" stroke="#787796" stroke-width="0.6" stroke-linejoin="round"/>
<path d="M416.806 236.614L416.735 236.518L416.711 236.399L416.735 236.28L416.806 236.208L416.902 236.184L416.997 236.232L417.068 236.327L417.092 236.447L417.068 236.566L416.997 236.637L416.902 236.661L416.806 236.614Z" stroke="#787796" stroke-width="0.6" stroke-linejoin="round"/>
<path d="M141.281 221.724C139.422 220.388 137.015 218.622 135.18 217.286C133.535 220.149 131.629 223.418 129.984 226.282C133.655 228.954 137.611 231.817 141.305 234.49C148.645 221.843 156.033 209.078 163.349 196.407C161.824 195.286 159.679 193.735 158.154 192.637C152.553 202.301 146.881 212.084 141.281 221.724Z" stroke="#787796" stroke-width="0.6" stroke-linejoin="round"/>
<path d="M303.408 71.1118L302.622 70.8254L301.883 70.73L301.192 70.8254L300.596 71.1356L300.095 71.6367L299.738 72.3048L299.523 73.1161C299.142 76.1226 300.787 79.4155 303.432 80.8949L304.218 81.1812L304.957 81.2767L305.648 81.1812L306.244 80.871L306.745 80.37L307.102 79.7018L307.317 78.8905C307.674 75.884 306.03 72.5912 303.408 71.1118Z" stroke="#787796" stroke-width="0.6" stroke-linejoin="round"/>
<path d="M314.369 76.6L313.583 76.3137L312.844 76.2183L312.153 76.3137L311.557 76.6239L311.056 77.125L310.699 77.7931L310.484 78.6044C310.103 81.6109 311.747 84.9038 314.393 86.3832L315.179 86.6695L315.918 86.765L316.609 86.6695L317.205 86.3593L317.706 85.8582L318.063 85.1901L318.278 84.3788C318.635 81.3723 316.991 78.0794 314.369 76.6Z" stroke="#787796" stroke-width="0.6" stroke-linejoin="round"/>
<path d="M325.361 82.0878L324.575 81.8015L323.836 81.7061L323.145 81.8015L322.549 82.1117L322.049 82.6128L321.691 83.2809L321.477 84.0922C321.095 87.0987 322.74 90.3916 325.385 91.871L326.172 92.1573L326.91 92.2528L327.602 92.1573L328.197 91.8471L328.698 91.346L329.055 90.6779L329.27 89.8666C329.627 86.884 327.983 83.5672 325.361 82.0878Z" stroke="#787796" stroke-width="0.6" stroke-linejoin="round"/>
<path d="M384.282 223.681H384.258" stroke="#787796" stroke-width="0.6" stroke-linejoin="round"/>
<path d="M384.282 223.681H384.258" stroke="#787796" stroke-width="0.6" stroke-linejoin="round"/>
<path d="M384.422 223.705L384.47 223.609" stroke="#787796" stroke-width="0.6" stroke-linejoin="round"/>
<path d="M384.422 223.705L384.47 223.609" stroke="#787796" stroke-width="0.6" stroke-linejoin="round"/>
<path d="M388.47 224.325L388.398 224.349" stroke="#787796" stroke-width="0.6" stroke-linejoin="round"/>
<path d="M388.47 224.325L388.398 224.349" stroke="#787796" stroke-width="0.6" stroke-linejoin="round"/>
<path d="M391.141 225.495L391.26 224.206" stroke="#787796" stroke-width="0.6" stroke-linejoin="round"/>
<path d="M391.141 225.495L391.26 224.206" stroke="#787796" stroke-width="0.6" stroke-linejoin="round"/>
<path d="M413.712 236.709H413.641" stroke="#787796" stroke-width="0.6" stroke-linejoin="round"/>
<path d="M413.712 236.709H413.641" stroke="#787796" stroke-width="0.6" stroke-linejoin="round"/>
</svg>
