<svg width="415" height="331" viewBox="0 0 415 331" fill="none" xmlns="http://www.w3.org/2000/svg">
<path d="M395.984 274.269L395.882 274.166L393.448 274.184L389.178 276.319L384.908 278.454L380.638 280.589L376.368 282.724L372.098 284.859L367.828 286.994L363.558 289.129L359.287 291.264L355.017 293.399L350.748 295.534L346.477 297.669L342.207 299.804L337.937 301.939L333.667 304.074L329.397 306.209L325.127 308.344L320.857 310.479L316.587 312.614L315.385 313.215L311.943 314.936L308.612 318.356L305.281 321.775L303.595 323.505L302.298 325.035L302.273 325.095L302.298 325.18L302.357 325.24L302.416 325.239L304.511 325.084L309.237 324.41L313.963 323.736L316.81 323.33L320.251 321.609L324.521 319.474L328.792 317.339L333.062 315.204L337.332 313.069L341.602 310.934L345.872 308.799L350.142 306.664L354.412 304.528L358.682 302.393L362.953 300.258L367.223 298.124L371.492 295.989L375.763 293.854L380.033 291.719L384.303 289.584L388.573 287.448L392.843 285.313L397.113 283.178L398.315 282.578L399.007 280.878" stroke="#A7A9B2" stroke-width="1.2" stroke-linejoin="round"/>
<path d="M400.094 280.34L400.196 280.444L402.629 280.426L406.9 278.291L411.233 276.124L411.924 274.425" stroke="#A7A9B2" stroke-width="1.2" stroke-linejoin="round"/>
<path d="M408.901 267.816L408.798 267.713L406.365 267.731L402.095 269.866L397.762 272.033L397.07 273.732" stroke="#A7A9B2" stroke-width="1.2" stroke-linejoin="round"/>
<path d="M411.92 274.425L412.771 274L413.527 272.143L412.771 269.53L410.946 267.691L409.121 267.705L408.898 267.816" stroke="#A7A9B2" stroke-width="1.2" stroke-linejoin="round"/>
<path d="M80.7272 294.427L76.0219 295.235L74.0143 295.58L73.3717 295.816L73.1669 296.217L72.3281 300.471L72.5807 300.996L73.2658 301.594L74.317 302.209L78.587 304.344L82.8574 306.479L87.1274 308.614L91.3974 310.749L95.6674 312.884L99.9378 315.019L104.208 317.154L108.478 319.289L112.748 321.424L113.261 321.681L114.575 322.25L116.024 322.717L117.465 323.039L118.757 323.182L119.774 323.133L124.479 322.325L129.184 321.516L133.442 320.784L137.712 322.919L141.983 325.054L146.253 327.189L146.43 327.278L148.846 328.324L151.508 329.184L154.158 329.775L156.533 330.038L158.403 329.948L163.109 329.139L167.813 328.331L172.519 327.522L177.224 326.714L181.929 325.906L186.634 325.097L191.339 324.289L196.045 323.48L200.75 322.672L205.455 321.863L210.16 321.055L214.865 320.246L219.571 319.438L224.276 318.629L228.981 317.821L233.686 317.012L238.391 316.204L243.096 315.395L247.801 314.587L252.506 313.778L257.212 312.97L261.917 312.161L263.1 311.958L267.37 309.823L271.64 307.688L275.91 305.553L280.18 303.418L284.45 301.283L288.72 299.148L292.99 297.013L297.26 294.878L301.53 292.742L305.801 290.607L310.071 288.472L314.341 286.337L318.611 284.202L322.881 282.067L327.151 279.932L331.421 277.797L335.692 275.662L339.962 273.527L344.232 271.392L348.502 269.257L352.772 267.122L357.042 264.987L361.312 262.852L365.582 260.716L369.852 258.581L371.489 257.763L372.724 256.801L373.15 255.589V251.62L372.724 250.276L371.489 248.932L369.564 247.72L365.295 245.585L361.025 243.45L356.754 241.315L352.484 239.18L348.214 237.045L343.944 234.91L339.674 232.775L335.404 230.64L331.134 228.504L326.864 226.369L322.593 224.234L318.323 222.099L314.053 219.965L309.783 217.83L305.513 215.695L301.243 213.56L296.973 211.424L292.703 209.289L288.433 207.154L284.163 205.019L279.893 202.884L275.622 200.749L271.352 198.614L267.082 196.479L265.683 195.779" stroke="#A7A9B2" stroke-width="1.2" stroke-linejoin="round"/>
<path d="M143.715 211.474L139.445 213.611L135.176 215.746L130.906 217.882L126.637 220.018L122.367 222.155L118.098 224.291L113.828 226.427L109.558 228.563L107.3 229.692L102.595 230.499L97.8896 231.306L93.1842 232.114L88.4789 232.92L83.7735 233.728L79.0681 234.535L74.3623 235.341L70.7578 235.96" stroke="#A7A9B2" stroke-width="1.2" stroke-linejoin="round"/>
<path d="M69.9126 236.104L65.2072 236.911L60.5018 237.718L55.7965 238.525L51.0911 239.332L46.3857 240.139L41.6799 240.946L36.9745 241.753L32.2691 242.56L27.5638 243.367L22.8584 244.174L18.153 244.981L13.4476 245.788L8.74226 246.595L4.03689 247.402L3.01427 247.578L1.83315 248.012L1.456 248.748L0.617188 253.002L1.08124 253.966L2.34112 255.067L4.27417 256.197L8.54414 258.332L12.8146 260.467L17.0846 262.602L21.3545 264.738L25.625 266.873L29.895 269.008L34.1649 271.143L38.4349 273.278L42.7054 275.413L46.9754 277.548L51.2453 279.683L55.5153 281.818L59.7857 283.953L64.0557 286.088L68.3257 288.223L72.5961 290.358L76.8661 292.493L80.7336 294.427" stroke="#A7A9B2" stroke-width="1.2" stroke-linejoin="round"/>
<path d="M383.162 102.438V97.6636V92.8894V88.1153V83.5809L382.84 80.9284L381.905 78.2128L380.448 75.7012L378.613 73.6383L376.579 72.2266L372.309 70.0911L368.038 67.9561L363.768 65.8211L359.498 63.6861L355.228 61.5511L350.958 59.4162L346.688 57.2812L342.418 55.1457L338.148 53.0107L333.877 50.8757L329.607 48.7407L325.337 46.6058L321.068 44.4708L316.797 42.3358L312.527 40.2003L308.257 38.0653L303.987 35.9304L299.717 33.7954L295.447 31.6604L291.177 29.5254L286.906 27.3904L282.636 25.2554L278.366 23.1199L274.096 20.985L269.826 18.85L265.556 16.715L261.286 14.58L257.015 12.445L252.746 10.31L248.476 8.17455L244.206 6.03956L239.935 3.90458L235.371 1.62255L233.337 1L231.502 1.22773L228.26 2.84806L226.804 3.90362L225.869 5.68389L225.547 8.01414V12.7883V17.5624V22.3365V27.1106V31.8848V36.6589V41.433V46.2071V50.9812V55.7554V60.5295V63.0517" stroke="#A7A9B2" stroke-width="1.2" stroke-linejoin="round"/>
<path d="M276.234 175.422L280.504 177.557L284.775 179.692L289.045 181.827L293.315 183.962L297.585 186.098L301.855 188.233L306.125 190.368L310.395 192.502L314.666 194.637L318.936 196.772L323.206 198.907L327.476 201.042L331.746 203.178L336.016 205.313L340.286 207.448L344.556 209.583L348.826 211.718L353.096 213.853L357.366 215.988L361.637 218.123L365.907 220.258L370.177 222.393L373.343 223.976L375.378 224.599L377.213 224.371L380.453 222.751L381.91 221.695L382.845 219.915L383.168 217.585V212.811V208.037V203.262V198.488V193.714V188.94V184.166V179.392V174.618V169.844V165.069V160.291" stroke="#A7A9B2" stroke-width="1.2" stroke-linejoin="round"/>
<path d="M55.7146 202.012L58.8373 202.4L62.299 201.34L66.569 199.205L70.839 197.07L75.1094 194.935L79.3794 192.8L83.6494 190.665L87.9198 188.53L92.1898 186.395L96.4598 184.26L99.3443 182.818L102.806 180.416L105.929 176.906L108.323 172.775L108.407 172.632L109.961 168.118L109.998 168.011L110.546 163.498V158.724V153.949V149.175V144.401V139.627V134.853V130.079V127.871L109.998 123.905L108.407 120.877L105.929 119.081L101.658 116.946L97.3883 114.811L96.2063 114.219L93.0835 113.832L89.6218 114.891L85.3518 117.026L81.0819 119.161L76.8119 121.296L72.5414 123.431L68.2715 125.567L64.0015 127.702L59.7315 129.837L55.461 131.972L52.5765 133.414L49.1153 135.816L45.9925 139.326L43.5978 143.456L43.5143 143.601L41.9598 148.115L41.9231 148.221L41.375 152.734V157.509V162.283V167.057V171.831V176.605V181.379V186.153V188.361L41.9231 192.326L43.5143 195.355L45.9925 197.151L50.2625 199.286L54.5325 201.421L55.7146 202.012Z" stroke="#A7A9B2" stroke-width="1.2" stroke-linejoin="round"/>
<path d="M383.172 160.291L387.442 162.426L391.712 164.561L395.982 166.696L396.801 167.105L398.296 167.563L399.645 167.395L400.715 166.619L401.402 165.311L401.64 163.598V158.824V154.05V149.275V144.501V139.727V134.953V130.179V125.405V120.631V117.598L401.402 115.648L400.715 113.652L399.645 111.806L398.296 110.29L396.801 109.252L392.53 107.117L388.26 104.982L383.99 102.847L383.172 102.438" stroke="#A7A9B2" stroke-width="1.2" stroke-linejoin="round"/>
<path d="M265.688 195.779L266.798 193.96L267.942 192.021L269.059 190.062L270.146 188.084L271.204 186.089L272.234 184.076L273.232 182.049L274.2 180.007L275.136 177.953L276.04 175.887L276.235 175.422" stroke="#A7A9B2" stroke-width="1.2" stroke-linejoin="round"/>
<path d="M225.56 63.0518L224.757 63.1148L224.563 63.1358L223.029 63.3077L221.483 63.5316L219.927 63.8075L218.36 64.135L216.786 64.5141L216.607 64.5585L215.027 64.9881L213.44 65.4689L211.848 66.0007L210.25 66.5822L208.649 67.2143L208.491 67.2788L206.889 67.9591L205.286 68.6886L203.682 69.4663L202.077 70.2927L200.473 71.1668L198.872 72.0882L197.273 73.0564L197.147 73.1333L195.556 74.1454L193.969 75.2028L192.387 76.3052L190.813 77.4515L189.246 78.6412L187.688 79.8734L186.14 81.1476L184.601 82.4629L183.075 83.8187L181.56 85.2142L181.481 85.2872L179.983 86.718L178.5 88.187L177.031 89.6928L175.578 91.2344L174.141 92.8108L172.723 94.4216L171.323 96.0653L169.942 97.7415L168.581 99.4487L167.242 101.186L165.924 102.952L164.629 104.746L163.357 106.567L162.109 108.415L160.886 110.286L159.689 112.181L158.518 114.099L157.374 116.038L156.258 117.997L155.17 119.975L154.112 121.97L153.083 123.982L152.084 126.01L151.117 128.051L150.18 130.106L149.276 132.172L148.404 134.248L147.566 136.334L146.762 138.427L145.991 140.528L145.255 142.633L144.554 144.743L143.888 146.855L143.258 148.969L142.665 151.083L142.108 153.196L141.588 155.307L141.106 157.414L140.661 159.516L140.254 161.613L139.884 163.702L139.553 165.782L139.261 167.853L139.007 169.912L138.995 170.018L138.78 172.069L138.603 174.107L138.466 176.13L138.368 178.137L138.309 180.127L138.289 182.098L138.309 184.049L138.368 185.98L138.466 187.889L138.603 189.774L138.617 189.92L138.794 191.785L139.009 193.624L139.264 195.437L139.558 197.223L139.891 198.979L140.261 200.705L140.67 202.402L140.713 202.566L141.161 204.233L141.646 205.867L142.169 207.467L142.729 209.032L143.326 210.561L143.397 210.73L143.713 211.474" stroke="#A7A9B2" stroke-width="1.2" stroke-linejoin="round"/>
<path d="M397.074 273.732L396 274.269" stroke="#A7A9B2" stroke-width="1.2" stroke-linejoin="round"/>
<path d="M399.016 280.878L400.09 280.341" stroke="#A7A9B2" stroke-width="1.2" stroke-linejoin="round"/>
</svg>
