<svg width="620" height="440" viewBox="0 0 620 440" fill="none" xmlns="http://www.w3.org/2000/svg">
<path d="M348.117 112.379L348.185 112.92L348.209 113.121L348.117 112.379L348.077 112.06L348.05 111.85L347.885 111.059L347.679 110.426L347.605 110.209L347.348 109.626L347.044 109.084L346.886 108.852L346.534 108.352L346.14 107.903L345.708 107.512L345.287 107.176L344.817 106.841L343.929 106.306L343.426 106.032L341.86 105.186L339.811 104.13L339.512 103.976L337.454 102.937L336.715 102.565L334.65 101.541L333.909 101.174L331.834 100.169L331.532 100.022L329.917 99.2775L328.954 98.8881L328.43 98.683L327.906 98.5467L327.246 98.4331L326.947 98.4458L325.555 98.5311L323.274 98.8614L322.708 98.9435L320.437 99.3365L318.166 99.7295L317.69 99.8118L315.423 100.228L313.155 100.645L311.142 101.014L310.141 101.198L307.875 101.625L305.61 102.051L303.573 102.434L301.307 102.861L301.139 102.892L300.443 103.025L298.179 103.458L295.915 103.89L293.651 104.323L292.122 104.615L289.859 105.054L287.596 105.493L285.333 105.933L284.527 106.089L282.267 106.54L280.006 106.991L279.432 107.105L277.177 107.585L276.473 107.735L274.928 108.121L274.716 108.19L273.866 108.472L273.107 108.767L272.325 109.097L271.527 109.459L270.722 109.849L269.916 110.264L269.119 110.699L268.336 111.15L268.172 111.244L267.417 111.705L266.571 112.27L265.029 113.426L263.217 114.851L262.066 115.756L260.266 117.195L258.465 118.634L256.956 119.841L255.161 121.286L253.365 122.732L251.569 124.177L249.773 125.622L249.335 125.974L247.542 127.423L245.749 128.871L243.956 130.32L242.162 131.768L240.286 133.284L238.495 134.735L236.705 136.187L234.914 137.638L233.123 139.09L231.253 140.605L229.466 142.062L227.68 143.518L225.893 144.974L224.106 146.43L223.681 146.776L221.903 148.243L220.126 149.71L218.654 150.925L216.9 152.42L215.811 153.349L214.431 154.639L214.365 154.704L213.736 155.436L213.248 156.113L212.785 156.828L212.349 157.573L211.945 158.342L211.577 159.128L211.248 159.926L210.96 160.726L210.717 161.523L210.518 162.331L210.358 163.26L210.343 163.369L210.21 164.563L210.099 166.137L210.004 168.187L209.939 170.491L209.935 170.662L209.911 172.967L209.906 173.475L209.927 175.78L209.933 176.539L210 178.843L210.027 179.784L210.139 182.087L210.193 183.203L210.346 185.503L210.433 186.807L210.623 189.104L210.748 190.604L210.974 192.898L211.142 194.603L211.403 196.894L211.621 198.8L211.643 198.991L211.941 201.277L212.215 203.384L212.548 205.665L212.885 207.964L213.256 210.239L213.628 212.514L213.659 212.706L214.074 214.973L214.488 217.241L214.537 217.51L215.001 219.768L215.466 222.026L215.514 222.259L216.041 224.503L216.567 226.747L216.587 226.833L217.192 229.057L217.756 231.137L218.452 233.335L219.031 235.166L219.103 235.38L219.902 237.543L220.498 239.159L221.411 241.276L222.024 242.7L222.131 242.911L222.418 243.483L222.459 243.567L223.147 244.937L223.691 246.019L223.762 246.142L224.01 246.571L224.237 246.961L224.59 247.569L225.492 249.124L226.77 251.042L227.419 252.017L227.579 252.253L228.628 253.632L229.626 254.942L231.136 256.683L231.781 257.427L233.4 259.068L234.036 259.713L235.758 261.245L236.382 261.801L236.802 262.136L238.619 263.555L239.231 264.034L241.135 265.334L241.733 265.742L242.62 266.278L244.603 267.455L245.188 267.802L246.753 268.648L248.802 269.705L249.099 269.858L251.151 270.908L251.724 271.201L253.782 272.239L254.52 272.612L256.586 273.636L257.327 274.003L259.402 275.008L259.704 275.154L261.32 275.899L263.432 276.821L263.987 277.063L264.949 277.452L267.112 278.248L267.637 278.44L269.838 279.124L270.263 279.256L272.493 279.837L272.729 279.898L273.248 280.033L275.452 280.503L277.325 280.808L278.887 280.976L280.185 281.042L281.266 281.039L282.178 280.996L282.457 280.983L283.244 280.902L283.961 280.779L284.658 280.608L285.373 280.388L285.586 280.318L286.318 280.051L287.064 279.739L287.817 279.384L288.57 278.989L288.74 278.892L289.479 278.466L290.204 278.009L290.908 277.526L291.593 277.012L292.3 276.43L293.08 275.734L293.983 274.878L295.059 273.81L295.149 273.719L296.439 272.372L297.993 270.659L299.5 268.915L299.858 268.501L301.328 266.725L302.055 265.847L303.492 264.044L304.51 262.766L305.912 260.937L307.124 259.355L308.488 257.496L309.799 255.71L310.563 254.615L311.883 252.725L312.45 251.912L313.724 249.991L314.997 248.07L315.055 247.984L316.281 246.032L316.937 244.989L316.987 244.909L317.329 244.365L317.603 243.929L318.782 241.948L319.96 239.967L320.087 239.753L321.216 237.743L322.345 235.734L322.498 235.461L323.575 233.424L324.652 231.386L324.825 231.059L325.85 228.994L326.874 226.929L327.062 226.551L328.031 224.459L329 222.368L329.197 221.942L330.109 219.825L331.021 217.708L331.223 217.238L332.076 215.096L332.928 212.954L333.132 212.442L333.922 210.277L334.712 208.112L334.913 207.561L335.638 205.373L336.364 203.185L336.559 202.597L337.218 200.388L337.877 198.179L338.065 197.549L338.418 196.226L339.012 193.998L339.154 193.464L339.44 192.393L339.973 190.151L340.506 187.908L340.699 187.099L341.176 184.844L341.623 182.735L341.855 181.635L342.283 179.37L342.711 177.105L342.92 175.998L343.307 173.725L343.693 171.453L343.892 170.282L344.244 168.004L344.595 165.725L344.767 164.61L344.785 164.488L345.106 162.205L345.426 159.923L345.559 158.976L345.851 156.689L346.143 154.403L346.229 153.73L346.492 151.44L346.756 149.15L346.799 148.769L347.034 146.476L347.269 144.183L347.278 144.093L347.484 141.797L347.672 139.7L347.848 137.402L347.987 135.588L348.131 133.287L348.226 131.745L348.333 129.442L348.392 128.16L348.457 125.856L348.487 124.821L348.507 122.516L348.513 121.73L348.49 119.424L348.485 118.945L348.419 116.641L348.416 116.539L348.321 114.584L348.209 113.121" fill="white"/>
<path d="M348.117 112.379L348.185 112.92L348.209 113.121L348.117 112.379ZM348.117 112.379L348.077 112.06L348.05 111.85L347.885 111.059L347.679 110.426L347.605 110.209L347.348 109.626L347.044 109.084L346.886 108.852L346.534 108.352L346.14 107.903L345.708 107.512L345.287 107.176L344.817 106.841L343.929 106.306L343.426 106.032L341.86 105.186L339.811 104.13L339.512 103.976L337.454 102.937L336.715 102.565L334.65 101.541L333.909 101.174L331.834 100.169L331.532 100.022L329.917 99.2775L328.954 98.8881L328.43 98.683L327.906 98.5467L327.246 98.4331L326.947 98.4458L325.555 98.5311L323.274 98.8614L322.708 98.9435L320.437 99.3365L318.166 99.7295L317.69 99.8118L315.423 100.228L313.155 100.645L311.142 101.014L310.141 101.198L307.875 101.625L305.61 102.051L303.573 102.434L301.307 102.861L301.139 102.892L300.443 103.025L298.179 103.458L295.915 103.89L293.651 104.323L292.122 104.615L289.859 105.054L287.596 105.493L285.333 105.933L284.527 106.089L282.267 106.54L280.006 106.991L279.432 107.105L277.177 107.585L276.473 107.735L274.928 108.121L274.716 108.19L273.866 108.472L273.107 108.767L272.325 109.097L271.527 109.459L270.722 109.849L269.916 110.264L269.119 110.699L268.336 111.15L268.172 111.244L267.417 111.705L266.571 112.27L265.029 113.426L263.217 114.851L262.066 115.756L260.266 117.195L258.465 118.634L256.956 119.841L255.161 121.286L253.365 122.732L251.569 124.177L249.773 125.622L249.335 125.974L247.542 127.423L245.749 128.871L243.956 130.32L242.162 131.768L240.286 133.284L238.495 134.735L236.705 136.187L234.914 137.638L233.123 139.09L231.253 140.605L229.466 142.062L227.68 143.518L225.893 144.974L224.106 146.43L223.681 146.776L221.903 148.243L220.126 149.71L218.654 150.925L216.9 152.42L215.811 153.349L214.431 154.639L214.365 154.704L213.736 155.436L213.248 156.113L212.785 156.828L212.349 157.573L211.945 158.342L211.577 159.128L211.248 159.926L210.96 160.726L210.717 161.523L210.518 162.331L210.358 163.26L210.343 163.369L210.21 164.563L210.099 166.137L210.004 168.187L209.939 170.491L209.935 170.662L209.911 172.967L209.906 173.475L209.927 175.78L209.933 176.539L210 178.843L210.027 179.784L210.139 182.087L210.193 183.203L210.346 185.503L210.433 186.807L210.623 189.104L210.748 190.604L210.974 192.898L211.142 194.603L211.403 196.894L211.621 198.8L211.643 198.991L211.941 201.277L212.215 203.384L212.548 205.665L212.885 207.964L213.256 210.239L213.628 212.514L213.659 212.706L214.074 214.973L214.488 217.241L214.537 217.51L215.001 219.768L215.466 222.026L215.514 222.259L216.041 224.503L216.567 226.747L216.587 226.833L217.192 229.057L217.756 231.137L218.452 233.335L219.031 235.166L219.103 235.38L219.902 237.543L220.498 239.159L221.411 241.276L222.024 242.7L222.131 242.911L222.418 243.483L222.459 243.567L223.147 244.937L223.691 246.019L223.762 246.142L224.01 246.571L224.237 246.961L224.59 247.569L225.492 249.124L226.77 251.042L227.419 252.017L227.579 252.253L228.628 253.632L229.626 254.942L231.136 256.683L231.781 257.427L233.4 259.068L234.036 259.713L235.758 261.245L236.382 261.801L236.802 262.136L238.619 263.555L239.231 264.034L241.135 265.334L241.733 265.742L242.62 266.278L244.603 267.455L245.188 267.802L246.753 268.648L248.802 269.705L249.099 269.858L251.151 270.908L251.724 271.201L253.782 272.239L254.52 272.612L256.586 273.636L257.327 274.003L259.402 275.008L259.704 275.154L261.32 275.899L263.432 276.821L263.987 277.063L264.949 277.452L267.112 278.248L267.637 278.44L269.838 279.124L270.263 279.256L272.493 279.837L272.729 279.898L273.248 280.033L275.452 280.503L277.325 280.808L278.887 280.976L280.185 281.042L281.266 281.039L282.178 280.996L282.457 280.983L283.244 280.902L283.961 280.779L284.658 280.608L285.373 280.388L285.586 280.318L286.318 280.051L287.064 279.739L287.817 279.384L288.57 278.989L288.74 278.892L289.479 278.466L290.204 278.009L290.908 277.526L291.593 277.012L292.3 276.43L293.08 275.734L293.983 274.878L295.059 273.81L295.149 273.719L296.439 272.372L297.993 270.659L299.5 268.915L299.858 268.501L301.328 266.725L302.055 265.847L303.492 264.044L304.51 262.766L305.912 260.937L307.124 259.355L308.488 257.496L309.799 255.71L310.563 254.615L311.883 252.725L312.45 251.912L313.724 249.991L314.997 248.07L315.055 247.984L316.281 246.032L316.937 244.989L316.987 244.909L317.329 244.365L317.603 243.929L318.782 241.948L319.96 239.967L320.087 239.753L321.216 237.743L322.345 235.734L322.498 235.461L323.575 233.424L324.652 231.386L324.825 231.059L325.85 228.994L326.874 226.929L327.062 226.551L328.031 224.459L329 222.368L329.197 221.942L330.109 219.825L331.021 217.708L331.223 217.238L332.076 215.096L332.928 212.954L333.132 212.442L333.922 210.277L334.712 208.112L334.913 207.561L335.638 205.373L336.364 203.185L336.559 202.597L337.218 200.388L337.877 198.179L338.065 197.549L338.418 196.226L339.012 193.998L339.154 193.464L339.44 192.393L339.973 190.151L340.506 187.908L340.699 187.099L341.176 184.844L341.623 182.735L341.855 181.635L342.283 179.37L342.711 177.105L342.92 175.998L343.307 173.725L343.693 171.453L343.892 170.282L344.244 168.004L344.595 165.725L344.767 164.61L344.785 164.488L345.106 162.205L345.426 159.923L345.559 158.976L345.851 156.689L346.143 154.403L346.229 153.73L346.492 151.44L346.756 149.15L346.799 148.769L347.034 146.476L347.269 144.183L347.278 144.093L347.484 141.797L347.672 139.7L347.848 137.402L347.987 135.588L348.131 133.287L348.226 131.745L348.333 129.442L348.392 128.16L348.457 125.856L348.487 124.821L348.507 122.516L348.513 121.73L348.49 119.424L348.485 118.945L348.419 116.641L348.416 116.539L348.321 114.584L348.209 113.121" stroke="#787796" stroke-width="1.2" stroke-linejoin="round"/>
</svg>
