<svg width="386" height="351" viewBox="0 0 386 351" fill="none" xmlns="http://www.w3.org/2000/svg">
<path d="M2.78906 212.646L4.26527 213.384L5.26822 213.825L6.43622 213.833L7.68975 213.409L9.75146 212.378L11.8134 211.347L13.8751 210.316L15.9368 209.285L17.9985 208.254L20.0604 207.223L22.1221 206.193L24.1838 205.162L26.2455 204.131L28.3074 203.1L30.3691 202.069L32.4308 201.038L34.4927 200.007L36.5545 198.976L38.6161 197.946L40.6778 196.915L42.7398 195.884L44.8015 194.853L46.8632 193.822L48.9248 192.791L50.9868 191.76L53.0485 190.729L54.4389 190.034L56.5009 189.003L58.5626 187.972L60.6242 186.941L62.6859 185.911L64.7479 184.88L66.8096 183.849L68.8713 182.818L70.933 181.787L72.9949 180.756L75.0566 179.725L77.1183 178.694L79.1802 177.664L81.2419 176.633L83.3036 175.602L85.3653 174.571L87.4272 173.54L89.4889 172.509L91.5506 171.478L93.6126 170.447L95.6743 169.417L97.736 168.386L99.7977 167.355L101.188 166.66L102.442 165.831L103.61 164.654L104.613 163.21L105.383 161.597L105.866 159.924L106.031 158.307V156.001V153.696V151.391V149.086V146.781V144.476V142.171V139.866V137.56V135.255V132.95V130.645V128.34V127.785V125.48V123.175V120.87V118.565V116.26V113.955V111.65V109.344V107.039V104.734V102.429V100.124V97.8189V95.5137V93.2086V90.9035V88.5984V86.2933V85.5425" stroke="#A7A9B2" stroke-width="1.2" stroke-linejoin="round"/>
<path d="M83.5937 69.7893L81.7199 68.4468L79.8461 67.1043L77.9723 65.7616L76.0984 64.4191L74.2246 63.0766L72.3507 61.7341L70.4769 60.3916L68.6033 59.0491L66.7295 57.7066L64.8557 56.3638L62.9818 55.0213L61.108 53.6788L59.2342 52.3363L57.3603 50.9938L56.8862 50.6541L55.7359 50.1555L54.3969 50.1504L52.9596 50.6388L51.5224 51.5876L50.1831 52.932L49.0329 54.5806L47.8727 56.5724L46.7123 58.5641L45.5519 60.5559L44.3915 62.5475L43.2311 64.5394L42.0707 66.531L40.9103 68.5229L39.7499 70.5147L38.5895 72.5063L37.4291 74.4982L36.2687 76.4898L35.1083 78.4817L33.9482 80.4733L32.7878 82.4651L31.6274 84.457L30.467 86.4486L29.3066 88.4405L28.1462 90.4321L26.9858 92.4239L25.8254 94.4158L24.665 96.4074L23.5046 98.3993L22.3442 100.391L21.1838 102.383L20.0234 104.374L18.8633 106.366L17.7029 108.358L16.5425 110.35L15.3821 112.342L14.2217 114.333L13.0613 116.325L11.9009 118.317L10.7405 120.308L9.5801 122.3L8.41969 124.292L7.25931 126.284L6.0989 128.275L4.93852 130.267L3.77811 132.259L2.61795 134.251L1.36719 136.397V138.702V141.008V143.313V145.618V147.923V150.228V152.533V154.838V157.143V159.448V161.754V164.059V166.364V168.669V170.974V173.279V175.745V178.05V180.355V182.661V184.966V187.271V189.576V191.881V194.186V196.491V198.796V201.101V203.406V205.712V208.017V209.161L1.53223 210.614L2.01608 211.803L2.78574 212.646" stroke="#A7A9B2" stroke-width="1.2" stroke-linejoin="round"/>
<path d="M104.547 84.8047L106.023 85.5428" stroke="#A7A9B2" stroke-width="1.2" stroke-linejoin="round"/>
<path d="M104.556 84.8044L102.682 83.4619L100.808 82.1194L98.9344 80.7769L97.0605 79.4344L95.1867 78.0919L93.3129 76.7492L91.4391 75.4067L89.5652 74.0642L87.6914 72.7217L85.8176 71.3792L83.7891 69.9258" stroke="#A7A9B2" stroke-width="1.2" stroke-linejoin="round"/>
<path d="M240.32 200.365L379.356 269.883L380.511 270.517L381.542 271.199L381.646 271.273L382.553 272.005L383.32 272.776L383.942 273.579L384.019 273.704L384.493 274.535L384.81 275.385L384.998 276.398L384.997 284.428L384.809 285.441L384.492 286.291L384.018 287.123L383.941 287.248L383.319 288.05L382.552 288.821L381.645 289.553L381.541 289.627L380.51 290.309L379.355 290.943L266.514 347.363L265.246 347.941L263.881 348.456L262.427 348.907L260.896 349.288L259.302 349.596L257.657 349.831L255.976 349.988L254.273 350.066H252.563L250.86 349.988L249.179 349.831L247.534 349.596L245.94 349.288L244.409 348.907L242.955 348.456L241.59 347.941L240.322 347.363L65.3295 259.867L64.1737 259.233L63.1431 258.551L63.0389 258.477L62.1326 257.745L61.3649 256.974L60.743 256.171L60.666 256.046L60.1928 255.215L59.8749 254.365L59.7154 253.504L59.6875 253.352V245.322L59.7154 245.17L59.8749 244.309L60.1928 243.459L60.666 242.627L60.743 242.502L61.3649 241.7L62.1326 240.929L63.0389 240.197L63.1431 240.123L64.1737 239.441L65.3295 238.807L145.12 198.912" stroke="#A7A9B2" stroke-width="1.2" stroke-linejoin="round"/>
<path d="M261.412 152.226L263.474 153.257L265.535 154.288L267.597 155.318L269.659 156.349L271.721 157.38L273.782 158.411L275.844 159.442L277.906 160.473L279.968 161.504L282.029 162.535L284.091 163.565L286.153 164.596L288.215 165.627L290.276 166.658L292.338 167.689L294.4 168.72L296.462 169.751L298.523 170.782L300.585 171.812L302.647 172.844L304.709 173.874L306.771 174.905L308.832 175.936L310.894 176.967L312.956 177.998L315.018 179.029L317.079 180.059L319.141 181.091L321.203 182.121L323.265 183.152L325.326 184.183L327.388 185.214L329.45 186.245L331.512 187.276L333.573 188.307L335.635 189.338L337.697 190.368L339.759 191.399L341.821 192.43L343.882 193.461L345.944 194.492L348.006 195.523L350.068 196.554L352.129 197.585L354.191 198.615L356.253 199.646L358.315 200.677L360.376 201.708L362.438 202.739L364.5 203.77L366.562 204.801L368.623 205.832L369.917 206.478L371.934 207.096L373.753 206.87L375.814 205.839L376.882 205.305L378.326 204.259L379.252 202.495L379.568 200.211L379.572 200.185V197.88V195.575V193.269V190.964V188.659V186.354V184.049V181.744V179.439V177.134V174.828V172.523V170.218V167.913V165.608V163.303V160.998V158.693V156.388V154.082V151.777V149.472V147.167V144.862V142.557V140.252V137.947V135.641V133.336V131.031V128.726V126.421V124.116V121.811V119.506V117.201V114.895V112.59V110.285V107.98V105.675V103.37V101.065V98.7596V96.4545V94.1493V91.8442V89.5391V87.234V84.9289V83.2729L379.294 80.9846L379.252 80.6439L378.502 78.4644L378.326 77.9527L377.169 75.9585L376.882 75.4631L375.35 73.7407L375.063 73.4185L373.169 72.1041L373.047 72.0193L370.985 70.9882L368.923 69.9574L366.861 68.9265L364.8 67.8957L362.738 66.8648L360.676 65.834L358.614 64.8031L356.553 63.7723L354.491 62.7412L352.429 61.7103L350.367 60.6795L348.306 59.6486L346.244 58.6178L344.182 57.5869L342.12 56.5559L340.059 55.525L337.997 54.4942L335.935 53.4633L333.873 52.4325L331.811 51.4016L329.75 50.3708L327.688 49.3399L325.626 48.3088L323.564 47.278L321.503 46.2471L319.441 45.2163L317.379 44.1854L315.317 43.1546L313.256 42.1237L311.194 41.0927L309.132 40.0618L307.07 39.031L305.009 38.0001L302.947 36.9693L300.885 35.9384L298.823 34.9076L296.762 33.8765L294.7 32.8456L292.638 31.8148L290.576 30.7839L288.515 29.7531L286.453 28.7222L284.391 27.6914L282.329 26.6606L280.268 25.6295L278.206 24.5986L276.144 23.5678L274.082 22.5369L272.021 21.5061L269.959 20.4752L267.897 19.4444L265.835 18.4133L263.774 17.3825L261.712 16.3516L259.65 15.3208L257.588 14.2899L255.526 13.2591L253.465 12.2282L251.403 11.1974L249.341 10.1663L247.279 9.13543L245.218 8.10458L243.156 7.07373L241.094 6.04288L239.032 5.01203L236.971 3.98118L234.909 2.9501L233.092 2.04189L231.076 1.4248L229.257 1.65048L227.195 2.68133L226.127 3.21519L224.684 4.26126L223.757 6.02559L223.441 8.30904L223.438 8.33532V10.6404V12.9456V15.2507V17.5558V19.8609V22.166V24.4711V26.7763V29.0814V31.3865V33.6916V35.9967V38.3019V40.607V42.9121V45.2172V47.5223V49.8274V52.1326V54.4377V56.7428V59.0253" stroke="#A7A9B2" stroke-width="1.2" stroke-linejoin="round"/>
<path d="M240.32 200.365L240.594 199.929L241.773 197.948L242.951 195.967L243.078 195.753L244.207 193.743L245.336 191.733L245.489 191.461L246.566 189.424L247.643 187.386L247.816 187.059L248.84 184.994L249.865 182.929L250.053 182.551L251.022 180.459L251.991 178.368L252.188 177.942L253.1 175.825L254.012 173.708L254.214 173.238L255.067 171.096L255.919 168.954L256.123 168.442L256.913 166.277L257.703 164.111L257.904 163.561L258.629 161.373L259.355 159.185L259.55 158.597L260.209 156.388L260.868 154.179L261.056 153.549L261.409 152.226" stroke="#A7A9B2" stroke-width="1.2" stroke-linejoin="round"/>
<path d="M223.443 59.0254L221.179 59.4581L218.915 59.8907L216.651 60.3234L215.122 60.6155L212.859 61.0546L210.596 61.4937L208.333 61.9328L207.527 62.0894L205.267 62.5402L203.006 62.9911L202.432 63.1057L200.177 63.5856L199.473 63.7357L197.928 64.1213L197.716 64.1907L196.866 64.4719L196.107 64.7674L195.325 65.0978L194.527 65.4594L193.722 65.8495L192.916 66.2639L192.119 66.6989L191.336 67.15L191.172 67.2445L190.417 67.7051L189.571 68.2708L188.029 69.4265L186.217 70.8513L185.066 71.7559L183.266 73.1954L181.465 74.6347L179.956 75.8412L178.161 77.2865L176.365 78.7319L174.569 80.1769L172.773 81.6222L172.335 81.9747L170.542 83.4232L168.749 84.8715L166.956 86.3201L165.162 87.7684L163.286 89.284L161.495 90.7353L159.705 92.1868L157.914 93.6384L156.123 95.0899L154.253 96.6055L152.466 98.0619L150.68 99.518L148.893 100.974L147.106 102.431L146.681 102.776L144.903 104.244L143.126 105.711L141.654 106.925L139.9 108.421L138.811 109.349L137.431 110.639L137.365 110.704L136.736 111.436L136.248 112.113L135.785 112.828L135.349 113.573L134.945 114.342L134.577 115.129L134.248 115.926L133.96 116.726L133.717 117.523L133.518 118.331L133.358 119.26L133.343 119.369L133.21 120.563L133.099 122.137L133.004 124.187L132.939 126.492L132.935 126.662L132.911 128.967L132.906 129.475L132.927 131.78L132.933 132.54L133 134.844L133.027 135.784L133.139 138.087L133.193 139.204L133.346 141.504L133.433 142.807L133.623 145.104L133.748 146.605L133.974 148.899L134.142 150.604L134.403 152.894L134.621 154.801L134.643 154.991L134.941 157.277L135.215 159.384L135.548 161.665L135.885 163.964L136.256 166.239L136.628 168.514L136.659 168.706L137.074 170.974L137.488 173.241L137.537 173.51L138.001 175.768L138.466 178.026L138.514 178.259L139.041 180.503L139.567 182.748L139.587 182.833L140.192 185.058L140.756 187.137L141.452 189.335L142.031 191.167L142.103 191.381L142.902 193.543L143.498 195.159L144.411 197.276L145.024 198.7L145.131 198.912" stroke="#A7A9B2" stroke-width="1.2" stroke-linejoin="round"/>
</svg>
