<svg width="620" height="440" viewBox="0 0 620 440" fill="none" xmlns="http://www.w3.org/2000/svg">
<path d="M300.007 149.995C300.03 155.805 300.053 161.868 300.122 167.678C300.191 168.669 300.145 170.444 300.352 171.389C300.951 173.856 302.218 176.231 303.992 178.052C305.029 179.135 307.033 179.965 308.323 180.726C325.808 189.694 343.477 198.478 361.054 207.307C379.483 216.552 398.004 225.796 416.457 234.995C423.275 238.407 430.301 241.888 437.143 245.277C440.76 246.937 444.561 249.15 448.316 250.487C449.721 250.718 451.357 249.611 452.555 249.058C454.098 248.389 455.066 247.605 455.55 245.945C455.987 242.095 455.78 237.807 455.872 233.934C455.895 227.94 455.918 221.693 455.918 215.699C455.941 198.662 455.941 181.533 455.941 164.496C455.918 154.445 455.918 144.232 455.849 134.157C455.734 130.953 455.941 127.31 455.526 124.129C455.158 122.561 454.467 120.971 453.591 119.61C452.14 117.351 450.896 116.498 448.546 115.322C445.943 113.916 442.879 112.394 440.253 111.034C430.348 106.009 420.281 100.96 410.352 95.9801C388.813 85.1679 367.204 74.3556 345.619 63.5895C337.764 59.6703 329.724 55.659 321.869 51.7629C318.92 50.2874 315.534 48.6506 312.562 47.1982C311.134 46.5527 309.129 45.4692 307.609 45.0311C306.204 44.8006 304.568 45.9072 303.37 46.4605C301.827 47.1291 300.859 47.9129 300.375 49.5728C299.892 54.2066 300.145 59.2323 300.03 63.8892C299.984 71.4278 299.984 79.197 299.984 86.7356C299.961 107.807 299.961 128.947 300.007 149.995Z" stroke="#A7A9B2" stroke-width="0.6" stroke-linejoin="round"/>
<path d="M450.499 250.049C451.466 249.519 452.111 248.504 452.434 247.467C452.871 243.617 452.664 239.329 452.756 235.456C452.779 229.462 452.802 223.214 452.802 217.22C452.825 200.184 452.825 183.054 452.825 166.018C452.802 155.966 452.802 145.753 452.733 135.679C452.618 132.474 452.825 128.832 452.411 125.65C452.042 124.083 451.351 122.492 450.476 121.132C449.001 118.85 447.78 118.043 445.431 116.844C442.827 115.438 439.764 113.916 437.137 112.556C427.232 107.53 417.165 102.481 407.236 97.5017C385.697 86.6894 364.089 75.8772 342.503 65.1111C334.648 61.1919 326.608 57.1805 318.753 53.2844C315.804 51.809 312.418 50.1722 309.446 48.7198C308.018 48.0743 306.014 46.9907 304.493 46.5527C303.779 46.4835 302.95 46.5988 302.305 46.9677" stroke="#A7A9B2" stroke-width="0.6" stroke-linejoin="round"/>
<path d="M134.259 136.463C132.969 136.901 132.14 138.169 131.887 139.483C131.679 140.774 131.864 142.111 131.887 143.425C132.025 145.892 132.186 148.935 132.324 151.425C132.393 152.047 132.462 153.523 133.038 153.822C133.315 153.938 133.614 153.799 133.845 153.661C134.282 153.407 134.582 152.923 134.743 152.439C135.273 150.71 135.181 148.681 135.365 146.883C135.48 145.223 135.618 143.125 135.734 141.489C135.78 140.29 136.056 137.362 135.181 136.532L135.089 136.463C134.835 136.324 134.513 136.371 134.259 136.463Z" stroke="#A7A9B2" stroke-width="0.6" stroke-linejoin="round"/>
<path d="M135.438 145.846C135.507 144.67 135.645 142.826 135.714 141.673" stroke="#A7A9B2" stroke-width="0.6" stroke-linejoin="round"/>
<path d="M135.227 148.728L135.342 146.883" stroke="#A7A9B2" stroke-width="0.6" stroke-linejoin="round"/>
<path d="M134.053 156.428C132.855 156.889 132.095 158.111 131.842 159.309C131.727 159.978 131.704 160.831 132.21 161.361C132.648 161.776 133.316 161.707 133.823 161.43C134.837 160.9 135.551 159.84 135.758 158.71C135.85 158.134 135.873 157.511 135.62 156.981C135.343 156.428 134.629 156.197 134.053 156.428Z" stroke="#A7A9B2" stroke-width="0.6" stroke-linejoin="round"/>
<path d="M139.282 127.172C138.269 125.65 137.071 123.576 135.873 122.192L135.481 121.893C134.537 121.455 132.901 120.486 131.911 120.21C131.726 120.187 131.335 120.164 131.15 120.21C129.031 120.694 127.879 122.953 127.096 124.797C126.221 126.941 125.138 129.685 124.309 131.829C121.613 138.837 118.849 146.053 116.177 153.085C114.61 157.188 112.952 161.614 111.431 165.741C110.717 168.093 108.989 171.02 110.164 173.441L110.394 173.741L110.648 173.971C111.546 174.432 113.205 175.331 114.149 175.677C114.357 175.723 114.748 175.746 114.956 175.723C115.9 175.608 117.651 174.663 118.549 174.294C120.899 173.164 123.71 171.781 126.059 170.628C132.141 167.608 138.43 164.473 144.489 161.384C146.078 160.554 148.313 159.401 149.879 158.548C150.708 158.087 151.699 157.373 152.275 156.612C153.795 154.814 154.394 152.07 153.15 149.972C148.796 142.249 143.936 134.664 139.282 127.172Z" stroke="#A7A9B2" stroke-width="0.6" stroke-linejoin="round"/>
<path d="M135.499 121.87C135.338 121.777 134.969 121.639 134.762 121.593C134.578 121.57 134.186 121.547 134.002 121.593C131.883 122.077 130.731 124.336 129.948 126.181C129.072 128.325 127.989 131.068 127.16 133.212C124.465 140.221 121.7 147.436 119.028 154.468C117.462 158.571 115.803 162.998 114.283 167.124C113.569 169.476 111.841 172.404 113.016 174.824L113.246 175.124L113.499 175.355L113.799 175.516" stroke="#A7A9B2" stroke-width="0.6" stroke-linejoin="round"/>
<path d="M79.4297 256.158C80.0056 256.458 81.2956 257.103 81.9176 257.334H83.0925C85.5113 256.55 88.2066 254.89 90.5333 253.807C93.8505 252.147 97.5364 250.302 100.831 248.643C110.875 243.617 121.034 238.545 131.078 233.519C141.329 228.378 151.718 223.191 161.993 218.05C165.287 216.39 168.996 214.546 172.29 212.886C174.363 211.78 177.105 210.65 179.063 209.29L180.238 208.114C181.228 206.869 182.173 204.933 182.495 203.388C182.841 199.93 182.587 196.011 182.656 192.553C182.656 187.273 182.656 181.694 182.656 176.415C182.656 160.646 182.656 144.762 182.656 128.993" stroke="#A7A9B2" stroke-width="0.6" stroke-linejoin="round"/>
<path d="M78.0255 179.896C78.0255 196.057 78.0255 212.31 78.0255 228.47C78.0255 233.75 78.0255 239.329 78.0255 244.608C78.0946 247.628 77.8412 251.132 78.1868 254.129L78.6705 255.328L79.4308 256.181" stroke="#A7A9B2" stroke-width="0.6" stroke-linejoin="round"/>
<path d="M80.91 256.896C80.7488 256.712 80.3111 256.251 80.1498 256.043L79.6661 254.844C79.2975 251.455 79.5969 247.582 79.5048 244.17C79.5048 238.891 79.5048 233.312 79.5048 228.033C79.5048 212.264 79.5048 196.38 79.5048 180.611" stroke="#A7A9B2" stroke-width="0.6" stroke-linejoin="round"/>
<path d="M122.3 194.281C112.832 191.261 103.225 188.195 93.7574 185.175C90.2328 184.046 86.2936 182.801 82.792 181.671C81.4098 181.233 79.2904 180.634 78.0234 179.873C88.4359 161.96 98.9176 144.001 109.33 126.088C113.154 119.518 117.093 112.74 120.917 106.17C121.954 104.395 123.359 101.974 124.396 100.199C125.294 98.5619 126.677 96.2796 128.128 95.0578L129.556 94.1126L130.984 93.6284H132.321L133.472 94.1356C149.321 105.501 165.263 116.913 181.112 128.301L182.586 129.039C168.534 147.574 154.459 166.156 140.429 184.691" stroke="#A7A9B2" stroke-width="0.6" stroke-linejoin="round"/>
<path d="M182.612 201.797C166.993 195.457 151.305 189.071 135.686 182.732L134.534 182.501L133.198 182.662L131.747 183.216C130.319 183.953 128.729 185.383 127.785 186.674C126.587 188.334 124.928 190.616 123.73 192.276C120.159 197.209 116.405 202.373 112.834 207.33C101.73 222.661 90.5806 238.061 79.5 253.368" stroke="#A7A9B2" stroke-width="0.6" stroke-linejoin="round"/>
<path d="M427.101 225.497C427.446 226.488 428.16 228.447 428.506 229.439C427.93 227.871 427.147 225.658 426.571 224.09C427.285 224.298 429.174 224.805 429.842 224.989C429.934 225.012 430.072 225.035 430.165 225.012C430.234 225.012 432.215 223.975 432.284 223.952C432.399 223.837 432.86 223.744 432.906 223.56C433.113 223.168 432.952 222.661 432.722 222.315C431.892 221.209 430.625 219.572 429.796 218.465C427.631 215.676 425.373 212.586 423.162 209.82C423 209.682 422.793 209.566 422.586 209.589C422.563 209.589 422.493 209.612 422.47 209.635L420.42 210.673C420.259 210.788 419.844 210.88 419.775 211.111C419.614 211.526 419.729 212.056 419.706 212.494C419.729 216.69 419.683 221.185 419.729 225.381C419.821 225.888 420.19 226.511 420.766 226.557C421.319 226.373 423.046 225.45 423.553 225.197" stroke="#A7A9B2" stroke-width="0.6" stroke-linejoin="round"/>
<path d="M426.704 218.88C424.792 216.39 422.741 213.67 420.829 211.18C420.645 210.949 420.323 210.719 420 210.857" stroke="#A7A9B2" stroke-width="0.6" stroke-linejoin="round"/>
<path d="M419.727 219.987C419.727 219.249 419.727 217.29 419.727 216.598" stroke="#A7A9B2" stroke-width="0.6" stroke-linejoin="round"/>
<path d="M428.753 221.554C428.247 220.886 427.21 219.525 426.703 218.857" stroke="#A7A9B2" stroke-width="0.6" stroke-linejoin="round"/>
<path d="M429.514 222.568C428.823 221.646 427.394 219.802 426.703 218.88C427.486 219.917 428.73 221.531 429.514 222.568Z" stroke="#A7A9B2" stroke-width="0.6" stroke-linejoin="round"/>
<path d="M420.969 226.465C420.992 226.442 421.038 226.419 421.061 226.396" stroke="#A7A9B2" stroke-width="0.6" stroke-linejoin="round"/>
<path d="M429.862 224.989C430.162 225.865 430.784 227.548 431.083 228.424C431.152 228.678 431.153 228.978 431.014 229.185L430.968 229.254L430.899 229.3C430.508 229.508 428.665 230.407 428.319 230.591C427.674 230.707 426.891 230.845 426.246 230.914C425.785 230.868 425.486 230.43 425.324 230.038C424.748 228.447 423.919 226.165 423.366 224.574C422.629 225.151 421.8 225.796 421.062 226.372C421.132 226.303 421.316 226.188 421.385 226.119" stroke="#A7A9B2" stroke-width="0.6" stroke-linejoin="round"/>
<path d="M430.207 223.468C430.092 223.307 429.654 222.73 429.516 222.569C429.838 223.03 430.529 223.722 430.529 224.321C430.552 224.575 430.483 224.874 430.253 224.99" stroke="#A7A9B2" stroke-width="0.6" stroke-linejoin="round"/>
<path d="M427.815 227.479C427.538 226.696 426.87 224.851 426.594 224.067L426.893 224.92C426.801 224.69 426.663 224.298 426.594 224.067" stroke="#A7A9B2" stroke-width="0.6" stroke-linejoin="round"/>
<path d="M427.578 226.811C427.463 226.488 427.232 225.819 427.117 225.497" stroke="#A7A9B2" stroke-width="0.6" stroke-linejoin="round"/>
<path d="M428.338 230.615L428.407 230.569L428.476 230.523L428.522 230.454C428.775 230.039 428.545 229.554 428.407 229.139C427.992 228.01 427.508 226.65 427.094 225.52" stroke="#A7A9B2" stroke-width="0.6" stroke-linejoin="round"/>
<path d="M432.031 221.324C432.169 221.485 432.607 222.061 432.722 222.223" stroke="#A7A9B2" stroke-width="0.6" stroke-linejoin="round"/>
<path d="M429.859 224.989L430.067 225.566L429.859 224.989Z" stroke="#A7A9B2" stroke-width="0.6" stroke-linejoin="round"/>
<path d="M431.011 228.171C430.942 228.01 430.389 226.419 430.32 226.234C430.505 226.719 430.735 227.387 430.919 227.871" stroke="#A7A9B2" stroke-width="0.6" stroke-linejoin="round"/>
<path d="M314.312 60.9847L313.552 60.685L312.815 60.5928L312.124 60.708L311.525 61.0077L311.041 61.4919L310.673 62.1374L310.442 62.9212C310.074 65.8952 311.709 69.1688 314.312 70.6212L315.073 70.9209L315.81 71.0131L316.501 70.8978L317.1 70.5981L317.584 70.114L317.952 69.4685L318.183 68.6847C318.551 65.7338 316.916 62.4601 314.312 60.9847Z" stroke="#A7A9B2" stroke-width="0.6" stroke-linejoin="round"/>
<path d="M325.211 66.4481L324.451 66.1484L323.714 66.0562L323.022 66.1714L322.423 66.4711L321.94 66.9553L321.571 67.6008L321.341 68.3846C320.972 71.3585 322.608 74.6322 325.211 76.0846L325.971 76.3843L326.708 76.4765L327.399 76.3612L327.998 76.0615L328.482 75.5774L328.851 74.9319L329.081 74.148C329.45 71.1741 327.814 67.9235 325.211 66.4481Z" stroke="#A7A9B2" stroke-width="0.6" stroke-linejoin="round"/>
<path d="M336.102 71.889L335.341 71.5893L334.604 71.4971L333.913 71.6123L333.314 71.912L332.83 72.3962L332.462 73.0417L332.231 73.8255C331.863 76.7995 333.498 80.0731 336.102 81.5255L336.862 81.8252L337.599 81.9174L338.29 81.8021L338.889 81.5024L339.373 81.0183L339.741 80.3728L339.972 79.589C340.34 76.6381 338.705 73.3644 336.102 71.889Z" stroke="#A7A9B2" stroke-width="0.6" stroke-linejoin="round"/>
<path d="M310.649 83.8769C310.649 101.513 310.649 119.265 310.649 136.901C310.649 142.964 310.649 149.281 310.649 155.344C310.741 158.41 310.441 161.983 310.833 165.026L311.34 166.364L312.1 167.47L312.975 168.162C332.326 177.844 351.746 187.573 371.096 197.256L371.972 197.44L372.732 197.094L373.239 196.264C373.561 194.628 373.377 192.138 373.423 190.478C373.423 187.596 373.423 184.138 373.423 181.256C373.423 172.865 373.423 164.289 373.423 155.897C373.423 146.745 373.423 137.385 373.423 128.232C373.423 125.351 373.423 121.893 373.423 119.011C373.4 117.582 373.515 115.345 373.239 113.939L372.732 112.602L371.972 111.495L371.096 110.804C351.746 101.121 332.326 91.3924 312.975 81.7098L312.1 81.5254L311.34 81.8712L310.833 82.7011L310.649 83.8769Z" stroke="#A7A9B2" stroke-width="0.6" stroke-linejoin="round"/>
<path d="M384.367 123.898V125.028L384.69 126.181L385.496 126.987C403.257 135.863 421.087 144.785 438.826 153.684H439.632L439.954 152.877V151.747L439.632 150.595L438.826 149.788C421.064 140.912 403.234 131.99 385.496 123.091H384.69L384.367 123.898Z" stroke="#A7A9B2" stroke-width="0.6" stroke-linejoin="round"/>
<path d="M384.367 133.881V135.01L384.69 136.163L385.496 136.97C403.257 145.846 421.087 154.767 438.826 163.666H439.632L439.954 162.859V161.73L439.632 160.577L438.826 159.77C421.064 150.894 403.234 141.973 385.496 133.074H384.69L384.367 133.881Z" stroke="#A7A9B2" stroke-width="0.6" stroke-linejoin="round"/>
<path d="M384.367 143.886V145.016L384.69 146.168L385.496 146.975C403.257 155.851 421.087 164.773 438.826 173.672H439.632L439.954 172.865V171.735L439.632 170.582L438.826 169.775C421.064 160.9 403.234 151.978 385.496 143.079H384.69L384.367 143.886Z" stroke="#A7A9B2" stroke-width="0.6" stroke-linejoin="round"/>
<path d="M431.224 220.286L432.03 220.425C432.836 219.987 434.587 219.249 435.255 218.65L435.532 217.566C435.532 213.071 435.532 208.206 435.532 203.711L435.255 202.351L434.518 201.106L433.528 200.276C423.023 195.019 412.403 189.694 401.898 184.438L400.908 184.276C400.102 184.714 398.351 185.452 397.683 186.052L397.406 187.135C397.406 191.631 397.406 196.495 397.406 200.99L397.683 202.351L398.42 203.595L399.41 204.425C406.114 207.791 413.025 211.226 419.729 214.592" stroke="#A7A9B2" stroke-width="0.6" stroke-linejoin="round"/>
<path d="M432.032 220.425L432.769 219.894L433.046 218.811C433.046 214.315 433.046 209.451 433.046 204.955L432.769 203.595L432.032 202.35L431.042 201.52C420.537 196.264 409.917 190.939 399.412 185.682L398.422 185.521" stroke="#A7A9B2" stroke-width="0.6" stroke-linejoin="round"/>
<path d="M135.317 206.593V206.616C133.843 205.993 132.23 206.823 131.078 207.745C128.429 210.051 126.379 214.708 128.153 218.027L128.498 218.488L128.913 218.857L129.374 219.134L129.904 219.295L130.48 219.364C132.806 219.295 134.649 217.382 135.778 215.514C135.87 215.699 136.008 215.929 136.147 216.068L136.308 216.183L136.492 216.275L136.676 216.321C137.874 216.414 139.003 215.561 139.855 214.8C142.827 211.918 142.689 205.555 141.053 202.005L140.431 201.06L139.671 200.345L138.773 199.861L137.736 199.584L136.584 199.538C127.554 200.552 120.758 212.794 123.062 221.232C124.214 225.105 127.6 226.742 131.355 225.312C134.096 224.252 136.423 222.062 138.128 219.71C138.012 219.572 137.805 219.318 137.69 219.203" stroke="#A7A9B2" stroke-width="0.6" stroke-linejoin="round"/>
<path d="M138.103 219.71C137.872 219.433 137.504 218.995 137.273 218.719" stroke="#A7A9B2" stroke-width="0.6" stroke-linejoin="round"/>
<path d="M136.977 218.373C137.069 218.488 137.253 218.696 137.345 218.811" stroke="#A7A9B2" stroke-width="0.6" stroke-linejoin="round"/>
<path d="M137.371 218.834L137.279 218.742C137.209 218.673 137.048 218.465 136.979 218.396C135.62 220.264 133.754 222.039 131.566 222.892C128.571 224.045 125.829 222.707 124.931 219.618C123.088 212.771 128.548 203.112 135.827 202.189H136.749L137.555 202.397L138.269 202.789L138.868 203.365L139.352 204.126C140.135 205.786 140.25 207.884 140.204 209.682C140.158 211.273 139.72 213.048 138.062 213.67L137.901 213.693L137.762 213.67L137.647 213.601L137.555 213.463C137.256 212.771 137.325 211.895 137.279 211.134C137.279 209.106 137.279 206.454 137.279 204.426L135.32 205.417C135.32 205.74 135.32 206.109 135.32 206.431" stroke="#A7A9B2" stroke-width="0.6" stroke-linejoin="round"/>
<path d="M137.07 218.465C137.232 218.649 137.531 219.018 137.692 219.226" stroke="#A7A9B2" stroke-width="0.6" stroke-linejoin="round"/>
<path d="M133.864 209.036L134.187 209.129L134.463 209.29L134.717 209.52L134.924 209.797C136.26 212.172 134.002 216.644 131.238 216.782L130.892 216.736L130.57 216.644L130.293 216.483L130.04 216.252L129.833 215.976C128.497 213.601 130.754 209.129 133.519 208.99L133.864 209.036Z" stroke="#A7A9B2" stroke-width="0.6" stroke-linejoin="round"/>
<path d="M135.32 205.44C135.32 205.809 135.32 206.247 135.32 206.616" stroke="#A7A9B2" stroke-width="0.6" stroke-linejoin="round"/>
<path d="M300.007 149.995C300.03 155.805 300.053 161.868 300.122 167.678C300.191 168.669 300.145 170.444 300.352 171.389C300.951 173.856 302.218 176.231 303.992 178.052C305.029 179.135 307.033 179.965 308.323 180.726C325.808 189.694 343.477 198.478 361.054 207.307C379.483 216.552 398.004 225.796 416.457 234.995C423.275 238.407 430.301 241.888 437.143 245.277C440.76 246.937 444.561 249.15 448.316 250.487C449.721 250.718 451.357 249.611 452.555 249.058C454.098 248.389 455.066 247.605 455.55 245.945C455.987 242.095 455.78 237.807 455.872 233.934C455.895 227.94 455.918 221.693 455.918 215.699C455.941 198.662 455.941 181.533 455.941 164.496C455.918 154.445 455.918 144.232 455.849 134.157C455.734 130.953 455.941 127.31 455.526 124.129C455.158 122.561 454.467 120.971 453.591 119.61C452.14 117.351 450.896 116.498 448.546 115.322C445.943 113.916 442.879 112.394 440.253 111.034C430.348 106.009 420.281 100.96 410.352 95.9801C388.813 85.1679 367.204 74.3556 345.619 63.5895C337.764 59.6703 329.724 55.659 321.869 51.7629C318.92 50.2874 315.534 48.6506 312.562 47.1982C311.134 46.5527 309.129 45.4692 307.609 45.0311C306.204 44.8006 304.568 45.9072 303.37 46.4605C301.827 47.1291 300.859 47.9129 300.375 49.5728C299.892 54.2066 300.145 59.2323 300.03 63.8892C299.984 71.4278 299.984 79.197 299.984 86.7356C299.961 107.807 299.961 128.947 300.007 149.995Z" stroke="#A7A9B2" stroke-width="1.2" stroke-linejoin="round"/>
<path d="M79.4297 256.158C80.0056 256.458 81.2956 257.103 81.9176 257.334H83.0925C85.5113 256.55 88.2066 254.89 90.5333 253.807C93.8505 252.147 97.5364 250.302 100.831 248.643C110.875 243.617 121.034 238.545 131.078 233.519C141.329 228.378 151.718 223.191 161.993 218.05C165.287 216.39 168.996 214.546 172.29 212.886C174.363 211.78 177.105 210.65 179.063 209.29L180.238 208.114C181.228 206.869 182.173 204.933 182.495 203.388C182.841 199.93 182.587 196.011 182.656 192.553C182.656 187.273 182.656 181.694 182.656 176.415C182.656 160.646 182.656 144.762 182.656 128.993" stroke="#A7A9B2" stroke-width="1.2" stroke-linejoin="round"/>
<path d="M181.137 128.301C165.288 116.936 149.347 105.524 133.498 94.1356L132.346 93.6284H131.01L129.582 94.1126L128.153 95.0578C126.725 96.2566 125.389 98.4236 124.514 100.037C123.477 101.813 122.072 104.233 121.035 106.008C117.211 112.579 113.272 119.357 109.448 125.927C98.9892 143.886 88.5076 161.914 78.049 179.873C78.049 196.034 78.049 212.287 78.049 228.447C78.049 233.727 78.049 239.306 78.049 244.585C78.1181 247.605 77.8647 251.109 78.2102 254.106L78.694 255.305L79.4542 256.158" stroke="#A7A9B2" stroke-width="1.2" stroke-linejoin="round"/>
<path d="M181.133 128.302L182.607 129.039" stroke="#A7A9B2" stroke-width="1.2" stroke-linejoin="round"/>
</svg>
