<svg width="385" height="350" viewBox="0 0 385 350" fill="none" xmlns="http://www.w3.org/2000/svg">
<path d="M56.6296 91.9673L56.454 92.0349L56.2677 92.1213L56.1121 92.2043L55.9616 92.2954L55.8164 92.3945L55.676 92.5017L55.5407 92.6167L55.4107 92.74L55.2855 92.8712L55.1657 93.0104L55.0509 93.1579L54.9411 93.3133L54.8365 93.4767L54.7371 93.6485L54.6445 93.8257L54.5596 94.0071L54.4831 94.1932L54.4144 94.3831L54.354 94.5777L54.3015 94.7764L54.2572 94.9792L54.2208 95.1864L54.1927 95.3978L54.1724 95.6136L54.1604 95.8335L54.1562 96.0578L54.1572 96.2325L54.1597 96.4245L54.1636 96.6338L54.1696 96.8602L54.177 97.1036L54.186 97.3641L54.1968 97.6419L54.2093 97.9367L54.2233 98.2488L54.2392 98.5777L54.2568 98.924L54.2759 99.2872L54.4052 101.589L54.5343 103.89L54.6634 106.192L54.7037 106.912L54.7249 107.15L54.7482 107.375L54.7738 107.589L54.8017 107.791L54.8317 107.981L54.8642 108.159L54.8987 108.326L54.9354 108.48L54.9746 108.622L55.0158 108.753L55.0594 108.871L55.1051 108.977L55.1548 109.072L55.2106 109.152L55.2726 109.22L55.3409 109.273L55.4151 109.314L55.4955 109.341L55.582 109.354H55.6749L55.7737 109.341L55.8786 109.314L55.9897 109.274L56.1071 109.22L56.2223 109.158L56.3318 109.087L56.436 109.008L56.5344 108.921L56.6276 108.827L56.7149 108.725L56.7968 108.614L56.8733 108.496L56.9441 108.37L57.0093 108.236L57.0688 108.094L57.1229 107.945L57.1727 107.786L57.2198 107.621L57.2635 107.447L57.3046 107.266L57.3424 107.077L57.3774 106.88L57.4092 106.675L57.4383 106.462L57.4641 106.242L57.4872 106.014L57.5072 105.778L57.5243 105.534L57.5356 105.369L57.5669 104.915L57.6142 104.228L57.7405 102.391L57.8117 101.356L57.9502 99.3442L58.0567 97.797L58.0991 97.1781L58.1141 96.9858L58.1275 96.7945L58.1397 96.6041L58.1508 96.4148L58.1605 96.2267L58.169 96.0393L58.1762 95.8533L58.1819 95.6682L58.1865 95.484L58.1898 95.3012L58.1916 95.1194L58.1923 94.9386L58.1895 94.6408L58.1815 94.3575L58.1681 94.0887L58.1492 93.8347L58.125 93.595L58.0952 93.37L58.0602 93.1596L58.0199 92.9636L57.9742 92.7824L57.9231 92.6158L57.8666 92.4636L57.8048 92.3263L57.735 92.2057L57.6547 92.1038L57.5637 92.0208L57.462 91.9568L57.3498 91.9116L57.2269 91.8851L57.0934 91.8774L56.9496 91.8885L56.7949 91.9185L56.6296 91.9673Z" stroke="#A7A9B2" stroke-width="0.6" stroke-linejoin="round"/>
<path d="M57.8047 101.356L57.9432 99.3443L58.0497 97.7972L58.0921 97.1782" stroke="#A7A9B2" stroke-width="0.6" stroke-linejoin="round"/>
<path d="M57.6172 104.227L57.7435 102.39" stroke="#A7A9B2" stroke-width="0.6" stroke-linejoin="round"/>
<path d="M56.4346 111.941L56.2995 111.993L56.1608 112.058L56.0222 112.132L55.8874 112.215L55.756 112.305L55.6283 112.403L55.5043 112.51L55.3837 112.624L55.2669 112.747L55.1537 112.878L55.044 113.017L54.9381 113.164L54.8358 113.319L54.7371 113.482L54.6443 113.649L54.5596 113.816L54.4831 113.984L54.4144 114.152L54.354 114.319L54.3015 114.488L54.2572 114.656L54.2208 114.824L54.1927 114.993L54.1724 115.162L54.1604 115.331L54.1562 115.5L54.1606 115.688L54.1731 115.864L54.1943 116.029L54.2238 116.183L54.2618 116.326L54.3082 116.457L54.363 116.576L54.4262 116.685L54.4981 116.781L54.5783 116.867L54.6671 116.941L54.7641 117.003L54.8667 117.056L54.9723 117.097L55.0806 117.128L55.1922 117.148L55.3063 117.158L55.4236 117.158L55.5437 117.147L55.6666 117.126L55.7924 117.094L55.9213 117.053L56.0529 117L56.1873 116.937L56.3196 116.867L56.4492 116.788L56.5757 116.702L56.6995 116.609L56.8208 116.507L56.939 116.398L57.0545 116.281L57.1672 116.157L57.2769 116.025L57.3841 115.885L57.4885 115.737L57.5902 115.583L57.6863 115.422L57.7741 115.258L57.8537 115.092L57.9249 114.924L57.9876 114.753L58.0418 114.579L58.0879 114.403L58.1254 114.224L58.1547 114.042L58.1755 113.858L58.1882 113.671L58.1923 113.482L58.1882 113.317L58.1757 113.16L58.1552 113.011L58.1261 112.871L58.089 112.74L58.0434 112.616L57.9897 112.501L57.9279 112.395L57.8576 112.296L57.779 112.206L57.6923 112.125L57.5973 112.052L57.4964 111.988L57.3922 111.937L57.2843 111.896L57.1732 111.868L57.0589 111.851L56.9409 111.846L56.8193 111.852L56.6947 111.87L56.5665 111.9L56.4346 111.941Z" stroke="#A7A9B2" stroke-width="0.6" stroke-linejoin="round"/>
<path d="M75.5039 104.974L74.2937 103.012L73.0837 101.05L71.8736 99.0878L70.6636 97.1259L69.4534 95.164L68.2432 93.2022L67.0333 91.24L65.8231 89.2782L64.6131 87.3163L63.403 85.3544L62.1928 83.3923L60.9828 81.4304L59.7726 79.4685L59.2113 78.5582L57.9207 77.2145L55.859 76.1837L55.0829 75.7955L53.5656 75.5083L51.9707 76.3059L50.4871 78.0702L50.4535 78.1101L49.4395 80.1801L49.1631 80.7441L48.3415 82.8978L47.5198 85.0517L46.6982 87.2054L45.8767 89.3591L45.0551 91.5127L44.2334 93.6666L43.4118 95.8203L42.5903 97.974L41.7685 100.128L40.947 102.281L40.1254 104.435L39.3036 106.589L38.4821 108.743L37.6605 110.896L36.8388 113.05L36.0172 115.204L35.1957 117.357L34.3739 119.511L33.5524 121.665L32.8705 123.452L32.2543 125.674L32.1094 126.196L32.1285 128.319L32.9261 129.611L34.9878 130.642L35.7641 131.031L37.262 131.368L39.3135 130.716L41.3753 129.685L43.4372 128.655L45.4989 127.624L47.5606 126.593L49.6223 125.562L51.6842 124.531L53.7459 123.5L55.8076 122.469L57.8695 121.438L59.9312 120.408L61.9929 119.377L64.0546 118.346L66.1165 117.315L68.1782 116.284L70.2399 115.253L71.8989 114.424L73.803 113.124L73.9505 113.024L75.408 111.238L75.4483 111.189L76.2459 109.098L76.265 106.956L75.5039 104.974Z" stroke="#A7A9B2" stroke-width="0.6" stroke-linejoin="round"/>
<path d="M57.9108 77.2149L56.3938 76.9277L54.7986 77.7253L53.3153 79.4896L53.2816 79.5295L52.2676 81.5995L51.9912 82.1636L51.1697 84.3173L50.3479 86.4712L49.5263 88.6248L48.7048 90.7785L47.883 92.9322L47.0615 95.0861L46.24 97.2397L45.4182 99.3934L44.5966 101.547L43.7751 103.701L42.9533 105.855L42.1318 108.008L41.3102 110.162L40.4887 112.316L39.6669 114.469L38.8454 116.623L38.0238 118.777L37.202 120.931L36.3805 123.084L35.6987 124.872L35.0825 127.093L34.9375 127.616L34.9566 129.738L35.7542 131.031" stroke="#A7A9B2" stroke-width="0.6" stroke-linejoin="round"/>
<path d="M1.78906 211.646L3.26527 212.384L4.26822 212.825L5.43622 212.833L6.68975 212.409L8.75146 211.378L10.8134 210.347L12.8751 209.316L14.9368 208.285L16.9985 207.254L19.0604 206.223L21.1221 205.193L23.1838 204.162L25.2455 203.131L27.3074 202.1L29.3691 201.069L31.4308 200.038L33.4927 199.007L35.5545 197.976L37.6161 196.946L39.6778 195.915L41.7398 194.884L43.8015 193.853L45.8632 192.822L47.9248 191.791L49.9868 190.76L52.0485 189.729L53.4389 189.034L55.5009 188.003L57.5626 186.972L59.6242 185.941L61.6859 184.911L63.7479 183.88L65.8096 182.849L67.8713 181.818L69.933 180.787L71.9949 179.756L74.0566 178.725L76.1183 177.694L78.1802 176.664L80.2419 175.633L82.3036 174.602L84.3653 173.571L86.4272 172.54L88.4889 171.509L90.5506 170.478L92.6126 169.447L94.6743 168.417L96.736 167.386L98.7977 166.355L100.188 165.66L101.442 164.831L102.61 163.654L103.613 162.21L104.383 160.597L104.866 158.924L105.031 157.307V155.001V152.696V150.391V148.086V145.781V143.476V141.171V138.866V136.56V134.255V131.95V129.645V127.34V126.785V124.48V122.175V119.87V117.565V115.26V112.955V110.65V108.344V106.039V103.734V101.429V99.124V96.8189V94.5137V92.2086V89.9035V87.5984V85.2933V84.5425" stroke="#A7A9B2" stroke-width="0.6" stroke-linejoin="round"/>
<path d="M0.367188 135.397V137.703V140.008V142.313V144.618V146.923V149.228V151.533V153.838V156.144V158.449V160.754V163.059V165.364V167.669V169.974V172.279V174.745V177.05V179.356V181.661V183.966V186.271V188.576V190.881V193.186V195.491V197.796V200.102V202.407V204.712V207.017V208.162L0.532235 209.614L1.01608 210.803L1.78574 211.646" stroke="#A7A9B2" stroke-width="0.6" stroke-linejoin="round"/>
<path d="M3.26233 212.384L2.99262 212.089L2.49266 211.541L2.00881 210.352L1.84375 208.899V206.594V204.289V201.984V199.679V197.374V195.069V192.763V190.458V188.153V185.848V183.543V181.238V178.933V178.378V176.073V173.768V171.463V169.158V166.853V164.547V162.242V159.937V157.632V155.327V153.022V150.717V148.412V146.107V143.801V141.496V139.191V136.886V136.135" stroke="#A7A9B2" stroke-width="0.6" stroke-linejoin="round"/>
<path d="M103.561 83.8047L105.037 84.5428L103.645 86.3795L103.561 86.4895L102.168 88.3264L100.776 90.1631L99.3828 91.9998L97.9901 93.8366L96.5973 95.6733L95.2046 97.5102L93.8118 99.3469L92.4191 101.184L91.0263 103.02L89.6333 104.857L88.2406 106.694L86.8478 108.531L85.4551 110.367L84.0623 112.204L82.6696 114.041L81.2768 115.878L79.8841 117.715L78.4913 119.552L77.0984 121.388L75.7056 123.225L74.3129 125.062L72.9201 126.899L71.5273 128.735L70.1346 130.572L68.7418 132.409L67.3491 134.246L65.9561 136.082L64.5634 137.919L62.8438 140.187" stroke="#A7A9B2" stroke-width="0.6" stroke-linejoin="round"/>
<path d="M44.6715 149.788L42.4755 149.088L40.2792 148.388L38.0831 147.688L35.8867 146.988L33.6904 146.288L31.4944 145.588L29.298 144.887L27.1019 144.187L24.9056 143.487L22.7093 142.787L20.5132 142.087L18.3169 141.387L16.1208 140.687L13.9245 139.987L11.7282 139.286L9.53211 138.586L7.33578 137.886L5.1397 137.186L2.94339 136.486L1.84337 136.135L0.367188 135.397L1.52758 133.406L2.68798 131.414L3.84836 129.422L5.00877 127.43L6.16918 125.438L7.32956 123.447L8.48997 121.455L9.65035 119.463L10.8108 117.472L11.9711 115.48L13.1316 113.488L14.2917 111.496L15.4521 109.505L16.6125 107.513L17.7729 105.521L18.9333 103.529L20.0937 101.537L21.2541 99.5458L22.4145 97.5539L23.5749 95.5623L24.7353 93.5705L25.8957 91.5786L27.0561 89.587L28.2165 87.5951L29.3769 85.6035L30.537 83.6117L31.6974 81.6201L32.8578 79.6282L34.0182 77.6363L35.1786 75.6447L36.339 73.6529L37.4994 71.6613L38.6598 69.6694L39.8202 67.6775L40.9806 65.6859L42.141 63.6941L43.3014 61.7025L44.4618 59.7106L45.622 57.719L46.7823 55.7271L48.0329 53.5806L49.1831 51.932L50.5224 50.5876L51.9596 49.6388L53.3969 49.1504L54.7359 49.1555L55.8862 49.6541L57.76 50.9966L59.6338 52.3391L61.5074 53.6816L63.3813 55.0241L65.2551 56.3668L67.1289 57.7093L69.0027 59.0518L70.8766 60.3943L72.7504 61.7368L74.6243 63.0793L76.4981 64.4218L78.3719 65.7643L80.2457 67.107L82.1196 68.4495L82.5937 68.7893" stroke="#A7A9B2" stroke-width="0.6" stroke-linejoin="round"/>
<path d="M103.556 83.8044L101.682 82.4619L99.8082 81.1194L97.9344 79.7769L96.0605 78.4344L94.1867 77.0919L92.3129 75.7492L90.4391 74.4067L88.5652 73.0642L86.6914 71.7217L84.8176 70.3792L82.7891 68.9258" stroke="#A7A9B2" stroke-width="0.6" stroke-linejoin="round"/>
<path d="M105.028 157.307L103.538 156.702L101.403 155.835L99.2666 154.969L97.1307 154.102L94.9945 153.235L92.8586 152.369L90.7227 151.502L88.5865 150.636L86.4506 149.769L84.3147 148.902L82.1785 148.036L80.0426 147.169L77.9067 146.302L75.7705 145.435L73.6346 144.569L71.4987 143.702L69.3628 142.835L67.2266 141.969L65.0907 141.102L62.8347 140.187L60.6987 139.32L58.5626 138.453L58.0707 138.254L56.9255 138.033L55.5853 138.205L54.1409 138.757L52.6914 139.652L51.3351 140.829L50.1646 142.207L48.8119 144.074L47.4595 145.94L46.1071 147.807L44.7547 149.674L44.6719 149.788L43.3195 151.654L41.9671 153.521L40.6147 155.388L39.262 157.254L37.9096 159.121L36.5572 160.988L35.2048 162.854L33.8524 164.721L32.4998 166.588L31.1473 168.454L29.7949 170.321L28.4425 172.187L27.0901 174.054L25.7375 175.921L24.3851 177.787L23.0326 179.654L21.6802 181.521L20.3276 183.388L18.9752 185.254L17.6228 187.121L16.2704 188.987L14.9179 190.854L13.5653 192.721L12.2129 194.587L10.8605 196.454L9.50804 198.321L8.15564 200.187L6.80299 202.054L5.45059 203.921L4.09816 205.787L2.74576 207.654L1.84375 208.899" stroke="#A7A9B2" stroke-width="0.6" stroke-linejoin="round"/>
<path d="M349.665 180.99L350.381 182.977L351.081 184.922L350.382 182.98L350.38 182.974L349.67 181.006L349.667 180.998L349.155 179.575L351.376 180.191L352.437 180.485L352.437 180.485H352.437L352.49 180.5L352.564 180.516L352.635 180.521L352.703 180.517L352.767 180.503L352.826 180.48L354.888 179.449L355.33 179.228L355.384 179.196L355.434 179.155L355.479 179.106L355.518 179.048L355.55 178.983L355.576 178.91L355.595 178.829L355.607 178.743L355.61 178.653L355.607 178.56L355.596 178.465L355.578 178.369L355.553 178.272L355.522 178.175L355.485 178.079L355.441 177.985L355.391 177.892L355.335 177.803L355.274 177.717L354.583 176.812L353.817 175.808L353.796 175.781L352.397 173.948L351.766 173.122L350.785 171.835L349.457 170.096L348.367 168.668L346.968 166.835L346.64 166.405L346.133 165.741L345.949 165.5L345.89 165.428L345.829 165.361L345.766 165.301L345.701 165.247L345.635 165.199L345.569 165.159L345.502 165.125L345.436 165.099L345.37 165.081L345.305 165.07L345.241 165.067L345.179 165.073L345.121 165.087L345.066 165.108L343.004 166.139L342.562 166.36L342.512 166.389L342.465 166.426L342.424 166.469L342.387 166.519L342.355 166.575L342.329 166.637L342.308 166.705L342.294 166.778L342.284 166.855L342.281 166.938L342.282 167.208L342.282 167.584L342.282 167.953L342.284 169.079L342.285 170.089L342.287 172.394L342.29 174.699L342.29 175.487L342.293 177.792L342.295 179.626L342.296 180.371L342.296 180.641L342.3 180.736L342.311 180.832L342.33 180.93L342.355 181.027L342.387 181.124L342.425 181.22L342.469 181.314L342.519 181.405L342.574 181.493L342.634 181.576L342.699 181.655L342.768 181.729L342.84 181.795L342.913 181.852L342.986 181.901L343.06 181.94L343.133 181.971L343.206 181.992L343.276 182.005L343.345 182.007L343.411 182L343.474 181.984L343.534 181.957L345.596 180.926L346.037 180.706L346.093 180.669L346.13 180.64" stroke="#A7A9B2" stroke-width="0.6" stroke-linejoin="round"/>
<path d="M349.263 174.373L348.282 173.088L348.109 172.861L346.954 171.348L345.863 169.919L344.904 168.661L344.137 167.657L343.63 166.993L343.446 166.752L343.387 166.68L343.326 166.613L343.263 166.553L343.198 166.498L343.132 166.451L343.066 166.411L342.999 166.377L342.933 166.351L342.867 166.333L342.802 166.322L342.738 166.319L342.676 166.325L342.617 166.338L342.562 166.36" stroke="#A7A9B2" stroke-width="0.6" stroke-linejoin="round"/>
<path d="M342.293 175.486L342.29 173.181L342.289 172.093" stroke="#A7A9B2" stroke-width="0.6" stroke-linejoin="round"/>
<path d="M351.317 177.06L350.356 175.802L349.266 174.374" stroke="#A7A9B2" stroke-width="0.6" stroke-linejoin="round"/>
<path d="M352.082 178.064L350.684 176.232L349.266 174.374L350.665 176.206L351.317 177.06L352.082 178.064Z" stroke="#A7A9B2" stroke-width="0.6" stroke-linejoin="round"/>
<path d="M343.539 181.958L343.594 181.921L343.64 181.885" stroke="#A7A9B2" stroke-width="0.6" stroke-linejoin="round"/>
<path d="M352.451 180.485L352.898 181.726L353.599 183.671L353.637 183.778L353.68 183.913L353.708 184.044L353.724 184.171L353.727 184.291L353.717 184.403L353.695 184.507L353.662 184.6L353.617 184.683L353.562 184.752L353.495 184.808L353.419 184.847L351.357 185.878L350.915 186.099L350.829 186.123L350.688 186.145L350.113 186.237L349.42 186.347L349.068 186.404L348.964 186.42L348.927 186.426L348.834 186.431L348.738 186.419L348.642 186.39L348.545 186.345L348.449 186.285L348.356 186.212L348.265 186.126L348.18 186.028L348.101 185.92L348.029 185.803L347.965 185.677L347.91 185.544L347.129 183.376L346.347 181.207L346.143 180.64L345.945 180.09L345.899 180.126L345.771 180.225L345.064 180.779L344.774 181.005L344.483 181.232L344.21 181.446L343.968 181.635L343.648 181.885L343.776 181.785L343.968 181.635" stroke="#A7A9B2" stroke-width="0.6" stroke-linejoin="round"/>
<path d="M352.769 178.969L352.586 178.728L352.078 178.064L352.769 178.969ZM352.769 178.969L352.83 179.055L352.886 179.144L352.935 179.237L352.979 179.331L353.017 179.427L353.048 179.524L353.073 179.621L353.091 179.717L353.102 179.812L353.105 179.905L353.101 179.995L353.09 180.081L353.071 180.161L353.045 180.235L353.012 180.3L352.974 180.358L352.929 180.407L352.879 180.448L352.825 180.48" stroke="#A7A9B2" stroke-width="0.6" stroke-linejoin="round"/>
<path d="M350.398 182.978L349.616 180.809L349.172 179.576L349.48 180.428L349.318 179.98L349.211 179.683L349.172 179.576" stroke="#A7A9B2" stroke-width="0.6" stroke-linejoin="round"/>
<path d="M350.143 182.302L349.899 181.627L349.672 180.998" stroke="#A7A9B2" stroke-width="0.6" stroke-linejoin="round"/>
<path d="M350.911 186.099L350.988 186.059L351.054 186.003L351.11 185.934L351.154 185.852L351.188 185.758L351.209 185.655L351.219 185.542L351.216 185.422L351.201 185.296L351.172 185.164L351.13 185.029L351.091 184.922L350.985 184.625L350.823 184.177L350.621 183.615L350.391 182.98L350.39 182.977L350.389 182.974L350.148 182.302L349.68 181.005" stroke="#A7A9B2" stroke-width="0.6" stroke-linejoin="round"/>
<path d="M354.586 176.812L355.093 177.477L355.277 177.717" stroke="#A7A9B2" stroke-width="0.6" stroke-linejoin="round"/>
<path d="M352.438 180.485L352.641 181.051L352.438 180.485" stroke="#A7A9B2" stroke-width="0.6" stroke-linejoin="round"/>
<path d="M353.576 183.671L353.468 183.375L352.875 181.727L353.104 182.364L353.307 182.926L353.468 183.375" stroke="#A7A9B2" stroke-width="0.6" stroke-linejoin="round"/>
<path d="M243.561 299.401L243.477 299.443L244.048 299.729L246.11 300.76L248.172 301.791L250.233 302.822L252.295 303.853L254.357 304.884L254.917 305.164L256.978 304.132L259.04 303.102L261.102 302.071L263.164 301.04L265.225 300.009L267.287 298.978L269.349 297.947L271.411 296.916L272.466 296.389L270.405 295.358L268.343 294.327L266.281 293.296L264.219 292.265L262.157 291.234L261.598 290.954L261.572 290.941" stroke="#A7A9B2" stroke-width="0.6" stroke-linejoin="round"/>
<path d="M261.598 290.87L261.026 290.584L258.964 291.615L256.903 292.646L254.841 293.677L252.779 294.707L250.717 295.738L248.656 296.769L246.594 297.8L244.532 298.831L243.477 299.359L243.561 299.401L244.048 299.644L246.344 299.439L248.64 299.234L250.936 299.028L253.232 298.823L255.528 298.618L257.824 298.412L258.934 298.313L259.711 296.142L260.488 293.972L261.264 291.802L261.572 290.942L261.598 290.87Z" stroke="#A7A9B2" stroke-width="0.6" stroke-linejoin="round"/>
<path d="M230.031 300.031L230.401 300.959L231.452 301.745L233.514 302.776L235.576 303.807L237.637 304.838L239.699 305.869L241.761 306.9L243.823 307.931L245.884 308.961L247.946 309.992L250.008 311.023L251.254 311.646L252.827 312.172L254.683 312.356L256.539 312.172L258.113 311.646L260.175 310.615L262.236 309.585L264.298 308.554L266.36 307.523L268.422 306.492L270.484 305.461L272.545 304.43L274.607 303.399L276.669 302.368L278.731 301.338L280.792 300.307L282.854 299.276L284.916 298.245L286.978 297.214L289.039 296.183L291.101 295.152L293.163 294.121L295.225 293.091L297.286 292.059L299.348 291.029L301.41 289.998L303.472 288.967L305.533 287.936L307.595 286.905L309.657 285.874L311.719 284.843L313.78 283.812L315.842 282.782L317.904 281.751L319.966 280.72L322.028 279.689L324.089 278.658L326.151 277.627L328.213 276.596L330.275 275.565L332.336 274.535L334.296 273.555L335.347 272.768L335.716 271.84L335.347 270.912L334.296 270.125L332.234 269.094L330.172 268.064L328.11 267.033L326.049 266.002L323.987 264.971L321.925 263.94L319.863 262.909L317.802 261.878L315.74 260.847L314.494 260.224L312.92 259.699L311.064 259.514L309.208 259.699L307.635 260.224L305.573 261.255L303.511 262.286L301.449 263.317L299.388 264.348L297.326 265.379L295.264 266.41L293.202 267.441L291.141 268.471L289.079 269.502L287.017 270.533L284.955 271.564L282.894 272.595L280.832 273.626L278.77 274.657L276.708 275.688L274.647 276.718L272.585 277.749L270.523 278.78L268.461 279.811L266.4 280.842L264.338 281.873L262.276 282.904L260.214 283.935L258.152 284.965L256.091 285.996L254.029 287.027L251.967 288.058L249.905 289.089L247.844 290.12L245.782 291.151L243.72 292.182L241.658 293.212L239.597 294.243L237.535 295.274L235.473 296.305L233.411 297.336L231.452 298.316L230.401 299.103L230.031 300.031ZM230.031 300.031V302.336V304.169L230.401 305.097L231.452 305.884L233.514 306.915L235.576 307.946L237.637 308.976L239.699 310.007L241.761 311.038L243.823 312.069L245.884 313.1L247.946 314.131L250.008 315.162L251.254 315.785L252.827 316.311L254.683 316.495L256.539 316.311L258.113 315.785L260.175 314.754L262.236 313.723L264.298 312.692L266.36 311.661L268.422 310.63L270.484 309.6L272.545 308.569L274.607 307.538L276.669 306.507L278.731 305.476L280.177 304.753L280.348 304.667L280.883 304.4L281.054 304.314L283.116 303.284L285.177 302.253L287.239 301.222L288.657 300.513L288.804 300.439L290.865 299.409L291.596 299.043L291.767 298.958L292.807 298.438L292.887 298.398L293.593 298.045L293.855 297.914L295.917 296.883L297.978 295.852L300.04 294.821L302.102 293.79L304.164 292.759L306.226 291.728L308.287 290.698L310.349 289.667L312.411 288.636L314.473 287.605L316.534 286.574L318.596 285.543L320.658 284.512L322.72 283.481L324.782 282.451L326.843 281.42L328.905 280.389L330.967 279.358L333.029 278.327L334.296 277.693L335.347 276.907L335.716 275.979V273.674V271.84" stroke="#A7A9B2" stroke-width="0.6" stroke-linejoin="round"/>
<path d="M144.12 197.912L142.059 198.943L139.997 199.974L137.935 201.004L135.873 202.035L133.812 203.066L131.75 204.097L129.688 205.128L127.626 206.159L125.565 207.19L123.503 208.221L121.441 209.251L119.379 210.282L117.317 211.313L115.256 212.344L113.194 213.375L111.132 214.406L109.07 215.437L107.009 216.468L104.947 217.498L102.885 218.529L100.823 219.56L98.7615 220.591L96.6998 221.622L94.6381 222.653L92.5762 223.684L90.5145 224.715L88.4528 225.745L86.3909 226.776L84.3292 227.807L82.2675 228.838L80.2058 229.869L78.1439 230.9L76.0822 231.931L74.0205 232.962L71.9588 233.992L69.8968 235.023L67.8351 236.054L65.7734 237.085L64.3295 237.807L63.1737 238.441L62.1431 239.123L62.0389 239.197L61.1326 239.929L60.3649 240.7L59.743 241.502L59.666 241.627L59.1928 242.459L58.8749 243.309L58.7154 244.17L58.6875 244.322V245.188V245.357V247.662V248.77V251.075V252.183V252.352L58.7154 252.504L58.8749 253.365L59.1928 254.215L59.666 255.046L59.743 255.171L60.3649 255.974L61.1326 256.745L62.0389 257.477L62.1431 257.551L63.1737 258.233L64.3295 258.867L66.3912 259.898L68.4531 260.929L70.5148 261.96L72.5765 262.99L74.6385 264.021L76.7002 265.052L78.7619 266.083L80.8236 267.114L82.8855 268.145L84.9472 269.176L87.0089 270.207L89.0706 271.237L91.1325 272.268L93.1942 273.299L95.2559 274.33L97.3178 275.361L99.3795 276.392L101.441 277.423L103.503 278.454L105.565 279.484L107.627 280.515L109.688 281.546L111.75 282.577L113.812 283.608L115.874 284.639L117.935 285.67L119.997 286.701L122.059 287.731L124.121 288.763L126.182 289.793L128.244 290.824L130.306 291.855L132.368 292.886L134.43 293.917L136.491 294.948L138.553 295.979L140.615 297.01L142.677 298.04L144.738 299.071L146.8 300.102L148.862 301.133L150.924 302.164L152.985 303.195L155.047 304.226L157.109 305.257L159.171 306.287L161.232 307.318L163.294 308.349L165.356 309.38L167.418 310.411L169.479 311.442L171.541 312.473L173.603 313.504L175.665 314.534L177.726 315.565L179.788 316.596L181.85 317.627L183.912 318.658L185.973 319.689L188.035 320.72L190.097 321.751L192.159 322.781L194.22 323.812L196.282 324.843L198.344 325.874L200.406 326.905L202.467 327.936L204.529 328.967L206.591 329.998L208.653 331.028L210.714 332.059L212.776 333.09L214.838 334.121L216.9 335.152L218.962 336.183L221.023 337.214L223.085 338.245L225.147 339.275L227.209 340.306L229.27 341.337L231.332 342.368L233.394 343.399L235.456 344.43L237.517 345.461L239.322 346.363L240.59 346.941L241.955 347.456L243.409 347.907L244.94 348.288L246.534 348.596L248.179 348.831L249.86 348.988L251.563 349.066H253.273L254.976 348.988L256.657 348.831L258.302 348.596L259.896 348.288L261.427 347.907L262.881 347.456L264.246 346.941L265.514 346.363L267.576 345.332L269.637 344.302L271.699 343.27L273.761 342.24L275.823 341.209L277.884 340.178L279.946 339.147L282.008 338.116L284.07 337.085L286.131 336.054L288.193 335.023L290.255 333.993L292.317 332.962L294.378 331.931L296.44 330.9L298.502 329.869L300.564 328.838L302.625 327.807L304.687 326.776L306.749 325.746L308.811 324.715L310.872 323.684L312.934 322.653L314.996 321.622L317.058 320.591L319.12 319.56L321.181 318.529L323.243 317.499L325.305 316.468L327.367 315.437L329.428 314.406L331.49 313.375L333.552 312.344L335.614 311.313L337.675 310.282L339.737 309.252L341.799 308.221L343.861 307.19L345.922 306.159L347.984 305.128L350.046 304.097L352.108 303.066L354.17 302.035L356.231 301.005L358.293 299.974L360.355 298.943L362.417 297.912L364.478 296.881L366.54 295.85L368.602 294.819L370.664 293.788L372.725 292.758L374.787 291.727L376.849 290.696L378.355 289.943L379.51 289.309L380.541 288.627L380.645 288.553L381.552 287.821L382.319 287.05L382.941 286.248L383.018 286.123L383.492 285.291L383.809 284.441L383.969 283.58L383.997 283.428V283.259V280.954V279.846V277.541V276.433V276.264V275.398L383.969 275.246L383.809 274.385L383.492 273.535L383.018 272.704L382.941 272.579L382.319 271.776L381.552 271.005L380.645 270.273L380.541 270.199L379.51 269.517L378.355 268.883L376.293 267.852L374.231 266.821L372.169 265.79L370.108 264.76L368.046 263.729L365.984 262.698L363.922 261.667L361.861 260.636L359.799 259.605L357.737 258.574L355.675 257.543L353.613 256.513L351.552 255.482L349.49 254.451L347.428 253.42L345.366 252.389L343.305 251.358L341.243 250.327L339.181 249.296L337.119 248.266L335.058 247.234L332.996 246.204L330.934 245.173L328.872 244.142L326.811 243.111L324.749 242.08L322.687 241.049L320.625 240.018L318.563 238.987L316.502 237.957L314.44 236.926L312.378 235.895L310.316 234.864L308.255 233.833L306.193 232.802L304.131 231.771L302.069 230.74L300.008 229.71L297.946 228.679L295.884 227.648L293.822 226.617L291.761 225.586L289.699 224.555L287.637 223.524L285.575 222.493L283.513 221.463L281.452 220.432L279.39 219.401L277.328 218.37L275.266 217.339L273.205 216.308L271.143 215.277L269.081 214.246L267.019 213.216L264.958 212.185L262.896 211.154L260.834 210.123L258.772 209.092L256.711 208.061L254.649 207.03L252.587 205.999L250.525 204.969L248.464 203.938L246.402 202.907L244.34 201.876L242.278 200.845L239.319 199.365" stroke="#A7A9B2" stroke-width="0.6" stroke-linejoin="round"/>
<path d="M382.479 275.734L382.333 276.526L382.041 277.308L381.605 278.073L381.031 278.814L380.322 279.526L379.484 280.203L378.526 280.837L377.43 281.438L375.369 282.469L373.307 283.5L371.245 284.531L369.183 285.561L367.122 286.592L365.06 287.623L362.998 288.654L360.936 289.685L358.875 290.716L356.813 291.747L354.751 292.778L352.689 293.808L350.627 294.839L348.566 295.87L346.504 296.901L344.442 297.932L342.38 298.963L340.319 299.994L338.257 301.025L336.195 302.055L334.133 303.086L332.072 304.117L330.01 305.148L327.948 306.179L325.886 307.21L323.825 308.241L321.763 309.272L319.701 310.302L317.639 311.333L315.578 312.364L313.516 313.395L311.454 314.426L309.392 315.457L307.331 316.488L305.269 317.519L303.207 318.55L301.145 319.581L299.084 320.611L297.022 321.642L294.96 322.673L292.898 323.704L290.837 324.735L288.775 325.766L286.713 326.797L284.651 327.828L282.589 328.858L280.528 329.889L278.466 330.92L276.404 331.951L274.342 332.982L272.281 334.013L270.219 335.044L268.157 336.075L266.095 337.105L264.632 337.837L263.43 338.385L262.161 338.864L260.809 339.283L259.385 339.637L257.901 339.925L256.372 340.142L254.808 340.288L253.224 340.362H251.634L250.05 340.288L248.486 340.142L246.957 339.925L245.473 339.637L244.049 339.283L242.697 338.864L241.428 338.385L240.226 337.837L238.164 336.806L236.103 335.775L234.041 334.745L231.979 333.714L229.917 332.683L227.855 331.652L225.794 330.621L223.732 329.59L221.67 328.559L219.608 327.528L217.547 326.498L215.485 325.466L213.423 324.436L211.361 323.405L209.3 322.374L207.238 321.343L205.176 320.312L203.114 319.281L201.053 318.25L198.991 317.219L196.929 316.189L194.867 315.158L192.806 314.127L190.744 313.096L188.682 312.065L186.62 311.034L184.559 310.003L182.497 308.972L180.435 307.942L178.373 306.911L176.312 305.88L174.25 304.849L172.188 303.818L170.126 302.787L168.065 301.756L166.003 300.725L163.941 299.695L161.879 298.664L159.818 297.633L157.756 296.602L155.694 295.571L153.632 294.54L151.57 293.509L149.509 292.478L147.447 291.448L145.385 290.417L143.323 289.386L141.262 288.355L139.2 287.324L137.138 286.293L135.076 285.262L133.015 284.231L130.953 283.201L128.891 282.17L126.829 281.139L124.768 280.108L122.706 279.077L120.644 278.046L118.582 277.015L116.521 275.984L114.459 274.954L112.397 273.923L110.335 272.892L108.274 271.861L106.212 270.83L104.15 269.799L102.088 268.768L100.027 267.737L97.9646 266.707L95.9029 265.675L93.8412 264.645L91.7795 263.614L89.7176 262.583L87.6559 261.552L85.5941 260.521L83.5325 259.49L81.4705 258.459L79.4088 257.428L77.3471 256.398L75.2852 255.367L73.2235 254.336L71.1618 253.305L69.1001 252.274L67.0382 251.243L65.2757 250.362L64.1803 249.761L63.2218 249.127L62.3844 248.45L61.6756 247.738L61.1009 246.997L60.6655 246.232L60.3732 245.45L60.2266 244.658V243.863" stroke="#A7A9B2" stroke-width="0.6" stroke-linejoin="round"/>
<path d="M322.145 315.635L320.083 316.666L318.477 317.469L318.258 317.498L318.057 317.466L317.88 317.377L317.735 317.233L317.628 317.041L317.619 317.01L317.565 316.817L317.562 316.806L317.539 316.539L317.562 316.249L317.628 315.949L317.641 315.911L317.678 315.809L317.735 315.648L317.88 315.359L318.042 315.117L318.057 315.094L318.06 315.089L318.109 315.033L318.258 314.861L318.289 314.834L318.477 314.671L320.539 313.64L322.145 312.836L324.207 311.806L325.583 311.117L325.783 311.018L325.814 311.002L326.032 310.974L326.234 311.005L326.41 311.094L326.555 311.238L326.663 311.431L326.729 311.666L326.751 311.933L326.729 312.222L326.663 312.523L326.555 312.824L326.41 313.112L326.234 313.378L326.032 313.611L325.814 313.801L323.752 314.832L322.145 315.635Z" stroke="#A7A9B2" stroke-width="0.6" stroke-linejoin="round"/>
<path d="M282.825 334.143L282.815 334.023L282.805 333.902L282.825 333.641L282.885 333.37L282.982 333.099L283.112 332.838L283.272 332.599L283.453 332.389L283.65 332.217L283.741 332.161L283.855 332.09L283.883 332.08L283.954 332.053L284.06 332.012L284.257 331.987L284.439 332.015L284.598 332.096L284.729 332.225L284.826 332.399L284.885 332.611L284.906 332.851L284.885 333.113L284.826 333.384L284.729 333.655L284.598 333.915L284.439 334.155L284.257 334.364L284.06 334.536L283.855 334.663L283.65 334.741L283.453 334.766L283.272 334.738L283.112 334.658L282.982 334.528L282.885 334.354L282.856 334.253L282.836 334.181L282.825 334.143Z" stroke="#A7A9B2" stroke-width="0.6" stroke-linejoin="round"/>
<path d="M309.492 320.561L309.471 320.823L309.412 321.094L309.314 321.365L309.184 321.625L309.024 321.865L308.843 322.074L308.646 322.246L308.441 322.373L308.236 322.451L308.039 322.476L307.857 322.448L307.698 322.368L307.568 322.238L307.471 322.064L307.442 321.962L307.422 321.891L307.411 321.853L307.401 321.733L307.391 321.612L307.411 321.351L307.471 321.08L307.568 320.809L307.698 320.549L307.857 320.309L308.039 320.099L308.236 319.928L308.327 319.871L308.441 319.8L308.469 319.79L308.54 319.762L308.646 319.723L308.843 319.697L309.024 319.725L309.184 319.806L309.314 319.935L309.412 320.109L309.471 320.321L309.492 320.561Z" stroke="#A7A9B2" stroke-width="0.6" stroke-linejoin="round"/>
<path d="M285.559 332.778L285.549 332.658L285.539 332.537L285.559 332.276L285.619 332.004L285.716 331.734L285.847 331.473L286.006 331.234L286.187 331.024L286.385 330.852L286.475 330.796L286.589 330.725L286.617 330.715L286.689 330.687L286.794 330.647L286.992 330.622L287.173 330.65L287.332 330.73L287.463 330.86L287.56 331.034L287.62 331.245L287.64 331.486L287.62 331.747L287.56 332.019L287.463 332.29L287.332 332.55L287.173 332.789L286.992 332.999L286.794 333.171L286.589 333.298L286.385 333.376L286.187 333.401L286.006 333.373L285.847 333.293L285.716 333.163L285.619 332.989L285.59 332.887L285.57 332.815L285.559 332.778Z" stroke="#A7A9B2" stroke-width="0.6" stroke-linejoin="round"/>
<path d="M288.301 331.411L288.291 331.292L288.281 331.17L288.301 330.91L288.361 330.638L288.458 330.367L288.589 330.107L288.748 329.867L288.93 329.658L289.127 329.486L289.217 329.43L289.332 329.359L289.36 329.348L289.431 329.321L289.537 329.281L289.733 329.256L289.915 329.284L290.074 329.364L290.205 329.494L290.302 329.668L290.362 329.879L290.382 330.12L290.362 330.381L290.302 330.653L290.205 330.923L290.074 331.184L289.915 331.423L289.733 331.633L289.537 331.805L289.332 331.932L289.127 332.01L288.93 332.035L288.748 332.007L288.589 331.926L288.458 331.797L288.361 331.623L288.332 331.521L288.312 331.449L288.301 331.411Z" stroke="#A7A9B2" stroke-width="0.6" stroke-linejoin="round"/>
<path d="M306.757 321.927L306.737 322.188L306.677 322.459L306.58 322.73L306.449 322.99L306.29 323.23L306.109 323.44L305.912 323.611L305.707 323.739L305.502 323.816L305.305 323.842L305.123 323.813L304.964 323.733L304.833 323.603L304.736 323.429L304.707 323.328L304.687 323.256L304.677 323.218L304.666 323.098L304.656 322.977L304.677 322.716L304.736 322.445L304.833 322.174L304.964 321.914L305.123 321.674L305.305 321.464L305.502 321.293L305.593 321.236L305.707 321.166L305.735 321.155L305.806 321.128L305.912 321.088L306.109 321.062L306.29 321.09L306.449 321.171L306.58 321.301L306.677 321.474L306.737 321.686L306.757 321.927Z" stroke="#A7A9B2" stroke-width="0.6" stroke-linejoin="round"/>
<path d="M291.028 330.046L291.018 329.926L291.008 329.805L291.028 329.544L291.088 329.273L291.185 329.002L291.316 328.742L291.475 328.502L291.656 328.293L291.853 328.121L291.944 328.065L292.058 327.994L292.086 327.983L292.158 327.956L292.263 327.916L292.46 327.891L292.642 327.919L292.801 327.999L292.932 328.129L293.029 328.303L293.088 328.514L293.109 328.755L293.088 329.016L293.029 329.287L292.932 329.558L292.801 329.818L292.642 330.058L292.46 330.268L292.263 330.439L292.058 330.567L291.853 330.644L291.656 330.67L291.475 330.642L291.316 330.561L291.185 330.432L291.088 330.258L291.059 330.156L291.039 330.084L291.028 330.046Z" stroke="#A7A9B2" stroke-width="0.6" stroke-linejoin="round"/>
<path d="M293.755 328.681L293.745 328.561L293.734 328.44L293.755 328.179L293.814 327.907L293.911 327.636L294.042 327.376L294.201 327.137L294.383 326.927L294.58 326.755L294.67 326.699L294.785 326.628L294.813 326.617L294.884 326.59L294.99 326.55L295.187 326.525L295.368 326.553L295.528 326.633L295.658 326.763L295.755 326.937L295.815 327.148L295.835 327.389L295.815 327.65L295.755 327.922L295.658 328.192L295.528 328.453L295.368 328.692L295.187 328.902L294.99 329.074L294.785 329.201L294.58 329.279L294.383 329.304L294.201 329.276L294.042 329.195L293.911 329.066L293.814 328.892L293.786 328.79L293.765 328.718L293.755 328.681Z" stroke="#A7A9B2" stroke-width="0.6" stroke-linejoin="round"/>
<path d="M304.031 323.293L304.01 323.554L303.951 323.825L303.854 324.096L303.723 324.356L303.564 324.596L303.382 324.805L303.185 324.977L302.98 325.104L302.775 325.182L302.578 325.208L302.397 325.179L302.237 325.099L302.107 324.969L302.01 324.795L301.981 324.694L301.961 324.622L301.95 324.584L301.94 324.464L301.93 324.343L301.95 324.082L302.01 323.811L302.107 323.54L302.237 323.28L302.397 323.04L302.578 322.83L302.775 322.659L302.866 322.602L302.98 322.531L303.008 322.521L303.08 322.494L303.185 322.454L303.382 322.428L303.564 322.456L303.723 322.537L303.854 322.666L303.951 322.84L304.01 323.052L304.031 323.293Z" stroke="#A7A9B2" stroke-width="0.6" stroke-linejoin="round"/>
<path d="M296.497 327.315L296.487 327.196L296.477 327.075L296.497 326.813L296.557 326.542L296.654 326.271L296.784 326.011L296.943 325.771L297.125 325.562L297.322 325.39L297.413 325.334L297.527 325.263L297.555 325.252L297.626 325.225L297.732 325.185L297.929 325.16L298.11 325.188L298.27 325.268L298.4 325.398L298.497 325.572L298.557 325.783L298.577 326.024L298.557 326.285L298.497 326.556L298.4 326.827L298.27 327.087L298.11 327.327L297.929 327.537L297.732 327.708L297.527 327.836L297.322 327.913L297.125 327.939L296.943 327.911L296.784 327.83L296.654 327.701L296.557 327.527L296.528 327.425L296.507 327.353L296.497 327.315Z" stroke="#A7A9B2" stroke-width="0.6" stroke-linejoin="round"/>
<path d="M299.223 325.95L299.213 325.83L299.203 325.709L299.223 325.448L299.283 325.177L299.38 324.905L299.511 324.645L299.67 324.406L299.852 324.196L300.049 324.024L300.139 323.968L300.253 323.897L300.281 323.886L300.353 323.859L300.458 323.819L300.655 323.794L300.837 323.822L300.996 323.903L301.127 324.032L301.224 324.206L301.284 324.417L301.304 324.658L301.284 324.92L301.224 325.191L301.127 325.462L300.996 325.722L300.837 325.961L300.655 326.171L300.458 326.343L300.253 326.47L300.049 326.548L299.852 326.573L299.67 326.545L299.511 326.465L299.38 326.335L299.283 326.161L299.254 326.059L299.234 325.987L299.223 325.95Z" stroke="#A7A9B2" stroke-width="0.6" stroke-linejoin="round"/>
<path d="M144.418 198.484L142.357 199.515L140.295 200.546L138.233 201.576L136.171 202.607L134.11 203.638L132.048 204.669L129.986 205.7L127.924 206.731L125.862 207.762L123.801 208.793L121.739 209.823L119.677 210.854L117.615 211.885L115.554 212.916L113.492 213.947L111.43 214.978L109.368 216.009L107.307 217.04L105.245 218.07L103.183 219.101L101.121 220.132L99.0595 221.163L96.9978 222.194L94.9361 223.225L92.8742 224.256L90.8125 225.287L88.7508 226.317L86.6889 227.348L84.6272 228.379L82.5655 229.41L80.5038 230.441L78.4418 231.472L76.3801 232.503L74.3185 233.534L72.2565 234.565L70.1948 235.595L68.1331 236.626L65.3038 238.041L64.2103 238.641L63.2539 239.274L62.4183 239.949L61.7108 240.659L61.6848 240.69L61.1103 241.431L60.6754 242.196L60.3833 242.977L60.3734 243.02L60.2266 243.812V243.863" stroke="#A7A9B2" stroke-width="0.6" stroke-linejoin="round"/>
<path d="M382.476 275.734V275.683V274.888L382.329 274.096L382.319 274.053L382.027 273.272L381.592 272.507L381.018 271.766L380.992 271.735L380.284 271.025L379.449 270.35L378.492 269.717L377.399 269.117L375.337 268.086L373.275 267.055L371.214 266.024L369.152 264.993L367.09 263.962L365.028 262.932L362.967 261.901L360.905 260.87L358.843 259.839L356.781 258.808L354.72 257.777L352.658 256.746L350.596 255.715L348.534 254.685L346.472 253.654L344.411 252.623L342.349 251.592L340.287 250.561L338.226 249.53L336.164 248.499L334.102 247.468L332.04 246.438L329.978 245.407L327.917 244.376L325.855 243.345L323.793 242.314L321.731 241.283L319.67 240.252L317.608 239.221L315.546 238.191L313.484 237.159L311.422 236.129L309.361 235.098L307.299 234.067L305.237 233.036L303.175 232.005L301.114 230.974L299.052 229.944L296.99 228.912L294.928 227.882L292.867 226.851L290.805 225.82L288.743 224.789L286.681 223.758L284.62 222.727L282.558 221.696L280.496 220.665L278.434 219.635L276.372 218.604L274.311 217.573L272.249 216.542L270.187 215.511L268.125 214.48L266.064 213.449L264.002 212.418L261.94 211.388L259.878 210.357L257.817 209.326L255.755 208.295L253.693 207.264L251.631 206.233L249.57 205.202L247.508 204.171L245.446 203.141L243.384 202.11L241.323 201.079L238.984 199.91" stroke="#A7A9B2" stroke-width="0.6" stroke-linejoin="round"/>
<path d="M340.26 304.684L340.357 304.413L340.487 304.153L340.646 303.913L340.828 303.703L341.025 303.532L341.129 303.467L341.23 303.404L341.258 303.394L341.332 303.366L341.435 303.327L341.632 303.301L341.814 303.329L341.973 303.41L342.103 303.539L342.201 303.713L342.26 303.925L342.281 304.165L342.26 304.427L342.201 304.698L342.103 304.969L341.973 305.229L341.814 305.469L341.632 305.678L341.435 305.85L341.23 305.977L341.025 306.055L340.828 306.08L340.646 306.052L340.487 305.972L340.357 305.842L340.26 305.668L340.23 305.564L340.211 305.495L340.2 305.457L340.19 305.335L340.18 305.216L340.2 304.955L340.26 304.684Z" stroke="#A7A9B2" stroke-width="0.6" stroke-linejoin="round"/>
<path d="M348.842 301.955L348.683 301.875L348.552 301.745L348.455 301.571L348.425 301.467L348.406 301.398L348.395 301.36L348.385 301.238L348.375 301.119L348.395 300.858L348.455 300.587L348.552 300.316L348.683 300.055L348.842 299.816L349.023 299.606L349.221 299.434L349.324 299.37L349.425 299.307L349.453 299.297L349.527 299.269L349.63 299.229L349.827 299.204L350.009 299.232L350.168 299.313L350.299 299.442L350.396 299.616L350.456 299.828L350.476 300.069L350.456 300.329L350.396 300.601L350.299 300.872L350.168 301.132L350.009 301.372L349.827 301.581L349.63 301.753L349.425 301.88L349.221 301.958L349.023 301.983L348.842 301.955Z" stroke="#A7A9B2" stroke-width="0.6" stroke-linejoin="round"/>
<path d="M335.769 306.135L335.797 306.124L335.871 306.096L335.974 306.057L336.171 306.032L336.353 306.06L336.512 306.14L336.643 306.27L336.74 306.444L336.799 306.655L336.82 306.896L336.799 307.157L336.74 307.428L336.643 307.699L336.512 307.96L336.353 308.199L336.171 308.409L335.974 308.581L335.769 308.708L335.564 308.785L335.367 308.811L335.186 308.783L335.026 308.702L334.896 308.573L334.799 308.399L334.769 308.294L334.75 308.225L334.739 308.187L334.729 308.066L334.719 307.946L334.739 307.685L334.799 307.414L334.896 307.143L335.026 306.883L335.186 306.643L335.367 306.434L335.564 306.262L335.668 306.198L335.769 306.135Z" stroke="#A7A9B2" stroke-width="0.6" stroke-linejoin="round"/>
<path d="M360.355 293.846L360.383 293.835L360.457 293.807L360.56 293.768L360.757 293.743L360.939 293.771L361.098 293.851L361.229 293.981L361.326 294.155L361.385 294.366L361.406 294.607L361.385 294.868L361.326 295.139L361.229 295.41L361.098 295.67L360.939 295.91L360.757 296.12L360.56 296.291L360.355 296.419L360.15 296.496L359.953 296.522L359.772 296.494L359.612 296.413L359.482 296.284L359.385 296.11L359.355 296.006L359.336 295.936L359.325 295.898L359.315 295.777L359.305 295.657L359.325 295.396L359.385 295.125L359.482 294.854L359.612 294.594L359.772 294.354L359.953 294.145L360.15 293.973L360.254 293.908L360.355 293.846Z" stroke="#A7A9B2" stroke-width="0.6" stroke-linejoin="round"/>
<path d="M338.906 307.044L338.709 307.216L338.504 307.343L338.299 307.421L338.102 307.446L337.92 307.418L337.761 307.337L337.63 307.208L337.533 307.034L337.504 306.93L337.484 306.86L337.473 306.822L337.463 306.701L337.453 306.582L337.473 306.321L337.533 306.049L337.63 305.779L337.761 305.518L337.92 305.279L338.102 305.069L338.299 304.897L338.402 304.833L338.504 304.77L338.532 304.759L338.605 304.731L338.709 304.692L338.906 304.667L339.087 304.695L339.246 304.775L339.377 304.905L339.474 305.079L339.534 305.29L339.554 305.531L339.534 305.792L339.474 306.063L339.377 306.335L339.246 306.595L339.087 306.834L338.906 307.044Z" stroke="#A7A9B2" stroke-width="0.6" stroke-linejoin="round"/>
<path d="M356.886 295.959L357.045 295.72L357.227 295.51L357.424 295.338L357.528 295.274L357.629 295.211L357.656 295.201L357.731 295.172L357.834 295.134L358.031 295.108L358.212 295.137L358.371 295.217L358.502 295.347L358.599 295.52L358.659 295.732L358.679 295.973L358.659 296.234L358.599 296.505L358.502 296.776L358.371 297.036L358.212 297.276L358.031 297.485L357.834 297.657L357.629 297.784L357.424 297.862L357.227 297.887L357.045 297.859L356.886 297.779L356.755 297.649L356.658 297.475L356.63 297.375L356.609 297.302L356.598 297.264L356.589 297.151L356.578 297.023L356.598 296.762L356.658 296.491L356.755 296.22L356.886 295.959Z" stroke="#A7A9B2" stroke-width="0.6" stroke-linejoin="round"/>
<path d="M343.222 304.606L343.091 304.476L342.994 304.303L342.965 304.198L342.945 304.129L342.934 304.091L342.924 303.97L342.914 303.85L342.934 303.589L342.994 303.318L343.091 303.047L343.222 302.787L343.381 302.547L343.563 302.338L343.76 302.166L343.863 302.101L343.965 302.039L343.993 302.028L344.066 302L344.169 301.961L344.367 301.936L344.548 301.964L344.707 302.044L344.838 302.174L344.935 302.347L344.995 302.559L345.015 302.8L344.995 303.061L344.935 303.332L344.838 303.603L344.707 303.863L344.548 304.103L344.367 304.313L344.169 304.484L343.965 304.612L343.76 304.689L343.563 304.715L343.381 304.686L343.222 304.606Z" stroke="#A7A9B2" stroke-width="0.6" stroke-linejoin="round"/>
<path d="M355.76 296.711L355.857 296.885L355.916 297.096L355.937 297.337L355.916 297.598L355.857 297.87L355.76 298.141L355.629 298.401L355.47 298.64L355.288 298.85L355.091 299.022L354.886 299.149L354.681 299.227L354.484 299.252L354.303 299.224L354.143 299.144L354.013 299.014L353.916 298.84L353.886 298.736L353.867 298.666L353.856 298.629L353.846 298.507L353.836 298.388L353.856 298.127L353.916 297.856L354.013 297.584L354.143 297.324L354.303 297.085L354.484 296.875L354.681 296.703L354.785 296.639L354.886 296.576L354.914 296.566L354.988 296.537L355.091 296.498L355.288 296.473L355.47 296.501L355.629 296.581L355.76 296.711Z" stroke="#A7A9B2" stroke-width="0.6" stroke-linejoin="round"/>
<path d="M345.833 303.111L345.736 302.937L345.707 302.833L345.687 302.764L345.677 302.726L345.666 302.605L345.656 302.485L345.677 302.224L345.736 301.953L345.833 301.682L345.964 301.422L346.123 301.182L346.305 300.972L346.502 300.801L346.605 300.736L346.707 300.673L346.735 300.663L346.809 300.635L346.912 300.596L347.109 300.57L347.29 300.598L347.449 300.679L347.58 300.808L347.677 300.982L347.737 301.194L347.757 301.435L347.737 301.696L347.677 301.967L347.58 302.238L347.449 302.498L347.29 302.738L347.109 302.947L346.912 303.119L346.707 303.246L346.502 303.324L346.305 303.349L346.123 303.321L345.964 303.241L345.833 303.111Z" stroke="#A7A9B2" stroke-width="0.6" stroke-linejoin="round"/>
<path d="M353.122 299.236L353.025 299.507L352.895 299.767L352.735 300.007L352.554 300.217L352.357 300.388L352.152 300.515L351.947 300.593L351.75 300.618L351.568 300.591L351.409 300.51L351.279 300.38L351.182 300.206L351.152 300.102L351.132 300.033L351.122 299.995L351.111 299.874L351.102 299.754L351.122 299.493L351.182 299.222L351.279 298.951L351.409 298.691L351.568 298.451L351.75 298.241L351.947 298.07L352.051 298.005L352.152 297.943L352.18 297.932L352.254 297.904L352.357 297.865L352.554 297.839L352.735 297.867L352.895 297.948L353.025 298.077L353.122 298.252L353.182 298.463L353.202 298.704L353.182 298.965L353.122 299.236Z" stroke="#A7A9B2" stroke-width="0.6" stroke-linejoin="round"/>
<path d="M260.412 151.226L262.474 152.257L264.535 153.288L266.597 154.318L268.659 155.349L270.721 156.38L272.782 157.411L274.844 158.442L276.906 159.473L278.968 160.504L281.029 161.535L283.091 162.565L285.153 163.596L287.215 164.627L289.276 165.658L291.338 166.689L293.4 167.72L295.462 168.751L297.523 169.782L299.585 170.812L301.647 171.844L303.709 172.874L305.771 173.905L307.832 174.936L309.894 175.967L311.956 176.998L314.018 178.029L316.079 179.059L318.141 180.091L320.203 181.121L322.265 182.152L324.326 183.183L326.388 184.214L328.45 185.245L330.512 186.276L332.573 187.307L334.635 188.338L336.697 189.368L338.759 190.399L340.821 191.43L342.882 192.461L344.944 193.492L347.006 194.523L349.068 195.554L351.129 196.585L353.191 197.615L355.253 198.646L357.315 199.677L359.376 200.708L361.438 201.739L363.5 202.77L365.562 203.801L367.623 204.832L368.917 205.478L370.934 206.096L372.753 205.87L374.814 204.839L375.882 204.305L377.326 203.259L378.252 201.495L378.568 199.211L378.572 199.185V196.88V194.575V192.269V189.964V187.659V185.354V183.049V180.744V178.439V176.134V173.828V171.523V169.218V166.913V164.608V162.303V159.998V157.693V155.388V153.082V150.777V148.472V146.167V143.862V141.557V139.252V136.947V134.641V132.336V130.031V127.726V125.421V123.116V120.811V118.506V116.201V113.895V111.59V109.285V106.98V104.675V102.37V100.065V97.7596V95.4545V93.1493V90.8442V88.5391V86.234V83.9289V82.2729L378.294 79.9846L378.252 79.6439L377.502 77.4644L377.326 76.9527L376.169 74.9585L375.882 74.4631L374.35 72.7407L374.063 72.4185L372.169 71.1041L372.047 71.0193L369.985 69.9882L367.923 68.9574L365.861 67.9265L363.8 66.8957L361.738 65.8648L359.676 64.834L357.614 63.8031L355.553 62.7723L353.491 61.7412L351.429 60.7103L349.367 59.6795L347.306 58.6486L345.244 57.6178L343.182 56.5869L341.12 55.5559L339.059 54.525L336.997 53.4942L334.935 52.4633L332.873 51.4325L330.811 50.4016L328.75 49.3708L326.688 48.3399L324.626 47.3088L322.564 46.278L320.503 45.2471L318.441 44.2163L316.379 43.1854L314.317 42.1546L312.256 41.1237L310.194 40.0927L308.132 39.0618L306.07 38.031L304.009 37.0001L301.947 35.9693L299.885 34.9384L297.823 33.9076L295.762 32.8765L293.7 31.8456L291.638 30.8148L289.576 29.7839L287.515 28.7531L285.453 27.7222L283.391 26.6914L281.329 25.6606L279.268 24.6295L277.206 23.5986L275.144 22.5678L273.082 21.5369L271.021 20.5061L268.959 19.4752L266.897 18.4444L264.835 17.4133L262.774 16.3825L260.712 15.3516L258.65 14.3208L256.588 13.2899L254.526 12.2591L252.465 11.2282L250.403 10.1974L248.341 9.16627L246.279 8.13543L244.218 7.10458L242.156 6.07373L240.094 5.04288L238.032 4.01203L235.971 2.98118L233.909 1.9501L232.092 1.04189L230.076 0.424805L228.257 0.650477L226.195 1.68133L225.127 2.21519L223.684 3.26126L222.757 5.02559L222.441 7.30904L222.438 7.33532V9.64044V11.9456V14.2507V16.5558V18.8609V21.166V23.4711V25.7763V28.0814V30.3865V32.6916V34.9967V37.3019V39.607V41.9121V44.2172V46.5223V48.8274V51.1326V53.4377V55.7428V58.0253" stroke="#A7A9B2" stroke-width="0.6" stroke-linejoin="round"/>
<path d="M372.758 205.87L374.202 204.824L375.128 203.059L375.444 200.776L375.448 200.749V198.444V196.139V193.834V191.529V189.224V186.919V184.614V182.309V180.003V177.698V175.393V173.088V170.783V168.478V166.173V163.868V161.562V159.257V156.952V154.647V152.342V150.037V147.732V145.427V143.121V140.816V138.511V136.206V133.901V131.596V129.291V126.986V124.681V122.375V120.07V117.765V115.46V113.155V110.85V108.545V106.24V103.934V101.629V99.3242V97.0191V94.714V92.4089V90.1038V87.7987V85.4935V83.8375L375.17 81.5492L375.128 81.2083L374.378 79.0288L374.202 78.5173L373.045 76.5232L372.758 76.0276L371.226 74.3054L370.939 73.9829L369.045 72.6688L368.923 72.5837L366.861 71.5529L364.799 70.5218L362.738 69.4909L360.676 68.4601L358.614 67.4293L356.552 66.3984L354.49 65.3676L352.429 64.3367L350.367 63.3059L348.305 62.2748L346.244 61.2439L344.182 60.2131L342.12 59.1822L340.058 58.1514L337.996 57.1205L335.935 56.0897L333.873 55.0586L331.811 54.0278L329.749 52.9969L327.688 51.9661L325.626 50.9352L323.564 49.9044L321.502 48.8735L319.44 47.8427L317.379 46.8116L315.317 45.7807L313.255 44.7499L311.193 43.719L309.132 42.6882L307.07 41.6573L305.008 40.6265L302.946 39.5954L300.885 38.5646L298.823 37.5337L296.761 36.5029L294.699 35.472L292.638 34.4412L290.576 33.4103L288.514 32.3792L286.452 31.3484L284.39 30.3175L282.329 29.2867L280.267 28.2558L278.205 27.225L276.143 26.1941L274.082 25.1633L272.02 24.1322L269.958 23.1014L267.896 22.0705L265.835 21.0397L263.773 20.0088L261.711 18.978L259.649 17.9471L257.588 16.916L255.526 15.8852L253.464 14.8543L251.402 13.8235L249.341 12.7926L247.279 11.7618L245.217 10.731L243.155 9.70011L241.094 8.66903L239.032 7.63818L236.97 6.60733L234.908 5.57648L232.847 4.54563L230.785 3.51478L228.968 2.60633L226.952 1.98926L225.133 2.21492" stroke="#A7A9B2" stroke-width="0.6" stroke-linejoin="round"/>
<path d="M236.812 16.5091L236.042 16.217L235.302 16.1221L234.62 16.2276L234.023 16.5294L233.532 17.0162L233.167 17.6693L232.943 18.4634L232.867 19.3681L232.943 20.3485L233.167 21.3671L233.532 22.3846L234.023 23.3622L234.62 24.2619L235.302 25.0493L236.042 25.6943L236.812 26.1719L237.582 26.464L238.322 26.5589L239.004 26.4536L239.601 26.1516L240.092 25.6648L240.457 25.0118L240.681 24.2176L240.757 23.3129L240.681 22.3325L240.457 21.3139L240.092 20.2964L239.601 19.3188L239.004 18.4191L238.322 17.6317L237.582 16.9867L236.812 16.5091Z" stroke="#A7A9B2" stroke-width="0.6" stroke-linejoin="round"/>
<path d="M247.703 21.9578L246.933 21.6658L246.193 21.5708L245.511 21.6761L244.913 21.9781L244.423 22.465L244.058 23.118L243.834 23.9121L243.758 24.8169L243.834 25.7972L244.058 26.8159L244.423 27.8333L244.913 28.8107L245.511 29.7106L246.193 30.4981L246.933 31.143L247.703 31.6207L248.472 31.9125L249.212 32.0077L249.894 31.9021L250.492 31.6001L250.983 31.1133L251.347 30.4603L251.572 29.6664L251.648 28.7616L251.572 27.7813L251.347 26.7626L250.983 25.7449L250.492 24.7675L249.894 23.8679L249.212 23.0804L248.472 22.4355L247.703 21.9578Z" stroke="#A7A9B2" stroke-width="0.6" stroke-linejoin="round"/>
<path d="M258.601 27.4061L257.832 27.1142L257.091 27.019L256.41 27.1246L255.812 27.4266L255.321 27.9134L254.957 28.5665L254.732 29.3606L254.656 30.2651L254.732 31.2457L254.957 32.2641L255.321 33.2818L255.812 34.2592L256.41 35.1589L257.091 35.9463L257.832 36.5913L258.601 37.0689L259.371 37.361L260.111 37.4559L260.793 37.3506L261.39 37.0486L261.881 36.5618L262.246 35.9087L262.47 35.1146L262.546 34.2099L262.47 33.2295L262.246 32.2109L261.881 31.1934L261.39 30.216L260.793 29.3161L260.111 28.5287L259.371 27.8837L258.601 27.4061Z" stroke="#A7A9B2" stroke-width="0.6" stroke-linejoin="round"/>
<path d="M263.622 137.735L265.683 138.766L267.745 139.797L269.807 140.828L271.869 141.859L273.93 142.889L275.992 143.92L278.054 144.951L280.116 145.982L282.177 147.013L284.239 148.044L286.301 149.075L288.363 150.106L290.424 151.137L292.486 152.167L293.615 152.732L294.499 152.921L295.249 152.575L295.75 151.747L295.926 150.563V148.258V145.953V143.647V141.342V139.037V136.732V134.427V132.122V129.817V127.512V125.206V122.901V120.596V118.291V115.986V113.681V111.376V109.071V106.766V104.46V102.155V99.8502V97.5451V95.2399V92.9348V90.6297V88.3246V86.0195V83.7143V81.4092V79.1041V76.799V74.4939V72.1888V70.7836L295.75 69.4233L295.249 68.0944L294.499 66.9988L293.615 66.3036L291.553 65.2727L289.492 64.2419L287.43 63.211L285.368 62.1802L283.306 61.1493L281.244 60.1182L279.183 59.0874L277.121 58.0565L275.059 57.0257L272.997 55.9948L270.936 54.964L268.874 53.9332L266.812 52.9023L264.75 51.8712L262.689 50.8404L260.627 49.8095L258.565 48.7787L256.503 47.7478L254.442 46.717L252.38 45.6859L250.318 44.6551L248.256 43.6242L246.195 42.5933L244.133 41.5625L242.071 40.5317L240.009 39.5008L237.948 38.47L235.452 37.2217L234.567 37.0327L233.817 37.3785L233.316 38.2067L233.141 39.3909V41.696V44.0011V46.3062V48.6113V50.9164V53.2216V55.5267V56.0149" stroke="#A7A9B2" stroke-width="0.6" stroke-linejoin="round"/>
<path d="M306.922 79.4068V80.5414L307.253 81.6877L308.054 82.4941L310.116 83.5251L312.177 84.556L314.239 85.5868L316.301 86.6177L318.363 87.6485L320.425 88.6794L322.486 89.7102L324.548 90.7411L326.61 91.7722L328.672 92.803L330.733 93.8339L332.795 94.8647L334.857 95.8955L336.919 96.9264L338.98 97.9573L341.042 98.9883L343.104 100.019L345.166 101.05L347.227 102.081L349.289 103.112L351.351 104.143L353.413 105.173L355.474 106.204L357.536 107.235L359.598 108.266L361.424 109.179L362.225 109.173L362.557 108.359V107.224L362.225 106.078L361.424 105.272L359.363 104.241L357.301 103.21L355.239 102.179L353.177 101.148L351.116 100.117L349.054 99.0863L346.992 98.0554L344.93 97.0246L342.869 95.9935L340.807 94.9627L338.745 93.9318L336.683 92.901L334.622 91.8701L332.56 90.8393L330.498 89.8084L328.436 88.7776L326.375 87.7465L324.313 86.7157L322.251 85.6848L320.189 84.6539L318.127 83.6231L316.066 82.5923L314.004 81.5614L311.942 80.5303L309.88 79.4995L308.054 78.5864L307.253 78.5922L306.922 79.4068Z" stroke="#A7A9B2" stroke-width="0.6" stroke-linejoin="round"/>
<path d="M306.922 89.3941V90.5287L307.253 91.675L308.054 92.4814L310.116 93.5122L312.177 94.5433L314.239 95.5741L316.301 96.605L318.363 97.6358L320.425 98.6667L322.486 99.6975L324.548 100.728L326.61 101.759L328.672 102.79L330.733 103.821L332.795 104.852L334.857 105.883L336.919 106.914L338.98 107.945L341.042 108.975L343.104 110.006L345.166 111.037L347.227 112.068L349.289 113.099L351.351 114.13L353.413 115.161L355.474 116.192L357.536 117.223L359.598 118.254L361.424 119.167L362.225 119.161L362.557 118.346V117.212L362.225 116.065L361.424 115.259L359.363 114.228L357.301 113.197L355.239 112.166L353.177 111.135L351.116 110.104L349.054 109.074L346.992 108.043L344.93 107.012L342.869 105.981L340.807 104.95L338.745 103.919L336.683 102.888L334.622 101.857L332.56 100.827L330.498 99.7957L328.436 98.7646L326.375 97.7338L324.313 96.703L322.251 95.6721L320.189 94.6413L318.127 93.6104L316.066 92.5796L314.004 91.5487L311.942 90.5176L309.88 89.4868L308.054 88.5737L307.253 88.5795L306.922 89.3941Z" stroke="#A7A9B2" stroke-width="0.6" stroke-linejoin="round"/>
<path d="M306.922 99.3812V100.516L307.253 101.662L308.054 102.468L310.116 103.499L312.177 104.53L314.239 105.561L316.301 106.592L318.363 107.623L320.425 108.654L322.486 109.685L324.548 110.715L326.61 111.746L328.672 112.777L330.733 113.808L332.795 114.839L334.857 115.87L336.919 116.901L338.98 117.932L341.042 118.962L343.104 119.993L345.166 121.024L347.227 122.055L349.289 123.086L351.351 124.117L353.413 125.148L355.474 126.179L357.536 127.209L359.598 128.24L361.424 129.154L362.225 129.148L362.557 128.333V127.199L362.225 126.052L361.424 125.246L359.363 124.215L357.301 123.184L355.239 122.153L353.177 121.122L351.116 120.092L349.054 119.061L346.992 118.03L344.93 116.999L342.869 115.968L340.807 114.937L338.745 113.906L336.683 112.875L334.622 111.844L332.56 110.813L330.498 109.783L328.436 108.752L326.375 107.721L324.313 106.69L322.251 105.659L320.189 104.628L318.127 103.597L316.066 102.566L314.004 101.536L311.942 100.505L309.88 99.4738L308.054 98.5605L307.253 98.5665L306.922 99.3812Z" stroke="#A7A9B2" stroke-width="0.6" stroke-linejoin="round"/>
<path d="M353.797 175.781L354.596 175.918L356.657 174.887L357.099 174.666L357.827 174.139L358.094 173.054V170.749V168.444V166.139V163.834V161.529V159.194L357.827 157.843L357.099 156.587L356.105 155.764L354.043 154.733L351.982 153.702L349.92 152.671L347.858 151.64L345.796 150.609L343.734 149.579L341.673 148.548L339.611 147.517L337.549 146.486L335.488 145.455L333.426 144.424L331.364 143.393L329.302 142.362L327.24 141.331L325.179 140.3L324.453 139.938L323.459 139.767L321.397 140.798L320.955 141.019L320.227 141.546L319.961 142.631V144.936V147.241V149.546V151.851V154.157V156.491L320.227 157.842L320.955 159.098L321.95 159.921L324.011 160.952L326.073 161.983L328.135 163.014L330.197 164.045L332.258 165.076L334.32 166.107L336.382 167.138L338.444 168.168L340.506 169.199L342.285 170.089" stroke="#A7A9B2" stroke-width="0.6" stroke-linejoin="round"/>
<path d="M354.601 175.919L355.329 175.391L355.596 174.306V172.001V169.696V167.391V165.086V162.781V160.446L355.329 159.095L354.601 157.839L353.607 157.016L351.545 155.985L349.484 154.954L347.422 153.923L345.36 152.892L343.298 151.861L341.237 150.831L339.175 149.8L337.113 148.769L335.051 147.738L332.989 146.707L330.928 145.676L328.866 144.645L326.804 143.614L324.742 142.584L322.681 141.553L321.955 141.19L320.961 141.019" stroke="#A7A9B2" stroke-width="0.6" stroke-linejoin="round"/>
<path d="M150.622 208.632L148.56 209.663L146.498 210.694L144.437 211.725L142.375 212.756L140.313 213.787L138.251 214.818L136.189 215.849L134.128 216.879L132.066 217.91L130.004 218.941L127.942 219.972L125.881 221.003L123.819 222.034L121.757 223.065L119.695 224.096L117.634 225.126L115.572 226.157L113.51 227.188L111.448 228.219L109.387 229.25L107.325 230.281L105.263 231.312L103.201 232.343L101.14 233.373L99.0778 234.404L97.0161 235.435L94.9544 236.466L92.8927 237.497L90.8308 238.528L88.7691 239.559L86.7074 240.59L84.6454 241.62L82.0273 242.93L81.25 243.603V244.38L82.0273 245.053L84.089 246.084L86.1509 247.115L88.2126 248.146L90.2743 249.177L92.336 250.208L94.3979 251.239L96.4596 252.27L98.5213 253.3L100.583 254.331L102.645 255.362L104.707 256.393L106.768 257.424L108.83 258.455L110.892 259.486L112.954 260.517L115.015 261.547L117.077 262.579L119.139 263.609L121.201 264.64L123.262 265.671L125.324 266.702L127.386 267.733L129.448 268.764L131.51 269.794L133.571 270.826L135.633 271.856L137.695 272.887L139.757 273.918L141.818 274.949L143.88 275.98L145.942 277.011L148.004 278.042L150.065 279.073L152.127 280.103L154.189 281.134L156.251 282.165L158.312 283.196L160.374 284.227L162.436 285.258L164.498 286.289L166.559 287.32L168.621 288.35L170.683 289.381L172.745 290.412L174.806 291.443L176.254 292.167L177.6 292.555H179.155L180.501 292.167L182.563 291.136L184.625 290.105L186.687 289.074L188.748 288.043L190.81 287.012L192.872 285.981L194.934 284.95L196.996 283.92L199.057 282.889L201.119 281.858L203.181 280.827L205.243 279.796L207.304 278.765L209.366 277.734L211.428 276.703L212.146 276.344L212.267 276.284L214.329 275.253L216.39 274.222L218.452 273.191L220.514 272.16L222.576 271.129L224.637 270.099L226.699 269.068L228.761 268.037L230.823 267.006L232.884 265.975L234.946 264.944L236.55 264.142L236.623 264.106L238.685 263.075L240.747 262.044L242.808 261.013L244.87 259.982L246.932 258.951L248.994 257.92L251.055 256.89L253.117 255.859L255.179 254.828L257.241 253.797L259.303 252.766L261.364 251.735L263.426 250.704L265.488 249.673L267.55 248.642L269.611 247.612L271.673 246.581L273.735 245.55L275.797 244.519L277.858 243.488L279.92 242.457L281.982 241.426L284.044 240.395L286.105 239.365L286.957 238.939L287.734 238.266V237.488L286.957 236.815L284.895 235.784L282.833 234.753L280.771 233.722L278.71 232.692L276.648 231.661L274.586 230.63L272.524 229.599L270.462 228.568L268.401 227.537L266.339 226.506L264.277 225.475L262.215 224.445L260.154 223.414L258.092 222.383L256.03 221.352L253.968 220.321L251.907 219.29L249.845 218.259L247.783 217.228L245.721 216.197L243.66 215.167L241.598 214.136L239.536 213.105L237.474 212.074L235.413 211.043L233.351 210.012L232.556 209.615" stroke="#A7A9B2" stroke-width="0.6" stroke-linejoin="round"/>
<path d="M192.79 295.207L193.521 295.573L194.617 295.8L195.713 295.573L197.775 294.542L199.837 293.511L201.899 292.48L203.96 291.449L206.022 290.418L208.084 289.388L210.146 288.357L212.207 287.326L214.269 286.295L216.331 285.264L218.393 284.233L220.454 283.202L222.516 282.171L224.578 281.141L226.64 280.11L228.701 279.079L230.763 278.048L232.825 277.017L234.887 275.986L236.948 274.955L239.01 273.924L241.072 272.894L243.134 271.863L245.196 270.832L247.257 269.801L249.319 268.77L251.381 267.739L253.443 266.708L255.504 265.677L257.566 264.647L259.628 263.615L261.69 262.585L263.751 261.554L265.813 260.523L267.875 259.492L269.937 258.461L271.998 257.43L274.06 256.4L276.122 255.368L278.184 254.338L280.246 253.307L282.307 252.276L284.369 251.245L286.431 250.214L288.493 249.183L290.689 248.085L291.143 247.537L290.689 246.989L289.957 246.623L288.861 246.396L287.765 246.623L285.704 247.654L283.642 248.685L281.58 249.716L279.518 250.747L277.457 251.778L275.395 252.809L273.333 253.839L271.271 254.87L269.21 255.901L267.148 256.932L265.086 257.963L263.024 258.994L260.963 260.025L258.901 261.056L256.839 262.086L254.777 263.118L252.715 264.148L250.654 265.179L248.592 266.21L246.53 267.241L244.468 268.272L242.407 269.303L240.345 270.334L239.482 270.765L239.433 270.79L237.371 271.821L235.309 272.851L234.62 273.196L234.284 273.364L232.222 274.395L230.16 275.426L229.664 275.674L229.476 275.768L227.414 276.799L225.352 277.83L224.636 278.188L224.394 278.309L222.332 279.34L220.27 280.371L218.208 281.402L216.147 282.433L214.085 283.464L212.023 284.495L209.961 285.525L207.9 286.556L205.838 287.587L203.776 288.618L201.714 289.649L199.653 290.68L197.591 291.711L195.529 292.742L193.467 293.772L192.79 294.111L192.336 294.659L192.79 295.207Z" stroke="#A7A9B2" stroke-width="0.6" stroke-linejoin="round"/>
<path d="M200.056 298.836L200.787 299.202L201.883 299.429L202.979 299.202L205.041 298.171L207.103 297.14L209.164 296.109L211.226 295.078L213.288 294.047L215.35 293.016L217.411 291.986L219.473 290.955L221.535 289.924L223.597 288.893L225.658 287.862L227.72 286.831L229.782 285.8L231.844 284.769L233.905 283.738L235.967 282.708L238.029 281.677L240.091 280.646L242.152 279.615L244.214 278.584L246.276 277.553L248.338 276.522L250.4 275.491L252.461 274.461L254.523 273.43L256.585 272.399L258.647 271.368L260.708 270.337L262.77 269.306L264.832 268.275L266.894 267.244L268.955 266.214L271.017 265.183L273.079 264.152L275.141 263.121L277.202 262.09L279.264 261.059L281.326 260.028L283.388 258.997L285.449 257.966L287.511 256.936L289.573 255.905L291.635 254.874L293.108 254.137L293.562 253.589L293.108 253.041L292.376 252.676L291.28 252.449L290.184 252.676L288.122 253.706L286.061 254.737L283.999 255.768L281.937 256.799L279.875 257.83L277.814 258.861L275.752 259.892L273.69 260.923L271.628 261.954L269.567 262.985L267.505 264.015L265.443 265.046L263.381 266.077L261.319 267.108L259.258 268.139L257.196 269.17L255.134 270.201L253.072 271.232L251.011 272.262L248.949 273.293L246.887 274.324L244.825 275.355L242.764 276.386L240.702 277.417L238.64 278.448L236.578 279.479L234.517 280.509L232.455 281.54L230.393 282.571L228.331 283.602L226.27 284.633L224.208 285.664L222.146 286.695L220.084 287.726L218.023 288.756L215.961 289.787L213.899 290.818L211.837 291.849L209.776 292.88L207.714 293.911L205.652 294.942L203.59 295.973L201.528 297.003L200.056 297.74L199.602 298.288L200.056 298.836Z" stroke="#A7A9B2" stroke-width="0.6" stroke-linejoin="round"/>
<path d="M269.569 288.72L270.145 289.008L271.009 289.187L271.873 289.008L273.935 287.977L275.997 286.947L278.058 285.916L280.12 284.885L282.182 283.854L284.244 282.823L286.305 281.792L288.367 280.761L290.429 279.73L292.491 278.699L294.552 277.669L296.614 276.638L298.676 275.607L300.738 274.576L302.799 273.545L304.861 272.514L306.923 271.483L308.985 270.452L311.046 269.421L313.353 268.268L313.71 267.837L313.353 267.405L312.776 267.116L311.912 266.938L311.048 267.116L308.986 268.147L306.925 269.178L304.863 270.209L302.801 271.24L300.739 272.271L298.678 273.302L296.616 274.333L294.554 275.363L292.492 276.394L290.431 277.425L288.369 278.456L286.307 279.487L284.245 280.518L282.184 281.549L280.122 282.58L278.06 283.61L275.998 284.641L273.936 285.672L271.875 286.703L269.569 287.856L269.211 288.288L269.569 288.72Z" stroke="#A7A9B2" stroke-width="0.6" stroke-linejoin="round"/>
<path d="M274.967 291.419L275.544 291.707L276.408 291.886L277.272 291.707L279.333 290.676L281.395 289.645L283.457 288.614L285.519 287.584L287.58 286.553L289.642 285.522L291.704 284.491L293.766 283.46L295.827 282.429L297.889 281.398L299.951 280.367L302.013 279.337L304.074 278.306L306.136 277.275L308.198 276.244L309.445 275.621L309.802 275.189L309.445 274.757L308.868 274.468L308.004 274.29L307.14 274.468L305.078 275.499L303.017 276.53L300.955 277.561L298.893 278.592L296.831 279.623L294.77 280.654L292.708 281.685L290.646 282.715L288.584 283.746L286.523 284.777L284.461 285.808L282.399 286.839L280.337 287.87L278.276 288.901L276.214 289.932L274.967 290.555L274.609 290.987L274.967 291.419Z" stroke="#A7A9B2" stroke-width="0.6" stroke-linejoin="round"/>
<path d="M57.6899 162.081V162.105L57.4808 162.028L57.2639 161.968L57.0394 161.925L56.8079 161.9L56.5696 161.893L56.325 161.904L56.0744 161.935L55.8186 161.984L55.5574 162.052L55.2914 162.14L55.021 162.248L54.7469 162.376L54.0814 162.764L53.4429 163.243L52.8376 163.802L52.2712 164.434L51.7496 165.126L51.2787 165.869L50.8639 166.653L50.5117 167.468L50.2275 168.304L50.0173 169.15L49.8868 169.997L49.8421 170.834L49.8868 171.627L50.0173 172.343L50.2275 172.98L50.5117 173.531L50.8639 173.994L51.2787 174.363L51.7496 174.635L52.2712 174.806L52.8376 174.871L53.4429 174.825L54.0814 174.666L54.7469 174.388L55.0743 174.211L55.3956 174.012L55.7107 173.79L56.0187 173.548L56.3188 173.287L56.6106 173.008L56.8932 172.711L57.1662 172.398L57.4285 172.071L57.6795 171.73L57.919 171.377L58.1458 171.013L58.2567 171.233L58.3823 171.42L58.5239 171.573L58.6818 171.693L58.857 171.779L59.0504 171.832L59.2624 171.851L59.4941 171.837L59.7463 171.789L60.0196 171.708L60.3149 171.593L60.6328 171.445L61.1962 171.127L61.7271 170.749L62.2222 170.311L62.6786 169.811L63.0931 169.249L63.4626 168.624L63.7839 167.934L64.0536 167.178L64.2691 166.356L64.4268 165.465L64.5236 164.506L64.5568 163.477L64.4849 161.666L64.2703 160.068L63.9153 158.686L63.422 157.522L62.7925 156.579L62.0288 155.859L61.133 155.365L60.1072 155.1L58.9538 155.065L57.6744 155.263L56.2716 155.698L54.7469 156.37L53.6962 156.964L52.6723 157.678L51.6823 158.503L50.733 159.429L49.831 160.446L48.9834 161.545L48.1967 162.716L47.4782 163.95L46.8344 165.238L46.2722 166.57L45.7982 167.937L45.4197 169.328L45.1479 170.709L44.988 172.044L44.9375 173.323L44.9937 174.54L45.1542 175.686L45.4161 176.751L45.7768 177.727L46.2339 178.606L46.7846 179.379L47.4266 180.038L48.1571 180.574L48.9735 180.979L49.8559 181.24L50.7807 181.352L51.7395 181.32L52.7235 181.148L53.7248 180.84L54.7345 180.4L55.7446 179.833L56.7462 179.143L57.7309 178.334L58.6908 177.41L59.6167 176.376L60.5007 175.235L60.4781 175.208L60.3209 175.021L60.0681 174.719" stroke="#A7A9B2" stroke-width="0.6" stroke-linejoin="round"/>
<path d="M60.4776 175.208L60.3204 175.021L60.0675 174.719L59.6484 174.22" stroke="#A7A9B2" stroke-width="0.6" stroke-linejoin="round"/>
<path d="M59.3594 173.864L59.4447 173.966L59.6581 174.22L59.7257 174.301" stroke="#A7A9B2" stroke-width="0.6" stroke-linejoin="round"/>
<path d="M59.7329 174.321L59.6478 174.22L59.6474 174.219L59.4344 173.965L59.3491 173.864L58.6419 174.777L57.901 175.604L57.1332 176.343L56.3453 176.991L55.544 177.543L54.7361 177.996L53.9281 178.348L53.1273 178.594L52.3399 178.732L51.573 178.758L50.8331 178.668L50.1272 178.459L49.4742 178.136L48.8898 177.707L48.3763 177.179L47.9355 176.561L47.5699 175.858L47.2811 175.077L47.0718 174.225L46.9434 173.308L46.8984 172.335L46.939 171.311L47.0667 170.243L47.2843 169.139L47.587 168.026L47.9662 166.932L48.4159 165.867L48.9309 164.837L49.5058 163.849L50.1351 162.912L50.8132 162.033L51.5347 161.219L52.2943 160.479L53.0863 159.819L53.9053 159.248L54.746 158.772L56.002 158.212L57.1484 157.842L58.185 157.661L59.1117 157.669L59.9288 157.865L60.6367 158.249L61.2354 158.82L61.7247 159.577L62.1051 160.52L62.3766 161.648L62.5394 162.961L62.5935 164.458L62.5795 165.137L62.5371 165.747L62.467 166.292L62.3692 166.777L62.2443 167.206L62.0924 167.584L61.914 167.916L61.7091 168.206L61.4781 168.459L61.2213 168.68L60.9391 168.872L60.6316 169.043L60.4454 169.121L60.2829 169.156L60.143 169.141L60.024 169.072L59.9244 168.942L59.8431 168.748L59.7781 168.484L59.7283 168.144L59.6921 167.724L59.6681 167.218L59.6547 166.622L59.6506 165.93V163.624V161.319V159.923L57.6887 160.904V160.928V161.092V161.356V161.654V161.917" stroke="#A7A9B2" stroke-width="0.6" stroke-linejoin="round"/>
<path d="M59.4453 173.965L59.7263 174.3L59.7438 174.321L60.0778 174.719" stroke="#A7A9B2" stroke-width="0.6" stroke-linejoin="round"/>
<path d="M56.2409 164.528L56.5539 164.63L56.8365 164.794L57.0852 165.015L57.2966 165.293L57.4672 165.624L57.5933 166.005L57.6714 166.435L57.6984 166.911L57.6714 167.413L57.5933 167.921L57.4672 168.429L57.2966 168.93L57.0852 169.419L56.8365 169.89L56.5539 170.336L56.2409 170.751L55.9009 171.13L55.5378 171.466L55.1547 171.753L54.7555 171.986L54.3562 172.152L53.9731 172.248L53.6098 172.275L53.27 172.236L52.957 172.134L52.6744 171.971L52.4257 171.749L52.2143 171.471L52.0437 171.141L51.9176 170.759L51.8393 170.329L51.8125 169.853L51.8393 169.351L51.9176 168.843L52.0437 168.335L52.2143 167.834L52.4257 167.345L52.6744 166.874L52.957 166.429L53.27 166.013L53.6098 165.634L53.9731 165.298L54.3562 165.011L54.7555 164.779L55.1547 164.612L55.5378 164.516L55.9009 164.489L56.2409 164.528Z" stroke="#A7A9B2" stroke-width="0.6" stroke-linejoin="round"/>
<path d="M57.6953 160.928V161.092V161.356V161.654V161.918V162.105" stroke="#A7A9B2" stroke-width="0.6" stroke-linejoin="round"/>
<path d="M270.117 67.3791L270.185 67.9203L270.209 68.1209L270.117 67.3791ZM270.117 67.3791L270.077 67.0598L270.05 66.8496L269.885 66.0587L269.679 65.4259L269.605 65.2086L269.348 64.6256L269.044 64.0844L268.886 63.852L268.534 63.3516L268.14 62.9032L267.708 62.5116L267.287 62.1762L266.817 61.8415L265.929 61.3055L265.426 61.0324L263.86 60.1864L261.811 59.1295L261.512 58.9755L259.454 57.9373L258.715 57.5646L256.65 56.5409L255.909 56.1737L253.834 55.1689L253.532 55.0225L251.917 54.2775L250.954 53.8881L250.43 53.683L249.906 53.5467L249.246 53.4331L248.947 53.4458L247.555 53.5311L245.274 53.8614L244.708 53.9435L242.437 54.3365L240.166 54.7295L239.69 54.8118L237.423 55.2283L235.155 55.6446L233.142 56.0144L232.141 56.1983L229.875 56.6245L227.61 57.051L225.573 57.4341L223.307 57.8605L223.139 57.8921L222.443 58.0251L220.179 58.4578L217.915 58.8905L215.651 59.3231L214.122 59.6152L211.859 60.0543L209.596 60.4934L207.333 60.9326L206.527 61.0891L204.267 61.54L202.006 61.9909L201.432 62.1054L199.177 62.5853L198.473 62.7354L196.928 63.1211L196.716 63.1904L195.866 63.4717L195.107 63.7672L194.325 64.0975L193.527 64.4592L192.722 64.8492L191.916 65.2637L191.119 65.6986L190.336 66.1497L190.172 66.2443L189.417 66.7048L188.571 67.2705L187.029 68.4263L185.217 69.8511L184.066 70.7556L182.266 72.1952L180.465 73.6345L178.956 74.841L177.161 76.2863L175.365 77.7316L173.569 79.1767L171.773 80.622L171.335 80.9744L169.542 82.423L167.749 83.8713L165.956 85.3198L164.162 86.7681L162.286 88.2837L160.495 89.735L158.705 91.1866L156.914 92.6381L155.123 94.0896L153.253 95.6052L151.466 97.0616L149.68 98.5177L147.893 99.9739L146.106 101.43L145.681 101.776L143.903 103.243L142.126 104.71L140.654 105.925L138.9 107.42L137.811 108.349L136.431 109.639L136.365 109.704L135.736 110.436L135.248 111.113L134.785 111.828L134.349 112.573L133.945 113.342L133.577 114.128L133.248 114.926L132.96 115.726L132.717 116.523L132.518 117.331L132.358 118.26L132.343 118.369L132.21 119.563L132.099 121.137L132.004 123.187L131.939 125.491L131.935 125.662L131.911 127.967L131.906 128.475L131.927 130.78L131.933 131.539L132 133.843L132.027 134.784L132.139 137.087L132.193 138.203L132.346 140.503L132.433 141.807L132.623 144.104L132.748 145.604L132.974 147.898L133.142 149.603L133.403 151.894L133.621 153.8L133.643 153.991L133.941 156.277L134.215 158.384L134.548 160.665L134.885 162.964L135.256 165.239L135.628 167.514L135.659 167.706L136.074 169.973L136.488 172.241L136.537 172.51L137.001 174.768L137.466 177.026L137.514 177.259L138.041 179.503L138.567 181.747L138.587 181.833L139.192 184.057L139.756 186.137L140.452 188.335L141.031 190.166L141.103 190.38L141.902 192.543L142.498 194.159L143.411 196.276L144.024 197.7L144.131 197.911L144.418 198.483L144.459 198.567L145.147 199.937L145.691 201.019L145.762 201.142L146.01 201.571L146.237 201.961L146.59 202.569L147.492 204.124L148.77 206.042L149.419 207.017L149.579 207.253L150.628 208.632L151.626 209.942L153.136 211.683L153.781 212.427L155.4 214.068L156.036 214.713L157.758 216.245L158.382 216.801L158.802 217.136L160.619 218.555L161.231 219.034L163.135 220.334L163.733 220.742L164.62 221.278L166.603 222.455L167.188 222.802L168.753 223.648L170.802 224.705L171.099 224.858L173.151 225.908L173.724 226.201L175.782 227.239L176.52 227.612L178.586 228.636L179.327 229.003L181.402 230.008L181.704 230.154L183.32 230.899L185.432 231.821L185.987 232.063L186.949 232.452L189.112 233.248L189.637 233.44L191.838 234.124L192.263 234.256L194.493 234.837L194.729 234.898L195.248 235.033L197.452 235.503L199.325 235.808L200.887 235.976L202.185 236.042L203.266 236.039L204.178 235.996L204.457 235.983L205.244 235.902L205.961 235.779L206.658 235.608L207.373 235.388L207.586 235.318L208.318 235.051L209.064 234.739L209.817 234.384L210.57 233.989L210.74 233.892L211.479 233.466L212.204 233.009L212.908 232.526L213.593 232.012L214.3 231.43L215.08 230.734L215.983 229.878L217.059 228.81L217.149 228.719L218.439 227.372L219.993 225.659L221.5 223.915L221.858 223.501L223.328 221.725L224.055 220.847L225.492 219.044L226.51 217.766L227.912 215.937L229.124 214.355L230.488 212.496L231.799 210.71L232.563 209.615L233.883 207.725L234.45 206.912L235.724 204.991L236.997 203.07L237.055 202.984L238.281 201.032L238.937 199.989L238.987 199.909L239.329 199.365L239.603 198.929L240.782 196.948L241.96 194.967L242.087 194.753L243.216 192.743L244.345 190.734L244.498 190.461L245.575 188.424L246.652 186.386L246.825 186.059L247.85 183.994L248.874 181.929L249.062 181.551L250.031 179.459L251 177.368L251.197 176.942L252.109 174.825L253.021 172.708L253.223 172.238L254.076 170.096L254.928 167.954L255.132 167.442L255.922 165.277L256.712 163.112L256.913 162.561L257.638 160.373L258.364 158.185L258.559 157.597L259.218 155.388L259.877 153.179L260.065 152.549L260.418 151.226L261.012 148.998L261.154 148.464L261.44 147.393L261.973 145.151L262.506 142.908L262.699 142.099L263.176 139.844L263.623 137.735L263.855 136.635L264.283 134.37L264.711 132.105L264.92 130.998L265.307 128.725L265.693 126.453L265.892 125.282L266.244 123.004L266.595 120.725L266.767 119.61L266.785 119.488L267.106 117.205L267.426 114.923L267.559 113.976L267.851 111.689L268.143 109.403L268.229 108.73L268.492 106.44L268.756 104.15L268.799 103.769L269.034 101.476L269.269 99.183L269.278 99.0933L269.484 96.7974L269.672 94.7005L269.848 92.4021L269.987 90.5877L270.131 88.2872L270.226 86.7448L270.333 84.4422L270.392 83.1599L270.457 80.8557L270.487 79.8207L270.507 77.5156L270.513 76.7295L270.49 74.4244L270.485 73.9447L270.419 71.6405L270.416 71.5387L270.321 69.5841L270.209 68.1209" stroke="#A7A9B2" stroke-width="0.6" stroke-linejoin="round"/>
<path d="M94.6953 56.701L94.7017 56.6953" stroke="#A7A9B2" stroke-width="0.6" stroke-linejoin="round"/>
<path d="M94.6953 56.701L94.7017 56.6953" stroke="#A7A9B2" stroke-width="0.6" stroke-linejoin="round"/>
<path d="M318.039 315.116L318.058 315.089" stroke="#A7A9B2" stroke-width="0.6" stroke-linejoin="round"/>
</svg>
