<svg width="620" height="440" viewBox="0 0 620 440" fill="none" xmlns="http://www.w3.org/2000/svg">
<path d="M136.312 296.687V296.848C136.336 296.94 136.474 297.747 136.497 297.862C137.28 300.421 139.653 302.197 141.956 303.372C144.56 304.663 147.6 306.208 150.204 307.499C162.528 313.677 174.968 319.879 187.292 326.057C207.887 336.362 228.528 346.691 249.099 356.996C264.188 364.534 279.346 372.142 294.435 379.681C299.849 382.378 305.516 385.213 310.929 387.934C313.648 389.225 316.642 390.977 319.476 391.991C326.156 394.158 333.689 394.158 340.393 391.991C344.056 390.608 347.742 388.441 351.266 386.781C371.838 376.476 392.502 366.148 413.073 355.843C425.398 349.664 437.838 343.463 450.162 337.285C454.055 335.094 459.676 333.619 461.243 328.962C461.266 328.847 461.404 328.04 461.427 327.948C461.427 325.412 461.427 322.461 461.427 319.925C461.151 317.32 459.077 315.337 456.935 314.046C454.723 312.824 451.867 311.487 449.609 310.312C437.976 304.479 426.227 298.6 414.571 292.791C394.667 282.831 374.717 272.849 354.814 262.89C329.75 250.395 304.733 237.715 279.623 225.335C273.08 222.753 265.57 222.592 258.798 224.367C255.273 225.335 251.818 227.433 248.523 229.001C227.952 239.306 207.288 249.634 186.716 259.939C174.392 266.117 161.952 272.319 149.628 278.497C147.831 279.419 145.251 280.664 143.454 281.586C140.666 282.924 137.464 284.699 136.497 287.834C136.474 287.949 136.336 288.756 136.312 288.848C136.313 291.315 136.312 294.22 136.312 296.687Z" stroke="#787796" stroke-width="0.6" stroke-linejoin="round"/>
<path d="M399.596 360.154C398.697 360.615 396.831 361.537 395.933 361.998L395.726 362.021L395.518 361.998L395.334 361.906L395.196 361.768L395.081 361.583L395.011 361.353C394.896 360.569 395.311 359.716 395.933 359.209C398.213 358.056 400.978 356.696 403.258 355.543L403.466 355.52L403.673 355.543L403.857 355.635L403.996 355.774L404.111 355.958L404.18 356.189C404.295 356.995 403.88 357.825 403.258 358.333C402.36 358.771 400.494 359.716 399.596 360.154Z" stroke="#787796" stroke-width="0.6" stroke-linejoin="round"/>
<path d="M360.317 378.666C360.225 377.883 360.662 377.007 361.354 376.615L361.561 376.546L361.768 376.522L361.953 376.546L362.114 376.615L362.252 376.753L362.344 376.937L362.413 377.145C362.505 377.929 362.068 378.805 361.377 379.197L361.169 379.266L360.962 379.289L360.778 379.266L360.616 379.197L360.478 379.058L360.386 378.874L360.317 378.666Z" stroke="#787796" stroke-width="0.6" stroke-linejoin="round"/>
<path d="M386.952 365.087C386.929 365.802 386.537 366.54 385.892 366.909L385.685 366.978L385.477 367.001L385.293 366.978L385.132 366.909L384.994 366.77L384.902 366.586L384.833 366.378C384.74 365.595 385.178 364.719 385.869 364.327L386.076 364.257L386.284 364.234L386.468 364.257L386.629 364.327L386.768 364.465L386.86 364.649L386.929 364.857L386.952 365.087Z" stroke="#787796" stroke-width="0.6" stroke-linejoin="round"/>
<path d="M363.043 377.306C362.951 376.522 363.389 375.646 364.08 375.254L364.287 375.185L364.495 375.162L364.679 375.185L364.84 375.254L364.979 375.393L365.071 375.577L365.14 375.785C365.232 376.568 364.794 377.444 364.103 377.836L363.896 377.906L363.688 377.929L363.504 377.906L363.343 377.836L363.205 377.698L363.113 377.514L363.043 377.306Z" stroke="#787796" stroke-width="0.6" stroke-linejoin="round"/>
<path d="M365.778 375.923C365.686 375.139 366.123 374.263 366.814 373.871L367.022 373.802L367.229 373.779L367.413 373.802L367.575 373.871L367.713 374.009L367.805 374.194L367.874 374.401C367.966 375.185 367.529 376.061 366.838 376.453L366.63 376.522L366.423 376.545L366.239 376.522L366.077 376.453L365.939 376.315L365.847 376.13L365.778 375.923Z" stroke="#787796" stroke-width="0.6" stroke-linejoin="round"/>
<path d="M384.233 366.448C384.21 367.162 383.818 367.9 383.173 368.269L382.966 368.338L382.759 368.361L382.575 368.338L382.413 368.269L382.275 368.131L382.183 367.946L382.114 367.739C382.022 366.955 382.459 366.079 383.15 365.687L383.358 365.618L383.565 365.595L383.749 365.618L383.911 365.687L384.049 365.825L384.141 366.01L384.21 366.217L384.233 366.448Z" stroke="#787796" stroke-width="0.6" stroke-linejoin="round"/>
<path d="M368.497 374.562C368.404 373.779 368.842 372.903 369.533 372.511L369.741 372.442L369.948 372.418L370.132 372.442L370.293 372.511L370.432 372.649L370.524 372.833L370.593 373.041C370.685 373.825 370.247 374.701 369.556 375.093L369.349 375.162L369.142 375.185L368.957 375.162L368.796 375.093L368.658 374.954L368.566 374.77L368.497 374.562Z" stroke="#787796" stroke-width="0.6" stroke-linejoin="round"/>
<path d="M371.239 373.203C371.147 372.419 371.584 371.543 372.275 371.151L372.483 371.082L372.69 371.059L372.874 371.082L373.036 371.151L373.174 371.289L373.266 371.474L373.335 371.681C373.427 372.465 372.99 373.341 372.298 373.733L372.091 373.802L371.884 373.825L371.7 373.802L371.538 373.733L371.4 373.595L371.308 373.41L371.239 373.203Z" stroke="#787796" stroke-width="0.6" stroke-linejoin="round"/>
<path d="M381.491 367.808C381.468 368.522 381.076 369.26 380.431 369.629L380.224 369.698L380.017 369.721L379.832 369.698L379.671 369.629L379.533 369.491L379.441 369.306L379.372 369.099C379.279 368.315 379.717 367.439 380.408 367.047L380.616 366.978L380.823 366.955L381.007 366.978L381.168 367.047L381.307 367.185L381.399 367.37L381.468 367.577L381.491 367.808Z" stroke="#787796" stroke-width="0.6" stroke-linejoin="round"/>
<path d="M373.958 371.842C373.865 371.058 374.303 370.182 374.994 369.79L375.202 369.721L375.409 369.698L375.593 369.721L375.754 369.79L375.893 369.929L375.985 370.113L376.054 370.321C376.146 371.105 375.708 371.981 375.017 372.372L374.81 372.442L374.603 372.465L374.418 372.442L374.257 372.372L374.119 372.234L374.027 372.05L373.958 371.842Z" stroke="#787796" stroke-width="0.6" stroke-linejoin="round"/>
<path d="M376.7 370.459C376.608 369.675 377.045 368.799 377.736 368.407L377.944 368.338L378.151 368.315L378.335 368.338L378.497 368.407L378.635 368.545L378.727 368.73L378.796 368.937C378.888 369.721 378.45 370.597 377.759 370.989L377.552 371.058L377.345 371.081L377.16 371.058L376.999 370.989L376.861 370.851L376.769 370.666L376.7 370.459Z" stroke="#787796" stroke-width="0.6" stroke-linejoin="round"/>
<path d="M137.374 286.013C137.121 286.405 136.729 287.235 136.591 287.696L136.43 288.549V289.402L136.591 290.255C137.605 293.528 141.06 295.211 143.94 296.594C145.806 297.517 148.27 298.761 150.113 299.684C162.438 305.862 174.878 312.064 187.202 318.242C207.797 328.547 228.438 338.875 249.009 349.18C272 360.638 294.99 372.28 318.027 383.669C324.615 386.251 332.171 386.435 338.99 384.637C341.777 383.899 344.634 382.286 347.214 381.018C371.241 369.007 395.314 356.949 419.318 344.938C427.496 340.835 435.858 336.662 444.036 332.558C446.593 331.267 449.703 329.723 452.283 328.432L454.334 327.394L455.854 326.634L457.006 325.988L457.743 325.504C459.448 324.374 461.06 322.576 461.291 320.478V319.625C461.199 318.795 460.807 317.781 460.346 317.089" stroke="#787796" stroke-width="0.6" stroke-linejoin="round"/>
<path d="M433.067 341.088L433.205 341.227L433.297 341.411L433.366 341.619C433.459 342.402 433.021 343.278 432.33 343.67L432.122 343.739L431.915 343.763L431.731 343.739L431.57 343.67L431.431 343.532L431.339 343.348L431.27 343.14C431.178 342.356 431.616 341.48 432.307 341.088L432.514 341.019L432.721 340.996L432.906 341.019L433.067 341.088Z" stroke="#787796" stroke-width="0.6" stroke-linejoin="round"/>
<path d="M416.531 351.347C416.392 351.532 416.162 351.739 415.955 351.854L415.747 351.924L415.54 351.947L415.356 351.924L415.194 351.854L415.056 351.716L414.964 351.532L414.895 351.324C414.803 350.54 415.241 349.664 415.932 349.272L416.139 349.203L416.346 349.18L416.531 349.203L416.692 349.272L416.83 349.411L416.922 349.595L416.991 349.803C417.06 350.356 416.853 350.932 416.531 351.347Z" stroke="#787796" stroke-width="0.6" stroke-linejoin="round"/>
<path d="M420.809 349.203L420.648 349.134L420.509 348.996L420.417 348.811L420.348 348.604C420.256 347.82 420.694 346.944 421.385 346.552L421.592 346.483L421.799 346.46L421.984 346.483L422.145 346.552L422.283 346.69L422.375 346.875L422.444 347.082C422.537 347.866 422.099 348.742 421.408 349.134L421.2 349.203L420.993 349.226L420.809 349.203Z" stroke="#787796" stroke-width="0.6" stroke-linejoin="round"/>
<path d="M430.624 343.486C430.509 344.109 430.163 344.731 429.587 345.031L429.38 345.1L429.173 345.123L428.989 345.1L428.827 345.031L428.689 344.892L428.597 344.708L428.528 344.5C428.436 343.717 428.873 342.841 429.564 342.449L429.772 342.38L429.979 342.356L430.163 342.38L430.325 342.449L430.463 342.587L430.555 342.771L430.624 342.979C430.647 343.094 430.647 343.348 430.624 343.486Z" stroke="#787796" stroke-width="0.6" stroke-linejoin="round"/>
<path d="M437.579 338.483L437.786 338.345L437.993 338.276L438.2 338.253L438.385 338.276L438.546 338.345L438.684 338.483L438.776 338.668L438.846 338.875C438.938 339.659 438.5 340.535 437.809 340.927L437.602 340.996L437.394 341.019L437.21 340.996L437.049 340.927L436.91 340.789L436.818 340.604L436.749 340.397C436.657 339.705 437.003 338.945 437.579 338.483Z" stroke="#787796" stroke-width="0.6" stroke-linejoin="round"/>
<path d="M426.462 346.506L426.278 346.483L426.116 346.414L425.978 346.276L425.886 346.091L425.817 345.884C425.725 345.1 426.162 344.224 426.854 343.832L427.061 343.763L427.268 343.74L427.453 343.763L427.614 343.832L427.752 343.97L427.844 344.155L427.913 344.362C428.005 345.146 427.568 346.022 426.877 346.414L426.669 346.483L426.462 346.506Z" stroke="#787796" stroke-width="0.6" stroke-linejoin="round"/>
<path d="M417.658 349.48C417.773 348.858 418.119 348.235 418.695 347.935L418.902 347.866L419.109 347.843L419.293 347.866L419.455 347.935L419.593 348.074L419.685 348.258L419.754 348.466C419.846 349.25 419.409 350.126 418.718 350.518L418.51 350.587L418.303 350.61L418.119 350.587L417.957 350.518L417.819 350.379L417.727 350.195L417.658 349.987C417.635 349.849 417.635 349.595 417.658 349.48Z" stroke="#787796" stroke-width="0.6" stroke-linejoin="round"/>
<path d="M413.007 350.771L413.215 350.633L413.422 350.564L413.629 350.541L413.814 350.564L413.975 350.633L414.113 350.771L414.205 350.956L414.274 351.163C414.367 351.947 413.929 352.823 413.238 353.215L413.031 353.284L412.823 353.307L412.639 353.284L412.478 353.215L412.339 353.076L412.247 352.892L412.178 352.685C412.086 351.993 412.455 351.232 413.007 350.771Z" stroke="#787796" stroke-width="0.6" stroke-linejoin="round"/>
<path d="M436.085 340.258C436.177 341.042 435.74 341.918 435.048 342.31L434.841 342.379L434.634 342.402L434.45 342.379L434.288 342.31L434.15 342.172L434.058 341.987L433.989 341.78C433.897 340.996 434.334 340.12 435.025 339.728L435.233 339.659L435.44 339.636L435.624 339.659L435.786 339.728L435.924 339.866L436.016 340.051L436.085 340.258Z" stroke="#787796" stroke-width="0.6" stroke-linejoin="round"/>
<path d="M425.171 345.722C425.263 346.506 424.825 347.382 424.134 347.774L423.927 347.843L423.72 347.866L423.535 347.843L423.374 347.774L423.236 347.636L423.144 347.451L423.075 347.244C422.983 346.46 423.42 345.584 424.111 345.192L424.319 345.123L424.526 345.1L424.71 345.123L424.872 345.192L425.01 345.33L425.102 345.515L425.171 345.722Z" stroke="#787796" stroke-width="0.6" stroke-linejoin="round"/>
<path d="M321.061 343.924L320.969 343.97C324.678 345.815 328.709 347.843 332.395 349.688C338.177 346.806 344.167 343.809 349.926 340.904C346.424 339.152 342.554 337.215 339.029 335.463" stroke="#787796" stroke-width="0.6" stroke-linejoin="round"/>
<path d="M339.099 335.394L338.523 335.118C332.741 337.999 326.751 340.996 320.992 343.901C321.038 343.924 321.499 344.155 321.568 344.178C326.429 343.74 331.589 343.279 336.45 342.841C337.256 340.535 338.27 337.677 339.099 335.394Z" stroke="#787796" stroke-width="0.6" stroke-linejoin="round"/>
<path d="M307.66 344.546L307.683 344.777L307.752 345.007C307.798 345.123 307.936 345.353 308.029 345.446L308.282 345.676C313.534 348.696 319.247 351.324 324.661 354.068C326.435 354.875 328.508 356.096 330.397 356.627C331.434 356.834 332.539 356.857 333.576 356.696C334.267 356.65 335.765 355.912 336.387 355.612C338.967 354.367 342.03 352.869 344.611 351.578C350.278 348.788 356.129 345.86 361.773 343.025C372.416 337.699 383.197 332.328 393.817 326.979C397.641 325.066 401.787 322.968 405.611 321.031C407.823 319.833 410.61 318.634 412.707 317.228C412.799 317.135 412.914 316.905 412.983 316.79L413.052 316.559L413.075 316.329L413.052 316.098L412.983 315.867C412.937 315.752 412.799 315.522 412.707 315.429L412.453 315.199C407.201 312.179 401.488 309.551 396.074 306.807C394.3 306 392.227 304.779 390.338 304.248C389.301 304.041 388.196 304.018 387.159 304.179C386.468 304.225 384.971 304.963 384.349 305.263C381.768 306.508 378.705 308.006 376.125 309.297C370.458 312.087 364.606 315.014 358.962 317.85C348.319 323.176 337.538 328.547 326.918 333.896C323.094 335.809 318.948 337.907 315.124 339.843C312.912 341.042 310.125 342.241 308.029 343.647C307.936 343.74 307.821 343.97 307.752 344.085L307.683 344.316C307.637 345.561 307.637 347.682 307.683 348.927L307.752 349.157C307.798 349.272 307.936 349.503 308.029 349.595L308.282 349.826C313.511 352.846 319.247 355.474 324.661 358.217C326.435 359.024 328.508 360.246 330.397 360.776C331.572 361.007 332.839 361.007 334.014 360.776C338.252 359.093 342.56 356.696 346.684 354.736C352.351 351.924 358.179 349.019 363.846 346.183C373.798 341.204 383.888 336.155 393.84 331.152C397.664 329.239 401.81 327.141 405.634 325.204C407.846 324.005 410.633 322.807 412.73 321.4C412.822 321.308 412.937 321.078 413.006 320.962L413.075 320.732C413.144 319.602 413.075 317.481 413.098 316.352" stroke="#787796" stroke-width="0.6" stroke-linejoin="round"/>
<path d="M159.65 289.563C191.026 305.263 222.448 320.985 253.824 336.685L255.16 337.077H256.703L258.039 336.685C293.493 318.957 328.969 301.182 364.422 283.454L365.205 282.785V282.001L364.422 281.333C333.046 265.633 301.625 249.91 270.249 234.211L268.913 233.819H267.369L266.033 234.211C230.58 251.939 195.104 269.714 159.65 287.442L158.867 288.111V288.894L159.65 289.563Z" stroke="#787796" stroke-width="0.6" stroke-linejoin="round"/>
<path d="M270.32 339.728L271.057 340.097L272.163 340.328L273.269 340.097C304.898 324.282 336.55 308.421 368.179 292.606L368.64 292.053L368.179 291.5L367.442 291.131L366.336 290.9L365.231 291.131C333.601 306.946 301.949 322.807 270.32 338.622L269.859 339.175L270.32 339.728Z" stroke="#787796" stroke-width="0.6" stroke-linejoin="round"/>
<path d="M277.57 343.348L278.307 343.717L279.413 343.947L280.519 343.717C310.535 328.709 340.575 313.654 370.592 298.646L371.052 298.093L370.592 297.54L369.854 297.171L368.749 296.94L367.643 297.171C337.626 312.179 307.587 327.233 277.57 342.241L277.109 342.795L277.57 343.348Z" stroke="#787796" stroke-width="0.6" stroke-linejoin="round"/>
<path d="M347.048 333.227L347.624 333.527L348.477 333.711L349.329 333.527C363.105 326.634 376.996 319.671 390.772 312.778L391.14 312.34L390.772 311.902L390.196 311.602L389.343 311.418L388.491 311.602C374.715 318.496 360.824 325.458 347.048 332.351L346.68 332.789L347.048 333.227Z" stroke="#787796" stroke-width="0.6" stroke-linejoin="round"/>
<path d="M352.439 335.925L353.015 336.201L353.867 336.386L354.72 336.201C365.385 330.853 376.19 325.458 386.879 320.11L387.247 319.672L386.879 319.234L386.303 318.934L385.45 318.75L384.598 318.934C373.932 324.282 363.128 329.677 352.439 335.026L352.07 335.464L352.439 335.925Z" stroke="#787796" stroke-width="0.6" stroke-linejoin="round"/>
<path d="M136.312 296.872C136.336 296.964 136.474 297.771 136.497 297.886C137.28 300.445 139.653 302.22 141.956 303.396C144.56 304.687 147.6 306.231 150.204 307.522C162.528 313.701 174.968 319.902 187.292 326.081C207.887 336.386 228.528 346.714 249.099 357.019C264.188 364.558 279.346 372.165 294.435 379.704C299.849 382.401 305.516 385.237 310.929 387.957C313.648 389.248 316.642 391 319.476 392.015C326.156 394.182 333.689 394.182 340.393 392.015C344.056 390.632 347.742 388.464 351.266 386.805C371.838 376.5 392.502 366.171 413.073 355.866C425.398 349.688 437.838 343.486 450.162 337.308C454.055 335.118 459.676 333.642 461.243 328.986C461.266 328.87 461.404 328.063 461.427 327.971V319.948C461.151 317.343 459.077 315.361 456.935 314.07C454.723 312.848 451.867 311.511 449.609 310.335C437.976 304.502 426.227 298.624 414.571 292.814C394.667 282.855 374.717 272.873 354.814 262.913C329.75 250.418 304.733 237.738 279.623 225.359C273.08 222.777 265.57 222.615 258.798 224.39C255.273 225.359 251.818 227.456 248.523 229.024C227.952 239.329 207.288 249.657 186.716 259.962C174.392 266.141 161.952 272.342 149.628 278.521C147.831 279.443 145.251 280.688 143.454 281.61C140.666 282.947 137.464 284.722 136.497 287.858C136.474 287.973 136.336 288.78 136.312 288.872V296.872V296.872Z" stroke="#787796" stroke-width="1.2" stroke-linejoin="round"/>
</svg>
