<svg width="620" height="440" viewBox="0 0 620 440" fill="none" xmlns="http://www.w3.org/2000/svg">
<path d="M254.889 287.92C247.438 284.108 239.306 280.79 233.618 274.39C216.107 255 217.377 223.564 223.84 199.822C232.301 169.185 251.622 138.384 278.768 121.23C290.473 113.959 304.646 109.112 318.49 111.747C323.684 112.688 328.549 115.112 333.25 117.441C338.515 120.147 344.156 122.571 348.998 126.03C357.553 132.242 363.006 141.96 365.826 152.008C375.51 187.703 359.504 231.352 336.87 259.259C321.757 277.943 297.853 296.72 272.516 294.037C269.578 293.684 266.476 292.955 263.702 291.92C260.741 290.884 257.709 289.308 254.889 287.92Z" fill="white" stroke="#787796" stroke-width="1.2" stroke-linejoin="round"/>
</svg>
