<svg width="620" height="440" viewBox="0 0 620 440" fill="none" xmlns="http://www.w3.org/2000/svg">
<g clip-path="url(#clip0_1407_8974)">
<path d="M254.889 287.92C247.438 284.108 239.306 280.79 233.618 274.39C216.107 255 217.377 223.564 223.84 199.822C232.301 169.185 251.622 138.384 278.768 121.23C290.473 113.959 304.646 109.112 318.49 111.747C323.684 112.688 328.549 115.112 333.25 117.441C338.515 120.147 344.156 122.571 348.998 126.03C357.553 132.242 363.006 141.96 365.826 152.008C375.51 187.703 359.504 231.352 336.87 259.259C321.757 277.943 297.853 296.72 272.516 294.037C269.578 293.684 266.476 292.955 263.702 291.92C260.741 290.884 257.709 289.308 254.889 287.92Z" fill="#0C0B0F"/>
<mask id="mask0_1407_8974" style="mask-type:alpha" maskUnits="userSpaceOnUse" x="219" y="111" width="150" height="184">
<path d="M254.889 287.92C247.438 284.108 239.306 280.79 233.618 274.39C216.107 255 217.377 223.564 223.84 199.822C232.301 169.185 251.622 138.384 278.768 121.23C290.473 113.959 304.646 109.112 318.49 111.747C323.684 112.688 328.549 115.112 333.25 117.441C338.515 120.147 344.156 122.571 348.998 126.03C357.553 132.242 363.006 141.96 365.826 152.008C375.51 187.703 359.504 231.352 336.87 259.259C321.757 277.943 297.853 296.72 272.516 294.037C269.578 293.684 266.476 292.955 263.702 291.92C260.741 290.884 257.709 289.308 254.889 287.92Z" fill="#0C0B0F"/>
</mask>
<g mask="url(#mask0_1407_8974)">
<g opacity="0.8">
<g opacity="0.8" filter="url(#filter0_f_1407_8974)">
<path opacity="0.8" d="M390.48 219.852C423.433 219.852 450.147 193.095 450.147 160.089C450.147 127.083 423.433 100.326 390.48 100.326C357.526 100.326 330.812 127.083 330.812 160.089C330.812 193.095 357.526 219.852 390.48 219.852Z" fill="#F55725"/>
</g>
<g opacity="0.8" filter="url(#filter1_f_1407_8974)">
<path opacity="0.8" d="M299.448 357.587C332.401 357.587 359.115 330.83 359.115 297.824C359.115 264.817 332.401 238.061 299.448 238.061C266.495 238.061 239.781 264.817 239.781 297.824C239.781 330.83 266.495 357.587 299.448 357.587Z" fill="#1F00CC"/>
</g>
</g>
</g>
<path d="M254.889 287.92C247.438 284.108 239.306 280.79 233.618 274.39C216.107 255 217.377 223.564 223.84 199.822C232.301 169.185 251.622 138.384 278.768 121.23C290.473 113.959 304.646 109.112 318.49 111.747C323.684 112.688 328.549 115.112 333.25 117.441C338.515 120.147 344.156 122.571 348.998 126.03C357.553 132.242 363.006 141.96 365.826 152.008C375.51 187.703 359.504 231.352 336.87 259.259C321.757 277.943 297.853 296.72 272.516 294.037C269.578 293.684 266.476 292.955 263.702 291.92C260.741 290.884 257.709 289.308 254.889 287.92Z" stroke="#A7A9B2" stroke-width="1.2" stroke-linejoin="round"/>
</g>
<defs>
<filter id="filter0_f_1407_8974" x="130.812" y="-99.6743" width="519.336" height="519.526" filterUnits="userSpaceOnUse" color-interpolation-filters="sRGB">
<feFlood flood-opacity="0" result="BackgroundImageFix"/>
<feBlend mode="normal" in="SourceGraphic" in2="BackgroundImageFix" result="shape"/>
<feGaussianBlur stdDeviation="100" result="effect1_foregroundBlur_1407_8974"/>
</filter>
<filter id="filter1_f_1407_8974" x="39.7812" y="38.0605" width="519.336" height="519.526" filterUnits="userSpaceOnUse" color-interpolation-filters="sRGB">
<feFlood flood-opacity="0" result="BackgroundImageFix"/>
<feBlend mode="normal" in="SourceGraphic" in2="BackgroundImageFix" result="shape"/>
<feGaussianBlur stdDeviation="100" result="effect1_foregroundBlur_1407_8974"/>
</filter>
<clipPath id="clip0_1407_8974">
<rect width="620" height="440" fill="white"/>
</clipPath>
</defs>
</svg>
