<svg width="373" height="315" viewBox="0 0 373 315" fill="none" xmlns="http://www.w3.org/2000/svg">
<path d="M65.26 43.4302C66.9287 42.5831 69.3026 41.4301 70.9714 40.5595C73.3453 39.2888 75.8837 38.0888 78.5161 39.5476C80.5139 41.0065 83.0288 42.8184 85.0266 44.2773C88.6697 47.0303 90.691 47.4774 91.0906 52.5835C91.0906 63.2663 91.0906 74.1139 91.0906 84.7967C91.0906 98.8679 91.0906 113.08 91.0906 127.151L90.8555 128.775L90.1739 130.399L89.1398 131.763C88.5052 132.352 87.0244 133.175 86.2488 133.505C83.6164 134.822 80.4669 136.399 77.8345 137.717C67.3753 142.964 56.7751 148.258 46.2924 153.506C42.9314 155.2 39.1473 157.082 35.7862 158.776C34.235 159.435 32.0492 160.894 30.3569 161.2L29.3227 160.871L28.6411 159.953C28.3591 158.988 28.3826 156.941 28.4061 155.929C28.4061 154.753 28.4061 152.4 28.4061 151.223C28.4061 144.235 28.4061 137.034 28.4061 130.046C23.0472 132.728 17.4298 135.552 12.0475 138.234C11.0133 138.752 8.89798 139.811 7.84031 140.329C7.1352 140.705 5.32539 141.623 4.52626 141.693C3.84465 141.623 2.1994 140.681 1.5648 140.399L0.883182 139.481C0.530626 138.258 0.671649 136.046 0.648145 134.752C0.648145 129.363 0.648145 123.669 0.648145 118.28C0.648145 102.633 0.648145 86.8674 0.648145 71.2196C0.648145 65.0311 0.648145 58.5838 0.648145 52.3953C0.648145 51.2187 0.648145 48.8657 0.648145 47.6892C0.601137 45.7126 0.601138 43.9243 1.58829 42.1125C2.59896 40.5359 3.70365 39.83 5.39592 39.0535C8.02834 37.7358 11.1778 36.1593 13.8102 34.8416C20.7439 31.3591 27.889 27.7824 34.8226 24.3235C37.455 23.0058 40.6045 21.4292 43.237 20.1115C45.2583 19.0291 47.2561 18.0408 49.677 18.6056C50.4056 18.8879 51.9803 19.735 52.7089 20.0644C53.273 20.4174 54.8478 21.6645 55.4354 22.041C57.8093 23.7823 60.6767 25.8294 63.0506 27.5707C65.5185 29.8061 65.354 33.3591 65.307 36.3946C65.2365 38.4653 65.26 41.336 65.26 43.4302Z" stroke="#A7A9B2" stroke-width="1.2" stroke-linejoin="round"/>
<path d="M353.694 88.3727C354.516 84.7019 355.48 80.5841 356.302 76.9134C356.655 75.3133 357.219 72.9838 357.337 71.3602L357.172 69.0071L356.561 66.7482L355.55 64.7481L354.211 63.1481C353.411 62.4657 351.484 61.4068 350.521 60.9833C347.888 59.6656 344.762 58.089 342.106 56.7713C325.325 48.371 308.449 39.9235 291.644 31.5232C279.069 25.217 266.377 18.8873 253.803 12.5812C248.279 9.8281 242.497 6.93386 236.974 4.15727C235.658 3.49841 232.955 2.15717 231.639 1.47479L229.923 0.933594L228.183 1.00418C223.577 2.41601 223.271 7.28681 222.284 11.287C221.555 14.5107 220.709 18.2049 219.981 21.4286C217.348 20.1109 214.199 18.5344 211.566 17.2167L209.474 16.1578L209.31 16.0637L207.312 15.4519C205.126 15.5225 204.68 15.5931 202.705 16.5578L201.06 18.0637L199.814 20.0638L199.767 20.1344C198.686 23.0051 198.075 26.5582 197.37 29.5231C196.124 35.0527 194.832 40.8883 193.586 46.4179C172.738 43.6884 152.877 55.9713 138.423 69.9719C117.011 91.1022 102.415 119.88 97.7376 149.599C95.4107 165.388 95.8808 182.259 102.532 197.013C90.663 202.966 78.676 208.966 66.7831 214.896C64.1507 216.214 61.0012 217.79 58.3688 219.108C56.7706 219.978 54.3497 220.99 52.8924 222.096L51.8583 223.343L51.5292 224.685V227.038C51.4822 227.602 51.5762 229.579 51.5292 230.097L51.9053 231.438C53.4095 233.65 56.606 234.661 58.8389 235.885C62.2234 237.579 65.984 239.462 69.3451 241.156C79.8042 246.403 90.4044 251.697 100.887 256.945C133.111 273.063 165.381 289.228 197.582 305.347C200.943 307.041 204.727 308.923 208.088 310.618C209.427 311.277 212.718 313.018 214.222 313.347L216.526 313.841L216.714 313.888L219.064 314.053C219.534 314.147 221.579 313.912 222.026 313.912L224.329 313.441L224.493 313.418L226.609 312.618C228.466 311.677 231.051 310.406 232.908 309.465C250.606 300.617 268.375 291.699 286.073 282.852C295.827 277.957 305.746 273.016 315.5 268.122C319.801 265.886 324.619 263.863 328.615 261.11L329.649 259.863C330.166 258.38 329.931 256.121 329.978 254.592L331.835 255.156C332.399 255.086 334.021 255.086 334.538 254.898L336.442 254.05L338.087 252.545L339.333 250.544L339.38 250.474C339.85 249.203 340.508 247.015 340.743 245.674C341.754 241.203 342.835 236.379 343.822 231.908C346.901 218.167 350.003 204.307 353.082 190.589C357.196 172.259 361.332 153.834 365.445 135.481C366.973 128.68 368.548 121.621 370.076 114.821C370.687 112.021 371.58 108.703 371.815 105.832L371.65 103.479L371.627 103.009L371.039 100.726L370.922 100.303L369.888 98.1849L369.747 97.9025L368.266 96.0907C367.373 95.2671 365.351 94.1141 364.247 93.6435C360.862 91.9729 357.078 90.0669 353.694 88.3727Z" stroke="#A7A9B2" stroke-width="1.2" stroke-linejoin="round"/>
</svg>
