<svg width="620" height="440" viewBox="0 0 620 440" fill="none" xmlns="http://www.w3.org/2000/svg">
<path fill-rule="evenodd" clip-rule="evenodd" d="M449.163 265.832L450.924 265.761L452.566 265.071L453.994 263.81L455.112 262.073C460.786 239.004 466.005 215.781 471.223 192.564L471.224 192.563C474.692 177.129 478.16 161.697 481.761 146.315C481.952 145.351 482.197 144.358 482.447 143.349C483.165 140.45 483.916 137.42 483.474 134.561L482.856 132.277L481.832 130.254L480.476 128.636C438.837 107.221 396.769 86.1876 354.654 65.7485L352.893 65.8199L351.251 66.5099L349.823 67.771L348.705 69.508C343.031 92.5764 337.812 115.799 332.594 139.017C329.125 154.451 325.657 169.883 322.056 185.266C321.865 186.23 321.62 187.223 321.37 188.232C320.652 191.13 319.901 194.16 320.343 197.02L320.961 199.304L321.984 201.327L323.341 202.969C344.853 214.252 368.259 225.842 391.398 237.3L391.4 237.301L391.404 237.303L391.406 237.304C393.525 238.354 395.642 239.402 397.754 240.448C399.569 249.708 403.274 258.518 409.661 266.427C411.66 268.688 413.801 269.378 416.775 268.902L416.841 268.899L416.891 268.897L417.009 268.893C424.391 267.902 430.302 264.169 434.986 259.05C435.591 259.357 436.196 259.664 436.799 259.97L436.909 260.027C438.359 260.691 439.821 261.455 441.295 262.226C443.884 263.58 446.509 264.953 449.163 265.832Z" fill="white"/>
<path d="M416.754 268.926C432.744 266.927 441.881 252.103 446.616 238.065C448.353 232.235 452.707 223.217 450.97 217.316C448.805 213.961 444.903 211.511 442.095 208.679C437.812 205.039 433.672 200.78 429.103 197.496C426.462 195.902 422.988 195.854 420.038 195.236C414.423 194.379 408.641 193.165 402.978 192.618M427.697 195.664C420.559 194.522 413.23 193.023 406.045 192.261C402.357 192.499 400.572 192.808 399.787 196.853C398.74 200.779 398.05 205.015 397.55 209.036C394.671 229.356 396.289 249.867 409.661 266.427C411.66 268.688 413.801 269.378 416.776 268.902C432.313 268.354 443.211 255.601 448.089 241.824C450.777 234.258 454.703 226.215 454.418 218.054C453.418 214.366 446.28 209.821 443.425 206.776C438.357 202.969 434.288 196.639 427.697 195.664Z" stroke="#787796" stroke-width="0.6" stroke-linejoin="round"/>
<path d="M436.909 260.027C440.907 261.859 444.999 264.452 449.163 265.832L450.924 265.761L452.566 265.071L453.994 263.81L455.112 262.073C464.558 223.669 472.743 184.837 481.761 146.315C482.499 142.579 484.069 138.415 483.474 134.561L482.856 132.277L481.832 130.254L480.476 128.636C438.837 107.221 396.769 86.1876 354.654 65.7485L352.893 65.8199L351.251 66.5099L349.823 67.771L348.705 69.508C339.259 107.911 331.074 146.743 322.056 185.266C321.318 189.001 319.748 193.165 320.343 197.02L320.961 199.304L321.984 201.327L323.341 202.969C346.823 215.285 372.561 227.967 397.746 240.444" stroke="#787796" stroke-width="0.6" stroke-linejoin="round"/>
<path d="M415.348 231.473C414.158 228.38 412.802 224.859 411.612 221.765C409.851 222.86 407.448 224.383 405.688 225.477C407.972 231.378 410.327 237.541 412.588 243.442C420.892 238.231 429.339 232.901 437.643 227.69C436.643 225.097 435.454 222.003 434.454 219.434C428.173 223.407 421.653 227.5 415.348 231.473Z" stroke="#787796" stroke-width="0.6" stroke-linejoin="round"/>
<path d="M175.221 85.0928L174.103 84.5932L172.651 84.4028L171.105 84.5694C156.495 91.2793 142.195 98.9885 127.705 106.055L126.467 106.983L125.42 108.363C124.516 109.862 124.373 112.289 124.469 114.003C124.469 144.459 124.469 174.963 124.469 205.443L124.707 206.823L125.397 207.751L126.444 208.084L127.681 207.775C146.668 198.281 165.727 188.763 184.715 179.269L185.952 178.341L186.999 176.961C187.903 175.439 188.046 173.035 187.951 171.322C187.951 160.258 187.951 149.075 187.951 138.011C187.951 125.923 187.951 113.693 187.951 101.606C187.975 99.5834 188.07 96.9184 187.285 95.0149L186.547 93.6111L185.667 92.6831C181.241 89.7327 177.053 85.7591 172.152 83.6176L170.7 83.4272L169.154 83.5938C154.544 90.3037 140.22 98.0368 125.754 105.08L124.516 106.008L123.469 107.388C122.565 108.887 122.422 111.314 122.518 113.027C122.518 143.483 122.518 173.987 122.518 204.467L122.755 205.847L123.445 206.775L125.373 207.751" stroke="#787796" stroke-width="0.6" stroke-linejoin="round"/>
<path d="M150.641 196.306C150.641 205.872 150.641 215.603 150.641 225.145L150.879 226.525L151.569 227.453L152.616 227.786L153.853 227.477C172.84 217.983 191.899 208.465 210.887 198.971L212.124 198.043L213.171 196.663C214.075 195.14 214.218 192.737 214.123 191.024C214.123 179.96 214.123 168.777 214.123 157.713C214.123 145.863 214.123 133.871 214.123 122.022C214.099 119.737 214.337 116.882 213.457 114.717L212.719 113.313L211.839 112.385C208.46 109.934 204.772 107.245 201.393 104.818L200.275 104.319L198.823 104.128L197.277 104.295C194.16 105.39 190.948 107.364 187.95 108.744" stroke="#787796" stroke-width="0.6" stroke-linejoin="round"/>
<path d="M358.078 91.3985C351.559 119.999 345.015 148.647 338.496 177.223C338.115 178.651 337.425 181.483 338.068 182.958L338.758 184.171L339.733 184.957C353.557 191.857 367.477 198.828 381.301 205.729L382.396 205.967L383.443 205.634L384.299 204.777C391.652 174.487 398.623 143.888 405.143 113.408L404.81 111.957L404.096 110.743L403.12 109.958C389.296 103.058 375.377 96.086 361.552 89.1857L360.458 88.9478L359.411 89.2809L358.554 90.1375L358.078 91.3985Z" stroke="#787796" stroke-width="0.6" stroke-linejoin="round"/>
<path d="M414.9 128.279C414.091 132.443 412.616 136.916 412.188 141.151L412.521 142.603L413.211 143.816L414.186 144.602C416.899 145.958 420.111 147.576 422.823 148.932L423.918 149.17L424.965 148.837L425.821 147.98C427.249 143.531 428.391 138.487 429.034 133.847L428.701 132.395L427.987 131.182L427.011 130.397C424.299 129.04 421.086 127.422 418.374 126.066L417.279 125.828L416.232 126.161L415.376 127.018L414.9 128.279Z" stroke="#787796" stroke-width="0.6" stroke-linejoin="round"/>
<path d="M434.672 140.485L434.838 141.199L435.172 141.794L435.647 142.175C444.761 146.743 454.04 151.383 463.177 155.928L463.701 156.047L464.2 155.88L464.605 155.452L464.866 154.833L464.914 154.119L464.747 153.406L464.414 152.811L463.938 152.43C454.825 147.862 445.546 143.222 436.409 138.677L435.885 138.558L435.386 138.725L434.981 139.153L434.719 139.772L434.672 140.485Z" stroke="#787796" stroke-width="0.6" stroke-linejoin="round"/>
<path d="M433.102 147.409L433.268 148.123L433.601 148.718L434.077 149.099C439.788 151.954 445.76 154.952 451.494 157.807L452.018 157.926L452.517 157.76L452.922 157.331L453.184 156.713L453.231 155.999L453.065 155.285L452.732 154.69L452.256 154.31C446.545 151.454 440.573 148.456 434.839 145.601L434.315 145.482L433.815 145.648L433.411 146.077L433.149 146.695L433.102 147.409Z" stroke="#787796" stroke-width="0.6" stroke-linejoin="round"/>
<path d="M408.377 156.879C407.568 161.043 406.092 165.517 405.664 169.752L405.997 171.203L406.711 172.417L407.687 173.202C410.399 174.558 413.611 176.176 416.324 177.533L417.418 177.771L418.465 177.438L419.322 176.581C420.749 172.131 421.892 167.087 422.534 162.447L422.201 160.996L421.511 159.782L420.535 158.997C417.823 157.641 414.611 156.023 411.898 154.667L410.804 154.429L409.757 154.762L408.9 155.618L408.377 156.879Z" stroke="#787796" stroke-width="0.6" stroke-linejoin="round"/>
<path d="M428.156 169.086L428.323 169.799L428.656 170.394L429.132 170.775C438.245 175.343 447.525 179.983 456.661 184.528L457.185 184.647L457.685 184.48L458.089 184.052L458.351 183.433L458.398 182.719L458.232 182.006L457.899 181.411L457.423 181.03C448.31 176.462 439.03 171.822 429.893 167.277L429.37 167.158L428.87 167.325L428.466 167.753L428.204 168.372L428.156 169.086Z" stroke="#787796" stroke-width="0.6" stroke-linejoin="round"/>
<path d="M426.562 176.01L426.729 176.724L427.062 177.319L427.538 177.699C433.272 180.554 439.221 183.553 444.955 186.408L445.479 186.527L445.978 186.36L446.383 185.932L446.645 185.313L446.692 184.599L446.526 183.886L446.193 183.291L445.717 182.91C439.982 180.055 434.034 177.057 428.299 174.201L427.776 174.083L427.276 174.249L426.872 174.677L426.61 175.296L426.562 176.01Z" stroke="#787796" stroke-width="0.6" stroke-linejoin="round"/>
<path d="M135.174 145.815L135.507 146.267L136.006 146.434L136.601 146.291C149.593 139.795 162.68 133.252 175.647 126.756L176.242 126.328L176.742 125.685L177.075 124.924L177.194 124.139L177.075 123.473L176.742 123.021L176.242 122.854L175.647 122.997C162.656 129.493 149.569 136.036 136.601 142.532L136.006 142.96L135.507 143.602L135.174 144.364L135.055 145.149L135.174 145.815Z" stroke="#787796" stroke-width="0.6" stroke-linejoin="round"/>
<path d="M135.174 158.117L135.507 158.569L136.006 158.736L136.601 158.593C149.593 152.097 162.68 145.554 175.647 139.058L176.242 138.63L176.742 137.987L177.075 137.226L177.194 136.441L177.075 135.774L176.742 135.322L176.242 135.156L175.647 135.299C162.656 141.794 149.569 148.338 136.601 154.833L136.006 155.262L135.507 155.904L135.174 156.666L135.055 157.451L135.174 158.117Z" stroke="#787796" stroke-width="0.6" stroke-linejoin="round"/>
<path d="M135.174 170.394L135.507 170.846L136.006 171.013L136.601 170.87C149.593 164.374 162.68 157.831 175.647 151.335L176.242 150.907L176.742 150.265L177.075 149.503L177.194 148.718L177.075 148.052L176.742 147.6L176.242 147.433L175.647 147.576C162.656 154.072 149.569 160.615 136.601 167.111L136.006 167.539L135.507 168.181L135.174 168.943L135.055 169.728L135.174 170.394Z" stroke="#787796" stroke-width="0.6" stroke-linejoin="round"/>
<path d="M187.974 108.721C187.879 104.818 188.189 100.512 187.808 96.6333L187.308 94.9915L186.571 93.5876L185.69 92.6597C181.265 89.7092 177.077 85.7356 172.175 83.5942L170.724 83.4038L169.177 83.5704C154.568 90.2803 140.244 98.0133 125.777 105.056L124.54 105.984L123.493 107.364C122.589 108.863 122.446 111.29 122.541 113.004C122.541 143.46 122.541 173.964 122.541 204.444L122.779 205.824L123.469 206.752C124.111 207.085 125.753 207.918 126.467 208.061L127.704 207.751C135.295 203.968 143.051 200.066 150.642 196.283" stroke="#787796" stroke-width="1.2" stroke-linejoin="round"/>
<path d="M150.641 196.306C150.641 205.871 150.641 215.603 150.641 225.144L150.879 226.524L151.569 227.452L152.616 227.785L153.853 227.476C172.84 217.982 191.899 208.465 210.887 198.971L212.124 198.043L213.171 196.663C214.075 195.14 214.218 192.737 214.123 191.024C214.123 179.959 214.123 168.776 214.123 157.712C214.123 145.863 214.123 133.87 214.123 122.021C214.099 119.737 214.337 116.882 213.457 114.716L212.719 113.312L211.839 112.384C208.46 109.934 204.772 107.245 201.393 104.818L200.275 104.318L198.823 104.128L197.277 104.294C194.16 105.389 190.948 107.364 187.95 108.744" stroke="#787796" stroke-width="1.2" stroke-linejoin="round"/>
<path d="M397.65 240.42C399.887 249.795 404.312 262.834 412.402 268.545C421.063 270.258 430.628 265.999 436.886 260.05" stroke="#787796" stroke-width="1.2" stroke-linejoin="round"/>
<path d="M436.886 260.05C440.884 261.883 444.999 264.452 449.163 265.832L450.924 265.761L452.566 265.071L453.994 263.81L455.112 262.073C464.558 223.669 472.743 184.837 481.761 146.315C482.499 142.579 484.069 138.415 483.474 134.561L482.856 132.277L481.832 130.254L480.476 128.636C438.837 107.221 396.769 86.1876 354.654 65.7485L352.893 65.8199L351.251 66.5099L349.823 67.771L348.705 69.508C339.259 107.911 331.074 146.743 322.056 185.266C321.318 189.001 319.748 193.165 320.343 197.02L320.961 199.304L321.984 201.327L323.341 202.969C347.73 216.055 372.976 227.786 397.65 240.42" stroke="#787796" stroke-width="1.2" stroke-linejoin="round"/>
</svg>
