<svg width="373" height="315" viewBox="0 0 373 315" fill="none" xmlns="http://www.w3.org/2000/svg">
<path d="M52.6614 20.0397C50.029 18.5808 47.5141 19.7573 45.1167 21.0515C42.4843 22.3692 39.3347 23.9458 36.7023 25.2635C26.4312 30.4166 16.019 35.6169 5.72436 40.77L4.50215 41.6877L3.46798 43.0525L2.78639 44.6761L2.55135 46.2997C2.55135 48.3939 2.55135 51.2646 2.55135 53.3588C2.55135 59.5473 2.55135 65.9947 2.55135 72.1832C2.55135 87.8309 2.55135 103.596 2.55135 119.244C2.55135 123.832 2.55135 128.774 2.55135 133.362C2.55135 134.515 2.55135 136.915 2.55135 138.068V139.08L2.78639 140.445L3.46798 141.363L4.50215 141.692C6.19442 141.386 8.35676 139.974 9.93151 139.268C12.5639 137.951 15.7135 136.374 18.3459 135.057C27.2538 130.609 36.3028 126.068 45.2107 121.621C49.3004 119.573 53.7191 117.362 57.8322 115.314C58.8664 114.773 61.0287 113.738 62.0629 113.197L63.2851 112.279L64.3193 110.914C65.3064 109.079 65.3064 107.314 65.2594 105.338C65.2359 104.161 65.2594 101.808 65.2594 100.631C65.2594 94.443 65.2594 87.9956 65.2594 81.8071C65.2594 70.089 65.2594 58.2296 65.2594 46.5115C65.2594 43.3113 65.2594 39.5935 65.2594 36.3934C65.2124 35.0521 65.3299 32.8403 65.0949 31.499L64.6013 29.8754L63.8727 28.4871C63.4731 27.7106 61.7339 26.7223 61.0993 26.1811C59.407 24.9576 57.0801 23.2634 55.3878 22.0398C54.8707 21.6398 53.1785 20.4162 52.6614 20.0397ZM52.6614 20.0397C51.9798 19.6868 50.3345 18.8632 49.6294 18.5808L48.1957 18.3926L46.6679 18.5573C44.153 19.3809 41.3796 21.0751 38.9587 22.2045C34.869 24.2517 30.4503 26.4635 26.3372 28.5107C20.8138 31.2873 15.0319 34.158 9.50846 36.9346C7.34612 38.1346 4.47864 39.1699 2.52782 40.723C0.600515 42.9348 0.483019 44.8879 0.55353 47.688C0.55353 61.7592 0.55353 75.9716 0.55353 90.0428C0.55353 100.961 0.55353 112.067 0.55353 122.985C0.55353 126.75 0.55353 130.986 0.55353 134.751C0.600538 135.974 0.436011 138.257 0.788568 139.48L1.47015 140.398L3.37398 141.363" stroke="#A7A9B2" stroke-width="0.6" stroke-linejoin="round"/>
<path d="M28.3724 130.022C28.3724 137.01 28.3724 144.21 28.3724 151.199C28.3724 152.375 28.3724 154.729 28.3724 155.905C28.3489 156.917 28.3254 158.94 28.6074 159.929L29.2891 160.846L30.3232 161.176C32.0155 160.87 34.2013 159.458 35.7526 158.752C39.1371 157.058 42.8977 155.176 46.2588 153.481C56.7179 148.234 67.3181 142.94 77.8008 137.692C80.4332 136.375 83.5827 134.798 86.2151 133.481C87.0143 133.151 88.4715 132.304 89.1061 131.739L90.1403 130.375L90.8219 128.751L91.0569 127.127C91.0569 112.256 91.0569 97.2907 91.0569 82.4195C91.0569 72.5132 91.0569 62.4422 91.0569 52.5594L90.8924 50.9358L90.3988 49.3122L89.6702 47.9239C88.5655 46.5591 86.3561 45.312 84.9929 44.2296C82.9716 42.7942 80.4802 40.9353 78.4824 39.5C75.85 38.0411 73.3351 39.2176 70.9377 40.5118C69.2689 41.3824 66.8951 42.5119 65.2263 43.3825" stroke="#A7A9B2" stroke-width="0.6" stroke-linejoin="round"/>
<path d="M13.1188 104.42L13.4478 104.867L13.9414 105.032C14.294 105.079 16.2918 103.997 16.6208 103.832C18.5011 102.891 21.0631 101.62 22.9199 100.679C28.8663 97.6906 35.0478 94.6081 40.9943 91.6197C43.6267 90.302 46.7762 88.7255 49.4086 87.4078C50.5603 86.7724 52.6286 85.9489 53.6628 85.1489C54.3914 84.3253 55.026 82.7958 54.1564 81.8781L53.6628 81.7134C53.3102 81.6663 51.3124 82.7488 50.9833 82.9135C48.3509 84.2312 45.2014 85.8077 42.569 87.1254C36.505 90.1608 30.2295 93.2904 24.1891 96.3258C21.5566 97.6435 18.4071 99.22 15.7747 100.538C15.3986 100.726 14.247 101.291 13.9414 101.597C13.2833 102.303 12.8132 103.456 13.1188 104.42Z" stroke="#A7A9B2" stroke-width="0.6" stroke-linejoin="round"/>
<path d="M13.1188 92.2553L13.4478 92.7024L13.9414 92.8671C14.294 92.9141 16.2918 91.8317 16.6208 91.667C18.5011 90.7258 21.0631 89.4552 22.9199 88.5139C28.8663 85.5256 35.0478 82.4431 40.9943 79.4547C43.6267 78.137 46.7762 76.5604 49.4086 75.2427C50.5603 74.6074 52.6286 73.7839 53.6628 72.9838C54.3914 72.1603 55.026 70.6308 54.1564 69.7131L53.6628 69.5484C53.3102 69.5013 51.3124 70.5837 50.9833 70.7484C48.3509 72.0661 45.2014 73.6427 42.569 74.9604C36.505 77.9958 30.2295 81.1254 24.1891 84.1608C21.5566 85.4785 18.4071 87.055 15.7747 88.3727C15.3986 88.561 14.247 89.1257 13.9414 89.4316C13.2833 90.1611 12.8132 91.2905 13.1188 92.2553Z" stroke="#A7A9B2" stroke-width="0.6" stroke-linejoin="round"/>
<path d="M13.1188 80.1141C12.8132 79.1494 13.2833 78.0199 13.9414 77.2905C14.247 76.9846 15.3751 76.4198 15.7747 76.2316C18.4071 74.9139 21.5566 73.3373 24.1891 72.0196C30.253 68.9842 36.5285 65.8547 42.569 62.8192C45.2014 61.5015 48.3509 59.925 50.9833 58.6073L53.0752 57.5484L53.6628 57.4072L54.1564 57.5719C55.026 58.4896 54.3914 60.0191 53.6628 60.8427C52.6286 61.6427 50.5838 62.4663 49.4086 63.1016C46.7762 64.4193 43.6267 65.9958 40.9943 67.3135C35.0478 70.3019 28.8663 73.3844 22.9199 76.3728C21.0396 77.314 18.4776 78.5846 16.6208 79.5258L14.529 80.5847L13.9414 80.7259L13.4478 80.5612L13.1188 80.1141Z" stroke="#A7A9B2" stroke-width="0.6" stroke-linejoin="round"/>
<path d="M209.286 16.0874C212.718 17.8051 216.526 19.7111 219.957 21.4288C217.325 20.1111 214.175 18.5345 211.543 17.2168L209.451 16.158L209.286 16.0874ZM209.286 16.0874L207.289 15.4756C205.103 15.5462 204.656 15.6168 202.682 16.5815L201.037 18.0875L199.791 20.0876L199.744 20.1581C198.663 23.0289 198.052 26.5819 197.347 29.5468C196.101 35.0764 194.808 40.912 193.562 46.4416" stroke="#A7A9B2" stroke-width="0.6" stroke-linejoin="round"/>
<path d="M202.142 48.7242L201.648 48.5359C203.2 41.618 204.845 34.3 206.396 27.3821C209.922 29.1469 213.824 31.0999 217.373 32.8647L219.888 21.876" stroke="#A7A9B2" stroke-width="0.6" stroke-linejoin="round"/>
<path d="M282.974 91.0545C282.316 93.9252 281.541 97.3606 280.882 100.231C280.318 102.467 279.848 104.373 281.306 106.42C281.846 107.032 283.632 107.902 284.361 108.255C285.419 108.773 287.51 109.832 288.568 110.349L290.66 111.408L290.801 111.479L291.882 111.714C294.209 111.291 294.326 108.867 294.796 106.985C295.267 104.937 295.901 102.137 296.371 100.114C296.935 97.8783 297.405 95.9724 295.948 93.9252C295.408 93.3134 293.621 92.4428 292.893 92.0898C291.835 91.5722 289.743 90.5133 288.686 89.9956L286.594 88.9368L286.453 88.8662L285.372 88.6309L284.337 88.9603L283.491 89.8074L282.974 91.0545Z" stroke="#A7A9B2" stroke-width="0.6" stroke-linejoin="round"/>
<path d="M289.438 62.7487C288.71 65.9723 287.864 69.6666 287.135 72.8903C286.618 74.8198 286.618 76.4198 287.793 78.114C288.334 78.7258 290.12 79.5964 290.848 79.9494C291.906 80.4671 293.998 81.5259 295.056 82.0436L297.147 83.1025L297.288 83.1731L298.37 83.4084L299.404 83.0789L300.25 82.2319L300.767 80.9847C301.143 79.3376 301.707 76.914 302.06 75.2668C302.365 73.9727 302.882 71.6667 303.164 70.3725C303.329 69.949 303.376 68.7254 303.423 68.2783L303.094 66.8429L302.389 65.6429L301.425 64.8664C300.367 64.3487 298.276 63.2898 297.218 62.7722C296.184 62.2545 294.068 61.1956 293.011 60.678C292.87 60.5368 291.953 60.4427 291.789 60.3721L290.754 60.7015L289.908 61.5486L289.438 62.7487Z" stroke="#A7A9B2" stroke-width="0.6" stroke-linejoin="round"/>
<path d="M308.945 74.8419C309.11 76.5831 310.755 76.8184 312.001 77.5479C313.881 78.4891 316.443 79.7597 318.3 80.701C322.389 82.7481 326.808 84.96 330.921 87.0071C331.955 87.5248 334.071 88.5836 335.129 89.1013C335.387 89.219 337.314 90.2543 337.62 90.2073L338.114 90.0425L338.513 89.619L338.772 89.0072C338.889 88.3483 338.748 87.5718 338.325 87.0306C338.09 86.7012 336.116 85.7835 335.763 85.5953C333.883 84.6541 331.321 83.3834 329.464 82.4422C325.374 80.3951 320.956 78.1832 316.843 76.1361C315.808 75.6184 313.693 74.5595 312.635 74.0419C312.424 73.9477 310.426 72.8653 310.144 72.9359L309.65 73.1006L309.251 73.5242L308.992 74.136L308.945 74.8419Z" stroke="#A7A9B2" stroke-width="0.6" stroke-linejoin="round"/>
<path d="M307.391 81.6667L307.438 80.9608L307.696 80.349L308.096 79.9255L308.589 79.7607C309.224 79.8078 310.987 80.8667 311.598 81.1255C314.959 82.8197 318.743 84.7022 322.104 86.3964C323.162 86.914 325.253 87.9729 326.311 88.4906L326.781 88.8671L327.11 89.4553C327.228 89.8083 327.298 90.4671 327.204 90.8672L326.946 91.479L326.546 91.9025L326.053 92.0672C325.418 92.0202 323.655 90.9613 323.044 90.7025C319.683 89.0083 315.899 87.1258 312.538 85.4316C311.504 84.9139 309.388 83.8551 308.331 83.3374C307.767 82.9609 307.485 82.3256 307.391 81.6667Z" stroke="#A7A9B2" stroke-width="0.6" stroke-linejoin="round"/>
<path d="M302.508 103.126C302.672 104.867 304.318 105.103 305.563 105.832C307.444 106.773 310.006 108.044 311.862 108.985C315.952 111.032 320.371 113.244 324.484 115.291C325.518 115.809 327.633 116.868 328.691 117.386C328.95 117.503 330.877 118.539 331.183 118.491L331.676 118.327L332.076 117.903L332.334 117.291C332.452 116.633 332.311 115.856 331.888 115.315C331.653 114.985 329.678 114.068 329.326 113.88C327.445 112.938 324.884 111.668 323.027 110.726C318.937 108.679 314.518 106.467 310.405 104.42C309.371 103.903 307.232 102.844 306.198 102.326C305.986 102.232 303.989 101.15 303.707 101.22L303.213 101.385L302.813 101.808L302.555 102.42L302.508 103.126Z" stroke="#A7A9B2" stroke-width="0.6" stroke-linejoin="round"/>
<path d="M300.953 109.95L301 109.244L301.259 108.632L301.658 108.209L302.152 108.044C302.786 108.091 304.549 109.15 305.16 109.409C308.521 111.103 312.305 112.985 315.666 114.68C316.724 115.197 318.816 116.256 319.874 116.774L320.344 117.15L320.673 117.739C320.79 118.091 320.861 118.75 320.767 119.15L320.508 119.762L320.109 120.186L319.615 120.35C318.98 120.303 317.218 119.244 316.607 118.986C313.246 117.291 309.461 115.409 306.1 113.715C305.066 113.197 302.951 112.138 301.893 111.621C301.329 111.244 301.024 110.632 300.953 109.95Z" stroke="#A7A9B2" stroke-width="0.6" stroke-linejoin="round"/>
<path d="M303.204 129.551C306.377 130.187 308.822 132.54 311.125 134.634C313.945 137.152 317.095 139.952 319.915 142.446C322.125 144.399 324.734 146.729 326.943 148.705L327.789 149.764L328.4 151.176L328.682 152.729C328.753 153.788 328.259 155.788 328.071 156.847C327.202 161.435 325.556 166.188 323.982 170.588C323.323 172.659 322.148 175.295 321.302 177.295C320.644 178.706 319.845 181.036 319.046 182.354C317.988 184.166 316.554 186.66 315.52 188.472C314.086 190.095 312.253 192.166 310.819 193.789C310.02 194.425 308.305 195.648 307.505 196.26C306.847 196.754 305.249 198.001 304.426 198.237C303.369 198.731 301.23 199.766 300.172 200.237C297.469 200.919 294.32 201.813 291.499 201.931C290.724 201.978 288.726 202.096 287.974 201.884C285.412 201.154 284.049 199.249 282.45 197.272C280.782 194.566 278.643 191.578 277.421 188.613C276.927 187.53 275.916 185.413 275.423 184.354C275.141 183.742 274.624 181.718 274.342 181.059C273.989 179.93 273.237 177.718 272.884 176.589C272.72 175.647 272.344 173.718 272.179 172.777C271.968 171.624 271.521 169.318 271.31 168.141C271.263 167.082 271.169 164.918 271.122 163.859C270.981 161.364 270.863 158.306 271.122 155.835C271.474 148.47 272.25 140.917 273.684 133.669C274.177 131.998 274.6 129.457 275.399 127.904L276.269 126.939L277.327 126.375C278.408 126.257 280.382 125.998 281.463 125.951C282.004 126.069 284.096 126.375 284.683 126.492C290.747 127.481 297.117 128.54 303.204 129.551Z" stroke="#A7A9B2" stroke-width="0.6" stroke-linejoin="round"/>
<path d="M291.673 201.907C293.225 201.483 295.575 200.966 297.126 200.566C298.724 199.789 300.981 198.754 302.556 198.001C304.083 196.824 306.222 195.271 307.75 194.118C308.596 193.154 310.147 191.412 310.993 190.448C312.521 189.012 313.767 186.494 314.801 184.73C316.987 181.271 318.421 177.012 320.089 173.294C321.946 168.094 323.991 162.635 325.025 157.176C325.589 154.564 326.083 152.634 324.72 150.116C323.709 148.681 321.641 147.152 320.371 145.928C318.162 143.975 315.553 141.622 313.344 139.669C311.134 137.716 308.526 135.363 306.316 133.41C305.376 132.492 303.942 131.386 302.744 130.821C301.427 130.092 299.312 129.715 297.831 129.504C295.763 129.174 292.943 128.68 290.874 128.351C287.96 127.88 284.505 127.292 281.59 126.821C280.486 126.704 278.417 126.139 277.289 126.374" stroke="#A7A9B2" stroke-width="0.6" stroke-linejoin="round"/>
<path d="M212.625 53.6653C215.069 42.9825 217.537 32.135 219.958 21.4521C220.687 18.2285 221.533 14.5342 222.262 11.3105C222.755 9.33396 223.225 6.53384 224.024 4.6514L225.129 2.93368L226.539 1.68657L228.161 1.00418L229.9 0.933594C232.909 1.80422 236.223 3.89842 239.067 5.1926C243.156 7.23975 247.575 9.45162 251.688 11.4988C263.558 17.452 275.545 23.4522 287.437 29.3819C302.127 36.7234 316.911 44.1355 331.578 51.477C336.396 53.8771 341.473 56.4419 346.291 58.842C348.148 59.7832 350.733 61.0539 352.59 61.9951L354.188 63.101L355.528 64.7011C357.996 68.9601 357.479 72.325 356.303 76.8663C355.434 80.7018 354.47 84.9373 353.601 88.7727C350.757 101.291 347.866 113.95 345.022 126.468C341.896 140.187 338.746 154.046 335.62 167.764C333.716 176.118 331.766 184.659 329.862 192.989L329.157 195.06L328.052 196.777L326.642 198.025L325.02 198.707L323.281 198.778L321.565 198.236C318.274 196.589 314.608 194.754 311.317 193.107" stroke="#A7A9B2" stroke-width="0.6" stroke-linejoin="round"/>
<path d="M243.159 132.821C246.52 134.515 250.304 136.398 253.665 138.092C254.582 138.539 256.298 139.527 257.308 139.621C259.635 139.198 259.753 136.774 260.223 134.892C260.693 132.844 261.328 130.068 261.798 128.021C263.161 121.997 264.595 115.691 265.981 109.667C270.424 90.1838 274.866 70.63 279.308 51.1703C279.849 49.0526 280.107 47.3584 278.767 45.4524C278.227 44.8642 276.441 43.9465 275.712 43.617C272.351 41.9229 268.567 40.0404 265.206 38.3462C258.977 35.2167 252.514 31.993 246.285 28.887C244.405 27.9458 241.843 26.6751 239.986 25.7339C238.811 25.1927 237.001 24.0397 235.685 23.875L234.651 24.2044L233.805 25.0515C233.452 25.7104 233.053 27.1928 232.935 27.9222C230.467 38.7933 227.952 49.8291 225.461 60.7001" stroke="#A7A9B2" stroke-width="0.6" stroke-linejoin="round"/>
<path d="M272.305 173.623C260.341 167.623 248.26 161.575 236.297 155.599" stroke="#A7A9B2" stroke-width="0.6" stroke-linejoin="round"/>
<path d="M289.855 164.823C296.083 160.894 302.524 156.847 308.752 152.917C309.739 155.458 310.914 158.541 311.902 161.082C303.699 166.235 295.355 171.506 287.152 176.659C284.919 170.824 282.569 164.729 280.336 158.894C282.075 157.811 284.449 156.305 286.188 155.223C287.34 158.282 288.68 161.764 289.855 164.823Z" stroke="#A7A9B2" stroke-width="0.6" stroke-linejoin="round"/>
<path d="M312.421 242.191C312.726 242.12 314.889 241.65 315.147 241.603L314.748 243.344L315.147 241.603C282.03 225.037 248.89 208.425 215.773 191.859" stroke="#A7A9B2" stroke-width="0.6" stroke-linejoin="round"/>
<path d="M316.772 254.004C315.456 252.968 316.678 251.957 317.854 251.627C319.334 251.251 321.191 251.321 322.46 252.262C323.847 253.674 321.661 254.592 320.439 254.733C319.17 254.874 317.666 254.733 316.631 253.933" stroke="#A7A9B2" stroke-width="0.6" stroke-linejoin="round"/>
<path d="M323.399 261.086C323.963 261.721 323.469 262.85 322.811 263.227C320.179 264.545 317.029 266.121 314.397 267.439C305.348 271.98 296.134 276.592 287.062 281.11C282.972 283.157 278.554 285.369 274.44 287.416C273.712 287.769 271.808 288.734 271.103 289.087L270.891 289.157H270.68L270.515 289.063C270.116 288.663 270.28 287.981 270.515 287.534C270.703 286.922 272.725 286.169 273.218 285.863C284.382 280.263 295.688 274.616 306.852 269.015C310.942 266.968 315.36 264.756 319.474 262.709C320.202 262.356 322.106 261.392 322.811 261.039C322.976 260.992 323.234 260.968 323.399 261.086Z" stroke="#A7A9B2" stroke-width="0.6" stroke-linejoin="round"/>
<path d="M265.065 291.817C264.524 291.253 264.947 290.288 265.441 289.817C265.559 289.7 266.757 289.135 266.922 289.041C267.133 288.947 267.462 288.735 267.721 288.782C268.544 289.159 268.026 290.406 267.509 290.853C267.439 290.947 265.817 291.723 265.676 291.817C265.488 291.912 265.253 291.935 265.065 291.817Z" stroke="#A7A9B2" stroke-width="0.6" stroke-linejoin="round"/>
<path d="M199.048 259.156C189.881 264.004 180.362 268.521 171.125 273.227C169.786 273.816 168.07 274.992 166.589 275.133C164.286 275.439 162.711 274.592 160.76 273.58C159.703 273.039 157.611 272.004 156.553 271.486C150.325 268.357 143.861 265.133 137.633 262.027C132.814 259.627 127.738 257.062 122.919 254.662C121.932 254.097 119.911 253.274 118.971 252.615L118.853 252.544L118.454 252.074L118.312 251.579C118.383 250.921 118.877 250.521 119.417 250.215C126.351 246.732 133.496 243.156 140.43 239.697C142.31 238.755 144.872 237.485 146.729 236.543C148.068 235.955 149.784 234.779 151.265 234.637C152.158 234.543 153.357 234.59 154.203 234.849C155.66 235.39 157.799 236.591 159.186 237.249C163.275 239.297 167.694 241.508 171.807 243.556C178.036 246.685 184.499 249.909 190.728 253.015C192.584 253.956 195.17 255.227 197.027 256.168C197.614 256.497 199.024 257.039 199.377 257.721L199.518 258.215L199.4 258.709L199.048 259.156ZM199.048 259.156L198.93 259.25" stroke="#A7A9B2" stroke-width="0.6" stroke-linejoin="round"/>
<path d="M51.5312 224.731L51.9073 226.073L52.965 227.343L54.6338 228.426C56.5141 229.367 59.0525 230.638 60.9328 231.579C65.751 233.979 70.8279 236.544 75.6461 238.944C91.0411 246.638 106.507 254.403 121.901 262.098" stroke="#A7A9B2" stroke-width="0.6" stroke-linejoin="round"/>
<path d="M211.375 197.248C242.776 212.966 274.224 228.708 305.625 244.426C307.294 243.579 309.597 242.45 311.266 241.603C314.956 243.438 318.951 245.462 322.665 247.297C324.874 248.544 328.118 249.533 329.599 251.744L329.975 253.086C329.998 253.909 329.951 255.321 329.975 256.145V258.498L329.646 259.839L328.611 261.086C327.789 261.674 325.861 262.827 324.992 263.368C322.735 264.521 319.892 265.91 317.612 267.063C303.627 274.051 289.548 281.11 275.563 288.099C264.188 293.793 252.694 299.558 241.318 305.253C236.5 307.653 231.423 310.218 226.605 312.618L224.49 313.418L224.325 313.441L222.022 313.912L221.716 313.935L219.366 314.077L219.06 314.053L216.71 313.888C216.451 313.818 214.125 313.324 213.866 313.276C209.118 311.441 204.276 308.617 199.693 306.429C192.76 302.947 185.614 299.37 178.681 295.911C159.079 286.099 139.406 276.263 119.827 266.451C103.046 258.051 86.17 249.603 69.3648 241.203C66.0038 239.509 62.2197 237.626 58.8587 235.932C56.6493 234.708 53.4058 233.673 51.925 231.485C51.361 230.191 51.596 228.402 51.549 227.061V224.708L51.878 223.367C53.2647 221.249 56.2497 220.284 58.3651 219.131C73.0549 211.79 87.8388 204.378 102.505 197.036" stroke="#A7A9B2" stroke-width="0.6" stroke-linejoin="round"/>
<path d="M157.398 229.273C186.778 243.98 216.228 258.71 245.608 273.44C247.77 274.593 249.439 275.464 251.978 274.781C254.634 273.675 257.595 271.981 260.204 270.757C267.138 267.275 274.283 263.698 281.216 260.239C286.74 257.463 292.522 254.592 298.045 251.815C299.079 251.298 301.218 250.239 302.252 249.721L302.816 249.368L303.169 248.945C303.357 248.356 303.239 248.051 302.793 247.603C301.9 247.015 300.019 246.145 299.032 245.65C268.924 230.567 238.745 215.484 208.637 200.401" stroke="#A7A9B2" stroke-width="0.6" stroke-linejoin="round"/>
<path d="M131.889 222.92C124.438 219.108 116.306 215.79 110.618 209.39C93.1074 190 94.3766 158.564 100.84 134.822C109.301 104.185 128.622 73.3836 155.768 56.2299C167.473 48.959 181.646 44.1117 195.49 46.7471C200.684 47.6883 205.549 50.1119 210.25 52.4415C215.515 55.1475 221.156 57.5711 225.998 61.0301C234.553 67.2421 240.006 76.9602 242.826 87.0077C252.51 122.703 236.504 166.352 213.87 194.259C198.757 212.943 174.853 231.72 149.516 229.037C146.578 228.684 143.476 227.955 140.702 226.92C137.741 225.884 134.709 224.308 131.889 222.92Z" stroke="#A7A9B2" stroke-width="0.6" stroke-linejoin="round"/>
<path d="M145.285 272.357C145.191 271.393 143.569 270.969 142.887 270.545C140.255 269.228 137.105 267.651 134.473 266.333C132.593 265.392 130.031 264.122 128.174 263.18C126.059 262.074 124.343 261.086 121.898 262.121C121.922 263.345 122.533 264.639 123.45 265.439C123.755 265.698 125.118 266.357 125.495 266.569C128.127 267.886 131.276 269.463 133.909 270.781C135.789 271.722 138.351 272.993 140.208 273.934C140.866 274.193 142.605 275.346 143.357 275.157C144.11 274.946 144.392 274.122 144.415 273.393C144.815 273.181 145.261 272.828 145.285 272.357Z" stroke="#A7A9B2" stroke-width="0.6" stroke-linejoin="round"/>
<path d="M353.699 88.373C357.084 90.0672 360.868 91.9497 364.253 93.6674C365.381 94.1615 367.379 95.291 368.272 96.1146L369.752 97.9264C369.964 98.4441 370.975 100.185 371.045 100.727L371.633 103.009C371.609 103.244 371.821 105.527 371.821 105.833C371.586 108.727 370.693 111.998 370.081 114.821C368.389 122.398 366.626 130.187 364.934 137.787C360.821 156.117 356.684 174.542 352.571 192.895C349.657 205.861 346.719 218.967 343.828 231.932C342.817 236.403 341.736 241.25 340.749 245.698C340.537 246.968 339.856 249.274 339.386 250.498L339.339 250.568L338.093 252.569L336.448 254.074L334.544 254.922L333.862 255.063L331.841 255.18L329.984 254.616V253.133L329.655 254.474L328.621 255.722L326.976 256.804C325.236 257.675 322.815 258.898 321.053 259.769C316.234 262.169 311.158 264.734 306.339 267.134C290.239 275.181 274.069 283.276 257.992 291.347C250.353 295.182 242.527 299.088 234.864 302.924C231.48 304.524 227.837 306.665 224.311 307.959C223.935 308.006 221.82 308.524 221.444 308.5C220.01 308.642 217.613 308.665 216.179 308.406C212.606 307.912 209.128 305.724 205.931 304.194C200.408 301.418 194.626 298.547 189.103 295.77C174.248 288.335 159.276 280.852 144.422 273.416" stroke="#A7A9B2" stroke-width="0.6" stroke-linejoin="round"/>
<path d="M351.084 99.8086C354.75 101.644 358.793 103.668 362.46 105.503C352.47 150.046 342.458 194.613 332.469 239.156C295.544 220.661 258.573 202.166 221.625 183.671" stroke="#A7A9B2" stroke-width="0.6" stroke-linejoin="round"/>
</svg>
