<svg width="620" height="440" viewBox="0 0 620 440" fill="none" xmlns="http://www.w3.org/2000/svg">
<path d="M455.566 321.463L457.351 322.01C457.851 321.986 459.516 321.915 459.968 321.748L461.8 320.939L463.395 319.488L464.632 317.489C465.726 314.634 466.297 311.065 467.011 308.114C468.201 302.808 469.462 297.169 470.652 291.863C473.935 277.206 477.266 262.43 480.55 247.749C483.834 233.092 487.165 218.316 490.448 203.635C491.638 198.329 492.899 192.69 494.089 187.384C494.731 184.409 495.683 180.936 495.945 177.89C495.921 177.676 495.778 175.296 495.754 175.177C495.707 175.011 495.088 172.655 495.064 172.584L494.017 170.442L493.946 170.276L492.423 168.42C490.805 167.087 488.235 165.969 486.38 165.041C482.953 163.328 479.146 161.424 475.744 159.711C465.155 154.405 454.424 149.052 443.836 143.746C413.903 128.779 383.899 113.765 353.966 98.7987C394.487 119.071 435.056 139.344 475.577 159.616C445.858 144.769 416.092 129.874 386.373 115.026C375.785 109.72 365.054 104.366 354.442 99.0604C351.039 97.3472 347.208 95.4437 343.806 93.7306C341.831 92.8026 339.095 91.1608 336.953 90.6611C336.454 90.6849 334.788 90.7563 334.336 90.9229L332.504 91.7319L330.91 93.1833L329.672 95.182C328.578 98.0373 328.007 101.606 327.293 104.557C326.103 109.863 324.842 115.502 323.652 120.808C320.369 135.465 317.038 150.241 313.754 164.922C310.471 179.579 307.139 194.355 303.856 209.036C302.666 214.342 301.405 219.982 300.215 225.288C299.573 228.262 298.621 231.76 298.359 234.781C298.383 234.996 298.526 237.375 298.55 237.494L299.145 239.802L299.168 239.921" stroke="#A7A9B2" stroke-width="0.6" stroke-linejoin="round"/>
<path d="M475.625 159.593C480.55 162.067 485.761 164.661 490.687 167.135" stroke="#A7A9B2" stroke-width="0.6" stroke-linejoin="round"/>
<path d="M338.922 91.2563C343.847 93.7309 349.058 96.3245 353.983 98.799" stroke="#A7A9B2" stroke-width="0.6" stroke-linejoin="round"/>
<path d="M457.963 306.544C407.71 281.418 357.409 256.268 307.156 231.141C316.817 188.145 326.477 145.126 336.137 102.154C386.39 127.28 436.691 152.431 486.944 177.557C477.283 220.529 467.623 263.572 457.963 306.544Z" stroke="#A7A9B2" stroke-width="0.6" stroke-linejoin="round"/>
<path d="M313.852 252.318C314.042 251.652 314.185 250.367 314.565 249.772L315.351 249.034C316.469 248.701 318.491 248.344 319.61 248.083C360.131 268.355 400.7 288.627 441.221 308.9" stroke="#A7A9B2" stroke-width="0.6" stroke-linejoin="round"/>
<path d="M315.868 248.891V248.106C310.657 245.584 305.303 242.681 300.021 240.278C298.213 239.445 295.595 239.136 293.644 239.064C293.43 239.088 291.146 239.207 291.027 239.231L288.695 239.707L288.6 239.731L286.53 240.516C273.8 246.893 260.951 253.293 248.222 259.67C235.492 266.047 222.643 272.447 209.913 278.824C205.036 281.251 199.896 283.845 195.018 286.272C192.782 287.438 189.879 288.651 187.832 290.103L186.833 291.316L186.5 292.625C186.5 294.029 186.5 296.432 186.5 297.859L186.857 299.168L187.88 300.382C189.474 301.547 191.996 302.666 193.757 303.57C196.446 304.902 199.587 306.497 202.275 307.829C211.436 312.421 220.763 317.085 229.948 321.653C255.479 334.407 281.034 347.208 306.564 359.962C315.011 364.197 323.649 368.504 332.095 372.739C335.712 374.452 339.614 376.737 343.374 378.14C347.276 379.235 351.94 379.211 355.675 377.522C376.709 367.005 397.814 356.464 418.848 345.923C425.868 342.402 433.101 338.785 440.12 335.287C444.736 332.86 449.9 330.743 454.23 327.792L455.229 326.579L455.562 325.27C455.562 323.724 455.562 321.582 455.562 320.035L455.206 318.727L454.182 317.513C452.564 316.347 450.066 315.229 448.305 314.325C444.808 312.588 440.977 310.661 437.503 308.924C435.909 309.733 433.648 310.851 432.054 311.66C391.533 291.387 350.964 271.115 310.443 250.842" stroke="#A7A9B2" stroke-width="0.6" stroke-linejoin="round"/>
<path d="M448.73 320.011L448.635 320.439L448.326 320.82L447.802 321.153C446.398 321.772 444.614 321.772 443.21 321.129L442.686 320.796L442.353 320.392L442.234 319.964L442.33 319.535L442.639 319.155L443.162 318.821C444.566 318.203 446.351 318.203 447.755 318.845L448.278 319.178L448.611 319.583L448.73 320.011Z" stroke="#A7A9B2" stroke-width="0.6" stroke-linejoin="round"/>
<path d="M429.629 315.943L429.296 316.347C421.468 320.488 413.259 324.366 405.359 328.411C397.008 332.504 388.608 336.929 380.185 340.903C377.687 341.569 376.045 340.665 373.928 339.547C372.024 338.595 369.454 337.31 367.551 336.358C359.104 332.123 350.467 327.816 342.02 323.581C312.016 308.495 281.821 293.648 251.888 278.444L251.531 278.039" stroke="#A7A9B2" stroke-width="0.6" stroke-linejoin="round"/>
<path d="M251.525 278.039L251.406 277.587L251.525 277.135L251.858 276.731C259.687 272.591 267.895 268.712 275.795 264.667C284.147 260.575 292.546 256.149 300.969 252.175C303.468 251.509 305.109 252.413 307.227 253.532C309.13 254.483 311.7 255.768 313.604 256.72C322.051 260.955 330.688 265.262 339.135 269.497C369.139 284.583 399.334 299.43 429.266 314.635L429.623 315.039L429.742 315.491L429.623 315.943" stroke="#A7A9B2" stroke-width="0.6" stroke-linejoin="round"/>
<path d="M310.422 250.819C312.016 250.01 314.277 248.892 315.871 248.083" stroke="#A7A9B2" stroke-width="0.6" stroke-linejoin="round"/>
<path d="M186.523 292.625L186.88 293.933L187.903 295.147C190.235 296.765 193.4 298.073 195.898 299.382C200.776 301.809 205.916 304.403 210.793 306.83C225.331 314.11 239.965 321.415 254.503 328.696" stroke="#A7A9B2" stroke-width="0.6" stroke-linejoin="round"/>
<path d="M276.273 339.594C290.597 346.756 305.017 353.965 319.341 361.127C324.218 363.554 329.358 366.148 334.236 368.575C337.067 369.931 340.374 371.835 343.349 372.905L345.681 373.405L345.799 373.429L348.179 373.595L348.417 373.619C348.56 373.643 350.963 373.429 351.034 373.453L353.366 372.977L353.461 372.953C355.436 372.287 357.934 370.954 359.79 370.026C365.382 367.219 371.235 364.316 376.827 361.508C393.816 353.014 410.9 344.472 427.913 335.977C433.504 333.193 439.357 330.267 444.949 327.459C447.9 325.888 451.492 324.437 454.276 322.557L455.276 321.344L455.609 320.035" stroke="#A7A9B2" stroke-width="0.6" stroke-linejoin="round"/>
<path d="M328.457 326.222C318.511 331.1 308.565 336.334 298.572 341.069C295.931 341.759 294.194 340.903 291.933 339.689C290.03 338.738 287.436 337.453 285.556 336.501C274.278 330.79 262.738 325.246 251.555 319.417L251.174 318.965L251.031 318.489L251.15 318.013L251.507 317.561C258.622 313.754 266.164 310.232 273.374 306.544C275.277 305.593 277.871 304.308 279.751 303.356C281.654 302.238 283.534 301.762 285.723 302.357C293.075 305.807 300.475 309.709 307.756 313.302C314.752 316.871 322.08 320.297 329.004 324.009L329.385 324.461L329.528 324.937L329.409 325.413L329.052 325.865L328.457 326.222Z" stroke="#A7A9B2" stroke-width="0.6" stroke-linejoin="round"/>
<path d="M277.108 338.595L277.013 338.952L276.727 339.285L276.275 339.57L276.204 340.189L275.989 340.712L275.656 341.069" stroke="#A7A9B2" stroke-width="0.6" stroke-linejoin="round"/>
<path d="M275.677 341.093L275.249 341.284H274.749C271.823 340.046 268.587 338.214 265.708 336.858C262.614 335.24 258.998 333.646 255.976 331.909L255.476 331.409C255.048 330.886 254.667 330.053 254.525 329.387L254.453 328.697C255.476 328.221 256.785 328.197 257.879 328.482C259.26 329.03 261.377 330.196 262.733 330.838C267.254 333.17 272.18 335.43 276.653 337.857L276.938 338.19L277.034 338.547" stroke="#A7A9B2" stroke-width="0.6" stroke-linejoin="round"/>
<path d="M452.661 328.815C434.244 338.024 415.756 347.28 397.316 356.488C387.441 361.437 377.4 366.434 367.526 371.383C363.647 373.334 359.412 375.428 355.534 377.379C351.846 379.045 347.253 379.164 343.375 378.14" stroke="#A7A9B2" stroke-width="0.6" stroke-linejoin="round"/>
<path d="M393.196 355.441C393.458 355.25 394.862 354.56 395.171 354.441H395.362L395.528 354.513L395.647 354.656L395.719 354.87L395.742 355.131C395.742 355.512 395.576 355.94 395.338 356.226L395.148 356.44C394.886 356.63 393.482 357.32 393.173 357.439H392.982L392.816 357.368L392.697 357.225L392.625 357.011L392.602 356.749L392.625 356.464C392.673 356.202 392.84 355.869 393.006 355.631L393.196 355.441Z" stroke="#A7A9B2" stroke-width="0.6" stroke-linejoin="round"/>
<path d="M448.612 329.791C431.908 338.095 415.181 346.566 398.454 354.846H398.264L398.097 354.775L397.978 354.632L397.907 354.418L397.883 354.156L397.907 353.871C397.954 353.609 398.121 353.252 398.287 353.038L398.478 352.824C415.205 344.401 432.075 335.954 448.85 327.626H449.04L449.206 327.697L449.325 327.84L449.397 328.054L449.421 328.316L449.397 328.602C449.349 328.863 449.183 329.196 449.016 329.434L448.826 329.648L448.612 329.791Z" stroke="#A7A9B2" stroke-width="0.6" stroke-linejoin="round"/>
<path d="M438.57 309.471C438.737 309.448 441.14 308.924 441.188 308.9L440.807 310.59" stroke="#A7A9B2" stroke-width="0.6" stroke-linejoin="round"/>
<path d="M455.574 321.463L457.359 322.01C457.858 321.986 459.524 321.915 459.976 321.748L461.808 320.939L463.402 319.488L464.64 317.489C465.734 314.634 466.305 311.065 467.019 308.114C468.209 302.808 469.47 297.169 470.66 291.863C473.943 277.206 477.274 262.43 480.558 247.749C483.841 233.092 487.173 218.316 490.456 203.635C491.646 198.329 492.907 192.69 494.097 187.384C494.739 184.409 495.691 180.936 495.953 177.89C495.929 177.676 495.786 175.296 495.762 175.177C495.715 175.011 495.096 172.655 495.072 172.584L494.025 170.442L493.954 170.276L492.431 168.42C490.813 167.087 488.243 165.969 486.387 165.041C482.961 163.328 479.154 161.424 475.751 159.711C465.163 154.405 454.432 149.052 443.844 143.746C413.911 128.779 383.907 113.765 353.974 98.7987C394.495 119.071 435.064 139.344 475.585 159.616C445.866 144.769 416.1 129.874 386.381 115.026C375.793 109.72 365.062 104.366 354.45 99.0604C351.047 97.3472 347.216 95.4437 343.814 93.7306C341.839 92.8026 339.103 91.1608 336.961 90.6611C336.461 90.6849 334.796 90.7563 334.344 90.9229L332.512 91.7319L330.917 93.1833L329.68 95.182C328.586 98.0373 328.015 101.606 327.301 104.557C326.111 109.863 324.85 115.502 323.66 120.808C320.377 135.465 317.045 150.241 313.762 164.922C310.478 179.579 307.147 194.355 303.864 209.036C302.674 214.342 301.413 219.982 300.223 225.288C299.581 228.262 298.629 231.76 298.367 234.781C298.391 234.996 298.534 237.375 298.558 237.494L299.152 239.802L299.176 239.921" stroke="#A7A9B2" stroke-width="1.2" stroke-linejoin="round"/>
<path d="M299.173 239.945C295.913 238.826 291.939 238.874 288.608 239.731C286.633 240.397 284.135 241.729 282.279 242.657C279.614 243.99 276.426 245.584 273.761 246.916C263.886 251.865 253.845 256.862 243.971 261.811C231.955 267.831 219.82 273.899 207.78 279.895C203.64 281.965 199.143 284.202 195.003 286.272C192.766 287.438 189.863 288.651 187.817 290.102L186.817 291.316L186.484 292.625C186.484 294.028 186.484 296.432 186.484 297.859L186.841 299.168L187.864 300.381C189.459 301.547 191.981 302.666 193.742 303.57C196.43 304.902 199.571 306.496 202.26 307.829C211.42 312.421 220.748 317.085 229.932 321.653C255.463 334.407 281.018 347.208 306.549 359.962C314.996 364.197 323.633 368.504 332.08 372.739C335.697 374.452 339.599 376.736 343.358 378.14C347.26 379.235 351.924 379.211 355.66 377.522C376.694 367.005 397.799 356.464 418.833 345.923C425.852 342.402 433.085 338.785 440.105 335.287C444.721 332.86 449.884 330.743 454.214 327.792L455.214 326.579L455.547 325.27C455.547 324.39 455.547 322.343 455.547 321.487" stroke="#A7A9B2" stroke-width="1.2" stroke-linejoin="round"/>
</svg>
