<svg width="40" height="40" viewBox="0 0 40 40" fill="none" xmlns="http://www.w3.org/2000/svg">
<path d="M24.6121 12.8548L24.2606 12.5032C22.9517 11.1944 20.8523 11.1716 19.5714 12.4525L15.3018 16.7221C14.021 18.003 14.0437 20.1024 15.3526 21.4112L15.7041 21.7628C17.013 23.0717 19.1124 23.0944 20.3932 21.8135L24.6628 17.5439C25.9437 16.263 25.921 14.1637 24.6121 12.8548Z" fill="#6A50E4"/>
<path fill-rule="evenodd" clip-rule="evenodd" d="M12.394 23.8475L12.9798 24.4333L18.3633 29.8169L32.0244 16.1557L37.1163 21.2476L23.4552 34.9088L18.3633 40L13.272 34.9088L7.8879 29.5246L7.30209 28.9388L6.96069 28.5974C6.94776 28.5845 6.93482 28.5709 6.92189 28.5579C1.54098 23.1356 1.53646 14.3886 6.90831 8.96109C6.92577 8.94363 6.94323 8.92553 6.96069 8.90807L6.97621 8.89255L6.98461 8.88415L6.9969 8.87251L7.00854 8.86022L7.02018 8.84858L7.03181 8.83695L7.04345 8.82531C9.98543 5.88332 12.9274 2.94198 15.8687 0L20.9606 5.0919C18.0154 8.03647 15.0702 10.9817 12.1256 13.9269L12.1134 13.9392L12.1011 13.9508L12.0888 13.9631L12.0765 13.9754L12.0681 13.9845L12.0526 14C12.028 14.0239 12.0047 14.0478 11.9808 14.0724C9.45006 16.6788 9.4507 20.8305 11.984 23.4363C12.006 23.4596 12.0293 23.4829 12.0526 23.5055L12.394 23.8475V23.8475Z" fill="#6A50E4"/>
</svg>
