<svg width="1528" height="738" viewBox="0 0 1528 738" fill="none" xmlns="http://www.w3.org/2000/svg">
<g clip-path="url(#clip0_1478_8980)">
<mask id="mask0_1478_8980" style="mask-type:alpha" maskUnits="userSpaceOnUse" x="-3256" y="-1085" width="8048" height="2795">
<path d="M-3255.39 -1084L2333.09 1709.01" stroke="#222224" stroke-width="0.7992" stroke-miterlimit="1.5" stroke-linecap="round" stroke-linejoin="round"/>
<path d="M-3152.98 -1084L2435.49 1709.01" stroke="#222224" stroke-width="0.7992" stroke-miterlimit="1.5" stroke-linecap="round" stroke-linejoin="round"/>
<path d="M-3050.59 -1084L2537.89 1709.01" stroke="#222224" stroke-width="0.7992" stroke-miterlimit="1.5" stroke-linecap="round" stroke-linejoin="round"/>
<path d="M-2948.19 -1084L2640.29 1709.01" stroke="#222224" stroke-width="0.7992" stroke-miterlimit="1.5" stroke-linecap="round" stroke-linejoin="round"/>
<path d="M-2845.78 -1084L2742.69 1709.01" stroke="#222224" stroke-width="0.7992" stroke-miterlimit="1.5" stroke-linecap="round" stroke-linejoin="round"/>
<path d="M-2743.39 -1084L2845.08 1709.01" stroke="#222224" stroke-width="0.7992" stroke-miterlimit="1.5" stroke-linecap="round" stroke-linejoin="round"/>
<path d="M-2640.98 -1084L2947.49 1709.01" stroke="#222224" stroke-width="0.7992" stroke-miterlimit="1.5" stroke-linecap="round" stroke-linejoin="round"/>
<path d="M-2538.59 -1084L3049.89 1709.01" stroke="#222224" stroke-width="0.7992" stroke-miterlimit="1.5" stroke-linecap="round" stroke-linejoin="round"/>
<path d="M-2436.19 -1084L3152.29 1709.01" stroke="#222224" stroke-width="0.7992" stroke-miterlimit="1.5" stroke-linecap="round" stroke-linejoin="round"/>
<path d="M-2333.78 -1084L3254.7 1709.01" stroke="#222224" stroke-width="0.7992" stroke-miterlimit="1.5" stroke-linecap="round" stroke-linejoin="round"/>
<path d="M-2231.39 -1084L3357.09 1709.01" stroke="#222224" stroke-width="0.7992" stroke-miterlimit="1.5" stroke-linecap="round" stroke-linejoin="round"/>
<path d="M-2128.98 -1084L3459.49 1709.01" stroke="#222224" stroke-width="0.7992" stroke-miterlimit="1.5" stroke-linecap="round" stroke-linejoin="round"/>
<path d="M-2026.59 -1084L3561.89 1709.01" stroke="#222224" stroke-width="0.7992" stroke-miterlimit="1.5" stroke-linecap="round" stroke-linejoin="round"/>
<path d="M-1924.19 -1084L3664.29 1709.01" stroke="#222224" stroke-width="0.7992" stroke-miterlimit="1.5" stroke-linecap="round" stroke-linejoin="round"/>
<path d="M-1821.78 -1084L3766.69 1709.01" stroke="#222224" stroke-width="0.7992" stroke-miterlimit="1.5" stroke-linecap="round" stroke-linejoin="round"/>
<path d="M-1719.38 -1084L3869.09 1709.01" stroke="#222224" stroke-width="0.7992" stroke-miterlimit="1.5" stroke-linecap="round" stroke-linejoin="round"/>
<path d="M-1616.98 -1084L3971.49 1709.01" stroke="#222224" stroke-width="0.7992" stroke-miterlimit="1.5" stroke-linecap="round" stroke-linejoin="round"/>
<path d="M-1514.58 -1084L4073.9 1709.01" stroke="#222224" stroke-width="0.7992" stroke-miterlimit="1.5" stroke-linecap="round" stroke-linejoin="round"/>
<path d="M-1412.18 -1084L4176.3 1709.01" stroke="#222224" stroke-width="0.7992" stroke-miterlimit="1.5" stroke-linecap="round" stroke-linejoin="round"/>
<path d="M-1309.78 -1084L4278.69 1709.01" stroke="#222224" stroke-width="0.7992" stroke-miterlimit="1.5" stroke-linecap="round" stroke-linejoin="round"/>
<path d="M-1207.38 -1084L4381.1 1709.01" stroke="#222224" stroke-width="0.7992" stroke-miterlimit="1.5" stroke-linecap="round" stroke-linejoin="round"/>
<path d="M-1104.98 -1084L4483.49 1709.01" stroke="#222224" stroke-width="0.7992" stroke-miterlimit="1.5" stroke-linecap="round" stroke-linejoin="round"/>
<path d="M-1002.59 -1084L4585.89 1709.01" stroke="#222224" stroke-width="0.7992" stroke-miterlimit="1.5" stroke-linecap="round" stroke-linejoin="round"/>
<path d="M-900.18 -1084L4688.3 1709.01" stroke="#222224" stroke-width="0.7992" stroke-miterlimit="1.5" stroke-linecap="round" stroke-linejoin="round"/>
<path d="M-797.781 -1084L4790.69 1709.01" stroke="#222224" stroke-width="0.7992" stroke-miterlimit="1.5" stroke-linecap="round" stroke-linejoin="round"/>
<path d="M4758.5 -1084L-829.977 1709.01" stroke="#222224" stroke-width="0.7992" stroke-miterlimit="1.5" stroke-linecap="round" stroke-linejoin="round"/>
<path d="M4656.1 -1084L-932.375 1709.01" stroke="#222224" stroke-width="0.7992" stroke-miterlimit="1.5" stroke-linecap="round" stroke-linejoin="round"/>
<path d="M4553.69 -1084L-1034.78 1709.01" stroke="#222224" stroke-width="0.7992" stroke-miterlimit="1.5" stroke-linecap="round" stroke-linejoin="round"/>
<path d="M4451.3 -1084L-1137.18 1709.01" stroke="#222224" stroke-width="0.7992" stroke-miterlimit="1.5" stroke-linecap="round" stroke-linejoin="round"/>
<path d="M4348.9 -1084L-1239.58 1709.01" stroke="#222224" stroke-width="0.7992" stroke-miterlimit="1.5" stroke-linecap="round" stroke-linejoin="round"/>
<path d="M4246.5 -1084L-1341.98 1709.01" stroke="#222224" stroke-width="0.7992" stroke-miterlimit="1.5" stroke-linecap="round" stroke-linejoin="round"/>
<path d="M4144.1 -1084L-1444.38 1709.01" stroke="#222224" stroke-width="0.7992" stroke-miterlimit="1.5" stroke-linecap="round" stroke-linejoin="round"/>
<path d="M4041.69 -1084L-1546.78 1709.01" stroke="#222224" stroke-width="0.7992" stroke-miterlimit="1.5" stroke-linecap="round" stroke-linejoin="round"/>
<path d="M3939.3 -1084L-1649.18 1709.01" stroke="#222224" stroke-width="0.7992" stroke-miterlimit="1.5" stroke-linecap="round" stroke-linejoin="round"/>
<path d="M3836.9 -1084L-1751.58 1709.01" stroke="#222224" stroke-width="0.7992" stroke-miterlimit="1.5" stroke-linecap="round" stroke-linejoin="round"/>
<path d="M3734.49 -1084L-1853.98 1709.01" stroke="#222224" stroke-width="0.7992" stroke-miterlimit="1.5" stroke-linecap="round" stroke-linejoin="round"/>
<path d="M3632.09 -1084L-1956.38 1709.01" stroke="#222224" stroke-width="0.7992" stroke-miterlimit="1.5" stroke-linecap="round" stroke-linejoin="round"/>
<path d="M3529.69 -1084L-2058.78 1709.01" stroke="#222224" stroke-width="0.7992" stroke-miterlimit="1.5" stroke-linecap="round" stroke-linejoin="round"/>
<path d="M3427.29 -1084L-2161.19 1709.01" stroke="#222224" stroke-width="0.7992" stroke-miterlimit="1.5" stroke-linecap="round" stroke-linejoin="round"/>
<path d="M3324.9 -1084L-2263.58 1709.01" stroke="#222224" stroke-width="0.7992" stroke-miterlimit="1.5" stroke-linecap="round" stroke-linejoin="round"/>
<path d="M3222.49 -1084L-2365.98 1709.01" stroke="#222224" stroke-width="0.7992" stroke-miterlimit="1.5" stroke-linecap="round" stroke-linejoin="round"/>
<path d="M3120.09 -1084L-2468.38 1709.01" stroke="#222224" stroke-width="0.7992" stroke-miterlimit="1.5" stroke-linecap="round" stroke-linejoin="round"/>
<path d="M3017.7 -1084L-2570.78 1709.01" stroke="#222224" stroke-width="0.7992" stroke-miterlimit="1.5" stroke-linecap="round" stroke-linejoin="round"/>
<path d="M2915.29 -1084L-2673.19 1709.01" stroke="#222224" stroke-width="0.7992" stroke-miterlimit="1.5" stroke-linecap="round" stroke-linejoin="round"/>
<path d="M2812.9 -1084L-2775.58 1709.01" stroke="#222224" stroke-width="0.7992" stroke-miterlimit="1.5" stroke-linecap="round" stroke-linejoin="round"/>
<path d="M2710.49 -1084L-2877.98 1709.01" stroke="#222224" stroke-width="0.7992" stroke-miterlimit="1.5" stroke-linecap="round" stroke-linejoin="round"/>
<path d="M2608.09 -1084L-2980.38 1709.01" stroke="#222224" stroke-width="0.7992" stroke-miterlimit="1.5" stroke-linecap="round" stroke-linejoin="round"/>
<path d="M2505.68 -1084L-3082.8 1709.01" stroke="#222224" stroke-width="0.7992" stroke-miterlimit="1.5" stroke-linecap="round" stroke-linejoin="round"/>
<path d="M2403.28 -1084L-3185.2 1709.01" stroke="#222224" stroke-width="0.7992" stroke-miterlimit="1.5" stroke-linecap="round" stroke-linejoin="round"/>
</mask>
<g mask="url(#mask0_1478_8980)">
<g filter="url(#filter0_f_1478_8980)">
<rect x="174" y="123" width="1160" height="430" fill="#D8D7E5"/>
</g>
</g>
</g>
<defs>
<filter id="filter0_f_1478_8980" x="-26" y="-77" width="1560" height="830" filterUnits="userSpaceOnUse" color-interpolation-filters="sRGB">
<feFlood flood-opacity="0" result="BackgroundImageFix"/>
<feBlend mode="normal" in="SourceGraphic" in2="BackgroundImageFix" result="shape"/>
<feGaussianBlur stdDeviation="100" result="effect1_foregroundBlur_1478_8980"/>
</filter>
<clipPath id="clip0_1478_8980">
<rect width="1528" height="738" fill="white"/>
</clipPath>
</defs>
</svg>
