<svg width="16" height="16" viewBox="0 0 16 16" fill="none" xmlns="http://www.w3.org/2000/svg">
<path d="M1.98056 9.68128C2.27423 10.7323 2.83794 11.688 3.61563 12.4535C4.39333 13.219 5.35789 13.7676 6.41338 14.0446C7.46887 14.3216 8.5785 14.3175 9.63188 14.0325C10.6853 13.7476 11.6457 13.1919 12.4176 12.4206C13.1896 11.6493 13.7461 10.6893 14.0319 9.63612C14.3176 8.58297 14.3227 7.47335 14.0465 6.41764C13.7704 5.36192 13.2226 4.39691 12.4577 3.6186C11.6929 2.84029 10.7376 2.2758 9.68681 1.98128C9.60983 1.95649 9.52793 1.951 9.44833 1.96527C9.36872 1.97955 9.29384 2.01316 9.23026 2.06316C9.16669 2.11315 9.11637 2.178 9.08373 2.25199C9.05109 2.32599 9.03712 2.40687 9.04306 2.48753C9.04323 2.5258 9.04956 2.56378 9.06181 2.60003C9.30977 3.495 9.31589 4.43973 9.07955 5.33784C8.84321 6.23594 8.37287 7.05529 7.71651 7.71228C7.06015 8.36928 6.24126 8.84041 5.34338 9.07762C4.44551 9.31483 3.50077 9.30962 2.60556 9.06253L2.46806 9.03753C2.35932 9.03668 2.25319 9.07086 2.16539 9.13502C2.07759 9.19919 2.01278 9.28992 1.98056 9.39378C1.94913 9.48704 1.94913 9.58803 1.98056 9.68128Z" fill="#222151"/>
</svg>
