<svg width="16" height="16" viewBox="0 0 16 16" fill="none" xmlns="http://www.w3.org/2000/svg">
<path d="M12.7812 8C12.7812 8.94564 12.5008 9.87005 11.9755 10.6563C11.4501 11.4426 10.7034 12.0554 9.82971 12.4173C8.95605 12.7792 7.9947 12.8739 7.06722 12.6894C6.13975 12.5049 5.28782 12.0495 4.61915 11.3809C3.95048 10.7122 3.49511 9.86025 3.31062 8.93278C3.12613 8.0053 3.22082 7.04395 3.5827 6.17029C3.94458 5.29664 4.55741 4.54991 5.34368 4.02454C6.12995 3.49917 7.05436 3.21875 8 3.21875C9.2675 3.22061 10.4825 3.72494 11.3788 4.6212C12.2751 5.51746 12.7794 6.7325 12.7812 8ZM8 2.09375C8.14918 2.09375 8.29226 2.03449 8.39775 1.929C8.50324 1.82351 8.5625 1.68043 8.5625 1.53125V0.96875C8.5625 0.819566 8.50324 0.676492 8.39775 0.571002C8.29226 0.465513 8.14918 0.40625 8 0.40625C7.85082 0.40625 7.70774 0.465513 7.60225 0.571002C7.49676 0.676492 7.4375 0.819566 7.4375 0.96875V1.53125C7.4375 1.68043 7.49676 1.82351 7.60225 1.929C7.70774 2.03449 7.85082 2.09375 8 2.09375ZM3.02891 3.82344C3.13524 3.92695 3.27778 3.98487 3.42617 3.98487C3.57457 3.98487 3.7171 3.92695 3.82344 3.82344C3.92863 3.71799 3.98771 3.57512 3.98771 3.42617C3.98771 3.27722 3.92863 3.13436 3.82344 3.02891L3.42266 2.62812C3.31565 2.53117 3.17547 2.47908 3.03112 2.48264C2.88677 2.48619 2.74932 2.54512 2.64722 2.64722C2.54512 2.74932 2.48619 2.88677 2.48264 3.03112C2.47908 3.17547 2.53117 3.31565 2.62812 3.42266L3.02891 3.82344ZM1.53125 7.4375H0.96875C0.819566 7.4375 0.676492 7.49676 0.571002 7.60225C0.465513 7.70774 0.40625 7.85082 0.40625 8C0.40625 8.14918 0.465513 8.29226 0.571002 8.39775C0.676492 8.50324 0.819566 8.5625 0.96875 8.5625H1.53125C1.68043 8.5625 1.82351 8.50324 1.929 8.39775C2.03449 8.29226 2.09375 8.14918 2.09375 8C2.09375 7.85082 2.03449 7.70774 1.929 7.60225C1.82351 7.49676 1.68043 7.4375 1.53125 7.4375ZM3.02891 12.1766L2.62812 12.5773C2.52293 12.6828 2.46385 12.8257 2.46385 12.9746C2.46385 13.1236 2.52293 13.2664 2.62812 13.3719C2.7361 13.4751 2.87954 13.533 3.02891 13.5336C3.17627 13.5333 3.31766 13.4753 3.42266 13.3719L3.82344 12.9711C3.92039 12.8641 3.97248 12.7239 3.96893 12.5796C3.96537 12.4352 3.90645 12.2978 3.80435 12.1957C3.70224 12.0936 3.56479 12.0346 3.42044 12.0311C3.27609 12.0275 3.13591 12.0796 3.02891 12.1766V12.1766ZM8 13.9062C7.85082 13.9062 7.70774 13.9655 7.60225 14.071C7.49676 14.1765 7.4375 14.3196 7.4375 14.4688V15.0312C7.4375 15.1804 7.49676 15.3235 7.60225 15.429C7.70774 15.5345 7.85082 15.5938 8 15.5938C8.14918 15.5938 8.29226 15.5345 8.39775 15.429C8.50324 15.3235 8.5625 15.1804 8.5625 15.0312V14.4688C8.5625 14.3196 8.50324 14.1765 8.39775 14.071C8.29226 13.9655 8.14918 13.9062 8 13.9062ZM12.9711 12.1766C12.8641 12.0796 12.7239 12.0275 12.5796 12.0311C12.4352 12.0346 12.2978 12.0936 12.1957 12.1957C12.0936 12.2978 12.0346 12.4352 12.0311 12.5796C12.0275 12.7239 12.0796 12.8641 12.1766 12.9711L12.5773 13.3719C12.6823 13.4753 12.8237 13.5333 12.9711 13.5336C13.1205 13.533 13.2639 13.4751 13.3719 13.3719C13.4771 13.2664 13.5361 13.1236 13.5361 12.9746C13.5361 12.8257 13.4771 12.6828 13.3719 12.5773L12.9711 12.1766ZM15.0312 7.4375H14.4688C14.3196 7.4375 14.1765 7.49676 14.071 7.60225C13.9655 7.70774 13.9062 7.85082 13.9062 8C13.9062 8.14918 13.9655 8.29226 14.071 8.39775C14.1765 8.50324 14.3196 8.5625 14.4688 8.5625H15.0312C15.1804 8.5625 15.3235 8.50324 15.429 8.39775C15.5345 8.29226 15.5938 8.14918 15.5938 8C15.5938 7.85082 15.5345 7.70774 15.429 7.60225C15.3235 7.49676 15.1804 7.4375 15.0312 7.4375ZM12.5773 3.98516C12.6504 3.9858 12.7229 3.97183 12.7905 3.94406C12.8582 3.91628 12.9196 3.87527 12.9711 3.82344L13.3719 3.42266C13.4283 3.37149 13.4738 3.30939 13.5056 3.24011C13.5373 3.17084 13.5546 3.09584 13.5565 3.01966C13.5584 2.94349 13.5448 2.86772 13.5165 2.79697C13.4882 2.72622 13.4458 2.66195 13.3919 2.60807C13.338 2.55419 13.2738 2.51182 13.203 2.48352C13.1323 2.45523 13.0565 2.44161 12.9803 2.44349C12.9042 2.44536 12.8292 2.4627 12.7599 2.49444C12.6906 2.52617 12.6285 2.57166 12.5773 2.62812L12.1766 3.02891C12.0714 3.13436 12.0123 3.27722 12.0123 3.42617C12.0123 3.57512 12.0714 3.71799 12.1766 3.82344C12.2289 3.87613 12.2915 3.91764 12.3604 3.94544C12.4292 3.97324 12.5031 3.98675 12.5773 3.98516Z" fill="white"/>
</svg>
