<svg width="1528" height="738" viewBox="0 0 1528 738" fill="none" xmlns="http://www.w3.org/2000/svg">
<path d="M1058.02 296.4L1200.29 367.507" stroke="#787796" stroke-width="0.7992" stroke-miterlimit="1.5" stroke-linecap="round" stroke-linejoin="round"/>
<path d="M1193.82 222.114L1064.42 286.786" stroke="#787796" stroke-width="0.7992" stroke-miterlimit="1.5" stroke-linecap="round" stroke-linejoin="round"/>
<path d="M1206.66 222.114L1348.52 293.017" stroke="#787796" stroke-width="0.7992" stroke-miterlimit="1.5" stroke-linecap="round" stroke-linejoin="round"/>
<path d="M1354.96 302.65L1225.23 367.49" stroke="#787796" stroke-width="0.7992" stroke-miterlimit="1.5" stroke-linecap="round" stroke-linejoin="round"/>
<path d="M384.906 233.608C384.906 233.608 413.453 221.174 432.642 212.815C443.435 208.114 455.759 208.438 466.29 213.701C511.254 236.174 631.956 296.499 631.956 296.499" stroke="#787796" stroke-width="0.7992" stroke-miterlimit="1.5" stroke-linecap="round" stroke-linejoin="round" stroke-dasharray="6 6"/>
<path d="M527.195 348.853L689.5 267.736" stroke="#787796" stroke-width="0.7992" stroke-miterlimit="1.5" stroke-linecap="round" stroke-linejoin="round" stroke-dasharray="6 6"/>
<path d="M961.702 328.322L845.5 270.247" stroke="#787796" stroke-width="0.7992" stroke-miterlimit="1.5" stroke-linecap="round" stroke-linejoin="round" stroke-dasharray="6 6"/>
<path fill-rule="evenodd" clip-rule="evenodd" d="M124.803 267.409L112.336 273.64L124.803 279.871L137.27 273.64L124.803 267.409Z" stroke="#787796" stroke-width="0.7992" stroke-miterlimit="1.5" stroke-linecap="round" stroke-linejoin="round"/>
<path fill-rule="evenodd" clip-rule="evenodd" d="M124.803 279.871L112.336 273.641V288.903L124.803 295.133V279.871V279.871Z" stroke="#787796" stroke-width="0.7992" stroke-miterlimit="1.5" stroke-linecap="round" stroke-linejoin="round"/>
<path fill-rule="evenodd" clip-rule="evenodd" d="M137.272 273.64L124.805 279.871V295.133L137.272 288.902V273.64V273.64Z" stroke="#787796" stroke-width="0.7992" stroke-miterlimit="1.5" stroke-linecap="round" stroke-linejoin="round"/>
<path fill-rule="evenodd" clip-rule="evenodd" d="M300.693 355.282L288.227 361.513L300.693 367.743L313.16 361.513L300.693 355.282Z" stroke="#787796" stroke-width="0.7992" stroke-miterlimit="1.5" stroke-linecap="round" stroke-linejoin="round"/>
<path fill-rule="evenodd" clip-rule="evenodd" d="M300.693 367.744L288.227 361.513V376.775L300.693 383.006V367.744Z" stroke="#787796" stroke-width="0.7992" stroke-miterlimit="1.5" stroke-linecap="round" stroke-linejoin="round"/>
<path fill-rule="evenodd" clip-rule="evenodd" d="M313.162 361.513L300.695 367.743V383.005L313.162 376.775V361.513Z" stroke="#787796" stroke-width="0.7992" stroke-miterlimit="1.5" stroke-linecap="round" stroke-linejoin="round"/>
<path fill-rule="evenodd" clip-rule="evenodd" d="M476.982 267.179L464.516 273.409L476.982 279.64L489.449 273.409L476.982 267.179Z" stroke="#787796" stroke-width="0.7992" stroke-miterlimit="1.5" stroke-linecap="round" stroke-linejoin="round"/>
<path fill-rule="evenodd" clip-rule="evenodd" d="M476.982 279.641L464.516 273.41V288.672L476.982 294.903V279.641V279.641Z" stroke="#787796" stroke-width="0.7992" stroke-miterlimit="1.5" stroke-linecap="round" stroke-linejoin="round"/>
<path fill-rule="evenodd" clip-rule="evenodd" d="M489.451 273.41L476.984 279.64V294.902L489.451 288.672V273.41V273.41Z" stroke="#787796" stroke-width="0.7992" stroke-miterlimit="1.5" stroke-linecap="round" stroke-linejoin="round"/>
<path fill-rule="evenodd" clip-rule="evenodd" d="M301.17 179.313L288.703 185.544L301.17 191.775L313.637 185.544L301.17 179.313V179.313Z" stroke="#787796" stroke-width="0.7992" stroke-miterlimit="1.5" stroke-linecap="round" stroke-linejoin="round"/>
<path fill-rule="evenodd" clip-rule="evenodd" d="M301.17 191.774L288.703 185.543V200.805L301.17 207.036V191.774Z" stroke="#787796" stroke-width="0.7992" stroke-miterlimit="1.5" stroke-linecap="round" stroke-linejoin="round"/>
<path fill-rule="evenodd" clip-rule="evenodd" d="M313.639 185.542L301.172 191.773V207.035L313.639 200.804V185.542V185.542Z" stroke="#787796" stroke-width="0.7992" stroke-miterlimit="1.5" stroke-linecap="round" stroke-linejoin="round"/>
<path d="M131.039 284.386L288.193 362.929" stroke="#787796" stroke-width="0.7992" stroke-miterlimit="1.5" stroke-linecap="round" stroke-linejoin="round"/>
<path d="M137.266 275.04L294.996 196.209" stroke="#787796" stroke-width="0.7992" stroke-miterlimit="1.5" stroke-linecap="round" stroke-linejoin="round"/>
<path d="M307.375 194.856L470.762 276.514" stroke="#787796" stroke-width="0.7992" stroke-miterlimit="1.5" stroke-linecap="round" stroke-linejoin="round"/>
<path d="M470.757 282.746L306.891 364.644" stroke="#787796" stroke-width="0.7992" stroke-miterlimit="1.5" stroke-linecap="round" stroke-linejoin="round"/>
<path fill-rule="evenodd" clip-rule="evenodd" d="M564.683 321.627C556.345 317.46 544.161 316.784 537.491 320.117L501.236 338.237C494.566 341.57 495.92 347.66 504.257 351.827L534.47 366.926C542.807 371.093 554.991 371.77 561.661 368.436L597.916 350.316C604.586 346.983 603.233 340.894 594.895 336.727L564.683 321.627Z" fill="#ECEAF8" stroke="#787796" stroke-width="0.7992" stroke-miterlimit="1.5" stroke-linecap="round" stroke-linejoin="round"/>
<path d="M543.463 357.213L567.19 345.354M555.688 339.245V331.339V339.245ZM555.688 331.339H539.87H555.688ZM555.688 331.339L531.961 343.198L555.688 331.339ZM559.281 357.213H543.463H559.281ZM543.463 357.213V349.307V357.213Z" stroke="#787796" stroke-width="0.8" stroke-linecap="round" stroke-linejoin="round"/>
<path fill-rule="evenodd" clip-rule="evenodd" d="M583.561 433.217L571.094 439.448L583.561 445.678L596.027 439.448L583.561 433.217Z" stroke="#787796" stroke-width="0.7992" stroke-miterlimit="1.5" stroke-linecap="round" stroke-linejoin="round"/>
<path fill-rule="evenodd" clip-rule="evenodd" d="M583.561 445.679L571.094 439.448V454.71L583.561 460.941V445.679Z" stroke="#787796" stroke-width="0.7992" stroke-miterlimit="1.5" stroke-linecap="round" stroke-linejoin="round"/>
<path fill-rule="evenodd" clip-rule="evenodd" d="M596.029 439.448L583.562 445.678V460.94L596.029 454.71V439.448V439.448Z" stroke="#787796" stroke-width="0.7992" stroke-miterlimit="1.5" stroke-linecap="round" stroke-linejoin="round"/>
<path fill-rule="evenodd" clip-rule="evenodd" d="M752.772 517.825L740.305 524.056L752.772 530.287L765.238 524.056L752.772 517.825Z" stroke="#787796" stroke-width="0.7992" stroke-miterlimit="1.5" stroke-linecap="round" stroke-linejoin="round"/>
<path fill-rule="evenodd" clip-rule="evenodd" d="M752.772 530.287L740.305 524.057V539.319L752.772 545.549V530.287Z" stroke="#787796" stroke-width="0.7992" stroke-miterlimit="1.5" stroke-linecap="round" stroke-linejoin="round"/>
<path fill-rule="evenodd" clip-rule="evenodd" d="M765.24 524.056L752.773 530.287V545.549L765.24 539.318V524.056Z" stroke="#787796" stroke-width="0.7992" stroke-miterlimit="1.5" stroke-linecap="round" stroke-linejoin="round"/>
<path fill-rule="evenodd" clip-rule="evenodd" d="M928.818 429.802L916.352 436.032L928.818 442.263L941.285 436.032L928.818 429.802Z" stroke="#787796" stroke-width="0.7992" stroke-miterlimit="1.5" stroke-linecap="round" stroke-linejoin="round"/>
<path fill-rule="evenodd" clip-rule="evenodd" d="M928.818 442.262L916.352 436.031V451.293L928.818 457.524V442.262V442.262Z" stroke="#787796" stroke-width="0.7992" stroke-miterlimit="1.5" stroke-linecap="round" stroke-linejoin="round"/>
<path fill-rule="evenodd" clip-rule="evenodd" d="M941.279 436.031L928.812 442.261V457.524L941.279 451.293V436.031V436.031Z" stroke="#787796" stroke-width="0.7992" stroke-miterlimit="1.5" stroke-linecap="round" stroke-linejoin="round"/>
<path fill-rule="evenodd" clip-rule="evenodd" d="M1212.76 359.871L1200.3 366.102L1212.76 372.332L1225.23 366.102L1212.76 359.871Z" stroke="#787796" stroke-width="0.7992" stroke-miterlimit="1.5" stroke-linecap="round" stroke-linejoin="round"/>
<path fill-rule="evenodd" clip-rule="evenodd" d="M1212.76 372.331L1200.3 366.1V381.362L1212.76 387.593V372.331Z" stroke="#787796" stroke-width="0.7992" stroke-miterlimit="1.5" stroke-linecap="round" stroke-linejoin="round"/>
<path fill-rule="evenodd" clip-rule="evenodd" d="M1225.23 366.1L1212.77 372.331V387.593L1225.23 381.362V366.1Z" stroke="#787796" stroke-width="0.7992" stroke-miterlimit="1.5" stroke-linecap="round" stroke-linejoin="round"/>
<path fill-rule="evenodd" clip-rule="evenodd" d="M1361.34 285.61L1348.88 291.841L1361.34 298.072L1373.81 291.841L1361.34 285.61Z" stroke="#787796" stroke-width="0.7992" stroke-miterlimit="1.5" stroke-linecap="round" stroke-linejoin="round"/>
<path fill-rule="evenodd" clip-rule="evenodd" d="M1361.34 298.07L1348.88 291.84V307.102L1361.34 313.332V298.07V298.07Z" stroke="#787796" stroke-width="0.7992" stroke-miterlimit="1.5" stroke-linecap="round" stroke-linejoin="round"/>
<path fill-rule="evenodd" clip-rule="evenodd" d="M1373.81 291.839L1361.34 298.07V313.332L1373.81 307.101V291.839V291.839Z" stroke="#787796" stroke-width="0.7992" stroke-miterlimit="1.5" stroke-linecap="round" stroke-linejoin="round"/>
<path fill-rule="evenodd" clip-rule="evenodd" d="M1200.2 205.072L1187.73 211.303L1200.2 217.534L1212.67 211.303L1200.2 205.072Z" stroke="#787796" stroke-width="0.7992" stroke-miterlimit="1.5" stroke-linecap="round" stroke-linejoin="round"/>
<path fill-rule="evenodd" clip-rule="evenodd" d="M1200.2 217.534L1187.73 211.303V226.565L1200.2 232.796V217.534Z" stroke="#787796" stroke-width="0.7992" stroke-miterlimit="1.5" stroke-linecap="round" stroke-linejoin="round"/>
<path fill-rule="evenodd" clip-rule="evenodd" d="M1212.67 211.303L1200.2 217.534V232.796L1212.67 226.565V211.303Z" stroke="#787796" stroke-width="0.7992" stroke-miterlimit="1.5" stroke-linecap="round" stroke-linejoin="round"/>
<path fill-rule="evenodd" clip-rule="evenodd" d="M1051.62 279.333L1039.15 285.564L1051.62 291.795L1064.08 285.564L1051.62 279.333Z" stroke="#787796" stroke-width="0.7992" stroke-miterlimit="1.5" stroke-linecap="round" stroke-linejoin="round"/>
<path fill-rule="evenodd" clip-rule="evenodd" d="M1051.62 291.795L1039.15 285.564V300.827L1051.62 307.057V291.795V291.795Z" stroke="#787796" stroke-width="0.7992" stroke-miterlimit="1.5" stroke-linecap="round" stroke-linejoin="round"/>
<path fill-rule="evenodd" clip-rule="evenodd" d="M1064.08 285.564L1051.61 291.795V307.057L1064.08 300.827V285.564V285.564Z" stroke="#787796" stroke-width="0.7992" stroke-miterlimit="1.5" stroke-linecap="round" stroke-linejoin="round"/>
<path fill-rule="evenodd" clip-rule="evenodd" d="M759.607 345.271L747.141 351.502L759.607 357.733L772.074 351.502L759.607 345.271Z" stroke="#787796" stroke-width="0.7992" stroke-miterlimit="1.5" stroke-linecap="round" stroke-linejoin="round"/>
<path fill-rule="evenodd" clip-rule="evenodd" d="M759.607 357.734L747.141 351.503V366.765L759.607 372.995V357.734Z" stroke="#787796" stroke-width="0.7992" stroke-miterlimit="1.5" stroke-linecap="round" stroke-linejoin="round"/>
<path fill-rule="evenodd" clip-rule="evenodd" d="M772.076 351.502L759.609 357.733V372.995L772.076 366.764V351.502Z" stroke="#787796" stroke-width="0.7992" stroke-miterlimit="1.5" stroke-linecap="round" stroke-linejoin="round"/>
<path d="M751.707 361.582L596.375 439.214" stroke="#787796" stroke-width="0.7992" stroke-miterlimit="1.5" stroke-linecap="round" stroke-linejoin="round"/>
<path d="M922.415 446.894L765.641 525.247" stroke="#787796" stroke-width="0.7992" stroke-miterlimit="1.5" stroke-linecap="round" stroke-linejoin="round"/>
<path d="M589.961 450.276L739.968 525.247" stroke="#787796" stroke-width="0.7992" stroke-miterlimit="1.5" stroke-linecap="round" stroke-linejoin="round"/>
<path d="M765.984 362.302L915.991 437.272" stroke="#787796" stroke-width="0.7992" stroke-miterlimit="1.5" stroke-linecap="round" stroke-linejoin="round"/>
<path d="M991 345.626C991 345.626 1013.12 356.68 1029.66 364.948C1040.85 370.539 1054.02 370.539 1065.2 364.948C1082.43 356.34 1108.59 343.262 1127.13 334" stroke="#787796" stroke-width="0.7992" stroke-miterlimit="1.5" stroke-linecap="round" stroke-linejoin="round" stroke-dasharray="6 6"/>
<path fill-rule="evenodd" clip-rule="evenodd" d="M993.558 316.627C985.22 312.46 973.036 311.784 966.366 315.117L930.111 333.237C923.441 336.57 924.795 342.66 933.133 346.827L963.345 361.926C971.682 366.093 983.866 366.77 990.536 363.436L1026.79 345.317C1033.46 341.983 1032.11 335.894 1023.77 331.727L993.558 316.627Z" fill="#F2F1FA" stroke="#787796" stroke-width="0.7992" stroke-miterlimit="1.5" stroke-linecap="round" stroke-linejoin="round"/>
<path d="M996.146 329.64L973.189 341.114L996.146 329.64ZM996.146 329.64L981.537 350.501L973.189 341.114L996.146 329.64ZM996.146 329.64L954.406 336.942L973.189 341.114" fill="#F4F3FC"/>
<path d="M996.146 329.64L954.406 336.942L973.189 341.114M996.146 329.64L973.189 341.114L996.146 329.64ZM996.146 329.64L981.537 350.501L973.189 341.114L996.146 329.64Z" stroke="#787796" stroke-width="0.8" stroke-linecap="round" stroke-linejoin="round"/>
<path d="M847.18 402.946L929.978 361.565L946.115 353.5" stroke="#787796" stroke-width="0.7992" stroke-miterlimit="1.5" stroke-linecap="round" stroke-linejoin="round" stroke-dasharray="6 6"/>
<path d="M581.625 359.253L668.605 402.724" stroke="#787796" stroke-width="0.7992" stroke-miterlimit="1.5" stroke-linecap="round" stroke-linejoin="round" stroke-dasharray="6 6"/>
<path d="M631.953 299.675C633.709 299.675 635.132 298.252 635.132 296.497C635.132 294.742 633.709 293.319 631.953 293.319C630.197 293.319 628.773 294.742 628.773 296.497C628.773 298.252 630.197 299.675 631.953 299.675Z" fill="#EFEFF5" stroke="#787796" stroke-width="0.7992" stroke-miterlimit="1.5" stroke-linecap="round" stroke-linejoin="round"/>
<path d="M668.601 405.901C670.357 405.901 671.78 404.478 671.78 402.723C671.78 400.968 670.357 399.545 668.601 399.545C666.845 399.545 665.422 400.968 665.422 402.723C665.422 404.478 666.845 405.901 668.601 405.901Z" fill="#EFEFF5" stroke="#787796" stroke-width="0.7992" stroke-miterlimit="1.5" stroke-linecap="round" stroke-linejoin="round"/>
<path d="M847.179 406.125C848.935 406.125 850.359 404.702 850.359 402.947C850.359 401.192 848.935 399.77 847.179 399.77C845.423 399.77 844 401.192 844 402.947C844 404.702 845.423 406.125 847.179 406.125Z" fill="#EFEFF5" stroke="#787796" stroke-width="0.7992" stroke-miterlimit="1.5" stroke-linecap="round" stroke-linejoin="round"/>
<path d="M1128.95 335.03C1130.71 335.03 1132.13 333.608 1132.13 331.853C1132.13 330.098 1130.71 328.675 1128.95 328.675C1127.2 328.675 1125.77 330.098 1125.77 331.853C1125.77 333.608 1127.2 335.03 1128.95 335.03Z" fill="#EFEFF5" stroke="#787796" stroke-width="0.7992" stroke-miterlimit="1.5" stroke-linecap="round" stroke-linejoin="round"/>
<path d="M769.017 295.136C760.16 295.136 751.257 294.046 742.77 291.91H742.678C734.702 289.82 727.421 286.231 720.372 282.778C717.822 281.506 715.41 280.324 712.953 279.234L712.767 279.143C697.928 271.964 681.558 263.968 664.168 255.38C662.406 254.517 660.644 253.654 658.882 252.79C652.622 249.701 646.129 246.475 640.054 243.385L639.637 243.158C634.861 240.75 628.971 237.706 624.705 233.026C616.914 224.666 616.961 217.623 617.007 210.217C617.007 209.354 617.007 208.491 617.007 207.536V207.491V207.445C617.007 205.719 617.007 203.902 617.007 201.993C617.007 198.722 617.007 195.36 617.054 192.361C617.054 188.181 617.656 184.728 618.955 181.774C622.015 174.595 628.322 168.598 637.736 164.009C643.903 160.783 650.442 157.557 656.795 154.422C658.557 153.559 660.319 152.695 662.035 151.832C678.358 143.745 694.774 135.748 710.727 128.024L710.866 127.978C713.463 126.797 716.06 125.479 718.842 124.162C725.659 120.8 732.754 117.346 740.127 114.984L740.359 114.893C757.842 109.94 777.318 109.713 795.265 114.211H795.357C803.333 116.301 810.614 119.891 817.663 123.344C820.213 124.616 822.625 125.798 825.082 126.888L825.268 126.979C846.692 137.384 869.6 148.561 892.045 159.783L892.138 159.829C893.25 160.374 894.363 160.965 895.523 161.51C904.658 166.008 916.02 171.642 919.915 184.092L919.961 184.228C921.074 187.908 921.028 191.588 920.981 194.814C920.981 196.041 920.935 197.222 920.981 198.222V198.449V198.676C920.981 200.403 920.981 202.22 920.981 204.129C920.981 207.355 920.981 210.717 920.935 213.67C921.121 219.713 919.312 225.347 915.741 230.027C912.634 234.298 907.997 238.069 902.015 241.204C898.444 243.113 894.363 245.112 890.468 247.111C889.031 247.838 887.593 248.565 886.248 249.246L886.202 249.292C870.018 257.288 852.999 265.649 835.609 274.145C827.957 277.871 819.935 281.733 813.118 285.004L813.025 285.05C812.33 285.368 811.634 285.686 810.939 286.004C806.858 287.912 802.267 290.048 797.63 291.32C788.448 293.819 778.756 295.136 769.017 295.136Z" stroke="#787796" stroke-width="0.8" stroke-linejoin="round"/>
</svg>
