<svg width="1528" height="740" viewBox="0 0 1528 740" fill="none" xmlns="http://www.w3.org/2000/svg">
<path d="M1058.02 298.4L1200.29 369.507" stroke="#787796" stroke-width="0.7992" stroke-miterlimit="1.5" stroke-linecap="round" stroke-linejoin="round"/>
<path d="M1193.82 224.114L1064.42 288.786" stroke="#787796" stroke-width="0.7992" stroke-miterlimit="1.5" stroke-linecap="round" stroke-linejoin="round"/>
<path d="M1206.66 224.114L1348.52 295.017" stroke="#787796" stroke-width="0.7992" stroke-miterlimit="1.5" stroke-linecap="round" stroke-linejoin="round"/>
<path d="M1354.96 304.65L1225.23 369.49" stroke="#787796" stroke-width="0.7992" stroke-miterlimit="1.5" stroke-linecap="round" stroke-linejoin="round"/>
<path d="M384.906 235.608C384.906 235.608 413.453 223.174 432.642 214.815C443.435 210.114 455.759 210.438 466.29 215.701C511.254 238.174 631.956 298.499 631.956 298.499" stroke="#787796" stroke-width="0.7992" stroke-miterlimit="1.5" stroke-linecap="round" stroke-linejoin="round" stroke-dasharray="6 6"/>
<path d="M527.195 350.853L689.5 269.736" stroke="#787796" stroke-width="0.7992" stroke-miterlimit="1.5" stroke-linecap="round" stroke-linejoin="round" stroke-dasharray="6 6"/>
<path d="M961.702 330.322L845.5 272.247" stroke="#787796" stroke-width="0.7992" stroke-miterlimit="1.5" stroke-linecap="round" stroke-linejoin="round" stroke-dasharray="6 6"/>
<path fill-rule="evenodd" clip-rule="evenodd" d="M124.803 269.409L112.336 275.64L124.803 281.871L137.27 275.64L124.803 269.409Z" stroke="#787796" stroke-width="0.7992" stroke-miterlimit="1.5" stroke-linecap="round" stroke-linejoin="round"/>
<path fill-rule="evenodd" clip-rule="evenodd" d="M124.803 281.871L112.336 275.641V290.903L124.803 297.133V281.871V281.871Z" stroke="#787796" stroke-width="0.7992" stroke-miterlimit="1.5" stroke-linecap="round" stroke-linejoin="round"/>
<path fill-rule="evenodd" clip-rule="evenodd" d="M137.272 275.64L124.805 281.871V297.133L137.272 290.902V275.64V275.64Z" stroke="#787796" stroke-width="0.7992" stroke-miterlimit="1.5" stroke-linecap="round" stroke-linejoin="round"/>
<path fill-rule="evenodd" clip-rule="evenodd" d="M300.693 357.282L288.227 363.513L300.693 369.743L313.16 363.513L300.693 357.282Z" stroke="#787796" stroke-width="0.7992" stroke-miterlimit="1.5" stroke-linecap="round" stroke-linejoin="round"/>
<path fill-rule="evenodd" clip-rule="evenodd" d="M300.693 369.744L288.227 363.513V378.775L300.693 385.006V369.744Z" stroke="#787796" stroke-width="0.7992" stroke-miterlimit="1.5" stroke-linecap="round" stroke-linejoin="round"/>
<path fill-rule="evenodd" clip-rule="evenodd" d="M313.162 363.513L300.695 369.743V385.005L313.162 378.775V363.513Z" stroke="#787796" stroke-width="0.7992" stroke-miterlimit="1.5" stroke-linecap="round" stroke-linejoin="round"/>
<path fill-rule="evenodd" clip-rule="evenodd" d="M476.982 269.179L464.516 275.409L476.982 281.64L489.449 275.409L476.982 269.179Z" stroke="#787796" stroke-width="0.7992" stroke-miterlimit="1.5" stroke-linecap="round" stroke-linejoin="round"/>
<path fill-rule="evenodd" clip-rule="evenodd" d="M476.982 281.641L464.516 275.41V290.672L476.982 296.903V281.641V281.641Z" stroke="#787796" stroke-width="0.7992" stroke-miterlimit="1.5" stroke-linecap="round" stroke-linejoin="round"/>
<path fill-rule="evenodd" clip-rule="evenodd" d="M489.451 275.41L476.984 281.64V296.902L489.451 290.672V275.41V275.41Z" stroke="#787796" stroke-width="0.7992" stroke-miterlimit="1.5" stroke-linecap="round" stroke-linejoin="round"/>
<path fill-rule="evenodd" clip-rule="evenodd" d="M301.17 181.313L288.703 187.544L301.17 193.775L313.637 187.544L301.17 181.313V181.313Z" stroke="#787796" stroke-width="0.7992" stroke-miterlimit="1.5" stroke-linecap="round" stroke-linejoin="round"/>
<path fill-rule="evenodd" clip-rule="evenodd" d="M301.17 193.774L288.703 187.543V202.805L301.17 209.036V193.774Z" stroke="#787796" stroke-width="0.7992" stroke-miterlimit="1.5" stroke-linecap="round" stroke-linejoin="round"/>
<path fill-rule="evenodd" clip-rule="evenodd" d="M313.639 187.542L301.172 193.773V209.035L313.639 202.804V187.542V187.542Z" stroke="#787796" stroke-width="0.7992" stroke-miterlimit="1.5" stroke-linecap="round" stroke-linejoin="round"/>
<path d="M131.039 286.386L288.193 364.929" stroke="#787796" stroke-width="0.7992" stroke-miterlimit="1.5" stroke-linecap="round" stroke-linejoin="round"/>
<path d="M137.266 277.04L294.996 198.209" stroke="#787796" stroke-width="0.7992" stroke-miterlimit="1.5" stroke-linecap="round" stroke-linejoin="round"/>
<path d="M307.375 196.856L470.762 278.514" stroke="#787796" stroke-width="0.7992" stroke-miterlimit="1.5" stroke-linecap="round" stroke-linejoin="round"/>
<path d="M470.757 284.746L306.891 366.644" stroke="#787796" stroke-width="0.7992" stroke-miterlimit="1.5" stroke-linecap="round" stroke-linejoin="round"/>
<path fill-rule="evenodd" clip-rule="evenodd" d="M564.683 323.627C556.345 319.46 544.161 318.784 537.491 322.117L501.236 340.237C494.566 343.57 495.92 349.66 504.257 353.827L534.47 368.926C542.807 373.093 554.991 373.77 561.661 370.436L597.916 352.316C604.586 348.983 603.233 342.894 594.895 338.727L564.683 323.627Z" fill="#ECEAF8" stroke="#787796" stroke-width="0.7992" stroke-miterlimit="1.5" stroke-linecap="round" stroke-linejoin="round"/>
<path d="M543.463 359.213L567.19 347.354M555.688 341.245V333.339V341.245ZM555.688 333.339H539.87H555.688ZM555.688 333.339L531.961 345.198L555.688 333.339ZM559.281 359.213H543.463H559.281ZM543.463 359.213V351.307V359.213Z" stroke="#787796" stroke-width="0.8" stroke-linecap="round" stroke-linejoin="round"/>
<path fill-rule="evenodd" clip-rule="evenodd" d="M583.561 435.217L571.094 441.448L583.561 447.678L596.027 441.448L583.561 435.217Z" stroke="#787796" stroke-width="0.7992" stroke-miterlimit="1.5" stroke-linecap="round" stroke-linejoin="round"/>
<path fill-rule="evenodd" clip-rule="evenodd" d="M583.561 447.679L571.094 441.448V456.71L583.561 462.941V447.679Z" stroke="#787796" stroke-width="0.7992" stroke-miterlimit="1.5" stroke-linecap="round" stroke-linejoin="round"/>
<path fill-rule="evenodd" clip-rule="evenodd" d="M596.029 441.448L583.562 447.678V462.94L596.029 456.71V441.448V441.448Z" stroke="#787796" stroke-width="0.7992" stroke-miterlimit="1.5" stroke-linecap="round" stroke-linejoin="round"/>
<path fill-rule="evenodd" clip-rule="evenodd" d="M752.772 519.825L740.305 526.056L752.772 532.287L765.238 526.056L752.772 519.825Z" stroke="#787796" stroke-width="0.7992" stroke-miterlimit="1.5" stroke-linecap="round" stroke-linejoin="round"/>
<path fill-rule="evenodd" clip-rule="evenodd" d="M752.772 532.287L740.305 526.057V541.319L752.772 547.549V532.287Z" stroke="#787796" stroke-width="0.7992" stroke-miterlimit="1.5" stroke-linecap="round" stroke-linejoin="round"/>
<path fill-rule="evenodd" clip-rule="evenodd" d="M765.24 526.056L752.773 532.287V547.549L765.24 541.318V526.056Z" stroke="#787796" stroke-width="0.7992" stroke-miterlimit="1.5" stroke-linecap="round" stroke-linejoin="round"/>
<path fill-rule="evenodd" clip-rule="evenodd" d="M928.818 431.802L916.352 438.032L928.818 444.263L941.285 438.032L928.818 431.802Z" stroke="#787796" stroke-width="0.7992" stroke-miterlimit="1.5" stroke-linecap="round" stroke-linejoin="round"/>
<path fill-rule="evenodd" clip-rule="evenodd" d="M928.818 444.262L916.352 438.031V453.293L928.818 459.524V444.262V444.262Z" stroke="#787796" stroke-width="0.7992" stroke-miterlimit="1.5" stroke-linecap="round" stroke-linejoin="round"/>
<path fill-rule="evenodd" clip-rule="evenodd" d="M941.279 438.031L928.812 444.261V459.524L941.279 453.293V438.031V438.031Z" stroke="#787796" stroke-width="0.7992" stroke-miterlimit="1.5" stroke-linecap="round" stroke-linejoin="round"/>
<path fill-rule="evenodd" clip-rule="evenodd" d="M1212.76 361.871L1200.3 368.102L1212.76 374.332L1225.23 368.102L1212.76 361.871Z" stroke="#787796" stroke-width="0.7992" stroke-miterlimit="1.5" stroke-linecap="round" stroke-linejoin="round"/>
<path fill-rule="evenodd" clip-rule="evenodd" d="M1212.76 374.331L1200.3 368.1V383.362L1212.76 389.593V374.331Z" stroke="#787796" stroke-width="0.7992" stroke-miterlimit="1.5" stroke-linecap="round" stroke-linejoin="round"/>
<path fill-rule="evenodd" clip-rule="evenodd" d="M1225.23 368.1L1212.77 374.331V389.593L1225.23 383.362V368.1Z" stroke="#787796" stroke-width="0.7992" stroke-miterlimit="1.5" stroke-linecap="round" stroke-linejoin="round"/>
<path fill-rule="evenodd" clip-rule="evenodd" d="M1361.34 287.61L1348.88 293.841L1361.34 300.072L1373.81 293.841L1361.34 287.61Z" stroke="#787796" stroke-width="0.7992" stroke-miterlimit="1.5" stroke-linecap="round" stroke-linejoin="round"/>
<path fill-rule="evenodd" clip-rule="evenodd" d="M1361.34 300.07L1348.88 293.84V309.102L1361.34 315.332V300.07V300.07Z" stroke="#787796" stroke-width="0.7992" stroke-miterlimit="1.5" stroke-linecap="round" stroke-linejoin="round"/>
<path fill-rule="evenodd" clip-rule="evenodd" d="M1373.81 293.839L1361.34 300.07V315.332L1373.81 309.101V293.839V293.839Z" stroke="#787796" stroke-width="0.7992" stroke-miterlimit="1.5" stroke-linecap="round" stroke-linejoin="round"/>
<path fill-rule="evenodd" clip-rule="evenodd" d="M1200.2 207.072L1187.73 213.303L1200.2 219.534L1212.67 213.303L1200.2 207.072Z" stroke="#787796" stroke-width="0.7992" stroke-miterlimit="1.5" stroke-linecap="round" stroke-linejoin="round"/>
<path fill-rule="evenodd" clip-rule="evenodd" d="M1200.2 219.534L1187.73 213.303V228.565L1200.2 234.796V219.534Z" stroke="#787796" stroke-width="0.7992" stroke-miterlimit="1.5" stroke-linecap="round" stroke-linejoin="round"/>
<path fill-rule="evenodd" clip-rule="evenodd" d="M1212.67 213.303L1200.2 219.534V234.796L1212.67 228.565V213.303Z" stroke="#787796" stroke-width="0.7992" stroke-miterlimit="1.5" stroke-linecap="round" stroke-linejoin="round"/>
<path fill-rule="evenodd" clip-rule="evenodd" d="M1051.62 281.333L1039.15 287.564L1051.62 293.795L1064.08 287.564L1051.62 281.333Z" stroke="#787796" stroke-width="0.7992" stroke-miterlimit="1.5" stroke-linecap="round" stroke-linejoin="round"/>
<path fill-rule="evenodd" clip-rule="evenodd" d="M1051.62 293.795L1039.15 287.564V302.827L1051.62 309.057V293.795V293.795Z" stroke="#787796" stroke-width="0.7992" stroke-miterlimit="1.5" stroke-linecap="round" stroke-linejoin="round"/>
<path fill-rule="evenodd" clip-rule="evenodd" d="M1064.08 287.564L1051.61 293.795V309.057L1064.08 302.827V287.564V287.564Z" stroke="#787796" stroke-width="0.7992" stroke-miterlimit="1.5" stroke-linecap="round" stroke-linejoin="round"/>
<path fill-rule="evenodd" clip-rule="evenodd" d="M759.607 347.271L747.141 353.502L759.607 359.733L772.074 353.502L759.607 347.271Z" stroke="#787796" stroke-width="0.7992" stroke-miterlimit="1.5" stroke-linecap="round" stroke-linejoin="round"/>
<path fill-rule="evenodd" clip-rule="evenodd" d="M759.607 359.734L747.141 353.503V368.765L759.607 374.995V359.734Z" stroke="#787796" stroke-width="0.7992" stroke-miterlimit="1.5" stroke-linecap="round" stroke-linejoin="round"/>
<path fill-rule="evenodd" clip-rule="evenodd" d="M772.076 353.502L759.609 359.733V374.995L772.076 368.764V353.502Z" stroke="#787796" stroke-width="0.7992" stroke-miterlimit="1.5" stroke-linecap="round" stroke-linejoin="round"/>
<path d="M751.707 363.582L596.375 441.214" stroke="#787796" stroke-width="0.7992" stroke-miterlimit="1.5" stroke-linecap="round" stroke-linejoin="round"/>
<path d="M922.415 448.894L765.641 527.247" stroke="#787796" stroke-width="0.7992" stroke-miterlimit="1.5" stroke-linecap="round" stroke-linejoin="round"/>
<path d="M589.961 452.276L739.968 527.247" stroke="#787796" stroke-width="0.7992" stroke-miterlimit="1.5" stroke-linecap="round" stroke-linejoin="round"/>
<path d="M765.984 364.302L915.991 439.272" stroke="#787796" stroke-width="0.7992" stroke-miterlimit="1.5" stroke-linecap="round" stroke-linejoin="round"/>
<path d="M991 347.626C991 347.626 1013.12 358.68 1029.66 366.948C1040.85 372.539 1054.02 372.539 1065.2 366.948C1082.43 358.34 1108.59 345.262 1127.13 336" stroke="#787796" stroke-width="0.7992" stroke-miterlimit="1.5" stroke-linecap="round" stroke-linejoin="round" stroke-dasharray="6 6"/>
<path fill-rule="evenodd" clip-rule="evenodd" d="M993.558 318.627C985.22 314.46 973.036 313.784 966.366 317.117L930.111 335.237C923.441 338.57 924.795 344.66 933.133 348.827L963.345 363.926C971.682 368.093 983.866 368.77 990.536 365.436L1026.79 347.317C1033.46 343.983 1032.11 337.894 1023.77 333.727L993.558 318.627Z" fill="#F2F1FA" stroke="#787796" stroke-width="0.7992" stroke-miterlimit="1.5" stroke-linecap="round" stroke-linejoin="round"/>
<path d="M996.146 331.64L973.189 343.114L996.146 331.64ZM996.146 331.64L981.537 352.501L973.189 343.114L996.146 331.64ZM996.146 331.64L954.406 338.942L973.189 343.114" fill="#F4F3FC"/>
<path d="M996.146 331.64L954.406 338.942L973.189 343.114M996.146 331.64L973.189 343.114L996.146 331.64ZM996.146 331.64L981.537 352.501L973.189 343.114L996.146 331.64Z" stroke="#787796" stroke-width="0.8" stroke-linecap="round" stroke-linejoin="round"/>
<path d="M847.18 404.946L929.978 363.565L946.115 355.5" stroke="#787796" stroke-width="0.7992" stroke-miterlimit="1.5" stroke-linecap="round" stroke-linejoin="round" stroke-dasharray="6 6"/>
<path d="M581.625 361.253L668.605 404.724" stroke="#787796" stroke-width="0.7992" stroke-miterlimit="1.5" stroke-linecap="round" stroke-linejoin="round" stroke-dasharray="6 6"/>
<path d="M631.953 301.675C633.709 301.675 635.132 300.252 635.132 298.497C635.132 296.742 633.709 295.319 631.953 295.319C630.197 295.319 628.773 296.742 628.773 298.497C628.773 300.252 630.197 301.675 631.953 301.675Z" fill="#EFEFF5" stroke="#787796" stroke-width="0.7992" stroke-miterlimit="1.5" stroke-linecap="round" stroke-linejoin="round"/>
<path d="M668.601 407.901C670.357 407.901 671.78 406.478 671.78 404.723C671.78 402.968 670.357 401.545 668.601 401.545C666.845 401.545 665.422 402.968 665.422 404.723C665.422 406.478 666.845 407.901 668.601 407.901Z" fill="#EFEFF5" stroke="#787796" stroke-width="0.7992" stroke-miterlimit="1.5" stroke-linecap="round" stroke-linejoin="round"/>
<path d="M847.179 408.125C848.935 408.125 850.359 406.702 850.359 404.947C850.359 403.192 848.935 401.77 847.179 401.77C845.423 401.77 844 403.192 844 404.947C844 406.702 845.423 408.125 847.179 408.125Z" fill="#EFEFF5" stroke="#787796" stroke-width="0.7992" stroke-miterlimit="1.5" stroke-linecap="round" stroke-linejoin="round"/>
<path d="M1128.95 337.03C1130.71 337.03 1132.13 335.608 1132.13 333.853C1132.13 332.098 1130.71 330.675 1128.95 330.675C1127.2 330.675 1125.77 332.098 1125.77 333.853C1125.77 335.608 1127.2 337.03 1128.95 337.03Z" fill="#EFEFF5" stroke="#787796" stroke-width="0.7992" stroke-miterlimit="1.5" stroke-linecap="round" stroke-linejoin="round"/>
<path d="M769.017 297.136C760.16 297.136 751.257 296.046 742.77 293.91H742.678C734.702 291.82 727.421 288.231 720.372 284.778C717.822 283.506 715.41 282.324 712.953 281.234L712.767 281.143C697.928 273.964 681.558 265.968 664.168 257.38C662.406 256.517 660.644 255.654 658.882 254.79C652.622 251.701 646.129 248.475 640.054 245.385L639.637 245.158C634.861 242.75 628.971 239.706 624.705 235.026C616.914 226.666 616.961 219.623 617.007 212.217C617.007 211.354 617.007 210.491 617.007 209.536V209.491V209.445C617.007 207.719 617.007 205.902 617.007 203.993C617.007 200.722 617.007 197.36 617.054 194.361C617.054 190.181 617.656 186.728 618.955 183.774C622.015 176.595 628.322 170.598 637.736 166.009C643.903 162.783 650.442 159.557 656.795 156.422C658.557 155.559 660.319 154.695 662.035 153.832C678.358 145.745 694.774 137.748 710.727 130.024L710.866 129.978C713.463 128.797 716.06 127.479 718.842 126.162C725.659 122.8 732.754 119.346 740.127 116.984L740.359 116.893C757.842 111.94 777.318 111.713 795.265 116.211H795.357C803.333 118.301 810.614 121.891 817.663 125.344C820.213 126.616 822.625 127.798 825.082 128.888L825.268 128.979C846.692 139.384 869.6 150.561 892.045 161.783L892.138 161.829C893.25 162.374 894.363 162.965 895.523 163.51C904.658 168.008 916.02 173.642 919.915 186.092L919.961 186.228C921.074 189.908 921.028 193.588 920.981 196.814C920.981 198.041 920.935 199.222 920.981 200.222V200.449V200.676C920.981 202.403 920.981 204.22 920.981 206.129C920.981 209.355 920.981 212.717 920.935 215.67C921.121 221.713 919.312 227.347 915.741 232.027C912.634 236.298 907.997 240.069 902.015 243.204C898.444 245.113 894.363 247.112 890.468 249.111C889.031 249.838 887.593 250.565 886.248 251.246L886.202 251.292C870.018 259.288 852.999 267.649 835.609 276.145C827.957 279.871 819.935 283.733 813.118 287.004L813.025 287.05C812.33 287.368 811.634 287.686 810.939 288.004C806.858 289.912 802.267 292.048 797.63 293.32C788.448 295.819 778.756 297.136 769.017 297.136Z" stroke="#787796" stroke-width="0.8" stroke-linejoin="round"/>
</svg>
