<svg width="153" height="40" viewBox="0 0 153 40" fill="none" xmlns="http://www.w3.org/2000/svg">
<path d="M25.0495 13.7585L24.7595 13.4685C23.6799 12.3889 21.9482 12.3701 20.8917 13.4266L17.37 16.9484C16.3135 18.0049 16.3322 19.7366 17.4118 20.8162L17.7018 21.1061C18.7814 22.1858 20.5131 22.2045 21.5696 21.148L25.0913 17.6262C26.1478 16.5697 26.1291 14.8381 25.0495 13.7585Z" fill="#222151"/>
<path fill-rule="evenodd" clip-rule="evenodd" d="M14.9702 22.8257L15.4534 23.3089L19.8939 27.7494L31.1622 16.4812L35.3622 20.6812L24.0939 31.9494L19.8939 36.1489L15.6945 31.9494L11.2534 27.5084L10.7702 27.0252L10.4886 26.7436C10.4779 26.7329 10.4673 26.7217 10.4566 26.711C6.0182 22.2385 6.01447 15.0236 10.4454 10.5467C10.4598 10.5323 10.4742 10.5174 10.4886 10.503L10.5014 10.4902L10.5083 10.4833L10.5185 10.4737L10.5281 10.4635L10.5377 10.4539L10.5473 10.4443L10.5569 10.4347C12.9835 8.00808 15.4102 5.58194 17.8363 3.15527L22.0363 7.35528C19.607 9.78408 17.1777 12.2134 14.7489 14.6427L14.7387 14.6529L14.7286 14.6625L14.7185 14.6726L14.7083 14.6827L14.7014 14.6902L14.6886 14.703C14.6683 14.7227 14.6491 14.7425 14.6294 14.7627C12.5419 16.9126 12.5425 20.3372 14.6321 22.4865C14.6502 22.5057 14.6694 22.5249 14.6886 22.5436L14.9702 22.8257Z" fill="#222151"/>
<path d="M54.0773 11.75V17.73H63.5673V19.68H54.0773V26.05H66.1673V28H50.3073V9.8H66.1673V11.75H54.0773ZM83.0663 28H79.4263V19.81C79.4263 18.562 79.1143 17.6693 78.4903 17.132C77.8663 16.5773 76.965 16.3 75.7863 16.3H72.4063V28H68.7663V14.48H75.7863C78.265 14.48 80.0936 14.9307 81.2723 15.832C82.4683 16.716 83.0663 18.042 83.0663 19.81V28ZM93.8451 13.96C94.3998 13.96 94.9545 14.012 95.5091 14.116C96.0638 14.2027 96.5925 14.3327 97.0951 14.506C97.6151 14.662 98.0918 14.8613 98.5251 15.104C98.9758 15.3467 99.3658 15.6153 99.6951 15.91L98.6551 17.47C97.9445 16.9327 97.2165 16.5167 96.4711 16.222C95.7431 15.9273 94.9545 15.78 94.1051 15.78C93.4811 15.78 92.9091 15.884 92.3891 16.092C91.8691 16.2827 91.4185 16.6033 91.0371 17.054C90.6558 17.4873 90.3525 18.0507 90.1271 18.744C89.9191 19.4373 89.8151 20.2693 89.8151 21.24C89.8151 22.2107 89.9191 23.0427 90.1271 23.736C90.3525 24.4293 90.6645 25.0013 91.0631 25.452C91.4618 25.8853 91.9385 26.206 92.4931 26.414C93.0651 26.6047 93.6891 26.7 94.3651 26.7C95.2145 26.7 96.0031 26.5527 96.7311 26.258C97.4765 25.9633 98.2045 25.5473 98.9151 25.01L99.9551 26.57C99.6258 26.8647 99.2358 27.1333 98.7851 27.376C98.3518 27.6187 97.8751 27.8267 97.3551 28C96.8525 28.156 96.3238 28.2773 95.7691 28.364C95.2145 28.468 94.6598 28.52 94.1051 28.52C92.8745 28.52 91.7478 28.3553 90.7251 28.026C89.7198 27.714 88.8618 27.2547 88.1511 26.648C87.4405 26.024 86.8858 25.2613 86.4871 24.36C86.1058 23.4587 85.9151 22.4187 85.9151 21.24C85.9151 20.0787 86.1058 19.0473 86.4871 18.146C86.8858 17.2273 87.4318 16.4647 88.1251 15.858C88.8185 15.234 89.6505 14.766 90.6211 14.454C91.5918 14.1247 92.6665 13.96 93.8451 13.96ZM111.413 28H105.693L100.493 14.48H104.133L108.423 25.79H108.683L112.973 14.48H116.613L111.413 28ZM125.456 26.83C126.011 26.83 126.531 26.726 127.016 26.518C127.502 26.31 127.926 25.9893 128.29 25.556C128.654 25.1053 128.94 24.5247 129.148 23.814C129.374 23.1033 129.486 22.2453 129.486 21.24C129.486 20.2347 129.374 19.3767 129.148 18.666C128.94 17.9553 128.654 17.3833 128.29 16.95C127.926 16.4993 127.502 16.17 127.016 15.962C126.531 15.754 126.011 15.65 125.456 15.65C124.902 15.65 124.382 15.754 123.896 15.962C123.411 16.17 122.986 16.4993 122.622 16.95C122.258 17.3833 121.964 17.9553 121.738 18.666C121.53 19.3767 121.426 20.2347 121.426 21.24C121.426 22.2453 121.53 23.1033 121.738 23.814C121.964 24.5247 122.258 25.1053 122.622 25.556C122.986 25.9893 123.411 26.31 123.896 26.518C124.382 26.726 124.902 26.83 125.456 26.83ZM125.456 13.96C126.618 13.96 127.684 14.1247 128.654 14.454C129.642 14.766 130.483 15.234 131.176 15.858C131.87 16.4647 132.407 17.2273 132.788 18.146C133.187 19.0473 133.386 20.0787 133.386 21.24C133.386 22.4187 133.187 23.4587 132.788 24.36C132.407 25.2613 131.87 26.024 131.176 26.648C130.483 27.2547 129.642 27.714 128.654 28.026C127.684 28.3553 126.618 28.52 125.456 28.52C124.278 28.52 123.203 28.3553 122.232 28.026C121.262 27.714 120.43 27.2547 119.736 26.648C119.043 26.024 118.497 25.2613 118.098 24.36C117.717 23.4587 117.526 22.4187 117.526 21.24C117.526 20.0787 117.717 19.0473 118.098 18.146C118.497 17.2273 119.043 16.4647 119.736 15.858C120.43 15.234 121.262 14.766 122.232 14.454C123.203 14.1247 124.278 13.96 125.456 13.96ZM147.042 27.48H143.662C141.183 27.48 139.346 27.038 138.15 26.154C136.971 25.2527 136.382 23.918 136.382 22.15V14.48H140.022V22.15C140.022 23.398 140.334 24.2993 140.958 24.854C141.582 25.3913 142.483 25.66 143.662 25.66H147.042V14.48H150.682V27.74C150.682 28.5547 150.526 29.2913 150.214 29.95C149.902 30.626 149.434 31.2067 148.81 31.692C148.203 32.1773 147.432 32.55 146.496 32.81C145.577 33.07 144.502 33.2 143.272 33.2C142.856 33.2 142.405 33.1653 141.92 33.096C141.452 33.044 140.975 32.9487 140.49 32.81C140.004 32.6887 139.528 32.524 139.06 32.316C138.609 32.1253 138.193 31.9 137.812 31.64L138.852 30.08C139.441 30.4787 140.1 30.7907 140.828 31.016C141.556 31.2587 142.284 31.38 143.012 31.38C144.312 31.38 145.308 31.0853 146.002 30.496C146.695 29.9067 147.042 28.988 147.042 27.74V27.48Z" fill="#222151"/>
</svg>
