<svg width="60" height="30" viewBox="0 0 60 30" fill="none" xmlns="http://www.w3.org/2000/svg">
<rect x="0.5" y="0.5" width="59" height="29" rx="14.5" stroke="white"/>
<circle cx="15" cy="15" r="12" fill="white"/>
<path d="M49.7812 15C49.7812 15.9456 49.5008 16.87 48.9755 17.6563C48.4501 18.4426 47.7034 19.0554 46.8297 19.4173C45.956 19.7792 44.9947 19.8739 44.0672 19.6894C43.1398 19.5049 42.2878 19.0495 41.6191 18.3809C40.9505 17.7122 40.4951 16.8602 40.3106 15.9328C40.1261 15.0053 40.2208 14.044 40.5827 13.1703C40.9446 12.2966 41.5574 11.5499 42.3437 11.0245C43.13 10.4992 44.0544 10.2188 45 10.2188C46.2675 10.2206 47.4825 10.7249 48.3788 11.6212C49.2751 12.5175 49.7794 13.7325 49.7812 15ZM45 9.09375C45.1492 9.09375 45.2923 9.03449 45.3977 8.929C45.5032 8.82351 45.5625 8.68043 45.5625 8.53125V7.96875C45.5625 7.81957 45.5032 7.67649 45.3977 7.571C45.2923 7.46551 45.1492 7.40625 45 7.40625C44.8508 7.40625 44.7077 7.46551 44.6023 7.571C44.4968 7.67649 44.4375 7.81957 44.4375 7.96875V8.53125C44.4375 8.68043 44.4968 8.82351 44.6023 8.929C44.7077 9.03449 44.8508 9.09375 45 9.09375ZM40.0289 10.8234C40.1352 10.9269 40.2778 10.9849 40.4262 10.9849C40.5746 10.9849 40.7171 10.9269 40.8234 10.8234C40.9286 10.718 40.9877 10.5751 40.9877 10.4262C40.9877 10.2772 40.9286 10.1344 40.8234 10.0289L40.4227 9.62812C40.3157 9.53117 40.1755 9.47908 40.0311 9.48264C39.8868 9.48619 39.7493 9.54512 39.6472 9.64722C39.5451 9.74932 39.4862 9.88677 39.4826 10.0311C39.4791 10.1755 39.5312 10.3157 39.6281 10.4227L40.0289 10.8234ZM38.5312 14.4375H37.9688C37.8196 14.4375 37.6765 14.4968 37.571 14.6023C37.4655 14.7077 37.4062 14.8508 37.4062 15C37.4062 15.1492 37.4655 15.2923 37.571 15.3977C37.6765 15.5032 37.8196 15.5625 37.9688 15.5625H38.5312C38.6804 15.5625 38.8235 15.5032 38.929 15.3977C39.0345 15.2923 39.0938 15.1492 39.0938 15C39.0938 14.8508 39.0345 14.7077 38.929 14.6023C38.8235 14.4968 38.6804 14.4375 38.5312 14.4375ZM40.0289 19.1766L39.6281 19.5773C39.5229 19.6828 39.4639 19.8257 39.4639 19.9746C39.4639 20.1236 39.5229 20.2664 39.6281 20.3719C39.7361 20.4751 39.8795 20.533 40.0289 20.5336C40.1763 20.5333 40.3177 20.4753 40.4227 20.3719L40.8234 19.9711C40.9204 19.8641 40.9725 19.7239 40.9689 19.5796C40.9654 19.4352 40.9064 19.2978 40.8043 19.1957C40.7022 19.0936 40.5648 19.0346 40.4204 19.0311C40.2761 19.0275 40.1359 19.0796 40.0289 19.1766V19.1766ZM45 20.9062C44.8508 20.9062 44.7077 20.9655 44.6023 21.071C44.4968 21.1765 44.4375 21.3196 44.4375 21.4688V22.0312C44.4375 22.1804 44.4968 22.3235 44.6023 22.429C44.7077 22.5345 44.8508 22.5938 45 22.5938C45.1492 22.5938 45.2923 22.5345 45.3977 22.429C45.5032 22.3235 45.5625 22.1804 45.5625 22.0312V21.4688C45.5625 21.3196 45.5032 21.1765 45.3977 21.071C45.2923 20.9655 45.1492 20.9062 45 20.9062ZM49.9711 19.1766C49.8641 19.0796 49.7239 19.0275 49.5796 19.0311C49.4352 19.0346 49.2978 19.0936 49.1957 19.1957C49.0936 19.2978 49.0346 19.4352 49.0311 19.5796C49.0275 19.7239 49.0796 19.8641 49.1766 19.9711L49.5773 20.3719C49.6823 20.4753 49.8237 20.5333 49.9711 20.5336C50.1205 20.533 50.2639 20.4751 50.3719 20.3719C50.4771 20.2664 50.5361 20.1236 50.5361 19.9746C50.5361 19.8257 50.4771 19.6828 50.3719 19.5773L49.9711 19.1766ZM52.0312 14.4375H51.4688C51.3196 14.4375 51.1765 14.4968 51.071 14.6023C50.9655 14.7077 50.9062 14.8508 50.9062 15C50.9062 15.1492 50.9655 15.2923 51.071 15.3977C51.1765 15.5032 51.3196 15.5625 51.4688 15.5625H52.0312C52.1804 15.5625 52.3235 15.5032 52.429 15.3977C52.5345 15.2923 52.5938 15.1492 52.5938 15C52.5938 14.8508 52.5345 14.7077 52.429 14.6023C52.3235 14.4968 52.1804 14.4375 52.0312 14.4375ZM49.5773 10.9852C49.6504 10.9858 49.7229 10.9718 49.7905 10.9441C49.8582 10.9163 49.9196 10.8753 49.9711 10.8234L50.3719 10.4227C50.4283 10.3715 50.4738 10.3094 50.5056 10.2401C50.5373 10.1708 50.5546 10.0958 50.5565 10.0197C50.5584 9.94349 50.5448 9.86772 50.5165 9.79697C50.4882 9.72622 50.4458 9.66195 50.3919 9.60807C50.338 9.55419 50.2738 9.51182 50.203 9.48352C50.1323 9.45523 50.0565 9.44161 49.9803 9.44349C49.9042 9.44536 49.8292 9.4627 49.7599 9.49444C49.6906 9.52617 49.6285 9.57166 49.5773 9.62812L49.1766 10.0289C49.0714 10.1344 49.0123 10.2772 49.0123 10.4262C49.0123 10.5751 49.0714 10.718 49.1766 10.8234C49.2289 10.8761 49.2915 10.9176 49.3604 10.9454C49.4292 10.9732 49.5031 10.9868 49.5773 10.9852Z" fill="white"/>
</svg>
