<svg width="620" height="440" viewBox="0 0 620 440" fill="none" xmlns="http://www.w3.org/2000/svg">
<g clip-path="url(#clip0_1407_8938)">
<path d="M240.546 111.644L238.428 112.822L235.459 114.748L233.909 116.103L233.822 116.189L232.572 117.537L231.389 118.995L230.283 120.552L229.263 122.191L228.341 123.901L227.522 125.665L226.814 127.468L226.224 129.294L225.756 131.409L225.744 131.503L225.384 135.319L225.212 140.03L225.122 142.492L225.054 147.206L224.985 151.92L224.945 154.698L224.917 159.412L224.89 164.126L224.863 168.841L224.84 172.77L224.832 177.485L224.824 182.199L224.816 186.913L224.809 191.628L224.805 194.179L224.812 198.893L224.82 203.608L224.828 208.322L224.835 213.036L224.84 215.553L224.867 220.267L224.895 224.981L224.923 229.696L224.945 233.52L225.014 238.234L225.084 242.948L225.122 245.549L225.301 250.26L225.384 252.46L225.744 255.916L225.775 256.143L226.253 257.817L226.33 258.042L226.694 258.804L226.939 259.315L227.67 260.444L227.835 260.686L228.687 261.669L229.648 262.488L230.08 262.832L231.147 263.482L232.057 264.03L233.658 264.895L236.058 266.133L238.918 267.576L241.788 268.998L242.696 269.438L244.219 270.175L245.872 270.938L247.033 271.411L248.014 271.808L248.549 271.948L249.777 272.235L251.073 272.338L251.368 272.324L252.94 272.128L253.182 272.052L256.162 271.007L260.472 269.095L261.924 268.45L266.177 266.418L270.431 264.385L271.827 263.717L276.059 261.639L280.29 259.561L284.521 257.482L286.55 256.486L290.771 254.386L292.203 253.674L292.882 253.336L293.993 252.783L295.117 252.224L295.177 252.194L295.529 252.019L295.839 251.864L296.481 251.545L296.513 251.529L298.382 250.599L298.853 250.365L299.075 250.254L303.296 248.155L303.76 247.924L304.024 247.792L308.237 245.675L312.449 243.559L314.361 242.598L314.69 242.432L318.903 240.316L321.499 239.012L325.701 236.874L329.903 234.736L334.104 232.598L336.222 231.521L340.4 229.338L344.58 227.157L346.125 226.35L350.245 224.059L352.027 223.068L354.996 221.142L356.546 219.788L356.633 219.7L357.883 218.353L359.066 216.894L360.172 215.338L361.191 213.699L362.114 211.989L362.933 210.225L363.641 208.422L364.231 206.596L364.698 204.481L364.711 204.387L365.071 200.571L365.243 195.86L365.333 193.397L365.401 188.684L365.47 183.97L365.51 181.192L365.538 176.478L365.565 171.763L365.592 167.049L365.615 163.12L365.623 158.406L365.63 153.691L365.638 148.977L365.646 144.263L365.65 141.711L365.642 136.996L365.635 132.282L365.627 127.568L365.625 126.088L365.624 125.757L365.616 121.043L365.615 120.337L365.588 115.623L365.58 114.358L365.578 113.887L365.55 109.173L365.522 104.459L365.51 102.37L365.44 97.656L365.371 92.9422L365.333 90.3413L365.154 85.6307L365.071 83.4301L364.711 79.9741L364.68 79.7468L364.202 78.0728L364.125 77.8474L363.516 76.575L362.785 75.4464L362.62 75.2036L361.768 74.2212L360.807 73.4023L360.374 73.0582L359.308 72.4085L358.398 71.8593L356.796 70.9952L354.396 69.7572L351.537 68.3146L348.666 66.8919L346.236 65.7147L344.583 64.9524L343.422 64.4791L342.441 64.0821L341.906 63.9421L340.678 63.6545L339.382 63.5518L339.087 63.5659L337.515 63.7615L337.273 63.8379L334.292 64.8826L329.983 66.7952L328.531 67.4397L324.278 69.4725L320.024 71.5048L318.627 72.1723L314.396 74.2509L310.165 76.3294L305.933 78.4075L303.905 79.4036L299.684 81.5038L295.464 83.6036L291.243 85.7038L287.022 87.8036L286.431 88.0977L282.218 90.2145L278.006 92.3312L273.793 94.4479L269.581 96.5646L268.956 96.8786L264.754 99.0165L260.552 101.154L256.35 103.292L254.233 104.37L250.055 106.551L245.875 108.733L244.33 109.54L240.546 111.644L238.569 112.744Z" fill="#0C0B0F"/>
<mask id="mask0_1407_8938" style="mask-type:alpha" maskUnits="userSpaceOnUse" x="224" y="63" width="142" height="210">
<path d="M240.546 111.644L238.428 112.822L235.459 114.748L233.909 116.103L233.822 116.189L232.572 117.537L231.389 118.995L230.283 120.552L229.263 122.191L228.341 123.901L227.522 125.665L226.814 127.468L226.224 129.294L225.756 131.409L225.744 131.503L225.384 135.319L225.212 140.03L225.122 142.492L225.054 147.206L224.985 151.92L224.945 154.698L224.917 159.412L224.89 164.126L224.863 168.841L224.84 172.77L224.832 177.485L224.824 182.199L224.816 186.913L224.809 191.628L224.805 194.179L224.812 198.893L224.82 203.608L224.828 208.322L224.835 213.036L224.84 215.553L224.867 220.267L224.895 224.981L224.923 229.696L224.945 233.52L225.014 238.234L225.084 242.948L225.122 245.549L225.301 250.26L225.384 252.46L225.744 255.916L225.775 256.143L226.253 257.817L226.33 258.042L226.694 258.804L226.939 259.315L227.67 260.444L227.835 260.686L228.687 261.669L229.648 262.488L230.08 262.832L231.147 263.482L232.057 264.03L233.658 264.895L236.058 266.133L238.918 267.576L241.788 268.998L242.696 269.438L244.219 270.175L245.872 270.938L247.033 271.411L248.014 271.808L248.549 271.948L249.777 272.235L251.073 272.338L251.368 272.324L252.94 272.128L253.182 272.052L256.162 271.007L260.472 269.095L261.924 268.45L266.177 266.418L270.431 264.385L271.827 263.717L276.059 261.639L280.29 259.561L284.521 257.482L286.55 256.486L290.771 254.386L292.203 253.674L292.882 253.336L293.993 252.783L295.117 252.224L295.177 252.194L295.529 252.019L295.839 251.864L296.481 251.545L296.513 251.529L298.382 250.599L298.853 250.365L299.075 250.254L303.296 248.155L303.76 247.924L304.024 247.792L308.237 245.675L312.449 243.559L314.361 242.598L314.69 242.432L318.903 240.316L321.499 239.012L325.701 236.874L329.903 234.736L334.104 232.598L336.222 231.521L340.4 229.338L344.58 227.157L346.125 226.35L350.245 224.059L352.027 223.068L354.996 221.142L356.546 219.788L356.633 219.7L357.883 218.353L359.066 216.894L360.172 215.338L361.191 213.699L362.114 211.989L362.933 210.225L363.641 208.422L364.231 206.596L364.698 204.481L364.711 204.387L365.071 200.571L365.243 195.86L365.333 193.397L365.401 188.684L365.47 183.97L365.51 181.192L365.538 176.478L365.565 171.763L365.592 167.049L365.615 163.12L365.623 158.406L365.63 153.691L365.638 148.977L365.646 144.263L365.65 141.711L365.642 136.996L365.635 132.282L365.627 127.568L365.625 126.088L365.624 125.757L365.616 121.043L365.615 120.337L365.588 115.623L365.58 114.358L365.578 113.887L365.55 109.173L365.522 104.459L365.51 102.37L365.44 97.656L365.371 92.9422L365.333 90.3413L365.154 85.6307L365.071 83.4301L364.711 79.9741L364.68 79.7468L364.202 78.0728L364.125 77.8474L363.516 76.575L362.785 75.4464L362.62 75.2036L361.768 74.2212L360.807 73.4023L360.374 73.0582L359.308 72.4085L358.398 71.8593L356.796 70.9952L354.396 69.7572L351.537 68.3146L348.666 66.8919L346.236 65.7147L344.583 64.9524L343.422 64.4791L342.441 64.0821L341.906 63.9421L340.678 63.6545L339.382 63.5518L339.087 63.5659L337.515 63.7615L337.273 63.8379L334.292 64.8826L329.983 66.7952L328.531 67.4397L324.278 69.4725L320.024 71.5048L318.627 72.1723L314.396 74.2509L310.165 76.3294L305.933 78.4075L303.905 79.4036L299.684 81.5038L295.464 83.6036L291.243 85.7038L287.022 87.8036L286.431 88.0977L282.218 90.2145L278.006 92.3312L273.793 94.4479L269.581 96.5646L268.956 96.8786L264.754 99.0165L260.552 101.154L256.35 103.292L254.233 104.37L250.055 106.551L245.875 108.733L244.33 109.54L240.546 111.644L238.569 112.744Z" fill="#0C0B0F"/>
</mask>
<g mask="url(#mask0_1407_8938)">
<g opacity="0.8">
<g opacity="0.8" filter="url(#filter0_f_1407_8938)">
<path opacity="0.8" d="M354.192 261.228C388.221 261.228 415.807 233.642 415.807 199.614C415.807 165.585 388.221 138 354.192 138C320.164 138 292.578 165.585 292.578 199.614C292.578 233.642 320.164 261.228 354.192 261.228Z" fill="#F55725"/>
</g>
<g opacity="0.8" filter="url(#filter1_f_1407_8938)">
<path opacity="0.8" d="M248.614 358.228C282.643 358.228 310.229 330.642 310.229 296.614C310.229 262.585 282.643 235 248.614 235C214.586 235 187 262.585 187 296.614C187 330.642 214.586 358.228 248.614 358.228Z" fill="#1F00CC"/>
</g>
</g>
</g>
<path d="M240.546 111.644L238.428 112.822L235.459 114.748L233.909 116.103L233.822 116.189L232.572 117.537L231.389 118.995L230.283 120.552L229.263 122.191L228.341 123.901L227.522 125.665L226.814 127.468L226.224 129.294L225.756 131.409L225.744 131.503L225.384 135.319L225.212 140.03L225.122 142.492L225.054 147.206L224.985 151.92L224.945 154.698L224.917 159.412L224.89 164.126L224.863 168.841L224.84 172.77L224.832 177.485L224.824 182.199L224.816 186.913L224.809 191.628L224.805 194.179L224.812 198.893L224.82 203.608L224.828 208.322L224.835 213.036L224.84 215.553L224.867 220.267L224.895 224.981L224.923 229.696L224.945 233.52L225.014 238.234L225.084 242.948L225.122 245.549L225.301 250.26L225.384 252.46L225.744 255.916L225.775 256.143L226.253 257.817L226.33 258.042L226.694 258.804L226.939 259.315L227.67 260.444L227.835 260.686L228.687 261.669L229.648 262.488L230.08 262.832L231.147 263.482L232.057 264.03L233.658 264.895L236.058 266.133L238.918 267.576L241.788 268.998L242.696 269.438L244.219 270.175L245.872 270.938L247.033 271.411L248.014 271.808L248.549 271.948L249.777 272.235L251.073 272.338L251.368 272.324L252.94 272.128L253.182 272.052L256.162 271.007L260.472 269.095L261.924 268.45L266.177 266.418L270.431 264.385L271.827 263.717L276.059 261.639L280.29 259.561L284.521 257.482L286.55 256.486L290.771 254.386L292.203 253.674L292.882 253.336L293.993 252.783L295.117 252.224L295.177 252.194L295.529 252.019L295.839 251.864L296.481 251.545L296.513 251.529L298.382 250.599L298.853 250.365L299.075 250.254L303.296 248.155L303.76 247.924L304.024 247.792L308.237 245.675L312.449 243.559L314.361 242.598L314.69 242.432L318.903 240.316L321.499 239.012L325.701 236.874L329.903 234.736L334.104 232.598L336.222 231.521L340.4 229.338L344.58 227.157L346.125 226.35L350.245 224.059L352.027 223.068L354.996 221.142L356.546 219.788L356.633 219.7L357.883 218.353L359.066 216.894L360.172 215.338L361.191 213.699L362.114 211.989L362.933 210.225L363.641 208.422L364.231 206.596L364.698 204.481L364.711 204.387L365.071 200.571L365.243 195.86L365.333 193.397L365.401 188.684L365.47 183.97L365.51 181.192L365.538 176.478L365.565 171.763L365.592 167.049L365.615 163.12L365.623 158.406L365.63 153.691L365.638 148.977L365.646 144.263L365.65 141.711L365.642 136.996L365.635 132.282L365.627 127.568L365.625 126.088L365.624 125.757L365.616 121.043L365.615 120.337L365.588 115.623L365.58 114.358L365.578 113.887L365.55 109.173L365.522 104.459L365.51 102.37L365.44 97.656L365.371 92.9422L365.333 90.3413L365.154 85.6307L365.071 83.4301L364.711 79.9741L364.68 79.7468L364.202 78.0728L364.125 77.8474L363.516 76.575L362.785 75.4464L362.62 75.2036L361.768 74.2212L360.807 73.4023L360.374 73.0582L359.308 72.4085L358.398 71.8593L356.796 70.9952L354.396 69.7572L351.537 68.3146L348.666 66.8919L346.236 65.7147L344.583 64.9524L343.422 64.4791L342.441 64.0821L341.906 63.9421L340.678 63.6545L339.382 63.5518L339.087 63.5659L337.515 63.7615L337.273 63.8379L334.292 64.8826L329.983 66.7952L328.531 67.4397L324.278 69.4725L320.024 71.5048L318.627 72.1723L314.396 74.2509L310.165 76.3294L305.933 78.4075L303.905 79.4036L299.684 81.5038L295.464 83.6036L291.243 85.7038L287.022 87.8036L286.431 88.0977L282.218 90.2145L278.006 92.3312L273.793 94.4479L269.581 96.5646L268.956 96.8786L264.754 99.0165L260.552 101.154L256.35 103.292L254.233 104.37L250.055 106.551L245.875 108.733L244.33 109.54L240.546 111.644ZM240.546 111.644L238.569 112.744" stroke="#A7A9B2" stroke-width="1.2" stroke-linejoin="round"/>
</g>
<defs>
<filter id="filter0_f_1407_8938" x="92.5781" y="-62.0005" width="523.227" height="523.229" filterUnits="userSpaceOnUse" color-interpolation-filters="sRGB">
<feFlood flood-opacity="0" result="BackgroundImageFix"/>
<feBlend mode="normal" in="SourceGraphic" in2="BackgroundImageFix" result="shape"/>
<feGaussianBlur stdDeviation="100" result="effect1_foregroundBlur_1407_8938"/>
</filter>
<filter id="filter1_f_1407_8938" x="-13" y="34.9995" width="523.227" height="523.229" filterUnits="userSpaceOnUse" color-interpolation-filters="sRGB">
<feFlood flood-opacity="0" result="BackgroundImageFix"/>
<feBlend mode="normal" in="SourceGraphic" in2="BackgroundImageFix" result="shape"/>
<feGaussianBlur stdDeviation="100" result="effect1_foregroundBlur_1407_8938"/>
</filter>
<clipPath id="clip0_1407_8938">
<rect width="620" height="440" fill="white"/>
</clipPath>
</defs>
</svg>
