<svg width="620" height="440" viewBox="0 0 620 440" fill="none" xmlns="http://www.w3.org/2000/svg">
<path d="M432.865 199.713C434.374 190.778 432.606 181.207 427.702 173.546C424.708 168.902 420.253 164.918 414.807 163.456C413.487 163.103 412.002 162.914 410.635 162.914C409.126 162.938 407.052 163.268 405.543 163.409C395.123 164.941 389.324 175.762 388.263 185.404C386.825 197.497 391.446 212.066 402.549 218.266" fill="#0C0B0F"/>
<path d="M480.934 306.691C452.339 292.382 423.697 278.073 395.102 263.763Z" fill="#0C0B0F"/>
<path d="M432.867 199.713C454.862 210.698 476.903 221.731 498.898 232.716Z" fill="#0C0B0F"/>
<path d="M402.57 218.289C399.435 232.151 396.253 246.13 393.117 260.015L393.565 261.736L394.249 263.033L395.097 263.787C423.693 278.097 452.335 292.406 480.93 306.715L481.967 306.904L483.075 306.503L484.16 305.537C487.625 290.237 491.114 274.843 494.579 259.544C495.782 254.287 497.031 248.7 498.233 243.443C498.775 240.685 499.836 237.361 500.049 234.555L499.695 233.448L498.893 232.74C476.899 221.755 454.857 210.722 432.863 199.737" fill="#0C0B0F"/>
<mask id="mask0_1412_9498" style="mask-type:alpha" maskUnits="userSpaceOnUse" x="388" y="162" width="113" height="145">
<path d="M480.933 306.691C452.338 292.382 423.696 278.073 395.101 263.763Z" fill="white"/>
<path d="M432.864 199.713C454.859 210.698 476.898 221.755 498.893 232.74Z" fill="white"/>
<path d="M432.864 199.713C434.373 190.778 432.605 181.207 427.701 173.546C424.708 168.902 420.252 164.918 414.807 163.456C413.486 163.103 412.001 162.914 410.634 162.914C409.125 162.938 407.051 163.268 405.542 163.409C395.122 164.941 389.323 175.762 388.262 185.404C386.824 197.497 391.466 212.09 402.57 218.289C399.434 232.151 396.252 246.13 393.116 260.015L393.564 261.736L394.248 263.033L395.101 263.763C423.696 278.073 452.338 292.382 480.933 306.691L481.966 306.904L483.074 306.503L484.159 305.537C487.624 290.237 491.113 274.843 494.579 259.544C495.781 254.287 497.03 248.7 498.232 243.443C498.775 240.685 499.836 237.361 500.048 234.555L499.694 233.448L498.893 232.74C476.898 221.755 454.859 210.698 432.864 199.713Z" fill="white"/>
</mask>
<g mask="url(#mask0_1412_9498)">
<g opacity="0.8" filter="url(#filter0_f_1412_9498)">
<path opacity="0.8" d="M354.192 261.228C388.221 261.228 415.807 233.642 415.807 199.614C415.807 165.585 388.221 138 354.192 138C320.164 138 292.578 165.585 292.578 199.614C292.578 233.642 320.164 261.228 354.192 261.228Z" fill="#F55725"/>
</g>
<g opacity="0.8" filter="url(#filter1_f_1412_9498)">
</g>
</g>
<path d="M412.122 220.34C422.896 219.256 429.001 208.152 430.062 198.299C431.146 189.058 428.883 179.251 423.178 171.801C419.595 167.181 414.244 163.503 408.256 163.268C401.325 162.938 395.22 167.605 392.014 173.499C386.309 183.895 386.875 197.191 392.367 207.563C395.786 213.975 401.844 219.704 409.364 220.364C410.873 220.552 412.947 220.246 414.456 220.081C416.248 219.916 418.11 219.562 419.784 218.831C427.351 215.602 431.571 207.516 432.867 199.713C434.541 189.694 432.184 178.779 425.724 170.835C422.613 167.063 418.299 164.022 413.419 163.173C411.132 162.702 408.515 163.079 406.229 163.362" stroke="#A7A9B2" stroke-width="0.6" stroke-linejoin="round"/>
<path d="M412.075 177.224C411.91 177.106 411.651 177.012 411.462 176.964H411.25C410.236 177.035 409.906 178.143 409.765 178.992C409.623 179.581 409.482 180.218 409.34 180.83C405.663 180.053 402.693 182.999 401.632 186.276C400.948 188.704 400.052 191.109 399.298 193.513C398.331 193.631 397.813 194.645 397.766 195.541L397.789 195.871L397.883 196.177L398.025 196.46L398.214 196.672C403.612 199.454 409.27 202.283 414.739 204.923H414.975L415.21 204.829L415.399 204.664L415.54 204.428C415.918 203.461 415.753 202.283 415.14 201.434C415.422 199.407 415.705 197.285 415.965 195.258C416.153 194.103 416.413 192.665 416.342 191.486C416.271 188.115 414.951 184.555 412.358 182.339C412.547 181.42 412.806 180.5 412.971 179.581C413.089 178.709 412.806 177.742 412.075 177.224Z" stroke="#A7A9B2" stroke-width="0.6" stroke-linejoin="round"/>
<path d="M403.374 201.976L403.28 201.929C402.855 203.862 403.68 206.55 405.849 206.95L406.203 206.974C407.452 206.903 408.301 205.701 408.536 204.569C406.839 203.721 405.095 202.849 403.374 201.976Z" stroke="#A7A9B2" stroke-width="0.6" stroke-linejoin="round"/>
<path d="M456.134 252.99C464.385 270.859 472.683 288.822 480.934 306.692C452.339 292.382 423.697 278.073 395.102 263.763C408.35 256.715 421.717 249.595 434.965 242.547" stroke="#A7A9B2" stroke-width="0.6" stroke-linejoin="round"/>
<path d="M432.867 199.713C454.861 210.698 476.903 221.731 498.898 232.716C487.582 238.068 476.125 243.49 464.81 248.865C461.344 250.515 457.478 252.353 454.013 253.98C451.797 254.97 449.204 256.479 446.846 257.092L445.055 257.045L443.263 256.432L441.613 255.3L440.198 253.721C437.865 249.525 436.049 244.692 434.022 240.354C430.533 232.528 426.95 224.513 423.461 216.686" stroke="#A7A9B2" stroke-width="0.6" stroke-linejoin="round"/>
<path d="M402.578 218.289C399.443 232.15 396.26 246.13 393.125 260.015L393.573 261.736L394.257 263.032L395.105 263.787C423.7 278.096 452.343 292.405 480.938 306.715L481.975 306.903L483.083 306.503L484.167 305.536C487.633 290.237 491.122 274.843 494.587 259.543C495.789 254.286 497.039 248.699 498.241 243.442C498.783 240.684 499.844 237.36 500.056 234.555L499.703 233.447L498.901 232.74C476.907 221.754 454.865 210.722 432.871 199.736" stroke="#A7A9B2" stroke-width="0.6" stroke-linejoin="round"/>
<path d="M118.383 245.07C118.407 247.45 118.407 250.35 118.431 252.755C118.478 253.674 118.289 255.041 119.35 255.442C122.415 256.998 125.691 258.648 128.779 260.133C129.675 259.85 130.217 258.931 130.665 258.177C133.848 252.613 137.054 246.814 140.213 241.227C143.277 235.758 143.018 235.994 148.629 233.165C154.664 230.1 160.934 226.965 166.993 223.877C169.114 222.698 171.802 221.637 173.641 220.01C176.116 217.7 177.837 214.518 178.52 211.217C178.874 208.907 178.756 206.078 178.827 203.744C178.85 199.383 178.874 194.668 178.85 190.307C178.85 186.771 178.851 182.811 178.803 179.251C178.709 176.941 179.016 174.136 177.507 172.202C176.729 171.118 175.362 170.599 174.23 170.01C171.519 168.714 168.667 167.111 165.908 165.908C164.989 165.625 163.928 165.649 163.032 165.932C161.924 166.356 160.086 167.252 159.001 167.771C155.394 169.539 151.434 171.495 147.827 173.287C139.647 177.365 131.302 181.538 123.145 185.64C120.646 186.913 117.723 188.398 115.248 189.694C114.069 190.307 112.678 191.085 111.759 192.075C109.543 194.338 107.987 197.332 107.351 200.444C106.926 203.556 107.115 207.139 107.044 210.274C107.044 218.62 106.95 227.153 107.162 235.522C107.209 237.479 107.94 239.647 109.708 240.661C111.264 241.51 113.244 242.429 114.824 243.254C115.79 243.726 117.37 244.622 118.383 245.07ZM118.383 245.07C119.138 245.447 119.963 245.895 120.835 245.965C122.155 246.107 123.499 245.612 124.701 245.07C125.456 244.739 126.233 244.268 127.082 244.197" stroke="#A7A9B2" stroke-width="0.6" stroke-linejoin="round"/>
<path d="M127.719 244.669C127.954 245.447 127.86 246.673 127.907 247.498C127.955 250.209 127.954 253.438 127.954 256.149C127.954 256.904 127.955 258.106 128.025 258.837C128.096 259.332 128.237 259.945 128.756 260.133" stroke="#A7A9B2" stroke-width="0.6" stroke-linejoin="round"/>
<path d="M127.102 244.197C127.314 244.315 127.502 244.457 127.691 244.622" stroke="#A7A9B2" stroke-width="0.6" stroke-linejoin="round"/>
<path d="M176.874 171.566C175.201 170.081 173.103 170.34 171.24 171.307C168.129 172.768 164.663 174.489 161.575 175.998C151.627 180.925 141.584 185.946 131.683 190.944C129.562 192.028 126.874 193.396 124.776 194.504C123.833 195.022 122.537 195.682 121.759 196.46C119.283 198.77 117.562 201.953 116.879 205.253C116.454 208.365 116.643 211.948 116.572 215.084C116.549 220.694 116.549 226.564 116.572 232.151C116.596 233.943 116.596 236.489 116.62 238.28C116.714 239.459 116.596 241.392 117.02 242.524C117.492 244.103 118.718 245.565 120.391 245.871" stroke="#A7A9B2" stroke-width="0.6" stroke-linejoin="round"/>
<path d="M162.962 193.891L164.047 193.231L165.131 192.83L166.169 192.688L167.135 192.83L167.984 193.254L168.667 193.938L169.186 194.857C169.233 195.046 169.445 195.777 169.492 195.965C170.011 200.138 167.724 204.711 164.07 206.786L162.986 207.186L161.949 207.328L160.982 207.186L160.134 206.762L159.45 206.078L158.931 205.159L158.625 204.051C158.13 200.256 160.039 196.225 162.962 193.891Z" stroke="#A7A9B2" stroke-width="0.6" stroke-linejoin="round"/>
<path d="M146.954 201.882L148.038 201.222L149.123 200.821L150.16 200.68L151.126 200.821L151.975 201.245L152.659 201.929L153.177 202.848L153.484 203.956C154.002 208.129 151.716 212.702 148.062 214.777L146.977 215.178L145.94 215.319L144.974 215.178C144.761 215.083 144.337 214.848 144.125 214.753L143.441 214.07L142.923 213.15L142.616 212.042C142.097 208.247 144.007 204.239 146.954 201.882Z" stroke="#A7A9B2" stroke-width="0.6" stroke-linejoin="round"/>
<path d="M130.946 209.898L132.03 209.238L133.115 208.837L134.152 208.695C134.293 208.719 134.977 208.813 135.118 208.837L135.967 209.261L136.651 209.945L137.169 210.864L137.476 211.972C137.994 216.145 135.708 220.718 132.054 222.793L130.969 223.193L129.932 223.335L128.966 223.193L128.117 222.769L127.433 222.085L126.915 221.166L126.608 220.058C126.09 216.263 127.999 212.231 130.946 209.898Z" stroke="#A7A9B2" stroke-width="0.6" stroke-linejoin="round"/>
<path d="M142.055 238.045C148.75 241.203 147.477 242.099 154.384 238.657C159.735 236.041 165.275 233.259 170.603 230.642C171.31 230.289 173.125 229.393 173.832 229.086C174.54 228.733 175.412 228.356 176.213 228.568" stroke="#A7A9B2" stroke-width="0.6" stroke-linejoin="round"/>
<path d="M173.828 229.086C175.03 230.005 176.516 231.255 177.765 232.08C179.203 232.834 181.042 233.73 182.503 234.461C183.965 235.192 185.804 236.111 187.265 236.818C187.69 237.054 188.232 236.983 188.609 236.677C189.104 236.04 189.269 235.215 189.293 234.414C189.363 231.302 189.316 227.86 189.363 224.725C189.387 223.947 189.363 222.815 189.528 222.061" stroke="#A7A9B2" stroke-width="0.6" stroke-linejoin="round"/>
<path d="M189.552 222.037C189.788 221.59 190.095 221.118 190.495 220.788C191.297 220.199 192.263 219.798 193.088 219.256C196.082 217.393 198.11 214.164 198.982 210.769C199.477 208.577 199.288 205.842 199.383 203.603C199.406 197.874 199.43 191.886 199.383 186.182C199.312 183.518 199.501 180.382 199.1 177.742C198.84 176.658 198.251 175.573 197.355 174.913C196.271 174.23 194.809 173.617 193.701 173.004C191.886 172.108 189.694 170.976 187.879 170.104C187.336 169.821 186.676 169.538 186.063 169.491C185.097 169.326 184.012 169.774 183.164 170.175C181.608 170.929 179.345 171.99 177.812 172.744" stroke="#A7A9B2" stroke-width="0.6" stroke-linejoin="round"/>
<path d="M189.547 222.085C189.547 222.061 189.57 222.038 189.57 222.038" stroke="#A7A9B2" stroke-width="0.6" stroke-linejoin="round"/>
<path d="M147.851 240.779C145.376 240.26 144.48 237.573 144.551 235.333" stroke="#A7A9B2" stroke-width="0.6" stroke-linejoin="round"/>
<path d="M178.773 181.773C182.498 179.911 186.576 177.907 190.301 176.069C192.682 175.031 195.228 173.075 197.68 175.173" stroke="#A7A9B2" stroke-width="0.6" stroke-linejoin="round"/>
<path d="M187.621 236.937C187.409 236.913 187.126 236.724 186.961 236.607C186.041 235.947 184.65 234.839 183.755 234.155C181.421 232.41 178.922 230.171 176.447 228.639C176.4 228.615 176.258 228.568 176.211 228.568" stroke="#A7A9B2" stroke-width="0.6" stroke-linejoin="round"/>
<path d="M176.188 228.544L176.423 228.615" stroke="#A7A9B2" stroke-width="0.6" stroke-linejoin="round"/>
<path d="M480.934 306.691C452.339 292.382 423.697 278.073 395.102 263.763" stroke="#A7A9B2" stroke-width="1.2" stroke-linejoin="round"/>
<path d="M432.867 199.713C454.862 210.698 476.903 221.731 498.898 232.716" stroke="#A7A9B2" stroke-width="1.2" stroke-linejoin="round"/>
<path d="M432.862 199.737C434.371 190.802 432.605 181.207 427.702 173.546C424.708 168.902 420.252 164.918 414.807 163.456C413.486 163.103 412.001 162.914 410.634 162.914C409.125 162.938 407.051 163.268 405.542 163.409C395.122 164.941 389.323 175.762 388.262 185.404C386.824 197.497 391.467 212.09 402.57 218.289" stroke="#A7A9B2" stroke-width="1.2" stroke-linejoin="round"/>
<path d="M402.57 218.289C399.435 232.151 396.252 246.13 393.116 260.015L393.564 261.736L394.248 263.033L395.097 263.787C423.692 278.097 452.334 292.406 480.929 306.715L481.967 306.904L483.075 306.503L484.159 305.537C487.624 290.237 491.113 274.843 494.579 259.544C495.781 254.287 497.03 248.7 498.233 243.443C498.775 240.685 499.836 237.361 500.048 234.555L499.694 233.448L498.893 232.74C476.898 221.755 454.857 210.722 432.862 199.737" stroke="#A7A9B2" stroke-width="1.2" stroke-linejoin="round"/>
<path d="M177.816 172.744C177.321 171.825 176.449 171.094 175.482 170.67C174.162 169.986 172.347 169.114 171.027 168.43C169.801 167.864 168.151 166.969 166.948 166.403C166.218 166.026 165.369 165.719 164.544 165.719C163.672 165.672 162.493 166.143 161.692 166.521C160.324 167.157 158.203 168.171 156.859 168.831C151.484 171.471 145.873 174.253 140.522 176.94C133.756 180.335 126.802 183.8 120.036 187.242C118.41 188.067 116.17 189.222 114.591 190.071C113.436 190.684 112.139 191.58 111.29 192.593C109.31 194.786 107.919 197.567 107.33 200.467C106.835 204.522 107.094 208.954 107 213.032C107 218.501 107 224.253 107.024 229.746C107.047 231.443 107.047 233.848 107.118 235.569C107.189 236.37 107.283 237.502 107.636 238.256C108.367 240.071 109.546 240.708 111.243 241.509C113.506 242.641 116.1 243.961 118.386 245.093" stroke="#A7A9B2" stroke-width="1.2" stroke-linejoin="round"/>
<path d="M118.391 245.069C118.414 247.45 118.414 250.35 118.438 252.755C118.485 253.674 118.296 255.041 119.357 255.442C122.422 256.998 125.699 258.648 128.787 260.133C129.447 259.921 129.918 259.332 130.295 258.789C130.932 257.776 131.922 255.984 132.535 254.923C135.67 249.36 138.853 243.561 142.059 238.044" stroke="#A7A9B2" stroke-width="1.2" stroke-linejoin="round"/>
<path d="M142.055 238.045C143.634 238.823 145.52 239.789 147.1 240.543C148.255 241.062 149.645 240.897 150.777 240.355C158.486 236.795 166.171 232.717 173.832 229.063" stroke="#A7A9B2" stroke-width="1.2" stroke-linejoin="round"/>
<path d="M173.836 229.087C175.038 230.006 176.523 231.255 177.773 232.08C179.211 232.835 181.05 233.731 182.511 234.461C183.973 235.192 185.811 236.112 187.273 236.819C187.697 237.055 188.24 236.984 188.617 236.677C189.112 236.041 189.277 235.216 189.3 234.414C189.371 231.303 189.324 227.861 189.371 224.725C189.395 223.947 189.371 222.816 189.536 222.062" stroke="#A7A9B2" stroke-width="1.2" stroke-linejoin="round"/>
<path d="M189.56 222.037C189.796 221.59 190.102 221.118 190.503 220.788C191.305 220.199 192.271 219.798 193.096 219.256C196.09 217.393 198.117 214.164 198.99 210.769C199.485 208.577 199.296 205.842 199.39 203.603C199.414 197.874 199.438 191.886 199.39 186.182C199.32 183.518 199.508 180.382 199.108 177.742C198.848 176.658 198.259 175.573 197.363 174.913C196.279 174.23 194.817 173.617 193.709 173.004C191.894 172.108 189.702 170.976 187.886 170.104C187.344 169.821 186.684 169.538 186.071 169.491C185.105 169.326 184.02 169.774 183.172 170.175C181.616 170.929 179.353 171.99 177.82 172.744" stroke="#A7A9B2" stroke-width="1.2" stroke-linejoin="round"/>
<path d="M189.555 222.061C189.555 222.061 189.555 222.038 189.578 222.014" stroke="#A7A9B2" stroke-width="1.2" stroke-linejoin="round"/>
<defs>
<filter id="filter0_f_1412_9498" x="92.5781" y="-62.0005" width="523.227" height="523.229" filterUnits="userSpaceOnUse" color-interpolation-filters="sRGB">
<feFlood flood-opacity="0" result="BackgroundImageFix"/>
<feBlend mode="normal" in="SourceGraphic" in2="BackgroundImageFix" result="shape"/>
<feGaussianBlur stdDeviation="100" result="effect1_foregroundBlur_1412_9498"/>
</filter>
<filter id="filter1_f_1412_9498" x="-13" y="34.9995" width="523.227" height="523.229" filterUnits="userSpaceOnUse" color-interpolation-filters="sRGB">
<feFlood flood-opacity="0" result="BackgroundImageFix"/>
<feBlend mode="normal" in="SourceGraphic" in2="BackgroundImageFix" result="shape"/>
<feGaussianBlur stdDeviation="100" result="effect1_foregroundBlur_1412_9498"/>
</filter>
</defs>
</svg>
