<svg width="395" height="313" viewBox="0 0 395 313" fill="none" xmlns="http://www.w3.org/2000/svg">
<path d="M305.44 157.543L308.14 157.164L310.74 156.32L313.208 155.033L315.512 153.319L316.67 152.156L317.621 151.201L319.504 148.697L321.129 145.827L322.464 142.612L323.478 139.071L324.11 135.412L324.122 135.344L324.376 131.588L324.259 127.848L323.787 124.167L322.977 120.589L321.846 117.158L320.411 113.919L318.689 110.915L316.697 108.19L314.451 105.788L311.97 103.754L309.268 102.131L306.456 100.997L303.65 100.387L300.88 100.282L298.18 100.661L295.581 101.504L293.114 102.792L290.809 104.506L288.7 106.624L286.818 109.127L285.193 111.997L283.858 115.212L282.843 118.753L282.2 122.48L281.945 126.235L282.063 129.976L282.535 133.657L283.345 137.235L284.475 140.666L285.91 143.905L287.632 146.909L289.624 149.635L291.869 152.036L294.351 154.07L296.545 155.388L297.052 155.693L299.864 156.827L302.671 157.437L305.44 157.543ZM305.44 157.543L308.493 157.195L311.193 156.816L313.792 155.973L316.26 154.685L317.416 153.825L318.564 152.971L320.673 150.853L322.556 148.349L324.181 145.479L325.516 142.264L326.53 138.723L326.864 136.789L327.174 134.997L327.428 131.241L327.311 127.501L326.839 123.82L326.029 120.241L324.898 116.811L323.463 113.571L321.741 110.567L319.749 107.842L317.503 105.441L315.022 103.406L312.321 101.783L309.508 100.65L306.702 100.04L303.932 99.9341L300.88 100.282" stroke="#A7A9B2" stroke-width="0.6" stroke-linejoin="round"/>
<path d="M306.073 114.282L305.872 114.161L305.662 114.076L305.453 114.031L305.247 114.023L305.046 114.051L304.852 114.114L304.668 114.21L304.496 114.337L304.339 114.495L304.199 114.682L304.078 114.896L303.979 115.135L303.898 115.423L303.861 115.582L303.815 115.786L303.757 116.041L303.691 116.331L303.62 116.638L303.551 116.945L303.484 117.234L303.426 117.49L303.38 117.694L303.349 117.828L303.338 117.877L302.456 117.76L301.587 117.779L300.74 117.931L299.921 118.209L299.14 118.61L298.402 119.13L297.716 119.761L297.09 120.501L296.53 121.345L296.045 122.287L295.642 123.323L295.328 124.448L295.288 124.568L295.178 124.9L295.013 125.402L294.805 126.03L294.569 126.744L294.319 127.5L294.069 128.255L293.834 128.969L293.626 129.598L293.46 130.099L293.35 130.431L293.311 130.551L293.143 130.581L292.98 130.632L292.822 130.704L292.672 130.794L292.529 130.903L292.394 131.03L292.269 131.175L292.155 131.337L292.053 131.515L291.964 131.709L291.888 131.919L291.812 132.254L291.773 132.571L291.797 132.897L291.883 133.209L292.024 133.486L292.211 133.71L292.432 133.865L296.648 135.973L300.511 137.904L304.727 140.012L308.492 141.895L308.73 141.97L308.97 141.96L309.196 141.866L309.392 141.695L309.545 141.457L309.644 141.17L309.72 140.835L309.746 140.601L309.755 140.366L309.747 140.133L309.722 139.902L309.683 139.675L309.627 139.453L309.558 139.238L309.475 139.031L309.379 138.833L309.271 138.647L309.149 138.472L309.167 138.341L309.216 137.978L309.289 137.43L309.381 136.744L309.477 136.037L309.486 135.965L309.597 135.139L309.708 134.314L309.813 133.535L309.905 132.849L309.978 132.301L310.027 131.938L310.045 131.807L310.256 130.631L310.36 129.444L310.359 128.534V128.259L310.26 127.086L310.064 125.935L309.777 124.817L309.404 123.742L308.946 122.722L308.409 121.766L307.798 120.885L307.115 120.09L306.365 119.391L306.376 119.342L306.407 119.207L306.453 119.004L306.512 118.748L306.578 118.459L306.648 118.152L306.718 117.845L306.784 117.555L306.842 117.299L306.888 117.096L306.925 116.937L306.978 116.635L306.997 116.355L306.988 116.077L306.953 115.802L306.893 115.536L306.809 115.28L306.702 115.039L306.574 114.815L306.425 114.612L306.258 114.433L306.073 114.282Z" stroke="#A7A9B2" stroke-width="0.6" stroke-linejoin="round"/>
<path d="M297.361 139.049L297.258 138.998L297.174 139.482L297.141 139.971L297.156 140.457L297.218 140.935L297.323 141.4L297.47 141.846L297.656 142.267L297.88 142.658L298.139 143.012L298.431 143.324L298.753 143.588L299.105 143.8L299.163 143.823L299.47 143.947L299.835 144.026L300.195 144.04L300.546 143.991L300.884 143.881L301.204 143.714L301.504 143.491L301.778 143.216L302.023 142.89L302.234 142.517L302.408 142.099L302.539 141.639L302.435 141.587L302.148 141.443L301.714 141.226L301.17 140.954L300.552 140.645L299.951 140.344L299.899 140.318L299.244 139.991L298.627 139.682L298.083 139.41L297.649 139.193L297.361 139.049Z" stroke="#A7A9B2" stroke-width="0.6" stroke-linejoin="round"/>
<path d="M360.042 153.379L361.075 148.779L362.107 144.179L363.14 139.579L364.173 134.98L365.207 130.38L366.24 125.78L367.272 121.18L368.305 116.581L368.413 116.101L368.735 113.467L368.551 110.77L367.873 108.194L366.747 105.915L365.25 104.088L363.484 102.837L359.267 100.729L355.051 98.6205L350.834 96.5118L346.617 94.4036L342.401 92.2953L338.184 90.1871L333.968 88.0789L329.751 85.9706L326.414 84.3022L322.198 82.194L317.981 80.0853L313.764 77.977L309.548 75.8688L305.331 73.7606L301.115 71.6523L296.898 69.5441L292.681 67.4359L288.465 65.3271L284.248 63.2189L280.031 61.1107L275.815 59.0024L271.598 56.8942L267.382 54.786L263.165 52.6777L259.586 50.8877" stroke="#A7A9B2" stroke-width="0.6" stroke-linejoin="round"/>
<path d="M259.586 50.8877L263.802 52.9959L268.019 55.1046L272.235 57.2129L276.452 59.3211L280.669 61.4294L284.885 63.5376L289.102 65.6458L293.319 67.7541L297.535 69.8628L301.752 71.971L305.969 74.0793L310.185 76.1875L314.402 78.2957L318.618 80.404L322.835 82.5122L327.051 84.6205L331.268 86.7292L335.484 88.8374L339.701 90.9456L343.918 93.0539L348.554 95.3719L344.337 93.2637L340.12 91.1554L335.904 89.0467L331.687 86.9385L327.471 84.8302L326.414 84.3022L322.198 82.194L317.981 80.0853L313.764 77.977L309.548 75.8688L305.331 73.7606L301.115 71.6523L296.898 69.5441L292.681 67.4359L288.465 65.3271L284.248 63.2189L280.031 61.1107L275.815 59.0024L271.598 56.8942L267.382 54.786L263.165 52.6777L259.586 50.8877Z" stroke="#A7A9B2" stroke-width="0.6" stroke-linejoin="round"/>
<path d="M259.594 51.3589L263.811 53.4671L268.027 55.5758L272.244 57.6841L276.46 59.7923L280.677 61.9006L284.894 64.0088L289.11 66.117L293.327 68.2253L297.543 70.3335L301.76 72.4422L305.976 74.5504L310.193 76.6587L314.41 78.7669L318.626 80.8752L322.843 82.9834L327.06 85.0916L331.276 87.2003L335.493 89.3086L339.71 91.4168L343.926 93.5251L348.143 95.6333L352.359 97.7415L356.576 99.8498L360.792 101.958L362.833 102.979L364.599 104.229L366.096 106.057L367.222 108.336L367.9 110.912L368.085 113.609L367.762 116.243L366.729 120.843L365.696 125.443L364.663 130.043L363.63 134.642L362.598 139.242L361.564 143.842L360.531 148.442L359.486 153.098" stroke="#A7A9B2" stroke-width="0.6" stroke-linejoin="round"/>
<path d="M259.625 63.0874L263.841 65.1956L268.058 67.3044L272.274 69.4126L276.491 71.5208L280.708 73.6291L284.924 75.7373L289.141 77.8456L293.358 79.9538L297.574 82.0625L301.791 84.1707L306.008 86.279L310.224 88.3872L314.441 90.4954L318.657 92.6037L322.874 94.7119L327.091 96.8202L331.307 98.9289L335.523 101.037L339.74 103.145L343.957 105.254L348.173 107.362L352.39 109.47L356.607 111.578L359.758 113.154L358.725 117.754L357.692 122.354L356.659 126.954L355.626 131.553L354.593 136.153L353.56 140.753L352.527 145.353L351.665 149.194" stroke="#A7A9B2" stroke-width="0.6" stroke-linejoin="round"/>
<path d="M334.919 223.753L333.886 228.353L332.852 232.953L331.82 237.553L331.124 240.65L331.057 240.947L326.841 238.839L322.624 236.73L318.407 234.622L314.191 232.514L309.974 230.406L305.757 228.297L301.541 226.189L297.325 224.08L293.108 221.972L288.891 219.864L284.675 217.756L280.458 215.648L276.241 213.539L272.025 211.431L267.808 209.322L263.592 207.214L259.375 205.106L255.158 202.998L250.942 200.889L246.725 198.781L242.508 196.673L238.292 194.564L234.075 192.456L229.859 190.348L225.642 188.239L221.426 186.131L217.209 184.023L212.992 181.915L208.359 179.598" stroke="#A7A9B2" stroke-width="0.6" stroke-linejoin="round"/>
<path d="M328.672 255.717L330.444 256.262L332.376 256.149L333.033 256.007L334.852 255.2L336.433 253.754L337.67 251.768L338.476 249.376L339.509 244.776L340.542 240.176L341.575 235.577L342.608 230.977L343.29 227.938" stroke="#A7A9B2" stroke-width="0.6" stroke-linejoin="round"/>
<path d="M120.703 195.804L116.486 197.912L112.27 200.021L108.053 202.129L103.836 204.237L99.6199 206.345L95.4034 208.453L91.1865 210.562L86.97 212.67L82.7535 214.779L78.5366 216.887L74.3201 218.995L70.1036 221.103L65.8872 223.212L65.0301 223.64L63.4583 224.668L62.4782 225.869L62.1562 227.16V231.874V232.341L62.515 233.634L63.5291 234.842L65.131 235.881L69.3474 237.99L73.5639 240.098L77.7809 242.206L81.9973 244.315L86.2138 246.423L90.4303 248.531L94.6472 250.639L98.8637 252.748L103.08 254.856L107.297 256.964L111.514 259.073L115.73 261.181L119.947 263.289L124.164 265.398L128.38 267.506L132.596 269.614L136.813 271.722L141.03 273.831L145.246 275.939L149.463 278.047L153.68 280.156L157.896 282.264L162.113 284.372L166.329 286.48L170.546 288.589L174.763 290.697L178.979 292.806L183.196 294.914L187.413 297.022L191.629 299.13L195.845 301.239L200.062 303.347L204.279 305.455L208.495 307.564L212.712 309.672L215.472 311.052L217.551 311.852L217.889 311.939L220.271 312.444L222.818 312.627L225.357 312.476L227.715 312L229.73 311.232L233.946 309.123L238.163 307.015L242.38 304.907L246.596 302.799L250.813 300.69L255.03 298.582L256.475 297.859L260.691 295.751L264.908 293.643L269.124 291.535L273.341 289.426L277.558 287.318L281.774 285.21L285.991 283.101L290.208 280.993L294.424 278.885L298.64 276.776L302.857 274.668L307.074 272.56L311.29 270.452L315.507 268.343L319.724 266.235L323.905 264.144L325.805 262.995L327.377 261.967L328.357 260.767L328.679 259.475V255.716V255.274V254.294L328.32 253.001L327.306 251.793L325.705 250.754L321.488 248.646L317.271 246.538L314.09 244.946L311.866 243.834L310.775 243.289L307.743 244.805L305.377 245.988L301.16 243.88L296.943 241.772L292.727 239.664L288.51 237.555L284.293 235.447L280.077 233.339L275.86 231.231L271.644 229.122L267.427 227.014L263.211 224.905L258.994 222.797L254.777 220.689L250.561 218.581L246.344 216.472L242.128 214.364L237.911 212.256L233.694 210.147L229.478 208.039L225.261 205.931L221.044 203.823L216.828 201.714L212.611 199.606L208.395 197.497L204.178 195.389L199.962 193.281L195.745 191.173L190.49 188.545" stroke="#A7A9B2" stroke-width="0.6" stroke-linejoin="round"/>
<path d="M315.912 255.054L315.585 254.664L315.469 254.247L315.572 253.83L315.889 253.442L316.397 253.11L317.061 252.857L317.836 252.698L318.669 252.646L319.505 252.704L320.284 252.868L320.955 253.126L321.472 253.462L321.8 253.852L321.916 254.27L321.812 254.686L321.495 255.074L321.373 255.154L320.988 255.406L320.324 255.659L319.549 255.818L318.715 255.87L317.88 255.812L317.1 255.648L316.429 255.39L316.028 255.13L315.912 255.054Z" stroke="#A7A9B2" stroke-width="0.6" stroke-linejoin="round"/>
<path d="M303.006 250.257L302.674 250.663L302.141 251.012L297.925 253.12L293.708 255.228L289.492 257.337L285.275 259.445L281.058 261.554L276.842 263.662L272.625 265.77L268.409 267.878L264.192 269.986L259.975 272.095L255.759 274.203L254.713 274.726L254.016 274.993L253.203 275.159L252.329 275.213L251.453 275.152L250.634 274.98L249.931 274.709L245.714 272.601L241.497 270.492L237.281 268.384L233.064 266.276L228.847 264.168L224.631 262.059L220.414 259.951L216.198 257.843L211.981 255.734L207.764 253.626L203.548 251.518L199.331 249.409L195.114 247.301L190.898 245.193L186.682 243.085L182.465 240.976L178.248 238.868L174.032 236.76L169.815 234.651L165.598 232.543L161.382 230.435L157.165 228.327L152.948 226.218L148.732 224.11L144.515 222.001L140.299 219.893L136.082 217.785L131.865 215.677L127.456 213.472L126.913 213.12L126.57 212.71" stroke="#A7A9B2" stroke-width="0.6" stroke-linejoin="round"/>
<path d="M186.203 190.674L190.42 192.782L194.636 194.89L198.853 196.999L203.069 199.107L207.286 201.216L211.502 203.324L215.719 205.432L219.936 207.54L224.152 209.648L228.369 211.757L232.586 213.865L236.802 215.974L241.019 218.082L245.236 220.19L249.452 222.298L253.669 224.407L257.885 226.515L262.102 228.623L266.319 230.731L270.535 232.84L274.752 234.948L278.968 237.056L283.185 239.165L287.401 241.273L291.618 243.381L295.835 245.489L300.051 247.598L302.097 248.621L302.639 248.973L302.983 249.382L303.104 249.82L302.995 250.257" stroke="#A7A9B2" stroke-width="0.6" stroke-linejoin="round"/>
<path d="M126.567 212.71L126.445 212.272L126.554 211.835L126.886 211.429L127.419 211.081L131.636 208.972L135.852 206.864L136.704 206.438" stroke="#A7A9B2" stroke-width="0.6" stroke-linejoin="round"/>
<path d="M62.1562 227.16L62.515 228.453L63.5291 229.661L65.131 230.7L69.3474 232.808L73.5639 234.917L77.7809 237.025L81.9973 239.134L86.2138 241.242L90.4303 243.35L94.6472 245.458L98.8637 247.566L103.08 249.675L107.297 251.783L111.514 253.892L115.73 256L119.947 258.108L124.164 260.216L128.38 262.325L129.522 262.896" stroke="#A7A9B2" stroke-width="0.6" stroke-linejoin="round"/>
<path d="M151.07 273.674L151.581 273.93L155.797 276.038L160.014 278.146L164.23 280.255L168.447 282.363L172.664 284.471L176.88 286.579L181.097 288.688L185.314 290.796L189.53 292.904L193.747 295.013L197.964 297.121L202.18 299.229L206.396 301.338L210.613 303.446L215.461 305.87L217.54 306.671L219.955 307.178L222.542 307.357L225.124 307.196L227.524 306.706L229.581 305.92L233.797 303.812L238.014 301.703L242.23 299.595L246.447 297.487L250.664 295.379L254.88 293.27L259.097 291.162L263.314 289.053L267.53 286.945L271.747 284.837L275.964 282.729L280.18 280.621L284.397 278.512L288.613 276.404L292.83 274.296L297.046 272.187L301.263 270.079L305.479 267.971L309.696 265.862L313.913 263.754L318.129 261.646L322.346 259.538L325.794 257.813L327.367 256.785L328.347 255.585L328.347 255.582L328.669 254.294" stroke="#A7A9B2" stroke-width="0.6" stroke-linejoin="round"/>
<path d="M151.891 272.682L151.8 273.046L151.524 273.385L151.08 273.675L151.012 274.293L150.811 274.8L150.492 275.162" stroke="#A7A9B2" stroke-width="0.6" stroke-linejoin="round"/>
<path d="M150.487 275.161L150.071 275.354L149.587 275.364L149.068 275.19L144.851 273.081L140.635 270.973L136.418 268.865L132.201 266.757L131.522 266.417L131.003 266.072L130.519 265.578L130.103 264.969L129.784 264.289L129.584 263.581L129.516 262.895L130.095 262.673L130.773 262.535L131.502 262.489L132.232 262.54L132.914 262.683L133.501 262.909L137.718 265.018L141.934 267.126L146.151 269.234L150.367 271.342L151.046 271.682L151.498 271.975L151.785 272.316L151.886 272.681" stroke="#A7A9B2" stroke-width="0.6" stroke-linejoin="round"/>
<path d="M173.159 275.159L173.906 274.874L202.765 260.444L203.336 260.07L203.7 259.625L203.819 259.145L203.686 258.666L203.31 258.217L202.728 257.84L161.185 237.068L160.43 236.778L159.534 236.589L158.573 236.522L157.614 236.582L156.723 236.764L155.977 237.05L127.117 251.48L126.546 251.853L126.182 252.298L126.062 252.778L126.196 253.258L126.573 253.707L127.154 254.084L168.697 274.855L169.452 275.146L170.349 275.334L171.309 275.401L172.268 275.341L173.159 275.159Z" stroke="#A7A9B2" stroke-width="0.6" stroke-linejoin="round"/>
<path d="M229.588 311.102L227.531 311.888L225.13 312.378L222.548 312.539L219.962 312.359L217.547 311.852" stroke="#A7A9B2" stroke-width="0.6" stroke-linejoin="round"/>
<path d="M266.413 291.142L266.542 291.292L266.709 291.371L266.904 291.377L267.114 291.307L268.659 290.535L268.869 290.395L269.064 290.194L269.232 289.946L269.361 289.668L269.442 289.379L269.469 289.098L269.442 288.845L269.361 288.637L269.233 288.488L269.065 288.407L268.87 288.402L268.66 288.472L267.115 289.244L266.905 289.384L266.71 289.585L266.542 289.833L266.413 290.111L266.332 290.4L266.305 290.681L266.332 290.934L266.413 291.142Z" stroke="#A7A9B2" stroke-width="0.6" stroke-linejoin="round"/>
<path d="M322.365 261.918L322.494 262.067L322.575 262.276L322.603 262.529L322.575 262.809L322.494 263.099L322.365 263.376L322.198 263.624L322.002 263.825L321.793 263.965L317.576 266.074L313.359 268.182L309.143 270.29L304.926 272.398L300.709 274.507L296.493 276.615L292.276 278.723L288.059 280.832L283.843 282.94L279.627 285.048L275.41 287.156L272.31 288.706L272.1 288.776L271.905 288.771L271.737 288.691L271.608 288.541L271.581 288.472L271.527 288.334L271.5 288.08L271.527 287.799L271.608 287.51L271.737 287.232L271.905 286.984L272.1 286.783L272.31 286.643L276.526 284.535L280.743 282.427L284.96 280.319L289.176 278.211L293.393 276.102L297.61 273.994L301.826 271.885L306.043 269.777L310.259 267.669L314.476 265.561L318.693 263.452L321.793 261.902L321.948 261.85L322.002 261.833L322.198 261.838L322.365 261.918Z" stroke="#A7A9B2" stroke-width="0.6" stroke-linejoin="round"/>
<path d="M350.097 190.041L350.825 191.618L351.245 192.527L353.222 196.807L355.199 201.087L357.176 205.367L359.153 209.647L361.129 213.927L363.106 218.207L365.083 222.486L367.06 226.766L369.036 231.046L371.013 235.326L372.99 239.606L374.9 243.741L370.683 241.633L366.466 239.524L362.25 237.416L358.034 235.308L353.817 233.2L349.6 231.091L345.384 228.983L343.293 227.938L342.732 227.657L338.515 225.549L335.39 223.986L334.924 223.754L330.708 221.645L326.491 219.537L322.275 217.428L318.058 215.32L313.841 213.212L309.625 211.104L305.408 208.995L301.191 206.887L296.975 204.778L292.758 202.67L289.07 200.826L293.232 198.612L297.394 196.397L301.556 194.183L305.718 191.969L309.88 189.754L314.042 187.54L318.203 185.326L322.366 183.112L326.527 180.897L328.93 179.619" stroke="#A7A9B2" stroke-width="0.6" stroke-linejoin="round"/>
<path d="M326.855 136.789L331.072 138.897L335.288 141.006L339.505 143.114L343.722 145.222L347.938 147.33L351.666 149.194L352.131 149.427L356.348 151.535L359.473 153.098L360.034 153.379L364.251 155.487L368.467 157.595L372.684 159.703L376.901 161.812L381.117 163.92L385.334 166.029L389.551 168.137L392.852 169.788L388.592 171.806L384.331 173.824L380.071 175.842L375.81 177.86L371.55 179.878L367.289 181.896L363.029 183.915L358.768 185.933L354.508 187.951L352.004 189.137L351.305 189.468L350.094 190.041L345.834 192.06L342.498 193.64L342.18 193.739L341.623 193.914L340.81 194.168L339.01 194.129L337.219 193.525L335.561 192.397L334.147 190.823L333.075 188.908L331.153 184.603L329.23 180.299L328.927 179.619L327.004 175.315L325.082 171.01L323.159 166.706L321.237 162.401L319.314 158.097L317.406 153.825" stroke="#A7A9B2" stroke-width="0.6" stroke-linejoin="round"/>
<path d="M296.535 155.388L295.493 159.986L294.451 164.584L293.409 169.182L292.368 173.779L291.326 178.377L290.284 182.975L289.242 187.573L288.201 192.17L287.094 197.056L287.533 198.783L288.206 200.069L289.067 200.827L293.283 202.935L297.5 205.043L301.716 207.151L305.933 209.26L310.15 211.368L314.366 213.476L318.583 215.585L322.799 217.693L327.016 219.801L331.232 221.91L334.921 223.754L335.387 223.987L339.603 226.095L342.728 227.657L343.29 227.938L347.506 230.047L351.723 232.155L355.94 234.263L360.156 236.371L364.373 238.479L368.589 240.588L372.806 242.696L374.896 243.742L375.934 243.933L377.032 243.532L378.114 242.566L379.156 237.968L380.197 233.371L381.239 228.773L382.281 224.175L383.323 219.577L384.364 214.98L385.406 210.382L386.448 205.784L387.49 201.186L388.531 196.589L389.573 191.991L390.615 187.393L391.657 182.795L392.698 178.197L393.865 173.046L393.988 171.604L393.642 170.493L392.852 169.788L388.635 167.68L384.418 165.571L380.202 163.463L375.985 161.354L371.769 159.246L367.552 157.138L363.335 155.03L360.034 153.379L359.473 153.098L355.256 150.99L352.131 149.427L351.665 149.194L347.448 147.086L343.232 144.978L339.015 142.87L334.799 140.761L330.582 138.653L326.854 136.789" stroke="#A7A9B2" stroke-width="0.6" stroke-linejoin="round"/>
<path d="M12.3532 182.199V186.913V190.31L12.4526 191.473L12.7431 192.201L13.2055 192.446L17.4225 194.554L21.639 196.663L22.8062 197.246L23.4087 196.99L24.1107 196.25L24.864 195.077L27.1622 190.961L29.4605 186.845L31.7587 182.728L34.0564 178.612L35.9553 175.212L35.9954 175.154L36.8346 173.955L37.9707 172.789L38.4473 172.455L39.0602 172.025L43.2767 169.917L47.4931 167.809L51.7101 165.7L55.9266 163.592L60.143 161.484L61.1156 160.997L65.2133 158.949L67.1975 157.637L69.047 155.774L70.6347 153.488L71.8529 150.934L72.619 148.287L72.8802 145.726V141.012V136.297V131.583V126.869V122.154V118.771V114.057V113.745L72.619 111.446L71.8934 109.663L71.8529 109.564L70.6347 108.229L66.4178 106.121L62.2013 104.012L61.0341 103.428L59.4463 102.73L57.5973 102.716L55.6131 103.389L51.3961 105.497L47.1797 107.606L42.9632 109.714L38.7467 111.822L34.5298 113.93L30.3133 116.038L26.0968 118.147L21.8803 120.255L17.6634 122.364L13.4469 124.472L9.23044 126.58L8.60389 126.893L6.61964 128.205L4.77069 130.068L3.18292 132.354L1.96427 134.908L1.19865 137.556L0.9375 140.116V144.831V149.545V154.259V158.974V163.688V168.402V172.097L1.19865 174.396L1.96427 176.278L3.18292 177.613L7.39939 179.722L11.6159 181.83L12.3532 182.199ZM12.3532 182.199L12.7831 182.414L14.3709 183.112L16.2203 183.125L18.2046 182.453L20.1841 181.463L20.2652 181.423L21.1095 181.278" stroke="#A7A9B2" stroke-width="0.6" stroke-linejoin="round"/>
<path d="M70.6361 108.228L69.0483 107.53L67.1989 107.517L65.2147 108.189L60.9982 110.297L56.7817 112.405L52.5652 114.514L48.3483 116.622L44.1318 118.73L39.9153 120.838L35.6989 122.947L31.4819 125.055L27.2654 127.163L23.049 129.272L18.832 131.38L18.2059 131.693L16.2217 133.005L14.3723 134.868L12.7845 137.154L11.5663 139.708L10.8002 142.355L10.5391 144.916V149.63V154.345V159.059V163.773V168.488V173.202V176.897L10.8002 179.196L11.5663 181.078L12.3545 181.942L12.7845 182.413" stroke="#A7A9B2" stroke-width="0.6" stroke-linejoin="round"/>
<path d="M21.1094 181.277L21.7274 181.725L21.9537 182.646V187.36V192.075V195.11L22.0527 196.273L22.3436 197.001L22.8061 197.246" stroke="#A7A9B2" stroke-width="0.6" stroke-linejoin="round"/>
<path d="M56.9858 130.949L58.0654 130.279L59.1449 129.87L60.1835 129.736L61.14 129.884L61.9787 130.308L62.667 130.991L63.1785 131.907L63.2855 132.286L63.4934 133.021L63.5995 134.29L63.4934 135.666L63.2855 136.609L63.1785 137.095L62.667 138.522L61.9787 139.893L61.14 141.156L60.1835 142.26L59.1449 143.166L58.0654 143.835L56.9858 144.245L55.9477 144.379L54.9907 144.23L54.152 143.807L53.4638 143.124L52.9522 142.208L52.6373 141.094L52.5312 139.824L52.6373 138.449L52.9522 137.02L53.4638 135.592L54.152 134.221L54.9907 132.959L55.9477 131.854L56.9858 130.949Z" stroke="#A7A9B2" stroke-width="0.6" stroke-linejoin="round"/>
<path d="M40.9702 138.954L42.0502 138.284L43.1298 137.875L44.1679 137.741L45.1249 137.889L45.9636 138.313L46.6519 138.996L47.1629 139.912L47.4778 141.026L47.5843 142.295L47.4778 143.671L47.1629 145.1L46.6519 146.527L45.9636 147.899L45.1249 149.161L44.1679 150.266L43.1298 151.17L42.0502 151.84L40.9702 152.25L39.9321 152.383L38.9756 152.235L38.449 151.969L38.1369 151.812L37.4486 151.129L36.9371 150.213L36.6222 149.098L36.5156 147.829L36.6222 146.454L36.9371 145.025L37.4486 143.597L38.1369 142.226L38.9756 140.964L38.9874 140.95L39.9321 139.859L40.9702 138.954Z" stroke="#A7A9B2" stroke-width="0.6" stroke-linejoin="round"/>
<path d="M24.9623 146.96L26.0419 146.29L27.1215 145.88L28.1601 145.747L28.8517 145.854L29.1166 145.895L29.9553 146.318L30.6436 147.001L31.1551 147.918L31.47 149.031L31.5765 150.301L31.47 151.676L31.1551 153.105L30.6436 154.533L29.9553 155.904L29.1166 157.166L28.8517 157.472L28.1601 158.271L27.1215 159.176L26.0419 159.846L24.9623 160.255L23.9243 160.389L22.9673 160.241L22.1286 159.817L21.4403 159.134L20.9288 158.218L20.6139 157.104L20.5078 155.835L20.6139 154.46L20.9288 153.031L21.4403 151.603L22.1286 150.232L22.9673 148.969L23.9243 147.865L24.9623 146.96Z" stroke="#A7A9B2" stroke-width="0.6" stroke-linejoin="round"/>
<path d="M38.4531 172.454V172.501L38.6837 174.531L39.3597 176.192L40.4355 177.37L41.8366 177.987L43.4687 177.999L45.22 177.405L49.437 175.297L53.6535 173.189L57.8699 171.081L62.0864 168.972L66.3034 166.864L67.7629 166.134L68.3041 165.863L69.2654 165.576L70.2686 165.603L71.0445 165.935" stroke="#A7A9B2" stroke-width="0.6" stroke-linejoin="round"/>
<path d="M67.7578 166.134L71.2285 168.88L71.8937 169.25L76.1101 171.358L80.3266 173.467L81.4939 174.05L82.1133 174.084L82.6456 173.778L83.0538 173.154L83.3103 172.255L83.398 171.141V166.427V161.712V160.14L83.5974 159.127L84.1428 158.186L84.8882 157.569L86.7074 156.66L88.4588 155.501L90.0904 153.857L91.492 151.84L92.5673 149.585L93.2434 147.248L93.4739 144.988V140.274V135.56V130.845V126.131V121.417V116.761L93.2434 114.732L92.5673 113.071L91.492 111.892L90.0904 111.275L88.4588 111.264L86.7074 111.857L82.4905 113.965L78.274 116.074L74.0575 118.182L72.8809 118.77" stroke="#A7A9B2" stroke-width="0.6" stroke-linejoin="round"/>
<path d="M71.0469 165.936L74.7443 168.861L78.4418 171.786L80.8366 173.681L81.5013 174.051" stroke="#A7A9B2" stroke-width="0.6" stroke-linejoin="round"/>
<path d="M91.4963 111.892L87.2798 109.784L83.0634 107.675L81.8961 107.092L80.4945 106.476L78.8624 106.463L77.111 107.057L72.8946 109.165L71.8984 109.663" stroke="#A7A9B2" stroke-width="0.6" stroke-linejoin="round"/>
<path d="M134.546 48.6443L132.428 49.8219L129.459 51.7477L127.909 53.1026L127.822 53.1894L126.572 54.5367L125.389 55.9953L124.283 57.5515L123.263 59.1911L122.341 60.901L121.522 62.6651L120.814 64.4679L120.224 66.2937L119.756 68.409L119.744 68.5028L119.384 72.3191L119.212 77.0301L119.122 79.4924L119.054 84.2062L118.985 88.92L118.945 91.6982L118.917 96.412L118.89 101.126L118.863 105.841L118.84 109.77L118.832 114.485L118.824 119.199L118.816 123.913L118.809 128.628L118.805 131.179L118.812 135.893L118.82 140.608L118.828 145.322L118.835 150.036L118.84 152.553L118.867 157.267L118.895 161.981L118.923 166.696L118.945 170.52L119.014 175.234L119.084 179.948L119.122 182.549L119.301 187.26L119.384 189.46L119.744 192.916L119.775 193.143L120.253 194.817L120.33 195.042L120.694 195.804L120.939 196.315L121.67 197.444L121.835 197.686L122.687 198.669L123.648 199.488L124.08 199.832L125.147 200.482L126.057 201.03L127.658 201.895L130.058 203.133L132.918 204.576L135.788 205.998L136.696 206.438L138.219 207.175L139.872 207.938L141.033 208.411L142.014 208.808L142.549 208.948L143.777 209.235L145.073 209.338L145.368 209.324L146.94 209.128L147.182 209.052L150.162 208.007L154.472 206.095L155.924 205.45L160.177 203.418L164.431 201.385L165.827 200.717L170.059 198.639L174.29 196.561L178.521 194.482L180.55 193.486L184.771 191.386L186.203 190.674L186.882 190.336L187.993 189.783L189.117 189.224L189.177 189.194L189.529 189.019L189.839 188.864L190.481 188.545L190.513 188.529L192.382 187.599L192.853 187.365L193.075 187.254L197.296 185.155L197.76 184.924L198.024 184.792L202.237 182.675L206.449 180.559L208.361 179.598L208.69 179.432L212.903 177.316L215.499 176.012L219.701 173.874L223.903 171.736L228.104 169.598L230.222 168.521L234.4 166.338L238.58 164.157L240.125 163.35L244.245 161.059L246.027 160.068L248.996 158.142L250.546 156.788L250.633 156.7L251.883 155.353L253.066 153.894L254.172 152.338L255.191 150.699L256.114 148.989L256.933 147.225L257.641 145.422L258.231 143.596L258.698 141.481L258.711 141.387L259.071 137.571L259.243 132.86L259.333 130.397L259.401 125.684L259.47 120.97L259.51 118.192L259.538 113.478L259.565 108.763L259.592 104.049L259.615 100.12L259.623 95.4055L259.63 90.6912L259.638 85.9769L259.646 81.2626L259.65 78.7107L259.642 73.9964L259.635 69.2821L259.627 64.5678L259.625 63.0875L259.624 62.757L259.616 58.0427L259.615 57.337L259.588 52.6227L259.58 51.3583L259.578 50.8874L259.55 46.173L259.522 41.4592L259.51 39.3698L259.44 34.656L259.371 29.9422L259.333 27.3413L259.154 22.6307L259.071 20.4301L258.711 16.9741L258.68 16.7468L258.202 15.0728L258.125 14.8474L257.516 13.575L256.785 12.4464L256.62 12.2036L255.768 11.2212L254.807 10.4023L254.374 10.0582L253.308 9.40853L252.398 8.85931L250.796 7.99518L248.396 6.75721L245.537 5.31462L242.666 3.89185L240.236 2.71469L238.583 1.95238L237.422 1.47907L236.441 1.08212L235.906 0.942104L234.678 0.654538L233.382 0.551758L233.087 0.5659L231.515 0.761548L231.273 0.837914L228.292 1.88261L223.983 3.7952L222.531 4.43965L218.278 6.47247L214.024 8.50479L212.627 9.17234L208.396 11.2509L204.165 13.3294L199.933 15.4075L197.905 16.4036L193.684 18.5038L189.464 20.6036L185.243 22.7038L181.022 24.8036L180.431 25.0977L176.218 27.2145L172.006 29.3312L167.793 31.4479L163.581 33.5646L162.956 33.8786L158.754 36.0165L154.552 38.1545L150.35 40.2919L148.233 41.3696L144.055 43.5514L139.875 45.7332L138.33 46.5403L134.546 48.6443ZM134.546 48.6443L132.569 49.7441" stroke="#A7A9B2" stroke-width="0.6" stroke-linejoin="round"/>
<path d="M35.9922 175.153L40.2091 177.262L40.4265 177.37" stroke="#A7A9B2" stroke-width="0.6" stroke-linejoin="round"/>
<path d="M197.758 184.923L201.974 187.032L206.191 189.14L210.408 191.248L214.624 193.356L218.841 195.465L223.058 197.573L227.274 199.681L231.491 201.79L235.708 203.898L239.924 206.006L244.14 208.114L248.357 210.223L252.574 212.331L256.79 214.44L261.007 216.548L265.223 218.656L269.44 220.764L273.657 222.873L277.873 224.981L282.09 227.09L286.307 229.198L290.523 231.306L294.74 233.414L298.957 235.522L303.173 237.631L307.389 239.739L311.606 241.848L314.455 243.272" stroke="#A7A9B2" stroke-width="0.6" stroke-linejoin="round"/>
<path d="M311.859 243.834L314.459 243.272L314.084 244.947" stroke="#A7A9B2" stroke-width="0.6" stroke-linejoin="round"/>
</svg>
