<svg width="620" height="440" viewBox="0 0 620 440" fill="none" xmlns="http://www.w3.org/2000/svg">
<path d="M434.706 318.667L436.474 319.209C436.969 319.186 438.619 319.115 439.067 318.95L440.882 318.148L442.462 316.71L443.688 314.73C444.772 311.901 445.338 308.365 446.045 305.442C447.224 300.185 448.473 294.598 449.652 289.341C452.905 274.82 456.205 260.18 459.459 245.635C462.712 231.114 466.012 216.474 469.265 201.929C470.444 196.672 471.693 191.085 472.872 185.828C473.509 182.881 474.452 179.439 474.711 176.422C474.687 176.21 474.546 173.852 474.522 173.735C474.475 173.57 473.862 171.236 473.839 171.165L472.801 169.043L472.731 168.878L471.245 167.04C469.642 165.719 467.096 164.611 465.258 163.669C461.863 161.971 458.091 160.085 454.72 158.388C444.513 153.296 434.187 148.11 423.98 143.018C394.017 128.048 364.031 113.032 334.069 98.0623C374.215 118.147 414.409 138.232 454.555 158.317C424.711 143.395 394.795 128.449 364.951 113.503C354.46 108.246 343.828 102.942 333.314 97.6851C329.943 95.9878 326.148 94.1019 322.777 92.4045C321.197 91.6266 318.958 90.3772 317.213 90C316.718 90.0236 315.068 90.0943 314.62 90.2593L312.805 91.0608L311.226 92.4988L310 94.479C308.915 97.3079 308.35 100.844 307.642 103.767C306.464 109.024 305.214 114.611 304.036 119.868C300.782 134.39 297.482 149.029 294.229 163.574C290.976 178.096 287.675 192.735 284.422 207.28C283.243 212.537 281.994 218.124 280.815 223.381C280.179 226.328 279.236 229.793 278.977 232.787C279 232.999 279.142 235.357 279.165 235.475L279.754 237.761L279.778 237.879" stroke="#787796" stroke-width="0.6" stroke-linejoin="round"/>
<path d="M454.578 158.294C459.458 160.746 464.621 163.315 469.5 165.767" stroke="#787796" stroke-width="0.6" stroke-linejoin="round"/>
<path d="M437.083 303.886C387.295 278.992 337.46 254.074 287.672 229.18C297.243 186.582 306.814 143.96 316.385 101.386C366.173 126.28 416.008 151.197 465.796 176.092C456.225 218.666 446.654 261.311 437.083 303.886Z" stroke="#787796" stroke-width="0.6" stroke-linejoin="round"/>
<path d="M296.305 246.766C297.177 246.578 299.157 246.153 300.006 245.965C340.152 266.05 380.346 286.135 420.492 306.22" stroke="#787796" stroke-width="0.6" stroke-linejoin="round"/>
<path d="M290.906 248.7C331.052 268.785 371.246 288.87 411.392 308.955C412.972 308.153 415.211 307.045 416.791 306.244C420.256 307.965 424.052 309.874 427.493 311.595C429.238 312.491 431.713 313.599 433.316 314.754L434.33 315.956L434.683 317.253C434.683 318.761 434.683 320.907 434.683 322.439L434.353 323.735L433.363 324.938C429.073 327.861 423.957 329.959 419.384 332.364C412.43 335.852 405.263 339.436 398.309 342.901C377.469 353.321 356.559 363.788 335.72 374.207C331.995 375.881 327.422 375.905 323.532 374.82C319.808 373.429 315.941 371.166 312.358 369.469C303.989 365.273 295.432 361.006 287.063 356.81C261.769 344.174 236.45 331.491 211.155 318.856C202.079 314.306 192.838 309.685 183.739 305.159C181.099 303.839 177.94 302.26 175.299 300.94C173.602 300.067 171.033 298.936 169.477 297.781L168.463 296.578L168.109 295.282C168.109 293.891 168.109 291.51 168.109 290.096L168.439 288.799L169.43 287.597C171.48 286.135 174.333 284.956 176.549 283.801C181.382 281.397 186.473 278.827 191.306 276.423C203.918 270.105 216.648 263.763 229.26 257.446C241.872 251.128 254.602 244.786 267.214 238.469C271.269 236.677 276.479 236.559 280.581 238.233C285.79 240.614 291.118 243.49 296.281 245.989V246.767C294.701 248.134 294.607 248.323 294.23 250.373" stroke="#787796" stroke-width="0.6" stroke-linejoin="round"/>
<path d="M427.944 317.229L427.849 317.654L427.543 318.031L427.024 318.361C425.633 318.974 423.865 318.974 422.474 318.337L421.956 318.007L421.626 317.606L421.508 317.182L421.602 316.758L421.909 316.381L422.427 316.051C423.818 315.438 425.586 315.438 426.977 316.074L427.496 316.404L427.826 316.805L427.944 317.229Z" stroke="#787796" stroke-width="0.6" stroke-linejoin="round"/>
<path d="M409.037 313.198L408.707 313.599C400.951 317.7 392.818 321.543 384.991 325.551C376.717 329.605 368.395 333.99 360.05 337.927C357.575 338.587 355.948 337.691 353.85 336.583C351.964 335.64 349.418 334.367 347.532 333.424C339.164 329.228 330.606 324.961 322.238 320.765C292.511 305.819 262.596 291.109 232.94 276.045L232.586 275.645" stroke="#787796" stroke-width="0.6" stroke-linejoin="round"/>
<path d="M232.563 275.645L232.445 275.197L232.563 274.749L232.893 274.348C240.649 270.246 248.782 266.404 256.609 262.396C264.883 258.342 273.205 253.957 281.55 250.02C284.025 249.36 285.652 250.256 287.75 251.364C289.636 252.307 292.182 253.58 294.068 254.523C302.436 258.719 310.994 262.986 319.362 267.182C349.089 282.128 379.004 296.838 408.66 311.902L409.014 312.302L409.132 312.75L409.014 313.198" stroke="#787796" stroke-width="0.6" stroke-linejoin="round"/>
<path d="M290.906 248.7C292.486 247.898 294.725 246.79 296.305 245.989" stroke="#787796" stroke-width="0.6" stroke-linejoin="round"/>
<path d="M168.156 290.096L168.51 291.392L169.524 292.595C171.834 294.198 174.969 295.494 177.444 296.791C182.277 299.195 187.369 301.765 192.202 304.169C206.605 311.383 221.103 318.62 235.507 325.834" stroke="#787796" stroke-width="0.6" stroke-linejoin="round"/>
<path d="M257.078 336.631C271.27 343.726 285.555 350.869 299.77 357.965C304.603 360.37 309.695 362.939 314.528 365.344C317.333 366.687 320.61 368.573 323.557 369.634L325.867 370.129L325.985 370.153L328.342 370.318L328.578 370.341C328.719 370.365 331.1 370.153 331.171 370.176L333.481 369.705L333.575 369.681C335.532 369.021 338.007 367.701 339.846 366.782C345.386 364 351.185 361.124 356.725 358.342C373.557 349.926 390.483 341.463 407.338 333.047C412.878 330.289 418.677 327.39 424.217 324.608C427.14 323.052 430.7 321.614 433.458 319.752L434.448 318.549L434.778 317.253" stroke="#787796" stroke-width="0.6" stroke-linejoin="round"/>
<path d="M308.772 323.382C298.918 328.214 289.064 333.401 279.163 338.092C276.546 338.775 274.826 337.927 272.586 336.725C270.7 335.782 268.131 334.509 266.268 333.566C255.094 327.908 243.661 322.415 232.581 316.64L232.204 316.192L232.062 315.72L232.18 315.249L232.534 314.801C239.583 311.029 247.055 307.54 254.198 303.886C256.084 302.943 258.654 301.67 260.516 300.727C262.402 299.643 264.264 299.148 266.433 299.737C273.718 303.155 281.049 307.021 288.263 310.581C295.193 314.117 302.454 317.512 309.314 321.189L309.691 321.637L309.833 322.109L309.715 322.58L309.361 323.028L308.772 323.382Z" stroke="#787796" stroke-width="0.6" stroke-linejoin="round"/>
<path d="M257.899 335.64L257.805 335.994L257.522 336.324L257.074 336.607L257.003 337.22L256.791 337.738L256.461 338.092" stroke="#787796" stroke-width="0.6" stroke-linejoin="round"/>
<path d="M256.489 338.116L256.065 338.305H255.57C252.67 337.079 249.464 335.263 246.611 333.92C243.547 332.317 239.964 330.737 236.97 329.016L236.475 328.521C236.05 328.003 235.673 327.178 235.532 326.518L235.461 325.834C236.475 325.362 237.771 325.339 238.856 325.622C240.223 326.164 242.321 327.319 243.665 327.956C248.144 330.266 253.024 332.505 257.455 334.91L257.738 335.24L257.833 335.594" stroke="#787796" stroke-width="0.6" stroke-linejoin="round"/>
<path d="M372.917 352.33C373.177 352.142 374.568 351.458 374.874 351.34H375.063L375.228 351.411L375.346 351.553L375.416 351.765L375.44 352.024C375.44 352.401 375.275 352.825 375.039 353.108L374.851 353.321C374.591 353.509 373.2 354.193 372.894 354.311H372.705L372.54 354.24L372.422 354.098L372.352 353.886L372.328 353.627L372.352 353.344C372.399 353.085 372.564 352.755 372.729 352.519L372.917 352.33Z" stroke="#787796" stroke-width="0.6" stroke-linejoin="round"/>
<path d="M427.822 326.918C411.273 335.145 394.701 343.538 378.128 351.742H377.94L377.775 351.671L377.657 351.529L377.586 351.317L377.562 351.058L377.586 350.775C377.633 350.516 377.798 350.186 377.963 349.95L378.152 349.738C394.724 341.393 411.438 333.024 428.058 324.773H428.246L428.411 324.844L428.529 324.985L428.6 325.197L428.624 325.457C428.624 325.834 428.459 326.258 428.223 326.541L428.034 326.753L427.822 326.918Z" stroke="#787796" stroke-width="0.6" stroke-linejoin="round"/>
<path d="M417.875 306.786C418.04 306.762 420.421 306.244 420.468 306.22L420.091 307.894" stroke="#787796" stroke-width="0.6" stroke-linejoin="round"/>
<path d="M434.706 318.667L436.474 319.209C436.969 319.186 438.619 319.115 439.067 318.95L440.882 318.148L442.462 316.71L443.688 314.73C444.772 311.901 445.338 308.365 446.045 305.442C447.224 300.185 448.473 294.598 449.652 289.341C452.905 274.82 456.205 260.18 459.459 245.635C462.712 231.114 466.012 216.474 469.265 201.929C470.444 196.672 471.693 191.085 472.872 185.828C473.509 182.881 474.452 179.439 474.711 176.422C474.687 176.21 474.546 173.852 474.522 173.735C474.475 173.57 473.862 171.236 473.839 171.165L472.801 169.043L472.731 168.878L471.245 167.04C469.642 165.719 467.096 164.611 465.258 163.669C461.863 161.971 458.091 160.085 454.72 158.388C444.513 153.296 434.187 148.11 423.98 143.018C394.017 128.048 364.031 113.032 334.069 98.0623C374.215 118.147 414.409 138.232 454.555 158.317C424.711 143.395 394.795 128.449 364.951 113.503C354.46 108.246 343.828 102.942 333.314 97.6851C329.943 95.9878 326.148 94.1019 322.777 92.4045C321.197 91.6266 318.958 90.3772 317.213 90C316.718 90.0236 315.068 90.0943 314.62 90.2593L312.805 91.0608L311.226 92.4988L310 94.479C308.915 97.3079 308.35 100.844 307.642 103.767C306.464 109.024 305.214 114.611 304.036 119.868C300.782 134.39 297.482 149.029 294.229 163.574C290.976 178.096 287.675 192.735 284.422 207.28C283.243 212.537 281.994 218.124 280.815 223.381C280.179 226.328 279.236 229.793 278.977 232.787C279 232.999 279.142 235.357 279.165 235.475L279.754 237.761L279.778 237.879" stroke="#787796" stroke-width="1.2" stroke-linejoin="round"/>
<path d="M279.755 237.903C276.526 236.795 272.589 236.842 269.289 237.69C267.332 238.351 264.857 239.671 263.018 240.59C260.378 241.91 257.219 243.49 254.579 244.81C244.795 249.713 234.847 254.664 225.064 259.567C213.159 265.531 201.136 271.543 189.208 277.483C185.106 279.534 180.651 281.75 176.549 283.801C174.333 284.956 171.457 286.158 169.43 287.596L168.439 288.799L168.109 290.095C168.109 291.486 168.109 293.867 168.109 295.282L168.463 296.578L169.477 297.78C171.056 298.936 173.555 300.044 175.299 300.939C177.963 302.259 181.075 303.839 183.739 305.159C192.815 309.709 202.056 314.329 211.155 318.856C236.45 331.491 261.769 344.174 287.063 356.81C295.432 361.006 303.989 365.273 312.358 369.469C315.941 371.166 319.808 373.429 323.532 374.82C327.398 375.904 332.019 375.881 335.72 374.207C356.559 363.787 377.469 353.344 398.309 342.901C405.263 339.412 412.43 335.829 419.384 332.363C423.957 329.959 429.073 327.861 433.363 324.938L434.353 323.735L434.683 322.439C434.683 321.567 434.683 319.539 434.683 318.69" stroke="#787796" stroke-width="1.2" stroke-linejoin="round"/>
</svg>
