<svg width="395" height="315" viewBox="0 0 395 315" fill="none" xmlns="http://www.w3.org/2000/svg">
<path d="M360.042 154.379L361.075 149.779L362.107 145.179L363.14 140.579L364.173 135.98L365.207 131.38L366.24 126.78L367.272 122.18L368.305 117.581L368.413 117.101L368.735 114.467L368.551 111.77L367.873 109.194L366.747 106.915L365.25 105.088L363.484 103.837L359.267 101.729L355.051 99.6205L350.834 97.5118L346.617 95.4036L342.401 93.2953L338.184 91.1871L333.968 89.0789L329.751 86.9706L326.414 85.3022L322.198 83.194L317.981 81.0853L313.764 78.977L309.548 76.8688L305.331 74.7606L301.115 72.6523L296.898 70.5441L292.681 68.4359L288.465 66.3271L284.248 64.2189L280.031 62.1107L275.815 60.0024L271.598 57.8942L267.382 55.786L263.165 53.6777L259.586 51.8877" stroke="#A7A9B2" stroke-width="1.2" stroke-linejoin="round"/>
<path d="M259.586 51.8877L263.802 53.9959L268.019 56.1046L272.235 58.2129L276.452 60.3211L280.669 62.4294L284.885 64.5376L289.102 66.6458L293.319 68.7541L297.535 70.8628L301.752 72.971L305.969 75.0793L310.185 77.1875L314.402 79.2957L318.618 81.404L322.835 83.5122L327.051 85.6205L331.268 87.7292L335.484 89.8374L339.701 91.9456L343.918 94.0539L348.554 96.3719L344.337 94.2637L340.12 92.1554L335.904 90.0467L331.687 87.9385L327.471 85.8302L326.414 85.3022L322.198 83.194L317.981 81.0853L313.764 78.977L309.548 76.8688L305.331 74.7606L301.115 72.6523L296.898 70.5441L292.681 68.4359L288.465 66.3271L284.248 64.2189L280.031 62.1107L275.815 60.0024L271.598 57.8942L267.382 55.786L263.165 53.6777L259.586 51.8877Z" stroke="#A7A9B2" stroke-width="1.2" stroke-linejoin="round"/>
<path d="M328.672 256.717L330.444 257.262L332.376 257.149L333.033 257.007L334.852 256.2L336.433 254.754L337.67 252.768L338.476 250.376L339.509 245.776L340.542 241.176L341.575 236.577L342.608 231.977L343.29 228.938" stroke="#A7A9B2" stroke-width="1.2" stroke-linejoin="round"/>
<path d="M120.703 196.803L116.486 198.911L112.27 201.02L108.053 203.128L103.836 205.236L99.6199 207.344L95.4034 209.453L91.1865 211.561L86.97 213.67L82.7535 215.778L78.5366 217.886L74.3201 219.994L70.1036 222.103L65.8872 224.211L65.0301 224.639L63.4583 225.668L62.4782 226.868L62.1562 228.159V232.873V233.341L62.515 234.634L63.5291 235.841L65.131 236.88L69.3474 238.989L73.5639 241.097L77.7809 243.205L81.9973 245.314L86.2138 247.422L90.4303 249.53L94.6472 251.639L98.8637 253.747L103.08 255.855L107.297 257.963L111.514 260.072L115.73 262.18L119.947 264.289L124.164 266.397L128.38 268.505L132.596 270.613L136.813 272.721L141.03 274.83L145.246 276.938L149.463 279.047L153.68 281.155L157.896 283.263L162.113 285.371L166.329 287.48L170.546 289.588L174.763 291.697L178.979 293.805L183.196 295.913L187.413 298.021L191.629 300.13L195.845 302.238L200.062 304.346L204.279 306.455L208.495 308.563L212.712 310.671L215.472 312.051L217.551 312.852L217.889 312.938L220.271 313.444L222.818 313.627L225.357 313.475L227.715 312.999L229.73 312.231L233.946 310.122L238.163 308.014L242.38 305.906L246.596 303.798L250.813 301.689L255.03 299.581L256.475 298.859L260.691 296.75L264.908 294.642L269.124 292.534L273.341 290.426L277.558 288.317L281.774 286.209L285.991 284.1L290.208 281.992L294.424 279.884L298.64 277.776L302.857 275.667L307.074 273.559L311.29 271.451L315.507 269.342L319.724 267.234L323.905 265.143L325.805 263.994L327.377 262.966L328.357 261.766L328.679 260.475V256.715" stroke="#A7A9B2" stroke-width="1.2" stroke-linejoin="round"/>
<path d="M374.896 244.742L370.679 242.633L366.462 240.525L362.246 238.417L358.029 236.308L353.812 234.2L349.596 232.092L345.379 229.984L343.289 228.938" stroke="#A7A9B2" stroke-width="1.2" stroke-linejoin="round"/>
<path d="M360.039 154.378L364.256 156.487L368.472 158.595L372.689 160.703L376.905 162.812L381.122 164.92L385.338 167.028L389.555 169.137L392.857 170.788" stroke="#A7A9B2" stroke-width="1.2" stroke-linejoin="round"/>
<path d="M343.289 228.938L347.506 231.046L351.722 233.154L355.939 235.263L360.155 237.371L364.372 239.479L368.588 241.588L372.805 243.696L374.896 244.741L375.934 244.933L377.031 244.532L378.113 243.566L379.155 238.968L380.196 234.37L381.238 229.772L382.28 225.175L383.322 220.577L384.363 215.979L385.405 211.381L386.447 206.784L387.489 202.186L388.531 197.588L389.572 192.99L390.614 188.393L391.656 183.795L392.698 179.197L393.865 174.046L393.988 172.604L393.642 171.493L392.851 170.788L388.635 168.679L384.418 166.571L380.201 164.462L375.985 162.354L371.768 160.246L367.551 158.138L363.335 156.029L360.033 154.378" stroke="#A7A9B2" stroke-width="1.2" stroke-linejoin="round"/>
<path d="M71.8935 110.663L71.8529 110.564L70.6347 109.229L66.4178 107.121L62.2013 105.012L61.0341 104.428L59.4463 103.73L57.5973 103.716L55.6131 104.389L51.3961 106.497L47.1797 108.606L42.9632 110.714L38.7467 112.822L34.5298 114.93L30.3133 117.038L26.0968 119.147L21.8803 121.255L17.6634 123.364L13.4469 125.472L9.23044 127.58L8.60389 127.893L6.61964 129.205L4.77069 131.068L3.18292 133.354L1.96427 135.908L1.19865 138.556L0.9375 141.116V145.831V150.545V155.259V159.974V164.688V169.402V173.097L1.19865 175.396L1.96427 177.278L3.18292 178.613L7.39939 180.722L11.6159 182.83L12.3532 183.199" stroke="#A7A9B2" stroke-width="1.2" stroke-linejoin="round"/>
<path d="M12.3516 183.198V187.913V191.31L12.451 192.473L12.7414 193.201L13.2039 193.445L17.4209 195.554L21.6373 197.662L22.8046 198.246L23.4071 197.99L24.109 197.249L24.8624 196.077L27.1606 191.961L29.4589 187.845L31.7571 183.728L34.0548 179.612L35.9537 176.212L35.9938 176.154" stroke="#A7A9B2" stroke-width="1.2" stroke-linejoin="round"/>
<path d="M35.9922 176.153L40.2091 178.262L40.4265 178.37L41.8276 178.987L43.4596 178.999L45.211 178.405L49.428 176.297L53.6444 174.189L57.8609 172.081L62.0774 169.972L66.2943 167.864L67.7539 167.134" stroke="#A7A9B2" stroke-width="1.2" stroke-linejoin="round"/>
<path d="M67.7578 167.134L71.2285 169.88L71.8937 170.25L76.1101 172.359L80.3266 174.467L81.4939 175.05L82.1133 175.084L82.6456 174.778L83.0538 174.154L83.3103 173.255L83.398 172.141V167.427V162.713V161.14L83.5974 160.127L84.1428 159.186L84.8882 158.569L86.7074 157.66L88.4588 156.502L90.0904 154.858L91.492 152.84L92.5673 150.586L93.2434 148.249L93.4739 145.989V141.274V136.56V131.846V127.131V122.417V117.761L93.2434 115.732L92.5673 114.071L91.492 112.892L87.2755 110.784L83.0591 108.675L81.8918 108.092L80.4902 107.476L78.8581 107.463L77.1068 108.057L72.8903 110.165L71.8941 110.663" stroke="#A7A9B2" stroke-width="1.2" stroke-linejoin="round"/>
<path d="M259.586 51.8874L259.558 47.173L259.531 42.4592L259.519 40.3698L259.449 35.656L259.38 30.9422L259.341 28.3413L259.163 23.6307L259.079 21.4301L258.719 17.9741L258.689 17.7468L258.211 16.0728L258.133 15.8474L257.525 14.575L256.793 13.4464L256.628 13.2036L255.776 12.2212L254.816 11.4023L254.383 11.0582L253.317 10.4085L252.406 9.85931L250.805 8.99518L248.405 7.75721L245.545 6.31462L242.674 4.89185L240.244 3.71469L238.592 2.95238L237.431 2.47907L236.45 2.08212L235.915 1.9421L234.686 1.65454L233.391 1.55176L233.095 1.5659L231.523 1.76155L231.281 1.83791L228.301 2.88261L223.992 4.7952L222.54 5.43965L218.286 7.47247L214.033 9.50479L212.636 10.1723L208.405 12.2509L204.173 14.3294L199.942 16.4075L197.914 17.4036L193.693 19.5038L189.472 21.6036L185.251 23.7038L181.031 25.8036L180.439 26.0977L176.226 28.2145L172.014 30.3312L167.802 32.4479L163.589 34.5646L162.964 34.8786L158.763 37.0165L154.561 39.1545L150.359 41.2919L148.242 42.3696L144.063 44.5514L139.884 46.7332L138.338 47.5403L134.555 49.6443" stroke="#A7A9B2" stroke-width="1.2" stroke-linejoin="round"/>
<path d="M134.546 49.644L132.428 50.8217L129.459 52.7475L127.909 54.1024L127.822 54.1891L126.572 55.5365L125.389 56.9951L124.283 58.5513L123.263 60.1909L122.341 61.9008L121.522 63.6649L120.814 65.4676L120.224 67.2935L119.756 69.4088L119.744 69.5026L119.384 73.3188L119.212 78.0298L119.122 80.4921L119.054 85.2059L118.985 89.9198L118.945 92.6979L118.917 97.4118L118.89 102.126L118.863 106.84L118.84 110.77L118.832 115.485L118.824 120.199L118.816 124.913L118.809 129.627L118.805 132.179L118.812 136.893L118.82 141.607L118.828 146.322L118.835 151.036L118.84 153.553L118.867 158.267L118.895 162.981L118.923 167.695L118.945 171.52L119.014 176.234L119.084 180.947L119.122 183.548L119.301 188.259L119.384 190.46L119.744 193.916L119.775 194.143L120.253 195.817L120.33 196.042L120.694 196.803" stroke="#A7A9B2" stroke-width="1.2" stroke-linejoin="round"/>
</svg>
