<svg width="620" height="440" viewBox="0 0 620 440" fill="none" xmlns="http://www.w3.org/2000/svg">
<path d="M205.344 234.975L205.4 235.925L205.426 236.135L205.67 237.599L205.98 238.699L206.054 238.915L206.434 239.961L206.878 240.94L207.385 241.849L207.547 242.088L208.119 242.929L208.75 243.691L209.437 244.374L210.178 244.972L210.612 245.318L211.406 245.832L212.32 246.383L213.928 247.251L216.339 248.495L220.061 250.373L220.352 250.519L222.942 251.803L225.383 252.985L227.043 253.751L228.032 254.151L228.917 254.485L229.842 254.727L230.375 254.865L231.331 255.013L232.317 255.067L233.332 255.027L233.621 255.013L234.653 254.88L235.885 254.566L236.115 254.491L238.438 253.556L242.736 251.562L242.941 251.468L250.699 247.699L262.252 241.987L275.973 235.148L289.694 228.266L301.247 222.425L309.005 218.436L313.507 216.021L313.662 215.933L315.978 214.551L317.195 213.645L318.211 212.761L319.202 211.809L319.292 211.719L320.245 210.714L321.167 209.649L322.055 208.529L322.905 207.358L323.713 206.142L324.476 204.885L325.19 203.593L325.853 202.272L326.462 200.927L327.014 199.564L327.507 198.188L327.939 196.805L328.307 195.419L328.611 194.035L328.664 193.671L328.851 192.352L329.053 188.703L329.185 181.5L329.275 168.785L329.327 149.636L329.345 126.818L329.327 104.018L329.275 84.9216L329.185 72.2948L329.053 65.2249L328.87 61.8787L328.844 61.6683L328.599 60.2044L328.289 59.1048L328.215 58.8878L327.836 57.8427L327.392 56.8635L326.884 55.9543L326.723 55.7155L326.151 54.8751L325.52 54.1123L324.833 53.4301L324.092 52.8317L323.658 52.4859L322.863 51.9719L321.95 51.4209L320.342 50.5525L317.931 49.3084L314.208 47.4304L311.324 46.001L308.882 44.8185L307.222 44.0529L306.234 43.6531L305.349 43.3186L304.424 43.0765L303.891 42.9377L302.935 42.7903L301.948 42.7363L300.934 42.7761L300.645 42.7899L299.613 42.923L298.381 43.2376L298.151 43.3119L295.827 44.2476L291.325 46.3355L283.567 50.1048L272.014 55.8164L258.293 62.6552L244.572 69.5371L233.019 75.3786L225.26 79.3681L220.758 81.7824L220.603 81.8705L218.287 83.253L217.071 84.1579L216.055 85.0424L215.064 85.9946L214.974 86.0846L214.021 87.09L213.099 88.1545L212.211 89.2745L211.361 90.4451L210.553 91.6613L209.79 92.9182L209.075 94.2097L208.413 95.531L207.803 96.8765L207.251 98.2395L206.759 99.6153L206.327 100.999L205.958 102.384L205.654 103.768L205.397 105.572L205.214 109.101L205.081 116.304L204.992 129.019L204.939 148.169L204.922 170.986L204.939 193.786L204.992 212.882L205.081 225.509L205.213 232.58L205.344 234.975Z" fill="white" stroke="#787796" stroke-width="1.2" stroke-linejoin="round"/>
</svg>
