<svg width="370" height="357" viewBox="0 0 370 357" fill="none" xmlns="http://www.w3.org/2000/svg">
<path d="M298.639 169.165L298.401 168.837L298.152 168.52L297.896 168.214L297.631 167.921L297.358 167.641L297.078 167.374L296.792 167.122L296.499 166.885L296.201 166.665L295.896 166.461L295.587 166.276L295.274 166.109L294.513 165.791L293.782 165.608L293.09 165.557L292.442 165.631L291.846 165.826L291.307 166.137L290.833 166.56L290.43 167.089L290.105 167.719L289.864 168.447L289.715 169.266L289.664 170.172L289.712 171.078L289.715 171.13L289.864 172.099L290.105 173.067L290.43 174.023L290.833 174.955L291.307 175.851L291.846 176.701L292.442 177.493L293.09 178.215L293.782 178.856L294.513 179.403L295.274 179.847L295.648 180.019L296.016 180.158L296.376 180.266L296.728 180.341L297.071 180.385L297.185 180.39L297.405 180.399L297.728 180.383L298.041 180.338L298.34 180.264L298.628 180.161L298.901 180.031L299.161 179.874L299.288 180.252L299.432 180.61L299.593 180.947L299.774 181.265L299.975 181.564L300.195 181.845L300.344 182.007L300.438 182.109L300.703 182.358L300.992 182.592L301.304 182.812L301.642 183.019L302.006 183.213L302.65 183.493L303.257 183.668L303.823 183.733L304.345 183.684L304.819 183.516L305.242 183.223L305.609 182.801L305.918 182.245L306.151 181.586L306.164 181.551L306.345 180.713L306.456 179.727L306.494 178.587L306.411 176.433L306.166 174.361L305.76 172.374L305.195 170.479L304.476 168.68L303.602 166.984L302.577 165.394L301.404 163.917L300.085 162.558L298.622 161.322L297.017 160.214L295.274 159.239L294.072 158.717L292.901 158.363L291.768 158.174L290.683 158.146L289.651 158.278L288.682 158.566L287.782 159.006L286.96 159.596L286.224 160.332L285.581 161.213L285.039 162.234L284.711 163.112L284.606 163.392L284.295 164.66L284.112 166.004L284.055 167.41L284.119 168.866L284.302 170.359L284.602 171.877L285.015 173.406L285.537 174.934L286.167 176.449L286.901 177.936L287.737 179.385L288.671 180.782L289.68 182.089L290.737 183.275L291.834 184.335L292.96 185.264L294.105 186.057L295.26 186.709L296.415 187.216L297.56 187.572L298.687 187.773L299.784 187.814L300.843 187.69L301.854 187.396L301.828 187.339L301.649 186.946L301.359 186.311" stroke="#A7A9B2" stroke-width="0.6" stroke-linejoin="round"/>
<path d="M301.823 187.339L301.644 186.945L301.354 186.311L300.875 185.261" stroke="#A7A9B2" stroke-width="0.6" stroke-linejoin="round"/>
<path d="M300.531 184.511L300.628 184.724L300.872 185.259L301.035 185.615" stroke="#A7A9B2" stroke-width="0.6" stroke-linejoin="round"/>
<path d="M301.174 185.908L300.878 185.26V185.26L300.634 184.726L300.537 184.512L299.728 184.747L298.881 184.846L298.003 184.814L297.102 184.653L296.185 184.368L295.261 183.962L294.337 183.441L293.421 182.806L292.521 182.063L291.643 181.215L290.797 180.267L289.99 179.221L289.243 178.103L288.574 176.944L287.987 175.754L287.483 174.543L287.065 173.32L286.735 172.097L286.495 170.883L286.349 169.688L286.297 168.523L286.343 167.398L286.49 166.324L286.556 166.053L286.738 165.309L287.085 164.382L287.518 163.565L288.033 162.861L288.622 162.272L289.279 161.8L289.999 161.448L290.774 161.218L291.6 161.112L292.468 161.134L293.374 161.286L294.311 161.569L295.272 161.986L296.709 162.782L298.02 163.67L299.206 164.648L300.265 165.718L301.2 166.877L302.01 168.125L302.694 169.463L303.254 170.889L303.689 172.403L304 174.004L304.186 175.691L304.248 177.465L304.232 178.226L304.183 178.875L304.103 179.418L303.991 179.861L303.848 180.208L303.675 180.467L303.47 180.642L303.236 180.74L302.972 180.765L302.678 180.724L302.356 180.622L302.004 180.465L301.791 180.342L301.605 180.195L301.445 180.019L301.309 179.803L301.195 179.541L301.102 179.226L301.028 178.849L300.971 178.404L300.929 177.882L300.902 177.276L300.887 176.579L300.882 175.782V171.044V168.913L298.638 167.791V167.818V168.006V168.307V168.647V168.95" stroke="#A7A9B2" stroke-width="0.6" stroke-linejoin="round"/>
<path d="M300.641 184.727L301.047 185.617L301.18 185.909L301.364 186.312" stroke="#A7A9B2" stroke-width="0.6" stroke-linejoin="round"/>
<path d="M296.971 170.267L297.329 170.742L297.652 171.252L297.937 171.79L298.178 172.349L298.374 172.923L298.518 173.504L298.607 174.084L298.638 174.659L298.607 175.203L298.518 175.695L298.374 176.131L298.178 176.51L297.937 176.827L297.652 177.081L297.329 177.268L296.971 177.385L296.582 177.429L296.167 177.398L295.729 177.289L295.272 177.098L294.815 176.832L294.377 176.503L293.962 176.119L293.573 175.686L293.215 175.211L292.892 174.701L292.607 174.163L292.366 173.603L292.171 173.03L292.027 172.449L291.937 171.868L291.906 171.294L291.937 170.75L292.027 170.258L292.171 169.822L292.366 169.443L292.607 169.126L292.892 168.872L293.215 168.685L293.573 168.568L293.962 168.523L294.377 168.555L294.815 168.664L295.272 168.855L295.729 169.121L296.167 169.45L296.582 169.834L296.971 170.267Z" stroke="#A7A9B2" stroke-width="0.6" stroke-linejoin="round"/>
<path d="M298.633 167.817V168.005V168.307V168.647V168.949V169.164" stroke="#A7A9B2" stroke-width="0.6" stroke-linejoin="round"/>
<path d="M239.563 188.321L243.8 190.44L248.038 192.559L252.275 194.677L256.513 196.796L260.75 198.915L264.987 201.033L269.225 203.152L273.463 205.271L277.7 207.39L281.937 209.509L286.175 211.627L290.412 213.746L294.65 215.865L298.887 217.983L303.125 220.102L307.362 222.221L311.6 224.34L315.837 226.458L320.075 228.577L324.312 230.696L328.549 232.814L332.787 234.933L337.024 237.052L341.262 239.171L345.499 241.289L349.737 243.408L353.974 245.527L358.212 247.645L361.969 249.524L363.356 249.823L364.647 249.335L367.864 247.745L368.971 246.489L368.973 241.751L368.975 237.014L368.976 232.276L368.978 227.538L368.98 222.801L368.982 218.063L368.984 213.326L368.986 208.588L368.988 203.85L368.99 199.113L368.992 194.375L368.993 189.637L368.995 184.9L368.997 180.162L368.999 175.425L369.001 170.687L369.002 165.949L369.004 161.212L369.006 156.474L369.007 154.34L368.745 152.377L367.973 150.689L366.736 149.569L362.498 147.45L358.261 145.331L354.024 143.213L349.786 141.094L345.549 138.975L341.311 136.856L337.074 134.737L332.836 132.619L328.599 130.5L324.361 128.381L320.124 126.263L315.887 124.144L311.649 122.025L307.411 119.906L303.174 117.788L298.936 115.669L294.699 113.55L290.462 111.432L286.224 109.313L281.987 107.194L277.749 105.075L273.512 102.956L269.275 100.838L265.037 98.7192L260.799 96.6005L256.562 94.4818L252.324 92.3632L248.087 90.244L243.85 88.1254L241.293 86.8471L240.161 86.7822L236.949 88.6413L236.228 89.3879L235.981 91.0513L235.98 95.7889L235.978 100.527L235.976 105.264L235.974 110.002L235.972 114.739L235.97 119.477L235.969 124.215L235.967 128.952L235.965 133.69L235.963 138.428L235.961 143.165L235.959 147.903L235.957 152.64L235.955 157.378L235.953 162.116L235.952 166.853L235.95 171.591L235.948 176.329L235.946 181.066L235.945 183.188L237.009 185.515L238.243 187.266L239.563 188.321Z" stroke="#A7A9B2" stroke-width="0.6" stroke-linejoin="round"/>
<path d="M236.953 88.6426L238.099 88.8638L238.1 88.8648L242.338 90.9834L246.575 93.1021L250.813 95.2208L255.05 97.3394L259.288 99.4581L263.525 101.577L267.762 103.696L272 105.815L276.238 107.933L280.475 110.052L284.712 112.171L288.95 114.289L293.187 116.408L297.425 118.527L301.662 120.646L305.9 122.764L310.137 124.883L314.374 127.002L318.612 129.12L322.85 131.239L327.087 133.358L331.324 135.477L335.562 137.596L339.799 139.714L344.037 141.833L348.274 143.952L352.512 146.07L356.749 148.189L360.987 150.308L363.542 151.585L364.765 152.549L365.533 154.04L365.795 155.957L365.793 160.695L365.791 165.432L365.789 170.17L365.787 174.908L365.786 179.645L365.784 184.383L365.782 189.121L365.78 193.858L365.778 198.596L365.776 203.333L365.774 208.071L365.772 212.809L365.771 217.546L365.769 222.284L365.767 227.022L365.765 231.759L365.763 236.497L365.761 241.234L365.759 245.972L365.759 248.093L364.652 249.336" stroke="#A7A9B2" stroke-width="0.6" stroke-linejoin="round"/>
<path d="M198.294 199.56L194.056 201.678L189.819 203.798L185.581 205.916L181.344 208.035L177.106 210.154L172.869 212.272L168.632 214.391L164.394 216.51L160.156 218.628L155.919 220.747L151.682 222.866L147.444 224.985L143.207 227.103L138.969 229.222L134.732 231.341L130.494 233.459L126.257 235.578L122.02 237.697L117.782 239.816L113.544 241.934L109.307 244.053L105.07 246.172L100.832 248.29L96.5946 250.41L92.3573 252.528L88.12 254.647L85.7644 255.825L84.2848 256.931L83.7656 258.237V262.176L84.2848 263.482L85.7644 264.589L90.0017 266.707L94.2391 268.826L98.4769 270.945L102.714 273.064L106.952 275.183L111.189 277.301L115.427 279.42L119.664 281.539L123.901 283.657L128.139 285.776L132.376 287.895L136.614 290.014L140.851 292.132L145.089 294.251L149.326 296.37L153.564 298.488L157.801 300.607L162.039 302.726L166.276 304.845L170.513 306.964L174.751 309.082L177.597 310.505L179.811 311.245L182.423 311.505L185.034 311.245L187.249 310.505L191.486 308.387L195.723 306.268L199.961 304.149L204.198 302.03L208.436 299.912L212.673 297.793L216.91 295.674L221.148 293.556L225.386 291.437L229.623 289.318L233.861 287.2L238.098 285.08L242.335 282.962L246.573 280.843L250.81 278.724L255.048 276.606L259.285 274.487L263.522 272.368L267.76 270.249L271.998 268.131L276.235 266.012L280.473 263.893L284.71 261.775L288.947 259.656L293.185 257.537L297.423 255.418L299.778 254.241L301.257 253.134L301.777 251.828V247.889L301.257 246.583L299.778 245.476L295.54 243.358L291.303 241.239L287.066 239.12L282.828 237.002L278.59 234.882L274.353 232.764L270.116 230.645L265.878 228.526L261.641 226.408L257.403 224.289L253.166 222.171L248.928 220.051L244.691 217.933L240.454 215.814L236.216 213.695L231.978 211.577L227.741 209.458L223.504 207.339L219.266 205.221L215.029 203.102L210.791 200.983L207.945 199.56L205.731 198.82L203.119 198.561L200.508 198.82L198.294 199.56Z" stroke="#A7A9B2" stroke-width="0.6" stroke-linejoin="round"/>
<path d="M83.7656 258.238L84.2848 259.544L85.7644 260.65L90.0017 262.769L94.2391 264.888L98.4769 267.007L102.714 269.126L106.952 271.244L111.189 273.363L115.427 275.482L119.664 277.6L123.901 279.719L128.139 281.838L132.376 283.957L136.614 286.075L140.851 288.194L145.089 290.313L149.326 292.431L153.564 294.55L157.801 296.669L162.039 298.788L166.276 300.906L170.513 303.025L174.751 305.144L177.597 306.567L179.811 307.307L182.423 307.567L185.034 307.307L187.249 306.567L191.486 304.448L195.723 302.33L199.961 300.211L204.198 298.092L208.436 295.973L212.673 293.855L216.91 291.736L221.148 289.617L225.386 287.499L229.623 285.38L233.861 283.261L238.098 281.143L242.335 279.023L246.573 276.905L250.81 274.786L255.048 272.667L259.285 270.549L263.523 268.43L267.76 266.311L271.998 264.192L276.235 262.074L280.473 259.955L284.71 257.836L288.947 255.718L293.185 253.599L297.423 251.48L299.778 250.303L301.257 249.195L301.777 247.89" stroke="#A7A9B2" stroke-width="0.6" stroke-linejoin="round"/>
<path d="M121.875 247.268L126.112 249.387L130.35 251.506L134.587 253.625L138.825 255.743L143.062 257.862L147.3 259.981L151.537 262.099L155.775 264.218L160.012 266.337L164.25 268.455L168.487 270.575L172.724 272.693L176.962 274.812L181.2 276.931L185.437 279.049L189.674 281.168L193.912 283.287L198.149 285.406L203.117 287.89L207.355 285.771L211.592 283.652L215.83 281.533L220.067 279.415L224.305 277.296L228.542 275.177L232.779 273.059L237.017 270.94L241.255 268.821L245.492 266.702L249.729 264.583L253.967 262.465L258.204 260.346L262.442 258.227L266.679 256.109L270.916 253.99L275.154 251.871L279.392 249.752L284.359 247.268L280.122 245.15L275.885 243.031L271.647 240.912L267.41 238.794L263.172 236.675L258.935 234.556L254.697 232.437L250.46 230.319L246.222 228.2L241.985 226.081L237.747 223.963L233.51 221.843L229.273 219.725L225.035 217.606L220.798 215.487L216.56 213.369L212.323 211.25L208.085 209.131L203.117 206.647L198.88 208.766L194.643 210.885L190.405 213.003L186.167 215.122L181.93 217.241L177.693 219.359L173.455 221.478L169.218 223.597L164.98 225.716L160.742 227.835L156.505 229.953L152.268 232.072L148.03 234.191L143.793 236.309L139.555 238.428L135.318 240.547L131.081 242.666L126.843 244.784L121.875 247.268Z" stroke="#A7A9B2" stroke-width="0.6" stroke-linejoin="round"/>
<path d="M114.551 250.928L113.714 251.347L113.336 251.895L113.898 252.481L118.136 254.6L122.373 256.719L126.61 258.838L130.848 260.956L135.085 263.075L139.323 265.194L143.56 267.312L147.798 269.431L152.035 271.55L156.273 273.669L160.51 275.788L164.748 277.906L168.985 280.025L173.222 282.144L177.46 284.262L181.697 286.381L185.935 288.5L190.172 290.619L192.687 291.876L193.86 292.157L194.956 291.968L195.793 291.55L196.171 291.001L195.609 290.415L191.372 288.296L187.134 286.178L182.897 284.059L178.659 281.94L174.422 279.821L170.184 277.702L165.947 275.584L161.709 273.465L157.472 271.347L153.234 269.228L148.997 267.109L144.76 264.991L140.522 262.871L136.285 260.753L132.047 258.634L127.81 256.515L123.573 254.397L119.335 252.278L116.82 251.021L115.647 250.739L114.551 250.928Z" stroke="#A7A9B2" stroke-width="0.6" stroke-linejoin="round"/>
<path d="M108.246 254.081L107.409 254.499L107.031 255.048L107.594 255.634L111.831 257.752L116.068 259.871L120.306 261.99L124.543 264.109L128.781 266.227L133.018 268.346L137.256 270.465L141.493 272.583L145.731 274.703L149.968 276.821L154.206 278.94L158.443 281.059L162.68 283.177L164.802 284.238L165.975 284.519L167.071 284.33L167.909 283.912L168.286 283.363L167.724 282.777L163.487 280.658L159.249 278.54L155.012 276.421L150.774 274.302L146.537 272.184L142.3 270.065L138.062 267.946L133.824 265.828L129.587 263.708L125.35 261.59L121.112 259.471L116.875 257.352L112.637 255.234L110.515 254.173L109.343 253.892L108.246 254.081Z" stroke="#A7A9B2" stroke-width="0.6" stroke-linejoin="round"/>
<path d="M224.146 242.166L226.725 242.103L229.003 242.392L230.826 243.014L232.069 243.925L232.647 245.064L232.521 246.353L230.922 250.813L229.323 255.273L227.723 259.732L226.124 264.192L224.525 268.651L224.405 268.985L223.682 270.181L222.508 271.045L220.964 271.519L219.155 271.571L217.204 271.197L215.244 270.422L211.007 268.304L206.769 266.184L202.532 264.066L198.295 261.947L194.057 259.828L189.819 257.71L185.582 255.591L181.345 253.472L177.107 251.354L172.87 249.235L168.632 247.116L164.395 244.997L160.157 242.879L156.97 241.285L155.42 240.305L154.672 239.33L154.776 238.425L155.724 237.654L157.453 237.067L159.844 236.705L164.563 236.281L169.281 235.858L174 235.436L178.719 235.013L183.438 234.59L186.349 234.329L188.928 234.266L191.206 234.555L193.029 235.176L194.271 236.087L194.849 237.227L194.724 238.516L193.124 242.975L192.394 245.013L197.112 244.59L201.831 244.167L206.55 243.744L211.269 243.321L215.987 242.898L220.706 242.474L224.146 242.166Z" stroke="#A7A9B2" stroke-width="0.6" stroke-linejoin="round"/>
<path d="M238.102 88.8633L239.207 89.4162L243.445 91.5353L247.682 93.654L251.92 95.7726L256.157 97.8913L260.395 100.01L264.632 102.129L268.87 104.247L273.107 106.366L277.345 108.485L281.582 110.604L285.819 112.722L290.057 114.841L294.295 116.96L298.532 119.079L302.769 121.198L307.007 123.316L311.244 125.435L315.482 127.554L319.719 129.672L323.957 131.791L328.194 133.91L332.431 136.029L336.669 138.147L340.907 140.266L345.144 142.385L349.381 144.503L353.619 146.622L357.856 148.741L362.094 150.86L363.544 151.585" stroke="#A7A9B2" stroke-width="0.6" stroke-linejoin="round"/>
<path d="M330.188 217.378L334.425 219.497L338.663 221.616L342.9 223.734L347.137 225.853L351.375 227.972L352.092 228.33V223.593V218.855V214.117V212.309L347.854 210.191L343.617 208.072L339.379 205.953L335.142 203.834L330.904 201.716L330.188 201.357V206.095V210.833V215.57V217.378Z" stroke="#A7A9B2" stroke-width="0.6" stroke-linejoin="round"/>
<path d="M329.166 196.858L328.972 195.876L327.266 195.022V196.723L327.989 197.322L328.518 198.235L328.712 199.218L328.518 200.007L327.989 200.391L327.266 200.266V202.392L327.989 202.991L328.518 203.905L328.712 204.887L328.518 205.676L327.989 206.06L327.266 205.936V208.062L327.989 208.661L328.518 209.574L328.712 210.557L328.518 211.345L327.989 211.729L327.266 211.605V213.731L327.989 214.33L328.518 215.243L328.712 216.226L328.518 217.015L327.989 217.399L327.266 217.274V219.167L328.972 220.021L329.166 219.232L329.696 218.848L330.419 218.972L331.142 219.571L331.672 220.484L331.866 221.467L331.865 221.467L333.601 222.335L333.795 221.546L334.324 221.162L335.048 221.286L335.771 221.886L336.3 222.799L336.494 223.782L338.23 224.65L338.424 223.86L338.953 223.477L339.677 223.601L340.4 224.2L340.929 225.113L341.123 226.096L342.859 226.964L343.053 226.175L343.582 225.791L344.306 225.916L345.029 226.514L345.559 227.428L345.752 228.41L347.488 229.278L347.682 228.49L348.212 228.106L348.935 228.23L349.658 228.829L350.188 229.742L350.381 230.725L352.117 231.593L352.311 230.804L352.84 230.421L353.564 230.545L354.287 231.144L354.816 232.057L355.01 233.039V233.04L356.633 233.851V231.958L355.909 231.359L355.38 230.446L355.186 229.463L355.38 228.674L355.909 228.29L356.633 228.415V226.288L355.909 225.69L355.38 224.776L355.186 223.794L355.38 223.005L355.909 222.621L356.633 222.745V220.619L355.909 220.02L355.38 219.107L355.186 218.124L355.38 217.335L355.909 216.951L356.633 217.076V214.95L355.909 214.351L355.38 213.438L355.186 212.455L355.38 211.666L355.909 211.282L356.633 211.407V209.706L355.01 208.895L354.816 209.684L354.287 210.068L353.564 209.943L352.84 209.344L352.311 208.431L352.117 207.448L350.381 206.58L350.188 207.369L349.658 207.753L348.935 207.629L348.212 207.029L347.682 206.117L347.488 205.134L345.752 204.266L345.559 205.055L345.029 205.439L344.306 205.314L343.582 204.715L343.053 203.802L342.859 202.819L341.123 201.951L340.929 202.74L340.4 203.124L339.677 203L338.953 202.401L338.424 201.487L338.23 200.505L336.494 199.637L336.3 200.426L335.771 200.809L335.048 200.685L334.324 200.086L333.795 199.173L333.601 198.19L331.865 197.322L331.672 198.111L331.142 198.495L330.419 198.371L329.696 197.772L329.166 196.858Z" stroke="#A7A9B2" stroke-width="0.6" stroke-linejoin="round"/>
<path d="M333.61 222.335L331.875 221.468" stroke="#A7A9B2" stroke-width="0.6" stroke-linejoin="round"/>
<path d="M305.3 195.366L307.931 194.037L310.09 191.894L311.694 189.021L312.682 185.527L313.015 181.546L312.752 178.135L312.682 177.231L311.694 172.749L310.09 168.271L307.964 164.037L307.931 163.97L305.3 160.011L302.299 156.545L299.042 153.707L295.656 151.605L292.27 150.32L289.013 149.902L286.012 150.366L283.381 151.695L281.222 153.837L280.124 155.804L279.618 156.711L278.63 160.205L278.297 164.186L278.63 168.501L279.618 172.983L281.222 177.461L283.348 181.695L283.381 181.762L286.012 185.721L289.013 189.187L292.27 192.025L295.656 194.127L299.042 195.412L302.299 195.83L305.3 195.366ZM305.3 195.366L308.921 193.555L311.552 192.227L313.711 190.084L315.315 187.21L316.303 183.716L316.636 179.735L316.367 176.246L316.303 175.421L315.315 170.938L313.711 166.461L311.585 162.226L311.552 162.159L308.921 158.2L305.92 154.735L302.664 151.897L299.277 149.795L295.891 148.51L292.634 148.092L289.633 148.556L286.012 150.366" stroke="#A7A9B2" stroke-width="0.6" stroke-linejoin="round"/>
<path d="M15.3438 268.526V263.788V259.051V254.313V251.989" stroke="#A7A9B2" stroke-width="0.6" stroke-linejoin="round"/>
<path d="M15.346 250.977L11.1087 248.858L6.87135 246.739L2.63354 244.62L1.01562 243.812" stroke="#A7A9B2" stroke-width="0.6" stroke-linejoin="round"/>
<path d="M29.6764 244.646V243.812L25.439 241.693L21.2017 239.574L16.9639 237.456L15.346 236.646L11.1087 238.766L6.87135 240.884L2.63354 243.003L1.01562 243.812V248.55V253.287V258.025V261.363L5.25297 263.482L9.49029 265.6L13.7281 267.719L15.346 268.528L19.5833 266.41L23.8211 264.291L28.0585 262.172L29.6764 261.363V259.172" stroke="#A7A9B2" stroke-width="0.6" stroke-linejoin="round"/>
<path d="M29.6741 243.812L25.4368 245.93L21.1994 248.049L16.9616 250.168L15.3438 250.977V251.826" stroke="#A7A9B2" stroke-width="0.6" stroke-linejoin="round"/>
<path d="M319.281 292.249V287.511V282.774V278.036V275.821" stroke="#A7A9B2" stroke-width="0.6" stroke-linejoin="round"/>
<path d="M319.283 274.699L315.046 272.581L310.808 270.462L306.571 268.343L304.953 267.534" stroke="#A7A9B2" stroke-width="0.6" stroke-linejoin="round"/>
<path d="M304.953 282.994V285.083L309.19 287.203L313.428 289.321L317.665 291.44L319.283 292.249L323.521 290.13L327.758 288.011L331.996 285.893L333.614 285.083V280.346V275.608V270.871V267.532L329.377 265.414L325.139 263.295L320.901 261.176L319.283 260.367L315.046 262.486L310.808 264.605L306.571 266.723L304.953 267.532V272.27V277.008V281.745V282.783" stroke="#A7A9B2" stroke-width="0.6" stroke-linejoin="round"/>
<path d="M333.612 267.534L329.374 269.653L325.136 271.771L320.899 273.89L319.281 274.699V275.635" stroke="#A7A9B2" stroke-width="0.6" stroke-linejoin="round"/>
<path d="M77.6181 188.114L73.3813 185.994L69.5433 184.075L66.5946 182.599L62.3578 180.48L61.9219 180.262" stroke="#A7A9B2" stroke-width="0.6" stroke-linejoin="round"/>
<path d="M77.5547 188.281L81.792 190.401L85.6295 192.321L87.3578 193.186" stroke="#A7A9B2" stroke-width="0.6" stroke-linejoin="round"/>
<path d="M102.141 208.415L97.9041 210.534L95.3382 211.817L91.1009 213.936L86.8635 216.054L85.5706 216.701L81.3338 218.821L77.0965 220.94L74.486 222.246L70.2492 224.365L66.0118 226.484L62.7969 228.093" stroke="#A7A9B2" stroke-width="0.6" stroke-linejoin="round"/>
<path d="M29.6797 244.857L30.2136 244.59L34.4509 242.471L38.6883 240.352L39.9812 239.705L44.2185 237.586L48.4554 235.467L51.0658 234.161L55.3026 232.042L59.54 229.922L62.8085 228.287L62.8355 228.273" stroke="#A7A9B2" stroke-width="0.6" stroke-linejoin="round"/>
<path d="M103.321 295.793L103.272 295.768L99.0347 293.649L94.7974 291.53L90.56 289.411L86.3227 287.292L82.0853 285.173L81.5036 284.882L77.2662 282.763L73.0289 280.644L68.7916 278.525L64.5543 276.406L60.956 274.606L56.7187 272.487L52.4813 270.368L48.244 268.249L44.0067 266.13L42.8498 265.552L38.6124 263.433L34.3751 261.314L30.1373 259.196L29.6673 258.961L28.4057 258.33L24.1679 256.212L19.9301 254.094L18.8438 253.551" stroke="#A7A9B2" stroke-width="0.6" stroke-linejoin="round"/>
<path d="M103.211 295.937L107.448 298.056L111.686 300.175L115.923 302.294L120.16 304.413L124.398 306.532L124.979 306.823L129.217 308.942L133.454 311.061L137.691 313.18L141.928 315.299L145.527 317.099L149.764 319.218L154.002 321.336L158.239 323.456L162.476 325.575L163.633 326.153L167.87 328.272L172.108 330.39L176.345 332.509L176.698 332.685" stroke="#A7A9B2" stroke-width="0.6" stroke-linejoin="round"/>
<path d="M309.778 280.37L305.54 282.489L304.951 282.783L300.713 284.902L299.246 285.636L295.008 287.755L290.771 289.874L286.534 291.993L286.044 292.238L281.806 294.357L277.569 296.477L273.332 298.596L271.061 299.731L266.824 301.85L262.587 303.97L258.349 306.089L255.189 307.67L250.951 309.788L246.713 311.906L242.476 314.024L239.317 315.604L235.079 317.722L230.841 319.84L226.604 321.958L224.334 323.093L220.096 325.211L215.859 327.329L211.621 329.448L211.132 329.693L206.895 331.812L205.367 332.575" stroke="#A7A9B2" stroke-width="0.6" stroke-linejoin="round"/>
<path d="M255.273 307.829L259.511 305.711L263.749 303.593L267.987 301.474L271.128 299.904L275.366 297.786L279.603 295.668L283.841 293.549L286.11 292.415L290.348 290.296L294.585 288.178L298.823 286.06L299.313 285.815L303.55 283.696L304.954 282.994L309.191 280.876L309.845 280.549" stroke="#A7A9B2" stroke-width="0.6" stroke-linejoin="round"/>
<path d="M205.367 332.785L209.605 330.667L211.196 329.871L215.434 327.752L219.671 325.633L223.908 323.514L224.398 323.269L228.636 321.149L232.873 319.03L237.11 316.911L239.38 315.776L243.618 313.656L247.855 311.537L252.092 309.418L255.253 307.837L255.271 307.828" stroke="#A7A9B2" stroke-width="0.6" stroke-linejoin="round"/>
<path d="M176.701 332.473L172.463 330.354L168.226 328.236L163.989 326.117L163.701 325.973L159.463 323.854L155.225 321.736L150.988 319.617L146.75 317.499L145.594 316.921L141.357 314.803L137.119 312.684L132.881 310.566L128.644 308.447L125.047 306.649L120.809 304.531L116.572 302.412L112.334 300.294L108.096 298.176L103.859 296.057L103.328 295.792" stroke="#A7A9B2" stroke-width="0.6" stroke-linejoin="round"/>
<path d="M18.7891 253.726L23.0264 255.845L27.2633 257.964L28.351 258.508L29.6766 259.171L33.9144 261.29L38.1517 263.409L42.3891 265.527L42.7951 265.73L47.0329 267.849L51.2702 269.968L55.508 272.086L59.7453 274.204L60.9013 274.782L65.1391 276.901L69.3765 279.019L73.6143 281.137L77.8516 283.256L81.4489 285.054L85.6867 287.173L89.924 289.291L94.1618 291.409L98.3996 293.528L102.637 295.646L103.217 295.936" stroke="#A7A9B2" stroke-width="0.6" stroke-linejoin="round"/>
<path d="M62.798 228.093L62.7445 228.119L58.5067 230.238L54.2689 232.356L51.0014 233.988L46.7636 236.106L42.5258 238.225L39.9172 239.529L35.6794 241.647L31.4416 243.765L30.1497 244.412L29.6797 244.646" stroke="#A7A9B2" stroke-width="0.6" stroke-linejoin="round"/>
<path d="M62.8359 228.274L67.0737 226.156L71.3115 224.038L74.5521 222.418L78.7899 220.3L83.0272 218.182L85.6362 216.878L89.874 214.759L94.1118 212.641L95.4038 211.995L99.6411 209.876L102.355 208.52" stroke="#A7A9B2" stroke-width="0.6" stroke-linejoin="round"/>
<path d="M87.344 192.974L85.6915 192.148L81.4537 190.03L77.6172 188.113" stroke="#A7A9B2" stroke-width="0.6" stroke-linejoin="round"/>
<path d="M61.8516 180.438L66.0893 182.555L66.5882 182.805L69.473 184.247L73.7108 186.364L77.5473 188.281" stroke="#A7A9B2" stroke-width="0.6" stroke-linejoin="round"/>
<path d="M77.6181 188.114L73.3813 185.994L69.5433 184.075L66.5946 182.599L62.3578 180.48L61.9219 180.262" stroke="#A7A9B2" stroke-width="0.6" stroke-linejoin="round"/>
<path d="M77.5547 188.281L81.792 190.401L85.6295 192.321L87.3578 193.186" stroke="#A7A9B2" stroke-width="0.6" stroke-linejoin="round"/>
<path d="M102.141 208.415L97.9041 210.534L95.3382 211.817L91.1009 213.936L86.8635 216.054L85.5706 216.701L81.3338 218.821L77.0965 220.94L74.486 222.246L70.2492 224.365L66.0118 226.484L62.7969 228.093" stroke="#A7A9B2" stroke-width="0.6" stroke-linejoin="round"/>
<path d="M29.6797 244.857L30.2136 244.59L34.4509 242.471L38.6883 240.352L39.9812 239.705L44.2185 237.586L48.4554 235.467L51.0658 234.161L55.3026 232.042L59.54 229.922L62.8085 228.287L62.8355 228.273" stroke="#A7A9B2" stroke-width="0.6" stroke-linejoin="round"/>
<path d="M103.321 295.793L103.272 295.768L99.0347 293.649L94.7974 291.53L90.56 289.411L86.3227 287.292L82.0853 285.173L81.5036 284.882L77.2662 282.763L73.0289 280.644L68.7916 278.525L64.5543 276.406L60.956 274.606L56.7187 272.487L52.4813 270.368L48.244 268.249L44.0067 266.13L42.8498 265.552L38.6124 263.433L34.3751 261.314L30.1373 259.196L29.6673 258.961L28.4057 258.33L24.1679 256.212L19.9301 254.094L18.8438 253.551" stroke="#A7A9B2" stroke-width="0.6" stroke-linejoin="round"/>
<path d="M103.211 295.937L107.448 298.056L111.686 300.175L115.923 302.294L120.16 304.413L124.398 306.532L124.979 306.823L129.217 308.942L133.454 311.061L137.691 313.18L141.928 315.299L145.527 317.099L149.764 319.218L154.002 321.336L158.239 323.456L162.476 325.575L163.633 326.153L167.87 328.272L172.108 330.39L176.345 332.509L176.698 332.685" stroke="#A7A9B2" stroke-width="0.6" stroke-linejoin="round"/>
<path d="M309.778 280.37L305.54 282.489L304.951 282.783L300.713 284.902L299.246 285.636L295.008 287.755L290.771 289.874L286.534 291.993L286.044 292.238L281.806 294.357L277.569 296.477L273.332 298.596L271.061 299.731L266.824 301.85L262.587 303.97L258.349 306.089L255.189 307.67L250.951 309.788L246.713 311.906L242.476 314.024L239.317 315.604L235.079 317.722L230.841 319.84L226.604 321.958L224.334 323.093L220.096 325.211L215.859 327.329L211.621 329.448L211.132 329.693L206.895 331.812L205.367 332.575" stroke="#A7A9B2" stroke-width="0.6" stroke-linejoin="round"/>
<path d="M255.273 307.829L259.511 305.711L263.749 303.593L267.987 301.474L271.128 299.904L275.366 297.786L279.603 295.668L283.841 293.549L286.11 292.415L290.348 290.296L294.585 288.178L298.823 286.06L299.313 285.815L303.55 283.696L304.954 282.994L309.191 280.876L309.845 280.549" stroke="#A7A9B2" stroke-width="0.6" stroke-linejoin="round"/>
<path d="M205.367 332.785L209.605 330.667L211.196 329.871L215.434 327.752L219.671 325.633L223.908 323.514L224.398 323.269L228.636 321.149L232.873 319.03L237.11 316.911L239.38 315.776L243.618 313.656L247.855 311.537L252.092 309.418L255.253 307.837L255.271 307.828" stroke="#A7A9B2" stroke-width="0.6" stroke-linejoin="round"/>
<path d="M176.701 332.473L172.463 330.354L168.226 328.236L163.989 326.117L163.701 325.973L159.463 323.854L155.225 321.736L150.988 319.617L146.75 317.499L145.594 316.921L141.357 314.803L137.119 312.684L132.881 310.566L128.644 308.447L125.047 306.649L120.809 304.531L116.572 302.412L112.334 300.294L108.096 298.176L103.859 296.057L103.328 295.792" stroke="#A7A9B2" stroke-width="0.6" stroke-linejoin="round"/>
<path d="M18.7891 253.726L23.0264 255.845L27.2633 257.964L28.351 258.508L29.6766 259.171L33.9144 261.29L38.1517 263.409L42.3891 265.527L42.7951 265.73L47.0329 267.849L51.2702 269.968L55.508 272.086L59.7453 274.204L60.9013 274.782L65.1391 276.901L69.3765 279.019L73.6143 281.137L77.8516 283.256L81.4489 285.054L85.6867 287.173L89.924 289.291L94.1618 291.409L98.3996 293.528L102.637 295.646L103.217 295.936" stroke="#A7A9B2" stroke-width="0.6" stroke-linejoin="round"/>
<path d="M62.798 228.093L62.7445 228.119L58.5067 230.238L54.2689 232.356L51.0014 233.988L46.7636 236.106L42.5258 238.225L39.9172 239.529L35.6794 241.647L31.4416 243.765L30.1497 244.412L29.6797 244.646" stroke="#A7A9B2" stroke-width="0.6" stroke-linejoin="round"/>
<path d="M62.8359 228.274L67.0737 226.156L71.3115 224.038L74.5521 222.418L78.7899 220.3L83.0272 218.182L85.6362 216.878L89.874 214.759L94.1118 212.641L95.4038 211.995L99.6411 209.876L102.355 208.52" stroke="#A7A9B2" stroke-width="0.6" stroke-linejoin="round"/>
<path d="M87.344 192.974L85.6915 192.148L81.4537 190.03L77.6172 188.113" stroke="#A7A9B2" stroke-width="0.6" stroke-linejoin="round"/>
<path d="M61.8516 180.438L66.0893 182.555L66.5882 182.805L69.473 184.247L73.7108 186.364L77.5473 188.281" stroke="#A7A9B2" stroke-width="0.6" stroke-linejoin="round"/>
<path d="M191.031 356.371V351.634V346.896V342.158V339.835" stroke="#A7A9B2" stroke-width="0.6" stroke-linejoin="round"/>
<path d="M191.033 338.82L186.796 336.702L182.558 334.583L178.321 332.464L176.703 331.655" stroke="#A7A9B2" stroke-width="0.6" stroke-linejoin="round"/>
<path d="M205.364 332.575V331.655L201.126 329.537L196.889 327.418L192.651 325.299L191.033 324.49L186.796 326.609L182.558 328.728L178.321 330.846L176.703 331.655V332.474" stroke="#A7A9B2" stroke-width="0.6" stroke-linejoin="round"/>
<path d="M176.703 332.685V337.422V342.16V346.897V349.206L180.94 351.325L185.178 353.444L189.416 355.563L191.033 356.371L195.271 354.253L199.508 352.134L203.746 350.015L205.364 349.206V344.468V339.731V334.993V332.786" stroke="#A7A9B2" stroke-width="0.6" stroke-linejoin="round"/>
<path d="M205.362 331.655L201.124 333.774L196.886 335.893L192.649 338.011L191.031 338.82V339.653" stroke="#A7A9B2" stroke-width="0.6" stroke-linejoin="round"/>
<path d="M52.2656 192.136V187.398V182.66V177.923V175.642" stroke="#A7A9B2" stroke-width="0.6" stroke-linejoin="round"/>
<path d="M52.2601 174.586L48.0227 172.467L43.7854 170.348L39.5476 168.23L37.9297 167.421" stroke="#A7A9B2" stroke-width="0.6" stroke-linejoin="round"/>
<path d="M66.5904 182.599V177.861V173.124V168.386V167.421L62.3531 165.301L58.1158 163.183L53.878 161.064L52.2601 160.255L48.0227 162.374L43.7854 164.493L39.5476 166.611L37.9297 167.421V172.158V176.896V181.633V184.972L42.167 187.09L46.4044 189.209L50.6422 191.328L52.2601 192.137L56.4974 190.018L60.7352 187.899L64.9725 185.781L66.5904 184.972V182.805" stroke="#A7A9B2" stroke-width="0.6" stroke-linejoin="round"/>
<path d="M66.596 167.421L62.3586 169.54L58.1213 171.658L53.8835 173.777L52.2656 174.586V175.432" stroke="#A7A9B2" stroke-width="0.6" stroke-linejoin="round"/>
<path d="M87.3445 192.975L87.3997 193.925L87.4257 194.135L87.6702 195.599L87.9805 196.699L88.0544 196.915L88.4339 197.961L88.8778 198.94L89.3852 199.849L89.5467 200.088L90.119 200.929L90.7501 201.691L91.437 202.374L92.1775 202.972L92.612 203.318L93.4065 203.832L94.3199 204.383L95.9278 205.251L98.3388 206.495L102.061 208.373L102.352 208.519L104.942 209.803L107.383 210.985L109.043 211.751L110.032 212.151L110.917 212.485L111.842 212.727L112.375 212.865L113.331 213.013L114.317 213.067L115.332 213.027L115.621 213.013L116.653 212.88L117.885 212.566L118.115 212.491L120.438 211.556L124.736 209.562L124.941 209.468L132.699 205.699L144.252 199.987L157.973 193.148L171.694 186.266L183.247 180.425L191.005 176.436L195.507 174.021L195.662 173.933L197.978 172.551L199.195 171.645L200.211 170.761L201.202 169.809L201.292 169.719L202.245 168.714L203.167 167.649L204.055 166.529L204.905 165.358L205.713 164.142L206.476 162.885L207.19 161.593L207.853 160.272L208.462 158.927L209.014 157.564L209.507 156.188L209.939 154.805L210.307 153.419L210.611 152.035L210.664 151.671L210.851 150.352L211.053 146.703L211.185 139.5L211.275 126.785L211.327 107.636L211.345 84.8183L211.327 62.018L211.275 42.9216L211.185 30.2948L211.053 23.2249L210.87 19.8787L210.844 19.6683L210.599 18.2044L210.289 17.1048L210.215 16.8878L209.836 15.8427L209.392 14.8635L208.884 13.9543L208.723 13.7155L208.151 12.8751L207.52 12.1123L206.833 11.4301L206.092 10.8317L205.658 10.4859L204.863 9.97186L203.95 9.42086L202.342 8.55247L199.931 7.30836L196.208 5.43038L193.324 4.00104L190.882 2.81852L189.222 2.05292L188.234 1.65306L187.349 1.31858L186.424 1.0765L185.891 0.937686L184.935 0.790344L183.948 0.736328L182.934 0.776131L182.645 0.789866L181.613 0.922996L180.381 1.23758L180.151 1.31195L177.827 2.24763L173.325 4.33551L165.567 8.10476L154.014 13.8164L140.293 20.6552L126.572 27.5371L115.019 33.3786L107.26 37.3681L102.758 39.7824L102.603 39.8705L100.287 41.253L99.071 42.1579L98.0553 43.0424L97.0637 43.9946L96.9742 44.0846L96.021 45.09L95.0986 46.1545L94.2107 47.2745L93.3612 48.4451L92.553 49.6613L91.7903 50.9182L91.0754 52.2097L90.4125 53.531L89.8033 54.8765L89.2514 56.2395L88.7587 57.6153L88.3271 58.9987L87.9585 60.3844L87.6543 61.7678L87.3966 63.5719L87.2137 67.1014L87.0811 74.3036L86.992 87.0194L86.9394 106.169L86.9219 128.986L86.9394 151.786L86.992 170.882L87.0811 183.509L87.2132 190.58L87.3445 192.975Z" stroke="#A7A9B2" stroke-width="0.6" stroke-linejoin="round"/>
<path d="M15.3438 251.827V251.826" stroke="#A7A9B2" stroke-width="0.6" stroke-linejoin="round"/>
<path d="M15.3438 251.992V251.826" stroke="#A7A9B2" stroke-width="0.6" stroke-linejoin="round"/>
<path d="M29.6797 244.658V244.646" stroke="#A7A9B2" stroke-width="0.6" stroke-linejoin="round"/>
<path d="M29.6797 244.846V244.657" stroke="#A7A9B2" stroke-width="0.6" stroke-linejoin="round"/>
<path d="M29.6797 244.859V244.847" stroke="#A7A9B2" stroke-width="0.6" stroke-linejoin="round"/>
<path d="M29.6797 258.961V254.224V249.486V244.858" stroke="#A7A9B2" stroke-width="0.6" stroke-linejoin="round"/>
<path d="M52.2656 175.444V175.432" stroke="#A7A9B2" stroke-width="0.6" stroke-linejoin="round"/>
<path d="M52.2656 175.631V175.442" stroke="#A7A9B2" stroke-width="0.6" stroke-linejoin="round"/>
<path d="M52.2656 175.644V175.631" stroke="#A7A9B2" stroke-width="0.6" stroke-linejoin="round"/>
<path d="M62.7971 228.093L62.7422 228.12" stroke="#A7A9B2" stroke-width="0.6" stroke-linejoin="round"/>
<path d="M62.7971 228.093L62.7422 228.12" stroke="#A7A9B2" stroke-width="0.6" stroke-linejoin="round"/>
<path d="M87.3594 193.181L87.3599 193.187" stroke="#A7A9B2" stroke-width="0.6" stroke-linejoin="round"/>
<path d="M87.3516 192.98L87.3625 193.18" stroke="#A7A9B2" stroke-width="0.6" stroke-linejoin="round"/>
<path d="M87.3516 192.975L87.3521 192.981" stroke="#A7A9B2" stroke-width="0.6" stroke-linejoin="round"/>
<path d="M102.344 208.515L102.356 208.521" stroke="#A7A9B2" stroke-width="0.6" stroke-linejoin="round"/>
<path d="M102.148 208.42L102.338 208.514" stroke="#A7A9B2" stroke-width="0.6" stroke-linejoin="round"/>
<path d="M102.141 208.415L102.153 208.421" stroke="#A7A9B2" stroke-width="0.6" stroke-linejoin="round"/>
<path d="M176.703 332.674V332.686" stroke="#A7A9B2" stroke-width="0.6" stroke-linejoin="round"/>
<path d="M176.703 332.484V332.674" stroke="#A7A9B2" stroke-width="0.6" stroke-linejoin="round"/>
<path d="M176.703 332.473V332.485" stroke="#A7A9B2" stroke-width="0.6" stroke-linejoin="round"/>
<path d="M191.031 339.835V339.652" stroke="#A7A9B2" stroke-width="0.6" stroke-linejoin="round"/>
<path d="M205.367 332.588V332.575" stroke="#A7A9B2" stroke-width="0.6" stroke-linejoin="round"/>
<path d="M205.367 332.776V332.587" stroke="#A7A9B2" stroke-width="0.6" stroke-linejoin="round"/>
<path d="M205.367 332.788V332.775" stroke="#A7A9B2" stroke-width="0.6" stroke-linejoin="round"/>
<path d="M280.126 155.804L277.607 151.791L275.088 147.779L272.569 143.767L270.05 139.754L267.531 135.742L265.012 131.729L262.493 127.717L259.974 123.704L257.455 119.691L254.936 115.679L252.417 111.667L249.898 107.654L247.379 103.642L244.86 99.6291L242.342 95.6168L239.823 91.6045L239.204 90.6186L238.102 88.8633" stroke="#A7A9B2" stroke-width="0.6" stroke-linejoin="round"/>
<path d="M319.281 275.635V275.633" stroke="#A7A9B2" stroke-width="0.6" stroke-linejoin="round"/>
<path d="M319.281 275.641V275.635" stroke="#A7A9B2" stroke-width="0.6" stroke-linejoin="round"/>
<path d="M319.281 275.643V275.641" stroke="#A7A9B2" stroke-width="0.6" stroke-linejoin="round"/>
<path d="M319.281 275.644V275.642" stroke="#A7A9B2" stroke-width="0.6" stroke-linejoin="round"/>
<path d="M319.281 275.683V275.645" stroke="#A7A9B2" stroke-width="0.6" stroke-linejoin="round"/>
<path d="M319.281 275.781V275.683" stroke="#A7A9B2" stroke-width="0.6" stroke-linejoin="round"/>
<path d="M319.281 275.782V275.781" stroke="#A7A9B2" stroke-width="0.6" stroke-linejoin="round"/>
<path d="M319.281 275.785V275.781" stroke="#A7A9B2" stroke-width="0.6" stroke-linejoin="round"/>
<path d="M319.281 275.791V275.784" stroke="#A7A9B2" stroke-width="0.6" stroke-linejoin="round"/>
<path d="M319.281 275.792V275.79" stroke="#A7A9B2" stroke-width="0.6" stroke-linejoin="round"/>
<path d="M319.281 275.797V275.791" stroke="#A7A9B2" stroke-width="0.6" stroke-linejoin="round"/>
<path d="M319.281 275.797V275.795" stroke="#A7A9B2" stroke-width="0.6" stroke-linejoin="round"/>
<path d="M319.281 275.804V275.798" stroke="#A7A9B2" stroke-width="0.6" stroke-linejoin="round"/>
<path d="M319.281 275.823V275.804" stroke="#A7A9B2" stroke-width="0.6" stroke-linejoin="round"/>
<path d="M363.534 151.586L359.336 153.781L355.137 155.976L350.939 158.171L346.74 160.365L342.542 162.56L338.343 164.755L334.144 166.95L329.946 169.145L325.747 171.34L321.549 173.534L317.35 175.729L316.359 176.248" stroke="#A7A9B2" stroke-width="0.6" stroke-linejoin="round"/>
</svg>
