<svg width="370" height="357" viewBox="0 0 370 357" fill="none" xmlns="http://www.w3.org/2000/svg">
<path d="M239.563 188.321L243.8 190.44L248.038 192.559L252.275 194.677L256.513 196.796L260.75 198.915L264.987 201.033L269.225 203.152L273.463 205.271L277.7 207.39L281.937 209.509L286.175 211.627L290.412 213.746L294.65 215.865L298.887 217.983L303.125 220.102L307.362 222.221L311.6 224.34L315.837 226.458L320.075 228.577L324.312 230.696L328.549 232.814L332.787 234.933L337.024 237.052L341.262 239.171L345.499 241.289L349.737 243.408L353.974 245.527L358.212 247.645L361.969 249.524L363.356 249.823L364.647 249.335L367.864 247.745L368.971 246.489L368.973 241.751L368.975 237.014L368.976 232.276L368.978 227.538L368.98 222.801L368.982 218.063L368.984 213.326L368.986 208.588L368.988 203.85L368.99 199.113L368.992 194.375L368.993 189.637L368.995 184.9L368.997 180.162L368.999 175.425L369.001 170.687L369.002 165.949L369.004 161.212L369.006 156.474L369.007 154.34L368.745 152.377L367.973 150.689L366.736 149.569L362.498 147.45L358.261 145.331L354.024 143.213L349.786 141.094L345.549 138.975L341.311 136.856L337.074 134.737L332.836 132.619L328.599 130.5L324.361 128.381L320.124 126.263L315.887 124.144L311.649 122.025L307.411 119.906L303.174 117.788L298.936 115.669L294.699 113.55L290.462 111.432L286.224 109.313L281.987 107.194L277.749 105.075L273.512 102.956L269.275 100.838L265.037 98.7192L260.799 96.6005L256.562 94.4818L252.324 92.3632L248.087 90.244L243.85 88.1254L241.293 86.8471L240.161 86.7822L236.949 88.6413L236.228 89.3879L235.981 91.0513L235.98 95.7889L235.978 100.527L235.976 105.264L235.974 110.002L235.972 114.739L235.97 119.477L235.969 124.215L235.967 128.952L235.965 133.69L235.963 138.428L235.961 143.165L235.959 147.903L235.957 152.64L235.955 157.378L235.953 162.116L235.952 166.853L235.95 171.591L235.948 176.329L235.946 181.066L235.945 183.188L237.009 185.515L238.243 187.266L239.563 188.321Z" stroke="#A7A9B2" stroke-width="1.2" stroke-linejoin="round"/>
<path d="M198.294 199.56L194.056 201.678L189.819 203.798L185.581 205.916L181.344 208.035L177.106 210.154L172.869 212.272L168.632 214.391L164.394 216.51L160.156 218.628L155.919 220.747L151.682 222.866L147.444 224.985L143.207 227.103L138.969 229.222L134.732 231.341L130.494 233.459L126.257 235.578L122.02 237.697L117.782 239.816L113.544 241.934L109.307 244.053L105.07 246.172L100.832 248.29L96.5946 250.41L92.3573 252.528L88.12 254.647L85.7644 255.825L84.2848 256.931L83.7656 258.237V262.176L84.2848 263.482L85.7644 264.589L90.0017 266.707L94.2391 268.826L98.4769 270.945L102.714 273.064L106.952 275.183L111.189 277.301L115.427 279.42L119.664 281.539L123.901 283.657L128.139 285.776L132.376 287.895L136.614 290.014L140.851 292.132L145.089 294.251L149.326 296.37L153.564 298.488L157.801 300.607L162.039 302.726L166.276 304.845L170.513 306.964L174.751 309.082L177.597 310.505L179.811 311.245L182.423 311.505L185.034 311.245L187.249 310.505L191.486 308.387L195.723 306.268L199.961 304.149L204.198 302.03L208.436 299.912L212.673 297.793L216.91 295.674L221.148 293.556L225.386 291.437L229.623 289.318L233.861 287.2L238.098 285.08L242.335 282.962L246.573 280.843L250.81 278.724L255.048 276.606L259.285 274.487L263.522 272.368L267.76 270.249L271.998 268.131L276.235 266.012L280.473 263.893L284.71 261.775L288.947 259.656L293.185 257.537L297.423 255.418L299.778 254.241L301.257 253.134L301.777 251.828V247.889L301.257 246.583L299.778 245.476L295.54 243.358L291.303 241.239L287.066 239.12L282.828 237.002L278.59 234.882L274.353 232.764L270.116 230.645L265.878 228.526L261.641 226.408L257.403 224.289L253.166 222.171L248.928 220.051L244.691 217.933L240.454 215.814L236.216 213.695L231.978 211.577L227.741 209.458L223.504 207.339L219.266 205.221L215.029 203.102L210.791 200.983L207.945 199.56L205.731 198.82L203.119 198.561L200.508 198.82L198.294 199.56Z" stroke="#A7A9B2" stroke-width="1.2" stroke-linejoin="round"/>
<path d="M29.6764 244.646V243.812L25.439 241.693L21.2017 239.574L16.9639 237.456L15.346 236.646L11.1087 238.766L6.87135 240.884L2.63354 243.003L1.01562 243.812V248.55V253.287V258.025V261.363L5.25297 263.482L9.49029 265.6L13.7281 267.719L15.346 268.528L19.5833 266.41L23.8211 264.291L28.0585 262.172L29.6764 261.363V259.172" stroke="#A7A9B2" stroke-width="1.2" stroke-linejoin="round"/>
<path d="M304.953 282.994V285.083L309.19 287.203L313.428 289.321L317.665 291.44L319.283 292.249L323.521 290.13L327.758 288.011L331.996 285.893L333.614 285.083V280.346V275.608V270.871V267.532L329.377 265.414L325.139 263.295L320.901 261.176L319.283 260.367L315.046 262.486L310.808 264.605L306.571 266.723L304.953 267.532V272.27V277.008V281.745V282.783" stroke="#A7A9B2" stroke-width="1.2" stroke-linejoin="round"/>
<path d="M77.6173 188.114L73.3804 185.994L69.5424 184.074L66.5938 182.599" stroke="#A7A9B2" stroke-width="1.2" stroke-linejoin="round"/>
<path d="M77.5547 188.281L81.792 190.401L85.6295 192.321L87.3578 193.186" stroke="#A7A9B2" stroke-width="1.2" stroke-linejoin="round"/>
<path d="M102.141 208.415L97.9041 210.534L95.3382 211.817L91.1009 213.936L86.8635 216.054L85.5706 216.701L81.3338 218.821L77.0965 220.94L74.486 222.246L70.2492 224.365L66.0118 226.484L62.7969 228.093" stroke="#A7A9B2" stroke-width="1.2" stroke-linejoin="round"/>
<path d="M29.6797 244.857L30.2136 244.59L34.4509 242.471L38.6883 240.352L39.9812 239.705L44.2185 237.586L48.4554 235.467L51.0658 234.161L55.3026 232.042L59.54 229.922L62.8085 228.287L62.8355 228.273" stroke="#A7A9B2" stroke-width="1.2" stroke-linejoin="round"/>
<path d="M103.334 295.792L103.284 295.768L99.047 293.648L94.8097 291.529L90.5724 289.411L86.335 287.291L82.0977 285.172L81.5159 284.881L77.2786 282.762L73.0413 280.643L68.8039 278.524L64.5666 276.405L60.9684 274.606L56.731 272.486L52.4937 270.368L48.2564 268.249L44.019 266.129L42.8621 265.551L38.6248 263.432L34.3875 261.314L30.1497 259.195L29.6797 258.96" stroke="#A7A9B2" stroke-width="1.2" stroke-linejoin="round"/>
<path d="M103.211 295.937L107.448 298.056L111.686 300.175L115.923 302.294L120.16 304.413L124.398 306.532L124.979 306.823L129.217 308.942L133.454 311.061L137.691 313.18L141.928 315.299L145.527 317.099L149.764 319.218L154.002 321.336L158.239 323.456L162.476 325.575L163.633 326.153L167.87 328.272L172.108 330.39L176.345 332.509L176.698 332.685" stroke="#A7A9B2" stroke-width="1.2" stroke-linejoin="round"/>
<path d="M304.951 282.784L300.713 284.903L299.246 285.637L295.008 287.756L290.771 289.875L286.534 291.994L286.044 292.239L281.806 294.358L277.569 296.477L273.332 298.596L271.061 299.732L266.824 301.851L262.587 303.97L258.349 306.09L255.189 307.67L250.951 309.789L246.713 311.907L242.476 314.025L239.316 315.605L235.079 317.723L230.841 319.841L226.604 321.959L224.334 323.093L220.096 325.212L215.859 327.33L211.621 329.449L211.132 329.693L206.895 331.812L205.367 332.576" stroke="#A7A9B2" stroke-width="1.2" stroke-linejoin="round"/>
<path d="M255.273 307.829L259.511 305.711L263.749 303.592L267.987 301.474L271.128 299.904L275.366 297.785L279.603 295.667L283.841 293.549L286.11 292.415L290.348 290.296L294.585 288.178L298.823 286.059L299.313 285.815L303.55 283.696L304.954 282.994" stroke="#A7A9B2" stroke-width="1.2" stroke-linejoin="round"/>
<path d="M205.367 332.785L209.605 330.667L211.196 329.871L215.434 327.752L219.671 325.633L223.908 323.514L224.398 323.269L228.636 321.149L232.873 319.03L237.11 316.911L239.38 315.776L243.618 313.656L247.855 311.537L252.092 309.418L255.253 307.837L255.271 307.828" stroke="#A7A9B2" stroke-width="1.2" stroke-linejoin="round"/>
<path d="M176.701 332.473L172.463 330.354L168.226 328.236L163.989 326.117L163.701 325.973L159.463 323.854L155.225 321.736L150.988 319.617L146.75 317.499L145.594 316.921L141.357 314.803L137.119 312.684L132.881 310.566L128.644 308.447L125.047 306.649L120.809 304.531L116.572 302.412L112.334 300.294L108.096 298.176L103.859 296.057L103.328 295.792" stroke="#A7A9B2" stroke-width="1.2" stroke-linejoin="round"/>
<path d="M29.6797 259.171L33.9175 261.29L38.1548 263.409L42.3922 265.527L42.7982 265.73L47.036 267.849L51.2733 269.967L55.5111 272.086L59.7484 274.204L60.9044 274.782L65.1422 276.901L69.3796 279.019L73.6174 281.137L77.8547 283.256L81.452 285.054L85.6898 287.173L89.9271 289.291L94.1649 291.409L98.4027 293.528L102.64 295.646L103.22 295.936" stroke="#A7A9B2" stroke-width="1.2" stroke-linejoin="round"/>
<path d="M62.798 228.093L62.7445 228.119L58.5067 230.238L54.2689 232.356L51.0014 233.988L46.7636 236.106L42.5258 238.225L39.9172 239.529L35.6794 241.647L31.4416 243.765L30.1497 244.412L29.6797 244.646" stroke="#A7A9B2" stroke-width="1.2" stroke-linejoin="round"/>
<path d="M62.8359 228.274L67.0737 226.156L71.3115 224.038L74.5521 222.418L78.7899 220.3L83.0272 218.182L85.6362 216.878L89.874 214.759L94.1118 212.641L95.4038 211.995L99.6411 209.876L102.355 208.52" stroke="#A7A9B2" stroke-width="1.2" stroke-linejoin="round"/>
<path d="M87.344 192.974L85.6915 192.148L81.4537 190.03L77.6172 188.113" stroke="#A7A9B2" stroke-width="1.2" stroke-linejoin="round"/>
<path d="M66.5938 182.807L69.4785 184.248L73.7163 186.366L77.5528 188.283" stroke="#A7A9B2" stroke-width="1.2" stroke-linejoin="round"/>
<path d="M77.6173 188.114L73.3804 185.994L69.5424 184.074L66.5938 182.599" stroke="#A7A9B2" stroke-width="1.2" stroke-linejoin="round"/>
<path d="M77.5547 188.281L81.792 190.401L85.6295 192.321L87.3578 193.186" stroke="#A7A9B2" stroke-width="1.2" stroke-linejoin="round"/>
<path d="M102.141 208.415L97.9041 210.534L95.3382 211.817L91.1009 213.936L86.8635 216.054L85.5706 216.701L81.3338 218.821L77.0965 220.94L74.486 222.246L70.2492 224.365L66.0118 226.484L62.7969 228.093" stroke="#A7A9B2" stroke-width="1.2" stroke-linejoin="round"/>
<path d="M29.6797 244.857L30.2136 244.59L34.4509 242.471L38.6883 240.352L39.9812 239.705L44.2185 237.586L48.4554 235.467L51.0658 234.161L55.3026 232.042L59.54 229.922L62.8085 228.287L62.8355 228.273" stroke="#A7A9B2" stroke-width="1.2" stroke-linejoin="round"/>
<path d="M103.334 295.792L103.284 295.768L99.047 293.648L94.8097 291.529L90.5724 289.411L86.335 287.291L82.0977 285.172L81.5159 284.881L77.2786 282.762L73.0413 280.643L68.8039 278.524L64.5666 276.405L60.9684 274.606L56.731 272.486L52.4937 270.368L48.2564 268.249L44.019 266.129L42.8621 265.551L38.6248 263.432L34.3875 261.314L30.1497 259.195L29.6797 258.96" stroke="#A7A9B2" stroke-width="1.2" stroke-linejoin="round"/>
<path d="M103.211 295.937L107.448 298.056L111.686 300.175L115.923 302.294L120.16 304.413L124.398 306.532L124.979 306.823L129.217 308.942L133.454 311.061L137.691 313.18L141.928 315.299L145.527 317.099L149.764 319.218L154.002 321.336L158.239 323.456L162.476 325.575L163.633 326.153L167.87 328.272L172.108 330.39L176.345 332.509L176.698 332.685" stroke="#A7A9B2" stroke-width="1.2" stroke-linejoin="round"/>
<path d="M304.951 282.784L300.713 284.903L299.246 285.637L295.008 287.756L290.771 289.875L286.534 291.994L286.044 292.239L281.806 294.358L277.569 296.477L273.332 298.596L271.061 299.732L266.824 301.851L262.587 303.97L258.349 306.09L255.189 307.67L250.951 309.789L246.713 311.907L242.476 314.025L239.316 315.605L235.079 317.723L230.841 319.841L226.604 321.959L224.334 323.093L220.096 325.212L215.859 327.33L211.621 329.449L211.132 329.693L206.895 331.812L205.367 332.576" stroke="#A7A9B2" stroke-width="1.2" stroke-linejoin="round"/>
<path d="M255.273 307.829L259.511 305.711L263.749 303.592L267.987 301.474L271.128 299.904L275.366 297.785L279.603 295.667L283.841 293.549L286.11 292.415L290.348 290.296L294.585 288.178L298.823 286.059L299.313 285.815L303.55 283.696L304.954 282.994" stroke="#A7A9B2" stroke-width="1.2" stroke-linejoin="round"/>
<path d="M205.367 332.785L209.605 330.667L211.196 329.871L215.434 327.752L219.671 325.633L223.908 323.514L224.398 323.269L228.636 321.149L232.873 319.03L237.11 316.911L239.38 315.776L243.618 313.656L247.855 311.537L252.092 309.418L255.253 307.837L255.271 307.828" stroke="#A7A9B2" stroke-width="1.2" stroke-linejoin="round"/>
<path d="M176.701 332.473L172.463 330.354L168.226 328.236L163.989 326.117L163.701 325.973L159.463 323.854L155.225 321.736L150.988 319.617L146.75 317.499L145.594 316.921L141.357 314.803L137.119 312.684L132.881 310.566L128.644 308.447L125.047 306.649L120.809 304.531L116.572 302.412L112.334 300.294L108.096 298.176L103.859 296.057L103.328 295.792" stroke="#A7A9B2" stroke-width="1.2" stroke-linejoin="round"/>
<path d="M29.6797 259.171L33.9175 261.29L38.1548 263.409L42.3922 265.527L42.7982 265.73L47.036 267.849L51.2733 269.967L55.5111 272.086L59.7484 274.204L60.9044 274.782L65.1422 276.901L69.3796 279.019L73.6174 281.137L77.8547 283.256L81.452 285.054L85.6898 287.173L89.9271 289.291L94.1649 291.409L98.4027 293.528L102.64 295.646L103.22 295.936" stroke="#A7A9B2" stroke-width="1.2" stroke-linejoin="round"/>
<path d="M62.798 228.093L62.7445 228.119L58.5067 230.238L54.2689 232.356L51.0014 233.988L46.7636 236.106L42.5258 238.225L39.9172 239.529L35.6794 241.647L31.4416 243.765L30.1497 244.412L29.6797 244.646" stroke="#A7A9B2" stroke-width="1.2" stroke-linejoin="round"/>
<path d="M62.8359 228.274L67.0737 226.156L71.3115 224.038L74.5521 222.418L78.7899 220.3L83.0272 218.182L85.6362 216.878L89.874 214.759L94.1118 212.641L95.4038 211.995L99.6411 209.876L102.355 208.52" stroke="#A7A9B2" stroke-width="1.2" stroke-linejoin="round"/>
<path d="M87.344 192.974L85.6915 192.148L81.4537 190.03L77.6172 188.113" stroke="#A7A9B2" stroke-width="1.2" stroke-linejoin="round"/>
<path d="M66.5938 182.807L69.4785 184.248L73.7163 186.366L77.5528 188.283" stroke="#A7A9B2" stroke-width="1.2" stroke-linejoin="round"/>
<path d="M205.364 332.575V331.655L201.126 329.537L196.889 327.418L192.651 325.299L191.033 324.49L186.796 326.609L182.558 328.728L178.321 330.846L176.703 331.655V332.474" stroke="#A7A9B2" stroke-width="1.2" stroke-linejoin="round"/>
<path d="M176.703 332.685V337.422V342.16V346.897V349.206L180.94 351.325L185.178 353.444L189.416 355.563L191.033 356.371L195.271 354.253L199.508 352.134L203.746 350.015L205.364 349.206V344.468V339.731V334.993V332.786" stroke="#A7A9B2" stroke-width="1.2" stroke-linejoin="round"/>
<path d="M66.5904 182.599V177.861V173.124V168.386V167.421L62.3531 165.301L58.1158 163.183L53.878 161.064L52.2601 160.255L48.0227 162.374L43.7854 164.493L39.5476 166.611L37.9297 167.421V172.158V176.896V181.633V184.972L42.167 187.09L46.4044 189.209L50.6422 191.328L52.2601 192.137L56.4974 190.018L60.7352 187.899L64.9725 185.781L66.5904 184.972V182.805" stroke="#A7A9B2" stroke-width="1.2" stroke-linejoin="round"/>
<path d="M87.3594 193.186L87.3997 193.925L87.4257 194.135L87.6702 195.599L87.9805 196.699L88.0544 196.915L88.4339 197.961L88.8778 198.94L89.3852 199.849L89.5467 200.088L90.119 200.929L90.7501 201.691L91.437 202.374L92.1775 202.972L92.612 203.318L93.4065 203.832L94.3199 204.383L95.9278 205.251L98.3388 206.495L99.1869 206.923L102.061 208.373L102.144 208.414" stroke="#A7A9B2" stroke-width="1.2" stroke-linejoin="round"/>
<path d="M102.352 208.52L104.942 209.804L107.383 210.986L109.043 211.752L110.032 212.152L110.917 212.486L111.842 212.728L112.375 212.867L113.331 213.015L114.317 213.069L115.332 213.029L115.621 213.015L116.653 212.882L117.885 212.567L118.115 212.493L120.438 211.557L124.736 209.564L124.941 209.469L129.202 207.399L132.699 205.7L136.946 203.601L141.193 201.501L144.252 199.989L148.492 197.875L152.732 195.762L156.973 193.648L157.973 193.15L162.208 191.025L166.443 188.902L170.677 186.778L171.694 186.267L175.922 184.13L180.15 181.992L183.247 180.426L187.46 178.259L191.005 176.437L195.181 174.198L195.507 174.023L195.662 173.934L197.978 172.552L199.195 171.647L200.211 170.763L201.202 169.81L201.292 169.72L202.245 168.715L203.167 167.651L204.055 166.531L204.905 165.36L205.713 164.143L206.476 162.887L207.19 161.595L207.853 160.274L208.462 158.929L209.014 157.565L209.507 156.189L209.939 154.806L210.307 153.421L210.611 152.037L210.664 151.673" stroke="#A7A9B2" stroke-width="1.2" stroke-linejoin="round"/>
<path d="M210.664 151.672L210.87 150.233L211.053 146.703L211.14 141.966L211.185 139.5L211.219 134.763L211.252 130.026L211.275 126.785L211.287 122.047L211.301 117.309L211.313 112.572L211.327 107.834L211.327 107.636L211.331 102.898L211.334 98.1604L211.338 93.4227L211.342 88.6851L211.345 84.8183L211.341 80.0806L211.338 75.343L211.334 70.6054L211.33 65.8678L211.327 62.018L211.314 57.2804L211.301 52.5427L211.288 47.8051L211.275 42.9216L211.241 38.1844L211.208 33.4468L211.185 30.2949L211.097 25.5582L211.053 23.2249L210.87 19.8787L210.844 19.6683L210.599 18.2044L210.289 17.1048L210.215 16.8878L209.836 15.8427L209.392 14.8634L208.884 13.9543L208.723 13.7155L208.151 12.8751L207.52 12.1123L206.833 11.4301L206.092 10.8317L205.658 10.4859L204.863 9.97186L203.95 9.42086L202.342 8.55247L199.931 7.30836L199.083 6.88055L196.208 5.43038L193.324 4.00104L190.882 2.81852L189.222 2.05292L188.234 1.65306L187.349 1.31858L186.424 1.0765L185.891 0.937686L184.935 0.790344L183.948 0.736328L182.934 0.776131L182.645 0.789866L181.613 0.922996L180.381 1.23758L180.151 1.31195L177.827 2.24763L173.529 4.24075L173.325 4.33551L169.064 6.40585L165.567 8.10476L161.32 10.2045L157.073 12.3037L154.014 13.8164L149.774 15.9294L145.533 18.0429L141.293 20.1563L140.293 20.6552L136.058 22.7791L131.823 24.903L127.589 27.0273L126.572 27.5371L122.344 29.6747L118.116 31.8128L115.019 33.3786L110.806 35.5451L107.26 37.3681L103.085 39.6071L102.758 39.7824L102.603 39.8705L100.287 41.253L99.071 42.1578L98.0553 43.0424L97.0637 43.9946L96.9742 44.0847L96.021 45.09L95.0986 46.1545L94.2107 47.2745L93.3612 48.4452L92.553 49.6613L91.7903 50.9182L91.0754 52.2097L90.4125 53.531L89.8033 54.8765L89.2514 56.2395L88.7587 57.6153L88.3271 58.9987L87.9585 60.3844L87.6543 61.7678L87.3966 63.5719L87.2137 67.1014L87.1265 71.8381L87.0811 74.3036L87.0479 79.0412L87.0147 83.7788L86.992 87.0194L86.9792 91.757L86.9659 96.4946L86.9531 101.232L86.9399 105.97L86.9394 106.169L86.9356 110.906L86.9318 115.644L86.9285 120.382L86.9247 125.119L86.9219 128.986L86.9257 133.724L86.929 138.461L86.9328 143.199L86.9366 147.937L86.9394 151.786L86.9527 156.524L86.9655 161.261L86.9787 165.999L86.992 170.882L87.0256 175.62L87.0588 180.358L87.0811 183.509L87.1697 188.246L87.2132 190.58L87.3445 192.975" stroke="#A7A9B2" stroke-width="1.2" stroke-linejoin="round"/>
<path d="M29.6797 258.961V254.224V249.486V244.858" stroke="#A7A9B2" stroke-width="1.2" stroke-linejoin="round"/>
</svg>
