<svg width="620" height="440" viewBox="0 0 620 440" fill="none" xmlns="http://www.w3.org/2000/svg">
<path d="M357.827 230.115C398.614 250.501 439.425 270.912 480.211 291.299L481.609 291.606C482.959 291.156 484.854 290.138 486.109 289.523L487.222 288.268C487.222 267.786 487.246 247.186 487.246 226.705C487.246 219.673 487.246 212.427 487.246 205.395C487.151 201.819 487.507 197.747 486.986 194.195L486.204 192.514L484.972 191.401C443.167 170.517 401.338 149.61 359.532 128.702L358.396 128.631C357.661 129.057 355.909 130.075 355.174 130.478L354.464 131.235C354.227 132.159 354.179 134.314 354.227 135.261C354.227 137.368 354.227 140.257 354.227 142.364C354.227 149.396 354.227 156.642 354.227 163.674C354.227 184.085 354.203 204.59 354.203 225L355.198 227.155L355.269 227.321L356.501 229.073L357.827 230.115Z" stroke="#A7A9B2" stroke-width="1.2" stroke-linejoin="round"/>
<path d="M357.827 230.115C398.614 250.501 439.425 270.912 480.211 291.299L481.609 291.606C482.959 291.156 484.854 290.138 486.109 289.523L487.222 288.268C487.222 267.786 487.246 247.186 487.246 226.705C487.246 219.673 487.246 212.427 487.246 205.395C487.151 201.819 487.507 197.747 486.986 194.195L486.204 192.514L484.972 191.401C443.167 170.517 401.338 149.61 359.532 128.702L358.396 128.631C357.661 129.057 355.909 130.075 355.174 130.478L354.464 131.235C354.227 132.159 354.179 134.314 354.227 135.261C354.227 137.368 354.227 140.257 354.227 142.364C354.227 149.396 354.227 156.642 354.227 163.674C354.227 184.085 354.203 204.59 354.203 225L355.198 227.155L355.269 227.321L356.501 229.073L357.827 230.115Z" stroke="#A7A9B2" stroke-width="0.6" stroke-linejoin="round"/>
<path d="M355.203 130.478L356.34 130.691C398.145 151.575 439.975 172.482 481.78 193.39L483.012 194.361L483.77 195.852C483.983 196.871 484.077 199.073 484.03 200.138C484.03 202.245 484.03 205.134 484.03 207.242C484.03 214.274 484.03 221.519 484.03 228.552C484.03 248.962 484.006 269.467 484.006 289.878L482.893 291.109" stroke="#A7A9B2" stroke-width="0.6" stroke-linejoin="round"/>
<path d="M416.877 210.96C415.598 209.16 413.655 207.408 411.334 207.36L410.695 207.432L410.102 207.621L409.558 207.929L409.084 208.355L408.681 208.876C406.644 212.664 409.013 218.016 412.045 220.644C413.49 221.851 415.692 222.822 417.421 221.662C417.966 223.746 419.956 225.332 422.087 225.521L422.609 225.474L423.082 225.308L423.509 225.024L423.888 224.598C425.261 222.183 424.717 218.797 424.432 216.169C423.414 209.278 418.866 203.122 412.329 200.541C408.208 199.002 404.323 200.683 402.973 204.945C401.86 208.213 402.31 211.978 403.281 215.245C404.702 219.791 407.426 224.172 411.216 227.108C413.679 228.955 417.066 230.375 420.122 229.239C420.003 228.978 419.743 228.434 419.624 228.15" stroke="#A7A9B2" stroke-width="0.6" stroke-linejoin="round"/>
<path d="M420.072 229.144C419.812 228.576 419.386 227.652 419.125 227.061" stroke="#A7A9B2" stroke-width="0.6" stroke-linejoin="round"/>
<path d="M418.789 226.303C418.931 226.611 419.144 227.108 419.286 227.416" stroke="#A7A9B2" stroke-width="0.6" stroke-linejoin="round"/>
<path d="M419.408 227.699C419.219 227.297 418.958 226.705 418.769 226.302C416.329 227.202 413.629 226.089 411.663 224.598C408.631 222.253 406.452 218.749 405.315 215.126C404.557 212.593 404.226 209.704 404.984 207.123C405.884 204.092 408.466 202.34 411.616 203.098C416.685 204.59 420.782 209.065 421.919 214.203C422.345 216.405 422.866 219.886 422.085 222.017L421.919 222.277L421.706 222.443L421.469 222.538L421.209 222.561C419.456 222.348 419.243 221.188 419.172 219.672C419.077 216.831 419.148 213.54 419.124 210.699L417.016 209.633L416.898 209.562C416.898 209.917 416.898 210.367 416.898 210.722" stroke="#A7A9B2" stroke-width="0.6" stroke-linejoin="round"/>
<path d="M418.891 226.516C419.08 226.942 419.412 227.676 419.625 228.102" stroke="#A7A9B2" stroke-width="0.6" stroke-linejoin="round"/>
<path d="M415.213 212.072C416.563 213.777 417.653 216.713 416.184 218.631L415.9 218.891L415.568 219.081L415.213 219.199L414.834 219.247C411.684 219.105 409.102 213.966 410.618 211.267L410.855 210.959L411.139 210.699L411.471 210.51L411.826 210.391L412.205 210.344C413.413 210.344 414.479 211.196 415.213 212.072Z" stroke="#A7A9B2" stroke-width="0.6" stroke-linejoin="round"/>
<path d="M416.875 209.633C416.875 210.059 416.875 210.556 416.875 210.982" stroke="#A7A9B2" stroke-width="0.6" stroke-linejoin="round"/>
<path d="M356.359 130.69C398.165 151.574 439.994 172.482 481.799 193.39" stroke="#A7A9B2" stroke-width="0.6" stroke-linejoin="round"/>
<path d="M448.422 259.167C455.67 262.79 463.083 266.508 470.331 270.107C470.331 264.874 470.331 259.333 470.331 254.1C463.083 250.478 455.67 246.76 448.422 243.161C448.422 248.37 448.422 253.935 448.422 259.167Z" stroke="#A7A9B2" stroke-width="0.6" stroke-linejoin="round"/>
<path d="M447.41 238.662L447.221 237.691L445.516 236.839V238.544L446.25 239.136L446.771 240.059L446.96 241.03L446.771 241.811L446.25 242.19L445.516 242.072V244.203L446.25 244.795L446.771 245.718L446.96 246.689L446.771 247.47L446.25 247.849L445.516 247.731V249.862L446.25 250.454L446.771 251.377L446.96 252.348L446.771 253.129L446.25 253.508L445.516 253.39V255.521L446.25 256.113L446.771 257.036L446.96 258.007L446.771 258.788L446.25 259.167L445.516 259.049V260.943L447.221 261.795L447.41 261.014L447.932 260.635L448.666 260.754L449.4 261.346L449.921 262.269L450.111 263.24L451.84 264.116L452.029 263.335L452.55 262.956L453.285 263.074L454.019 263.666L454.54 264.589L454.729 265.56L456.459 266.436L456.648 265.655L457.169 265.276L457.903 265.394L458.638 265.986L459.159 266.91L459.348 267.881L461.077 268.757L461.267 267.975L461.788 267.597L462.522 267.715L463.256 268.307L463.777 269.23L463.967 270.201L465.696 271.077L465.885 270.296L466.407 269.917L467.141 270.035L467.875 270.627L468.396 271.551L468.586 272.522L470.315 273.398L470.504 272.616L471.025 272.237L471.759 272.356L472.494 272.948L473.015 273.871L473.204 274.842L474.815 275.647V273.753L474.081 273.161L473.56 272.237L473.37 271.267L473.56 270.485L474.081 270.106L474.815 270.225V268.094L474.081 267.502L473.56 266.578L473.37 265.608L473.56 264.826L474.081 264.447L474.815 264.566V262.435L474.081 261.843L473.56 260.919L473.37 259.949L473.56 259.167L474.081 258.788L474.815 258.907V256.776L474.081 256.184L473.56 255.26L473.37 254.29L473.56 253.508L474.081 253.129L474.815 253.248V251.543L473.204 250.738L473.015 251.519L472.494 251.898L471.759 251.78L471.025 251.188L470.504 250.264L470.315 249.293L468.586 248.417L468.396 249.199L467.875 249.578L467.141 249.459L466.407 248.867L465.885 247.944L465.696 246.973L463.967 246.097L463.777 246.878L463.256 247.257L462.522 247.139L461.788 246.547L461.267 245.623L461.077 244.653L459.348 243.777L459.159 244.558L458.638 244.937L457.903 244.818L457.169 244.226L456.648 243.303L456.459 242.332L454.729 241.456L454.54 242.237L454.019 242.616L453.285 242.498L452.55 241.906L452.029 240.983L451.84 240.012L450.111 239.136L449.921 239.917L449.4 240.296L448.666 240.177L447.932 239.586L447.41 238.662Z" stroke="#A7A9B2" stroke-width="0.6" stroke-linejoin="round"/>
<path d="M451.838 264.116L450.109 263.24" stroke="#A7A9B2" stroke-width="0.6" stroke-linejoin="round"/>
<path d="M424.833 236.46C429.901 233.832 431.346 227.534 431.109 222.253C430.588 212.427 425.662 202.601 418.082 196.302C410.171 189.767 399.868 189.838 397.168 201.204C394.775 212.711 401.336 226.776 410.526 233.737C414.316 236.555 419.503 238.662 424.169 236.792C425.638 236.081 427.675 235.11 429.096 234.329C430.138 233.69 431.133 232.766 431.867 231.796C435.302 226.989 435.207 220.572 434.023 215.008C431.796 204.921 423.98 192.68 413.321 190.312C408.939 189.459 406.666 191.046 402.947 192.916" stroke="#A7A9B2" stroke-width="0.6" stroke-linejoin="round"/>
<path d="M398.402 197.675C384.403 175.371 370.358 153.019 356.359 130.714" stroke="#A7A9B2" stroke-width="0.6" stroke-linejoin="round"/>
<path d="M481.776 193.391C466.073 201.607 450.274 209.87 434.547 218.063" stroke="#A7A9B2" stroke-width="0.6" stroke-linejoin="round"/>
</svg>
