<svg width="620" height="440" viewBox="0 0 620 440" fill="none" xmlns="http://www.w3.org/2000/svg">
<path d="M222.247 288.551C218.055 290.682 213.531 292.932 209.362 295.086C207.302 296.199 204.602 297.359 202.707 298.733C202.588 298.875 202.399 299.183 202.328 299.348L202.233 299.68C202.162 300.935 202.162 303.019 202.233 304.273C202.304 304.581 202.494 304.96 202.707 305.221C204.815 306.736 207.752 307.967 210.002 309.222C214.265 311.377 218.813 313.697 223.076 315.828C234.801 321.724 246.667 327.667 258.416 333.516C267.345 337.967 276.441 342.513 285.394 346.917C288.236 348.314 291.505 349.925 294.371 351.298C295.839 351.961 297.734 353.026 299.368 353.074C300.624 353.192 301.974 353.145 303.205 352.884C305.716 352.032 308.535 350.469 310.927 349.356C318.649 345.591 326.489 341.661 334.186 337.849C352.353 328.804 370.568 319.688 388.711 310.595C395.154 307.375 401.809 304.013 408.252 300.769C410.218 299.775 412.847 298.425 414.789 297.431C416.068 296.744 418.2 295.773 419.337 294.85C419.455 294.708 419.645 294.4 419.716 294.234L419.811 293.902C419.882 292.648 419.882 290.564 419.811 289.309L419.716 288.977C419.645 288.812 419.455 288.504 419.337 288.362C418.247 287.462 415.997 286.444 414.742 285.757C412.61 284.644 409.934 283.295 407.802 282.206C401.596 279.056 395.154 275.836 388.948 272.711C371.563 263.997 354.083 255.26 336.65 246.641C332.505 244.7 328.218 242.261 323.907 240.674C322.249 240.343 320.472 240.343 318.814 240.674C317.938 240.888 316.185 241.787 315.356 242.142C284.233 257.391 253.252 273.042 222.247 288.551Z" stroke="#A7A9B2" stroke-width="0.6" stroke-linejoin="round"/>
<path d="M202.18 300.013L202.203 300.344L202.298 300.676C202.369 300.841 202.559 301.149 202.677 301.291C204.785 302.807 207.722 304.038 209.972 305.293C214.236 307.447 218.783 309.768 223.047 311.899C234.771 317.795 246.638 323.738 258.386 329.586C267.316 334.038 276.411 338.584 285.364 342.988C288.206 344.385 291.475 345.995 294.341 347.369C295.81 348.031 297.704 349.097 299.339 349.144C300.594 349.263 301.944 349.215 303.176 348.955C305.687 348.103 308.505 346.54 310.897 345.427C318.619 341.662 326.459 337.732 334.157 333.919C352.324 324.874 370.538 315.758 388.682 306.666C395.124 303.446 401.78 300.084 408.222 296.84C410.188 295.845 412.817 294.496 414.76 293.501C416.039 292.814 418.17 291.844 419.307 290.92C419.426 290.778 419.615 290.47 419.686 290.305L419.781 289.973L419.805 289.642" stroke="#A7A9B2" stroke-width="0.6" stroke-linejoin="round"/>
<path d="M240.125 289.049C267.174 302.569 294.294 316.137 321.367 329.657C348.416 316.137 375.537 302.569 402.609 289.049C375.56 275.529 348.44 261.962 321.367 248.441C294.294 261.962 267.198 275.505 240.125 289.049Z" stroke="#A7A9B2" stroke-width="0.6" stroke-linejoin="round"/>
<path d="M232.802 292.695L231.973 293.121L231.594 293.666L232.162 294.258C258.406 307.376 284.697 320.517 310.941 333.635L312.102 333.919L313.191 333.729L314.02 333.303L314.399 332.758L313.831 332.166C287.587 319.049 261.296 305.908 235.052 292.79L233.868 292.506L232.802 292.695Z" stroke="#A7A9B2" stroke-width="0.6" stroke-linejoin="round"/>
<path d="M226.505 295.845L225.676 296.271L225.297 296.815L225.865 297.407C244.909 306.926 264.023 316.492 283.067 326.01L284.251 326.295L285.34 326.105L286.169 325.679L286.548 325.134L285.98 324.542C266.936 315.024 247.822 305.458 228.779 295.939L227.618 295.655L226.505 295.845Z" stroke="#A7A9B2" stroke-width="0.6" stroke-linejoin="round"/>
<path d="M342.377 283.935C342.472 283.935 344.959 283.863 344.959 283.863L347.232 284.148L349.056 284.763L350.288 285.663L350.856 286.8L350.738 288.078C348.062 295.56 345.314 303.232 342.614 310.691L341.879 311.875L340.695 312.727L339.156 313.201L337.356 313.248L335.413 312.869C331.197 311.212 326.934 308.749 322.86 306.807C316.583 303.658 310.069 300.414 303.793 297.289C297.516 294.14 291.002 290.896 284.726 287.77C281.149 285.876 277.052 284.171 273.641 282.017L272.883 281.046L272.978 280.146L273.925 279.365L275.654 278.773C281.836 277.897 288.35 277.565 294.555 276.926C296.663 276.736 299.529 276.476 301.637 276.287C304.03 276.026 307.038 275.789 309.406 276.263L311.23 276.878L312.462 277.778L313.03 278.915L312.912 280.193C312.225 282.111 311.277 284.763 310.591 286.681C321.178 285.829 331.86 284.882 342.377 283.935Z" stroke="#A7A9B2" stroke-width="0.6" stroke-linejoin="round"/>
<path d="M133.609 310.289C133.609 304.89 133.609 299.16 133.609 293.762" stroke="#A7A9B2" stroke-width="0.6" stroke-linejoin="round"/>
<path d="M133.611 292.743C128.921 290.398 123.971 287.912 119.281 285.592" stroke="#A7A9B2" stroke-width="0.6" stroke-linejoin="round"/>
<path d="M147.941 286.421V285.592C143.251 283.248 138.301 280.762 133.611 278.441C128.921 280.786 123.971 283.272 119.281 285.592C119.281 291.346 119.281 297.384 119.281 303.138C123.971 305.482 128.921 307.968 133.611 310.288C138.301 307.944 143.251 305.458 147.941 303.138V300.935" stroke="#A7A9B2" stroke-width="0.6" stroke-linejoin="round"/>
<path d="M147.939 285.592C143.249 287.936 138.299 290.422 133.609 292.743V293.595" stroke="#A7A9B2" stroke-width="0.6" stroke-linejoin="round"/>
<path d="M437.523 334.014C437.523 328.639 437.523 322.956 437.523 317.581" stroke="#A7A9B2" stroke-width="0.6" stroke-linejoin="round"/>
<path d="M437.525 316.468C432.835 314.124 427.885 311.638 423.195 309.317" stroke="#A7A9B2" stroke-width="0.6" stroke-linejoin="round"/>
<path d="M423.195 324.756V326.84C427.885 329.184 432.835 331.67 437.525 333.99C442.215 331.646 447.165 329.16 451.855 326.84C451.855 321.086 451.855 315.048 451.855 309.294C447.165 306.95 442.215 304.464 437.525 302.144C432.835 304.488 427.885 306.974 423.195 309.294C423.195 314.267 423.195 319.571 423.195 324.543" stroke="#A7A9B2" stroke-width="0.6" stroke-linejoin="round"/>
<path d="M451.853 309.294C447.164 311.638 442.213 314.124 437.523 316.445V317.368" stroke="#A7A9B2" stroke-width="0.6" stroke-linejoin="round"/>
<path d="M309.289 398.087C309.289 392.688 309.289 386.958 309.289 381.56" stroke="#A7A9B2" stroke-width="0.6" stroke-linejoin="round"/>
<path d="M309.291 380.565C304.601 378.221 299.651 375.735 294.961 373.414" stroke="#A7A9B2" stroke-width="0.6" stroke-linejoin="round"/>
<path d="M323.621 374.313V373.39C318.931 371.046 313.981 368.56 309.291 366.239C304.601 368.583 299.651 371.07 294.961 373.39V374.219" stroke="#A7A9B2" stroke-width="0.6" stroke-linejoin="round"/>
<path d="M294.961 374.408C294.961 379.807 294.961 385.513 294.961 390.912C299.651 393.256 304.601 395.742 309.291 398.062C313.981 395.718 318.931 393.232 323.621 390.912C323.621 385.537 323.621 379.854 323.621 374.503" stroke="#A7A9B2" stroke-width="0.6" stroke-linejoin="round"/>
<path d="M323.619 373.39C318.929 375.734 313.979 378.22 309.289 380.54V381.369" stroke="#A7A9B2" stroke-width="0.6" stroke-linejoin="round"/>
<path d="M170.539 233.927C170.539 228.529 170.539 222.822 170.539 217.447" stroke="#A7A9B2" stroke-width="0.6" stroke-linejoin="round"/>
<path d="M170.533 216.381C165.843 214.037 160.893 211.551 156.203 209.23" stroke="#A7A9B2" stroke-width="0.6" stroke-linejoin="round"/>
<path d="M184.863 224.408C184.863 219.46 184.863 214.18 184.863 209.231C180.173 206.887 175.223 204.401 170.533 202.08C165.843 204.424 160.893 206.91 156.203 209.231C156.203 214.985 156.203 221.022 156.203 226.776C160.893 229.12 165.843 231.607 170.533 233.927C175.223 231.583 180.173 229.097 184.863 226.776V224.622" stroke="#A7A9B2" stroke-width="0.6" stroke-linejoin="round"/>
<path d="M184.869 209.23C180.179 211.575 175.229 214.061 170.539 216.381V217.234" stroke="#A7A9B2" stroke-width="0.6" stroke-linejoin="round"/>
<path d="M133.609 293.761V293.596" stroke="#A7A9B2" stroke-width="0.6" stroke-linejoin="round"/>
<path d="M147.938 286.61V286.421" stroke="#A7A9B2" stroke-width="0.6" stroke-linejoin="round"/>
<path d="M147.938 300.722C147.938 296.152 147.938 291.204 147.938 286.634" stroke="#A7A9B2" stroke-width="0.6" stroke-linejoin="round"/>
<path d="M170.539 217.423V217.233" stroke="#A7A9B2" stroke-width="0.6" stroke-linejoin="round"/>
<path d="M294.961 374.219V374.408" stroke="#A7A9B2" stroke-width="0.6" stroke-linejoin="round"/>
<path d="M309.289 381.559V381.369" stroke="#A7A9B2" stroke-width="0.6" stroke-linejoin="round"/>
<path d="M323.617 374.503V374.313" stroke="#A7A9B2" stroke-width="0.6" stroke-linejoin="round"/>
<path d="M437.523 317.439V317.392" stroke="#A7A9B2" stroke-width="0.6" stroke-linejoin="round"/>
<path d="M437.523 317.533V317.438" stroke="#A7A9B2" stroke-width="0.6" stroke-linejoin="round"/>
<path d="M222.247 288.551C218.055 290.682 213.531 292.932 209.362 295.086C207.302 296.199 204.602 297.359 202.707 298.733C202.588 298.875 202.399 299.183 202.328 299.348L202.233 299.68C202.162 300.935 202.162 303.019 202.233 304.273C202.304 304.581 202.494 304.96 202.707 305.221C204.815 306.736 207.752 307.967 210.002 309.222C214.265 311.377 218.813 313.697 223.076 315.828C234.801 321.724 246.667 327.667 258.416 333.516C267.345 337.967 276.441 342.513 285.394 346.917C288.236 348.314 291.505 349.925 294.371 351.298C295.839 351.961 297.734 353.026 299.368 353.074C300.624 353.192 301.974 353.145 303.205 352.884C305.716 352.032 308.535 350.469 310.927 349.356C318.649 345.591 326.489 341.661 334.186 337.849C352.353 328.804 370.568 319.688 388.711 310.595C395.154 307.375 401.809 304.013 408.252 300.769C410.218 299.775 412.847 298.425 414.789 297.431C416.068 296.744 418.2 295.773 419.337 294.85C419.455 294.708 419.645 294.4 419.716 294.234L419.811 293.902C419.882 292.648 419.882 290.564 419.811 289.309L419.716 288.977C419.645 288.812 419.455 288.504 419.337 288.362C418.247 287.462 415.997 286.444 414.742 285.757C412.61 284.644 409.934 283.295 407.802 282.206C401.596 279.056 395.154 275.836 388.948 272.711C371.563 263.997 354.083 255.26 336.65 246.641C332.505 244.7 328.218 242.261 323.907 240.674C322.249 240.343 320.472 240.343 318.814 240.674C317.938 240.888 316.185 241.787 315.356 242.142C284.233 257.391 253.252 273.042 222.247 288.551Z" stroke="#A7A9B2" stroke-width="1.2" stroke-linejoin="round"/>
<path d="M147.941 286.421V285.592C143.251 283.248 138.301 280.762 133.611 278.441C128.921 280.786 123.971 283.272 119.281 285.592C119.281 291.346 119.281 297.384 119.281 303.138C123.971 305.482 128.921 307.968 133.611 310.288C138.301 307.944 143.251 305.458 147.941 303.138V300.935" stroke="#A7A9B2" stroke-width="1.2" stroke-linejoin="round"/>
<path d="M423.195 324.756V326.84C427.885 329.184 432.835 331.67 437.525 333.99C442.215 331.646 447.165 329.16 451.855 326.84C451.855 321.086 451.855 315.048 451.855 309.294C447.165 306.95 442.215 304.464 437.525 302.144C432.835 304.488 427.885 306.974 423.195 309.294C423.195 314.267 423.195 319.571 423.195 324.543" stroke="#A7A9B2" stroke-width="1.2" stroke-linejoin="round"/>
<path d="M323.621 374.313V373.39C318.931 371.046 313.981 368.56 309.291 366.239C304.601 368.583 299.651 371.07 294.961 373.39V374.219" stroke="#A7A9B2" stroke-width="1.2" stroke-linejoin="round"/>
<path d="M294.961 374.408C294.961 379.807 294.961 385.513 294.961 390.912C299.651 393.256 304.601 395.742 309.291 398.062C313.981 395.718 318.931 393.232 323.621 390.912C323.621 385.537 323.621 379.854 323.621 374.503" stroke="#A7A9B2" stroke-width="1.2" stroke-linejoin="round"/>
<path d="M184.863 224.408C184.863 219.46 184.863 214.18 184.863 209.231C180.173 206.887 175.223 204.401 170.533 202.08C165.843 204.424 160.893 206.91 156.203 209.231C156.203 214.985 156.203 221.022 156.203 226.776C160.893 229.12 165.843 231.607 170.533 233.927C175.223 231.583 180.173 229.097 184.863 226.776V224.622" stroke="#A7A9B2" stroke-width="1.2" stroke-linejoin="round"/>
<path d="M147.938 300.722C147.938 296.152 147.938 291.204 147.938 286.634" stroke="#A7A9B2" stroke-width="1.2" stroke-linejoin="round"/>
<path d="M323.617 374.527C340.221 366.216 356.919 357.881 373.523 349.57C391.69 340.501 409.928 331.385 428.095 322.293" stroke="#A7A9B2" stroke-width="1.2" stroke-linejoin="round"/>
<path d="M141.664 297.787C168.263 311.094 194.886 324.377 221.485 337.684C245.953 349.926 270.491 362.191 294.958 374.409" stroke="#A7A9B2" stroke-width="1.2" stroke-linejoin="round"/>
<path d="M180.174 222.064C185.314 224.645 190.714 227.345 195.878 229.902C206.702 235.324 217.668 240.77 228.493 246.216L228.54 246.287L228.493 246.358C212.742 254.266 196.872 262.175 181.098 270.06C170.084 275.577 158.951 281.141 147.938 286.634" stroke="#A7A9B2" stroke-width="1.2" stroke-linejoin="round"/>
</svg>
