<svg width="620" height="440" viewBox="0 0 620 440" fill="none" xmlns="http://www.w3.org/2000/svg">
<path d="M238.906 252.992L241.433 254.216L243.757 255.338L245.475 256.131L246.498 256.544L248.898 257.499L251.371 258.287L251.926 258.431L254.467 259.049L257.072 259.497L259.737 259.774L262.458 259.88L265.227 259.814L265.528 259.799L268.337 259.563L271.185 259.155L274.067 258.578L276.977 257.832L279.909 256.918L280.135 256.845L283.078 255.768L286.033 254.528L288.992 253.127L291.952 251.568L292.133 251.464L295.08 249.753L298.016 247.891L300.936 245.882L303.832 243.728L306.701 241.433L309.537 239.003L312.334 236.442L315.087 233.755L315.179 233.661L317.875 230.86L320.517 227.944L322.695 225.392L323.1 224.918L323.854 223.98L325.617 221.787L326.16 221.073L328.067 218.558L330.442 215.237L330.6 215.002L332.739 211.831L334.954 208.345L337.081 204.786L337.276 204.439L339.118 201.162L341.06 197.479L342.904 193.744L344.646 189.964L346.282 186.146L347.81 182.298L349.227 178.427L350.529 174.54L351.716 170.645L352.783 166.749L353.73 162.86L354.554 158.984L355.029 156.371L355.254 155.13L355.28 154.959L355.829 151.305L355.849 151.17L356.298 147.37L356.62 143.614L356.813 139.907L356.877 136.259L356.813 132.674L356.62 129.161L356.508 127.969L356.298 125.726L356.274 125.524L355.823 122.165L355.246 118.898L354.542 115.727L353.713 112.661L353.672 112.532L352.833 109.925L352.762 109.703L352.685 109.476L351.609 106.627L350.415 103.898L349.102 101.295L347.675 98.8232L346.136 96.4863L345.967 96.2353L344.897 94.8093L344.315 94.0348L342.558 91.9783L341.906 91.3092L340.698 90.0699L338.739 88.3134L338.292 87.9571L336.235 86.3536L334.085 84.9084L333.142 84.3388L330.903 83.0529L329.238 82.1539L326.743 80.8666L323.769 79.3665L320.784 77.8875L318.257 76.6635L315.933 75.5409L314.215 74.7492L313.192 74.3354L310.792 73.3805L308.318 72.5927L307.764 72.4486L305.223 71.8304L302.618 71.3829L299.953 71.1059L297.232 71L294.463 71.0652L294.162 71.0804L291.353 71.3172L288.505 71.7245L285.623 72.3015L282.713 73.0476L279.78 73.9614L279.555 74.0349L276.612 75.1119L273.658 76.3517L270.698 77.7527L267.737 79.3116L267.557 79.4155L264.61 81.1259L261.674 82.9877L258.754 84.9976L255.858 87.1521L252.989 89.4463L250.61 91.4847L250.153 91.8763L247.356 94.4372L246.94 94.8441L244.603 97.1251L244.51 97.2187L241.815 100.02L239.173 102.936L236.59 105.962L234.072 109.093L233.411 109.965L231.623 112.321L231.541 112.436L229.248 115.642L226.951 119.049L224.736 122.534L222.608 126.093L220.572 129.717L218.63 133.401L216.786 137.136L215.044 140.916L213.408 144.733L211.88 148.581L210.463 152.452L209.16 156.339L207.974 160.234L207.932 160.386L206.907 164.13L205.96 168.02L205.136 171.895L204.436 175.749L203.861 179.575L203.841 179.709L203.645 181.366L203.392 183.509L203.07 187.266L202.877 190.972L202.813 194.58L202.812 194.621L202.877 198.205L203.07 201.719L203.392 205.153L203.416 205.355L203.866 208.714L203.987 209.395L204.444 211.982L205.148 215.152L205.976 218.219L206.115 218.651L206.928 221.177L207.005 221.404L208.081 224.253L208.643 225.538L209.276 226.981L210.588 229.584L212.015 232.056L213.554 234.393L213.723 234.644L215.374 236.844L217.131 238.901L218.992 240.809L220.951 242.566L221.398 242.922L223.455 244.526L225.605 245.971L226.548 246.541L228.787 247.826L230.452 248.725L232.947 250.013L235.921 251.513L238.906 252.992Z" fill="white" stroke="#787796" stroke-width="1.2" stroke-linejoin="round"/>
</svg>
