<svg width="620" height="440" viewBox="0 0 620 440" fill="none" xmlns="http://www.w3.org/2000/svg">
<path d="M309.125 359.036C309.174 359.061 309.297 359.085 309.346 359.109L309.125 359.036Z" stroke="#A7A9B2" stroke-width="0.6" stroke-linejoin="round"/>
<path d="M394.77 249.906C391.388 251.348 388.373 253.035 385.065 254.648C378.129 258.12 370.998 261.665 364.062 265.136C341.957 276.161 319.778 287.236 297.648 298.261C287.306 303.419 276.817 308.651 266.475 313.809C264.147 314.983 261.647 316.181 259.343 317.403C257.505 318.405 255.594 319.53 254.393 321.29C253.731 322.268 253.486 323.417 253.511 324.566C253.486 326.375 253.486 328.722 253.511 330.531C253.535 333.318 253.192 335.053 255.373 337.205C257.309 339.014 259.809 340.138 262.137 341.336C265.887 343.194 269.759 345.15 273.508 347.008C285.468 352.948 297.452 358.962 309.411 364.903C312.009 366.223 314.754 367.445 317.597 368.081C323.797 369.45 330.487 369.01 336.296 366.443C339.457 365.172 341.516 363.9 344.579 362.409C350.975 359.231 357.568 355.931 363.964 352.728C385.923 341.776 407.93 330.8 429.889 319.848C441.431 314.103 453.072 308.284 464.591 302.539C466.919 301.366 469.419 300.168 471.722 298.946C473.438 297.992 475.251 296.966 476.452 295.352C477.261 294.35 477.579 293.03 477.555 291.758C477.579 289.974 477.579 287.627 477.555 285.842C477.53 283.055 477.873 281.32 475.692 279.144C474.026 277.555 471.894 276.504 469.86 275.477C466.233 273.643 462.336 271.712 458.684 269.903C446.284 263.718 433.81 257.484 421.385 251.299C418.86 250.028 416.213 248.855 413.444 248.243C407.268 246.874 400.602 247.339 394.77 249.906Z" stroke="#A7A9B2" stroke-width="0.6" stroke-linejoin="round"/>
<path d="M425.188 315.52L424.82 316.058C425.041 315.716 425.335 315.373 425.629 315.104C430.261 312.586 435.334 310.24 440.039 307.844" stroke="#A7A9B2" stroke-width="0.6" stroke-linejoin="round"/>
<path d="M444.367 307.844C444.367 307.844 444.367 307.868 444.391 307.892" stroke="#A7A9B2" stroke-width="0.6" stroke-linejoin="round"/>
<path d="M444.369 307.867C444.345 308.038 444.32 308.332 444.296 308.503C444.1 309.334 443.659 310.092 443.021 310.654C440.35 312.17 437.066 313.637 434.321 315.055C431.577 316.375 428.415 318.11 425.621 319.308C425.523 319.308 425.303 319.308 425.18 319.308C425.082 319.259 424.911 319.186 424.813 319.162C424.739 319.088 424.592 318.942 424.519 318.868C424.469 318.77 424.371 318.55 424.347 318.428C424.322 318.281 424.298 318.013 424.273 317.866C424.298 317.695 424.322 317.401 424.347 317.23L424.298 317.817" stroke="#A7A9B2" stroke-width="0.6" stroke-linejoin="round"/>
<path d="M440.039 307.843C440.823 307.476 442.196 306.694 443.029 306.425C443.151 306.425 443.348 306.425 443.47 306.425C443.568 306.474 443.74 306.547 443.838 306.571C443.911 306.645 444.058 306.792 444.132 306.865" stroke="#A7A9B2" stroke-width="0.6" stroke-linejoin="round"/>
<path d="M444.117 306.89C444.166 307.012 444.24 307.207 444.289 307.33" stroke="#A7A9B2" stroke-width="0.6" stroke-linejoin="round"/>
<path d="M424.352 317.257C424.45 316.866 424.621 316.426 424.817 316.06" stroke="#A7A9B2" stroke-width="0.6" stroke-linejoin="round"/>
<path d="M292.637 350.65L292.759 350.698C292.833 350.747 292.955 350.821 293.004 350.87C293.053 350.918 293.176 351.041 293.225 351.09C293.421 351.334 293.593 351.652 293.666 351.97C293.666 352.043 293.691 352.214 293.691 352.312C293.691 352.385 293.666 352.532 293.666 352.605C293.642 352.654 293.593 352.776 293.568 352.825C293.544 352.874 293.47 352.948 293.421 352.972C293.372 352.996 293.274 353.021 293.225 353.045C293.176 353.045 293.053 353.045 293.004 353.045C292.931 353.021 292.808 352.972 292.759 352.948C292.686 352.899 292.563 352.825 292.514 352.776C292.196 352.483 291.951 352.092 291.853 351.676C291.853 351.603 291.828 351.432 291.828 351.334C291.828 351.261 291.853 351.114 291.853 351.016C291.877 350.967 291.926 350.845 291.951 350.796C291.975 350.747 292.073 350.674 292.098 350.65C292.147 350.625 292.245 350.601 292.294 350.576C292.367 350.576 292.465 350.576 292.514 350.576L292.637 350.65Z" stroke="#A7A9B2" stroke-width="0.6" stroke-linejoin="round"/>
<path d="M300.875 355.025C300.924 355.025 301.022 355.025 301.071 355.025C301.12 355.05 301.243 355.074 301.292 355.099C301.341 355.123 301.463 355.197 301.512 355.245L301.292 355.099" stroke="#A7A9B2" stroke-width="0.6" stroke-linejoin="round"/>
<path d="M278.787 344.269C278.811 344.342 278.86 344.513 278.885 344.587C278.885 344.66 278.909 344.831 278.909 344.929C278.909 345.002 278.885 345.149 278.885 345.222C278.86 345.271 278.811 345.394 278.787 345.442C278.762 345.491 278.689 345.565 278.64 345.589C278.591 345.614 278.493 345.662 278.444 345.662C278.395 345.662 278.272 345.662 278.223 345.662C278.15 345.638 278.027 345.589 277.978 345.565C277.905 345.516 277.782 345.442 277.733 345.394C277.414 345.1 277.169 344.709 277.071 344.293C277.071 344.22 277.047 344.049 277.047 343.951C277.047 343.878 277.071 343.731 277.071 343.633C277.096 343.585 277.145 343.462 277.169 343.413C277.194 343.364 277.292 343.291 277.316 343.267C277.365 343.242 277.464 343.218 277.513 343.193C277.562 343.193 277.684 343.193 277.733 343.193C277.807 343.218 277.929 343.267 277.978 343.267C278.052 343.316 278.174 343.389 278.223 343.438C278.272 343.487 278.395 343.609 278.444 343.658C278.493 343.731 278.591 343.853 278.64 343.927C278.689 344.049 278.762 344.196 278.787 344.269ZM278.787 344.269L278.64 343.976" stroke="#A7A9B2" stroke-width="0.6" stroke-linejoin="round"/>
<path d="M267.466 338.719L267.344 338.45C267.368 338.524 267.442 338.646 267.466 338.719Z" stroke="#A7A9B2" stroke-width="0.6" stroke-linejoin="round"/>
<path d="M266.785 339.869C266.736 339.845 266.614 339.771 266.565 339.722C266.271 339.478 266.075 339.136 266.001 338.769C266.001 338.696 265.977 338.549 265.977 338.476C265.977 338.402 266.001 338.28 266.001 338.207C266.026 338.158 266.05 338.06 266.075 338.011C266.099 337.987 266.173 337.913 266.197 337.864C266.246 337.84 266.32 337.815 266.369 337.791C266.418 337.791 266.516 337.791 266.565 337.791C266.614 337.815 266.736 337.84 266.785 337.864C266.834 337.889 266.957 337.962 267.006 338.011C267.055 338.06 267.153 338.158 267.202 338.207C267.153 338.158 267.055 338.06 267.006 338.011" stroke="#A7A9B2" stroke-width="0.6" stroke-linejoin="round"/>
<path d="M269.672 339.356C269.721 339.405 269.819 339.503 269.868 339.552C269.819 339.503 269.721 339.405 269.672 339.356Z" stroke="#A7A9B2" stroke-width="0.6" stroke-linejoin="round"/>
<path d="M272.833 341.384L272.711 341.115C272.735 341.189 272.809 341.311 272.833 341.384Z" stroke="#A7A9B2" stroke-width="0.6" stroke-linejoin="round"/>
<path d="M271.932 342.411L272.152 342.557C272.079 342.509 271.981 342.435 271.932 342.411ZM271.932 342.411C271.638 342.166 271.442 341.824 271.368 341.457C271.368 341.384 271.344 341.237 271.344 341.164C271.344 341.091 271.368 340.968 271.368 340.895C271.393 340.846 271.417 340.748 271.442 340.7C271.466 340.675 271.54 340.602 271.564 340.553C271.613 340.528 271.687 340.504 271.736 340.479C271.785 340.479 271.883 340.479 271.932 340.479C271.981 340.504 272.103 340.528 272.152 340.553C272.201 340.577 272.324 340.651 272.373 340.7C272.496 340.822 272.643 340.968 272.741 341.115" stroke="#A7A9B2" stroke-width="0.6" stroke-linejoin="round"/>
<path d="M307.43 358.865C307.43 358.939 307.454 359.085 307.454 359.159C307.454 359.11 307.43 358.914 307.43 358.865Z" stroke="#A7A9B2" stroke-width="0.6" stroke-linejoin="round"/>
<path d="M307.453 359.183C307.453 359.256 307.429 359.378 307.429 359.452C307.404 359.5 307.38 359.598 307.355 359.647C307.331 359.672 307.257 359.745 307.233 359.794C307.184 359.818 307.11 359.843 307.061 359.867C307.012 359.867 306.914 359.867 306.865 359.867C306.816 359.843 306.694 359.818 306.645 359.794C306.596 359.769 306.473 359.696 306.424 359.647C306.375 359.598 306.277 359.5 306.228 359.452C306.056 359.232 305.909 358.963 305.86 358.694C305.86 358.62 305.836 358.474 305.836 358.4C305.836 358.327 305.86 358.205 305.86 358.131C305.885 358.083 305.909 357.985 305.934 357.936C305.958 357.911 306.032 357.838 306.057 357.789C306.106 357.765 306.179 357.74 306.228 357.716C306.277 357.716 306.375 357.716 306.424 357.716C306.473 357.74 306.596 357.765 306.645 357.789C306.694 357.814 306.816 357.887 306.865 357.936C307.159 358.18 307.355 358.523 307.429 358.889L307.355 358.62" stroke="#A7A9B2" stroke-width="0.6" stroke-linejoin="round"/>
<path d="M269.874 339.552C270.045 339.772 270.192 340.041 270.241 340.31C270.241 340.383 270.266 340.53 270.266 340.604C270.266 340.677 270.241 340.799 270.241 340.872C270.217 340.921 270.192 341.019 270.168 341.068C270.143 341.092 270.07 341.166 270.045 341.215C269.996 341.239 269.923 341.264 269.874 341.288C269.825 341.288 269.727 341.288 269.678 341.288C269.629 341.264 269.506 341.239 269.457 341.215C269.408 341.19 269.286 341.117 269.237 341.068C268.942 340.824 268.746 340.481 268.673 340.115C268.673 340.041 268.648 339.895 268.648 339.821C268.648 339.748 268.673 339.626 268.673 339.552C268.697 339.503 268.722 339.406 268.746 339.357C268.771 339.332 268.844 339.259 268.869 339.21C268.918 339.186 268.992 339.161 269.041 339.137C269.09 339.137 269.188 339.137 269.237 339.137C269.286 339.161 269.408 339.186 269.457 339.21" stroke="#A7A9B2" stroke-width="0.6" stroke-linejoin="round"/>
<path d="M309.34 359.109C309.389 359.134 309.512 359.207 309.561 359.256C309.61 359.305 309.708 359.403 309.757 359.452C309.928 359.672 310.075 359.941 310.124 360.21C310.124 360.283 310.149 360.43 310.149 360.503C310.149 360.576 310.124 360.698 310.124 360.772C310.1 360.821 310.075 360.918 310.051 360.967C310.026 360.992 309.953 361.065 309.928 361.114C309.879 361.139 309.806 361.163 309.757 361.187C309.708 361.187 309.61 361.187 309.561 361.187C309.512 361.163 309.389 361.139 309.34 361.114C309.291 361.09 309.168 361.016 309.119 360.967C308.825 360.723 308.629 360.381 308.556 360.014C308.556 359.941 308.531 359.794 308.531 359.721C308.531 359.647 308.556 359.525 308.556 359.452C308.58 359.403 308.605 359.305 308.629 359.256C308.654 359.232 308.727 359.158 308.752 359.109C308.801 359.085 308.874 359.061 308.923 359.036C308.972 359.036 309.07 359.036 309.119 359.036H308.923" stroke="#A7A9B2" stroke-width="0.6" stroke-linejoin="round"/>
<path d="M297.836 354.073C297.86 354.024 297.885 353.926 297.909 353.877L297.836 354.073Z" stroke="#A7A9B2" stroke-width="0.6" stroke-linejoin="round"/>
<path d="M297.898 353.877C297.923 353.853 297.996 353.779 298.021 353.731C298.07 353.706 298.144 353.682 298.193 353.657C298.242 353.657 298.34 353.657 298.389 353.657C298.438 353.682 298.56 353.706 298.609 353.731C298.658 353.755 298.781 353.828 298.83 353.877C299.124 354.122 299.32 354.464 299.393 354.831C299.393 354.904 299.418 355.051 299.418 355.124C299.418 355.197 299.393 355.32 299.393 355.393C299.369 355.442 299.344 355.54 299.32 355.588C299.295 355.613 299.222 355.686 299.197 355.735C299.148 355.76 299.075 355.784 299.026 355.809C298.977 355.809 298.879 355.809 298.83 355.809C298.781 355.784 298.658 355.76 298.609 355.735C298.56 355.711 298.438 355.637 298.389 355.588C298.266 355.466 298.119 355.32 298.021 355.173" stroke="#A7A9B2" stroke-width="0.6" stroke-linejoin="round"/>
<path d="M303.262 356.566C303.287 356.541 303.36 356.468 303.385 356.419C303.434 356.395 303.507 356.37 303.556 356.346C303.605 356.346 303.703 356.346 303.752 356.346C303.801 356.37 303.924 356.395 303.973 356.419C304.022 356.443 304.144 356.517 304.193 356.566C304.242 356.615 304.34 356.712 304.389 356.761C304.561 356.981 304.708 357.25 304.757 357.519C304.757 357.592 304.782 357.739 304.782 357.813C304.782 357.886 304.757 358.008 304.757 358.081C304.733 358.13 304.708 358.228 304.684 358.277C304.659 358.301 304.585 358.375 304.561 358.424C304.512 358.448 304.438 358.473 304.389 358.497C304.34 358.497 304.242 358.497 304.193 358.497C304.144 358.473 304.022 358.448 303.973 358.424C303.924 358.399 303.801 358.326 303.752 358.277C303.458 358.032 303.262 357.69 303.189 357.324C303.189 357.25 303.164 357.104 303.164 357.03C303.164 356.957 303.189 356.835 303.189 356.761C303.189 356.712 303.238 356.615 303.262 356.566ZM303.262 356.566L303.189 356.761" stroke="#A7A9B2" stroke-width="0.6" stroke-linejoin="round"/>
<path d="M301.502 355.245C301.796 355.49 301.992 355.832 302.065 356.199C302.065 356.272 302.09 356.419 302.09 356.492C302.09 356.565 302.065 356.687 302.065 356.761C302.041 356.81 302.016 356.907 301.992 356.956C301.967 356.981 301.894 357.054 301.869 357.103C301.82 357.128 301.747 357.152 301.698 357.176C301.649 357.176 301.551 357.176 301.502 357.176C301.453 357.152 301.33 357.128 301.281 357.103" stroke="#A7A9B2" stroke-width="0.6" stroke-linejoin="round"/>
<path d="M272.933 341.655L272.859 341.386C272.859 341.459 272.908 341.581 272.933 341.655Z" stroke="#A7A9B2" stroke-width="0.6" stroke-linejoin="round"/>
<path d="M272.962 341.948C272.962 341.899 272.938 341.703 272.938 341.654C272.938 341.752 272.937 341.874 272.962 341.948Z" stroke="#A7A9B2" stroke-width="0.6" stroke-linejoin="round"/>
<path d="M267.542 338.99L267.469 338.721C267.493 338.77 267.542 338.916 267.542 338.99Z" stroke="#A7A9B2" stroke-width="0.6" stroke-linejoin="round"/>
<path d="M300.695 355.099C300.744 355.074 300.818 355.05 300.867 355.025" stroke="#A7A9B2" stroke-width="0.6" stroke-linejoin="round"/>
<path d="M300.57 355.221C300.595 355.196 300.668 355.123 300.693 355.074" stroke="#A7A9B2" stroke-width="0.6" stroke-linejoin="round"/>
<path d="M267.18 338.207C267.229 338.256 267.302 338.378 267.351 338.451" stroke="#A7A9B2" stroke-width="0.6" stroke-linejoin="round"/>
<path d="M300.508 355.417C300.532 355.368 300.557 355.271 300.581 355.222" stroke="#A7A9B2" stroke-width="0.6" stroke-linejoin="round"/>
<path d="M300.469 355.685C300.469 355.612 300.493 355.489 300.493 355.416" stroke="#A7A9B2" stroke-width="0.6" stroke-linejoin="round"/>
<path d="M297.773 354.342C297.773 354.269 297.798 354.147 297.798 354.073L297.773 354.342Z" stroke="#A7A9B2" stroke-width="0.6" stroke-linejoin="round"/>
<path d="M269.219 339.137L269.439 339.21C269.488 339.234 269.611 339.308 269.66 339.357L269.439 339.21" stroke="#A7A9B2" stroke-width="0.6" stroke-linejoin="round"/>
<path d="M301.283 357.079C301.234 357.055 301.112 356.982 301.062 356.933" stroke="#A7A9B2" stroke-width="0.6" stroke-linejoin="round"/>
<path d="M267.466 339.747C267.442 339.772 267.368 339.845 267.344 339.894L267.466 339.747Z" stroke="#A7A9B2" stroke-width="0.6" stroke-linejoin="round"/>
<path d="M266.971 339.942C266.922 339.918 266.799 339.894 266.75 339.869" stroke="#A7A9B2" stroke-width="0.6" stroke-linejoin="round"/>
<path d="M272.833 342.412C272.809 342.437 272.735 342.51 272.711 342.559" stroke="#A7A9B2" stroke-width="0.6" stroke-linejoin="round"/>
<path d="M272.713 342.558C272.664 342.582 272.591 342.606 272.542 342.631C272.493 342.631 272.395 342.631 272.346 342.631C272.297 342.606 272.174 342.582 272.125 342.558" stroke="#A7A9B2" stroke-width="0.6" stroke-linejoin="round"/>
<path d="M297.909 354.904C297.885 354.83 297.86 354.708 297.836 354.635" stroke="#A7A9B2" stroke-width="0.6" stroke-linejoin="round"/>
<path d="M272.933 342.216C272.908 342.265 272.884 342.363 272.859 342.411" stroke="#A7A9B2" stroke-width="0.6" stroke-linejoin="round"/>
<path d="M272.531 342.632L272.703 342.558L272.825 342.412L272.899 342.216L272.923 341.947C272.923 342.021 272.899 342.143 272.899 342.216" stroke="#A7A9B2" stroke-width="0.6" stroke-linejoin="round"/>
<path d="M266.57 339.722L266.791 339.868L267.011 339.942H267.207C267.158 339.942 267.06 339.942 267.011 339.942" stroke="#A7A9B2" stroke-width="0.6" stroke-linejoin="round"/>
<path d="M267.542 339.551C267.518 339.6 267.493 339.697 267.469 339.746L267.542 339.551Z" stroke="#A7A9B2" stroke-width="0.6" stroke-linejoin="round"/>
<path d="M301.512 357.154L301.292 357.081L301.071 356.934C301.022 356.885 300.924 356.787 300.875 356.738L301.071 356.934" stroke="#A7A9B2" stroke-width="0.6" stroke-linejoin="round"/>
<path d="M300.864 356.737C300.742 356.59 300.644 356.419 300.57 356.248" stroke="#A7A9B2" stroke-width="0.6" stroke-linejoin="round"/>
<path d="M267.351 339.869C267.302 339.894 267.229 339.918 267.18 339.942" stroke="#A7A9B2" stroke-width="0.6" stroke-linejoin="round"/>
<path d="M300.581 356.249C300.557 356.176 300.532 356.054 300.508 355.98" stroke="#A7A9B2" stroke-width="0.6" stroke-linejoin="round"/>
<path d="M267.595 339.282L267.57 339.551C267.57 339.477 267.57 339.355 267.595 339.282ZM267.595 339.282C267.595 339.233 267.57 339.037 267.57 338.988C267.57 339.062 267.57 339.184 267.595 339.282Z" stroke="#A7A9B2" stroke-width="0.6" stroke-linejoin="round"/>
<path d="M300.493 355.98C300.493 355.907 300.469 355.76 300.469 355.687" stroke="#A7A9B2" stroke-width="0.6" stroke-linejoin="round"/>
<path d="M298.021 355.172C297.996 355.099 297.923 354.977 297.898 354.903" stroke="#A7A9B2" stroke-width="0.6" stroke-linejoin="round"/>
<path d="M298.205 355.418C298.033 355.223 297.886 354.905 297.837 354.661C297.837 354.587 297.812 354.441 297.812 354.367L297.837 354.661" stroke="#A7A9B2" stroke-width="0.6" stroke-linejoin="round"/>
<path d="M300.689 356.519C300.616 356.396 300.518 356.127 300.493 355.981L300.469 355.687L300.493 355.419L300.567 355.223L300.689 355.076L300.861 355.003H301.057" stroke="#A7A9B2" stroke-width="0.6" stroke-linejoin="round"/>
<path d="M289.616 351.946L290.008 351.701L290.254 351.261L290.352 350.65C290.327 350.797 290.278 351.114 290.254 351.261C290.18 351.359 290.057 351.579 290.008 351.701C289.91 351.75 289.714 351.872 289.616 351.946ZM289.616 351.946C289.494 351.946 289.249 351.97 289.102 351.97C287.999 351.628 286.406 350.674 285.352 350.21C284.298 349.648 282.583 348.939 281.602 348.254C281.48 348.132 281.235 347.839 281.088 347.716C280.965 347.545 280.794 347.252 280.696 347.081C280.622 346.91 280.5 346.567 280.426 346.396C280.402 346.225 280.353 345.858 280.328 345.687C280.353 345.541 280.402 345.223 280.426 345.076C280.5 344.978 280.622 344.758 280.696 344.636C280.794 344.563 280.99 344.465 281.088 344.392C281.21 344.392 281.455 344.367 281.602 344.367C281.75 344.416 282.019 344.514 282.166 344.538C282.95 344.929 284.543 345.736 285.352 346.127C286.136 346.518 287.729 347.325 288.538 347.716C288.685 347.814 288.955 348.01 289.102 348.083C289.224 348.205 289.469 348.499 289.616 348.621C289.714 348.792 289.91 349.11 290.008 349.257C290.082 349.428 290.205 349.77 290.254 349.941L290.352 350.65C290.327 350.479 290.278 350.112 290.254 349.941L290.352 350.65" stroke="#A7A9B2" stroke-width="0.6" stroke-linejoin="round"/>
<path d="M444.281 307.306C444.306 307.452 444.33 307.697 444.355 307.844" stroke="#A7A9B2" stroke-width="0.6" stroke-linejoin="round"/>
<path d="M255.196 323.709C255.343 327.156 259.216 328.868 261.862 330.286C270.048 334.368 278.38 338.524 286.566 342.607C293.207 345.907 300.044 349.329 306.661 352.63C310.558 354.537 314.479 356.81 318.768 357.69C323.204 358.57 327.934 358.448 332.271 357.152C335.065 356.321 337.981 354.732 340.604 353.461C346.804 350.381 353.2 347.178 359.401 344.098C394.985 326.35 430.594 308.601 466.154 290.853C469.021 289.313 472.501 288.042 474.731 285.597C478.334 281.001 472.624 277.823 468.972 276.063C468.703 275.916 468.139 275.647 467.869 275.501H467.845C467.6 275.378 466.987 275.061 466.742 274.938C453.925 268.533 440.985 262.104 428.168 255.699C423.634 253.548 419.149 250.834 414.37 249.294C409.689 247.9 404.543 247.852 399.789 249.001C397.019 249.685 394.225 251.078 391.677 252.35L390.574 252.888L390.549 252.912L389.447 253.45C347.662 274.303 305.828 295.156 264.043 316.009L262.941 316.571L262.916 316.595C262.696 316.693 262.034 317.036 261.813 317.158C259.118 318.6 255.245 320.287 255.172 323.832" stroke="#A7A9B2" stroke-width="0.6" stroke-linejoin="round"/>
<path d="M475.898 282.883C475.898 282.859 475.898 282.787 475.898 282.763" stroke="#A7A9B2" stroke-width="0.6" stroke-linejoin="round"/>
<path d="M443.812 306.573L444.107 306.867C444.156 306.989 444.229 307.184 444.278 307.307C444.278 307.307 444.327 307.796 444.352 307.844L444.376 307.893L444.352 307.942" stroke="#A7A9B2" stroke-width="0.6" stroke-linejoin="round"/>
<path d="M192.517 294.938C192.566 296.624 192.321 298.482 193.08 300.071C195.433 304.887 201.731 307.063 206.657 308.139C215.161 309.801 225.283 309.263 232.929 304.936C235.159 303.592 237.365 301.685 238.075 299.094C238.418 297.773 238.247 296.282 238.271 294.938C238.222 293.593 238.394 292.102 238.075 290.782C237.365 288.19 235.159 286.283 232.929 284.939C225.283 280.612 215.161 280.074 206.657 281.736C201.731 282.812 195.433 284.988 193.08 289.804C192.321 291.393 192.566 293.251 192.517 294.938Z" stroke="#A7A9B2" stroke-width="0.6" stroke-linejoin="round"/>
<path d="M126.18 301.171C125.714 302.564 125.935 304.153 125.886 305.596C125.935 307.111 125.714 308.774 126.253 310.241C128.189 315.13 134.34 317.428 139.119 318.601C148.163 320.704 161.886 319.995 169.067 313.541C172.081 310.583 171.64 308.676 171.665 304.838" stroke="#A7A9B2" stroke-width="0.6" stroke-linejoin="round"/>
<path d="M126.731 295.205C126.217 296.256 126.119 297.479 126.143 298.628C126.143 299.752 126.143 301.048 126.143 302.172C125.8 306.182 128.912 309.017 132.147 310.778C140.994 315.398 153.665 315.545 162.928 312.122C166.433 310.729 170.305 308.602 171.604 304.837C172.07 303.395 171.849 301.757 171.898 300.241" stroke="#A7A9B2" stroke-width="0.6" stroke-linejoin="round"/>
<path d="M133.285 284.399C130.59 285.793 127.82 287.846 126.963 290.878C126.767 291.636 126.742 292.491 126.767 293.274C126.767 294.398 126.767 295.694 126.767 296.818C126.276 304.323 136.765 307.673 142.77 308.602C150.22 309.702 158.136 309.188 165.096 306.132C168.747 304.47 172.84 301.439 172.521 296.989" stroke="#A7A9B2" stroke-width="0.6" stroke-linejoin="round"/>
<path d="M133.282 286.332C133.331 288.043 133.086 289.877 133.846 291.466C136.101 296.062 141.835 298.188 146.516 299.337C154.53 301.098 163.205 300.804 170.876 297.748C174.038 296.379 177.42 294.35 178.694 291.001C179.135 289.852 179.037 288.532 179.062 287.334C178.988 284.156 179.552 282.005 177.322 279.34C171.268 272.544 157.838 271.468 149.31 272.837C143.869 273.742 136.444 275.942 133.87 281.247C133.062 282.787 133.307 284.645 133.282 286.332Z" stroke="#A7A9B2" stroke-width="0.6" stroke-linejoin="round"/>
<path d="M192.622 291.269C192.009 294.642 194.607 297.527 197.254 299.214C202.621 302.563 209.164 303.614 215.389 303.687C221.638 303.639 228.157 302.563 233.524 299.214C236.171 297.527 238.769 294.642 238.156 291.269" stroke="#A7A9B2" stroke-width="0.6" stroke-linejoin="round"/>
<path d="M125.988 301.927C125.252 306.816 130.178 310.043 134.124 311.681" stroke="#A7A9B2" stroke-width="0.6" stroke-linejoin="round"/>
<path d="M126.266 296.722C125.629 300.364 128.619 303.347 131.535 305.058C137.393 308.407 144.426 309.312 151.092 309.092" stroke="#A7A9B2" stroke-width="0.6" stroke-linejoin="round"/>
<path d="M126.839 291.392C126.005 297.43 133.357 300.877 138.185 302.27C147.474 304.911 161.1 304.422 168.991 298.432" stroke="#A7A9B2" stroke-width="0.6" stroke-linejoin="round"/>
<path d="M133.355 282.664C132.791 285.769 134.997 288.531 137.398 290.194C142.839 293.885 149.676 294.985 156.122 295.059C162.371 295.01 168.89 293.934 174.257 290.585C176.904 288.898 179.502 286.013 178.889 282.64" stroke="#A7A9B2" stroke-width="0.6" stroke-linejoin="round"/>
<path d="M326.958 287.554L326.884 287.652L325.953 289.095V290.977L327.105 292.762C329.654 294.693 333.06 296.086 335.903 297.553C340.927 300.047 346.221 302.711 351.244 305.205C356.366 307.772 361.783 310.461 366.905 313.003C370.213 314.592 373.791 316.67 377.32 317.77C378.104 317.893 380.114 318.235 380.898 318.357H383.349C384.746 318.455 386.878 317.966 388.25 317.77C392.269 316.475 396.264 314.103 400.063 312.294C407.317 308.676 414.767 304.96 421.997 301.342C426.187 299.264 430.648 297.015 434.838 294.937C435.28 294.717 435.794 294.473 436.235 294.228C436.946 293.739 437.73 293.202 438.441 292.713C438.735 292.248 439.299 291.393 439.593 290.928C439.593 290.61 439.593 289.339 439.593 289.046C439.274 288.557 438.76 287.75 438.441 287.261C437.853 286.87 436.799 286.137 436.235 285.745C434.838 285.061 432.853 284.059 431.456 283.35C422.021 278.631 412.414 273.84 402.955 269.146C400.21 267.777 396.926 266.139 394.181 264.77C393.74 264.55 391.706 263.548 391.289 263.328C390.407 263.01 389.133 262.546 388.25 262.228C387.466 262.105 385.432 261.763 384.672 261.641C384.158 261.641 382.197 261.641 381.731 261.641C380.751 261.568 378.766 262.008 377.81 262.154" stroke="#A7A9B2" stroke-width="0.6" stroke-linejoin="round"/>
<path d="M377.803 262.202C377.73 262.227 377.411 262.276 377.338 262.276C374.789 263.058 371.971 264.525 369.593 265.722C364.52 268.24 359.202 270.905 354.154 273.423C348.664 276.161 342.93 279.021 337.465 281.759C334.132 283.52 330.161 285.084 327.147 287.333L327 287.578" stroke="#A7A9B2" stroke-width="0.6" stroke-linejoin="round"/>
<path d="M325.953 290.976C325.953 292.027 325.953 294.007 325.953 295.034L327.105 296.818C329.629 298.75 333.085 300.168 335.903 301.61C341.393 304.348 347.152 307.233 352.641 309.971C357.641 312.464 362.885 315.08 367.885 317.574C370.85 319.04 374.134 320.874 377.296 321.852C378.08 321.974 380.114 322.316 380.874 322.438C381.731 322.438 383.814 322.438 384.648 322.438C385.407 322.316 387.491 321.974 388.226 321.852C389.745 321.338 392.073 320.458 393.47 319.651C396.215 318.282 399.499 316.645 402.244 315.276C410.135 311.34 418.198 307.33 426.065 303.394C428.393 302.245 431.015 300.925 433.343 299.776C434.128 299.385 435.451 298.725 436.235 298.334C436.897 297.894 437.804 297.258 438.441 296.818C438.71 296.378 439.323 295.474 439.593 295.034C439.593 293.811 439.593 292.198 439.593 290.976" stroke="#A7A9B2" stroke-width="0.6" stroke-linejoin="round"/>
<path d="M312.336 317.499L312.875 318.33C314.297 319.381 316.723 320.383 318.291 321.239C321.036 322.608 324.32 324.246 327.065 325.615C330.569 327.375 334.515 329.331 338.019 331.091C339.588 331.849 341.769 333.071 343.436 333.585C344.955 333.951 347.038 333.951 348.557 333.585C350.347 333.022 352.675 331.678 354.366 330.871C356.522 329.722 359.365 328.598 361.375 327.18L361.914 326.348V325.468L361.375 324.637C359.953 323.586 357.527 322.584 355.959 321.728C353.214 320.359 349.93 318.721 347.185 317.352C343.681 315.592 339.735 313.636 336.23 311.876C334.662 311.118 332.481 309.896 330.814 309.382C329.295 309.016 327.212 309.016 325.692 309.382C323.903 309.945 321.575 311.289 319.884 312.096C317.727 313.245 314.885 314.37 312.875 315.787L312.336 316.619C312.336 317.988 312.336 320.188 312.336 321.557L312.875 322.388C314.297 323.439 316.723 324.442 318.291 325.297C321.036 326.666 324.32 328.304 327.065 329.673C330.569 331.433 334.515 333.389 338.019 335.149C339.588 335.907 341.769 337.129 343.436 337.643C344.955 338.009 347.038 338.009 348.557 337.643C350.347 337.081 352.675 335.736 354.366 334.929C356.522 333.78 359.365 332.656 361.375 331.238L361.914 330.407C361.914 329.038 361.914 326.837 361.914 325.468" stroke="#A7A9B2" stroke-width="0.6" stroke-linejoin="round"/>
<path d="M357.479 283.056C361.768 280.905 366.4 278.607 370.689 276.456C369.194 275.722 367.111 274.671 365.616 273.938C361.327 276.089 356.695 278.387 352.406 280.538C353.901 281.247 356.009 282.298 357.479 283.056Z" stroke="#A7A9B2" stroke-width="0.6" stroke-linejoin="round"/>
<path d="M367.26 286.77C373.02 283.885 379.048 280.878 384.832 278.018C383.411 277.309 381.181 276.185 379.759 275.5C374 278.385 367.971 281.392 362.188 284.252C363.609 284.936 365.839 286.061 367.26 286.77Z" stroke="#A7A9B2" stroke-width="0.6" stroke-linejoin="round"/>
<path d="M372.284 292.834C377.406 290.292 382.797 287.578 387.919 285.036C386.498 284.327 384.268 283.202 382.847 282.518C377.725 285.06 372.333 287.774 367.211 290.316C368.632 291.025 370.887 292.15 372.284 292.834Z" stroke="#A7A9B2" stroke-width="0.6" stroke-linejoin="round"/>
<path d="M389.823 292.688C395.067 290.072 400.606 287.31 405.851 284.694C404.429 283.985 402.199 282.86 400.778 282.176C395.533 284.792 389.995 287.554 384.75 290.17C386.171 290.854 388.426 291.979 389.823 292.688Z" stroke="#A7A9B2" stroke-width="0.6" stroke-linejoin="round"/>
<path d="M398.831 296.794C404.688 293.885 410.79 290.83 416.647 287.92C415.226 287.211 412.996 286.087 411.574 285.402C405.717 288.311 399.615 291.367 393.758 294.276C395.179 294.961 397.434 296.086 398.831 296.794Z" stroke="#A7A9B2" stroke-width="0.6" stroke-linejoin="round"/>
<path d="M401.956 303.836C406.147 301.758 410.68 299.484 414.871 297.406C416.439 296.624 418.719 295.475 420.287 294.693C418.866 293.984 416.636 292.884 415.214 292.175C409.185 295.182 402.912 298.311 396.883 301.318C398.304 302.002 400.534 303.127 401.956 303.836Z" stroke="#A7A9B2" stroke-width="0.6" stroke-linejoin="round"/>
<path d="M388.952 310.312C389.614 309.995 391.477 309.066 392.089 308.748C376.086 300.754 359.985 292.735 343.957 284.741C343.296 285.059 341.433 285.988 340.82 286.306C356.823 294.3 372.925 302.318 388.952 310.312Z" stroke="#A7A9B2" stroke-width="0.6" stroke-linejoin="round"/>
<path d="M192.526 294.938C192.501 296.624 192.33 298.482 193.089 300.071C195.442 304.887 201.74 307.063 206.666 308.139C215.17 309.801 225.292 309.263 232.938 304.936C235.168 303.592 237.374 301.685 238.085 299.094C238.428 297.773 238.256 296.282 238.281 294.938C238.232 293.593 238.403 292.102 238.085 290.782C237.374 288.19 235.168 286.283 232.938 284.939C225.292 280.612 215.17 280.074 206.666 281.736C201.74 282.812 195.442 284.988 193.089 289.804C192.33 291.393 192.575 293.251 192.526 294.938Z" stroke="#A7A9B2" stroke-width="1.2" stroke-linejoin="round"/>
<path d="M133.287 284.401C130.591 285.794 127.822 287.848 126.964 290.879C126.621 292.248 126.792 293.788 126.768 295.206C125.886 297.04 126.278 299.215 126.18 301.171C125.714 302.565 125.935 304.154 125.886 305.596C125.935 307.112 125.714 308.774 126.253 310.241C128.189 315.13 134.34 317.428 139.119 318.602C148.163 320.704 161.886 319.995 169.067 313.541C172.081 310.583 171.64 308.676 171.665 304.838C172.13 303.396 171.91 301.758 171.959 300.242C172.449 299.24 172.572 298.066 172.547 296.991C175.243 295.597 178.012 293.544 178.87 290.512C179.066 289.754 179.091 288.899 179.066 288.117C179.066 287.016 179.066 285.696 179.066 284.572C179.532 277.336 169.827 274.011 164.019 272.96C156.274 271.64 147.991 272.104 140.737 275.258C137.061 276.92 132.944 279.951 133.287 284.401Z" stroke="#A7A9B2" stroke-width="1.2" stroke-linejoin="round"/>
<path d="M336.331 366.419C330.498 368.986 323.807 369.45 317.632 368.057C314.789 367.421 312.044 366.199 309.446 364.879C297.487 358.938 285.478 352.924 273.543 346.984C269.794 345.126 265.922 343.17 262.172 341.312C259.844 340.114 257.344 338.99 255.408 337.181C253.227 335.029 253.57 333.294 253.545 330.507C253.545 328.698 253.545 326.351 253.545 324.542C253.521 323.393 253.766 322.244 254.428 321.266C255.629 319.506 257.565 318.381 259.378 317.379C261.682 316.157 264.182 314.959 266.51 313.785C276.852 308.627 287.341 303.396 297.683 298.237C319.788 287.212 341.967 276.138 364.097 265.112C371.033 261.641 378.164 258.096 385.1 254.624C388.408 253.011 391.766 251.202 395.123 249.76C400.686 247.364 407.009 246.948 412.915 248.122C415.905 248.733 418.748 249.931 421.444 251.3C433.845 257.46 446.343 263.719 458.744 269.904C462.395 271.737 466.268 273.644 469.919 275.477C471.953 276.504 474.085 277.555 475.752 279.144C477.933 281.296 477.59 283.056 477.614 285.843C477.614 287.627 477.614 289.974 477.614 291.759C477.639 293.03 477.32 294.35 476.512 295.353C475.311 296.966 473.497 297.993 471.782 298.946C469.478 300.169 466.978 301.366 464.65 302.54C453.842 307.918 442.937 313.37 432.129 318.748C410.269 329.651 388.359 340.579 366.499 351.482C356.427 356.42 346.403 361.652 336.331 366.419Z" stroke="#A7A9B2" stroke-width="1.2" stroke-linejoin="round"/>
</svg>
