<svg width="399" height="300" viewBox="0 0 399 300" fill="none" xmlns="http://www.w3.org/2000/svg">
<path d="M318.903 84.959H352.194L354.396 85.3379L356.263 86.4184L357.51 88.0346L357.948 89.9416L357.948 148.997V150.409L357.51 152.316L356.263 153.932L354.396 155.012L352.194 155.391H242.688" stroke="#A7A9B2" stroke-width="1.2" stroke-linejoin="round"/>
<path d="M256.703 296.777L256.721 296.77L257.251 296.533L257.78 296.296L258.345 296.029L258.909 295.761L259.657 295.392L260.404 295.024L261.513 294.471L262.541 293.957L263.57 293.442L264.988 292.733L266.405 292.025L268.621 290.917L270.837 289.809L274.175 288.14L277.514 286.47L281.898 284.278L282.184 284.135L286.569 281.943L286.855 281.8L291.24 279.607L292.611 278.922L296.995 276.73L298.367 276.044L302.752 273.852L304.846 272.804L309.231 270.612L311.325 269.565L315.71 267.372L318.167 266.144L322.551 263.952L325.008 262.723L329.392 260.531L331.849 259.303L336.233 257.111L338.69 255.882L341.212 254.621L343.735 253.36L348.12 251.168L352.504 248.975L354.642 247.907L359.026 245.714L363.411 243.522L365.549 242.453L369.025 240.715L372.502 238.976L375.84 237.307L379.178 235.638L381.394 234.531L383.61 233.423L385.028 232.713L386.446 232.005L387.26 231.598L388.074 231.191L389.177 230.638L390.129 230.156L391.082 229.675L391.618 229.392L392.154 229.11L392.627 228.845L393.101 228.58L393.536 228.317L393.971 228.053L394.37 227.785L394.769 227.518L395.128 227.243L395.488 226.969L395.804 226.686L396.121 226.402L396.392 226.108L396.663 225.814L396.888 225.51L397.112 225.206L397.124 225.189L397.136 225.171L397.312 224.86L397.488 224.547L397.615 224.229L397.741 223.911L397.817 223.589L397.893 223.267L397.903 223.211L397.913 223.154L397.939 222.83L397.964 222.506L397.972 222.376L397.979 222.247L397.983 221.906L397.988 221.565L397.994 219.698L398 217.83L397.994 215.963L397.988 214.095L397.983 213.754L397.979 213.414L397.972 213.284L397.964 213.155L397.939 212.83L397.913 212.506L397.903 212.449L397.893 212.393L397.817 212.071L397.741 211.749L397.615 211.431L397.488 211.113L397.312 210.801L397.136 210.489L397.124 210.471L397.112 210.454L396.888 210.15L396.663 209.846L396.392 209.552L396.121 209.258L395.806 208.975L395.49 208.693L395.139 208.422L394.788 208.152L394.411 207.895L394.034 207.638L393.641 207.396L393.248 207.154L392.822 206.912L392.395 206.671L391.803 206.361L391.211 206.05L390.285 205.582L389.359 205.114L388.252 204.559L387.408 204.137L386.565 203.715L383.596 202.231L380.627 200.746L379.117 199.991L377.608 199.237L374.802 197.834L371.998 196.432L369.031 194.948L366.064 193.465L363.098 191.981L360.131 190.498L357.326 189.095L354.521 187.693L352.039 186.452L349.557 185.211L347.56 184.213L345.563 183.214L344.157 182.512L342.751 181.81L341.822 181.351L340.893 180.892L340.272 180.595L339.651 180.299L339.169 180.086L338.686 179.873L338.676 179.868L338.665 179.864L338.181 179.668L337.697 179.472L337.184 179.283L336.671 179.095L336.131 178.92L335.592 178.745L335.027 178.587L334.463 178.429L333.875 178.294L333.288 178.159L332.682 178.047L332.075 177.935L331.453 177.847L330.831 177.76L330.197 177.696L329.564 177.633L328.922 177.595L328.28 177.558L327.634 177.545L326.989 177.532L326.343 177.545L325.698 177.558L325.055 177.595L324.414 177.633L323.78 177.696L323.146 177.76L322.524 177.847L321.902 177.935L321.296 178.047L320.69 178.159L320.102 178.294L319.515 178.429L318.949 178.588L318.384 178.745L317.836 178.925L317.288 179.104L316.754 179.303L316.219 179.503L315.692 179.72L315.498 179.8L315.494 179.802" stroke="#A7A9B2" stroke-width="1.2" stroke-linejoin="round"/>
<path d="M315.488 179.803L315.483 179.805L315.139 179.947L314.609 180.184L314.079 180.421L313.515 180.689L312.95 180.957L311.986 181.433L311.022 181.909L309.918 182.461L309.104 182.868L308.29 183.274L306.872 183.984L305.454 184.693L304.639 185.1L303.825 185.507L299.44 187.699L299.06 187.89L294.675 190.082L294.294 190.272L292.972 190.934L291.649 191.595L287.264 193.787L284.439 195.2L280.054 197.392L277.229 198.805L276.42 199.209L275.612 199.613L271.227 201.806L268.597 203.121L264.213 205.313L261.582 206.628L257.198 208.821L254.217 210.311L249.832 212.503L246.852 213.993L242.467 216.186L240.011 217.414L235.626 219.606L233.169 220.835L228.785 223.027L226.69 224.074L222.305 226.267L220.211 227.314L217.139 228.85L214.066 230.386L209.682 232.578L205.297 234.771L204.221 235.308L199.837 237.501L195.452 239.693L194.376 240.231L193.529 240.655L192.681 241.079L190.465 242.187L188.249 243.295L186.831 244.003L185.413 244.713L184.385 245.227L183.357 245.741L182.25 246.295L181.514 246.669L180.777 247.043L180.242 247.325L179.706 247.607L179.232 247.872L178.758 248.137L178.323 248.401L177.888 248.664L177.489 248.932L177.09 249.2L176.731 249.474L176.372 249.748L176.055 250.032L175.738 250.315L175.467 250.609L175.196 250.903L174.972 251.207L174.748 251.511L174.736 251.528L174.724 251.546L174.548 251.858L174.372 252.17L174.245 252.488L174.118 252.806L174.042 253.128L173.966 253.45L173.956 253.506L173.946 253.563L173.921 253.887L173.896 254.212L173.888 254.341L173.88 254.47L173.876 254.796L173.872 255.121L173.865 257.004L173.859 258.887L173.865 260.77L173.872 262.653L173.876 262.978L173.88 263.304L173.888 263.433L173.896 263.562L173.921 263.887L173.946 264.211L173.956 264.268L173.966 264.324L174.042 264.646L174.118 264.968L174.245 265.286L174.372 265.604L174.548 265.916L174.724 266.228L174.736 266.246L174.748 266.263L174.972 266.567L175.196 266.87L175.467 267.165L175.738 267.459L176.054 267.742L176.369 268.024L176.721 268.295L177.072 268.565L177.449 268.822L177.826 269.078L178.218 269.321L178.611 269.563L179.038 269.804L179.464 270.046L180.056 270.356L180.649 270.667L181.574 271.135L182.5 271.603L183.608 272.157L184.771 272.739L185.933 273.321L187.187 273.948L188.441 274.575L189.851 275.28L191.261 275.985L192.567 276.638L193.873 277.291L195.356 278.033L196.838 278.774L198.403 279.556L199.968 280.339L202.882 281.796L205.795 283.253L208.709 284.709L211.622 286.166L213.187 286.948L214.752 287.731L216.235 288.472L217.718 289.214L219.024 289.866L220.33 290.52L221.74 291.225L223.15 291.929L224.404 292.556L225.657 293.183L227.039 293.874L228.422 294.564L229.787 295.239L231.152 295.914L231.68 296.166L232.208 296.418L232.691 296.631L233.173 296.845L233.184 296.849L233.195 296.853L233.678 297.049L234.163 297.245L234.676 297.433L235.188 297.622L235.728 297.797L236.268 297.973L236.832 298.13L237.397 298.287L237.984 298.423L238.571 298.559L239.178 298.67L239.784 298.782L240.406 298.87L241.028 298.958L241.662 299.021L242.295 299.084L242.937 299.122L243.579 299.16L244.225 299.172L244.871 299.185L245.516 299.172L246.162 299.16L246.804 299.122L247.445 299.084L248.079 299.021L248.713 298.958L249.335 298.87L249.957 298.782L250.563 298.67L251.17 298.559L251.757 298.423L252.344 298.287L252.91 298.13L253.476 297.972L254.023 297.792L254.571 297.613L255.106 297.413L255.641 297.214L256.167 296.997L256.694 296.78L256.698 296.778" stroke="#A7A9B2" stroke-width="1.2" stroke-linejoin="round"/>
<path d="M46.5001 231.282L46.2109 232.102V237.005V237.466V239.471L46.907 241.445L48.2782 243.328L50.2822 245.064L52.8593 246.6L55.93 247.888L59.4016 248.89L63.1685 249.576L67.1162 249.924H71.1252L75.0729 249.576L78.8397 248.89L82.3114 247.888L85.3821 246.6L87.9592 245.064L89.9632 243.328L91.3343 241.445L92.0304 239.471V235.071" stroke="#A7A9B2" stroke-width="1.2" stroke-linejoin="round"/>
<path d="M47.0785 225.242L46.5 226.882V231.282" stroke="#A7A9B2" stroke-width="1.2" stroke-linejoin="round"/>
<path d="M92.0312 235.071L92.3205 234.252V230.527" stroke="#A7A9B2" stroke-width="1.2" stroke-linejoin="round"/>
<path d="M53.6029 214.464L51.1494 215.926L49.1454 217.662L47.7743 219.545L47.0781 221.519V225.243" stroke="#A7A9B2" stroke-width="1.2" stroke-linejoin="round"/>
<path d="M92.3203 230.527L92.8988 228.887V227.21" stroke="#A7A9B2" stroke-width="1.2" stroke-linejoin="round"/>
<path d="M92.8963 227.209L95.3498 225.747L97.3543 224.011L98.7254 222.128L99.4216 220.154V215.252V214.79V212.785L98.7254 210.812L97.3543 208.928L95.3498 207.193L92.7732 205.657L89.702 204.368L86.2308 203.366L82.4635 202.681L78.5158 202.333H74.5073L70.5596 202.681L66.7923 203.366L63.3206 204.368L60.2498 205.657L57.6733 207.193L55.6688 208.928L54.2977 210.812L53.6016 212.785V214.463" stroke="#A7A9B2" stroke-width="1.2" stroke-linejoin="round"/>
<path d="M112.867 228.783L113.563 230.757L114.934 232.64L116.938 234.376L119.516 235.911L122.586 237.2L126.058 238.202L129.825 238.888L133.772 239.236H137.781L141.729 238.888L145.496 238.202L148.968 237.2L152.038 235.911L154.615 234.376L156.619 232.64L157.991 230.757L158.687 228.783" stroke="#A7A9B2" stroke-width="1.2" stroke-linejoin="round"/>
<path d="M158.687 221.413L157.991 219.44L156.619 217.556L154.615 215.82L152.038 214.285L148.968 212.996L145.496 211.994L141.729 211.309L137.781 210.961H133.772L129.825 211.309L126.058 211.994L122.586 212.996L119.516 214.285L116.938 215.82L114.934 217.556L113.563 219.44L112.867 221.413" stroke="#A7A9B2" stroke-width="1.2" stroke-linejoin="round"/>
<path d="M318.91 32.4216L318.278 28.9612L316.441 25.8395L313.58 23.3624L309.976 21.7717L305.981 21.2236L301.078 21.2334L296.176 21.2428L291.274 21.2521L286.372 21.2614L281.47 21.2707L276.568 21.2805L271.665 21.2898L266.763 21.2991L261.906 21.3084" stroke="#A7A9B2" stroke-width="1.2" stroke-linejoin="round"/>
<path d="M170.608 21.4854L143.003 21.5383L139.55 21.7172L135.737 22.2256L131.937 23.0124L128.522 24.0016L125.827 25.0958L10.1425 82.4947L7.31742 84.4555L4.76877 87.3204L2.74615 90.8092L1.44758 94.58L1 98.2639V199.54L1.44758 202.777L2.74615 205.249L4.76877 206.715L13.575 211.118L16.1237 211.434L18.9488 210.569L128.641 155.538M4.02901 140.328L3.40299 141.455L2.92453 142.58L2.74121 143.7L2.6711 144.176L2.62943 144.966L2.60836 146.075L2.60148 147.511V159.755L2.60836 161.152L2.62943 162.222L2.6711 162.976L2.74121 163.425L3.00053 164.538L3.1177 164.75L3.95056 165.843L5.32415 166.836L7.1948 167.645L9.52039 168.183L12.2573 168.366L15.4353 168.109L19.084 167.329L23.2337 165.942L27.9138 163.864L32.3414 161.594L32.6924 161.414L37.1387 158.913L40.8197 156.681L43.3051 155.038L44.8625 153.823L45.7606 152.877L45.8278 152.791L46.2964 152.025L46.6773 151.195L47.0332 150.035L47.2842 148.721L47.4592 147.103L47.5641 145.114L47.5989 142.96L47.5641 140.846L47.4592 138.976L47.2842 137.556L47.0332 136.525L46.7013 135.825L46.2797 135.383L46.1449 135.261L43.962 134.169L43.4262 133.904L43.1752 133.835L42.2722 133.912L40.7128 134.47L38.2279 135.655L34.5464 137.612L30.1511 139.967L30.1462 139.97L25.525 142.347L21.1503 144.378L17.5094 145.686L14.5177 146.397L12.0901 146.636L10.1425 146.53L8.58948 146.203L8.44389 146.137L7.53359 145.686L6.97786 145.106L6.5329 144.383L4.02901 140.328Z" stroke="#A7A9B2" stroke-width="1.2" stroke-linejoin="round"/>
<path d="M128.641 155.538L129.273 156.981L130.585 159.584L132.012 162.056L133.551 164.393L133.721 164.644L135.372 166.845L137.129 168.901L138.989 170.809L140.948 172.566L141.395 172.922L143.453 174.526L145.602 175.971L146.546 176.541L148.785 177.826L150.449 178.725L152.945 180.013L155.919 181.513L158.903 182.992L161.431 184.216L163.755 185.338L165.472 186.131L166.496 186.544L168.895 187.499L171.369 188.287L171.924 188.431L174.464 189.049L177.07 189.497L179.735 189.774L182.455 189.88L185.224 189.814L185.525 189.799L188.335 189.563L191.183 189.155L194.065 188.578L196.974 187.832L199.907 186.918L200.132 186.845L203.075 185.768L206.03 184.528L208.99 183.127L211.95 181.568L212.13 181.464L215.077 179.753L218.014 177.892L220.933 175.882L223.83 173.728L226.699 171.433L229.534 169.003L232.331 166.442L235.084 163.755L235.177 163.661L237.873 160.86L240.515 157.944L242.692 155.392" stroke="#A7A9B2" stroke-width="1.2" stroke-linejoin="round"/>
<path d="M261.906 21.3092L260.698 20.0699L258.738 18.3134L258.292 17.9571L256.234 16.3536L254.085 14.9084L253.141 14.3388L250.902 13.0529L249.238 12.1539L246.742 10.8666L243.768 9.36652L240.784 7.88754L238.256 6.66347L235.932 5.54087L234.214 4.74918L233.191 4.33544L230.792 3.3805L228.318 2.59271L227.763 2.4486L225.222 1.83043L222.617 1.38286L219.952 1.10589L217.232 1L214.462 1.0652L214.162 1.0804L211.352 1.31717L208.504 1.72454L205.622 2.30152L202.712 3.04763L199.78 3.9614L199.555 4.03493L196.611 5.11193L193.657 6.35168L190.697 7.75272L187.737 9.31162L187.557 9.41553L184.609 11.1259L181.673 12.9877L178.754 14.9976L175.857 17.1521L172.988 19.4463L170.609 21.4847" stroke="#A7A9B2" stroke-width="1.2" stroke-linejoin="round"/>
<path d="M315.502 179.801L315.492 179.805" stroke="#A7A9B2" stroke-width="1.2" stroke-linejoin="round"/>
</svg>
