<svg width="620" height="440" viewBox="0 0 620 440" fill="none" xmlns="http://www.w3.org/2000/svg">
<path d="M398.493 155.176C380.015 155.176 361.316 155.176 342.887 155.176C336.392 155.176 329.653 155.176 323.281 155.176C321.026 155.176 318.061 155.176 315.929 155.176C314.851 155.078 312.964 155.347 311.983 155.543L310.121 156.618L308.871 158.232L308.43 160.139C308.43 180.209 308.43 200.378 308.43 220.449C308.528 220.864 308.773 221.94 308.871 222.355L310.121 223.969L311.983 225.044C314.924 225.705 318.551 225.338 321.541 225.411C325.462 225.411 329.873 225.411 333.795 225.411C346.808 225.411 359.993 225.411 373.006 225.411C386.019 225.411 399.204 225.411 412.217 225.411C416.139 225.411 420.55 225.411 424.471 225.411C427.436 225.313 431.063 225.68 433.98 225.044L435.842 223.969L437.092 222.355L437.533 220.449C437.533 200.378 437.533 180.209 437.533 160.139L437.092 158.232L435.842 156.618L433.98 155.543L431.774 155.176H429.323C427.142 155.176 424.152 155.176 421.971 155.176C414.227 155.176 406.262 155.176 398.493 155.176Z" stroke="#A7A9B2" stroke-width="0.6" stroke-linejoin="round"/>
<path d="M437.533 161.533L437.092 159.626L435.842 158.012L433.98 156.937C431.039 156.277 427.412 156.643 424.422 156.57C420.501 156.57 416.09 156.57 412.168 156.57C398.935 156.57 385.554 156.57 372.295 156.57C359.282 156.57 346.097 156.57 333.084 156.57C329.163 156.57 324.751 156.57 320.83 156.57C318.061 156.643 314.679 156.325 311.983 156.937L310.121 158.012L308.871 159.626L308.43 161.533" stroke="#A7A9B2" stroke-width="0.6" stroke-linejoin="round"/>
<path d="M398.489 110.243C340.799 110.268 283.06 110.292 225.346 110.292C219.734 110.488 213.779 111.441 208.608 113.666C201.917 116.893 195.104 120.389 188.463 123.664C154.226 140.728 119.941 157.792 85.6797 174.856" stroke="#A7A9B2" stroke-width="0.6" stroke-linejoin="round"/>
<path d="M398.498 155.177C398.498 138.944 398.498 122.589 398.498 106.332C398.375 105.599 397.983 103.57 397.861 102.885C397.469 102.201 396.415 100.416 396.023 99.7805C395.361 99.2183 393.792 97.8493 393.155 97.3114C392.297 96.9447 390.386 96.0891 389.553 95.7224C388.548 95.5513 386.538 95.3313 385.558 95.1846C384.259 95.1846 381.931 95.1846 380.657 95.1846C376.711 95.1846 372.349 95.1846 368.403 95.1846C357.032 95.1846 345.464 95.1846 334.093 95.1846C300.616 95.1846 267.09 95.209 233.614 95.209C229.913 95.2335 225.6 95.1357 221.899 95.3801C218.272 95.7713 214.351 96.5291 210.871 97.6537C207.048 99.1205 203.102 101.345 199.402 103.105C176.046 114.742 152.593 126.403 129.238 138.04C121.273 142.024 113.088 146.082 105.123 150.043C102.378 151.412 99.094 153.05 96.3492 154.419C95.0258 154.957 93.1633 156.326 91.9869 157.132C91.3987 157.792 90.0018 159.357 89.4382 159.993C88.948 160.824 87.8942 162.657 87.4041 163.464C87.0855 164.344 86.3993 166.349 86.1052 167.229C86.0072 168.06 85.7621 170.113 85.6641 170.896C85.6641 171.8 85.6641 173.903 85.6641 174.807C86.5708 175.272 88.5314 176.225 89.4137 176.69" stroke="#A7A9B2" stroke-width="0.6" stroke-linejoin="round"/>
<path d="M89.4609 216.513C89.4609 203.312 89.4609 189.964 89.4609 176.739C123.771 159.577 158.105 142.391 192.415 125.23C196.68 123.103 201.287 120.78 205.551 118.653C207.585 117.651 210.355 116.16 212.511 115.377C218.001 113.471 224.079 112.639 229.862 112.762C286.057 112.811 342.301 112.86 398.496 112.884" stroke="#A7A9B2" stroke-width="0.6" stroke-linejoin="round"/>
<path d="M398.492 110.243C398.492 125.18 398.492 140.239 398.492 155.176" stroke="#A7A9B2" stroke-width="0.6" stroke-linejoin="round"/>
<path d="M398.499 106.332C398.499 105.574 398.499 103.496 398.499 102.763C398.377 102.029 397.985 100 397.862 99.3159C397.47 98.6314 396.416 96.8468 396.024 96.2112C395.362 95.6489 393.794 94.2799 393.157 93.7421C392.299 93.3754 390.388 92.5197 389.554 92.153C388.549 91.9819 386.54 91.7619 385.56 91.6152C384.261 91.6152 381.933 91.6152 380.658 91.6152C376.713 91.6152 372.35 91.6397 368.405 91.6397C357.033 91.6641 345.466 91.6886 334.095 91.713C299.809 91.7864 265.45 91.8352 231.165 91.9086C227.366 91.933 222.93 91.8353 219.156 92.1042C215.529 92.4953 211.583 93.2776 208.128 94.3777C204.305 95.8445 200.335 98.0447 196.659 99.8049C173.254 111.393 149.801 123.005 126.397 134.568C118.407 138.528 110.222 142.562 102.257 146.522C99.5122 147.891 96.2037 149.505 93.4834 150.874L91.2778 151.95L89.7584 152.707L87.7488 154.101L86.94 154.663C86.3519 155.323 84.955 156.888 84.3913 157.523C83.9012 158.355 82.8473 160.188 82.3572 160.995C82.0386 161.875 81.3524 163.879 81.0583 164.76C80.9358 165.64 80.7152 167.595 80.6172 168.427C80.6172 169.453 80.6172 171.36 80.6172 172.338C80.6172 176.249 80.6172 180.65 80.6172 184.561C80.6172 195.905 80.6172 207.443 80.6172 218.787C80.6172 230.13 80.6172 241.669 80.6172 253.012C80.6172 256.923 80.6172 261.324 80.6172 265.235C80.6172 266.164 80.6172 268.487 80.6172 269.44L80.9603 271.86L81.0828 272.667C81.1809 272.838 82.3327 275.038 82.3817 275.136C82.4307 275.161 84.3668 276.578 84.4158 276.603L86.5969 277.703C88.6065 278.705 91.2043 280.001 93.2139 281.003L95.6401 281.297L95.7626 281.321C96.3508 281.126 98.0908 280.612 98.5809 280.465L100.762 279.365C103.507 277.996 106.766 276.358 109.536 274.989C118.236 270.638 127.107 266.189 135.832 261.837C160.609 249.443 185.459 236.999 210.235 224.605C214.475 222.698 219.377 221.745 223.959 221.231C229.915 220.889 236.164 221.134 242.119 221.06C264.249 221.085 286.453 221.109 308.583 221.109" stroke="#A7A9B2" stroke-width="0.6" stroke-linejoin="round"/>
<path d="M89.4539 238.196C89.4539 246.264 89.4539 254.576 89.4539 262.643C89.4539 265.699 89.4539 269.366 89.4539 272.422C89.3558 273.693 89.7234 275.795 89.895 277.066C89.993 277.238 91.1449 279.438 91.1939 279.536C91.2429 279.584 93.1789 280.953 93.228 281.002" stroke="#A7A9B2" stroke-width="0.6" stroke-linejoin="round"/>
<path d="M102.227 236.144C102.227 244.016 102.227 252.132 102.227 260.028C137.321 242.525 172.464 224.996 207.558 207.493C207.558 182.753 207.558 157.939 207.558 133.175C206.382 134.813 204.74 137.086 203.539 138.7C173.493 153.686 143.374 168.696 113.328 183.706C109.775 184.342 105.78 185.075 102.227 185.711C102.227 195 102.227 204.486 102.227 213.751" stroke="#A7A9B2" stroke-width="0.6" stroke-linejoin="round"/>
<path d="M374.773 155.176C374.773 146.278 374.773 137.159 374.773 128.261C330.146 128.261 285.494 128.261 240.891 128.261C240.891 153.661 240.891 179.134 240.891 204.534C263.388 204.534 285.959 204.534 308.457 204.534" stroke="#A7A9B2" stroke-width="0.6" stroke-linejoin="round"/>
<path d="M404.087 181.384L403.891 182.24C403.891 185.589 403.891 189.452 403.891 192.825L404.087 193.681L404.65 194.414L405.508 194.903C408.032 195.295 411.292 194.977 413.865 195.074C415.09 195.074 417.541 195.074 418.766 195.074C419.918 195.05 421.977 195.197 423.08 194.903L423.937 194.414L424.501 193.681L424.697 192.825C424.697 189.476 424.697 185.614 424.697 182.24L424.501 181.384L423.937 180.651L423.08 180.162C420.555 179.771 417.296 180.089 414.723 179.991C413.497 179.991 411.047 179.991 409.821 179.991C408.67 180.015 406.611 179.869 405.508 180.162L404.65 180.651L404.087 181.384Z" stroke="#A7A9B2" stroke-width="0.6" stroke-linejoin="round"/>
<path d="M424.674 182.727L424.478 181.872L423.914 181.138L423.056 180.649C420.532 180.258 417.273 180.576 414.699 180.478C413.474 180.478 411.023 180.478 409.798 180.478C408.646 180.503 406.587 180.356 405.485 180.649L404.627 181.138L404.063 181.872L403.867 182.727" stroke="#A7A9B2" stroke-width="0.6" stroke-linejoin="round"/>
<path d="M203.268 138.847C203.268 136.989 203.268 134.349 203.268 132.515L202.95 130.779L202.068 129.606L200.744 129.19L199.176 129.582C171.483 143.394 143.716 157.231 116.023 171.043L114.454 172.192L113.131 173.928L112.249 175.981C111.759 178.402 111.979 181.482 111.93 183.951" stroke="#A7A9B2" stroke-width="0.6" stroke-linejoin="round"/>
<path d="M202.076 129.58C201.292 129.165 199.429 128.236 198.572 128.064L197.003 128.456C169.31 142.268 141.543 156.105 113.85 169.917L112.282 171.066L110.958 172.802L110.076 174.855C109.513 177.789 109.856 181.358 109.758 184.316" stroke="#A7A9B2" stroke-width="0.6" stroke-linejoin="round"/>
<path d="M111.076 226.952L110.684 226.316C108.968 222.209 111.787 215.437 115.83 213.628L116.59 213.433C116.615 213.433 117.276 213.408 117.301 213.408L117.962 213.555L118.551 213.873L119.041 214.362L119.433 214.997C121.148 219.104 118.33 225.9 114.286 227.685L113.527 227.881L112.816 227.905L112.154 227.758L111.566 227.441C111.517 227.367 111.149 227.025 111.076 226.952Z" stroke="#A7A9B2" stroke-width="0.6" stroke-linejoin="round"/>
<path d="M118.556 227.856C116.399 229.152 114.096 230.472 111.988 231.596C107.43 233.943 102.528 236.461 97.4798 237.586C94.1469 238.442 90.1767 238.637 86.8437 237.635L84.9812 236.828L83.6088 235.826C83.5108 235.704 82.6775 234.652 82.653 234.53C82.3344 233.503 82.2364 232.208 82.2609 231.156C82.2364 228.834 82.2609 226.023 82.2609 223.676C82.2609 221.867 82.2609 219.349 82.2609 217.54C82.2609 215.975 82.2364 214.166 82.5795 212.626C82.8 212.039 83.3637 210.915 83.6823 210.377L86.5006 215.193C86.6231 215.315 86.9417 215.584 87.0888 215.706C87.1868 215.755 88.1916 216.195 88.2406 216.22C94.0733 217.686 100.004 214.777 105.175 212.381C108.042 210.939 111.375 209.179 114.194 207.663C116.571 206.416 119.365 204.803 121.913 203.972L122.82 203.898L123.065 203.972C123.948 204.412 124.903 204.876 125.786 205.316C125.884 205.39 126.251 205.781 126.349 205.879L126.692 206.588C127.403 209.252 127.232 212.43 127.232 215.144C127.109 217.711 127.011 220.742 125.418 222.893C124.193 224.336 122.036 225.656 120.468 226.683C119.855 227.074 119.193 227.465 118.556 227.856Z" stroke="#A7A9B2" stroke-width="0.6" stroke-linejoin="round"/>
<path d="M308.43 204.509C308.43 189.768 308.43 174.88 308.43 160.139" stroke="#A7A9B2" stroke-width="0.6" stroke-linejoin="round"/>
<path d="M398.492 155.177C398.492 139.042 398.492 122.81 398.492 106.675" stroke="#A7A9B2" stroke-width="0.6" stroke-linejoin="round"/>
<path d="M308.598 221.085L308.892 222.331L310.142 223.945L312.005 225.021C314.946 225.681 318.573 225.314 321.563 225.387C325.484 225.387 329.895 225.387 333.816 225.387C346.829 225.387 360.014 225.387 373.028 225.387C386.041 225.387 399.226 225.387 412.239 225.387C416.16 225.387 420.571 225.387 424.493 225.387C427.458 225.289 431.085 225.656 434.001 225.021L435.864 223.945L437.114 222.331L437.555 220.425V219.007V160.115L437.114 158.208L435.864 156.594L434.001 155.519L431.796 155.152H429.345C427.164 155.152 424.174 155.152 421.993 155.152C414.249 155.152 406.259 155.152 398.515 155.152V102.763C398.392 102.029 398 100 397.878 99.3159C397.486 98.6314 396.432 96.8468 396.04 96.2112C395.378 95.6489 393.81 94.2799 393.172 93.7421C392.315 93.3754 390.403 92.5197 389.57 92.153C388.565 91.9819 386.556 91.7619 385.575 91.6152C384.276 91.6152 381.948 91.6152 380.674 91.6152C376.728 91.6152 372.366 91.6397 368.42 91.6397C357.049 91.6641 345.482 91.6886 334.11 91.713C299.825 91.7864 265.466 91.8352 231.18 91.9086C227.382 91.933 222.946 91.8353 219.172 92.1042C215.545 92.4953 211.599 93.2776 208.143 94.3777C204.32 95.8445 200.35 98.0447 196.674 99.8049C173.27 111.393 149.816 123.005 126.412 134.568C118.423 138.528 110.237 142.562 102.273 146.522C99.5278 147.891 96.2194 149.505 93.4991 150.874L91.2934 151.95L89.774 152.707L87.7644 154.101L86.9557 154.663C86.3675 155.323 84.9706 156.888 84.4069 157.523C83.9168 158.355 82.863 160.188 82.3728 160.995C82.0543 161.875 81.368 163.879 81.074 164.76C80.9514 165.64 80.7308 167.595 80.6328 168.427C80.6328 169.453 80.6328 171.36 80.6328 172.338C80.6328 176.249 80.6328 180.65 80.6328 184.561C80.6328 195.905 80.6328 207.443 80.6328 218.787C80.6328 230.13 80.6328 241.669 80.6328 253.012C80.6328 256.923 80.6328 261.324 80.6328 265.235C80.6328 266.164 80.6328 268.487 80.6328 269.44L80.9759 271.86L81.0985 272.667C81.1965 272.838 82.3483 275.038 82.3973 275.136C82.4464 275.161 84.3824 276.578 84.4314 276.603L86.6126 277.703C88.6221 278.705 91.2199 280.001 93.2295 281.003L95.6557 281.297L95.7782 281.321C96.3664 281.126 98.1064 280.612 98.5966 280.465L100.778 279.365C103.523 277.996 106.782 276.358 109.551 274.989C118.251 270.638 127.123 266.189 135.847 261.837C160.624 249.443 185.474 236.999 210.251 224.605C214.491 222.698 219.392 221.745 223.975 221.231C229.93 220.889 236.18 221.134 242.135 221.06C264.24 221.06 286.468 221.085 308.598 221.085Z" stroke="#A7A9B2" stroke-width="1.2" stroke-linejoin="round"/>
</svg>
