<svg width="394" height="300" viewBox="0 0 394 300" fill="none" xmlns="http://www.w3.org/2000/svg">
<path d="M237.688 155.391H242.59H247.492H252.394H257.296H262.198H267.1H272.003H276.905H281.807H286.709H291.611H296.513H301.416H306.318H311.22H316.122H321.024H325.926H330.829H335.731H340.633H345.535H347.194L349.396 155.012L351.263 153.932L352.51 152.316L352.948 150.409V148.997V144.095V139.193V134.29V129.388V124.486V119.584V114.682V109.78V104.877V99.9753V95.0731V91.3534V89.9416L352.51 88.0346L351.263 86.4184L349.396 85.3379L347.194 84.959H342.292H337.39H332.488H327.586H322.684H317.781H313.903" stroke="#A7A9B2" stroke-width="0.6" stroke-linejoin="round"/>
<path d="M352.958 91.3537L352.519 89.4467L351.272 87.8305L349.406 86.75L347.204 86.3711H342.302H337.4H332.498H327.595H322.693H317.791H313.913H309.011H304.109H299.206H294.304H290.171H285.269H280.367H275.465H270.563H270.031" stroke="#A7A9B2" stroke-width="0.6" stroke-linejoin="round"/>
<path d="M319.488 111.257L319.289 112.122V112.592V117.494V122.397V122.731L319.488 123.596L320.053 124.329L320.9 124.818L321.898 124.99H326.8H331.702H336.604H337.473L338.471 124.818L339.317 124.329L339.883 123.596L340.082 122.731V117.829V112.927V112.592V112.122L339.883 111.257L339.317 110.524L338.471 110.034L337.473 109.862H332.57H327.668H322.766H321.898L320.9 110.034L320.053 110.524L319.488 111.257Z" stroke="#A7A9B2" stroke-width="0.6" stroke-linejoin="round"/>
<path d="M340.082 112.591L339.883 111.727L339.317 110.994L338.471 110.504L337.473 110.332H332.57H327.668H322.766H321.898L320.9 110.504L320.053 110.994L319.488 111.727L319.289 112.591" stroke="#A7A9B2" stroke-width="0.6" stroke-linejoin="round"/>
<path d="M306.156 181.922L306.286 181.98L306.416 182.038" stroke="#A7A9B2" stroke-width="0.6" stroke-linejoin="round"/>
<path d="M383.438 220.544L383.61 220.63L383.782 220.716" stroke="#A7A9B2" stroke-width="0.6" stroke-linejoin="round"/>
<path d="M383.05 221.502L383.03 221.483L383.01 221.465L382.99 221.451L382.988 221.449L382.976 221.442L382.942 221.418L382.913 221.402L382.807 221.344L382.672 221.269" stroke="#A7A9B2" stroke-width="0.6" stroke-linejoin="round"/>
<path d="M383.059 220.409L383.047 220.414L383.071 220.404L383.111 220.407L383.144 220.417L383.178 220.428L383.266 220.467L383.308 220.485L383.438 220.543L383.782 220.716" stroke="#A7A9B2" stroke-width="0.6" stroke-linejoin="round"/>
<path d="M384.219 221.416L384.222 221.759L384.226 222.101" stroke="#A7A9B2" stroke-width="0.6" stroke-linejoin="round"/>
<path d="M384.228 205.128L384.098 205.186L383.969 205.244" stroke="#A7A9B2" stroke-width="0.6" stroke-linejoin="round"/>
<path d="M178.33 246.793L178.314 246.781L178.296 246.769L178.263 246.745L178.133 246.674L178.003 246.602L177.825 246.513L177.647 246.424L177.517 246.366L177.387 246.308L177.32 246.287" stroke="#A7A9B2" stroke-width="0.6" stroke-linejoin="round"/>
<path d="M178.492 245.754L178.622 245.812L178.752 245.87" stroke="#A7A9B2" stroke-width="0.6" stroke-linejoin="round"/>
<path d="M177.633 261.83L177.653 261.819L177.762 261.758L177.892 261.686L178.248 261.508" stroke="#A7A9B2" stroke-width="0.6" stroke-linejoin="round"/>
<path d="M255.341 285.298L255.327 285.288L255.325 285.287L255.307 285.275L255.273 285.252L255.247 285.237L255.144 285.18L255.014 285.108L254.836 285.019L254.658 284.93L254.528 284.872L254.487 284.853L254.398 284.814" stroke="#A7A9B2" stroke-width="0.6" stroke-linejoin="round"/>
<path d="M255.508 284.26L255.598 284.3L255.637 284.318L255.767 284.375" stroke="#A7A9B2" stroke-width="0.6" stroke-linejoin="round"/>
<path d="M255.468 290.226L255.463 288.341L255.46 286.456V286.456L255.457 286.232L255.456 286.129L255.453 285.802" stroke="#A7A9B2" stroke-width="0.6" stroke-linejoin="round"/>
<path d="M250.664 297.205L251.191 296.988L251.701 296.777L251.719 296.77L252.248 296.533L252.778 296.296L253.343 296.029L253.907 295.761L254.654 295.392L255.402 295.024L256.51 294.471L257.539 293.957L258.567 293.442L259.986 292.733L261.403 292.025L263.619 290.917L265.835 289.809L269.173 288.14L272.512 286.47L276.896 284.278L277.182 284.135L281.567 281.943L281.853 281.8L286.238 279.607L287.609 278.922L291.993 276.73L293.364 276.044L297.749 273.852L299.844 272.804L304.228 270.612L306.323 269.565L310.708 267.372L313.165 266.144L317.549 263.952L320.006 262.723L324.39 260.531L326.847 259.303L331.231 257.111L333.687 255.882L336.21 254.621L338.733 253.36L343.117 251.168L347.502 248.975L349.64 247.907L354.024 245.714L358.409 243.522L360.547 242.453L364.023 240.715L367.5 238.976L370.838 237.307L374.176 235.638L376.392 234.531L378.608 233.423L380.026 232.713L381.444 232.005L382.258 231.598L383.071 231.191L384.174 230.638L385.127 230.156L386.08 229.675L386.616 229.392L387.151 229.11L387.625 228.845L388.099 228.58L388.534 228.317L388.969 228.053L389.368 227.785L389.767 227.518L390.126 227.243L390.485 226.969L390.802 226.686L391.119 226.402L391.39 226.108L391.661 225.814L391.885 225.51L392.109 225.206L392.121 225.189L392.133 225.171L392.309 224.86L392.485 224.547L392.612 224.229L392.739 223.911L392.815 223.589L392.891 223.267L392.901 223.211L392.911 223.154L392.936 222.83L392.961 222.506L392.969 222.376L392.977 222.247L392.981 221.906L392.986 221.565L392.992 219.698L392.998 217.83L392.992 215.963L392.986 214.095L392.981 213.754L392.977 213.414L392.969 213.284L392.961 213.155L392.936 212.83L392.911 212.506L392.901 212.449L392.891 212.393L392.815 212.071L392.739 211.749L392.612 211.431L392.485 211.113L392.309 210.801L392.133 210.489L392.121 210.471L392.109 210.454L391.885 210.15L391.661 209.846L391.39 209.552L391.119 209.258L390.804 208.975L390.488 208.693L390.136 208.422L389.785 208.152L389.408 207.895L389.031 207.638L388.639 207.396L388.246 207.154L387.82 206.912L387.393 206.671L386.801 206.361L386.208 206.05L385.283 205.582L384.357 205.114L383.25 204.559L382.406 204.137L381.563 203.715L378.594 202.231L375.624 200.746L374.115 199.991L372.605 199.237L369.8 197.834L366.995 196.432L364.028 194.948L361.062 193.465L358.095 191.981L355.129 190.498L352.324 189.095L349.519 187.693L347.037 186.452L344.555 185.211L342.558 184.213L340.561 183.214L339.155 182.512L337.749 181.81L336.82 181.351L335.891 180.892L335.27 180.595L334.649 180.299L334.166 180.086L333.684 179.873L333.673 179.868L333.662 179.864L333.179 179.668L332.694 179.472L332.182 179.283L331.669 179.095L331.129 178.92L330.589 178.745L330.025 178.587L329.46 178.429L328.873 178.294L328.286 178.159L327.679 178.047L327.073 177.935L326.451 177.847L325.829 177.76L325.195 177.696L324.562 177.633L323.919 177.595L323.278 177.558L322.632 177.545L321.987 177.532L321.341 177.545L320.695 177.558L320.053 177.595L319.412 177.633L318.778 177.696L318.144 177.76L317.522 177.847L316.9 177.935L316.294 178.047L315.687 178.159L315.1 178.294L314.513 178.429L313.947 178.588L313.381 178.745L312.834 178.925L312.286 179.104L311.751 179.303L311.216 179.503L310.69 179.72L310.496 179.8L310.491 179.802L310.416 179.833L310.163 179.937" stroke="#A7A9B2" stroke-width="0.6" stroke-linejoin="round"/>
<path d="M383.132 226.392L383.129 224.921L383.128 224.507L383.124 222.622L383.12 222.295L383.117 221.968" stroke="#A7A9B2" stroke-width="0.6" stroke-linejoin="round"/>
<path d="M310.488 179.803L310.483 179.805L310.139 179.947L309.609 180.184L309.079 180.421L308.515 180.689L307.95 180.957L306.986 181.433L306.022 181.909L304.918 182.461L304.104 182.868L303.29 183.274L301.872 183.984L300.454 184.693L299.639 185.1L298.825 185.507L294.44 187.699L294.06 187.89L289.675 190.082L289.294 190.272L287.972 190.934L286.649 191.595L282.264 193.787L279.439 195.2L275.054 197.392L272.229 198.805L271.42 199.209L270.612 199.613L266.227 201.806L263.597 203.121L259.213 205.313L256.582 206.628L252.198 208.821L249.217 210.311L244.832 212.503L241.852 213.993L237.467 216.186L235.011 217.414L230.626 219.606L228.169 220.835L223.785 223.027L221.69 224.074L217.305 226.267L215.211 227.314L212.139 228.85L209.066 230.386L204.682 232.578L200.297 234.771L199.221 235.308L194.837 237.501L190.452 239.693L189.376 240.231L188.529 240.655L187.681 241.079L185.465 242.187L183.249 243.295L181.831 244.003L180.413 244.713L179.385 245.227L178.357 245.741L177.25 246.295L176.514 246.669L175.777 247.043L175.242 247.325L174.706 247.607L174.232 247.872L173.758 248.137L173.323 248.401L172.888 248.664L172.489 248.932L172.09 249.2L171.731 249.474L171.372 249.748L171.055 250.032L170.738 250.315L170.467 250.609L170.196 250.903L169.972 251.207L169.748 251.511L169.736 251.528L169.724 251.546L169.548 251.858L169.372 252.17L169.245 252.488L169.118 252.806L169.042 253.128L168.966 253.45L168.956 253.506L168.946 253.563L168.921 253.887L168.896 254.212L168.888 254.341L168.88 254.47L168.876 254.796L168.872 255.121L168.865 257.004L168.859 258.887L168.865 260.77L168.872 262.653L168.876 262.978L168.88 263.304L168.888 263.433L168.896 263.562L168.921 263.887L168.946 264.211L168.956 264.268L168.966 264.324L169.042 264.646L169.118 264.968L169.245 265.286L169.372 265.604L169.548 265.916L169.724 266.228L169.736 266.246L169.748 266.263L169.972 266.567L170.196 266.87L170.467 267.165L170.738 267.459L171.054 267.742L171.369 268.024L171.721 268.295L172.072 268.565L172.449 268.822L172.826 269.078L173.218 269.321L173.611 269.563L174.038 269.804L174.464 270.046L175.056 270.356L175.649 270.667L176.574 271.135L177.5 271.603L178.608 272.157L179.771 272.739L180.933 273.321L182.187 273.948L183.441 274.575L184.851 275.28L186.261 275.985L187.567 276.638L188.873 277.291L190.356 278.033L191.838 278.774L193.403 279.556L194.968 280.339L197.882 281.796L200.795 283.253L203.709 284.709L206.622 286.166L208.187 286.948L209.752 287.731L211.235 288.472L212.718 289.214L214.024 289.866L215.33 290.52L216.74 291.225L218.15 291.929L219.404 292.556L220.657 293.183L222.039 293.874L223.422 294.564L224.787 295.239L226.152 295.914L226.68 296.166L227.208 296.418L227.691 296.631L228.173 296.845L228.184 296.849L228.195 296.853L228.678 297.049L229.163 297.245L229.676 297.433L230.188 297.622L230.728 297.797L231.268 297.973L231.832 298.13L232.397 298.287L232.984 298.423L233.571 298.559L234.178 298.67L234.784 298.782L235.406 298.87L236.028 298.958L236.662 299.021L237.295 299.084L237.937 299.122L238.579 299.16L239.225 299.172L239.871 299.185L240.516 299.172L241.162 299.16L241.804 299.122L242.445 299.084L243.079 299.021L243.713 298.958L244.335 298.87L244.957 298.782L245.563 298.67L246.17 298.559L246.757 298.423L247.344 298.287L247.91 298.13L248.476 297.972L249.023 297.792L249.571 297.613L250.106 297.413L250.641 297.214L251.167 296.997L251.694 296.78L251.698 296.778" stroke="#A7A9B2" stroke-width="0.6" stroke-linejoin="round"/>
<path d="M339.68 248.116L339.682 248.107L339.685 248.091L339.691 248.066L339.721 247.771L339.752 247.477L339.841 247.172L339.932 246.866L340.074 246.571L340.217 246.276L340.403 246.011L340.589 245.746L340.806 245.53L341.022 245.313L341.255 245.16L341.487 245.007L345.872 242.815L349.718 240.892L354.102 238.699L355.429 238.036" stroke="#A7A9B2" stroke-width="0.6" stroke-linejoin="round"/>
<path d="M305.061 182.475L304.993 182.454L304.973 182.452L304.954 182.451L304.941 182.456L304.93 182.461" stroke="#A7A9B2" stroke-width="0.6" stroke-linejoin="round"/>
<path d="M383.112 221.968L383.106 221.836L383.102 221.704" stroke="#A7A9B2" stroke-width="0.6" stroke-linejoin="round"/>
<path d="M383.126 226.392V225.228L383.125 224.913L383.122 223.184L383.11 221.968L383.1 221.704L383.093 221.643L383.086 221.583" stroke="#A7A9B2" stroke-width="0.6" stroke-linejoin="round"/>
<path d="M383.07 221.536L383.089 221.585L383.08 221.561L383.07 221.536Z" stroke="#A7A9B2" stroke-width="0.6" stroke-linejoin="round"/>
<path d="M383.067 221.519L383.055 221.501L383.079 221.536L383.067 221.519Z" stroke="#A7A9B2" stroke-width="0.6" stroke-linejoin="round"/>
<path d="M384.338 205.104L384.318 205.106L384.297 205.108" stroke="#A7A9B2" stroke-width="0.6" stroke-linejoin="round"/>
<path d="M384.364 205.114L384.34 205.104L384.3 205.107L384.266 205.118L384.232 205.128L383.973 205.244L383.795 205.332L383.617 205.422" stroke="#A7A9B2" stroke-width="0.6" stroke-linejoin="round"/>
<path d="M178.385 245.73L178.359 245.741L178.372 245.736L178.385 245.73Z" stroke="#A7A9B2" stroke-width="0.6" stroke-linejoin="round"/>
<path d="M178.43 245.733L178.463 245.744L178.497 245.754" stroke="#A7A9B2" stroke-width="0.6" stroke-linejoin="round"/>
<path d="M177.461 262.379L177.466 262.248L177.472 262.115" stroke="#A7A9B2" stroke-width="0.6" stroke-linejoin="round"/>
<path d="M177.532 261.914L177.52 261.931L177.508 261.948L177.49 261.995L177.477 262.116L177.483 262.056L177.49 261.995" stroke="#A7A9B2" stroke-width="0.6" stroke-linejoin="round"/>
<path d="M177.572 261.876L177.531 261.914L177.551 261.895L177.572 261.876Z" stroke="#A7A9B2" stroke-width="0.6" stroke-linejoin="round"/>
<path d="M177.604 261.854L177.638 261.83L177.57 261.877L177.604 261.854Z" stroke="#A7A9B2" stroke-width="0.6" stroke-linejoin="round"/>
<path d="M229.19 286.563L228.732 286.36L228.271 286.155L227.757 285.91L227.242 285.664L225.905 285.002L224.568 284.34L223.178 283.646L221.788 282.952L220.539 282.327L219.289 281.702L217.88 280.998L216.471 280.293L215.165 279.64L213.86 278.988L212.603 278.359L212.378 278.247L211.99 278.053L210.896 277.506L209.332 276.724L207.768 275.942L205.597 274.856L204.855 274.485L201.941 273.028L200.934 272.525L199.027 271.571L196.114 270.115L194.55 269.332L192.986 268.551L191.504 267.81L190.022 267.069L188.717 266.416L187.411 265.763L186.002 265.059L184.593 264.354L183.344 263.729L182.094 263.105L180.924 262.519L179.754 261.934L178.646 261.379L177.745 260.924L176.844 260.468L176.265 260.166L175.687 259.863L175.278 259.633L174.869 259.402L174.498 259.174L174.126 258.946L174.047 258.892L173.774 258.707L173.484 258.509L173.421 258.467L173.095 258.217L172.769 257.967L172.477 257.708L172.187 257.449L171.938 257.18L171.69 256.912L171.486 256.637L171.3 256.386L171.281 256.361" stroke="#A7A9B2" stroke-width="0.6" stroke-linejoin="round"/>
<path d="M256.383 284.698L256.417 284.721L256.45 284.745" stroke="#A7A9B2" stroke-width="0.6" stroke-linejoin="round"/>
<path d="M256.531 284.863L256.538 284.924L256.545 284.984" stroke="#A7A9B2" stroke-width="0.6" stroke-linejoin="round"/>
<path d="M256.547 284.984L256.552 285.116L256.557 285.249" stroke="#A7A9B2" stroke-width="0.6" stroke-linejoin="round"/>
<path d="M305.999 182.958L305.981 182.945L305.966 182.934L305.932 182.911L305.672 182.767" stroke="#A7A9B2" stroke-width="0.6" stroke-linejoin="round"/>
<path d="M390.582 215.305L390.564 215.33L390.378 215.58L390.174 215.856L389.925 216.124L389.677 216.392L389.385 216.652L389.093 216.912L388.759 217.166L388.424 217.419L388.379 217.45L388.05 217.67L387.816 217.826L387.675 217.92L387.261 218.17L386.847 218.419L386.391 218.673L385.935 218.927L385.413 219.202L384.891 219.476L383.963 219.945L383.035 220.415L381.932 220.967L381.685 221.09L381.115 221.375L381.011 221.427L380.799 221.533L380.69 221.588L380.298 221.784L380.29 221.788L380.106 221.88L380.01 221.928L379.986 221.94L379.797 222.034L379.108 222.379L379.026 222.42L378.882 222.492L378.582 222.642L378.535 222.665L378.493 222.686L378.437 222.714L378.389 222.738L378.269 222.798L378.156 222.855L378.119 222.873L377.467 223.2L376.93 223.468L376.86 223.503L376.546 223.659L375.251 224.307L373.036 225.414L370.93 226.468L369.699 227.084L369.588 227.139L369.516 227.174L369.282 227.291L369.228 227.319L369.1 227.383L369.014 227.426L368.707 227.579L368.586 227.639L368.337 227.764L368.278 227.794L368.138 227.864L368.085 227.89L367.975 227.945L367.907 227.979L367.785 228.04L367.731 228.067L367.683 228.091L367.626 228.119L367.539 228.164L366.476 228.694L366.36 228.753L364.194 229.836L363.982 229.942L363.873 229.996L363.475 230.195L363.291 230.287L363.193 230.336L363.168 230.348L362.98 230.443L362.884 230.491L362.293 230.786L362.209 230.828L361.768 231.049L361.72 231.072L361.678 231.094L361.622 231.122L361.574 231.146L361.454 231.206L361.341 231.262L361.304 231.281L360.122 231.872L360.052 231.907L359.732 232.067L359.407 232.229L355.023 234.421L354.122 234.872L352.767 235.55L352.702 235.582L352.474 235.696L352.406 235.73L352.285 235.79L352.193 235.836L351.886 235.989L351.772 236.047L351.516 236.175L351.463 236.201L351.317 236.274L351.27 236.298L351.16 236.353L351.092 236.386L350.97 236.448L350.917 236.474L350.868 236.499L350.812 236.527L350.724 236.571L349.661 237.102L349.587 237.139L349.387 237.239L348.5 237.683L344.116 239.875L339.731 242.067L337.593 243.136L335.071 244.397L332.549 245.658L328.164 247.851L325.707 249.079L321.323 251.271L318.866 252.5L314.482 254.692L312.025 255.92L307.64 258.112L305.184 259.341L300.799 261.533L298.705 262.58L294.32 264.773L292.225 265.82L287.84 268.012L286.469 268.698L282.085 270.89L280.713 271.576L276.329 273.768L276.043 273.911L271.658 276.104L271.372 276.247L268.034 277.916L264.696 279.585L262.481 280.692L260.266 281.8L258.85 282.507L257.434 283.215L256.403 283.731L255.371 284.247L254.263 284.8L253.54 285.156L252.819 285.512L252.27 285.773L251.721 286.034L251.213 286.262L250.705 286.49L250.206 286.697L249.727 286.896" stroke="#A7A9B2" stroke-width="0.6" stroke-linejoin="round"/>
<path d="M382.067 220.98L382.034 220.969L382 220.959" stroke="#A7A9B2" stroke-width="0.6" stroke-linejoin="round"/>
<path d="M382.061 220.981L381.994 220.959L381.954 220.957L381.942 220.962L381.93 220.967" stroke="#A7A9B2" stroke-width="0.6" stroke-linejoin="round"/>
<path d="M383.349 205.566L383.315 205.589L383.296 205.603L383.281 205.613" stroke="#A7A9B2" stroke-width="0.6" stroke-linejoin="round"/>
<path d="M178.516 261.392L178.583 261.371L178.603 261.37L178.623 261.368L178.635 261.374L178.647 261.378" stroke="#A7A9B2" stroke-width="0.6" stroke-linejoin="round"/>
<path d="M249.726 286.896H249.725L249.224 287.084L248.723 287.271L248.214 287.439L247.706 287.606L247.185 287.752L246.664 287.898L246.127 288.023L245.59 288.147L245.037 288.25L244.485 288.352L244.11 288.405L243.92 288.432L243.355 288.512L242.78 288.569L242.205 288.626L241.624 288.661L241.042 288.695L240.456 288.707L239.871 288.718L239.286 288.707L238.7 288.695L238.118 288.661L237.536 288.626L236.961 288.569L236.896 288.563L236.386 288.512L235.822 288.432L235.257 288.352L234.704 288.25L234.152 288.147L233.615 288.023L233.077 287.898L232.558 287.753L232.038 287.607L231.538 287.444L231.037 287.281L230.558 287.104L230.078 286.927L229.621 286.741L229.182 286.563L229.164 286.556" stroke="#A7A9B2" stroke-width="0.6" stroke-linejoin="round"/>
<path d="M256.122 284.553L255.766 284.376L255.597 284.3L255.507 284.26L255.439 284.239L255.419 284.238L255.399 284.236L255.375 284.246L255.387 284.241L255.399 284.236" stroke="#A7A9B2" stroke-width="0.6" stroke-linejoin="round"/>
<path d="M355.438 238.035L355.719 237.895L355.813 237.848L357.538 236.985L357.751 236.879L357.926 236.791L357.957 236.776L358.142 236.713L358.19 236.697L358.214 236.688L358.422 236.617" stroke="#A7A9B2" stroke-width="0.6" stroke-linejoin="round"/>
<path d="M357.922 236.792L358.135 236.719L358.184 236.702L358.239 236.683L358.37 236.639L358.453 236.638H358.491H358.59H358.62L358.678 236.638H358.772H358.787H358.809L358.895 236.674L358.997 236.717L359.186 236.797" stroke="#A7A9B2" stroke-width="0.6" stroke-linejoin="round"/>
<path d="M382.25 205.011L382.379 204.939L382.509 204.867" stroke="#A7A9B2" stroke-width="0.6" stroke-linejoin="round"/>
<path d="M382.856 204.689L382.5 204.867L382.678 204.778L382.856 204.689Z" stroke="#A7A9B2" stroke-width="0.6" stroke-linejoin="round"/>
<path d="M194.287 275.211L194.585 275.245L194.589 275.215L194.586 275.185L194.287 275.211ZM194.257 275.483L194.535 275.595L194.55 275.557L194.555 275.516L194.257 275.483ZM194.211 275.597L194.488 275.71L194.489 275.709L194.211 275.597ZM194.165 275.71L194.387 275.912L194.422 275.872L194.442 275.823L194.165 275.71ZM194.091 275.79L194.313 275.993L194.313 275.992L194.091 275.79ZM194.018 275.87L194.14 276.144L194.197 276.119L194.24 276.072L194.018 275.87ZM193.923 275.912L194.043 276.187L194.045 276.186L193.923 275.912ZM193.828 275.954L193.83 276.254L193.892 276.253L193.948 276.229L193.828 275.954ZM193.717 275.955L193.718 276.255L193.72 276.255L193.717 275.955ZM193.606 275.955L193.51 276.24L193.557 276.256L193.607 276.255L193.606 275.955ZM193.487 275.915L193.583 275.631L193.582 275.631L193.487 275.915ZM193.367 275.875L193.202 276.125L193.234 276.147L193.272 276.159L193.367 275.875ZM193.248 275.796L193.083 276.046L193.083 276.046L193.248 275.796ZM193.129 275.717L192.917 275.929L192.938 275.95L192.963 275.967L193.129 275.717ZM193.018 275.605L192.805 275.817L192.805 275.817L193.018 275.605ZM192.907 275.494L192.66 275.664L192.675 275.686L192.694 275.705L192.907 275.494ZM192.812 275.356L193.058 275.185L193.058 275.185L192.812 275.356ZM192.716 275.219L192.445 275.349L192.456 275.371L192.47 275.39L192.716 275.219ZM192.642 275.066L192.372 275.195L192.372 275.195L192.642 275.066ZM192.569 274.912L192.281 274.996L192.288 275.019L192.298 275.041L192.569 274.912ZM192.523 274.753L192.811 274.67L192.811 274.669L192.523 274.753ZM192.477 274.594L192.178 274.625L192.181 274.652L192.189 274.678L192.477 274.594ZM192.461 274.441L192.163 274.471L192.163 274.471L192.461 274.441ZM192.445 274.287L192.147 274.253L192.144 274.285L192.147 274.317L192.445 274.287ZM192.461 274.148L192.163 274.115L192.163 274.115L192.461 274.148ZM192.477 274.01L192.199 273.896L192.183 273.935L192.179 273.976L192.477 274.01ZM192.523 273.897L192.801 274.011L192.801 274.01L192.523 273.897ZM192.569 273.784L192.347 273.582L192.312 273.622L192.292 273.671L192.569 273.784ZM192.642 273.704L192.421 273.501L192.42 273.502L192.642 273.704ZM192.716 273.623L192.595 273.349L192.537 273.374L192.495 273.421L192.716 273.623ZM192.812 273.581L192.73 273.293L192.71 273.298L192.69 273.307L192.812 273.581ZM192.96 273.539L192.966 273.239L192.921 273.238L192.878 273.25L192.96 273.539ZM193.143 273.542L193.24 273.259L193.196 273.243L193.149 273.243L193.143 273.542ZM193.248 273.578L193.151 273.862L193.152 273.863L193.248 273.578ZM193.367 273.618L193.533 273.368L193.5 273.347L193.463 273.334L193.367 273.618ZM193.487 273.697L193.652 273.447L193.652 273.447L193.487 273.697ZM193.606 273.776L193.818 273.565L193.797 273.543L193.771 273.526L193.606 273.776ZM193.717 273.888L193.93 273.677L193.93 273.676L193.717 273.888ZM193.828 274L194.074 273.828L194.059 273.807L194.041 273.789L193.828 274ZM193.923 274.137L194.17 273.967L194.17 273.966L193.923 274.137ZM194.018 274.275L194.289 274.146L194.279 274.124L194.265 274.104L194.018 274.275ZM194.091 274.428L194.362 274.299L194.362 274.299L194.091 274.428ZM194.165 274.582L194.45 274.49L194.444 274.471L194.435 274.453L194.165 274.582ZM194.257 274.868L194.555 274.842L194.553 274.809L194.542 274.777L194.257 274.868ZM193.989 275.178L193.959 275.449L194.555 275.516L194.585 275.245L193.989 275.178ZM193.978 275.371L193.932 275.485L194.489 275.709L194.535 275.595L193.978 275.371ZM193.933 275.484L193.887 275.596L194.442 275.823L194.488 275.71L193.933 275.484ZM193.942 275.508L193.869 275.588L194.313 275.992L194.387 275.912L193.942 275.508ZM193.87 275.588L193.797 275.668L194.24 276.072L194.313 275.993L193.87 275.588ZM193.897 275.596L193.802 275.638L194.045 276.186L194.14 276.144L193.897 275.596ZM193.803 275.637L193.708 275.679L193.948 276.229L194.043 276.187L193.803 275.637ZM193.825 275.654L193.714 275.655L193.72 276.255L193.83 276.254L193.825 275.654ZM193.716 275.655L193.604 275.655L193.607 276.255L193.718 276.255L193.716 275.655ZM193.702 275.671L193.583 275.631L193.391 276.199L193.51 276.24L193.702 275.671ZM193.582 275.631L193.463 275.591L193.272 276.159L193.391 276.199L193.582 275.631ZM193.533 275.625L193.414 275.546L193.083 276.046L193.202 276.125L193.533 275.625ZM193.414 275.546L193.295 275.467L192.963 275.967L193.083 276.046L193.414 275.546ZM193.342 275.505L193.23 275.394L192.805 275.817L192.917 275.929L193.342 275.505ZM193.231 275.394L193.119 275.282L192.694 275.705L192.805 275.817L193.231 275.394ZM193.153 275.323L193.058 275.185L192.565 275.527L192.66 275.664L193.153 275.323ZM193.058 275.185L192.962 275.048L192.47 275.39L192.565 275.528L193.058 275.185ZM192.986 275.089L192.913 274.936L192.372 275.195L192.445 275.349L192.986 275.089ZM192.913 274.937L192.84 274.783L192.298 275.041L192.372 275.195L192.913 274.937ZM192.857 274.829L192.811 274.67L192.235 274.837L192.281 274.996L192.857 274.829ZM192.811 274.669L192.765 274.51L192.189 274.678L192.235 274.837L192.811 274.669ZM192.775 274.563L192.759 274.41L192.163 274.471L192.178 274.625L192.775 274.563ZM192.759 274.41L192.744 274.256L192.147 274.317L192.163 274.471L192.759 274.41ZM192.743 274.32L192.759 274.182L192.163 274.115L192.147 274.253L192.743 274.32ZM192.759 274.182L192.775 274.044L192.179 273.976L192.163 274.115L192.759 274.182ZM192.754 274.124L192.801 274.011L192.246 273.783L192.199 273.896L192.754 274.124ZM192.801 274.01L192.847 273.898L192.292 273.671L192.246 273.783L192.801 274.01ZM192.791 273.986L192.864 273.906L192.42 273.502L192.347 273.582L192.791 273.986ZM192.864 273.906L192.937 273.826L192.495 273.421L192.421 273.501L192.864 273.906ZM192.837 273.898L192.933 273.856L192.69 273.307L192.595 273.349L192.837 273.898ZM192.893 273.87L193.042 273.828L192.878 273.25L192.73 273.293L192.893 273.87ZM192.954 273.839L193.138 273.842L193.149 273.243L192.966 273.239L192.954 273.839ZM193.047 273.826L193.151 273.862L193.345 273.294L193.24 273.259L193.047 273.826ZM193.152 273.863L193.272 273.903L193.463 273.334L193.344 273.294L193.152 273.863ZM193.202 273.869L193.321 273.947L193.652 273.447L193.533 273.368L193.202 273.869ZM193.321 273.947L193.44 274.026L193.771 273.526L193.652 273.447L193.321 273.947ZM193.393 273.988L193.504 274.1L193.93 273.676L193.818 273.565L193.393 273.988ZM193.504 274.099L193.615 274.211L194.041 273.789L193.93 273.677L193.504 274.099ZM193.582 274.171L193.677 274.309L194.17 273.966L194.074 273.828L193.582 274.171ZM193.676 274.308L193.772 274.445L194.265 274.104L194.17 273.967L193.676 274.308ZM193.748 274.404L193.821 274.557L194.362 274.299L194.289 274.146L193.748 274.404ZM193.821 274.557L193.894 274.711L194.435 274.453L194.362 274.299L193.821 274.557ZM193.879 274.674L193.971 274.96L194.542 274.777L194.45 274.49L193.879 274.674ZM193.958 274.895L193.988 275.238L194.586 275.185L194.555 274.842L193.958 274.895Z" fill="#A7A9B2"/>
<path d="M209.076 282.604L209.374 282.637L209.378 282.607L209.375 282.577L209.076 282.604ZM209.046 282.875L209.324 282.988L209.339 282.95L209.344 282.909L209.046 282.875ZM209 282.99L209.277 283.103L209.278 283.102L209 282.99ZM208.954 283.102L209.176 283.304L209.211 283.265L209.231 283.216L208.954 283.102ZM208.881 283.183L209.102 283.385L209.103 283.384L208.881 283.183ZM208.807 283.263L208.929 283.537L208.986 283.511L209.029 283.465L208.807 283.263ZM208.712 283.305L208.832 283.58L208.834 283.579L208.712 283.305ZM208.617 283.346L208.619 283.646L208.681 283.646L208.737 283.621L208.617 283.346ZM208.506 283.347L208.507 283.647L208.509 283.647L208.506 283.347ZM208.395 283.348L208.299 283.632L208.346 283.648L208.396 283.648L208.395 283.348ZM208.276 283.308L208.372 283.023L208.371 283.023L208.276 283.308ZM208.156 283.268L207.991 283.518L208.023 283.539L208.061 283.552L208.156 283.268ZM208.037 283.189L207.872 283.439L207.872 283.439L208.037 283.189ZM207.918 283.11L207.706 283.321L207.727 283.343L207.753 283.36L207.918 283.11ZM207.807 282.998L207.594 283.21L207.594 283.21L207.807 282.998ZM207.696 282.886L207.449 283.057L207.464 283.079L207.483 283.098L207.696 282.886ZM207.601 282.749L207.847 282.578L207.847 282.577L207.601 282.749ZM207.505 282.612L207.234 282.741L207.245 282.763L207.259 282.783L207.505 282.612ZM207.431 282.458L207.161 282.587L207.161 282.588L207.431 282.458ZM207.358 282.305L207.07 282.388L207.077 282.412L207.088 282.434L207.358 282.305ZM207.312 282.146L207.6 282.062L207.6 282.062L207.312 282.146ZM207.266 281.987L206.967 282.017L206.97 282.044L206.978 282.071L207.266 281.987ZM207.25 281.833L206.952 281.864L206.952 281.864L207.25 281.833ZM207.234 281.679L206.936 281.645L206.933 281.678L206.936 281.71L207.234 281.679ZM207.25 281.541L206.952 281.507L206.952 281.507L207.25 281.541ZM207.266 281.403L206.988 281.289L206.972 281.327L206.968 281.369L207.266 281.403ZM207.312 281.289L207.59 281.404L207.59 281.403L207.312 281.289ZM207.358 281.177L207.136 280.975L207.101 281.014L207.081 281.063L207.358 281.177ZM207.431 281.096L207.21 280.894L207.209 280.895L207.431 281.096ZM207.505 281.016L207.384 280.741L207.326 280.767L207.284 280.814L207.505 281.016ZM207.601 280.974L207.519 280.685L207.499 280.691L207.48 280.699L207.601 280.974ZM207.749 280.932L207.755 280.632L207.71 280.631L207.667 280.643L207.749 280.932ZM207.932 280.935L208.029 280.651L207.985 280.636L207.938 280.635L207.932 280.935ZM208.037 280.971L207.94 281.255L207.941 281.255L208.037 280.971ZM208.156 281.011L208.322 280.761L208.289 280.739L208.252 280.727L208.156 281.011ZM208.276 281.09L208.441 280.84L208.441 280.84L208.276 281.09ZM208.395 281.169L208.607 280.957L208.586 280.936L208.56 280.919L208.395 281.169ZM208.506 281.281L208.719 281.069L208.719 281.069L208.506 281.281ZM208.617 281.392L208.863 281.221L208.848 281.2L208.83 281.181L208.617 281.392ZM208.712 281.53L208.959 281.359L208.959 281.358L208.712 281.53ZM208.807 281.667L209.078 281.538L209.068 281.517L209.054 281.497L208.807 281.667ZM208.881 281.821L209.151 281.692L209.151 281.692L208.881 281.821ZM208.954 281.974L209.239 281.883L209.233 281.863L209.224 281.845L208.954 281.974ZM209.046 282.261L209.345 282.235L209.342 282.201L209.331 282.169L209.046 282.261ZM208.778 282.57L208.748 282.842L209.344 282.909L209.374 282.637L208.778 282.57ZM208.768 282.763L208.721 282.877L209.278 283.102L209.324 282.988L208.768 282.763ZM208.722 282.876L208.676 282.989L209.231 283.216L209.277 283.103L208.722 282.876ZM208.732 282.901L208.659 282.981L209.103 283.384L209.176 283.304L208.732 282.901ZM208.659 282.98L208.586 283.06L209.029 283.465L209.102 283.385L208.659 282.98ZM208.686 282.988L208.591 283.031L208.834 283.579L208.929 283.537L208.686 282.988ZM208.592 283.03L208.497 283.071L208.737 283.621L208.832 283.58L208.592 283.03ZM208.614 283.046L208.503 283.047L208.509 283.647L208.619 283.646L208.614 283.046ZM208.505 283.047L208.393 283.048L208.396 283.648L208.507 283.647L208.505 283.047ZM208.491 283.064L208.372 283.023L208.18 283.592L208.299 283.632L208.491 283.064ZM208.371 283.023L208.252 282.983L208.061 283.552L208.18 283.592L208.371 283.023ZM208.322 283.017L208.203 282.939L207.872 283.439L207.991 283.518L208.322 283.017ZM208.203 282.939L208.084 282.86L207.753 283.36L207.872 283.439L208.203 282.939ZM208.131 282.898L208.02 282.786L207.594 283.21L207.706 283.321L208.131 282.898ZM208.02 282.786L207.908 282.674L207.483 283.098L207.594 283.21L208.02 282.786ZM207.942 282.715L207.847 282.578L207.354 282.92L207.449 283.057L207.942 282.715ZM207.847 282.577L207.751 282.44L207.259 282.783L207.354 282.92L207.847 282.577ZM207.776 282.482L207.702 282.329L207.161 282.588L207.234 282.741L207.776 282.482ZM207.702 282.329L207.629 282.176L207.088 282.434L207.161 282.587L207.702 282.329ZM207.647 282.221L207.6 282.062L207.024 282.229L207.07 282.388L207.647 282.221ZM207.6 282.062L207.554 281.902L206.978 282.071L207.024 282.23L207.6 282.062ZM207.564 281.956L207.548 281.803L206.952 281.864L206.967 282.017L207.564 281.956ZM207.549 281.803L207.533 281.649L206.936 281.71L206.952 281.864L207.549 281.803ZM207.532 281.713L207.548 281.575L206.952 281.507L206.936 281.645L207.532 281.713ZM207.548 281.575L207.564 281.437L206.968 281.369L206.952 281.507L207.548 281.575ZM207.543 281.517L207.59 281.404L207.035 281.175L206.988 281.289L207.543 281.517ZM207.59 281.403L207.636 281.29L207.081 281.063L207.035 281.176L207.59 281.403ZM207.58 281.379L207.653 281.298L207.209 280.895L207.136 280.975L207.58 281.379ZM207.653 281.299L207.726 281.218L207.284 280.814L207.21 280.894L207.653 281.299ZM207.626 281.29L207.722 281.248L207.48 280.699L207.384 280.741L207.626 281.29ZM207.682 281.262L207.831 281.22L207.667 280.643L207.519 280.685L207.682 281.262ZM207.743 281.232L207.927 281.235L207.938 280.635L207.755 280.632L207.743 281.232ZM207.836 281.219L207.94 281.255L208.134 280.687L208.029 280.651L207.836 281.219ZM207.941 281.255L208.061 281.295L208.252 280.727L208.133 280.687L207.941 281.255ZM207.991 281.261L208.11 281.34L208.441 280.84L208.322 280.761L207.991 281.261ZM208.11 281.34L208.229 281.419L208.56 280.919L208.441 280.84L208.11 281.34ZM208.182 281.381L208.293 281.492L208.719 281.069L208.607 280.957L208.182 281.381ZM208.293 281.492L208.404 281.604L208.83 281.181L208.719 281.069L208.293 281.492ZM208.371 281.564L208.466 281.701L208.959 281.358L208.863 281.221L208.371 281.564ZM208.465 281.7L208.561 281.838L209.054 281.497L208.959 281.359L208.465 281.7ZM208.537 281.796L208.61 281.95L209.151 281.692L209.078 281.538L208.537 281.796ZM208.61 281.95L208.683 282.103L209.224 281.845L209.151 281.692L208.61 281.95ZM208.668 282.066L208.76 282.353L209.331 282.169L209.239 281.883L208.668 282.066ZM208.747 282.288L208.777 282.63L209.375 282.577L209.345 282.235L208.747 282.288Z" fill="#A7A9B2"/>
<path d="M384.225 229.642L384.222 229.909L384.219 230.248" stroke="#A7A9B2" stroke-width="0.6" stroke-linejoin="round"/>
<path d="M255.422 294.995L255.429 294.941L255.436 294.888L255.442 294.762L255.447 294.635L255.45 294.311L255.453 294.025L255.453 293.987V293.987V293.983L255.455 293.07L255.457 292.107L255.462 290.226" stroke="#A7A9B2" stroke-width="0.6" stroke-linejoin="round"/>
<path d="M256.561 293.434V293.434L256.561 293.474L256.558 293.758L256.555 294.082" stroke="#A7A9B2" stroke-width="0.6" stroke-linejoin="round"/>
<path d="M383.117 230.801L383.12 230.477L383.123 230.197L383.124 230.155V230.153L383.126 229.241L383.128 228.273L383.132 226.392V227.555L383.129 229.239L383.129 229.597L383.124 230.155L383.123 230.197L383.117 230.801Z" stroke="#A7A9B2" stroke-width="0.6" stroke-linejoin="round"/>
<path d="M383.102 231.055L383.106 230.928L383.112 230.801L383.102 231.055Z" stroke="#A7A9B2" stroke-width="0.6" stroke-linejoin="round"/>
<path d="M383.088 231.161L383.095 231.108L383.103 231.055L383.088 231.161ZM383.088 231.161L383.07 231.191" stroke="#A7A9B2" stroke-width="0.6" stroke-linejoin="round"/>
<path d="M177.472 271.466L177.466 271.34L177.461 271.213" stroke="#A7A9B2" stroke-width="0.6" stroke-linejoin="round"/>
<path d="M256.54 294.335L256.533 294.388L256.526 294.441L256.517 294.457L256.508 294.471" stroke="#A7A9B2" stroke-width="0.6" stroke-linejoin="round"/>
<path d="M256.557 294.082L256.552 294.209L256.547 294.336L256.557 294.082ZM256.557 294.082L256.563 293.474L256.564 293.434L256.569 292.878L256.569 292.517L256.572 290.837V289.673V288.509L256.569 286.465L256.557 285.249" stroke="#A7A9B2" stroke-width="0.6" stroke-linejoin="round"/>
<path d="M339.752 248.682L339.747 248.644L339.721 248.419L339.691 248.155L339.685 248.136L339.68 248.116" stroke="#A7A9B2" stroke-width="0.6" stroke-linejoin="round"/>
<path d="M339.689 248.155L339.683 248.124L339.68 248.105" stroke="#A7A9B2" stroke-width="0.6" stroke-linejoin="round"/>
<path d="M196.577 274.699L196.576 274.699M196.576 274.699L196.376 274.825L196.175 274.951L196.157 274.982L195.917 275.391L195.828 275.977L195.917 276.652L196.161 277.311L196.175 277.349L196.576 278L197.082 278.542L197.293 278.686L197.362 278.732L197.641 278.922L203.882 282.042L204.162 282.132L204.231 282.154L204.442 282.222L204.947 282.185L204.966 282.173L205.147 282.059L205.347 281.934L205.604 281.495L205.614 281.425L205.692 280.909L205.648 280.571L205.64 280.513L205.604 280.234L205.475 279.885L205.387 279.644L205.347 279.536L204.947 278.884L204.694 278.613L204.442 278.342L203.893 277.97M196.576 274.699L197.083 274.662L197.338 274.744L197.363 274.752L197.632 274.839M197.561 274.804L198.088 275.067L198.294 275.17L198.993 275.52L199.152 275.599L203.893 277.97M203.893 277.97L203.925 277.985" stroke="#A7A9B2" stroke-width="0.6" stroke-linejoin="round"/>
<path d="M340.619 249.531H340.59L340.402 249.451L340.214 249.372L340.135 249.288L340.07 249.218L340.053 249.2L339.993 249.137L339.925 249.064L339.834 248.846L339.75 248.644" stroke="#A7A9B2" stroke-width="0.6" stroke-linejoin="round"/>
<path d="M178.594 272.128L178.603 272.143L178.612 272.158L178.594 272.128Z" stroke="#A7A9B2" stroke-width="0.6" stroke-linejoin="round"/>
<path d="M178.555 267.358L178.559 269.239L178.561 270.209L178.564 271.115V271.12L178.564 271.165L178.566 271.444L178.57 271.767" stroke="#A7A9B2" stroke-width="0.6" stroke-linejoin="round"/>
<path d="M255.406 295.024L255.415 295.009L255.424 294.994L255.406 295.024Z" stroke="#A7A9B2" stroke-width="0.6" stroke-linejoin="round"/>
<path d="M178.58 272.021L178.587 272.074L178.594 272.128L178.58 272.021ZM178.58 272.021L178.575 271.894L178.57 271.767L178.564 271.165L178.564 271.115L178.558 270.563L178.558 270.208L178.555 267.358" stroke="#A7A9B2" stroke-width="0.6" stroke-linejoin="round"/>
<path d="M384.197 230.61L384.189 230.624L384.18 230.639L384.197 230.61ZM384.197 230.61L384.204 230.556L384.212 230.503" stroke="#A7A9B2" stroke-width="0.6" stroke-linejoin="round"/>
<path d="M384.221 230.249L384.216 230.376L384.211 230.502L384.221 230.249Z" stroke="#A7A9B2" stroke-width="0.6" stroke-linejoin="round"/>
<path d="M177.502 271.603L177.484 271.573L177.47 271.466L177.459 271.213L177.457 270.889L177.456 270.847L177.454 270.61L177.453 270.565V270.564" stroke="#A7A9B2" stroke-width="0.6" stroke-linejoin="round"/>
<path d="M188.091 271.409L188.159 271.55M188.091 271.409L188.015 271.301L187.937 271.189L187.842 271.092L187.741 270.99L187.638 270.922L187.536 270.854L187.33 270.784L187.234 270.785L187.138 270.786L187.056 270.822L186.976 270.858L186.849 270.996L186.809 271.094L186.766 271.192L186.751 271.326L186.734 271.461L186.751 271.611L186.769 271.695L186.809 271.832L186.849 271.969L186.976 272.234L187.057 272.352L187.14 272.471L187.331 272.663L187.537 272.799L187.64 272.834L187.743 272.869L187.838 272.868L187.934 272.868L188.016 272.831L188.099 272.796L188.161 272.726L188.225 272.657L188.264 272.56L188.303 272.462L188.317 272.343L188.328 272.238L188.312 272.092L188.305 272.016L188.297 271.942L188.257 271.806L188.219 271.675L188.159 271.55M188.091 271.409L188.159 271.549L188.159 271.55" stroke="#A7A9B2" stroke-width="0.6" stroke-linejoin="round"/>
<path d="M214.56 284.638L214.628 284.78M214.56 284.638L214.484 284.531L214.406 284.418L214.311 284.321L214.21 284.219L214.107 284.151L214.004 284.083L213.798 284.014L213.703 284.015L213.607 284.015L213.524 284.051L213.444 284.088L213.318 284.226L213.278 284.323L213.235 284.421L213.219 284.556L213.203 284.691L213.219 284.841L213.238 284.924L213.278 285.062L213.318 285.199L213.444 285.463L213.526 285.581L213.608 285.7L213.8 285.893L214.006 286.029L214.108 286.064L214.211 286.099L214.307 286.098L214.403 286.097L214.485 286.061L214.567 286.025L214.63 285.956L214.693 285.887L214.733 285.789L214.772 285.692L214.785 285.573L214.796 285.468L214.781 285.322L214.773 285.245L214.765 285.172L214.726 285.036L214.688 284.904L214.628 284.78M214.56 284.638L214.628 284.779L214.628 284.78" stroke="#A7A9B2" stroke-width="0.6" stroke-linejoin="round"/>
<path d="M217.231 285.984L217.3 286.126M217.231 285.984L217.156 285.877L217.078 285.764L216.983 285.667L216.882 285.565L216.779 285.497L216.676 285.429L216.47 285.359L216.375 285.36L216.279 285.361L216.196 285.397L216.116 285.433L215.99 285.572L215.949 285.669L215.907 285.767L215.891 285.902L215.875 286.036L215.891 286.186L215.91 286.27L215.949 286.407L215.99 286.544L216.116 286.809L216.198 286.927L216.28 287.046L216.472 287.238L216.678 287.375L216.78 287.409L216.883 287.444L216.979 287.443L217.075 287.443L217.157 287.406L217.239 287.371L217.302 287.302L217.365 287.232L217.404 287.135L217.444 287.037L217.457 286.918L217.468 286.813L217.453 286.667L217.445 286.591L217.437 286.517L217.398 286.381L217.359 286.25L217.3 286.126M217.231 285.984L217.3 286.125L217.3 286.126" stroke="#A7A9B2" stroke-width="0.6" stroke-linejoin="round"/>
<path d="M219.919 287.326L219.988 287.467M219.919 287.326L219.843 287.218L219.765 287.106L219.67 287.009L219.569 286.907L219.466 286.839L219.364 286.771L219.158 286.701L219.062 286.702L218.966 286.703L218.884 286.739L218.804 286.775L218.677 286.913L218.637 287.011L218.594 287.109L218.579 287.243L218.562 287.378L218.579 287.528L218.597 287.612L218.637 287.749L218.677 287.886L218.804 288.151L218.885 288.269L218.968 288.388L219.16 288.58L219.365 288.716L219.468 288.751L219.571 288.786L219.666 288.785L219.762 288.785L219.844 288.748L219.927 288.713L219.989 288.643L220.053 288.574L220.092 288.477L220.132 288.379L220.145 288.26L220.156 288.155L220.141 288.009L220.133 287.933L220.125 287.859L220.085 287.723L220.047 287.592L219.988 287.467M219.919 287.326L219.987 287.466L219.988 287.467" stroke="#A7A9B2" stroke-width="0.6" stroke-linejoin="round"/>
<path d="M222.599 288.667L222.667 288.809M222.599 288.667L222.523 288.56L222.445 288.447L222.35 288.35L222.249 288.248L222.146 288.181L222.043 288.113L221.837 288.043L221.742 288.044L221.646 288.044L221.563 288.081L221.483 288.117L221.357 288.255L221.317 288.353L221.274 288.45L221.258 288.585L221.242 288.72L221.258 288.87L221.277 288.954L221.317 289.091L221.357 289.228L221.483 289.493L221.565 289.611L221.648 289.729L221.839 289.922L222.045 290.058L222.148 290.093L222.251 290.128L222.346 290.127L222.442 290.126L222.524 290.09L222.606 290.054L222.669 289.985L222.732 289.916L222.772 289.819L222.811 289.721L222.825 289.602L222.835 289.497L222.82 289.351L222.812 289.274L222.805 289.201L222.765 289.065L222.727 288.934L222.667 288.809M222.599 288.667L222.667 288.808L222.667 288.809" stroke="#A7A9B2" stroke-width="0.6" stroke-linejoin="round"/>
<path d="M225.294 290.005L225.363 290.147M225.294 290.005L225.218 289.898L225.14 289.785L225.045 289.688L224.944 289.586L224.841 289.519L224.739 289.45L224.533 289.381L224.437 289.382L224.341 289.382L224.259 289.419L224.179 289.455L224.052 289.593L224.012 289.691L223.969 289.788L223.954 289.923L223.938 290.058L223.954 290.208L223.972 290.292L224.012 290.429L224.052 290.566L224.179 290.83L224.26 290.949L224.343 291.067L224.535 291.26L224.74 291.396L224.843 291.431L224.946 291.466L225.041 291.465L225.137 291.464L225.219 291.428L225.302 291.392L225.364 291.323L225.428 291.254L225.467 291.156L225.507 291.059L225.52 290.94L225.531 290.835L225.516 290.689L225.508 290.612L225.5 290.539L225.46 290.403L225.422 290.272L225.363 290.147M225.294 290.005L225.362 290.146L225.363 290.147" stroke="#A7A9B2" stroke-width="0.6" stroke-linejoin="round"/>
<path d="M182.7 268.749L182.769 268.89M182.7 268.749L182.625 268.641L182.546 268.528L182.451 268.431L182.35 268.329L182.247 268.262L182.145 268.194L181.939 268.124L181.843 268.125L181.747 268.125L181.665 268.162L181.585 268.198L181.458 268.336L181.418 268.434L181.376 268.531L181.36 268.666L181.344 268.801L181.36 268.951L181.378 269.035L181.418 269.172L181.458 269.309L181.585 269.574L181.667 269.692L181.749 269.81L181.941 270.003L182.147 270.139L182.249 270.174L182.352 270.209L182.448 270.208L182.544 270.207L182.626 270.171L182.708 270.135L182.771 270.066L182.834 269.997L182.873 269.9L182.913 269.802L182.926 269.683L182.937 269.578L182.922 269.432L182.914 269.355L182.906 269.282L182.866 269.146L182.828 269.015L182.769 268.89M182.7 268.749L182.768 268.889L182.769 268.89" stroke="#A7A9B2" stroke-width="0.6" stroke-linejoin="round"/>
<path d="M185.419 270.067L185.488 270.209M185.419 270.067L185.343 269.96L185.265 269.847L185.17 269.75L185.069 269.648L184.966 269.58L184.864 269.512L184.658 269.442L184.562 269.443L184.466 269.444L184.384 269.48L184.304 269.516L184.177 269.655L184.137 269.752L184.094 269.85L184.079 269.985L184.062 270.119L184.079 270.269L184.097 270.353L184.137 270.49L184.177 270.627L184.304 270.892L184.385 271.01L184.468 271.129L184.66 271.321L184.865 271.458L184.968 271.492L185.071 271.527L185.166 271.526L185.262 271.526L185.344 271.49L185.427 271.454L185.489 271.385L185.553 271.315L185.592 271.218L185.632 271.12L185.645 271.001L185.656 270.896L185.641 270.75L185.633 270.674L185.625 270.6L185.585 270.464L185.547 270.333L185.488 270.209M185.419 270.067L185.487 270.208L185.488 270.209" stroke="#A7A9B2" stroke-width="0.6" stroke-linejoin="round"/>
<path d="M178.612 262.502L178.603 262.527L178.594 262.551" stroke="#A7A9B2" stroke-width="0.6" stroke-linejoin="round"/>
<path d="M179.002 262.24L178.872 262.312L178.762 262.373L178.742 262.384" stroke="#A7A9B2" stroke-width="0.6" stroke-linejoin="round"/>
<path d="M254.291 284.79L254.279 284.796L254.266 284.801L254.291 284.79Z" stroke="#A7A9B2" stroke-width="0.6" stroke-linejoin="round"/>
<path d="M254.336 284.792L254.404 284.813L254.37 284.802L254.336 284.792Z" stroke="#A7A9B2" stroke-width="0.6" stroke-linejoin="round"/>
<path d="M254.338 284.793L254.318 284.792L254.297 284.79L254.338 284.793Z" stroke="#A7A9B2" stroke-width="0.6" stroke-linejoin="round"/>
<path d="M178.57 262.934L178.566 263.261L178.564 263.588L178.559 265.474L178.555 267.359L178.558 264.151L178.57 262.934ZM178.57 262.934L178.58 262.67L178.594 262.55L178.612 262.502L178.624 262.485L178.636 262.468L178.656 262.45L178.676 262.431L178.69 262.421L178.71 262.408L178.743 262.384L178.764 262.373L179.003 262.24" stroke="#A7A9B2" stroke-width="0.6" stroke-linejoin="round"/>
<path d="M179.759 261.933L179.735 261.923L179.715 261.924L179.695 261.925" stroke="#A7A9B2" stroke-width="0.6" stroke-linejoin="round"/>
<path d="M179.617 261.947L179.685 261.926L179.651 261.936L179.617 261.947Z" stroke="#A7A9B2" stroke-width="0.6" stroke-linejoin="round"/>
<path d="M179.438 246.238L179.446 246.246" stroke="#A7A9B2" stroke-width="0.6" stroke-linejoin="round"/>
<path d="M382.174 205.058L382.208 205.035L382.241 205.012L382.174 205.058ZM382.174 205.058L382.172 205.06" stroke="#A7A9B2" stroke-width="0.6" stroke-linejoin="round"/>
<path d="M383.283 205.612L383.281 205.614" stroke="#A7A9B2" stroke-width="0.6" stroke-linejoin="round"/>
<path d="M307.031 182.36L307.065 182.383L307.099 182.407" stroke="#A7A9B2" stroke-width="0.6" stroke-linejoin="round"/>
<path d="M307.102 182.406L307.11 182.414" stroke="#A7A9B2" stroke-width="0.6" stroke-linejoin="round"/>
<path d="M255.443 285.801L255.438 285.669" stroke="#A7A9B2" stroke-width="0.6" stroke-linejoin="round"/>
<path d="M255.446 286.231L255.442 285.801L255.431 285.537L255.424 285.477L255.417 285.416L255.399 285.369L255.375 285.335" stroke="#A7A9B2" stroke-width="0.6" stroke-linejoin="round"/>
<path d="M255.377 285.336L255.357 285.317L255.336 285.298L255.377 285.336Z" stroke="#A7A9B2" stroke-width="0.6" stroke-linejoin="round"/>
<path d="M179.106 246.048L178.75 245.87L178.49 245.754L178.423 245.733L178.383 245.73L178.403 245.732" stroke="#A7A9B2" stroke-width="0.6" stroke-linejoin="round"/>
<path d="M177.283 246.284L177.271 246.289L177.258 246.295" stroke="#A7A9B2" stroke-width="0.6" stroke-linejoin="round"/>
<path d="M177.323 246.287L177.302 246.286L177.281 246.284L177.323 246.287Z" stroke="#A7A9B2" stroke-width="0.6" stroke-linejoin="round"/>
<path d="M383.117 204.573L383.151 204.563L383.185 204.553" stroke="#A7A9B2" stroke-width="0.6" stroke-linejoin="round"/>
<path d="M383.188 204.553L383.208 204.551L383.228 204.55" stroke="#A7A9B2" stroke-width="0.6" stroke-linejoin="round"/>
<path d="M384.156 220.949L384.168 220.967L384.181 220.984" stroke="#A7A9B2" stroke-width="0.6" stroke-linejoin="round"/>
<path d="M384.039 220.865L384.073 220.889L384.106 220.912L384.146 220.949L384.17 220.983L384.179 221.007L384.188 221.03L384.195 221.091L384.202 221.151L384.208 221.283L384.213 221.415L384.219 222.101L384.224 222.631L384.228 224.676V225.839V227.003L384.225 228.684L384.224 229.044L384.218 229.642" stroke="#A7A9B2" stroke-width="0.6" stroke-linejoin="round"/>
<path d="M306.415 182.038L306.155 181.922L306.121 181.912L306.087 181.901L306.047 181.898L306.023 181.908L306.036 181.903L306.047 181.898" stroke="#A7A9B2" stroke-width="0.6" stroke-linejoin="round"/>
<path d="M310.499 179.801L310.49 179.805L310.156 179.942L310.42 179.834" stroke="#A7A9B2" stroke-width="0.6" stroke-linejoin="round"/>
<path d="M256.554 285.575L256.55 285.248L256.54 284.984L256.526 284.863L256.508 284.815L256.484 284.782L256.444 284.744L256.376 284.698L256.351 284.684L256.117 284.554L256.247 284.626" stroke="#A7A9B2" stroke-width="0.6" stroke-linejoin="round"/>
<path d="M179.444 246.246L179.436 246.239L179.369 246.192L179.109 246.048L179.239 246.12L179.369 246.192" stroke="#A7A9B2" stroke-width="0.6" stroke-linejoin="round"/>
<path d="M179.359 262.061L179.521 261.99L179.619 261.946L179.521 261.99L179.489 262.004L179.359 262.061Z" stroke="#A7A9B2" stroke-width="0.6" stroke-linejoin="round"/>
<path d="M382.33 221.096L382.2 221.038L382.16 221.02L382.07 220.98L382.16 221.02L382.33 221.096Z" stroke="#A7A9B2" stroke-width="0.6" stroke-linejoin="round"/>
<path d="M382.665 221.268L382.492 221.182L382.32 221.096L382.665 221.268Z" stroke="#A7A9B2" stroke-width="0.6" stroke-linejoin="round"/>
<path d="M383.258 204.56L383.234 204.55L383.195 204.553L383.127 204.573L382.867 204.689L382.997 204.631L383.127 204.573" stroke="#A7A9B2" stroke-width="0.6" stroke-linejoin="round"/>
<path d="M305.328 182.596L305.673 182.768L305.501 182.682L305.328 182.596Z" stroke="#A7A9B2" stroke-width="0.6" stroke-linejoin="round"/>
<path d="M305.325 182.596L305.19 182.535L305.055 182.475L305.325 182.596Z" stroke="#A7A9B2" stroke-width="0.6" stroke-linejoin="round"/>
<path d="M179.356 262.062L179.178 262.151L179 262.239L179.356 262.062Z" stroke="#A7A9B2" stroke-width="0.6" stroke-linejoin="round"/>
<path d="M178.25 261.508L178.38 261.45L178.411 261.436L178.51 261.393L178.411 261.436L178.25 261.508Z" stroke="#A7A9B2" stroke-width="0.6" stroke-linejoin="round"/>
<path d="M177.454 263.036V263.034L177.458 262.707L177.46 262.38L177.454 263.036ZM177.454 263.036L177.449 263.596L177.445 266.804L177.448 269.653L177.449 270.009L177.454 270.565L177.455 270.61L177.457 270.847" stroke="#A7A9B2" stroke-width="0.6" stroke-linejoin="round"/>
<path d="M383.281 205.614L383.283 205.613L383.298 205.602L383.35 205.566L383.61 205.422L383.48 205.494L383.35 205.566" stroke="#A7A9B2" stroke-width="0.6" stroke-linejoin="round"/>
<path d="M383.773 220.717L383.909 220.791L384.012 220.848L384.045 220.866L384.012 220.848L383.773 220.717Z" stroke="#A7A9B2" stroke-width="0.6" stroke-linejoin="round"/>
<path d="M306.773 182.216L306.903 182.288L307.033 182.36" stroke="#A7A9B2" stroke-width="0.6" stroke-linejoin="round"/>
<path d="M307.113 182.415L307.105 182.408L307.037 182.361L306.778 182.217L306.422 182.039L306.6 182.128L306.778 182.217" stroke="#A7A9B2" stroke-width="0.6" stroke-linejoin="round"/>
<path d="M340.133 249.288L340.617 249.531L340.621 249.533L340.997 249.691L341.435 249.69L341.905 249.529L346.289 247.337L350.674 245.144L355.058 242.952L358.272 241.346L358.742 241.036L358.768 241.017L359.198 240.588L359.567 240.064L359.85 239.48L360.028 238.876L360.089 238.314L360.089 238.279L360.027 237.766L359.923 237.517L359.859 237.362L359.845 237.33L359.779 237.26L359.557 237.023L359.252 236.872L358.869 236.68L358.783 236.638" stroke="#A7A9B2" stroke-width="0.6" stroke-linejoin="round"/>
<path d="M255.453 286.456L255.459 287.018L255.461 289.062V290.226V291.39L255.459 293.068L255.459 293.431L255.453 293.983V293.987" stroke="#A7A9B2" stroke-width="0.6" stroke-linejoin="round"/>
<path d="M306.007 182.965L306 182.959L306.007 182.965Z" stroke="#A7A9B2" stroke-width="0.6" stroke-linejoin="round"/>
<path d="M178.345 246.802L178.336 246.793L178.345 246.802Z" stroke="#A7A9B2" stroke-width="0.6" stroke-linejoin="round"/>
<path d="M170.57 253.946L170.574 253.988L170.612 254.475L170.612 254.481L170.616 254.53L170.625 254.568L170.753 255.11L170.982 255.683L171.3 256.245L171.708 256.796L172.204 257.332L172.786 257.85L173.437 258.349L173.579 258.445L174.143 258.827L174.143 258.828L174.884 259.283L175.648 259.718L176.433 260.137L177.239 260.549L178.067 260.965L178.96 261.411L180.134 261.998L181.846 262.854L184.356 264.109L187.832 265.847L192.101 267.981L196.485 270.174L196.896 270.379L201.061 272.461L201.955 272.909L206.34 275.101L207.014 275.438L211.399 277.631L211.81 277.836L212.729 278.296L216.078 279.97L219.555 281.709L222.064 282.963L223.776 283.82L224.95 284.406L225.844 284.853L226.674 285.267L227.5 285.67L228.337 286.062L229.206 286.444L230.118 286.815L231.075 287.168L232.073 287.494L233.11 287.784L234.181 288.032L234.547 288.1L235.282 288.236L236.408 288.396L237.553 288.51L238.713 288.579L239.88 288.601L241.047 288.579L242.207 288.51L243.352 288.396L244.478 288.236L245.579 288.032L246.33 287.858L246.65 287.784L247.688 287.493L248.697 287.161L249.684 286.794L250.653 286.395L251.771 285.888L253.827 284.886L257.773 282.923L262.158 280.732L264.559 279.532L268.944 277.339L273.328 275.147L274.819 274.402L279.203 272.209L283.588 270.017L287.92 267.851L292.305 265.658L296.69 263.466L301.074 261.274L302.917 260.353L307.301 258.16L311.686 255.968L316.071 253.776L318.861 252.381L323.246 250.188L327.63 247.996L332.015 245.804L334.805 244.409L339.189 242.216L343.574 240.024L347.959 237.832L349.243 237.19L349.431 237.096L349.526 237.049L349.802 236.91L350.582 236.521L350.665 236.478L350.706 236.458L350.768 236.427L350.823 236.4L350.944 236.339L351.011 236.306L351.121 236.25L351.155 236.234L351.313 236.154L351.339 236.142L351.609 236.006L351.724 235.949L352.016 235.803L352.108 235.757L352.229 235.697L352.312 235.655L352.539 235.542L352.574 235.524L353.909 234.857L358.294 232.665L359.659 231.982L360.03 231.796L360.049 231.787L361.218 231.202L361.255 231.184L361.362 231.13L361.489 231.067L361.536 231.043L361.592 231.015L361.648 230.987L361.681 230.97L362.136 230.743L362.234 230.694L362.904 230.36L362.922 230.35L363.11 230.256L363.135 230.244L363.218 230.202L363.403 230.11L363.939 229.841L364.152 229.735L366.34 228.641L367.396 228.113L367.48 228.071L367.521 228.051L367.583 228.02L367.637 227.993L367.758 227.932L367.826 227.898L367.936 227.843L367.976 227.824L368.128 227.747L368.161 227.731L368.424 227.599L368.545 227.539L368.838 227.392L368.923 227.35L369.05 227.286L369.12 227.251L369.354 227.134L369.396 227.113L370.717 226.453L373.163 225.23L376.474 223.574L376.837 223.392L376.857 223.382L378.032 222.794L378.069 222.776L378.176 222.722L378.303 222.659L378.349 222.635L378.406 222.607L378.462 222.579L378.495 222.563L378.953 222.334L379.049 222.286L379.738 221.941L379.927 221.846L379.946 221.837L379.951 221.834L380.032 221.793L380.216 221.701L380.755 221.43L380.967 221.324L381.593 221.01L383.873 219.864L385.876 218.836L386.889 218.277L387.688 217.792L387.731 217.763L388.293 217.386L388.423 217.299L389.086 216.794L389.668 216.276L390.165 215.74L390.572 215.189L390.891 214.627L391.119 214.053L391.247 213.512L391.256 213.474L391.26 213.425L391.261 213.419L391.299 212.932L391.302 212.89L391.257 212.307L391.119 211.727L390.891 211.154L390.572 210.591L390.165 210.041L389.668 209.505L389.087 208.987L388.436 208.488L387.73 208.01L386.988 207.553L386.224 207.119L385.439 206.7L384.633 206.287L384.412 206.177L383.805 205.872L383.305 205.622L383.288 205.613H383.287L382.912 205.426L382.18 205.059L381.739 204.838L380.026 203.982L377.517 202.728L374.04 200.989L369.772 198.855L365.388 196.663L364.977 196.458L360.592 194.265L359.917 193.928L355.533 191.735L354.858 191.398L350.474 189.206L350.062 189L345.795 186.867L342.317 185.128L339.809 183.873L338.096 183.017L336.922 182.431L336.029 181.984L335.199 181.57L334.373 181.167L333.535 180.775L332.667 180.392L331.754 180.022L330.797 179.669L329.799 179.343L328.763 179.053L327.692 178.804L326.591 178.6L325.465 178.441L324.319 178.327L323.159 178.258L321.993 178.235L320.826 178.258L319.666 178.327L318.52 178.441L317.394 178.6L316.293 178.804L315.222 179.053L314.184 179.344L313.175 179.675L312.189 180.042L311.219 180.442L310.102 180.949L308.046 181.95L307.113 182.414L306.008 182.964L305.982 182.977L304.878 183.526H304.878L304.099 183.914L299.714 186.105L297.314 187.305L292.929 189.498L288.544 191.69L287.054 192.435L282.669 194.627L278.285 196.819L273.952 198.986L269.567 201.178L265.183 203.37L260.798 205.562L258.956 206.484L254.571 208.676L250.186 210.869L245.802 213.061L243.011 214.456L238.627 216.648L234.243 218.84L229.858 221.033L227.068 222.428L222.683 224.62L218.298 226.812L213.914 229.005L212.071 229.926L207.687 232.118L203.302 234.311L198.969 236.477L194.585 238.669L190.2 240.862L188.71 241.607L184.325 243.8L181.927 245L179.448 246.245L178.343 246.801L178.318 246.813L178.317 246.814L178 246.973L177.211 247.378H177.211L175.997 248.001L174.984 248.56L174.184 249.045L173.45 249.538L172.787 250.042L172.204 250.561L171.708 251.097L171.3 251.647L170.982 252.21L170.753 252.783L170.616 253.363L170.57 253.946ZM170.57 253.946V254.005V254.031V254.072" stroke="#A7A9B2" stroke-width="0.6" stroke-linejoin="round"/>
<path d="M391.297 213.016V212.973V212.948V212.89" stroke="#A7A9B2" stroke-width="0.6" stroke-linejoin="round"/>
<path d="M350.829 194.32L350.812 194.299L350.689 194.15L350.641 193.968L350.689 193.786L350.829 193.617L351.061 193.467L351.36 193.351L351.7 193.281L352.064 193.257L352.427 193.281L352.767 193.351L353.058 193.463L356.952 195.41L360.847 197.357L361.07 197.503L361.211 197.673L361.259 197.855L361.211 198.036L361.088 198.185L361.07 198.206L361.059 198.213L360.942 198.289L360.839 198.356L360.539 198.472L360.2 198.542L359.836 198.566L359.472 198.542L359.133 198.472L358.841 198.36L354.947 196.413L351.052 194.466L350.941 194.393L350.867 194.344L350.852 194.335L350.847 194.331L350.829 194.32Z" stroke="#A7A9B2" stroke-width="0.6" stroke-linejoin="round"/>
<path d="M361.084 198.052L361.059 198.193L361.055 198.214" stroke="#A7A9B2" stroke-width="0.6" stroke-linejoin="round"/>
<path d="M41.5001 231.282L41.2109 232.102V237.005V237.466V239.471L41.907 241.445L43.2782 243.328L45.2822 245.064L47.8593 246.6L50.93 247.888L54.4016 248.89L58.1685 249.576L62.1162 249.924H66.1252L70.0729 249.576L73.8397 248.89L77.3114 247.888L80.3821 246.6L82.9592 245.064L84.9632 243.328L86.3343 241.445L87.0304 239.471V235.071" stroke="#A7A9B2" stroke-width="0.6" stroke-linejoin="round"/>
<path d="M41.2109 232.103V234.107L41.907 236.081L43.2782 237.964L45.2822 239.7L47.8593 241.235L48.0166 241.301" stroke="#A7A9B2" stroke-width="0.6" stroke-linejoin="round"/>
<path d="M41.9219 235.464L42.1905 236.225L43.5617 238.109L45.5656 239.844L48.0109 241.301L48.1427 241.38L51.2134 242.669L54.6851 243.671L58.452 244.356L62.3997 244.704H66.4086L70.3564 244.356L74.1232 243.671L77.5949 242.669L80.6656 241.38L83.2422 239.844L85.2467 238.109L86.5972 236.254L86.6178 236.225L87.0247 235.071L87.3139 234.252V230.527" stroke="#A7A9B2" stroke-width="0.6" stroke-linejoin="round"/>
<path d="M42.0706 225.242L41.4922 226.882V231.282V232.246V234.251" stroke="#A7A9B2" stroke-width="0.6" stroke-linejoin="round"/>
<path d="M41.4922 226.882V228.886L41.9197 230.099L42.1883 230.86L43.5594 232.744L45.5634 234.48L48.1405 236.015L51.2112 237.303L54.6829 238.305L58.4498 238.991L62.3975 239.339H62.9759" stroke="#A7A9B2" stroke-width="0.6" stroke-linejoin="round"/>
<path d="M62.9844 239.34H66.9929L70.9411 238.992L74.7079 238.306L78.1796 237.304L81.2503 236.016L83.8269 234.48L84.8985 233.552L85.8314 232.745L86.7922 231.425L86.9525 231.204L87.2025 230.861L87.3202 230.527L87.8986 228.887V227.21" stroke="#A7A9B2" stroke-width="0.6" stroke-linejoin="round"/>
<path d="M55.2656 238.306L59.0325 238.991" stroke="#A7A9B2" stroke-width="0.6" stroke-linejoin="round"/>
<path d="M44.2109 232.801L46.1497 234.48L48.7268 236.016" stroke="#A7A9B2" stroke-width="0.6" stroke-linejoin="round"/>
<path d="M42.7734 230.861L44.1446 232.745" stroke="#A7A9B2" stroke-width="0.6" stroke-linejoin="round"/>
<path d="M48.6029 214.464L46.1494 215.926L44.1454 217.662L42.7743 219.545L42.0781 221.519V225.243V226.883" stroke="#A7A9B2" stroke-width="0.6" stroke-linejoin="round"/>
<path d="M42.0781 221.518V223.522L42.4458 224.564L42.7743 225.496L44.1454 227.379L44.2106 227.436L46.1494 229.115L48.7264 230.65L51.7972 231.939L55.2689 232.941L59.0357 233.626L62.9834 233.974H66.9919L70.9401 233.626L74.7069 232.941L78.1786 231.939L81.2493 230.65L83.8259 229.115L84.3303 228.678" stroke="#A7A9B2" stroke-width="0.6" stroke-linejoin="round"/>
<path d="M93.7254 222.128L94.4216 220.154V215.252V214.79V212.785L93.7254 210.812L92.3543 208.928L90.3498 207.193L87.7732 205.657L84.702 204.368L81.2308 203.366L77.4635 202.681L73.5158 202.333H69.5073L65.5596 202.681L61.7923 203.366L58.3206 204.368L55.2498 205.657L52.6733 207.193L50.6688 208.928L49.2977 210.812L48.6016 212.785V214.463V218.15V219.563V219.827V220.154L49.2977 222.128L50.5472 223.845L50.6688 224.011L50.706 224.044L52.6733 225.747L55.2498 227.283L56.2631 227.708L58.3206 228.571L61.7923 229.573L65.5596 230.259L69.5073 230.607H73.5158L77.4635 230.259L79.367 229.913L81.2308 229.573L84.329 228.679L84.702 228.571L85.0829 228.412L85.2133 228.357L87.3178 227.474L87.7732 227.283L87.8963 227.209L90.3498 225.747L92.3543 224.011L93.7254 222.128Z" stroke="#A7A9B2" stroke-width="0.6" stroke-linejoin="round"/>
<path d="M48.6016 212.786V214.464V214.791L49.2977 216.765L50.6688 218.648L50.706 218.68L52.6733 220.384L55.2498 221.919L56.2631 222.344L58.3206 223.208L61.7923 224.21L65.5596 224.895L69.5073 225.243H73.5158L77.4635 224.895L79.367 224.549L81.2308 224.21L84.702 223.208L85.2133 222.993L87.7732 221.919L87.8963 221.846L90.3498 220.384L92.3543 218.648L93.7254 216.765L94.4216 214.791" stroke="#A7A9B2" stroke-width="0.6" stroke-linejoin="round"/>
<path d="M152.991 230.756L153.687 228.782V226.778V223.418V221.413L152.991 219.44L151.619 217.556L149.615 215.82L147.038 214.285L143.968 212.996L140.496 211.994L136.729 211.309L132.781 210.961H128.772L124.825 211.309L121.058 211.994L117.586 212.996L114.516 214.285L111.938 215.82L109.934 217.556L108.563 219.44L107.867 221.413V223.418V228.32V228.782L108.563 230.756L109.934 232.639L111.938 234.375L114.516 235.91L117.586 237.199L121.058 238.201L124.825 238.887L128.772 239.235H132.781L136.729 238.887L140.496 238.201L143.968 237.199L147.038 235.91L149.615 234.375L151.619 232.639L152.991 230.756Z" stroke="#A7A9B2" stroke-width="0.6" stroke-linejoin="round"/>
<path d="M107.867 223.418L108.563 225.392L109.934 227.275L111.938 229.011L114.516 230.547L117.586 231.835L121.058 232.837L124.825 233.523L128.772 233.871H132.781L136.729 233.523L140.496 232.837L143.968 231.835L147.038 230.547L149.615 229.011L151.619 227.275L152.991 225.392L153.687 223.418" stroke="#A7A9B2" stroke-width="0.6" stroke-linejoin="round"/>
<path d="M118.637 68.6042V63.7021V62.2446L118.327 60.4931L117.445 59.3176L116.126 58.8975L114.569 59.2965L110.184 61.4887L105.799 63.681L101.415 65.8732L97.0304 68.0655L92.6454 70.2582L88.261 72.4504L83.8765 74.6427L79.492 76.8349L75.107 79.0272L70.7225 81.2194L66.338 83.4117L61.953 85.6039L57.5685 87.7967L53.1841 89.9889L48.7995 92.1812L44.4146 94.3734L40.0301 96.5656L35.6456 98.7579L31.4038 100.879L29.8473 102.036L28.5272 103.776L27.6453 105.834L27.3359 107.896V112.798V113.827" stroke="#A7A9B2" stroke-width="0.6" stroke-linejoin="round"/>
<path d="M117.453 59.3175L115.258 58.2199L113.938 57.7998L112.382 58.1988L107.997 60.3911L103.612 62.5833L99.2279 64.7761L94.8434 66.9683L90.4584 69.1606L86.0739 71.3528L81.6894 73.545L77.3045 75.7373L72.92 77.9295L68.5355 80.1223L64.151 82.3145L59.766 84.5068L55.3815 86.699L50.997 88.8913L46.612 91.0835L42.2275 93.2757L37.8431 95.4685L33.4586 97.6607L29.2167 99.7814L27.6598 100.939L26.3401 102.679L25.4583 104.737L25.1484 106.798V111.7V114.223" stroke="#A7A9B2" stroke-width="0.6" stroke-linejoin="round"/>
<path d="M148.407 39.9648L143.505 39.9663L140.742 39.9673L137.287 40.1423L133.474 40.6477L129.676 41.4345L126.264 42.4252L123.574 43.5228L119.188 45.7131L114.802 47.9029L110.416 50.0927L106.031 52.283L101.645 54.4728L97.2591 56.6631L92.8736 58.8529L88.4877 61.0426L84.1017 63.2329L79.7162 65.4227L75.3303 67.613L70.9448 69.8028L66.5588 71.9926L62.1729 74.1829L57.7874 76.3727L53.4014 78.563L49.0155 80.7528L44.63 82.9426L40.244 85.1328L35.8581 87.3226L31.4726 89.5129L27.0867 91.7027L22.7007 93.893L18.3152 96.0828L13.9293 98.2726L9.54379 100.463L5.15782 102.653L1.04688 104.706" stroke="#A7A9B2" stroke-width="0.6" stroke-linejoin="round"/>
<path d="M161.936 24.8438L157.034 24.8452L152.132 24.8472L147.23 24.8491L142.328 24.8506L140.743 24.8511L137.287 25.0261L133.474 25.532L129.676 26.3183L126.264 27.309L123.573 28.4071L119.187 30.5969L114.801 32.7867L110.416 34.9765L106.03 37.1663L101.644 39.3561L97.2581 41.5459L92.8721 43.7357L88.4867 45.9255L84.1007 48.1153L79.7148 50.3051L75.3288 52.4949L70.9428 54.6847L66.5569 56.8745L62.1714 59.0647L57.7854 61.2545L53.3995 63.4443L49.0135 65.6341L44.6276 67.8239L40.2421 70.0137L35.8561 72.2035L31.4702 74.3933L27.0842 76.5831L22.6982 78.7729L18.3123 80.9627L13.9268 83.1525L10.1899 85.0182L7.36427 86.9791L4.81565 89.8439L2.79303 93.3323L1.49442 97.1035L1.04688 100.788V104.705L4.80437 106.584" stroke="#A7A9B2" stroke-width="0.6" stroke-linejoin="round"/>
<path d="M4.80469 146.457V141.555V136.653V131.751V126.849V121.947V117.044V112.142V107.24V106.584L9.18623 104.386L13.5683 102.188L17.9503 99.9903L22.3324 97.7927L26.7139 95.5946L31.096 93.397L35.4775 91.1993L39.8596 89.0012L44.2416 86.8035L48.6231 84.6059L53.0052 82.4078L57.3872 80.2101L61.7693 78.0125L66.1508 75.8144L70.5328 73.6167L74.9144 71.4191L79.2964 69.221L83.6785 67.0233L88.0605 64.8257L92.4421 62.6276L96.8241 60.4299L101.206 58.2323L105.588 56.0341L109.97 53.8365L114.351 51.6389L118.733 49.4408L123.115 47.2431L125.614 45.9896L128.303 44.8886L131.715 43.8959L135.514 43.1091L139.33 42.6047L142.789 42.4326L146.538 42.4356" stroke="#A7A9B2" stroke-width="0.6" stroke-linejoin="round"/>
<path d="M313.906 39.9092V42.5661" stroke="#A7A9B2" stroke-width="0.6" stroke-linejoin="round"/>
<path d="M268.672 42.5312L273.574 42.5352L278.476 42.5391L283.378 42.5425L288.281 42.5464L293.183 42.5504L298.085 42.5543L302.987 42.5582L307.889 42.5616L312.791 42.5656L313.91 42.5665V47.4687V52.3709V57.273V62.1752V67.0773V71.9795V76.8817V81.7838V84.9589" stroke="#A7A9B2" stroke-width="0.6" stroke-linejoin="round"/>
<path d="M313.903 84.9586V80.0564V75.1542V70.2521V65.3499V60.4478V55.5456V50.6434V45.7413V40.8391V39.9092V35.9914V32.4216L313.27 28.9612L311.433 25.8395L308.573 23.3624L304.969 21.7717L300.973 21.2236L296.071 21.2334L291.168 21.2428L286.266 21.2521L281.364 21.2614L276.462 21.2707L271.56 21.2805L266.658 21.2898L261.755 21.2991L256.898 21.3084" stroke="#A7A9B2" stroke-width="0.6" stroke-linejoin="round"/>
<path d="M313.905 39.9092L309.003 39.9106L304.101 39.9126L299.199 39.9141L294.297 39.9156L289.395 39.9175L284.493 39.919L279.59 39.9204L274.688 39.9224L269.786 39.9239L267.828 39.9244" stroke="#A7A9B2" stroke-width="0.6" stroke-linejoin="round"/>
<path d="M4.80469 168.201V173.103V178.005V182.908V187.81V192.712V197.614V202.516V203.942L5.25227 207.179L6.55084 209.651L8.57346 211.117" stroke="#A7A9B2" stroke-width="0.6" stroke-linejoin="round"/>
<path d="M259.898 24.8096L264.801 24.8077L269.703 24.8062L274.605 24.8042L279.507 24.8028L284.409 24.8008L289.311 24.7988L294.214 24.7974L299.116 24.7954L300.982 24.7949L304.978 25.343L308.582 26.9332L311.443 29.4108L313.279 32.5325L313.912 35.9924" stroke="#A7A9B2" stroke-width="0.6" stroke-linejoin="round"/>
<path d="M122.932 90.3867V85.4846V80.5824V75.6803V70.7781V65.8759V62.917L120.06 66.8897L118.92 68.4672L118.645 68.6045L116.45 69.7021L112.066 71.8943L107.681 74.0866L103.297 76.2788L98.9118 78.4711L94.5273 80.6633L90.1428 82.8555L85.7578 85.0478L81.3733 87.2405L76.9888 89.4328L72.6043 91.625L68.2193 93.8173L63.8349 96.0095L59.4504 98.2018L55.0659 100.394L50.6809 102.587L46.2964 104.779L41.9119 106.971L37.5269 109.163L33.1424 111.356L28.6859 113.584L27.3441 113.827L25.149 114.223L20.3252 115.096L17.5859 115.591V120.493V125.395V130.297V135.199V140.101V143.712" stroke="#A7A9B2" stroke-width="0.6" stroke-linejoin="round"/>
<path d="M290.169 84.9595V80.0574V75.1552V70.2531V65.3509V60.4487V57.9697H285.267H280.365H275.462H271.508" stroke="#A7A9B2" stroke-width="0.6" stroke-linejoin="round"/>
<path d="M17.5859 166.159V171.061V175.964V180.866V185.768V190.096L21.9704 187.904L26.3549 185.712L30.7399 183.519L35.1244 181.327L39.5089 179.135L43.8934 176.943L48.2783 174.75L52.6628 172.558L57.0473 170.365L61.4318 168.173L65.8168 165.981L70.2013 163.789L74.5858 161.596L78.9708 159.404L83.3553 157.211L87.7397 155.019L92.1242 152.827L96.5092 150.635L100.894 148.442L105.278 146.25L109.663 144.058L114.048 141.865L118.987 139.396" stroke="#A7A9B2" stroke-width="0.6" stroke-linejoin="round"/>
<path d="M242.354 217.702L242.284 217.809L241.344 219.257V221.14L242.507 222.931L243.158 223.378L243.797 223.818L244.721 224.454L249.105 226.646L253.49 228.838L257.874 231.03L262.259 233.223L266.644 235.415L271.028 237.608L273.536 238.861L277.92 241.053L282.305 243.246L286.69 245.438L289.675 246.931L292.721 248.037L293.329 248.136L296.302 248.619H300.068L303.649 248.037L306.696 246.931L311.08 244.738L315.465 242.546L319.85 240.354L324.234 238.162L328.619 235.969L333.004 233.777L337.414 231.572L337.538 231.509L341.923 229.317L346.308 227.125L347.871 226.343L349.264 225.646L349.402 225.578L349.594 225.482L349.633 225.462L349.734 225.412L349.864 225.347L350.037 225.26L350.247 225.155L350.448 225.055L350.604 224.977L350.894 224.831L351.252 224.653L351.556 224.501L351.65 224.454L352.008 224.207L352.154 224.107L352.328 223.986L352.77 223.683L353.114 223.447L353.683 223.055L353.864 222.931L353.927 222.832L354.43 222.058L355.027 221.14V219.66V219.611V219.49V219.299V219.276V219.257L354.95 219.139L354.815 218.93L354.809 218.921L354.189 217.967L354.012 217.695L353.864 217.466L352.536 216.552L352.276 216.374L352.235 216.345L351.965 216.16L351.925 216.132L351.65 215.943L350.776 215.506L349.507 214.872L349.268 214.752L346.868 213.552L342.483 211.36L338.099 209.167L333.714 206.975L329.329 204.783L324.945 202.591L320.56 200.398L316.175 198.206L311.791 196.013L307.406 193.821L306.696 193.466L305.425 193.004L304.545 192.685L303.649 192.359L300.068 191.777H297.799H297.12H297.009H296.302L293.535 192.227L293.408 192.248L293.194 192.282" stroke="#A7A9B2" stroke-width="0.6" stroke-linejoin="round"/>
<path d="M293.192 192.282L292.822 192.343L292.719 192.359L290.79 193.06L289.975 193.356L289.673 193.466L285.288 195.658L285.011 195.797L284.985 195.81L284.98 195.812L280.596 198.005L276.211 200.197L273.224 201.69L272.714 201.945L269.565 203.519L269.54 203.532L269.535 203.535L265.151 205.727L260.766 207.919L257.731 209.437L257.22 209.692L252.835 211.884L248.451 214.077L244.719 215.943L242.505 217.466L242.352 217.702" stroke="#A7A9B2" stroke-width="0.6" stroke-linejoin="round"/>
<path d="M241.344 221.14V224.285V225.045V225.215L242.507 227.006L244.721 228.529L249.105 230.721L253.49 232.914L257.874 235.106L262.259 237.298L266.644 239.49L268.047 240.192L269.224 240.781L273.352 242.845L277.737 245.037L282.122 247.229L283.3 247.819L287.685 250.011L288.677 250.508L289.675 251.006L292.721 252.113L296.302 252.694H300.068L303.649 252.113L306.696 251.006L311.08 248.814L315.465 246.622L319.85 244.429L324.234 242.237L328.619 240.044L333.004 237.852L337.388 235.66L341.488 233.61L341.615 233.546L345.414 231.647L345.438 231.635L345.57 231.569L345.743 231.482L345.894 231.407L346.384 231.162L346.411 231.148L346.707 231L348.063 230.322L348.761 229.973L350.183 229.263L351.363 228.673L351.65 228.529L352.625 227.858L352.835 227.714L352.916 227.658L353.132 227.509L353.165 227.486L353.864 227.006L353.877 226.985L354.241 226.424L354.317 226.308L355.027 225.215V225.201V224.225V224.09V223.997V223.935V223.803V223.802V223.79V223.721V223.704V223.638V223.412V223.332V223.212V223.193V223.185V222.99V222.931V222.926V221.14" stroke="#A7A9B2" stroke-width="0.6" stroke-linejoin="round"/>
<path d="M219.016 242.165L219.56 243.003L220.596 243.716L224.981 245.908L229.365 248.101L233.75 250.293L238.135 252.485L242.519 254.678L246.904 256.87L248.69 257.763L250.116 258.281L251.792 258.553H253.555L255.231 258.281L256.656 257.763L261.041 255.571L265.426 253.379L267.009 252.587L268.045 251.874L268.589 251.036V250.155L268.045 249.317L267.009 248.604L262.624 246.412L258.24 244.219L253.855 242.027L249.47 239.835L245.086 237.643L240.701 235.45L238.914 234.557L237.489 234.039L235.813 233.767H234.05L232.374 234.039L230.948 234.557L226.564 236.749L222.179 238.941L220.596 239.733L219.56 240.446L219.016 241.284V242.165ZM219.016 242.165V246.241L219.56 247.079L220.596 247.792L224.981 249.984L229.365 252.176L233.75 254.369L238.135 256.561L242.519 258.753L246.904 260.946L248.69 261.839L250.116 262.357L251.792 262.629H253.555L255.231 262.357L256.656 261.839L261.041 259.647L265.426 257.454L267.009 256.663L268.045 255.95L268.589 255.112V254.231V250.155" stroke="#A7A9B2" stroke-width="0.6" stroke-linejoin="round"/>
<path d="M272.872 213.175L277.257 210.983L281.641 208.791L286.095 206.564L282.198 204.615L281.438 204.235L281.028 204.03L276.643 206.223L272.258 208.415L267.805 210.642L268.215 210.847L268.975 211.227L272.872 213.175Z" stroke="#A7A9B2" stroke-width="0.6" stroke-linejoin="round"/>
<path d="M282.638 216.908L287.022 214.716L291.407 212.524L295.791 210.332L300.2 208.127L295.815 205.935L295.133 205.594L290.748 207.786L286.364 209.978L281.979 212.171L277.57 214.375L281.955 216.567L282.638 216.908Z" stroke="#A7A9B2" stroke-width="0.6" stroke-linejoin="round"/>
<path d="M287.676 223.002L292.061 220.81L296.446 218.617L300.83 216.425L303.324 215.178L298.939 212.986L298.257 212.645L293.873 214.837L289.488 217.029L285.103 219.221L282.609 220.468L286.994 222.661L287.676 223.002Z" stroke="#A7A9B2" stroke-width="0.6" stroke-linejoin="round"/>
<path d="M305.223 222.841L309.608 220.649L313.993 218.456L318.377 216.264L321.254 214.826L316.869 212.634L316.187 212.292L311.802 214.485L307.418 216.677L303.033 218.869L300.156 220.308L304.541 222.5L305.223 222.841Z" stroke="#A7A9B2" stroke-width="0.6" stroke-linejoin="round"/>
<path d="M314.223 226.957L318.608 224.765L322.992 222.572L327.377 220.38L331.762 218.188L332.041 218.048L327.656 215.856L326.974 215.515L322.589 217.707L318.204 219.9L313.82 222.092L309.435 224.284L309.156 224.424L313.541 226.616L314.223 226.957Z" stroke="#A7A9B2" stroke-width="0.6" stroke-linejoin="round"/>
<path d="M317.348 234.008L321.733 231.816L326.118 229.624L330.249 227.558L330.251 227.557L330.255 227.555L333.275 226.045L335.676 224.844L332.958 223.485L330.609 222.311L329.883 222.674L325.498 224.866L321.113 227.058L316.729 229.251L312.281 231.475L316.666 233.667L317.348 234.008Z" stroke="#A7A9B2" stroke-width="0.6" stroke-linejoin="round"/>
<path d="M304.332 240.517L307.472 238.947L303.087 236.755L298.702 234.563L294.318 232.37L289.933 230.178L285.548 227.985L281.164 225.793L276.779 223.601L272.395 221.409L268.01 219.216L263.626 217.024L260.505 215.464L259.745 215.084L259.335 214.879L256.195 216.449L256.605 216.653L257.365 217.034L261.75 219.226L266.134 221.418L270.519 223.611L274.904 225.803L279.288 227.995L283.673 230.187L288.057 232.38L290.235 233.468L290.721 233.712L292.049 234.376L296.434 236.568L300.818 238.76L304.332 240.517Z" stroke="#A7A9B2" stroke-width="0.6" stroke-linejoin="round"/>
<path d="M26.7344 157.465L27.0315 157.588L27.2682 157.686L27.3471 157.719L27.4251 157.751L28.0869 157.899L28.1943 157.896L28.9075 157.864L29.6571 157.658L30.4247 157.279L31.1929 156.73L31.9424 156.031L32.6557 155.201L33.3136 154.259L33.8984 153.225L34.3984 152.125L34.8024 150.989L35.099 149.844L35.2769 148.718L35.3362 147.639L35.2769 146.63L35.099 145.719L34.8024 144.933L34.3984 144.284L34.3269 144.209L33.8239 143.71L33.2361 143.38L33.0793 143.315L32.8425 143.217" stroke="#A7A9B2" stroke-width="0.6" stroke-linejoin="round"/>
<path d="M28.1883 157.896L27.5305 157.749L26.9456 157.42L26.8446 157.32L26.4456 156.925L26.0417 156.276L25.7451 155.49L25.5671 154.579L25.5078 153.571L25.5671 152.491L25.7451 151.365L26.0417 150.22L26.4456 149.084L26.9456 147.985L27.5305 146.95L28.1883 146.008L28.9016 145.178L29.6511 144.479L30.4188 143.931L31.187 143.552L31.9365 143.345L32.6135 143.315L32.6498 143.313L33.3076 143.461L33.8925 143.789L34.3925 144.285" stroke="#A7A9B2" stroke-width="0.6" stroke-linejoin="round"/>
<path d="M153.906 182.992L156.433 184.216L158.757 185.338L160.475 186.131L161.498 186.544L163.898 187.499L166.371 188.287L166.926 188.431L169.467 189.049L172.072 189.497L174.737 189.774L177.458 189.88L180.227 189.814L180.528 189.799L183.337 189.563L186.185 189.155L189.067 188.578L191.977 187.832L194.909 186.918L195.135 186.845L198.078 185.768L201.033 184.528L203.992 183.127L206.952 181.568L207.133 181.464L210.08 179.753L213.016 177.891L215.936 175.882L218.832 173.728L221.701 171.433L224.537 169.003L227.334 166.442L230.087 163.755L230.179 163.661L232.875 160.86L235.517 157.944L237.695 155.392L238.1 154.918L238.854 153.98L240.617 151.787L241.16 151.073L243.067 148.558L245.442 145.237L245.6 145.002L247.739 141.831L249.954 138.345L252.081 134.786L252.276 134.439L254.118 131.162L256.06 127.479L257.904 123.744L259.646 119.964L261.282 116.146L262.81 112.298L264.227 108.427L265.529 104.54L266.716 100.645L267.783 96.7495L268.73 92.8601L269.554 88.9845L270.029 86.3711L270.254 85.1304L270.28 84.9593L270.829 81.3052L270.849 81.1704L271.298 77.3702L271.62 73.6137L271.813 69.9072L271.877 66.2585L271.813 62.6741L271.62 59.1612L271.508 57.9695L271.298 55.7258L271.274 55.5243L270.823 52.1653L270.246 48.898L269.542 45.7273L268.713 42.6605L268.672 42.5316L267.833 39.9251L267.762 39.7026L267.685 39.4756L266.609 36.6269L265.415 33.8984L264.102 31.2954L262.675 28.8232L261.136 26.4863L260.967 26.2353L259.897 24.8093L259.315 24.0348L257.558 21.9783L256.906 21.3092L255.698 20.0699L253.739 18.3134L253.292 17.9571L251.235 16.3536L249.085 14.9084L248.142 14.3388L245.903 13.0529L244.238 12.1539L241.743 10.8666L238.769 9.36652L235.784 7.88754L233.257 6.66347L230.933 5.54087L229.215 4.74918L228.192 4.33544L225.792 3.3805L223.318 2.59271L222.764 2.4486L220.223 1.83043L217.618 1.38286L214.953 1.10589L212.232 1L209.463 1.0652L209.162 1.0804L206.353 1.31717L203.505 1.72454L200.623 2.30152L197.713 3.04763L194.78 3.9614L194.555 4.03493L191.612 5.11193L188.658 6.35168L185.698 7.75272L182.737 9.31162L182.557 9.41553L179.61 11.1259L176.674 12.9877L173.754 14.9976L170.858 17.1521L167.989 19.4463L165.61 21.4847L165.153 21.8763L162.356 24.4372L161.94 24.8441L159.603 27.1251L159.51 27.2187L156.815 30.0198L154.173 32.9361L151.59 35.9622L149.072 39.0927L148.411 39.9648L146.623 42.3213L146.541 42.436L144.248 45.642L141.951 49.0485L139.736 52.5344L137.608 56.0929L135.572 59.7171L133.63 63.4006L131.786 67.1355L130.044 70.9156L128.408 74.7334L126.88 78.5811L125.463 82.4523L124.16 86.3392L122.974 90.234L122.932 90.3865L121.907 94.1303L120.96 98.0196L120.136 101.895L119.436 105.749L118.861 109.575L118.841 109.709L118.645 111.366L118.392 113.509L118.07 117.266L117.877 120.972L117.813 124.58L117.812 124.621L117.877 128.205L118.07 131.719L118.392 135.153L118.416 135.355L118.866 138.714L118.987 139.395L119.444 141.982L120.148 145.152L120.976 148.219L121.115 148.651L121.928 151.177L122.005 151.404L123.081 154.253L123.643 155.538L124.276 156.981L125.588 159.584L127.015 162.056L128.554 164.393L128.723 164.644L130.374 166.844L132.131 168.901L133.992 170.809L135.951 172.566L136.398 172.922L138.455 174.526L140.605 175.971L141.548 176.541L143.787 177.826L145.452 178.725L147.947 180.013L150.921 181.513L153.906 182.992Z" stroke="#A7A9B2" stroke-width="0.6" stroke-linejoin="round"/>
<path d="M178.558 270.209L178.555 270.207" stroke="#A7A9B2" stroke-width="0.6" stroke-linejoin="round"/>
<path d="M255.457 293.067L255.453 293.069" stroke="#A7A9B2" stroke-width="0.6" stroke-linejoin="round"/>
<path d="M313.906 84.9599V80.0578V75.1556V70.2535V65.3513V60.4491V55.547V50.6448V45.7427V40.8405V36.3408" stroke="#A7A9B2" stroke-width="0.6" stroke-linejoin="round"/>
<path d="M313.904 84.959H309.002H304.1H299.198H294.296H290.162H285.26H280.358H275.456H270.554H270.273" stroke="#A7A9B2" stroke-width="0.6" stroke-linejoin="round"/>
<path d="M350.867 194.344L350.85 194.298L350.812 194.188" stroke="#A7A9B2" stroke-width="0.6" stroke-linejoin="round"/>
<path d="M350.851 194.335L350.829 194.31L350.811 194.29L350.688 194.15" stroke="#A7A9B2" stroke-width="0.6" stroke-linejoin="round"/>
<path d="M359.258 236.871L359.188 236.796" stroke="#A7A9B2" stroke-width="0.6" stroke-linejoin="round"/>
<path d="M383.129 229.24L383.125 229.242" stroke="#A7A9B2" stroke-width="0.6" stroke-linejoin="round"/>
</svg>
